<?xml version="1.0" standalone="no"?>
<!DOCTYPE svg PUBLIC "-//W3C//DTD SVG 20010904//EN"
 "http://www.w3.org/TR/2001/REC-SVG-20010904/DTD/svg10.dtd">
<svg version="1.0" xmlns="http://www.w3.org/2000/svg"
 width="736.000000pt" height="736.000000pt" viewBox="0 0 736.000000 736.000000"
 preserveAspectRatio="xMidYMid meet">
<metadata>
Created by potrace 1.11, written by Peter Selinger 2001-2013
</metadata>
<g transform="translate(0.000000,736.000000) scale(0.100000,-0.100000)"
fill="#000000" stroke="none">
<path d="M768 6429 c-125 -15 -267 -55 -368 -105 -162 -80 -275 -214 -338
-400 -54 -158 -57 -201 -57 -754 0 -559 2 -588 57 -762 68 -218 205 -365 415
-446 203 -78 299 -84 1333 -79 929 5 916 4 1095 58 197 59 346 180 429 349 86
176 106 307 106 693 l0 267 -1065 0 -1065 0 0 -225 0 -225 798 0 797 1 0 -108
c-1 -94 -4 -115 -26 -163 -42 -90 -100 -136 -219 -176 -51 -17 -111 -19 -890
-22 -877 -4 -927 -2 -1040 41 -73 27 -148 103 -175 177 -19 53 -20 80 -20 615
l0 560 23 57 c27 67 88 133 146 159 123 54 102 53 931 57 803 4 943 -1 1047
-37 70 -24 130 -63 163 -107 l26 -34 270 0 c148 0 269 2 269 4 0 2 -9 35 -21
72 -37 122 -96 222 -178 305 -88 88 -151 126 -276 168 -196 66 -167 64 -1175
67 -503 1 -949 -2 -992 -7z"/>
<path d="M4656 6419 c-221 -25 -394 -96 -525 -216 -81 -73 -133 -153 -168
-257 -26 -77 -27 -91 -27 -271 0 -179 2 -195 27 -271 83 -248 281 -381 647
-433 205 -29 321 -33 1090 -41 705 -7 827 -10 901 -25 168 -33 210 -82 210
-248 1 -200 -47 -262 -237 -309 -87 -21 -109 -22 -869 -26 -813 -4 -938 1
-1056 38 -73 22 -135 63 -155 102 l-15 28 -269 0 -270 0 0 -34 c0 -44 36 -161
65 -211 98 -169 281 -284 545 -342 79 -17 149 -18 1065 -18 l980 0 120 27
c147 32 229 60 315 104 174 90 280 233 316 424 24 127 15 400 -16 490 -90 264
-323 398 -780 451 -55 6 -453 14 -955 19 -758 6 -869 9 -935 25 -96 21 -169
60 -193 103 -40 68 -31 255 15 330 11 18 38 43 61 56 117 68 303 80 1132 73
656 -6 797 -14 923 -53 58 -19 132 -78 132 -107 0 -15 26 -17 280 -17 154 0
280 4 280 9 0 33 -53 205 -76 246 -15 28 -64 86 -108 130 -63 63 -100 90 -167
123 -99 49 -235 86 -372 101 -113 13 -1803 13 -1911 0z"/>
<path d="M4785 3464 c-210 -15 -355 -49 -483 -113 -208 -105 -323 -276 -379
-566 -13 -68 -16 -218 -20 -977 l-4 -898 265 0 266 0 0 460 0 460 1195 0 1195
0 0 -460 0 -460 260 0 260 0 0 878 c0 713 -3 895 -15 972 -31 208 -98 354
-214 470 -113 112 -242 174 -445 212 -107 20 -145 21 -971 23 -473 1 -882 1
-910 -1z m1795 -472 c98 -34 152 -78 192 -159 l33 -67 3 -248 3 -248 -1191 0
-1192 0 4 238 c4 198 8 246 23 290 25 71 90 143 156 172 115 49 116 49 1039
47 l865 -2 65 -23z"/>
<path d="M708 2959 c-419 -61 -646 -290 -698 -702 -16 -129 -13 -542 6 -664
47 -318 211 -523 495 -618 172 -58 163 -57 1074 -62 902 -5 1011 -1 1183 43
153 38 251 92 353 193 70 70 94 102 127 171 22 47 51 123 64 170 22 82 23 100
23 450 0 350 -1 369 -23 453 -28 105 -52 161 -104 244 -79 124 -228 232 -393
283 -158 48 -198 50 -1155 49 -492 -1 -921 -5 -952 -10z m1915 -423 c143 -28
226 -87 268 -192 23 -57 24 -72 27 -364 2 -205 0 -324 -8 -365 -29 -148 -107
-224 -269 -262 -56 -14 -183 -17 -857 -20 -1051 -6 -1140 1 -1252 102 -66 59
-89 117 -103 252 -15 146 -6 549 15 622 36 130 129 203 294 231 26 4 444 8
929 9 724 1 894 -2 956 -13z"/>
</g>
</svg>
