<svg
  xmlns="http://www.w3.org/2000/svg"
  viewBox="0 0.41 95.23 16.061">
  <path
    id="g"
    style="fill:#000000;fill-opacity:1;stroke:none"
    d="m 76.98,5.73 c 0,-1.8 0.88,-2.5 3.13,-2.5 h 8.68 c 2.25,0 3.13,0.7 3.13,2.5 V 7.94 H 76.971 C 76.98,7.53 76.98,5.73 76.98,5.73 M 79.9,0.45 c -4.37,0 -6.23,1.8 -6.23,6.03 v 9.42 l 0.011,0.58 h 3.3 v -5.79 h 14.95 v 5.79 h 3.3 l 0.01,-0.58 V 6.48 c 0,-4.23 -1.86,-6.03 -6.23,-6.03 H 79.9" />
  <path
    id="s"
    style="fill:#000000;fill-opacity:1;stroke:none"
    d="M 6.23,0.41 C 1.86,0.41 0,2.21 0,6.44 v 3.979 c 0,4.221 1.86,6.03 6.23,6.03 h 9.12 c 4.37,0 6.229,-1.8 6.229,-6.03 V 7.89 H 8.21 v 2.79 c 0,0 9.561,-0.021 10.05,-0.021 v 0.49 c 0,1.8 -0.88,2.5 -3.13,2.5 H 6.45 c -2.25,0 -3.13,-0.7 -3.13,-2.5 V 5.69 c 0,-1.8 0.88,-2.5 3.13,-2.5 h 8.68 c 1.45,0 2.33,0.31 2.771,0.99 L 17.98,4.3 h 3.399 L 21.29,3.98 C 20.63,1.51 18.79,0.42 15.35,0.42 H 6.23"/>
  <path
    id="o"
    style="fill:#000000;fill-opacity:1;stroke:none"
    d="m 30.63,0.46 c -2.18,0 -3.67,0.44 -4.689,1.38 -0.58,0.48 -0.97,1.101 -1.17,1.9 C 24.66,4.16 24.6,4.61 24.6,5.1 c 0,2.1 0.71,3.34 2.29,4.01 1.55,0.66 4.01,0.79 8,0.79 h 4.55 c 2.8,0 3.109,0.47 3.229,1.12 0,0.02 0.051,0.6 0.051,0.6 0,1.3 -0.41,1.74 -1.83,1.96 -0.4,0.08 -0.841,0.12 -1.36,0.12 h -8.15 c -1.1,0 -1.909,-0.1 -2.449,-0.3 a 1.91,1.91 0 0 1 -0.71,-0.49 c 0,-0.01 -0.07,-0.14 -0.07,-0.14 l -0.07,-0.141 -0.17,-0.02 h -3.25 l 0.03,0.35 c 0.189,1.2 0.84,2.09 1.92,2.66 0.95,0.58 2.26,0.87 4.01,0.87 h 9.12 c 0.94,0 1.74,-0.08 2.46,-0.26 2.6,-0.48 3.93,-1.88 3.93,-4.17 v -0.94 c 0,-0.45 -0.06,-0.87 -0.189,-1.26 C 45.6,8.76 44.78,8 43.44,7.54 42.33,7.15 40.86,6.96 38.93,6.96 h -7.09 c -4,0 -4,-0.72 -4,-1.72 0,-0.68 0.12,-1.1 0.4,-1.37 0.63,-0.63 2.24,-0.63 5.17,-0.63 h 2.84 c 4.33,0 5.601,0.2 5.9,0.95 l 0.06,0.16 h 3.5 L 45.64,4.06 45.5,3.41 C 45.33,2.85 45.03,2.38 44.601,1.98 43.62,0.94 42.07,0.46 39.75,0.46 h -9.12 m 12.81,7.08 z" />
  <path
    id="a"
    style="fill:#b40e44;stroke:none;fill-opacity:1"
    d="M 51.87,11.02 V 8.98 c 0,-1.891 0.48,-2.79 3.18,-2.79 h 9.29 c 2.7,0 3.181,0.899 3.181,2.79 v 2.04 c 0,1.89 -0.48,2.79 -3.181,2.79 h -9.29 c -2.7,0 -3.18,-0.9 -3.18,-2.79 z m 3.18,-7.49 c -3.869,0 -5.84,1.83 -5.84,5.45 v 2.04 c 0,3.62 1.96,5.45 5.84,5.45 h 9.29 c 3.881,0 5.841,-1.83 5.841,-5.45 V 8.98 c 0,-3.62 -1.971,-5.45 -5.841,-5.45 h -9.29" />
</svg>
