<?xml version="1.0" encoding="UTF-8" standalone="no"?>
<!-- Created with Inkscape (http://www.inkscape.org/) -->

<svg
   xmlns:dc="http://purl.org/dc/elements/1.1/"
   xmlns:cc="http://creativecommons.org/ns#"
   xmlns:rdf="http://www.w3.org/1999/02/22-rdf-syntax-ns#"
   xmlns:svg="http://www.w3.org/2000/svg"
   xmlns="http://www.w3.org/2000/svg"
   xmlns:sodipodi="http://sodipodi.sourceforge.net/DTD/sodipodi-0.dtd"
   xmlns:inkscape="http://www.inkscape.org/namespaces/inkscape"
   width="158.00584mm"
   height="8.0046787mm"
   viewBox="0 0 158.00584 8.0046787"
   version="1.1"
   id="svg8"
   inkscape:version="0.92.4 (5da689c313, 2019-01-14)"
   sodipodi:docname="schweizerwaffenexporte-inkscape.svg">
  <defs
     id="defs2" />
  <sodipodi:namedview
     id="base"
     pagecolor="#ffffff"
     bordercolor="#666666"
     borderopacity="1.0"
     inkscape:pageopacity="0.0"
     inkscape:pageshadow="2"
     inkscape:zoom="1.5656725"
     inkscape:cx="298.59374"
     inkscape:cy="15.126952"
     inkscape:document-units="mm"
     inkscape:current-layer="layer1"
     showgrid="false"
     fit-margin-top="0"
     fit-margin-left="0"
     fit-margin-right="0"
     fit-margin-bottom="0" />
  <metadata
     id="metadata5">
    <rdf:RDF>
      <cc:Work
         rdf:about="">
        <dc:format>image/svg+xml</dc:format>
        <dc:type
           rdf:resource="http://purl.org/dc/dcmitype/StillImage" />
        <dc:title></dc:title>
      </cc:Work>
    </rdf:RDF>
  </metadata>
  <g
     inkscape:label="Layer 1"
     inkscape:groupmode="layer"
     id="layer1"
     transform="translate(152.7607,-112.25233)">
    <g
       aria-label="SCHWEIZER WAFFENEXPORTE"
       style="font-style:normal;font-variant:normal;font-weight:normal;font-stretch:normal;font-size:10.58333302px;line-height:6.61458302px;font-family:sans-serif;-inkscape-font-specification:sans-serif;letter-spacing:0px;word-spacing:0px;fill:#000000;fill-opacity:1;stroke:none;stroke-width:0.26458332"
       id="text821">
      <path
         d="m -147.79459,112.64507 v 1.01803 q -0.59428,-0.28422 -1.12138,-0.42375 -0.5271,-0.13953 -1.01803,-0.13953 -0.85266,0 -1.31774,0.33073 -0.45992,0.33073 -0.45992,0.94051 0,0.5116 0.30489,0.77515 0.31005,0.25838 1.16788,0.41858 l 0.63046,0.12919 q 1.16788,0.22221 1.72082,0.78548 0.55811,0.55811 0.55811,1.49862 0,1.12138 -0.75448,1.70015 -0.74931,0.57878 -2.20142,0.57878 -0.54777,0 -1.16788,-0.12402 -0.61495,-0.12403 -1.27641,-0.36691 v -1.07487 q 0.63562,0.35657 1.2454,0.53744 0.60978,0.18087 1.19889,0.18087 0.89401,0 1.37977,-0.3514 0.48575,-0.3514 0.48575,-1.00253 0,-0.56844 -0.3514,-0.88883 -0.34623,-0.3204 -1.14205,-0.48059 l -0.63562,-0.12403 q -1.16788,-0.23254 -1.68981,-0.72863 -0.52194,-0.4961 -0.52194,-1.37976 0,-1.0232 0.71831,-1.61231 0.72347,-0.58911 1.98954,-0.58911 0.5426,0 1.10587,0.0982 0.56328,0.0982 1.15239,0.29456 z"
         style="font-style:normal;font-variant:normal;font-weight:normal;font-stretch:normal;font-family:sans-serif;-inkscape-font-specification:sans-serif;stroke-width:0.26458332"
         id="path842" />
      <path
         d="m -139.92427,112.98614 v 1.1007 q -0.5271,-0.49092 -1.12655,-0.7338 -0.59428,-0.24288 -1.26607,-0.24288 -1.32292,0 -2.02572,0.81132 -0.7028,0.80615 -0.7028,2.33577 0,1.52446 0.7028,2.33578 0.7028,0.80615 2.02572,0.80615 0.67179,0 1.26607,-0.24288 0.59945,-0.24288 1.12655,-0.7338 v 1.09037 q -0.54777,0.37207 -1.16272,0.5581 -0.60978,0.18604 -1.29191,0.18604 -1.75183,0 -2.75952,-1.0697 -1.00769,-1.07487 -1.00769,-2.93006 0,-1.86035 1.00769,-2.93005 1.00769,-1.07487 2.75952,-1.07487 0.69246,0 1.30224,0.18603 0.61495,0.18087 1.15239,0.54778 z"
         style="font-style:normal;font-variant:normal;font-weight:normal;font-stretch:normal;font-family:sans-serif;-inkscape-font-specification:sans-serif;stroke-width:0.26458332"
         id="path844" />
      <path
         d="m -138.30163,112.39186 h 1.04386 v 3.16259 h 3.79305 v -3.16259 h 1.04387 v 7.71529 h -1.04387 v -3.6742 h -3.79305 v 3.6742 h -1.04386 z"
         style="font-style:normal;font-variant:normal;font-weight:normal;font-stretch:normal;font-family:sans-serif;-inkscape-font-specification:sans-serif;stroke-width:0.26458332"
         id="path846" />
      <path
         d="m -131.03076,112.39186 h 1.0542 l 1.62264,6.52156 1.61747,-6.52156 h 1.17306 l 1.62264,6.52156 1.61747,-6.52156 h 1.05937 l -1.93787,7.71529 h -1.31258 l -1.62781,-6.69727 -1.64331,6.69727 h -1.31258 z"
         style="font-style:normal;font-variant:normal;font-weight:normal;font-stretch:normal;font-family:sans-serif;-inkscape-font-specification:sans-serif;stroke-width:0.26458332"
         id="path848" />
      <path
         d="m -119.88415,112.39186 h 4.87825 v 0.8785 h -3.83439 v 2.28409 h 3.6742 v 0.8785 h -3.6742 v 2.7957 h 3.92741 v 0.8785 h -4.97127 z"
         style="font-style:normal;font-variant:normal;font-weight:normal;font-stretch:normal;font-family:sans-serif;-inkscape-font-specification:sans-serif;stroke-width:0.26458332"
         id="path850" />
      <path
         d="m -113.18689,112.39186 h 1.04387 v 7.71529 h -1.04387 z"
         style="font-style:normal;font-variant:normal;font-weight:normal;font-stretch:normal;font-family:sans-serif;-inkscape-font-specification:sans-serif;stroke-width:0.26458332"
         id="path852" />
      <path
         d="m -110.51005,112.39186 h 6.06165 v 0.79581 l -4.87826,6.04098 h 4.99712 v 0.8785 h -6.29936 v -0.79582 l 4.87825,-6.04097 h -4.7594 z"
         style="font-style:normal;font-variant:normal;font-weight:normal;font-stretch:normal;font-family:sans-serif;-inkscape-font-specification:sans-serif;stroke-width:0.26458332"
         id="path854" />
      <path
         d="m -102.81026,112.39186 h 4.878258 v 0.8785 h -3.834388 v 2.28409 h 3.674191 v 0.8785 h -3.674191 v 2.7957 h 3.927406 v 0.8785 h -4.971276 z"
         style="font-style:normal;font-variant:normal;font-weight:normal;font-stretch:normal;font-family:sans-serif;-inkscape-font-specification:sans-serif;stroke-width:0.26458332"
         id="path856" />
      <path
         d="m -92.4543,116.4898 q 0.335897,0.11369 0.651123,0.48576 0.320394,0.37207 0.640788,1.02319 l 1.059367,2.1084 h -1.121379 l -0.98702,-1.97921 q -0.382405,-0.77515 -0.74414,-1.02836 -0.356568,-0.25322 -0.976685,-0.25322 h -1.136881 v 3.26079 h -1.043864 v -7.71529 h 2.356445 q 1.322917,0 1.97404,0.55293 0.651123,0.55294 0.651123,1.66915 0,0.72864 -0.341065,1.20923 -0.335897,0.48059 -0.981852,0.66663 z m -2.614827,-3.24012 v 2.73886 h 1.312581 q 0.754476,0 1.136881,-0.34624 0.387574,-0.3514 0.387574,-1.02836 0,-0.67696 -0.387574,-1.01802 -0.382405,-0.34624 -1.136881,-0.34624 z"
         style="font-style:normal;font-variant:normal;font-weight:normal;font-stretch:normal;font-family:sans-serif;-inkscape-font-specification:sans-serif;stroke-width:0.26458332"
         id="path858" />
      <path
         d="m -86.072261,112.39186 h 1.0542 l 1.62264,6.52156 1.617472,-6.52156 h 1.173055 l 1.62264,6.52156 1.617472,-6.52156 h 1.059367 l -1.937866,7.71529 h -1.312582 l -1.627807,-6.69727 -1.643311,6.69727 h -1.312581 z"
         style="font-style:normal;font-variant:normal;font-weight:normal;font-stretch:normal;font-family:sans-serif;-inkscape-font-specification:sans-serif;stroke-width:0.26458332"
         id="path860" />
      <path
         d="m -72.925779,113.42022 -1.415934,3.83956 h 2.837036 z m -0.589111,-1.02836 h 1.18339 l 2.940389,7.71529 h -1.085205 l -0.702799,-1.97921 h -3.477824 l -0.7028,1.97921 h -1.100708 z"
         style="font-style:normal;font-variant:normal;font-weight:normal;font-stretch:normal;font-family:sans-serif;-inkscape-font-specification:sans-serif;stroke-width:0.26458332"
         id="path862" />
      <path
         d="m -68.26973,112.39186 h 4.433838 v 0.8785 h -3.389974 v 2.27376 h 3.059245 v 0.8785 h -3.059245 v 3.68453 h -1.043864 z"
         style="font-style:normal;font-variant:normal;font-weight:normal;font-stretch:normal;font-family:sans-serif;-inkscape-font-specification:sans-serif;stroke-width:0.26458332"
         id="path864" />
      <path
         d="m -62.171913,112.39186 h 4.433838 v 0.8785 h -3.389974 v 2.27376 h 3.059244 v 0.8785 h -3.059244 v 3.68453 h -1.043864 z"
         style="font-style:normal;font-variant:normal;font-weight:normal;font-stretch:normal;font-family:sans-serif;-inkscape-font-specification:sans-serif;stroke-width:0.26458332"
         id="path866" />
      <path
         d="m -56.074097,112.39186 h 4.878255 v 0.8785 h -3.834391 v 2.28409 h 3.674194 v 0.8785 h -3.674194 v 2.7957 h 3.927409 v 0.8785 h -4.971273 z"
         style="font-style:normal;font-variant:normal;font-weight:normal;font-stretch:normal;font-family:sans-serif;-inkscape-font-specification:sans-serif;stroke-width:0.26458332"
         id="path868" />
      <path
         d="m -49.376831,112.39186 h 1.405599 l 3.42098,6.45438 v -6.45438 h 1.012858 v 7.71529 h -1.405599 l -3.42098,-6.45439 v 6.45439 h -1.012858 z"
         style="font-style:normal;font-variant:normal;font-weight:normal;font-stretch:normal;font-family:sans-serif;-inkscape-font-specification:sans-serif;stroke-width:0.26458332"
         id="path870" />
      <path
         d="m -41.459999,112.39186 h 4.878255 v 0.8785 h -3.834391 v 2.28409 h 3.674194 v 0.8785 h -3.674194 v 2.7957 h 3.927409 v 0.8785 h -4.971273 z"
         style="font-style:normal;font-variant:normal;font-weight:normal;font-stretch:normal;font-family:sans-serif;-inkscape-font-specification:sans-serif;stroke-width:0.26458332"
         id="path872" />
      <path
         d="m -35.134804,112.39186 h 1.121379 l 1.917195,2.86804 1.927531,-2.86804 h 1.121379 l -2.480469,3.7052 2.645833,4.01009 h -1.121378 l -2.17041,-3.28146 -2.185913,3.28146 h -1.126547 l 2.754354,-4.11861 z"
         style="font-style:normal;font-variant:normal;font-weight:normal;font-stretch:normal;font-family:sans-serif;-inkscape-font-specification:sans-serif;stroke-width:0.26458332"
         id="path874" />
      <path
         d="m -26.463498,113.24968 v 2.89905 h 1.312581 q 0.728638,0 1.126546,-0.37724 0.397909,-0.37723 0.397909,-1.07487 0,-0.69246 -0.397909,-1.0697 -0.397908,-0.37724 -1.126546,-0.37724 z m -1.043864,-0.85782 h 2.356445 q 1.297078,0 1.958537,0.58911 0.666626,0.58394 0.666626,1.71565 0,1.14205 -0.666626,1.726 -0.661459,0.58394 -1.958537,0.58394 h -1.312581 v 3.10059 h -1.043864 z"
         style="font-style:normal;font-variant:normal;font-weight:normal;font-stretch:normal;font-family:sans-serif;-inkscape-font-specification:sans-serif;stroke-width:0.26458332"
         id="path876" />
      <path
         d="m -17.988571,113.09982 q -1.136882,0 -1.808675,0.8475 -0.666626,0.84749 -0.666626,2.30993 0,1.45728 0.666626,2.30477 0.671793,0.8475 1.808675,0.8475 1.136881,0 1.798339,-0.8475 0.666626,-0.84749 0.666626,-2.30477 0,-1.46244 -0.666626,-2.30993 -0.661458,-0.8475 -1.798339,-0.8475 z m 0,-0.84749 q 1.62264,0 2.594157,1.09037 0.971516,1.08521 0.971516,2.91455 0,1.82418 -0.971516,2.91455 -0.971517,1.08521 -2.594157,1.08521 -1.627808,0 -2.604492,-1.08521 -0.971517,-1.0852 -0.971517,-2.91455 0,-1.82934 0.971517,-2.91455 0.976684,-1.09037 2.604492,-1.09037 z"
         style="font-style:normal;font-variant:normal;font-weight:normal;font-stretch:normal;font-family:sans-serif;-inkscape-font-specification:sans-serif;stroke-width:0.26458332"
         id="path878" />
      <path
         d="m -9.1312257,116.4898 q 0.3358968,0.11369 0.651123,0.48576 0.3203939,0.37207 0.6407877,1.02319 l 1.0593669,2.1084 h -1.1213786 l -0.9870198,-1.97921 q -0.3824056,-0.77515 -0.7441406,-1.02836 -0.3565674,-0.25322 -0.9766849,-0.25322 h -1.136881 v 3.26079 h -1.043864 v -7.71529 h 2.356445 q 1.3229168,0 1.9740399,0.55293 0.651123,0.55294 0.651123,1.66915 0,0.72864 -0.3410644,1.20923 -0.3358968,0.48059 -0.9818522,0.66663 z m -2.6148273,-3.24012 v 2.73886 h 1.312581 q 0.7544761,0 1.1368817,-0.34624 0.3875732,-0.3514 0.3875732,-1.02836 0,-0.67696 -0.3875732,-1.01802 -0.3824056,-0.34624 -1.1368817,-0.34624 z"
         style="font-style:normal;font-variant:normal;font-weight:normal;font-stretch:normal;font-family:sans-serif;-inkscape-font-specification:sans-serif;stroke-width:0.26458332"
         id="path880" />
      <path
         d="m -7.2657013,112.39186 h 6.52673321 v 0.8785 H -3.4778189 v 6.83679 h -1.0490316 v -6.83679 h -2.7388508 z"
         style="font-style:normal;font-variant:normal;font-weight:normal;font-stretch:normal;font-family:sans-serif;-inkscape-font-specification:sans-serif;stroke-width:0.26458332"
         id="path882" />
      <path
         d="M 0.27387997,112.39186 H 5.152135 v 0.8785 H 1.3177439 v 2.28409 h 3.6741942 v 0.8785 H 1.3177439 v 2.7957 h 3.9274087 v 0.8785 H 0.27387997 Z"
         style="font-style:normal;font-variant:normal;font-weight:normal;font-stretch:normal;font-family:sans-serif;-inkscape-font-specification:sans-serif;stroke-width:0.26458332"
         id="path884" />
    </g>
  </g>
</svg>
