<?xml version="1.0" encoding="UTF-8" standalone="no"?>
<!-- Created with Sodipodi ("http://www.sodipodi.com/") -->
<svg
   xmlns:dc="http://purl.org/dc/elements/1.1/"
   xmlns:cc="http://web.resource.org/cc/"
   xmlns:rdf="http://www.w3.org/1999/02/22-rdf-syntax-ns#"
   xmlns:svg="http://www.w3.org/2000/svg"
   xmlns="http://www.w3.org/2000/svg"
   xmlns:xlink="http://www.w3.org/1999/xlink"
   xmlns:sodipodi="http://inkscape.sourceforge.net/DTD/sodipodi-0.dtd"
   xmlns:inkscape="http://www.inkscape.org/namespaces/inkscape"
   height="434"
   id="svg548"
   sodipodi:docname="albania.svg"
   sodipodi:version="0.32"
   width="630"
   inkscape:version="0.42"
   sodipodi:docbase="/home/demailly">
  <defs
     id="defs1065">
    <linearGradient
       id="linearGradient1070">
      <stop
         id="stop1071"
         offset="0"
         style="stop-color:#000;stop-opacity:1;" />
      <stop
         id="stop1072"
         offset="1"
         style="stop-color:#fff;stop-opacity:1;" />
    </linearGradient>
    <linearGradient
       id="linearGradient1073"
       xlink:href="#linearGradient1070" />
    <radialGradient
       cx="0.500000"
       cy="0.500000"
       fx="0.500000"
       fy="0.500000"
       id="radialGradient1074"
       r="0.500000"
       xlink:href="#linearGradient1070" />
  </defs>
  <sodipodi:namedview
     id="base"
     inkscape:zoom="1.5852535"
     inkscape:cx="190.09551"
     inkscape:cy="31.636142"
     inkscape:window-width="1453"
     inkscape:window-height="869"
     inkscape:window-x="0"
     inkscape:window-y="254"
     inkscape:current-layer="svg548" />
  <g
     id="g2054">
    <rect
       y="0.63126397"
       x="0.83426702"
       width="630.00000"
       style="font-size:12.000000px;fill:#ce1126;fill-opacity:1.0000000;fill-rule:evenodd;stroke-width:1.0000000pt"
       id="rect1066"
       height="434.00003" />
    <path
       style="fill:#000000;stroke:none"
       sodipodi:nodetypes="ccscccccccccccccccccccccccccccccccccccccccccccccccsscccccccccccccccccccccccccccccsscccccccccccccccccccccccccccccccccsccccccccccccccsccsscccccccscccccssc"
       id="path552"
       d="M 230.72427,84.631284 C 237.78427,83.942084 239.21827,84.034284 244.40227,85.376284 C 237.74427,88.422484 229.87227,86.900284 224.99027,82.572684 C 217.61227,75.874084 200.04107,64.290684 206.32427,74.160684 C 238.92427,110.28608 267.00027,85.861084 284.07427,106.66208 C 289.89027,113.74668 295.02627,123.25768 291.96627,132.59888 C 290.92027,135.79608 287.14027,143.31788 282.57027,141.40588 C 276.58627,138.90268 283.70427,119.23888 279.34827,112.84108 C 269.45827,98.315484 251.53827,102.20068 236.83427,100.63128 C 232.56827,112.19928 222.29227,110.45628 212.84427,104.62048 C 200.78287,97.172284 201.14627,78.853884 190.36667,72.804084 C 179.13387,66.499684 180.96467,87.614484 182.77407,92.631284 C 190.61507,114.37068 213.70227,122.49608 234.83427,118.63128 C 219.19427,142.84788 194.40567,102.95508 182.12747,112.72548 C 174.33627,118.92508 188.09767,130.20388 192.86507,132.79168 C 206.05427,139.95148 221.90227,136.35528 234.83427,130.63128 C 227.45027,138.65108 213.86427,143.57228 202.83427,141.94448 C 197.13787,141.10388 185.72567,133.94548 180.53647,138.71608 C 172.52487,146.08148 192.08407,154.81708 196.83427,155.85048 C 212.84627,159.33388 224.18627,150.88488 236.83427,142.63128 C 228.89227,150.56888 220.41427,161.43728 208.83427,163.81328 C 201.61227,165.29508 185.67367,157.92468 181.00707,165.57568 C 175.42687,174.72468 190.22267,180.51308 196.83427,179.94148 C 212.49827,178.58728 227.04227,165.98348 238.83427,156.63128 C 230.73027,168.12748 218.22227,180.29188 204.83427,185.48628 C 197.80727,188.21248 185.72647,183.99388 180.43607,190.11588 C 172.28607,199.54708 190.22987,205.11328 196.83427,203.50728 C 216.11227,198.81788 226.39627,177.72328 244.83427,170.63128 C 232.32827,182.15028 219.08027,199.99528 204.65427,208.53328 C 197.48667,212.77728 185.79747,207.57728 180.12907,213.83728 C 167.31587,227.98728 199.41727,231.01128 208.48627,223.51528 C 223.67627,210.96128 230.95827,192.96468 248.83427,182.63128 C 236.91227,198.84528 221.81227,223.05728 206.64827,236.14528 C 199.42907,242.37528 183.57867,236.90928 179.00707,243.83728 C 169.82287,257.75128 199.44267,260.14128 206.82627,255.22328 C 231.06627,239.08328 232.39027,201.67328 262.83427,192.63128 C 254.20827,211.10728 245.60027,236.11728 224.83427,242.63128 C 227.95027,252.01728 238.96627,252.83728 246.04627,245.99528 C 258.19627,234.25728 255.68827,207.53528 276.83427,206.63128 L 261.58427,228.00728 C 262.39427,236.73928 278.04427,225.02728 282.83427,216.63128 L 284.83427,216.63128 C 276.50227,236.50728 261.79427,247.60528 242.83427,256.63128 C 243.20627,268.48128 235.27827,274.58528 224.83427,278.63128 C 219.21427,268.29928 204.23827,260.61328 196.83427,272.63128 C 202.71027,273.42328 207.96027,274.52728 208.83427,280.63128 C 199.51667,277.26728 192.16307,275.67328 188.83427,286.63128 C 199.75107,284.83928 203.48027,285.23728 205.33427,290.00728 C 197.87267,298.60128 199.08927,311.67328 212.83427,312.94328 C 209.00027,310.17328 206.41627,308.33928 208.52227,304.63128 C 211.57027,300.58328 215.17827,304.67928 216.94627,302.26728 C 220.24627,297.45128 217.27427,299.13328 221.48227,301.07128 C 224.93027,303.53928 230.53827,293.21128 238.52227,310.63128 C 248.12427,303.72328 238.88627,292.80528 234.83427,284.63128 L 264.83427,278.63128 L 298.83427,246.63128 L 300.83427,248.63128 C 289.84427,265.92328 274.02827,280.76928 252.83427,282.63128 C 259.92827,295.49728 273.84627,288.86328 284.83427,284.63128 C 280.05627,293.95328 267.65227,294.00528 263.48827,301.71928 C 254.95027,317.54128 290.62227,301.23128 292.83427,300.63128 C 289.98427,310.67128 278.74827,312.68328 275.82827,321.19328 C 273.56027,327.80128 282.81827,328.45528 286.75027,326.53728 C 294.33827,322.83328 299.29827,312.77928 304.83427,306.63128 C 302.24227,318.63128 307.15227,328.13128 293.93627,342.00728 L 314.21027,366.94328 L 337.35427,341.97728 C 324.57827,330.92328 332.42427,317.99528 329.96027,306.00728 C 335.37227,312.35328 337.21427,322.76928 344.90427,326.53728 C 348.49027,328.29328 355.89227,328.34928 354.99227,322.44328 C 353.71827,314.08128 341.43227,309.78528 338.83427,300.63128 C 341.39427,301.47728 375.97427,317.69528 368.02027,301.71928 C 364.25027,294.14928 351.49227,293.71928 346.83427,284.63128 C 357.94827,288.91128 369.35827,294.30728 378.83427,284.63128 C 361.22027,278.51128 335.02027,268.08728 332.83427,246.63128 L 367.40427,276.39728 L 396.83427,286.63128 L 396.83427,288.63128 C 389.66227,296.10328 385.51027,301.31528 391.45827,310.44328 L 398.77227,312.63328 C 394.08427,307.46528 395.64827,304.79728 398.77227,302.75528 C 404.06427,300.23328 407.24827,305.12928 409.29627,300.07728 C 410.22627,297.62528 410.55227,296.47128 411.02427,299.46528 C 411.54627,304.76728 418.89227,300.68928 421.46027,301.38128 C 425.47827,305.33928 419.50027,309.29728 418.83427,312.63128 C 430.19827,308.64928 432.34627,301.67728 428.83427,290.63128 C 429.58427,286.44328 432.21027,284.44328 434.83427,284.63128 C 437.81427,284.98528 440.16827,285.96528 442.83427,286.63128 C 438.93227,276.43928 432.04627,276.82528 422.83427,280.63128 C 423.66827,274.52728 426.68827,271.54728 432.83427,272.63128 C 428.21627,258.77328 411.51627,269.89728 406.83427,278.63128 C 395.95827,275.02328 385.54627,269.13128 388.83427,256.63128 C 370.45627,247.88328 353.35027,237.04728 346.83427,216.63128 L 348.83427,216.63128 C 353.62427,225.02728 368.96227,230.80128 367.89627,223.00728 L 354.83427,206.63128 C 382.96227,207.83928 371.75827,258.97128 406.83427,248.63128 L 406.83427,244.63128 C 386.65027,233.38928 378.35827,213.02928 368.83427,192.63128 C 398.77227,201.52528 399.76227,238.65728 423.02027,254.87328 C 430.45827,260.05928 461.76427,258.66928 452.56027,243.83728 C 448.42027,237.16528 431.91027,241.98128 424.91427,236.14528 C 409.72227,223.47328 394.44227,198.83268 382.83427,182.63128 C 401.20627,194.30688 410.00027,217.82328 428.83627,227.25528 C 436.79027,231.23928 455.64427,230.64528 452.93827,216.91928 C 451.01427,207.15128 435.34827,212.59728 428.86427,209.81728 C 414.31427,203.57928 398.49627,181.79288 386.83427,170.63128 C 404.29627,178.30068 414.65027,197.83708 432.83427,203.32528 C 439.52627,205.34528 456.80827,202.33528 452.02027,191.49708 C 448.61827,183.79708 433.38827,187.94828 426.83427,185.58808 C 412.42427,180.39908 401.35027,167.14628 390.83427,156.63128 C 404.94827,164.74948 417.71427,178.48228 434.83427,179.94148 C 441.44427,180.50488 458.59427,172.66068 449.58827,164.29488 C 443.73027,158.85348 431.88627,164.92588 424.83427,164.12508 C 413.47427,162.83508 403.92227,152.81768 396.83427,144.63128 C 413.35427,154.78008 464.63027,159.10328 455.64627,137.88128 C 449.41027,132.69268 442.59627,141.72968 430.33027,142.07028 C 417.47827,142.09988 404.73227,139.05128 394.21027,130.94368 C 407.61027,135.46788 422.98827,140.26888 436.80427,133.79648 C 441.71627,131.49588 459.30027,116.92708 447.93627,111.92608 C 439.07627,108.02728 429.94427,120.58168 422.83427,123.75788 C 414.02227,127.69448 403.74027,124.82528 394.83427,122.63128 L 394.83427,120.63128 C 413.10027,119.66168 431.23827,118.62328 443.25627,102.55108 C 447.20227,97.272684 457.48827,75.655884 445.99827,72.134484 C 441.41227,70.729084 437.85827,75.307284 435.94827,78.748484 C 430.33627,88.864484 405.31027,129.03948 394.83427,100.63128 C 380.10027,102.20388 362.25227,98.327084 352.31827,112.84108 C 347.91027,119.28208 354.71827,139.04648 348.77027,141.40588 C 331.96227,148.07228 343.18827,111.34328 347.26227,106.66208 C 365.37427,85.841884 414.34827,103.76668 422.83427,74.631284 C 423.75627,66.905084 412.74427,80.731084 407.56027,84.082484 C 401.94427,87.542884 394.81427,87.768684 388.83427,86.631284 C 395.17827,83.308284 400.27227,84.360284 404.27227,83.693684 C 400.51827,77.097484 391.90827,77.934484 389.70827,74.280884 C 386.83627,69.094884 375.38227,67.583284 368.87427,68.610884 C 356.49627,71.346084 351.73427,75.038084 328.83427,68.631284 L 338.83427,80.631284 L 324.50227,86.620084 L 330.83427,90.631284 L 318.83427,98.631284 C 320.83427,99.297884 325.59627,99.301684 325.27627,101.18368 L 315.60827,117.62568 C 313.60227,114.17908 307.00427,105.15448 306.07427,101.69188 C 305.60827,100.14668 308.39827,99.425284 312.17227,98.741884 L 300.83427,90.631284 L 308.16227,86.350084 L 292.83427,80.631284 L 300.83427,68.631284 C 288.08027,77.139284 277.13227,65.247484 262.36627,68.725284 C 256.07027,70.156484 250.98627,77.166884 245.05827,75.997084 C 240.05827,75.141884 234.23027,78.114484 230.72427,84.631284 z " />
    <path
       style="fill:#de2110;fill-opacity:1.0000000;fill-rule:evenodd;stroke:#de2110;stroke-width:0.0000000;stroke-linecap:butt;stroke-linejoin:miter;stroke-dasharray:none;stroke-opacity:1.0000000"
       sodipodi:nodetypes="cccc"
       id="path1069"
       d="M 265.52227,73.224684 C 266.82427,73.849684 269.21827,73.537084 269.58227,74.943284 C 267.13427,75.828884 264.21827,75.933084 261.77027,75.724884 C 262.91627,73.120684 264.22027,74.110084 265.52227,73.224684 z " />
    <path
       style="fill:#de2110;fill-opacity:1.0000000;fill-rule:evenodd;stroke:#de2110;stroke-width:0.0000000;stroke-linecap:butt;stroke-linejoin:miter;stroke-dasharray:none;stroke-opacity:1.0000000"
       sodipodi:nodetypes="cccc"
       id="path1075"
       d="M 377.23827,73.693084 C 375.93827,74.318084 373.54427,74.005484 373.18027,75.411684 C 375.62827,76.297284 378.54427,76.401484 380.99027,76.193284 C 379.84627,73.589084 378.54027,74.578484 377.23827,73.693084 z " />
  </g>
  <metadata
     id="metadata14">
    <rdf:RDF>
      <cc:Work
         rdf:about="">
        <dc:title> albania</dc:title>
        <dc:description />
        <dc:subject>
          <rdf:Bag>
            <rdf:li>flags</rdf:li>
            <rdf:li>sign</rdf:li>
            <rdf:li>signs_and_symbols</rdf:li>
            <rdf:li />
            <rdf:li>united_nations_member</rdf:li>
            <rdf:li>europe</rdf:li>
          </rdf:Bag>
        </dc:subject>
        <dc:publisher>
          <cc:Agent
             rdf:about="http://www.openclipart.org">
            <dc:title> John C Meuser</dc:title>
          </cc:Agent>
        </dc:publisher>
        <dc:creator>
          <cc:Agent
             rdf:about="">
            <dc:title> John C Meuser</dc:title>
          </cc:Agent>
        </dc:creator>
        <dc:rights>
          <cc:Agent
             rdf:about="">
            <dc:title> John C Meuser</dc:title>
          </cc:Agent>
        </dc:rights>
        <dc:date />
        <dc:format>image/svg+xml</dc:format>
        <dc:type
           rdf:resource="http://purl.org/dc/dcmitype/StillImage" />
        <cc:license
           rdf:resource="http://web.resource.org/cc/PublicDomain">
          <dc:date />
        </cc:license>
        <dc:language>en</dc:language>
      </cc:Work>
      <cc:License
         rdf:about="http://web.resource.org/cc/PublicDomain">
        <cc:permits
           rdf:resource="http://web.resource.org/cc/Reproduction" />
        <cc:permits
           rdf:resource="http://web.resource.org/cc/Distribution" />
        <cc:permits
           rdf:resource="http://web.resource.org/cc/DerivativeWorks" />
      </cc:License>
    </rdf:RDF>
  </metadata>
</svg>
