<?xml version="1.0" encoding="UTF-8" standalone="no"?>
<svg
   xmlns:dc="http://purl.org/dc/elements/1.1/"
   xmlns:cc="http://web.resource.org/cc/"
   xmlns:rdf="http://www.w3.org/1999/02/22-rdf-syntax-ns#"
   xmlns:svg="http://www.w3.org/2000/svg"
   xmlns="http://www.w3.org/2000/svg"
   xmlns:sodipodi="http://inkscape.sourceforge.net/DTD/sodipodi-0.dtd"
   xmlns:inkscape="http://www.inkscape.org/namespaces/inkscape"
   width="848pt"
   height="526pt"
   id="svg2"
   sodipodi:version="0.32"
   inkscape:version="0.43"
   sodipodi:docname="american_samoa1.svg"
   sodipodi:docbase="/home/demailly/ajour/flags"
   version="1.0">
  <metadata
     id="metadata131">
    <rdf:RDF>
      <cc:Work
         rdf:about="">
        <dc:format>image/svg+xml</dc:format>
        <dc:type
           rdf:resource="http://purl.org/dc/dcmitype/StillImage" />
      </cc:Work>
    </rdf:RDF>
  </metadata>
  <sodipodi:namedview
     inkscape:cy="164.4728"
     inkscape:cx="647.23544"
     inkscape:zoom="0.86831672"
     inkscape:window-height="1101"
     inkscape:window-width="1456"
     inkscape:pageshadow="2"
     inkscape:pageopacity="0.0"
     borderopacity="1.0"
     bordercolor="#666666"
     pagecolor="#ffffff"
     id="base"
     inkscape:window-x="184"
     inkscape:window-y="52"
     inkscape:current-layer="svg2" />
  <defs
     id="defs4">
    <marker
       id="ArrowEnd"
       viewBox="0 0 10 10"
       refX="0"
       refY="5"
       markerUnits="strokeWidth"
       markerWidth="4"
       markerHeight="3"
       orient="auto">
      <path
         d="M 0,0 L 10,5 L 0,10 L 0,0 z "
         id="path7" />
    </marker>
    <marker
       id="ArrowStart"
       viewBox="0 0 10 10"
       refX="10"
       refY="5"
       markerUnits="strokeWidth"
       markerWidth="4"
       markerHeight="3"
       orient="auto">
      <path
         d="M 10,0 L 0,5 L 10,10 L 10,0 z "
         id="path10" />
    </marker>
  </defs>
  <g
     id="g2373"
     transform="matrix(6,0,0,6,-50.09655,-251.0954)">
    <path
       style="fill:#0633ff;stroke:#000000;stroke-width:0.30000001;stroke-miterlimit:4;stroke-dasharray:none;stroke-opacity:1"
       d="M 8.50391,150.641 L 184.25,150.641 L 184.25,42.117 L 8.50391,42.117 L 8.50391,150.641 z "
       id="path16" />
    <path
       style="fill:none;stroke:#000000;stroke-width:0"
       d="M 8.50391,150.641 L 184.25,150.641 L 184.25,42.1167 L 8.50391,42.1167 L 8.50391,150.641 z "
       id="path18" />
    <path
       style="fill:#fc0916;stroke:none"
       d="M 8.875,96.2852 L 184.25,150.453 L 184.25,143.777 L 30.3789,96.2892 L 184.25,48.613 L 184.25,42.121 L 8.875,96.2892"
       id="path20" />
    <path
       style="fill:#ffffff;stroke:none"
       d="M 184.25,143.777 L 30.3789,96.2892 L 184.25,48.613 L 184.25,143.777"
       id="path22" />
    <path
       style="fill:none;stroke:#000000;stroke-width:0"
       d="M 8.50391,150.641 L 184.25,150.641 L 184.25,42.1167 L 8.50391,42.1167 L 8.50391,150.641 z "
       id="path24" />
    <path
       style="fill:#ffffff;stroke:none"
       d="M 155.699,103.52 C 154.852,103.211 153.586,102.75 152.922,104.262 C 153.812,104.285 154.234,104.324 154.773,104.445 L 155.699,103.52"
       id="path26" />
    <path
       style="fill:none;stroke:#000000;stroke-width:0.13348;stroke-linejoin:round"
       d="M 155.699,103.52 C 154.852,103.211 153.586,102.754 152.922,104.262 C 153.812,104.285 154.234,104.324 154.773,104.445 L 155.699,103.52"
       id="path28" />
    <path
       style="fill:#f8f916;stroke:none"
       d="M 142.535,104.445 C 143.582,105.555 143.734,108.863 143.277,110.938 C 142.199,109.176 141.742,106.172 142.535,104.445"
       id="path30" />
    <path
       style="fill:none;stroke:#000000;stroke-width:0.13348;stroke-linejoin:round"
       d="M 142.539,104.445 C 143.586,105.555 143.738,108.863 143.281,110.938 C 142.203,109.176 141.742,106.172 142.539,104.445 z "
       id="path32" />
    <path
       style="fill:#f8f916;stroke:none"
       d="M 148.102,105.934 L 139.574,106.672 C 137.438,106.863 136.133,106.172 135.125,105.746 C 133.52,107.098 133.207,107.559 128.453,109.457 C 132.133,109.789 134.594,110.559 135.867,111.496 C 137.59,110.406 139.129,109.176 141.984,108.902 L 148.285,108.348 L 148.102,105.938"
       id="path34" />
    <path
       style="fill:none;stroke:#000000;stroke-width:0.13348;stroke-linejoin:round"
       d="M 148.102,105.934 L 139.574,106.672 C 137.438,106.863 136.133,106.172 135.125,105.746 C 133.516,107.098 133.207,107.559 128.453,109.457 C 132.133,109.789 134.594,110.559 135.867,111.496 C 137.586,110.406 139.129,109.176 141.984,108.902 L 148.285,108.348 L 148.102,105.938 L 148.102,105.934 z "
       id="path36" />
    <path
       style="fill:#f8f916;stroke:none"
       d="M 165.895,104.633 L 153.105,105.93 C 151.355,106.016 150.973,105.402 150.512,104.816 C 150.078,104.152 148.82,104.02 148.105,105 C 147.438,106.168 147.512,108.781 148.66,110.008 C 149.434,110.551 150.895,110.09 151.441,108.898 C 151.816,107.789 152.125,107.559 153.105,107.414 L 166.082,106.305 C 167.039,106.254 166.965,104.563 165.898,104.637"
       id="path38" />
    <path
       style="fill:none;stroke:#000000;stroke-width:0.13348;stroke-linejoin:round"
       d="M 165.898,104.633 L 153.109,105.93 C 151.359,106.016 150.977,105.402 150.516,104.816 C 150.082,104.152 148.824,104.02 148.109,105 C 147.441,106.168 147.516,108.785 148.664,110.008 C 149.438,110.551 150.898,110.09 151.445,108.898 C 151.816,107.789 152.129,107.559 153.109,107.414 L 166.086,106.301 C 167.043,106.25 166.969,104.555 165.902,104.633 L 165.898,104.633 z "
       id="path40" />
    <path
       style="fill:#f8f916;stroke:none"
       d="M 143.281,110.941 C 142.051,109.332 141.973,105.406 142.539,104.449 L 140.871,104.633 C 140.281,105.633 140.359,109.559 141.609,111.125 L 143.277,110.941"
       id="path42" />
    <path
       style="fill:none;stroke:#000000;stroke-width:0.13348;stroke-linejoin:round"
       d="M 143.281,110.941 C 142.051,109.332 141.973,105.406 142.539,104.449 L 140.871,104.633 C 140.285,105.633 140.359,109.559 141.609,111.125 L 143.277,110.941 L 143.281,110.941 z "
       id="path44" />
    <path
       style="fill:none;stroke:#000000;stroke-width:0.13348;stroke-linecap:round;stroke-linejoin:round"
       d="M 144.207,106.301 C 143.82,106.863 143.855,108.289 144.391,108.711"
       id="path46" />
    <path
       style="fill:none;stroke:#000000;stroke-width:0.13348;stroke-linecap:round;stroke-linejoin:round"
       d="M 143.281,106.301 C 142.898,106.863 142.938,108.289 143.465,108.711"
       id="path48" />
    <path
       style="fill:none;stroke:#000000;stroke-width:0.13348;stroke-linecap:round;stroke-linejoin:round"
       d="M 145.133,106.301 C 144.816,106.746 144.855,108.168 145.316,108.527"
       id="path50" />
    <path
       style="fill:none;stroke:#000000;stroke-width:0.13348;stroke-linecap:round;stroke-linejoin:round"
       d="M 146.246,106.117 C 145.777,106.633 145.816,108.059 146.246,108.527"
       id="path52" />
    <path
       style="fill:none;stroke:#000000;stroke-width:0.13348;stroke-linecap:round;stroke-linejoin:round"
       d="M 147.172,105.934 C 146.742,106.516 146.777,107.941 147.355,108.344"
       id="path54" />
    <path
       style="fill:#ffffff;stroke:none"
       d="M 165.156,108.156 L 144.953,116.871 L 144.027,115.945 L 164.605,106.859 C 165.121,107.25 165.199,107.555 165.16,108.156"
       id="path56" />
    <path
       style="fill:none;stroke:#000000;stroke-width:0.13348;stroke-linejoin:round"
       d="M 165.156,108.156 L 144.949,116.875 L 144.023,115.949 L 164.602,106.863 C 165.117,107.254 165.195,107.559 165.156,108.16 L 165.156,108.156 z "
       id="path58" />
    <path
       style="fill:#f8f916;stroke:none"
       d="M 143.281,116.137 C 142.129,115.793 140.898,116.406 140.688,117.617 C 138.824,118.176 139.438,119.406 139.949,119.844 C 139.059,120.789 139.516,122.328 141.059,122.254 C 141.355,123.176 142.051,123.867 143.652,123.734 C 144.664,126.328 147.43,126.02 148.656,125.586 C 149.891,125.25 152.121,124.863 152.922,126.512 C 153.352,125.941 152.969,124.711 152.367,124.285 C 153.812,124.629 157.047,124.094 158.113,123.731 C 159.047,123.324 159.969,123.863 159.965,125.211 C 160.582,124.859 160.734,123.168 159.598,122.801 C 160.586,122.629 162.891,122.707 164.043,125.023 C 164.5,124.242 164.121,124.168 163.859,123.543 C 164.891,123.707 165.273,123.398 165.898,122.988 C 164.508,123.32 163.047,123.016 162.008,122.434 C 163.352,121.867 164.965,121.02 166.27,121.879 C 165.738,121.023 164.586,120.711 162.934,121.141 C 162.199,121.406 161.047,121.25 160.34,120.957 C 161.891,120.949 163.277,120.719 164.043,120.031 C 164.965,119.488 165.965,119.336 166.637,119.477 C 165.887,118.797 164.5,118.414 163.488,118.922 C 162.508,119.336 161.43,119.723 160.711,119.848 C 161.277,118.953 162.738,118.336 164.047,116.512 C 163.512,117.18 162.277,117.258 162.195,116.328 C 161.586,117.336 160.051,117.801 158.488,117.625 C 156.82,117.492 155.438,118.027 154.043,119.106 C 154.746,118.414 155.055,117.336 154.969,116.512 C 154.441,117.414 153.902,118.488 151.633,118.18 C 150.367,118.027 149.984,118.336 149.227,119.106 C 148.449,119.871 147.754,120.102 146.82,119.848 C 145.758,119.645 145.836,119.258 146.266,118.734 C 146.602,118.027 146.449,117.566 145.895,117.25 C 145.453,117.106 145.379,116.262 145.711,115.77 C 145.992,115.184 145.148,114.031 143.305,116.137"
       id="path60" />
    <path
       style="fill:none;stroke:#000000;stroke-width:0.13348;stroke-linejoin:round"
       d="M 143.281,116.133 C 142.129,115.789 140.898,116.402 140.688,117.613 C 138.824,118.172 139.438,119.402 139.949,119.84 C 139.059,120.785 139.516,122.324 141.059,122.25 C 141.355,123.172 142.051,123.867 143.652,123.734 C 144.66,126.328 147.43,126.02 148.656,125.586 C 149.891,125.25 152.121,124.863 152.918,126.512 C 153.348,125.941 152.965,124.711 152.363,124.285 C 153.809,124.629 157.043,124.094 158.109,123.731 C 159.043,123.324 159.965,123.863 159.961,125.211 C 160.578,124.863 160.73,123.168 159.594,122.801 C 160.582,122.629 162.883,122.707 164.043,125.023 C 164.5,124.242 164.121,124.168 163.859,123.539 C 164.891,123.703 165.273,123.395 165.898,122.984 C 164.504,123.316 163.047,123.012 162.008,122.43 C 163.352,121.863 164.965,121.016 166.27,121.875 C 165.738,121.02 164.586,120.707 162.934,121.137 C 162.199,121.402 161.047,121.246 160.34,120.953 C 161.891,120.945 163.273,120.715 164.043,120.027 C 164.961,119.484 165.965,119.332 166.637,119.473 C 165.887,118.793 164.504,118.41 163.488,118.918 C 162.508,119.332 161.43,119.719 160.711,119.844 C 161.277,118.949 162.738,118.332 164.043,116.508 C 163.508,117.176 162.273,117.254 162.191,116.324 C 161.582,117.332 160.047,117.793 158.484,117.621 C 156.816,117.488 155.434,118.023 154.035,119.102 C 154.738,118.41 155.047,117.332 154.961,116.508 C 154.434,117.406 153.895,118.484 151.625,118.176 C 150.355,118.023 149.977,118.332 149.215,119.102 C 148.438,119.867 147.742,120.098 146.809,119.844 C 145.746,119.641 145.824,119.254 146.254,118.731 C 146.59,118.023 146.438,117.563 145.883,117.246 C 145.441,117.102 145.367,116.258 145.699,115.766 C 145.98,115.18 145.137,114.027 143.293,116.137 L 143.281,116.133 z "
       id="path62" />
    <path
       style="fill:none;stroke:#000000;stroke-width:0.13348;stroke-linecap:round;stroke-linejoin:round"
       d="M 143.094,116.504 C 142.59,117.094 142.203,117.172 141.613,117.242 C 141.512,118.172 141.207,118.477 140.875,118.91 C 140.594,119.246 140.441,119.785 141.242,120.395 C 141.012,120.824 141.012,121.285 141.426,121.875 C 141.582,121.555 141.66,121.363 141.793,121.137 C 141.926,121.672 142.309,122.211 142.531,122.434 C 142.508,121.633 143.309,120.324 144.383,120.023 C 144,119.406 143.965,117.984 145.121,117.984 C 144.113,117.059 142.844,117.715 142.34,118.168 C 142.648,117.863 142.574,117.633 142.523,117.426 C 142.992,117.094 143.031,116.941 143.078,116.5"
       id="path64" />
    <path
       style="fill:none;stroke:#000000;stroke-width:0.13348;stroke-linecap:round;stroke-linejoin:round"
       d="M 143.465,121.512 C 144.082,122.098 145.121,122.215 146.059,121.883 C 145.047,122.406 145.086,123.559 146.801,122.809 C 145.777,124.559 142.934,123.559 143.465,121.512"
       id="path66" />
    <path
       style="fill:none;stroke:#000000;stroke-width:0.13348;stroke-linecap:round;stroke-linejoin:round"
       d="M 146.617,120.586 C 146.738,121.293 147.734,122.176 149.211,121.699 C 149.582,121.488 150.426,121.449 150.879,121.699 C 151.582,121.184 152.043,120.106 152.359,119.477 C 151.508,120.141 151.195,120.258 150.32,120.031 C 149.277,119.949 148.816,120.027 148.285,120.215 C 147.895,120.559 147.086,120.676 146.617,120.586"
       id="path68" />
    <path
       style="fill:none;stroke:#000000;stroke-width:0.13348;stroke-linecap:round;stroke-linejoin:round"
       d="M 147.172,123.367 C 147.621,124.059 148.621,124.484 149.766,124.293 C 150.926,124.102 152.348,124.063 152.914,124.109 C 153.574,124.063 154.344,123.606 154.578,123.184 C 153.922,123.527 153.266,123.527 152.727,123.367 C 153.109,123.219 153.188,122.984 153.281,122.629 C 152.617,123.141 151.152,123.449 151.246,122.258 C 150.543,122.836 148.852,124.102 147.168,123.371"
       id="path70" />
    <path
       style="fill:none;stroke:#000000;stroke-width:0.13348;stroke-linecap:round;stroke-linejoin:round"
       d="M 152.922,120.773 C 153.43,121.41 156.312,121.793 158.109,120.219 C 158.652,119.801 160.078,118.914 160.703,118.551 C 160.039,118.797 159.426,119.223 158.852,118.734 C 158.352,119.106 157.16,119.219 156.629,118.734 C 156.203,119.332 154.586,120.871 152.926,120.773"
       id="path72" />
    <path
       style="fill:none;stroke:#000000;stroke-width:0.13348;stroke-linecap:round;stroke-linejoin:round"
       d="M 154.402,122.254 C 154.926,122.484 155.348,122.754 155.512,123.18 C 156.113,123.102 156.652,122.984 157.18,122.813 C 157.652,122.602 158.539,122.641 158.848,122.996 C 159.535,122.523 160,122.066 160.145,121.699 C 159.387,121.527 158.27,121.254 157.551,121.699 C 156.734,122.02 155.426,122.293 154.402,122.254"
       id="path74" />
    <path
       style="fill:#6b0013;stroke:none"
       d="M 140.867,92.574 C 139.82,93.4728 138.508,93.5509 137.902,92.9415 C 137.125,92.316 136.82,90.629 137.719,89.047 C 138.664,87.551 137.816,86.32 137.719,85.34 C 137.668,84.473 138.203,82.703 138.828,82.004 C 138.664,82.781 139.121,82.934 139.383,82.004 C 139.738,81.09 141.121,78.629 144.016,77.926 C 145.039,77.707 146.191,77.094 146.609,75.887 C 147.113,74.633 148.652,73.707 149.758,72.734 C 150.805,71.863 156.188,66.707 157.172,65.316 C 157.188,66.09 157.172,66.797 157.172,66.797 C 158.34,65.477 161.488,62.242 162.176,61.234 C 162.332,61.781 162.359,63.086 162.359,63.086 C 163.336,62.09 163.949,61.399 164.582,61.047 C 164.715,62.012 164.582,62.531 164.582,62.531 C 165.332,61.473 165.324,62.715 165.324,62.715 C 166.023,62.395 166.102,63.316 165.879,64.012 C 166.871,63.32 166.559,65.004 166.246,66.609 L 167.172,65.867 C 166.559,67.699 164.48,71.316 163.652,72.359 C 164.789,72.242 164.637,73.934 162.727,77.367 C 163.254,77.934 164.789,77.246 166.805,74.402 C 167.02,75.473 166.484,76.859 165.324,78.481 C 165.41,79.242 165.562,79.32 166.062,79.59 L 169.953,76.442 C 171.32,75.473 172.246,75.938 172.73,76.625 C 173.395,76.242 173.93,76.555 174.211,76.992 C 174.777,76.551 175.391,77.316 175.137,78.106 C 176.082,78.391 175.855,79.316 174.953,79.774 C 175.703,80.16 175.469,80.777 174.77,81.07 C 175.395,81.234 175.473,81.852 174.77,82.18 C 175.707,82.461 175.473,82.926 174.77,83.106 L 169.395,84.774 C 169.324,85.461 168.789,85.844 167.727,86.07 C 166.633,86.152 164.098,87.692 163.465,89.223 C 162.945,90.074 163.711,91 165.316,89.777 C 165.25,90.766 166.016,90.996 166.797,90.332 C 166.555,91.149 167.164,91.609 167.723,91.07 C 166.707,92.145 166.555,93.4532 167.168,93.4806 C 166.555,94.4532 166.711,95.3009 165.871,96.0782 C 164.867,96.6837 164.867,97.4532 164.762,97.9298 C 164.715,98.5274 164.328,99.0665 163.652,99.4102 C 163.102,99.8321 162.719,100.063 162.543,100.52 C 162.41,101.137 162.105,101.367 161.617,101.629 C 161.027,101.981 161.105,102.75 161.25,103.481 C 161.262,104.285 161.617,104.961 161.617,104.961 C 160.414,105.129 159.262,105.742 159.207,106.816 C 159.258,107.746 158.797,109.129 158.098,108.856 C 157.418,108.516 156.957,109.051 156.801,109.965 C 156.801,110.895 153.957,112.051 153.465,111.445 C 152.883,110.664 153.266,109.277 153.281,108.293 C 153.113,107.434 152.809,105.969 153.465,104.957 C 154.184,104.129 155.109,104.051 155.688,102.363 C 156.336,100.668 156.875,98.8204 157.168,98.2852 C 156.262,97.2852 154.801,95.8985 154.391,95.1329 C 153.879,94.2071 153.109,93.9024 152.168,94.5782 C 151.266,95.4376 149.27,96.9767 147.348,96.6173 C 146.5,96.4376 145.117,96.3634 144.199,96.9845 L 140.863,92.535"
       id="path76" />
    <path
       style="fill:none;stroke:#000000;stroke-width:0.13348;stroke-linejoin:round"
       d="M 140.867,92.574 C 139.82,93.4728 138.508,93.547 137.902,92.9454 C 137.125,92.32 136.82,90.633 137.719,89.051 C 138.664,87.555 137.816,86.324 137.719,85.344 C 137.668,84.477 138.203,82.707 138.832,82.008 C 138.668,82.785 139.125,82.938 139.387,82.008 C 139.742,81.094 141.125,78.633 144.02,77.926 C 145.043,77.707 146.195,77.094 146.613,75.887 C 147.117,74.633 148.656,73.707 149.762,72.734 C 150.805,71.863 156.191,66.707 157.176,65.316 C 157.191,66.09 157.176,66.797 157.176,66.797 C 158.344,65.477 161.492,62.242 162.18,61.234 C 162.336,61.781 162.363,63.09 162.363,63.09 C 163.34,62.094 163.953,61.402 164.586,61.051 C 164.719,62.016 164.586,62.535 164.586,62.535 C 165.336,61.477 165.328,62.719 165.328,62.719 C 166.027,62.399 166.105,63.32 165.883,64.016 C 166.875,63.324 166.562,65.012 166.25,66.613 L 167.176,65.871 C 166.562,67.703 164.484,71.32 163.656,72.363 C 164.793,72.246 164.641,73.938 162.73,77.371 C 163.258,77.938 164.793,77.25 166.809,74.406 C 167.023,75.477 166.488,76.863 165.328,78.484 C 165.414,79.246 165.566,79.324 166.066,79.594 L 169.957,76.445 C 171.328,75.477 172.25,75.942 172.734,76.629 C 173.398,76.246 173.938,76.559 174.215,77 C 174.781,76.559 175.395,77.324 175.137,78.113 C 176.082,78.399 175.855,79.324 174.953,79.781 C 175.703,80.168 175.469,80.785 174.77,81.078 C 175.395,81.242 175.473,81.859 174.77,82.192 C 175.707,82.473 175.473,82.938 174.77,83.117 L 169.395,84.785 C 169.324,85.473 168.785,85.856 167.727,86.082 C 166.637,86.164 164.098,87.703 163.465,89.234 C 162.945,90.086 163.711,91.012 165.316,89.789 C 165.25,90.777 166.016,91.008 166.797,90.344 C 166.555,91.16 167.164,91.621 167.719,91.082 C 166.703,92.156 166.551,93.4649 167.164,93.4923 C 166.551,94.4649 166.707,95.3126 165.867,96.0899 C 164.863,96.6954 164.863,97.4649 164.758,97.9415 C 164.711,98.5392 164.324,99.0743 163.648,99.422 C 163.098,99.8438 162.715,100.074 162.535,100.535 C 162.402,101.152 162.098,101.383 161.613,101.645 C 161.027,101.996 161.102,102.766 161.246,103.5 C 161.258,104.305 161.613,104.981 161.613,104.981 C 160.41,105.148 159.258,105.766 159.203,106.836 C 159.254,107.762 158.793,109.148 158.094,108.875 C 157.414,108.535 156.949,109.07 156.797,109.984 C 156.797,110.91 153.953,112.07 153.461,111.465 C 152.879,110.684 153.262,109.301 153.277,108.313 C 153.109,107.453 152.805,105.988 153.461,104.977 C 154.184,104.148 155.105,104.07 155.684,102.383 C 156.332,100.688 156.871,98.8399 157.164,98.3009 C 156.258,97.3009 154.797,95.9142 154.387,95.1485 C 153.875,94.2228 153.105,93.9181 152.164,94.5938 C 151.262,95.4532 149.266,96.9923 147.344,96.6329 C 146.496,96.4532 145.113,96.379 144.195,97.0001 L 140.859,92.551 L 140.867,92.574 z "
       id="path78" />
    <path
       style="fill:#ffffff;stroke:none"
       d="M 141.426,91.09 C 140.898,92.551 139.129,95.6251 138.461,96.4688 C 137.746,97.4767 136.438,99.3204 136.422,101.106 C 136.59,102.707 136.512,102.707 136.422,103.703 C 136.207,104.551 136.285,104.551 136.422,105 C 136.434,103.859 136.59,102.863 136.977,102.406 C 137.508,101.941 138.508,101.637 138.828,102.039 C 137.895,103.02 137.512,104.406 138.09,105.375 C 138.125,104.25 138.125,103.863 138.828,103.523 C 139.352,103.102 140.352,102.176 140.496,101.301 C 141.582,101.027 142.121,99.9493 142.531,99.0743 C 142.887,98.2579 144.191,96.8712 146.051,96.1095 C 146.652,95.6407 146.266,95.1017 145.496,95.1837 C 144.73,95.1056 144.73,94.9532 144.758,94.4454 C 144.887,94.0313 145.312,93.336 145.312,93.336 C 144.504,93.4181 143.648,93.8907 143.648,93.8907 C 144.043,92.9571 144.203,92.039 144.203,92.039 C 143.047,92.035 142.891,92.106 142.352,92.406 C 142.203,91.957 141.426,91.109 141.426,91.109"
       id="path80" />
    <path
       style="fill:none;stroke:#000000;stroke-width:0.13348;stroke-linejoin:round"
       d="M 141.426,91.09 C 140.898,92.551 139.129,95.629 138.461,96.4688 C 137.746,97.4767 136.438,99.3204 136.422,101.106 C 136.586,102.707 136.512,102.707 136.422,103.703 C 136.207,104.551 136.285,104.551 136.422,105 C 136.434,103.859 136.586,102.863 136.977,102.406 C 137.508,101.941 138.508,101.637 138.828,102.035 C 137.895,103.016 137.512,104.402 138.09,105.371 C 138.125,104.246 138.125,103.859 138.828,103.52 C 139.352,103.098 140.352,102.172 140.496,101.297 C 141.582,101.023 142.121,99.9454 142.531,99.0704 C 142.887,98.254 144.191,96.8673 146.051,96.1056 C 146.652,95.6368 146.266,95.0978 145.496,95.1798 C 144.73,95.1017 144.73,94.9493 144.758,94.4415 C 144.887,94.0274 145.312,93.3282 145.312,93.3282 C 144.504,93.4102 143.648,93.8829 143.648,93.8829 C 144.043,92.9493 144.203,92.031 144.203,92.031 C 143.047,92.027 142.891,92.098 142.352,92.399 C 142.203,91.949 141.43,91.102 141.43,91.102 L 141.426,91.09 z "
       id="path82" />
    <path
       style="fill:#000000;stroke:none"
       d="M 138.461,98.3243 C 138.055,99.3985 137.668,100.551 137.352,101.293 C 138.129,100.863 138.82,100.555 139.387,100.551 C 138.977,100.098 138.207,99.4806 138.461,98.3243"
       id="path84" />
    <path
       style="fill:#000000;stroke:none"
       d="M 138.273,101.852 C 139.125,101.484 139.199,101.176 140.496,101.297 C 140.277,102.094 139.816,102.711 139.016,103.148 C 138.281,103.633 138.051,104.555 138.09,105.371 C 137.668,104.785 137.668,103.168 138.828,102.035 L 138.273,101.852"
       id="path86" />
    <path
       style="fill:none;stroke:#000000;stroke-width:0.13348;stroke-linecap:round;stroke-linejoin:round"
       d="M 157.184,66.789 C 157.047,68.313 151.125,74.93 149.027,76.25"
       id="path88" />
    <path
       style="fill:none;stroke:#000000;stroke-width:0.13348;stroke-linecap:round;stroke-linejoin:round"
       d="M 162.375,63.078 C 161.582,66.848 154.125,74.543 150.883,77.547"
       id="path90" />
    <path
       style="fill:none;stroke:#000000;stroke-width:0.13348;stroke-linecap:round;stroke-linejoin:round"
       d="M 164.598,62.524 C 163.812,66.465 153.969,77.082 151.992,79.031"
       id="path92" />
    <path
       style="fill:none;stroke:#000000;stroke-width:0.13348;stroke-linecap:round;stroke-linejoin:round"
       d="M 165.898,64.004 C 164.504,70.078 153.973,80.082 151.996,81.996"
       id="path94" />
    <path
       style="fill:none;stroke:#000000;stroke-width:0.13348;stroke-linecap:round;stroke-linejoin:round"
       d="M 163.672,72.352 C 162.426,74.387 155.586,81.469 154.219,82.738"
       id="path96" />
    <path
       style="fill:none;stroke:#000000;stroke-width:0.13348;stroke-linecap:round;stroke-linejoin:round"
       d="M 162.746,77.363 C 161.43,78.93 157.125,82.699 155.332,84.039 C 154.816,85.547 153.355,87.699 150.883,88.305"
       id="path98" />
    <path
       style="fill:none;stroke:#000000;stroke-width:0.13348;stroke-linecap:round;stroke-linejoin:round"
       d="M 166.082,79.586 C 166.5,80.004 166.656,80.16 166.824,80.699 C 166.812,81.082 167.348,81.387 167.746,81.438 C 168.113,81.539 168.344,82 168.301,82.547 C 168.34,82.922 168.492,83 168.855,83.473 C 169.109,83.766 169.492,84.379 169.41,84.77"
       id="path100" />
    <path
       style="fill:none;stroke:#000000;stroke-width:0.13348;stroke-linecap:round;stroke-linejoin:round"
       d="M 167.195,81.074 L 174.238,76.992"
       id="path102" />
    <path
       style="fill:none;stroke:#000000;stroke-width:0.13348;stroke-linecap:round;stroke-linejoin:round"
       d="M 168.492,82.742 L 174.977,79.774"
       id="path104" />
    <path
       style="fill:none;stroke:#000000;stroke-width:0.13348;stroke-linecap:round;stroke-linejoin:round"
       d="M 174.793,81.074 L 168.863,83.484"
       id="path106" />
    <path
       style="fill:none;stroke:#000000;stroke-width:0.13348;stroke-linecap:round;stroke-linejoin:round"
       d="M 174.793,82.188 L 169.234,84.039"
       id="path108" />
    <path
       style="fill:#ffffff;stroke:none"
       d="M 154.402,108.902 C 153.238,109.402 153.395,110.098 152.18,110.57 C 151.086,111.172 150.934,111.867 150.699,112.606 C 150.629,113.402 151.469,113.246 151.996,112.606 C 152.391,112.02 153.316,111.406 154.031,111.309 C 154.695,111.25 155.312,110.25 154.957,109.641 C 154.699,109.02 154.777,108.945 154.402,108.902"
       id="path110" />
    <path
       style="fill:none;stroke:#000000;stroke-width:0.13348;stroke-linejoin:round"
       d="M 154.402,108.898 C 153.238,109.398 153.395,110.094 152.18,110.566 C 151.09,111.168 150.934,111.863 150.699,112.606 C 150.629,113.402 151.469,113.246 151.996,112.606 C 152.391,112.02 153.316,111.406 154.035,111.309 C 154.699,111.25 155.316,110.25 154.961,109.641 C 154.703,109.02 154.781,108.941 154.406,108.902 L 154.402,108.898 z "
       id="path112" />
    <path
       style="fill:#ffffff;stroke:none"
       d="M 152.734,112.609 C 152.281,113.789 152.926,114.449 153.66,113.719 C 154.156,113.328 154.465,111.754 153.844,111.68 C 153.047,111.668 153.047,112.094 152.734,112.606"
       id="path114" />
    <path
       style="fill:none;stroke:#000000;stroke-width:0.13348;stroke-linejoin:round"
       d="M 152.734,112.609 C 152.277,113.789 152.926,114.449 153.66,113.723 C 154.156,113.332 154.465,111.758 153.844,111.684 C 153.047,111.672 153.047,112.098 152.734,112.609 z "
       id="path116" />
    <path
       style="fill:#ffffff;stroke:none"
       d="M 155.516,110.57 C 155.008,110.523 155.125,109.637 155.516,109.457 C 155.965,109.332 156.426,109.254 157.367,110.199 C 158.004,110.75 158.191,111.754 157.734,112.051 C 157.426,112.211 157.121,112.168 156.809,111.684 C 156.504,111.18 155.848,110.602 155.512,110.574"
       id="path118" />
    <path
       style="fill:none;stroke:#000000;stroke-width:0.13348;stroke-linejoin:round"
       d="M 155.516,110.57 C 155.008,110.523 155.125,109.637 155.516,109.457 C 155.965,109.332 156.426,109.254 157.367,110.199 C 158.004,110.75 158.191,111.754 157.734,112.051 C 157.426,112.211 157.121,112.168 156.812,111.684 C 156.508,111.18 155.855,110.602 155.516,110.574 L 155.516,110.57 z "
       id="path120" />
    <path
       style="fill:#ffffff;stroke:none"
       d="M 155.516,110.941 C 155.16,111.176 155.16,111.598 155.332,112.051 C 155.469,112.363 155.852,113.25 156.629,112.977 C 157.234,112.789 157.004,110.711 155.52,110.938"
       id="path122" />
    <path
       style="fill:none;stroke:#000000;stroke-width:0.13348;stroke-linejoin:round"
       d="M 155.516,110.941 C 155.16,111.176 155.16,111.602 155.332,112.055 C 155.469,112.367 155.852,113.254 156.629,112.981 C 157.238,112.793 157.004,110.715 155.52,110.941 L 155.516,110.941 z "
       id="path124" />
    <path
       style="fill:#ffffff;stroke:none"
       d="M 154.219,112.426 C 154.277,112.828 154.582,113.559 154.957,113.352 C 155.617,113.215 155.617,112.715 155.324,112.055 C 155.078,111.563 154.965,111.141 154.582,111.316 C 154.117,111.371 154.195,111.91 154.215,112.426"
       id="path126" />
    <path
       style="fill:none;stroke:#000000;stroke-width:0.13348;stroke-linejoin:round"
       d="M 154.219,112.422 C 154.277,112.824 154.582,113.555 154.957,113.348 C 155.617,113.211 155.617,112.711 155.328,112.051 C 155.082,111.559 154.969,111.137 154.586,111.309 C 154.121,111.363 154.199,111.902 154.219,112.422 z "
       id="path128" />
  </g>
</svg>
