<?xml version="1.0" encoding="UTF-8" standalone="no"?>
<svg
   xmlns:dc="http://purl.org/dc/elements/1.1/"
   xmlns:cc="http://web.resource.org/cc/"
   xmlns:rdf="http://www.w3.org/1999/02/22-rdf-syntax-ns#"
   xmlns:svg="http://www.w3.org/2000/svg"
   xmlns="http://www.w3.org/2000/svg"
   xmlns:sodipodi="http://inkscape.sourceforge.net/DTD/sodipodi-0.dtd"
   xmlns:inkscape="http://www.inkscape.org/namespaces/inkscape"
   width="706pt"
   height="428pt"
   id="svg2"
   sodipodi:version="0.32"
   inkscape:version="0.43"
   sodipodi:docname="antarctica1.svg"
   sodipodi:docbase="/home/demailly/ajour/flags"
   version="1.0">
  <metadata
     id="metadata29">
    <rdf:RDF>
      <cc:Work
         rdf:about="">
        <dc:format>image/svg+xml</dc:format>
        <dc:type
           rdf:resource="http://purl.org/dc/dcmitype/StillImage" />
      </cc:Work>
    </rdf:RDF>
  </metadata>
  <sodipodi:namedview
     inkscape:cy="314.77532"
     inkscape:cx="358.32535"
     inkscape:zoom="0.61399264"
     inkscape:window-height="791"
     inkscape:window-width="988"
     inkscape:pageshadow="2"
     inkscape:pageopacity="0.0"
     borderopacity="1.0"
     bordercolor="#666666"
     pagecolor="#ffffff"
     id="base"
     inkscape:window-x="152"
     inkscape:window-y="35"
     inkscape:current-layer="svg2" />
  <defs
     id="defs4">
    <marker
       id="ArrowEnd"
       viewBox="0 0 10 10"
       refX="0"
       refY="5"
       markerUnits="strokeWidth"
       markerWidth="4"
       markerHeight="3"
       orient="auto">
      <path
         d="M 0,0 L 10,5 L 0,10 L 0,0 z "
         id="path7" />
    </marker>
    <marker
       id="ArrowStart"
       viewBox="0 0 10 10"
       refX="10"
       refY="5"
       markerUnits="strokeWidth"
       markerWidth="4"
       markerHeight="3"
       orient="auto">
      <path
         d="M 10,0 L 0,5 L 10,10 L 10,0 z "
         id="path10" />
    </marker>
  </defs>
  <g
     id="g1335"
     transform="matrix(5,0,0,5,-41.85545,-215.3185)">
    <path
       style="fill:#ff5800;stroke:none"
       d="M 8.50391,149.25 L 184.25,149.25 L 184.25,43.508 L 8.50391,43.508 L 8.50391,149.25 z "
       id="path16" />
    <path
       style="fill:none;stroke:#000000;stroke-width:0"
       d="M 8.50391,149.25 L 184.25,149.25 L 184.25,43.5081 L 8.50391,43.5081 L 8.50391,149.25 z "
       id="path18" />
    <path
       style="fill:#ffffff;stroke:none"
       d="M 51.3984,47.266 L 24.2422,100.023 L 32.8516,100.023 L 37.8164,90.57 L 65.0234,90.57 L 69.9883,100.023 L 78.5977,100.023 L 51.4414,47.266 L 51.3945,47.266"
       id="path20" />
    <path
       style="fill:#ffffff;stroke:none"
       d="M 51.9023,103.348 L 25.9844,103.348 C 25.9844,103.348 29.625,120.766 52.1484,120.766 L 51.6562,120.766 C 74.1758,120.766 77.8203,103.348 77.8203,103.348 L 51.9023,103.348"
       id="path22" />
    <path
       style="fill:#ffffff;stroke:none"
       d="M 51.3438,142.004 L 39.4219,142.004 L 38.9258,140.512 C 37.7695,138.356 35.8789,136.715 32.8008,134.375 C 28,130.727 27.1719,125.582 26.0117,122.598 C 24.8555,119.613 23.6953,112.148 23.6953,110.82 C 23.6953,109.496 21.3789,105.016 21.3789,105.016 C 22.3711,105.344 24.8555,108.164 25.8477,110.488 C 26.8398,112.809 26.8398,115.797 28.9922,118.781 C 31.1445,121.766 30.8125,125.25 32.6328,126.41 C 33.7578,127.125 35.6133,127.902 38.7578,127.734 C 41.9023,127.57 45.0508,128.727 45.0508,128.727 C 49.1875,131.379 47.0352,136.023 48.0312,137.852 C 49.0234,139.676 51.3398,141.566 51.3398,141.566 L 51.4414,141.566 C 51.4414,141.566 53.7578,139.676 54.75,137.852 C 55.7422,136.027 53.5938,131.383 57.7305,128.727 C 57.7305,128.727 60.875,127.566 64.0234,127.734 C 67.168,127.898 69.0234,127.129 70.1484,126.41 C 71.9688,125.25 71.6367,121.766 73.7891,118.781 C 75.9414,115.797 75.9414,112.809 76.9336,110.488 C 77.9258,108.168 80.4102,105.348 81.4023,105.016 C 81.4023,105.016 79.0859,109.492 79.0859,110.82 C 79.0859,112.145 77.9297,119.613 76.7695,122.598 C 75.6133,125.582 74.7852,130.727 69.9805,134.375 C 66.9062,136.711 65.0156,138.356 63.8555,140.512 L 63.3594,142.004 L 51.3359,142.004"
       id="path24" />
    <path
       style="fill:#ff5800;stroke:none"
       d="M 51.4219,63.027 L 42.4531,81.442 L 60.3906,81.442 L 51.4219,63.027"
       id="path26" />
  </g>
</svg>
