<?xml version="1.0" encoding="UTF-8" standalone="no"?>
<svg
   xmlns:dc="http://purl.org/dc/elements/1.1/"
   xmlns:cc="http://web.resource.org/cc/"
   xmlns:rdf="http://www.w3.org/1999/02/22-rdf-syntax-ns#"
   xmlns:svg="http://www.w3.org/2000/svg"
   xmlns="http://www.w3.org/2000/svg"
   xmlns:sodipodi="http://inkscape.sourceforge.net/DTD/sodipodi-0.dtd"
   xmlns:inkscape="http://www.inkscape.org/namespaces/inkscape"
   width="704pt"
   height="480pt"
   id="svg2"
   sodipodi:version="0.32"
   inkscape:version="0.43"
   sodipodi:docname="colombia.svg"
   sodipodi:docbase="/home/demailly/ajour/flags"
   version="1.0">
  <metadata
     id="metadata361">
    <rdf:RDF>
      <cc:Work
         rdf:about="">
        <dc:format>image/svg+xml</dc:format>
        <dc:type
           rdf:resource="http://purl.org/dc/dcmitype/StillImage" />
      </cc:Work>
    </rdf:RDF>
  </metadata>
  <sodipodi:namedview
     inkscape:cy="105.64317"
     inkscape:cx="410.96389"
     inkscape:zoom="0.70710678"
     inkscape:window-height="890"
     inkscape:window-width="1095"
     inkscape:pageshadow="2"
     inkscape:pageopacity="0.0"
     borderopacity="1.0"
     bordercolor="#666666"
     pagecolor="#ffffff"
     id="base"
     inkscape:window-x="113"
     inkscape:window-y="104"
     inkscape:current-layer="svg2" />
  <defs
     id="defs4">
    <marker
       id="ArrowEnd"
       viewBox="0 0 10 10"
       refX="0"
       refY="5"
       markerUnits="strokeWidth"
       markerWidth="4"
       markerHeight="3"
       orient="auto">
      <path
         d="M 0,0 L 10,5 L 0,10 L 0,0 z "
         id="path7" />
    </marker>
    <marker
       id="ArrowStart"
       viewBox="0 0 10 10"
       refX="10"
       refY="5"
       markerUnits="strokeWidth"
       markerWidth="4"
       markerHeight="3"
       orient="auto">
      <path
         d="M 10,0 L 0,5 L 10,10 L 10,0 z "
         id="path10" />
    </marker>
  </defs>
  <g
     id="g1833"
     transform="matrix(5,0,0,5,-42.78284,-182.7639)">
    <path
       style="fill:#ffff00;stroke:none"
       d="M 8.50391,156.207 L 184.25,156.207 L 184.25,36.543 L 8.50391,36.543 L 8.50391,156.207 z "
       id="path16" />
    <path
       style="fill:#ff0000;stroke:none"
       d="M 8.51953,156.176 L 184.246,156.176 L 184.246,126.281 L 8.51953,126.281 L 8.51953,156.176 z "
       id="path18" />
    <path
       style="fill:#0046dc;stroke:none;fill-opacity:1"
       d="M 8.50391,126.285 L 184.25,126.285 L 184.25,93.7618 L 8.50391,93.7618 L 8.50391,126.285 z "
       id="path20" />
    <path
       style="fill:none;stroke:#000000;stroke-width:0"
       d="M 8.51953,156.215 L 184.25,156.215 L 184.25,36.5509 L 8.51953,36.5509 L 8.51953,156.215 z "
       id="path22" />
    <path
       style="fill:#ffffff;stroke:none"
       d="M 96.8359,121.762 C 114.922,121.762 129.582,107.082 129.582,88.969 C 129.582,70.859 114.922,56.18 96.8359,56.18 C 78.75,56.18 64.0898,70.859 64.0898,88.969 C 64.0898,107.078 78.75,121.762 96.8359,121.762"
       id="path24" />
    <path
       style="fill:#000000;stroke:none"
       d="M 79.3672,73.695 L 78.7344,74.039 C 77.8984,73.395 77.1172,74.606 76.2344,74.207 C 76.2227,73.762 79.6289,71.406 80.9023,70.801 C 84.0078,69.199 86.9805,67.379 90.4336,66.563 C 92.0625,66.297 93.5625,66.695 94.4688,68.113 C 94.8555,68.672 94.8281,69.442 94.5703,70.07 C 94.2852,70.426 94.0469,70.828 93.6055,70.938 C 93.7148,71.379 93.9023,71.797 93.9414,72.293 L 94.2852,72.285 C 94.4727,71.113 94.8633,70.035 95.6328,69.094 C 95.5742,68.727 95.3906,68.359 95.6055,68.004 C 96.0547,67.297 96.7461,68.07 97.2656,67.961 C 97.9062,67.82 98.5117,68.223 98.9922,68.633 C 99.8242,69.152 99.625,70.004 99.5977,70.824 C 100.074,71.008 99.9375,71.559 99.9727,71.879 C 100.43,72.336 101.027,73.262 101.598,72.305 L 102.902,71.973 C 102.629,70.938 101.086,69.914 102.043,68.621 C 102.508,67.566 103.535,66.992 104.598,66.863 C 108.215,66.738 111.215,68.539 114.125,70.469 C 116.129,72.024 118.434,72.879 120.484,74.414 C 120.508,74.512 120.07,74.649 119.824,74.606 C 118.914,73.914 117.93,73.395 116.766,73.328 C 116.02,74.043 115.344,72.996 114.551,73.043 C 114.004,73.875 113.016,73.039 112.293,72.984 C 112.137,73.484 111.441,73.578 111.039,73.316 C 110.59,73.156 110.129,72.574 109.66,72.809 L 107.973,71.84 C 107.586,72.195 108.301,72.996 107.668,73.336 L 106.703,73.316 C 106.938,73.805 107.105,74.445 106.871,74.973 C 106.656,75.176 106.477,74.981 106.23,75.063 C 106.141,75.387 106.422,75.75 106.258,76.129 C 106.07,76.453 105.695,76.289 105.371,76.277 C 105.309,76.551 105.535,76.867 105.199,77.102 C 104.754,77.113 104.234,76.238 103.957,76.914 C 103.477,77.445 102.48,76.359 102.484,77.426 C 102.297,77.777 101.895,77.516 101.645,77.449 C 101.555,77.746 101.711,78.192 101.324,78.352 L 100.902,78.242 C 100.762,78.442 100.77,78.715 100.703,78.965 C 102.852,78.656 105.48,78.684 107.559,79.367 L 108.746,79.262 C 108.254,78.434 108.766,77.375 108.891,76.477 C 110.023,75.305 111.703,76.895 112.809,75.649 C 113.402,74.789 113.844,74.215 114.969,74.531 C 115.191,74.574 115.5,74.766 115.379,74.942 C 114.172,74.738 114.211,75.231 113.934,75.934 C 115.098,75.973 116.586,74.426 117.66,75.563 C 116.824,75.641 117.004,75.902 116.684,76.063 C 115.629,77.332 113.832,76.887 112.746,78.035 C 111.793,78.434 111.176,77.684 110.398,77.434 L 110.129,77.586 C 111.375,77.899 110.848,79.207 111.191,80.043 C 110.855,80.473 110.723,81.024 110.211,81.313 C 109.469,81.262 108.809,81.723 107.965,81.621 L 107.727,81.926 C 108.207,84.098 108.352,86.625 108.117,88.895 C 110.641,86.02 112.477,82.516 114.922,79.465 C 115.055,79.016 114.762,78.055 115.602,78.082 C 115.727,78.152 115.875,78.145 116.023,78.168 L 116.121,77.274 C 117.242,76.621 118.441,76.094 119.512,75.293 C 120.035,75.524 119.582,76.059 119.469,76.41 L 118.629,78.219 C 118.102,78.777 116.762,78.84 117.016,79.926 C 116.488,80.434 117.289,80.934 117.305,81.481 C 117.297,82.074 117.219,82.797 116.582,83.039 L 115.992,83.129 L 116.008,83.723 C 116.324,83.543 116.812,83.254 117.289,83.442 C 117.5,82.988 117.012,82.309 117.676,82.192 C 118.93,81.883 120.055,81.305 121.34,81.074 L 121.352,81.496 C 120.664,82.508 120.195,83.59 119.605,84.625 C 118.812,84.625 117.898,84.672 117.422,85.356 C 118.824,86.828 120.008,88.313 119.574,90.484 C 119.363,90.859 118.559,90.465 118.652,91.106 C 118.77,91.774 118.789,92.492 118.711,93.2384 C 118.375,93.6173 117.867,94.0313 117.293,93.8712 C 116.992,99.9376 115.652,107.008 109.293,109.348 C 106.75,110.66 103.02,111.137 100.586,109.293 C 100.82,110.676 101.332,112.102 102.352,113.117 C 102.203,113.914 100.883,112.914 100.785,113.754 C 100.438,114.508 101.352,115.477 100.551,115.922 C 100.332,115.211 99.5938,115.379 99.0469,115.293 C 98.8281,115.445 99.1289,115.637 99.1094,115.836 C 99.25,116.5 98.4922,116.746 98.1289,117.106 C 97.3672,117.348 96.4258,117.301 95.6992,117.078 C 94.9961,116.754 94.9023,116.035 94.6875,115.418 C 94.2305,115.875 93.7227,116.41 93.0508,116.258 C 92.5859,115.602 92.9609,114.797 92.8164,113.981 C 92.3164,113.871 91.8359,114.281 91.3359,114.145 L 91.3281,113.848 C 92.3477,112.281 93.2227,110.668 93.8711,108.957 C 90.3789,109.973 84.9883,111.488 81.8281,108.574 C 79.8672,106.742 78.6406,104.566 77.6094,102.309 C 76.9102,99.3751 77.1055,95.8399 77.2227,92.8556 C 77.0352,93.1563 76.5898,93.1681 76.3359,92.9806 C 76.1367,92.9142 75.9844,92.695 75.8047,92.527 L 76.25,89.91 C 76.8125,89.695 76.3711,89.039 76.5859,88.637 C 76.5898,87.942 77.2344,87.082 76.5781,86.504 C 76.0664,85.899 75.9922,85.031 76.0977,84.258 C 76.0625,83.813 76.8438,83.52 76.3594,83.059 C 75.8867,82.899 74.9023,83.246 74.9805,82.43 C 74.3398,81.656 74.1641,80.59 73.25,79.969 L 73.2344,79.324 C 73.707,79.383 74.1875,79.816 74.668,80.051 C 75.3984,80.574 76.3164,80.598 77.0742,81.051 C 76.4023,82.656 79.0859,82.109 78.1602,83.652 L 78.8984,84.402 C 79.1367,83.231 78.7852,82 78.8516,80.828 C 78.5352,80.91 78.3984,81.387 78.0508,81.395 C 77.7383,80.785 78.0664,79.797 78.4688,79.168 C 77.6016,79.047 77.8086,78.055 77.2344,78.02 L 76.5898,77.914 C 75.7383,76.672 74.8594,75.43 74.2773,74.055 C 75.3672,74.121 76.1445,75.316 77.1758,75.762 L 78.0234,76.035 C 78.1875,75.734 77.5859,75.453 78.0469,75.192 C 78.4961,75.328 78.7109,75.942 79.2578,76 C 79.6523,75.965 80.043,75.758 80.4453,75.895 C 80.3867,75.449 80.3398,74.758 79.7656,74.551 C 79.6172,74.484 79.4727,74.5 79.3359,74.535 L 79.9141,74.293 C 80.5273,74.465 81.1758,74.578 81.6094,74.973 C 82.6602,75.363 83.8867,74.859 84.9336,75.074 C 85.6875,75.426 86.0273,76.16 86.0742,76.93 C 86.3789,78.113 85.0312,78.645 84.8867,79.645 L 85.2578,79.707 C 87.4961,79.102 90.0547,78.309 92.4805,78.961 C 92.6914,78.582 93.3008,78.219 93.293,77.871 C 92.5742,77.77 93.1484,77.008 93.0898,76.734 C 92.7773,76.965 92.5391,77.371 92.0898,77.309 C 91.668,77.246 91.8984,76.621 91.8203,76.473 C 91.5781,76.602 91.4375,76.977 91.0625,76.863 C 90.6367,76.652 90.8438,76.078 90.8594,75.727 C 90.5898,75.856 90.3281,76.188 89.9766,75.996 C 89.6484,75.684 89.8828,75.305 89.8984,74.934 C 89.7812,75.035 89.5781,74.965 89.4062,74.996 C 88.8086,74.793 89.2812,74.031 89.2734,73.762 C 88.8984,73.649 88.9609,73.125 88.9531,72.926 L 88.4141,73.063 C 87.8242,72.359 87.4102,73.387 86.8906,73.453 C 86.0117,73.973 85.2773,73.301 84.3164,73.649 C 83.7305,73.047 82.7656,73.965 82.2227,73.164 C 81.5469,73.652 80.5742,73.063 79.9531,73.566 L 79.4375,73.707 L 79.3672,73.695 z M 78.5156,76.828 C 78.4219,77.82 79.6562,77.606 79.1602,78.785 C 80.3789,80.734 85.1406,86.422 85.7305,87.102 C 85.7891,85.426 85.7461,83.703 86.0547,82.281 C 84.7148,82.27 83.8359,81.004 83.0664,80.055 C 82.8516,79.367 81.6406,78.629 82.6602,77.906 C 82.4648,77.984 82.2188,77.992 82.0742,78.168 C 81.6602,78.402 81.0625,78.32 80.7539,77.91 C 80.6406,76.399 79.1367,77.734 78.5195,76.832 L 78.5156,76.828 z M 88.0586,81.828 L 89.8555,82.297 C 90.2148,81.844 90.8789,81.672 91.0117,81.074 C 89.9766,81.203 88.9141,81.379 88.0586,81.828 z M 100.438,80.938 C 100.254,81.387 99.6133,81.504 99.625,82.027 C 101.824,82.66 105.031,82.942 106.93,81.602 C 105.512,81.371 104.086,80.961 102.578,81.18 L 102.586,81.527 C 101.859,82.117 101.188,81.047 100.438,80.942 L 100.438,80.938 z M 116.027,81.395 C 115.957,81.395 115.852,81.301 115.852,81.227 L 115.914,80.93 C 116.016,81.047 116.043,81.223 116.023,81.399 L 116.027,81.395 z M 93.8008,82.266 L 94.2539,82.609 L 94.2617,82.051 L 93.7969,82.262"
       id="path26" />
    <path
       style="fill:#999999;stroke:none"
       d="M 94.1836,68.539 C 94.3672,68.906 94.3828,69.5 94.2188,69.902 C 94.0391,70.504 93.3164,70.375 93.0586,70.828 C 93.2188,71.344 93.4336,71.836 93.4492,72.43 C 92.2266,71.274 93.6172,68.75 91.8398,68.055 C 88.9375,67.914 86.4922,69.195 83.8047,69.77 C 86.418,68.406 88.9805,66.77 92.2344,67.027 C 93.0078,67.203 93.7695,67.828 94.1836,68.535"
       id="path28" />
    <path
       style="fill:#999999;stroke:none"
       d="M 113.543,70.606 L 114.152,71.184 C 110.891,70.731 108.23,68.742 104.898,68.465 C 104.43,68.527 103.992,68.813 103.781,69.215 C 104.184,70.371 104.504,72 103.887,73.137 C 103.219,73.996 102.102,74.004 101.133,74.008 C 100.684,73.875 100.746,73.375 100.562,73.059 C 100.762,73.125 100.918,73.395 101.164,73.336 C 101.488,72.582 102.453,72.531 103.219,72.387 L 103.504,72.031 C 103.199,70.848 101.262,69.785 102.562,68.481 C 103.469,67.215 105.027,67.145 106.398,67.356 C 108.922,68.055 111.285,69.156 113.531,70.606"
       id="path30" />
    <path
       style="fill:#999999;stroke:none"
       d="M 96.9922,68.637 L 97.1289,69.102 C 97.0352,69.227 96.8789,68.938 96.75,68.867 C 96.8203,68.793 96.918,68.738 96.8672,68.641 C 96.6133,68.426 96.2539,68.805 95.9258,68.594 C 95.8516,68.473 95.918,68.223 96.0859,68.117 C 96.4531,68.109 96.8359,68.344 96.9922,68.637"
       id="path32" />
    <path
       style="fill:#999999;stroke:none"
       d="M 99.2773,69.641 C 99.4141,70.184 99.0586,70.664 99.1953,71.082 C 99.1836,71.504 98.9219,71.859 98.582,72.168 C 98.3008,70.91 97.8945,69.731 97.3438,68.625 L 97.457,68.324 C 98.2227,68.305 98.9609,68.953 99.2773,69.637"
       id="path34" />
    <path
       style="fill:#663366;stroke:none"
       d="M 92.0586,68.774 C 92.3438,70.227 92.2656,71.82 93.1172,73.039 C 93.332,73.703 94.293,73.449 94.2148,74.199 C 94.0352,74.848 94.3711,75.41 94.4375,76.027 L 93.5273,77.07 C 93.4688,76.629 94.1172,76.039 93.7812,75.5 C 93.1875,75.445 92.9688,76.465 92.3281,76.633 C 92.4141,76.234 92.8477,75.75 92.4141,75.363 C 92,75.524 91.7109,75.902 91.3711,76.16 C 91.1406,75.797 91.7891,75.156 91.2148,74.875 L 90.3867,75.367 C 90.1172,74.481 91.3906,73.129 91.3906,73.129 L 89.6406,74.418 C 89.4609,73.309 91.0703,73.188 91.3633,72.184 L 91.2617,72.066 C 90.6289,72.379 90.125,72.992 89.4336,73.184 C 89.4531,72.242 90.6445,72.156 90.8711,71.356 C 90.7188,71.113 90.5,71.344 90.3555,71.418 C 89.7773,71.902 89.1406,72.32 88.4023,72.488 C 89.0977,71.75 90.9141,70.16 90.9141,70.16 C 89.2539,71.074 87.8828,72.602 86.0352,73.102 C 86.7852,72.438 87.7578,71.813 88.3555,71 L 88.3086,70.953 C 86.9414,71.637 85.8672,73.133 84.25,73.078 C 85.0039,72.535 86.3594,71.356 86.3594,71.356 C 85.1562,71.785 84.2227,72.902 82.832,72.942 C 83.75,72.098 85.6719,70.777 85.6719,70.777 C 84.2812,71.559 82.9688,72.566 81.3398,72.809 C 81.8438,72.301 82.7031,72.004 83.1367,71.445 C 83.1367,71.445 80.207,73.043 78.7305,73.531 C 79.4883,73.188 80.5898,71.816 80.5898,71.816 C 79.5195,72.442 78.5508,73.387 77.3203,73.645 C 79.6328,72.164 81.7383,70.168 84.6602,70.039 C 86.9727,69.481 89.1797,68.449 91.7617,68.602 L 92.0625,68.766"
       id="path36" />
    <path
       style="fill:#000000;stroke:none"
       d="M 98.6211,69.234 L 98.6289,69.531 C 98.2109,69.617 97.9297,69.254 97.7227,68.961 L 97.7617,68.664 C 98.1562,68.606 98.4883,68.942 98.6172,69.234"
       id="path38" />
    <path
       style="fill:#00ff00;stroke:none"
       d="M 96.8906,69.531 C 96.6953,69.609 96.6055,69.836 96.5586,70.012 C 96.6328,70.106 96.7344,70.129 96.8594,70.125 C 97.0273,70.024 97.0234,69.824 97.0156,69.652 C 97.5156,69.883 97.5117,70.582 97.7734,71.047 L 97.8906,71.711 C 97.7422,71.668 97.6484,71.84 97.6016,71.942 C 97.5078,72.09 97.2656,71.356 97.0039,71.785 C 97.0117,72.106 97.2422,72.348 97.5195,72.488 C 97.7422,72.578 97.8828,72.332 97.9805,72.18 C 98.3594,73.285 98.832,74.34 98.8438,75.606 L 98.4141,75.27 C 98.1445,75.375 98.4219,75.566 98.4258,75.738 C 99.1719,75.84 98.7734,76.746 98.8359,77.215 C 98.7656,77.215 98.6875,77.219 98.6367,77.149 C 98.2695,77.281 98.6016,77.594 98.7266,77.692 C 98.5898,78.117 98.582,78.711 98.0938,78.899 C 97.8008,78.953 97.4219,78.82 97.207,79.047 C 97.1406,79.223 97.3359,79.34 97.4609,79.387 L 97.9297,79.375 C 97.6406,79.656 97.3008,79.961 96.875,79.777 C 96.3711,79.445 96.0625,78.981 95.8242,78.492 C 96.043,78.438 96.2891,78.356 96.3555,78.106 L 96.3516,77.934 C 95.9297,77.871 95.3672,78.184 95.3242,77.492 C 95.3438,77.297 95.7148,77.383 95.8594,77.18 C 95.9258,77.004 96.1719,76.899 96.0664,76.629 L 95.9414,76.535 C 95.7695,76.586 95.6562,76.84 95.4805,76.895 C 95.3828,76.824 95.2266,76.629 95.0586,76.785 L 94.6523,74.66 C 94.9297,74.875 95.375,74.859 95.668,74.633 C 95.7109,74.461 96.0273,74.301 95.8242,74.082 C 95.5078,74.285 94.9727,74.551 94.6836,74.066 L 94.6641,73.297 C 95.1094,73.356 95.6992,73.145 95.9141,72.844 C 95.7617,73.566 96.0039,74.305 96.0234,75.051 C 95.6562,75.133 95.375,75.813 94.9219,75.477 C 94.7773,75.555 94.7812,75.754 94.8594,75.852 C 95.0391,76.066 95.3867,76.184 95.5781,75.953 L 95.9844,75.52 C 96.2266,76.254 96.2266,77.223 96.5742,78.012 C 96.7031,78.231 96.0742,78.742 96.7188,78.777 L 97.0781,78.348 C 97.1797,78.465 97.2344,78.715 97.4336,78.758 C 97.8086,78.895 97.9922,78.445 98.0625,78.195 C 97.9609,78 98.2734,77.844 98,77.727 L 97.5469,78.332 C 97.293,78.145 97.1367,77.727 97.2734,77.399 C 97.5195,77.414 97.9258,77.801 98.2422,77.469 C 98.4102,77.367 98.4062,77.192 98.3984,76.992 C 98.1758,76.902 97.9648,77.375 97.6836,77.137 C 97.25,76.652 97.4492,75.805 97.457,75.184 C 97.6328,75.324 97.957,75.316 98.1758,75.211 C 98.3203,75.109 98.3164,74.934 98.3867,74.785 C 98.1289,74.399 98.0508,75.066 97.7461,74.875 C 97.2656,74.52 97.3281,73.996 97.2383,73.449 C 97.418,73.715 97.7461,73.879 98.0156,73.797 C 98.0859,73.672 98.2305,73.594 98.1758,73.422 C 97.7852,73.656 97.3672,72.777 97.1562,73.231 L 96.7617,71.453 C 97.0625,71.668 97.375,71.266 97.4648,71.012 C 97.4141,70.867 97.5273,70.664 97.332,70.594 C 97.082,70.551 97.1172,70.82 97.0469,70.949 C 96.8711,70.832 96.6016,70.891 96.5039,70.918 C 96.2539,70.754 96.2852,70.156 95.8945,70.34 C 95.6562,70.566 95.8633,70.887 95.9883,71.106 C 96.3906,71.391 95.9336,71.75 96.0156,72.121 L 95.7656,72.008 C 95.6523,72.309 95.5859,72.656 95.2422,72.789 L 94.9453,72.797 C 94.9883,72.649 95.1094,72.52 95.0547,72.324 C 94.6328,72.289 94.8672,71.684 94.9062,71.438 C 95.1133,71.801 95.4922,71.965 95.8867,71.953 C 96.0078,71.879 96.0039,71.754 96.0508,71.652 C 95.7734,71.488 95.332,71.551 95.2695,71.129 C 95.1562,70.613 95.3164,70.211 95.5781,69.754 C 95.9414,69.496 96.2891,68.668 96.707,69.375 L 96.8828,69.543"
       id="path40" />
    <path
       style="fill:#663366;stroke:none"
       d="M 113.875,71.738 C 114.352,71.996 116.941,72.445 117.352,72.906 C 117.258,73.055 115.34,72.715 115.492,72.813 C 114.867,72.559 114.145,72.481 113.586,72.047 C 113.289,72.008 113.223,72.328 113.352,72.524 L 113.707,72.859 C 112.742,72.84 111.977,72.09 111.082,72.113 C 110.871,72.539 111.441,72.598 111.625,72.918 C 111.082,72.91 110.398,72.434 109.938,71.973 C 110.02,71.477 109.418,71.121 109.086,70.731 C 109.184,70.707 109.25,70.481 109.125,70.383 C 109.023,70.238 108.871,70.168 108.699,70.223 C 108.406,70.328 108.566,70.695 108.672,70.867 L 109.102,71.274 C 108.984,71.348 108.809,71.356 108.812,71.504 L 108.918,71.871 C 108.176,71 106.875,71.559 106.199,70.461 C 106.051,70.395 105.957,70.539 105.859,70.641 C 106.422,71.32 107.43,71.813 107.531,72.801 C 107.141,72.984 106.812,72.699 106.461,72.66 C 106.254,72.246 106.09,71.727 105.637,71.543 C 105.43,72.02 106.18,72.422 106.094,72.895 C 106.254,73.434 106.566,73.922 106.559,74.543 C 106.066,74.652 105.773,73.82 105.312,74.281 C 104.934,74.047 105.289,73.363 104.742,73.305 C 104.504,73.582 104.715,73.973 104.816,74.246 C 104.945,74.414 105.094,74.559 105.25,74.703 L 105.32,74.652 C 105.574,74.918 105.883,75.305 105.871,75.754 C 105.336,75.988 104.883,74.988 104.379,75.5 L 104.773,76.383 C 104.324,76.149 103.781,75.469 103.32,75.828 C 103.305,76.149 103.578,76.192 103.633,76.488 C 103.023,76.801 102.551,75.899 102.02,76.41 C 102.023,76.656 102.277,76.824 102.109,77.051 C 101.789,77.012 101.582,76.695 101.211,76.781 C 100.848,77.012 101.18,77.352 101.16,77.625 C 100.938,77.582 100.773,77.094 100.508,77.297 C 100.297,77.699 100.531,78.164 100.297,78.594 C 99.6836,78.684 99.1992,79.195 98.6562,79.359 C 98.8594,78.758 99.1406,78.18 99.25,77.555 L 99.4492,77.621 L 101.227,75.535 C 101.012,74.899 100.402,74.344 99.8203,73.961 C 99.4922,73.625 98.9922,74.453 99.0469,73.688 C 99.1289,73.164 99.6133,72.656 99.8984,72.301 C 100.199,72.414 99.8594,72.574 99.8398,72.723 C 100.176,73.281 100.18,74.25 101.031,74.527 C 102.168,74.473 103.484,74.484 104.273,73.422 C 105.008,72.262 104.762,70.578 104.332,69.324 C 104.734,68.695 105.488,69.047 106.059,69.102 C 108.754,69.695 111.105,71.27 113.871,71.738"
       id="path42" />
    <path
       style="fill:#999999;stroke:none"
       d="M 98.8242,72.981 L 98.7188,72.637 L 99.5742,71.371 C 99.5195,71.969 99.3359,72.543 98.8281,72.981"
       id="path44" />
    <path
       style="fill:#663366;stroke:none"
       d="M 96.8047,77.113 C 96.4453,75.785 96.3203,73.848 96.4219,72.281 C 96.9102,73.805 97.082,75.539 96.8047,77.113"
       id="path46" />
    <path
       style="fill:#999999;stroke:none"
       d="M 94.1875,73.109 C 94.1133,73.012 93.8906,73.117 93.8359,72.949 C 93.957,72.899 94.0547,72.797 94.2539,72.816 L 94.1914,73.113"
       id="path48" />
    <path
       style="fill:#999999;stroke:none"
       d="M 100.68,75.391 L 99.3633,77.039 L 99.25,74.66 C 99.7266,74.102 100.301,75.027 100.684,75.387"
       id="path50" />
    <path
       style="fill:#ffff00;stroke:none"
       d="M 85.5039,77.481 C 85.4375,77.703 85.3203,77.906 85.1016,78.086 C 84.9414,77.598 84.4805,77.113 84.0039,76.875 C 82.832,76.66 81.2383,79.063 80.7266,76.77 C 81.082,77.106 81.6523,77.09 82.0938,76.977 C 82.5234,76.418 81.4609,76.399 81.1758,75.984 L 80.7305,75.055 C 82.043,76.856 85.9531,73.793 85.5078,77.477"
       id="path52" />
    <path
       style="fill:#ffff00;stroke:none"
       d="M 77.7148,77.524 C 76.9844,77.914 76.5117,76.961 76.125,76.5 L 75.8164,75.965 C 76.5898,76.266 76.9648,77.149 77.7188,77.524"
       id="path54" />
    <path
       style="fill:#ffff00;stroke:none"
       d="M 78.0508,77.09 C 77.6289,77.027 77.0703,76.496 76.7109,76.063 C 77.2148,76.344 78.0078,76.32 78.0508,77.09"
       id="path56" />
    <path
       style="fill:#ffff00;stroke:none"
       d="M 112.516,76.676 C 112.473,76.824 113.301,76.781 113.836,76.348 C 114.742,76.074 115.887,75.664 116.852,75.563 C 115.848,76.805 113.836,76.801 112.555,77.797 C 111.395,78 110.387,76.656 109.168,77.387 C 109.211,77.141 109.293,76.547 109.586,76.516 C 111.324,76.664 112.734,76.379 113.832,74.785 C 113.871,76.109 113.367,76.215 112.512,76.688"
       id="path58" />
    <path
       style="fill:#000000;stroke:none"
       d="M 98.5117,75.973 C 98.6641,76.141 98.4766,76.418 98.2773,76.399 C 97.957,76.43 97.6523,76.195 97.6211,75.895 L 97.7109,75.645 C 97.9141,75.813 98.1523,76.375 98.5117,75.969"
       id="path60" />
    <path
       style="fill:#ffff00;stroke:none"
       d="M 80.543,76.598 C 80.2188,76.461 79.4805,76.699 79.0508,76.469 C 79.4062,76.777 80.125,75.895 80.543,76.598"
       id="path62" />
    <path
       style="fill:#663366;stroke:none"
       d="M 94.8555,77.516 C 94.3867,77.504 94.1797,78.106 94.043,78.481 C 94.0703,78.602 94.1953,78.699 94.3438,78.668 L 94.9883,77.856 C 95.2812,78.664 95.8516,79.492 96.3398,80.102 C 95.9453,80.109 95.4727,80.125 95.2188,79.887 C 95.0625,79.57 95.4727,79.258 95.0742,79.047 C 94.8516,78.981 94.7344,79.254 94.6641,79.356 C 94.5938,80.348 95.1562,81.129 94.9883,82.102 C 95.3594,82.113 95.4414,82.434 95.4297,82.809 L 95.3125,82.91 C 94.8008,82.231 94.8672,81.16 94.5742,80.324 C 95.0078,79.891 94.2891,79.836 94.3281,79.438 C 94.0742,79.125 93.7852,79.551 93.4844,79.34 L 93.0078,79.106 C 93.6055,78.371 93.8516,77.445 94.6055,76.801 L 94.8711,77.512"
       id="path64" />
    <path
       style="fill:#ffff00;stroke:none"
       d="M 116.543,78.524 C 116.039,77.25 117.766,77.125 118.395,76.438 C 118.07,77.117 117.195,77.883 116.543,78.524"
       id="path66" />
    <path
       style="fill:#ffff00;stroke:none"
       d="M 84.582,78.227 C 84.5547,78.945 84.0547,79.731 84.2773,80.543 C 84.3516,80.59 84.3516,80.664 84.3555,80.738 C 83.7695,80.109 83.2266,79.383 82.8594,78.621 C 83.043,78.172 83.5,77.66 83.9648,77.473 L 84.5781,78.223"
       id="path68" />
    <path
       style="fill:#ffff00;stroke:none"
       d="M 78.8516,78.262 C 78.9062,78.582 78.5898,78.539 78.3906,78.621 C 78.2891,78.527 78.0938,78.629 78.0391,78.461 C 78.207,78.309 78.5703,77.977 78.8516,78.266"
       id="path70" />
    <path
       style="fill:#ffff00;stroke:none"
       d="M 110.527,78.094 C 110.445,78.617 109.859,79.055 109.367,79.145 C 109.086,78.805 108.879,78.391 109.039,77.965 C 109.414,77.234 110.055,77.961 110.527,78.094"
       id="path72" />
    <path
       style="fill:#ffff00;stroke:none"
       d="M 118.434,77.746 C 118.363,77.871 118.242,77.922 118.094,77.93 C 118.016,77.785 117.914,77.664 118.129,77.508 C 118.301,77.574 118.305,77.625 118.43,77.746"
       id="path74" />
    <path
       style="fill:#ffff00;stroke:none"
       d="M 117.723,78.117 C 117.801,78.285 117.629,78.293 117.559,78.367 C 117.434,78.297 117.504,78.121 117.621,78.07 C 117.668,78.047 117.695,78.09 117.719,78.117"
       id="path76" />
    <path
       style="fill:#ffff00;stroke:none"
       d="M 93.9141,80.098 C 94.1211,80.488 94.2578,80.906 94.293,81.352 C 91.7656,79.586 88.4102,81.145 85.8711,81.688 C 85.0586,81.856 85.0312,80.942 84.8203,80.477 L 84.8164,80.231 C 87.0625,79.922 89.4414,78.887 91.8633,79.438 L 93.9141,80.098"
       id="path78" />
    <path
       style="fill:#ffff00;stroke:none"
       d="M 116.574,79.637 C 116.109,79.774 115.723,79.316 115.441,78.977 C 115.484,78.852 115.332,78.609 115.551,78.602 C 116.07,78.66 115.953,79.707 116.57,79.637"
       id="path80" />
    <path
       style="fill:#ffff00;stroke:none"
       d="M 83.5859,85.109 C 83.7344,86.074 83.3945,87.027 83.1211,87.93 L 79.3398,84.859 C 79.4414,83.242 79.1953,81.414 79.3672,79.692 L 83.5859,85.109"
       id="path82" />
    <path
       style="fill:#ffff00;stroke:none"
       d="M 78.9141,80.461 C 78.793,80.488 78.4219,80.555 78.3242,80.606 C 78.3398,80.336 78.5977,79.609 78.7891,79.406 C 78.9375,79.524 78.9297,80.234 78.9102,80.461"
       id="path84" />
    <path
       style="fill:#ffff00;stroke:none"
       d="M 109.633,79.734 L 110.605,79.039 C 110.887,79.426 110.707,80.027 110.422,80.406 C 107.895,82.192 105.203,80.082 102.395,80.703 C 102.273,79.891 101.477,79.785 100.805,79.731 C 100.758,79.731 100.66,79.758 100.633,79.688 C 101.82,78.762 103.527,79.535 105.035,79.316 C 106.438,79.82 108.148,79.899 109.633,79.734"
       id="path86" />
    <path
       style="fill:#ffff00;stroke:none"
       d="M 100,80.477 C 99.9883,80.871 99.6484,81.129 99.3594,81.438 C 99.1719,80.797 100.223,80.422 99.5586,79.82 L 99.8438,79.418 C 100.172,79.656 100.035,80.082 99.9961,80.481"
       id="path88" />
    <path
       style="fill:#ffff00;stroke:none"
       d="M 99.0898,79.832 C 99.375,80.344 98.8672,80.754 98.832,81.152 L 98.1719,81.344 L 98.0938,80.156 C 98.4375,80.125 98.7031,79.844 99.1016,79.832"
       id="path90" />
    <path
       style="fill:#ffff00;stroke:none"
       d="M 76.5078,81.309 C 76.6367,81.477 76.4961,81.731 76.6484,81.899 L 74.5781,80.594 L 76.5078,81.309"
       id="path92" />
    <path
       style="fill:#000000;stroke:none"
       d="M 79.9062,81.336 L 79.8398,81.559 C 79.6875,81.391 79.6289,81.043 79.6445,80.746 C 79.9648,80.715 79.7305,81.164 79.9062,81.332"
       id="path94" />
    <path
       style="fill:#ffff00;stroke:none"
       d="M 97.543,80.371 C 97.7109,81.109 97.6602,81.981 97.207,82.516 C 96.8906,82.598 96.6133,82.434 96.4805,82.192 C 96.4766,81.996 96.4219,81.848 96.6406,81.816 C 96.6445,81.965 96.625,82.113 96.7734,82.184 C 97.6328,82.012 97.0352,80.984 97.1914,80.383 L 97.5352,80.375"
       id="path96" />
    <path
       style="fill:#ffff00;stroke:none"
       d="M 115.383,81.41 C 115.438,82.551 115.375,83.746 115.773,84.727 L 116.074,84.914 C 114.281,86.379 112.445,88.094 110.676,89.633 L 110.18,86.918 C 111.824,84.59 113.27,82.137 115.09,79.875 C 116.152,79.848 115.113,80.816 115.379,81.406"
       id="path98" />
    <path
       style="fill:#ffff00;stroke:none"
       d="M 96.7305,80.617 C 97.1719,81.422 96.2305,81.375 95.7891,81.535 C 95.2227,81.574 95.3984,80.805 95.3633,80.481 L 96.7305,80.613"
       id="path100" />
    <path
       style="fill:#ffff00;stroke:none"
       d="M 101.797,80.848 L 101.797,80.945 L 100.59,80.336 C 101.059,80.301 101.703,80.231 101.793,80.848"
       id="path102" />
    <path
       style="fill:#ffffff;stroke:none"
       d="M 75.0234,81.524 C 74.8555,81.625 74.8203,81.332 74.7188,81.238 C 74.8438,81.309 75.1914,81.324 75.0234,81.524"
       id="path104" />
    <path
       style="fill:#ffff00;stroke:none"
       d="M 116.875,81.492 L 116.582,81.625 C 116.398,81.258 116.457,80.688 116.004,80.375 L 116.07,80.199 C 116.496,80.383 116.688,81.024 116.875,81.492"
       id="path106" />
    <path
       style="fill:#000000;stroke:none"
       d="M 80.5898,82.734 C 80.5703,82.781 80.543,82.809 80.4688,82.809 L 80.207,81.375 C 80.6328,81.586 80.5742,82.231 80.5898,82.731"
       id="path108" />
    <path
       style="fill:#663366;stroke:none"
       d="M 93.6602,81.723 C 93.1211,81.859 92.7422,82.59 92.0703,82.484 C 92.1602,82.234 92.7227,81.922 92.7617,81.5 C 92.2422,81.512 91.7383,82.125 91.4258,82.504 L 90.582,82.406 L 91.7344,81.133 C 92.4531,81.137 93.0547,81.418 93.6602,81.723"
       id="path110" />
    <path
       style="fill:#ffff00;stroke:none"
       d="M 75.3867,82.109 C 75.3164,82.133 75.2617,82.039 75.2109,81.992 C 75.1602,81.848 75.2734,81.668 75.4492,81.688 L 75.3867,82.109"
       id="path112" />
    <path
       style="fill:#000000;stroke:none"
       d="M 115.188,80.57 C 115.266,80.766 115.273,81.063 115.203,81.238 L 115.031,81.242 C 115.074,81.02 114.867,80.652 115.184,80.57"
       id="path114" />
    <path
       style="fill:#ffff00;stroke:none"
       d="M 76.1055,82.09 C 76.1797,82.184 76.0391,82.34 75.9922,82.465 L 75.8203,82.469 C 75.7461,82.348 75.8555,82.024 76.1055,82.09"
       id="path116" />
    <path
       style="fill:#000000;stroke:none"
       d="M 114.434,81.188 C 114.375,81.684 114.387,82.18 114.227,82.633 C 114.121,82.289 114.098,81.473 114.434,81.188"
       id="path118" />
    <path
       style="fill:#004bff;stroke:none"
       d="M 88.6758,82.629 C 89.7266,82.945 90.8477,83.113 92.0352,83.078 C 91.9688,83.227 91.8945,83.352 92.0469,83.5 C 92.125,83.645 92.2695,83.59 92.3945,83.586 C 92.8008,83.129 93.4492,83.234 93.8594,82.777 L 93.9805,82.774 C 94.1211,83.363 93.7227,84.121 94.3711,84.324 L 94.9414,83.516 C 95.6211,83.992 94.707,84.863 95.1172,85.422 C 94.9688,85.426 94.8164,85.207 94.6484,85.387 C 94.125,86.121 94.6445,86.949 95.0547,87.586 C 95.5664,88.141 96.1445,88.473 96.7734,88.727 L 96.8633,90.316 L 86.3242,90.316 C 86.3242,90.316 85.9141,84.981 86.5664,82.203 C 87.4141,81.512 87.8672,82.613 88.6602,82.613"
       id="path120" />
    <path
       style="fill:#000000;stroke:none"
       d="M 81.0547,82.422 C 81.1641,82.891 81.4062,83.504 81.168,83.906 L 80.8789,82.426 L 81.0508,82.422"
       id="path122" />
    <path
       style="fill:#004bff;stroke:none"
       d="M 98.9883,82.418 C 101.367,83.316 104.773,83.496 107.066,82.192 C 107.801,84.555 107.305,90.27 107.305,90.27 L 97.3867,90.328 C 97.3867,90.328 96.9531,88.559 97.8398,88.508 L 98.0625,88.504 C 97.8477,88.805 97.7656,89.305 97.9961,89.645 C 98.6758,90.047 99.6094,89.723 100.312,90.051 C 100.688,90.164 100.891,89.566 101.199,89.856 C 102.125,89.234 104.105,90.121 103.91,88.34 C 104.004,87.348 104.727,86.531 105.023,85.629 C 105.312,85.449 105.527,85.07 105.953,85.207 C 106.332,85.543 105.938,86.324 106.582,86.481 C 106.926,86.492 107.27,86.266 107.336,85.938 C 107.25,85.418 107.16,84.926 107,84.457 C 106.422,84.176 105.879,83.297 105.07,83.668 C 104.594,83.461 104.316,84.16 103.84,83.949 C 103.262,84.41 102.93,85.066 102.086,85.016 C 101.828,85.543 101.609,84.809 101.312,84.84 C 100.723,85.004 100.059,85.246 99.7812,85.899 C 99.6797,86.57 100.164,87.227 99.4336,87.645 C 99.6719,87.34 99.582,86.848 99.5,86.5 C 99.4688,86.231 99.1484,86.313 98.9727,86.219 C 99.1289,85.668 99.2227,84.598 98.9102,83.961 C 98.2852,82.836 97.1055,83.168 96.0898,83.32 C 95.9453,83.422 95.75,83.578 95.625,83.504 C 95.8867,83.125 96.0469,82.625 95.8828,82.133 C 95.9414,82.5 96.2461,82.816 96.5508,83.008 C 96.8008,83.098 97.1484,83.164 97.3945,83.059 C 98,82.672 98.207,81.199 98.9883,82.418"
       id="path124" />
    <path
       style="fill:#ffff00;stroke:none"
       d="M 77.7461,83.012 C 77.8008,83.281 77.5898,83.563 77.3438,83.617 L 77.0938,83.551 C 77.1328,83.254 77.7266,83.238 77.4922,82.774 C 77.5898,82.793 77.7188,82.891 77.7461,83.012"
       id="path126" />
    <path
       style="fill:#ffff00;stroke:none"
       d="M 120.109,81.875 C 119.383,82.414 118.68,83.055 117.816,83.254 L 117.848,82.707 C 118.633,82.539 119.316,82.07 120.105,81.875"
       id="path128" />
    <path
       style="fill:#ffff00;stroke:none"
       d="M 116.844,82.09 C 116.805,82.387 116.59,82.668 116.266,82.625 C 116.121,82.652 115.922,82.633 115.891,82.465 L 115.879,82.043 C 116.176,82.106 116.527,82.223 116.848,82.09"
       id="path130" />
    <path
       style="fill:#000000;stroke:none"
       d="M 90.0938,83.66 C 90.4961,83.969 90.2461,84.672 90.8906,84.777 C 91.1445,84.969 91.2148,85.762 91.6758,85.352 C 92.3828,84.984 92.9961,85.637 93.5977,85.891 C 93.6328,86.285 94.0586,86.422 94.3359,86.59 C 94.4648,87.727 95.6992,88.461 95.5352,89.66 C 95.1055,90.145 94.3164,89.422 93.9375,90.102 C 93.2812,90.492 93.0781,89.383 92.5781,90.137 C 92.0156,90.301 91.6094,89.195 91.0859,89.957 C 90.3398,89.832 90.3086,88.715 89.4453,88.863 C 88.6172,88.391 89.1836,87.434 88.7422,86.75 C 88.9766,86.274 88.6484,85.934 88.6562,85.438 C 88.4336,85.422 88.2266,85.102 88.0625,85.406 C 87.8789,85.832 87.8672,86.328 87.5547,86.711 C 87.1367,86.723 86.6523,86.34 86.5938,85.918 C 87.2031,85.629 86.5742,85.149 86.6562,84.652 C 87.6289,84.848 86.6016,83.512 87.5898,83.559 C 87.8477,83.031 88.5117,82.914 89.0625,83.047 C 89.1758,83.613 89.7656,83.371 90.0938,83.66"
       id="path132" />
    <path
       style="fill:#000000;stroke:none"
       d="M 81.7969,83.297 C 81.8867,83.863 82.1719,84.402 82.0898,84.977 C 81.7812,84.539 81.6406,83.875 81.6719,83.301 L 81.793,83.301"
       id="path134" />
    <path
       style="fill:#ffff00;stroke:none"
       d="M 120.598,81.938 L 120.133,82.52 L 120.277,82.516 C 120.277,82.586 120.668,81.91 120.594,81.938"
       id="path136" />
    <path
       style="fill:#000000;stroke:none"
       d="M 113.418,83.902 L 113.32,83.902 C 113.285,83.508 113.27,82.961 113.508,82.606 C 113.59,83 113.582,83.52 113.422,83.899"
       id="path138" />
    <path
       style="fill:#ffff00;stroke:none"
       d="M 88.7734,83.473 C 88.6875,83.848 88.5742,84.27 88.2109,84.555 C 88.1328,84.313 87.8242,83.973 88.0664,83.715 C 88.2305,83.465 88.5586,83.606 88.7773,83.473"
       id="path140" />
    <path
       style="fill:#ffff00;stroke:none"
       d="M 119.734,83.5 L 119.426,83.039 L 119.762,82.734 C 120.211,82.871 119.73,83.254 119.734,83.504"
       id="path142" />
    <path
       style="fill:#ffff00;stroke:none"
       d="M 79.8359,85.934 C 80.5234,86.582 81.3555,87.082 81.9219,87.762 C 81.1797,92.203 80.9375,96.9298 82.5898,101.106 C 83.3164,102.348 83.9727,103.625 84.8242,104.793 C 84.4219,104.484 84.1406,104.219 83.7344,103.93 L 83.6172,104.055 C 84.2891,105.027 85.3008,105.82 86.3086,106.313 C 85.5078,106.856 84.7109,105.961 84.0312,105.535 C 83.5742,105.055 83.0156,104.645 82.5586,104.262 C 82.4141,104.34 82.4414,104.488 82.4492,104.637 L 84.9609,106.75 C 84.3164,106.746 83.5898,106.395 82.9102,106.113 C 82.2578,105.836 81.7656,105.027 81.1602,104.723 C 81.0156,104.801 81.043,104.949 81.0469,105.07 C 81.8867,105.863 82.6484,106.516 83.6523,106.906 C 83.3359,107.012 83.1367,107.02 82.8125,106.93 C 82.0273,106.285 81.043,105.738 80.207,105.043 C 80.4531,105.879 81.5078,106.348 82.168,106.898 C 81.2969,106.75 80.0742,106.488 79.8672,105.352 C 76.2344,101.383 77.7695,95.0782 77.9531,90.078 C 77.875,88.094 78.1875,86.074 77.4922,84.207 C 77.707,84.004 77.9805,83.996 78.2109,84.234 L 79.8438,85.926"
       id="path144" />
    <path
       style="fill:#ffff00;stroke:none"
       d="M 77.1992,84.816 L 77.2031,85.039 C 76.9297,84.899 76.4492,84.688 76.4648,84.34 C 76.582,84.238 76.8594,84.352 76.8789,84.106 C 77.25,84.098 77.1602,84.543 77.1953,84.816"
       id="path146" />
    <path
       style="fill:#ffff00;stroke:none"
       d="M 95.8164,84.293 L 95.6953,84.297 C 95.7852,84.074 95.9023,83.797 96.1484,83.692 C 96.1484,83.789 96.1641,84.285 95.8203,84.293"
       id="path148" />
    <path
       style="fill:#ffff00;stroke:none"
       d="M 89.7305,84.043 C 89.668,84.34 89.4297,84.719 89.1094,84.828 L 88.7383,84.836 C 88.9766,84.559 88.9336,83.914 89.4297,83.973 C 89.5273,83.992 89.6758,83.942 89.7266,84.035"
       id="path150" />
    <path
       style="fill:#ff0000;stroke:none"
       d="M 97.5664,84.766 C 97.6055,85.359 97.2734,85.816 97.1172,86.34 C 96.707,85.856 96.4922,85.242 96.4766,84.672 C 96.5391,84.324 96.6016,83.824 97.043,83.762 C 97.3438,83.949 97.4805,84.395 97.5664,84.766"
       id="path152" />
    <path
       style="fill:#ffff00;stroke:none"
       d="M 98.5508,84.442 L 98.5586,84.738 C 97.6758,85.109 98.1445,84.055 97.8398,83.742 C 98.1367,83.781 98.5195,84.145 98.5508,84.442"
       id="path154" />
    <path
       style="fill:#ffff00;stroke:none"
       d="M 119.5,84.027 C 119.355,84.156 119.156,84.086 118.984,84.113 C 118.953,83.816 118.469,83.285 119.055,83.219 C 119.332,83.434 119.367,83.754 119.496,84.024"
       id="path156" />
    <path
       style="fill:#000000;stroke:none"
       d="M 83.0039,85.649 C 82.7031,85.434 82.5859,84.891 82.4258,84.473 C 82.3984,84.352 82.5703,84.371 82.668,84.367 C 82.9492,84.707 82.8633,85.231 83,85.649"
       id="path158" />
    <path
       style="fill:#ffff00;stroke:none"
       d="M 87.7461,84.918 C 87.543,84.75 87.4375,84.457 87.5312,84.231 C 87.6836,84.422 87.7656,84.668 87.7461,84.918"
       id="path160" />
    <path
       style="fill:#000000;stroke:none"
       d="M 112.469,85.367 C 112.379,84.774 112.531,84.125 112.715,83.574 C 112.707,84.07 112.824,84.938 112.469,85.367"
       id="path162" />
    <path
       style="fill:#ffff00;stroke:none"
       d="M 118.613,84.176 C 118.395,84.254 118.148,84.313 117.902,84.367 C 117.82,84.051 118.105,83.692 118.426,83.66 C 118.555,83.805 118.605,83.977 118.613,84.176"
       id="path164" />
    <path
       style="fill:#ffff00;stroke:none"
       d="M 105.297,84.426 C 105.324,84.645 105.262,84.82 105.117,84.977 C 105.016,84.758 104.855,84.465 104.797,84.141 C 105.09,84.059 105.172,84.254 105.301,84.422"
       id="path166" />
    <path
       style="fill:#ffff00;stroke:none"
       d="M 105.992,84.406 C 106.07,84.551 105.902,84.606 105.828,84.707 L 105.691,84.192 C 105.91,84.113 105.844,84.359 105.992,84.406"
       id="path168" />
    <path
       style="fill:#ffff00;stroke:none"
       d="M 117.297,84.215 C 117.305,84.535 117.363,84.934 116.973,84.942 C 116.652,85 116.617,84.606 116.488,84.41 C 116.461,84.188 116.453,83.942 116.695,83.887 C 116.988,83.754 117.195,84.043 117.297,84.215"
       id="path170" />
    <path
       style="fill:#ffff00;stroke:none"
       d="M 90.2266,84.973 C 90.1641,85.344 89.8008,85.676 89.4844,85.836 L 89.1875,85.844 C 89.1016,85.328 89.6094,85.016 89.8711,84.684 C 89.9922,84.68 90.125,84.899 90.2227,84.969"
       id="path172" />
    <path
       style="fill:#ffff00;stroke:none"
       d="M 77.3594,86.102 C 76.9609,86.016 76.5352,85.828 76.4453,85.309 L 76.4883,85.137 C 76.8438,85.524 77.6289,85.25 77.3555,86.106"
       id="path174" />
    <path
       style="fill:#ffff00;stroke:none"
       d="M 104.516,84.82 L 104.527,85.242 C 104.52,84.895 104.117,84.66 103.984,84.414 C 104.324,84.258 104.41,84.625 104.516,84.82"
       id="path176" />
    <path
       style="fill:#ffff00;stroke:none"
       d="M 95.8789,84.813 C 95.9922,85.402 96.207,85.945 96.4688,86.457 C 95.7695,86.203 95.7461,85.359 95.582,84.82 L 95.8789,84.813"
       id="path178" />
    <path
       style="fill:#ffff00;stroke:none"
       d="M 87.4648,85.473 L 87.1602,85.137 L 87.2578,85.137 L 87.4648,85.477"
       id="path180" />
    <path
       style="fill:#ffff00;stroke:none"
       d="M 106.684,85.184 C 106.539,85.188 106.41,85.117 106.309,84.996 L 106.496,84.645 C 106.672,84.711 106.676,84.961 106.684,85.184"
       id="path182" />
    <path
       style="fill:#ffff00;stroke:none"
       d="M 90.918,85.625 C 90.3867,86.109 89.7148,86.875 89.1641,86.668 C 89.2266,86.27 89.75,86.43 89.9648,86.125 L 90.6602,85.336 L 90.9141,85.625"
       id="path184" />
    <path
       style="fill:#ffff00;stroke:none"
       d="M 104.137,85.551 C 104.215,85.746 104.199,86.02 104.203,86.242 C 104.211,85.723 103.711,85.391 103.449,84.973 C 103.844,84.887 104.051,85.25 104.133,85.547"
       id="path186" />
    <path
       style="fill:#ffff00;stroke:none"
       d="M 98.5742,85.285 C 98.7891,85.875 98.1094,86.391 97.7227,86.723 L 97.5508,86.727 C 97.9062,86.246 97.6016,85.063 98.5742,85.285"
       id="path188" />
    <path
       style="fill:#ffff00;stroke:none"
       d="M 92.1094,85.641 C 92.1328,85.711 91.8711,85.918 91.75,86.07 C 91.6445,85.801 91.9375,85.672 92.1094,85.641"
       id="path190" />
    <path
       style="fill:#ffff00;stroke:none"
       d="M 101.512,85.727 L 101.52,86.098 C 101.242,85.809 100.848,85.918 100.496,85.828 C 100.684,85.574 101.438,85.035 101.508,85.727"
       id="path192" />
    <path
       style="fill:#ffff00;stroke:none"
       d="M 103.605,86.086 C 103.707,86.305 103.668,86.555 103.672,86.801 C 102.953,86.797 103.398,85.891 102.703,85.762 L 102.059,85.707 C 102.074,85.512 102.371,85.379 102.566,85.348 C 103.109,85.234 103.344,85.746 103.602,86.086"
       id="path194" />
    <path
       style="fill:#004bff;stroke:none"
       d="M 85.2109,88.219 C 85.0234,88.57 84.9102,88.945 84.8984,89.367 C 84.4727,89.207 84.0156,88.774 83.6055,88.387 L 84.1289,85.914 C 84.6406,86.57 85.5273,87.215 85.207,88.219"
       id="path196" />
    <path
       style="fill:#ffff00;stroke:none"
       d="M 87.3594,86.195 L 87.3633,86.367 L 86.9844,86.031 C 87.1523,85.953 87.2578,86.098 87.3594,86.192"
       id="path198" />
    <path
       style="fill:#ffff00;stroke:none"
       d="M 92.9414,86.164 C 93.0703,86.406 92.7539,86.418 92.6562,86.566 C 92.5156,86.742 92.2891,86.574 92.2578,86.406 C 92.1992,86.039 92.793,86.094 92.9453,86.164"
       id="path200" />
    <path
       style="fill:#ffff00;stroke:none"
       d="M 96.9141,87.168 C 96.9688,87.488 97.0781,87.758 97.0625,88.129 C 96.2148,87.934 95.2773,87.262 95.0312,86.399 L 95.0234,86.027 C 95.6523,86.406 96.168,87.113 96.9141,87.164"
       id="path202" />
    <path
       style="fill:#ffff00;stroke:none"
       d="M 106.871,85.699 C 106.898,85.82 106.855,85.922 106.758,86 L 106.629,85.707 L 106.875,85.703"
       id="path204" />
    <path
       style="fill:#000000;stroke:none"
       d="M 111.703,86.457 L 111.605,86.457 L 111.676,85.563 L 111.797,85.559 L 111.699,86.453"
       id="path206" />
    <path
       style="fill:#ffff00;stroke:none"
       d="M 116.512,85.43 C 116.543,87.465 117.09,89.387 117.395,91.363 C 116.762,91.777 117.426,92.551 116.891,92.8673 C 116.672,97.3907 116.125,101.781 113.723,105.473 C 112.988,105.816 112.414,106.527 111.629,106.797 C 112.18,106.188 112.852,105.398 113.055,104.547 L 112.883,104.551 C 112.141,105.488 111.246,107.227 109.801,106.895 C 110.547,106.156 111.617,105.379 112.109,104.398 L 112.035,104.328 L 108.957,106.871 L 108.484,106.762 C 109.59,106.41 110.25,105.148 111.02,104.309 L 110.918,104.191 C 109.75,104.992 108.758,106.734 107.336,106.426 L 107.289,106.379 L 109.914,104.52 L 109.91,104.348 C 109.023,104.52 108.25,105.262 107.445,105.781 C 109.887,100.945 111.699,95.6017 111.508,89.621 C 113.105,88.211 114.746,86.602 116.523,85.434"
       id="path208" />
    <path
       style="fill:#ffff00;stroke:none"
       d="M 90.3398,88.969 C 90.3828,87.902 90.6484,86.801 91.6484,86.203 C 91.0312,87.039 90.5078,87.996 90.3398,88.969"
       id="path210" />
    <path
       style="fill:#ffff00;stroke:none"
       d="M 77.375,86.649 C 77.4766,86.844 77.4102,87.117 77.4414,87.363 C 77.1211,87.301 77.3047,86.82 77.25,86.649 L 77.3711,86.645"
       id="path212" />
    <path
       style="fill:#ffff00;stroke:none"
       d="M 102.723,86.41 L 102.562,86.836 L 102.082,86.43 C 102.223,86.203 102.547,86.195 102.727,86.414"
       id="path214" />
    <path
       style="fill:#ffff00;stroke:none"
       d="M 89.8086,88.512 C 89.6133,88.496 89.4062,88.301 89.375,88.102 C 89.0547,87.195 90.043,87.164 90.3984,86.633 C 90.0703,87.211 89.9375,87.859 89.8086,88.512"
       id="path216" />
    <path
       style="fill:#ff0000;stroke:none"
       d="M 102.02,87.027 C 102.258,87.59 102.594,88.176 102.488,88.801 C 102.227,89.078 101.934,89.262 101.484,89.25 L 101.996,88.047 C 101.66,87.512 101.215,86.656 100.398,86.727 C 100.289,86.332 100.758,86.32 100.984,86.414 C 101.262,86.703 101.574,87.141 102.016,87.027"
       id="path218" />
    <path
       style="fill:#ffff00;stroke:none"
       d="M 92.9258,87.406 C 92.7461,87.09 93.1055,86.856 93.3242,86.629 C 93.0352,86.832 93.4727,87.516 92.9258,87.406"
       id="path220" />
    <path
       style="fill:#ffff00;stroke:none"
       d="M 117.742,86.762 C 117.926,87.227 117.383,87.192 117.219,87.445 L 117.055,85.961 C 117.477,86.024 117.637,86.414 117.746,86.762"
       id="path222" />
    <path
       style="fill:#000000;stroke:none"
       d="M 111.004,86.18 C 111.035,86.524 110.898,86.801 110.781,87.078 C 110.754,86.883 110.738,86.313 111.004,86.18"
       id="path224" />
    <path
       style="fill:#ffff00;stroke:none"
       d="M 99.0352,86.813 C 99.2188,87.277 98.8398,87.758 98.4219,87.895 C 98.1797,88.024 97.8555,87.957 97.5859,88.039 C 97.5391,87.246 98.4766,87.07 99.0391,86.809"
       id="path226" />
    <path
       style="fill:#ffff00;stroke:none"
       d="M 92.207,87.375 L 91.9141,87.481 L 91.9766,87.082 C 92.0977,87.102 92.4219,87.168 92.207,87.371"
       id="path228" />
    <path
       style="fill:#ffff00;stroke:none"
       d="M 93.9414,87.328 C 93.9414,87.402 93.8477,87.453 93.875,87.551 L 93.7773,87.551 L 93.6914,87.082 C 93.8633,87.031 93.8672,87.227 93.9453,87.32"
       id="path230" />
    <path
       style="fill:#ffff00;stroke:none"
       d="M 77.4062,87.84 L 77.418,88.258 C 77.2969,88.262 77.2422,88.141 77.168,88.094 L 77.207,87.797 C 77.2578,87.867 77.332,87.84 77.4062,87.84"
       id="path232" />
    <path
       style="fill:#ffff00;stroke:none"
       d="M 103.289,87.164 C 103.391,87.332 103.324,87.582 103.352,87.758 L 103.012,87.891 L 102.746,87.18 L 103.289,87.168"
       id="path234" />
    <path
       style="fill:#ffff00;stroke:none"
       d="M 100.93,87.953 C 100.344,88.238 99.6055,88.359 99.3516,89.063 C 99.2539,89.113 99.3086,89.234 99.2852,89.313 L 98.4648,89.215 C 98.4453,88.524 99.3125,88.621 99.6758,88.164 L 100.492,87.324 C 100.691,87.442 101.047,87.703 100.93,87.957"
       id="path236" />
    <path
       style="fill:#ffff00;stroke:none"
       d="M 92.5938,87.887 C 92.5977,88.082 92.6289,88.281 92.4883,88.434 L 92.3164,88.438 C 92.1875,88.246 92.2266,87.746 92.5977,87.887"
       id="path238" />
    <path
       style="fill:#004bff;stroke:none"
       d="M 85.2734,90.602 C 84.8945,94.8087 85.4141,99.2149 87.3477,102.715 C 87.9609,103.441 88.4375,104.473 89.4141,104.84 C 88.4062,105.141 87.3633,106.785 86.3359,105.52 C 84.3164,103.316 82.7109,100.902 82.207,98.0118 C 81.7695,94.7735 81.7969,91.242 82.5273,88.242 C 83.4141,88.984 84.4023,89.68 85.2695,90.598"
       id="path240" />
    <path
       style="fill:#ffff00;stroke:none"
       d="M 91.6406,88.387 C 91.6211,88.461 91.5195,88.461 91.4727,88.465 C 91.3477,88.32 91.3398,88.121 91.4609,87.996 C 91.7031,87.942 91.7656,88.258 91.6445,88.387"
       id="path242" />
    <path
       style="fill:#004bff;stroke:none"
       d="M 110.145,90.152 C 109.805,90.332 109.492,90.692 109.152,90.949 C 109.266,89.731 108.438,88.34 109.848,87.481 C 110.117,88.289 110.141,89.207 110.145,90.152"
       id="path244" />
    <path
       style="fill:#ffff00;stroke:none"
       d="M 118.531,87.582 L 118.414,87.707 C 118.387,87.586 118.211,87.391 118.402,87.238 C 118.5,87.309 118.656,87.453 118.535,87.582"
       id="path246" />
    <path
       style="fill:#ffff00;stroke:none"
       d="M 94.5586,88.129 C 94.5859,88.274 94.5469,88.524 94.3984,88.504 L 94.3281,88.555 L 94.3164,88.086 L 94.5625,88.125"
       id="path248" />
    <path
       style="fill:#ffff00;stroke:none"
       d="M 77.3633,88.859 L 77.3867,89.75 C 77.1445,89.879 77.082,89.465 76.9062,89.344 L 77.0078,88.621 C 77.1562,88.641 77.3281,88.684 77.3594,88.859"
       id="path250" />
    <path
       style="fill:#ffff00;stroke:none"
       d="M 93.4961,88.234 C 93.4766,88.309 93.5234,88.406 93.4297,88.457 L 93.3086,88.461 C 93.3086,88.363 93.3242,88.164 93.5,88.234"
       id="path252" />
    <path
       style="fill:#ffff00;stroke:none"
       d="M 117.895,87.848 C 117.926,88.145 117.559,88.176 117.418,88.453 C 117.195,88.363 117.332,87.938 117.301,87.789 C 117.473,87.738 118.004,87.227 117.895,87.844"
       id="path254" />
    <path
       style="fill:#ff0000;stroke:none"
       d="M 85.7383,90.238 C 85.5586,90.024 85.1133,89.984 85.2031,89.586 C 85.1953,89.238 85.5352,88.031 85.6758,87.731 L 85.7383,90.242"
       id="path256" />
    <path
       style="fill:#ffff00;stroke:none"
       d="M 100.477,89.527 L 99.7031,89.301 C 99.9492,88.449 100.855,88.848 101.285,88.313 C 101.199,88.711 100.992,89.313 100.477,89.527"
       id="path258" />
    <path
       style="fill:#ffff00;stroke:none"
       d="M 103.379,88.652 C 103.457,88.848 103.266,88.977 103.145,89.031 C 102.773,89.02 103.113,88.66 103.031,88.442 C 103.18,88.438 103.355,88.504 103.383,88.652"
       id="path260" />
    <path
       style="fill:#ffff00;stroke:none"
       d="M 119.027,88.461 L 118.574,89.02 C 118.691,88.82 118.906,88.59 118.727,88.348 C 118.703,88.277 118.602,88.305 118.555,88.305 L 118.793,88.004 C 118.895,88.074 119.07,88.266 119.027,88.469"
       id="path262" />
    <path
       style="fill:#ffff00;stroke:none"
       d="M 91.3594,89.113 C 91.4375,89.281 91.293,89.363 91.1992,89.488 C 91.0781,89.516 90.9258,89.449 90.8984,89.301 L 90.8906,88.953 C 91.0859,88.926 91.2383,88.969 91.3633,89.113"
       id="path264" />
    <path
       style="fill:#ffff00;stroke:none"
       d="M 94.8828,89.09 C 94.8633,89.164 94.9375,89.262 94.8164,89.313 C 94.6445,89.363 94.6445,89.27 94.5898,89.145 C 94.5117,88.949 94.9492,88.738 94.8828,89.09"
       id="path266" />
    <path
       style="fill:#ffff00;stroke:none"
       d="M 93.8789,89.465 C 93.7617,89.59 93.5586,89.496 93.457,89.356 C 93.4023,89.086 93.7227,89.203 93.8164,89 C 93.9883,89.043 93.9492,89.344 93.8789,89.469"
       id="path268" />
    <path
       style="fill:#ffff00;stroke:none"
       d="M 92.6836,89.375 C 92.7109,89.496 92.668,89.598 92.5703,89.676 C 92.375,89.731 92.1992,89.613 92.1445,89.465 C 92.1367,89.094 92.6992,88.981 92.6875,89.375"
       id="path270" />
    <path
       style="fill:#ffff00;stroke:none"
       d="M 118.023,88.84 C 117.855,88.918 117.738,89.145 117.512,89.149 C 117.328,88.758 117.797,88.719 117.961,88.492 C 118.062,88.586 118.016,88.738 118.02,88.836"
       id="path272" />
    <path
       style="fill:#ff0000;stroke:none"
       d="M 108.391,91.32 C 108.477,91.715 107.988,91.875 107.766,92.055 C 108.109,91.129 107.582,89.801 108.578,89.176 C 108.527,89.895 108.82,90.781 108.391,91.316"
       id="path274" />
    <path
       style="fill:#ffff00;stroke:none"
       d="M 77.418,90.871 C 77.4375,90.797 77.3438,90.777 77.2891,90.703 C 76.9922,90.664 76.9297,91.008 76.9062,91.184 L 76.9102,91.379 L 77.0547,90.359 C 77.3281,90.473 77.4805,90.52 77.4141,90.867"
       id="path276" />
    <path
       style="fill:#ffff00;stroke:none"
       d="M 119.223,89.18 C 119.16,89.555 119.445,90.113 119.031,90.301 C 118.809,90.285 118.562,90.289 118.652,89.965 C 118.945,89.785 118.855,89.266 119.223,89.18"
       id="path278" />
    <path
       style="fill:#ffff00;stroke:none"
       d="M 117.773,90.637 L 117.727,90.637 C 117.672,90.344 117.539,90.047 117.578,89.699 L 118.039,89.391 C 117.977,89.789 118.562,90.492 117.777,90.637"
       id="path280" />
    <path
       style="fill:#ffff00;stroke:none"
       d="M 76.2695,92.395 C 76.1562,91.879 76.4141,91.375 76.4727,90.852 L 76.3438,92.395 L 76.2734,92.395"
       id="path282" />
    <path
       style="fill:#7e7e7e;stroke:none"
       d="M 107.258,90.723 C 107.258,90.723 106.809,94.0235 106.379,95.6212 L 105.391,98.461 L 97.8906,98.461 C 97.832,98.0157 98.043,97.3438 98.082,96.922 C 98.6094,97.2774 99.1484,97.8321 99.8125,97.6407 C 100.203,97.5079 100.215,97.0587 100.082,96.7423 L 99.3633,95.8712 C 99.7031,95.6915 99.5195,95.3946 99.3477,95.2267 C 99.6133,94.1017 99.2812,92.797 98.5859,91.899 C 97.7617,90.805 96.3984,91.688 95.4141,91.047 C 94.9922,91.035 94.5742,91.07 94.2852,91.426 C 94.1328,92.098 94.9531,92.399 94.2773,92.9142 C 93.9766,93.6681 94.7383,94.3907 94.0898,95.004 C 94.3984,95.5157 94.9141,96.1212 95.5625,96.2774 L 95.9688,98.5274 L 88.5312,98.5548 C 87.5781,96.297 86.6016,90.719 86.6016,90.719 L 107.262,90.719"
       id="path284" />
    <path
       style="fill:#004bff;stroke:none"
       d="M 106.668,105.977 L 105.082,105.129 C 107.254,101.195 108.719,96.8048 108.883,92.031 L 109.117,91.555 L 110.984,90.063 C 111.07,95.8946 109.285,101.137 106.668,105.981"
       id="path286" />
    <path
       style="fill:#ff0000;stroke:none"
       d="M 86.4297,93.6759 C 87.5,97.4181 88.5,101.191 91.4805,104.09 L 90.082,104.523 C 88.7578,104.164 88.2031,102.891 87.5039,101.867 C 85.9297,98.6837 85.4219,94.797 85.7148,91.016 C 86.2305,91.719 86.0117,92.8673 86.4336,93.6759"
       id="path288" />
    <path
       style="fill:#ff0000;stroke:none"
       d="M 98.168,92.152 C 98.7578,92.9298 98.9844,93.9181 98.9141,94.9376 C 97.6328,94.254 96.3477,93.5938 94.7617,93.6642 C 94.7539,93.2931 94.7188,92.8985 95.0312,92.664 C 96.0195,92.664 96.7148,93.4337 97.5664,93.8321 C 97.6133,93.7579 97.7344,93.7032 97.6836,93.5821 C 96.9609,92.563 95.7227,92.57 94.8359,91.875 C 94.707,91.633 95.0273,91.672 95.1211,91.57 C 96.0039,92.141 97.3047,91.582 98.1641,92.156"
       id="path290" />
    <path
       style="fill:#ffff00;stroke:none"
       d="M 118.219,91.469 C 118.449,91.758 118.137,91.992 117.945,92.195 C 117.82,92.152 117.645,92.031 117.641,91.91 C 118.035,91.945 117.844,91.336 118.223,91.473"
       id="path292" />
    <path
       style="fill:#ff0000;stroke:none"
       d="M 106.18,101.816 C 105.762,102.82 105.32,103.902 104.551,104.715 C 104.059,103.91 103.055,104.363 102.328,104.184 C 105.637,101.086 106.789,96.9298 107.664,92.7813 L 108.293,92.219 C 108.312,95.6446 107.414,98.8243 106.184,101.816"
       id="path294" />
    <path
       style="fill:#ffff00;stroke:none"
       d="M 118.336,93.004 C 118.121,93.2579 117.902,93.461 117.555,93.3985 C 117.289,92.738 117.957,92.7931 118.246,92.535 C 118.348,92.652 118.305,92.8556 118.332,93.004"
       id="path296" />
    <path
       style="fill:#ff0000;stroke:none"
       d="M 98.6875,95.5431 C 98.7148,95.6876 98.6797,96.0626 98.4766,95.8946 C 97.5078,94.9063 96.2266,94.3712 94.8711,94.5587 L 94.9609,94.2579 C 96.3711,94.2462 97.625,94.6798 98.6914,95.5431"
       id="path298" />
    <path
       style="fill:#ff0000;stroke:none"
       d="M 96.3711,95.2345 C 96.3047,95.4571 96.1602,95.6837 95.9688,95.7892 C 95.5742,95.7267 95.1719,95.5899 94.9375,95.2735 C 95.1992,94.9962 95.9961,94.9728 96.375,95.2345"
       id="path300" />
    <path
       style="fill:#ff0000;stroke:none"
       d="M 97.8047,95.9142 C 97.6367,96.0899 97.4102,95.9024 97.3281,95.6798 C 97.5039,95.7462 97.6758,95.7423 97.8047,95.9142"
       id="path302" />
    <path
       style="fill:#ffff00;stroke:none"
       d="M 96.0234,96.7267 L 96.6406,95.8595 L 96.6406,96.9142 L 96.0234,96.7306"
       id="path304" />
    <path
       style="fill:#ffff00;stroke:none"
       d="M 97.4062,96.7696 L 96.957,96.9142 L 96.9648,96.254 C 97.1172,96.2657 97.418,96.4962 97.4023,96.7696"
       id="path306" />
    <path
       style="fill:#ff0000;stroke:none"
       d="M 99.6172,96.9298 L 99.6211,97.1017 C 99.1797,97.1876 98.9453,96.8009 98.5938,96.6095 C 98.9492,96.1563 99.4102,96.6329 99.6172,96.9259"
       id="path308" />
    <path
       style="fill:#ffff00;stroke:none"
       d="M 96.4727,97.1446 C 96.5781,97.4142 96.5391,97.7852 96.5469,98.086 L 96.4492,98.086 L 96.2266,97.1485 L 96.4727,97.1446"
       id="path310" />
    <path
       style="fill:#ffff00;stroke:none"
       d="M 97.418,97.1681 C 97.5508,97.5352 97.5156,98.0079 97.2773,98.2618 C 97.2539,98.1915 97.1523,98.1915 97.1016,98.1954 L 97.0742,97.1798 L 97.418,97.172"
       id="path312" />
    <path
       style="fill:#004bff;stroke:none"
       d="M 89.8516,99.0274 C 89.8516,99.0274 91.0703,101.02 91.8906,101.867 C 93.1445,101.535 93.2578,103.766 94.6094,103.277 C 95.3711,103.035 96.0742,103.359 96.7695,103.438 C 95.5391,103.695 94.4922,104.418 93.418,105.02 C 91.2695,103.492 88.7422,99.0196 88.7422,99.0196 L 89.8516,99.0196"
       id="path314" />
    <path
       style="fill:#3effff;stroke:none"
       d="M 105.277,99.0274 C 105.277,99.0274 104.109,99.6368 103.527,100.051 C 102.125,100.438 101.789,102.606 100.199,102.453 C 100.004,102.531 99.8906,102.809 99.668,102.887 C 98.1797,102.758 96.5977,103.02 95.0977,102.594 C 94.5781,102.629 94.0195,102.918 93.6562,102.414 C 93.2227,101.981 92.8984,100.922 92.0117,101.27 C 91.3242,100.594 90.3398,99.0313 90.3398,99.0313 L 105.289,99.0313"
       id="path316" />
    <path
       style="fill:#000000;stroke:none"
       d="M 98.2812,99.7774 L 99.2734,99.797 C 99.4141,100.387 98.832,100.824 98.9766,101.492 C 99.4688,101.5 100.059,101.238 100.504,101.203 C 100.664,101.742 99.7539,101.844 99.418,102.301 L 99.1797,102.555 C 97.7617,102.297 95.625,103.125 94.4727,101.793 C 94.5781,101.219 93.832,101.066 93.6445,100.551 C 94.1367,100.559 94.6641,100.645 95.1406,100.93 C 95.1094,100.586 94.8594,99.6993 95.5234,99.6056 C 96.3906,99.6056 97.1523,99.3126 98.0195,99.3126 L 98.2773,99.7774"
       id="path318" />
    <path
       style="fill:#3effff;stroke:none"
       d="M 97.6094,101.41 L 96.7656,101.359 C 96.6055,100.918 96.7852,100.391 96.7305,99.9962 L 97.6914,99.7462 C 97.6562,100.219 97.5508,100.816 97.6172,101.41"
       id="path320" />
    <path
       style="fill:#3effff;stroke:none"
       d="M 96.1328,100.012 C 96.2383,100.379 96.2031,100.879 96.2383,101.199 C 95.5781,101.391 95.6289,100.621 95.4219,100.281 C 95.6367,100.102 95.9102,100.094 96.1328,100.016"
       id="path322" />
    <path
       style="fill:#3effff;stroke:none"
       d="M 98.5039,101.387 L 98.082,101.324 C 98.0508,100.957 98.0352,100.508 98.2969,100.254 L 98.7695,100.313 L 98.5039,101.387"
       id="path324" />
    <path
       style="fill:#004bff;stroke:none"
       d="M 104.551,100.32 C 103.734,102.106 101.965,103.594 100.566,105.074 C 99.5469,104.906 99.2305,103.449 98.0938,103.481 C 98.9453,102.988 99.8711,104.148 100.461,102.992 L 101.641,102.664 C 102.328,101.629 103.316,100.531 104.551,100.324"
       id="path326" />
    <path
       style="fill:#3effff;stroke:none"
       d="M 98.9375,102.129 L 96.3359,102.129 L 94.9688,101.57 C 95.5234,101.977 98.4297,101.645 98.9375,102.129"
       id="path328" />
    <path
       style="fill:#3effff;stroke:none"
       d="M 98.707,104.285 C 99.0898,104.668 99.4766,105.305 100.023,105.34 L 100.102,105.508 C 99.5469,105.992 98.9961,106.703 98.2305,106.875 C 98.0156,107.176 97.5977,107.188 97.3047,107.422 C 96.3906,107.445 96.043,106.664 95.1992,106.539 C 94.6992,106.305 94.3086,105.746 93.8555,105.438 C 95.2188,104.531 97,103.512 98.707,104.285"
       id="path330" />
    <path
       style="fill:#000000;stroke:none"
       d="M 98.6758,105.777 L 98.6484,106.445 C 97.5859,106.547 96.5391,106.406 95.418,106.242 C 95.9336,106.082 95.75,104.867 96.5781,105.191 C 96.8555,105.406 96.7891,105.754 97.1445,105.945 C 97.3789,105.492 97.3359,104.848 97.5703,104.32 C 98.2188,104.473 98.2422,105.344 98.6758,105.777"
       id="path332" />
    <path
       style="fill:#ffff00;stroke:none"
       d="M 107.172,107.106 C 108.43,107.789 109.906,107.324 111.352,107.582 C 110.164,108.531 108.688,108.922 107.363,109.531 C 106.73,109.871 105.863,109.895 105.168,109.891 C 104.055,109.004 102.984,108.039 102.109,106.949 C 102.836,107.301 103.574,107.875 104.344,107.953 C 104.547,107.231 103.48,107.211 103.051,106.848 L 102.699,106.563 C 103.984,107.32 105.43,107.652 106.902,107.934 C 107.047,107.856 107.02,107.707 107.016,107.586 C 105.789,107.199 104.523,107.012 103.41,106.371 C 102.855,106.043 102.254,105.785 101.652,105.602 C 101.531,105.676 101.512,105.875 101.359,105.656 C 101.309,105.559 101.133,105.516 101.18,105.363 C 101.395,105.063 101.68,105.621 101.953,105.637 C 103.125,105.926 104.09,106.742 105.336,106.906 C 105.555,106.805 105.523,106.531 105.418,106.383 C 104.121,106.047 102.984,105.285 101.707,104.875 C 102.086,104.246 103.043,104.742 103.664,104.82 L 107.176,107.106"
       id="path334" />
    <path
       style="fill:#ffff00;stroke:none"
       d="M 92.8828,105.418 C 91.9609,106.981 90.4883,108.363 89.0234,109.324 C 87.6445,109.707 85.7891,109.836 84.4375,109.402 C 86.043,109.184 87.625,108.969 89.0977,108.504 C 89.0938,108.356 89.1367,108.207 88.9883,108.137 C 87.3125,108.481 85.6875,108.898 83.875,108.875 C 83.8047,108.949 83.8086,109.023 83.7617,109.125 C 82.832,108.68 81.875,108.16 81.1562,107.238 C 82.832,107.785 84.6094,107.539 86.2852,107.023 C 87.6836,106.516 89.0039,105.805 90.3242,105.125 L 87.832,107.231 C 88.0859,107.543 87.1562,107.793 87.5625,108.129 C 89.2305,107.461 90.6328,106.231 92.1172,105.195 L 92.2305,104.895 C 92.4805,105.008 92.7578,105.152 92.8867,105.422"
       id="path336" />
    <path
       style="fill:#3effff;stroke:none"
       d="M 98.3203,105.981 C 98.2227,105.981 97.6367,106.406 97.3906,105.981 L 97.6992,104.926 C 97.8438,105.453 98.2656,105.883 98.3164,105.981"
       id="path338" />
    <path
       style="fill:#004bff;stroke:none"
       d="M 94.5352,106.785 C 94.7578,108.641 92.7734,108.523 91.6211,108.953 L 90.2188,109.289 C 91.2617,108.492 92.4883,107.09 93.3203,105.875 C 93.7695,106.059 94.1523,106.422 94.5352,106.781"
       id="path340" />
    <path
       style="fill:#004bff;stroke:none"
       d="M 104.273,109.992 C 102.215,109.902 100.422,108.785 99.1328,107.082 L 100.707,105.797 C 101.543,107.285 102.895,108.664 104.27,109.992"
       id="path342" />
    <path
       style="fill:#ffff00;stroke:none"
       d="M 95.3164,107.313 C 95.1523,109.375 94.5117,111.234 94.0664,113.184 L 92.1172,113.484 C 93.3242,111.492 94.2852,109.375 95.0156,107.195 C 95.1367,107.191 95.2383,107.211 95.3164,107.309"
       id="path344" />
    <path
       style="fill:#ff0000;stroke:none"
       d="M 101.379,112.856 C 100.953,112.645 100.441,113.004 100.379,113.426 L 100.23,114.199 C 99.625,111.981 98.7461,109.797 98.6758,107.387 C 100.621,108.695 100.121,111.195 101.383,112.848"
       id="path346" />
    <path
       style="fill:#004bff;stroke:none"
       d="M 97.4219,107.973 L 98.1758,115.453 L 98.6094,115.91 C 98.3516,116.438 97.7891,116.727 97.1953,116.742 C 96.6289,116.781 95.9336,116.75 95.4766,116.371 C 95.1484,116.035 95.082,115.563 95.0234,115.117 L 95.5195,114.336 C 95.8281,112.117 95.3945,109.82 95.875,107.645 C 96.4414,107.606 96.8398,108.461 97.4219,107.973"
       id="path348" />
    <path
       style="fill:#ff0000;stroke:none"
       d="M 98.1328,107.656 C 98.4961,110.129 99.0859,112.523 99.8945,114.809 L 98.6289,114.797 C 98.1953,112.551 98.1992,109.992 97.9609,107.711 C 98.0586,107.758 98.0547,107.609 98.1328,107.656"
       id="path350" />
    <path
       style="fill:#000000;stroke:none"
       d="M 107.617,109.145 C 107,109.234 105.094,109.148 104.492,108.969 C 104.367,108.875 104.434,108.625 104.578,108.594 C 105.215,108.43 105.773,108.809 106.371,108.914 L 107.609,109.141"
       id="path352" />
    <path
       style="fill:#ffff00;stroke:none"
       d="M 93.543,115.758 L 93.3711,115.762 C 93.5977,115.137 94.1797,114.621 94.5117,114.02 C 94.6094,113.074 94.8555,112.172 95.0781,111.25 C 95.1719,112.934 95.3516,114.918 93.543,115.762"
       id="path354" />
    <path
       style="fill:#ffff00;stroke:none"
       d="M 93.9648,113.859 C 93.7812,114.258 93.543,114.641 93.2305,114.996 C 93.2891,114.551 92.9219,113.59 93.7891,113.789 C 93.8125,113.859 93.9141,113.859 93.9648,113.856"
       id="path356" />
    <path
       style="fill:#3effff;stroke:none"
       d="M 95.9648,105.981 L 96.2734,105.547 L 96.707,105.918 L 95.9648,105.977"
       id="path358" />
  </g>
</svg>
