<?xml version="1.0" encoding="UTF-8" standalone="no"?>
<!-- Created with Sodipodi ("http://www.sodipodi.com/") -->
<svg
   xmlns:dc="http://purl.org/dc/elements/1.1/"
   xmlns:cc="http://web.resource.org/cc/"
   xmlns:rdf="http://www.w3.org/1999/02/22-rdf-syntax-ns#"
   xmlns:svg="http://www.w3.org/2000/svg"
   xmlns="http://www.w3.org/2000/svg"
   xmlns:sodipodi="http://inkscape.sourceforge.net/DTD/sodipodi-0.dtd"
   xmlns:inkscape="http://www.inkscape.org/namespaces/inkscape"
   version="1"
   x="0.00000000"
   y="0.00000000"
   width="1000.00000"
   height="500.000000"
   id="svg1"
   sodipodi:version="0.32"
   sodipodi:docname="falkland_islands.svg"
   sodipodi:docbase="/home/demailly/work"
   inkscape:version="0.42">
  <metadata
     id="metadata130">
    <rdf:RDF>
      <cc:Work
         rdf:about="">
        <dc:format>image/svg+xml</dc:format>
        <dc:type
           rdf:resource="http://purl.org/dc/dcmitype/StillImage" />
      </cc:Work>
    </rdf:RDF>
  </metadata>
  <sodipodi:namedview
     id="base"
     inkscape:zoom="0.68800000"
     inkscape:cx="500.00000"
     inkscape:cy="250.00000"
     inkscape:window-width="1395"
     inkscape:window-height="842"
     inkscape:window-x="152"
     inkscape:window-y="62"
     inkscape:current-layer="svg1" />
  <defs
     id="defs3">
    <marker
       orient="auto"
       markerHeight="3"
       markerWidth="4"
       markerUnits="strokeWidth"
       refY="5"
       refX="10"
       viewBox="0 0 10 10"
       id="ArrowStart">
      <path
         id="path10"
         d="M 10 0 L 0 5 L 10 10 z" />
    </marker>
    <marker
       orient="auto"
       markerHeight="3"
       markerWidth="4"
       markerUnits="strokeWidth"
       refY="5"
       refX="0"
       viewBox="0 0 10 10"
       id="ArrowEnd">
      <path
         id="path7"
         d="M 0 0 L 10 5 L 0 10 z" />
    </marker>
  </defs>
  <g
     id="g3850">
    <g
       id="g1428">
      <rect
         width="120.000000"
         height="60.0000000"
         x="0.00000000"
         y="0.00000000"
         style="font-size:12;fill:#000066;stroke-width:1pt;"
         id="rect124"
         transform="scale(8.333333,8.333333)" />
      <g
         id="g584"
         transform="scale(8.333333,8.333333)"
         style="font-size:12;">
        <path
           d="M 0 0 L 0 3.3541 L 53.2918 30 L 60 30 L 60 26.6459 L 6.7082 0 L 0 0 z M 60 0 L 60 3.35405 L 6.7082 30 L 0 30 L 0 26.6458 L 53.2918 0 L 60 0 z "
           style="fill:#ffffff;stroke-width:1pt;"
           id="path146" />
        <path
           d="M 25 0 L 25 30 L 35 30 L 35 0 L 25 0 z M 0 10 L 0 20 L 60 20 L 60 10 L 0 10 z "
           style="fill:#ffffff;stroke-width:1pt;"
           id="path136" />
        <path
           d="M 0 12 L 0 18 L 60 18 L 60 12 L 0 12 z M 27 0 L 27 30 L 33 30 L 33 0 L 27 0 z "
           style="fill:#cc0000;stroke-width:1pt;"
           id="path141" />
        <path
           d="M 0 30 L 20 20 L 24.4721 20 L 4.47214 30 L 0 30 z M 0 0 L 20 10 L 15.5279 10 L 0 2.23607 L 0 0 z M 35.5279 10 L 55.5279 0 L 60 0 L 40 10 L 35.5279 10 z M 60 30 L 40 20 L 44.4721 20 L 60 27.7639 L 60 30 z "
           style="fill:#cc0000;stroke-width:1pt;"
           id="path150" />
      </g>
    </g>
    <g
       transform="matrix(1.960200,0.000000,0.000000,1.960200,-515.7170,-170.8575)"
       id="g2976">
      <path
         id="path42"
         d="M 608.63729,253.97186 C 613.26329,255.88646 616.99229,258.20816 619.64429,260.51246 C 631.76429,271.04036 619.16429,291.13796 607.68029,293.21216 C 601.12229,294.39716 597.78929,293.37176 596.35529,290.18126 C 593.88029,284.59886 598.97729,284.76446 602.65529,284.27966 C 608.71529,283.48106 622.51229,263.94176 608.63729,253.97186 z "
         style="fill:#db9b68;fill-opacity:1.0000000;stroke:#000000;stroke-width:0.37500000" />
      <path
         id="path44"
         d="M 608.63729,253.97186 C 605.61929,252.35486 601.93529,255.56726 600.98129,259.87376 C 600.21329,263.31896 602.22929,266.86106 606.08429,269.96366 C 607.75829,267.49106 610.01129,264.46766 614.16029,269.57246 C 615.96329,262.36706 612.98429,256.68326 608.63729,253.97186 z "
         style="fill:#d4884a;fill-opacity:1.0000000;stroke:#000000;stroke-width:0.37500000" />
      <path
         id="path46"
         d="M 688.73429,253.97186 C 684.10829,255.88646 680.37929,258.20816 677.72729,260.51246 C 665.60429,271.04036 678.20729,291.13796 689.69129,293.21216 C 696.24929,294.39716 699.58229,293.37176 701.01629,290.18126 C 703.49129,284.59886 698.39429,284.76446 694.71629,284.27966 C 688.65629,283.48106 674.85629,263.94176 688.73429,253.97186 z "
         style="fill:#db9b68;fill-opacity:1.0000000;stroke:#000000;stroke-width:0.37500000" />
      <path
         id="path48"
         d="M 688.73429,253.97186 C 691.75229,252.35486 695.43629,255.56726 696.39029,259.87376 C 697.15829,263.31896 695.14229,266.86106 691.28729,269.96366 C 689.61329,267.49106 687.36029,264.46766 683.21129,269.57246 C 681.40829,262.36706 684.38729,256.68326 688.73429,253.97186 z "
         style="fill:#d4884a;fill-opacity:1.0000000;stroke:#000000;stroke-width:0.37500000" />
      <path
         id="path50"
         d="M 648.67529,294.48806 C 672.28229,294.48806 688.39229,286.99106 701.63129,276.14366 C 705.58229,272.90786 704.82329,271.19996 702.43229,269.12576 C 700.03829,267.05156 697.32629,262.58516 696.36929,259.87376 C 698.76029,271.04036 670.20929,282.84386 648.67529,282.84386 C 627.14129,282.84386 598.58729,271.04036 600.98129,259.87376 C 600.02129,262.58516 597.31229,267.05156 594.91829,269.12576 C 592.52729,271.19996 591.76529,272.90786 595.71629,276.14366 C 608.95529,286.99106 625.06829,294.48806 648.67529,294.48806 z "
         style="fill:#e2ae86;fill-opacity:1.0000000;stroke:#000000;stroke-width:0.37500000" />
      <path
         style="fill:#e2ae86;fill-opacity:1.0000000;stroke:#000000;stroke-width:0.37500000"
         d="M 597.30029,285.86456 C 599.61329,287.77916 601.61729,289.78286 602.25629,291.13796 C 605.54729,288.40736 602.64329,285.46616 600.17129,285.22736 C 599.17229,285.13046 598.09229,285.33116 597.30029,285.86456 z "
         id="path54" />
      <path
         style="fill:#e2ae86;fill-opacity:1.0000000;stroke:#000000;stroke-width:0.37500000"
         d="M 700.04729,285.86456 C 697.73429,287.77916 695.73029,289.78286 695.09129,291.13796 C 691.80329,288.40736 694.70429,285.46616 697.17629,285.22736 C 698.17829,285.13046 699.25529,285.33116 700.04729,285.86456 z "
         id="path56" />
      <path
         style="fill:#d4884a;fill-opacity:1.0000000;stroke:#000000;stroke-width:0.37500000"
         d="M 603.72629,288.32846 C 603.58829,286.68626 601.79429,285.39296 600.18329,285.23606 C 597.63629,284.99006 594.83729,286.79186 596.27429,289.98206 C 595.15829,286.15316 593.00429,281.32796 590.85029,278.61656 C 589.37129,276.75326 590.37329,273.19346 593.00429,271.91786 C 595.63529,270.64046 601.05929,273.51296 601.05929,277.10186 C 601.05929,284.05106 603.96329,284.65886 603.72629,288.32846 z "
         id="path60" />
      <path
         style="fill:#d4884a;fill-opacity:1.0000000;stroke:#000000;stroke-width:0.37500000"
         d="M 693.62429,288.32846 C 693.75929,286.68626 695.55329,285.39296 697.16729,285.23606 C 699.71129,284.99006 702.51029,286.79186 701.07329,289.98206 C 702.18929,286.15316 704.34329,281.32796 706.49729,278.61656 C 707.97629,276.75326 706.97729,273.19346 704.34329,271.91786 C 701.71229,270.64046 696.28829,273.51296 696.28829,277.10186 C 696.28829,284.05106 693.38429,284.65886 693.62429,288.32846 z "
         id="path62" />
      <path
         style="fill:#5880ba;fill-opacity:1.0000000;stroke:#ffffff;stroke-width:1.0750000;stroke-miterlimit:4.0000000;stroke-dasharray:none;stroke-opacity:1.0000000"
         d="M 700.35629,141.19646 L 700.35629,212.65886 C 700.35629,240.09386 684.41729,269.76446 648.68729,279.97286 C 612.95729,269.76446 596.99129,240.09386 596.99129,212.65886 L 596.99129,141.19646 L 700.35629,141.19646 z "
         id="path64" />
      <path
         id="path114"
         d="M 648.68729,279.97286 C 658.47029,277.17806 666.76229,272.92406 673.65929,267.65636 C 668.29829,267.69026 661.48829,266.25476 658.61729,264.02216 C 655.74629,261.78836 651.45929,260.83166 648.70229,260.83166 C 645.94529,260.83166 641.65529,261.78836 638.78429,264.02216 C 635.91329,266.25476 629.05529,267.69026 623.69429,267.65636 C 630.59129,272.92406 638.90429,277.17806 648.68729,279.97286 z "
         style="fill:#ffffff;stroke:none;stroke-width:0.37500000" />
      <path
         id="path68"
         d="M 675.21329,187.80206 C 675.76829,187.65416 677.06429,187.68626 677.54729,188.37326 C 678.30329,189.44846 679.86029,189.08966 680.61629,190.12676 C 681.37229,191.16386 682.25129,192.12176 682.25129,193.59686 C 682.25129,195.07196 682.10729,198.73256 682.13129,199.53836 C 682.17329,200.77466 682.35329,200.96816 683.44829,200.93426 C 684.76229,200.89466 686.58029,200.77616 686.63729,198.02366 C 686.67929,196.10906 685.04429,194.91236 684.56429,188.09336 C 685.28129,187.37576 685.92029,186.73706 685.68329,185.78066 C 685.44329,184.82396 687.03629,184.34486 686.87729,182.90936 C 686.71829,181.47386 688.47329,180.59636 687.75329,179.00126 C 687.03629,177.40586 688.63229,177.32696 687.99329,176.05106 C 687.35729,174.77366 689.03129,173.65736 688.31429,172.54136 C 687.59429,171.42356 689.27129,170.38796 688.39229,169.03136 C 687.51629,167.67656 688.86929,166.87826 687.99329,165.84116 C 688.55129,164.80556 688.07429,161.85386 686.31929,160.17956 C 684.56429,158.50376 682.09229,157.62626 680.65529,156.98906 C 677.98529,155.80106 672.99929,156.35036 669.49229,156.82946 C 665.98229,157.30676 659.43929,157.78586 657.44729,157.46666 C 655.45229,157.14866 650.74829,156.82946 647.04029,157.54706 C 645.77129,157.79186 644.32829,157.34786 643.56929,156.50996 C 642.96329,155.84066 642.61229,155.91236 642.05429,155.95196 C 641.49629,155.99156 641.17829,155.79236 640.89929,154.99376 C 640.40729,153.58916 639.30329,154.55576 638.78429,152.80106 C 638.43929,151.62776 636.63029,152.64146 636.07229,151.64516 C 635.51429,150.64766 634.83629,150.52766 633.32129,150.64766 C 633.24329,150.05006 632.40329,149.61056 631.64729,149.77016 C 631.76429,148.77416 630.93029,147.97586 629.53229,148.01546 C 629.69129,146.77916 627.73829,145.82246 626.74229,146.57996 C 626.10329,145.66286 624.82529,145.86206 624.50729,146.57996 C 623.82929,145.66286 621.67829,145.94276 621.15929,146.93876 C 620.24129,146.34116 618.45929,147.80876 618.60629,150.12926 C 618.64529,150.76796 618.68129,151.43276 617.76929,151.64516 C 616.05329,152.04356 615.05729,154.27616 613.58129,154.59536 C 612.10529,154.91486 610.62929,155.47286 610.35029,156.42956 C 610.07129,157.38746 610.59029,158.38496 610.03229,158.86256 C 609.47429,159.34166 610.39229,159.77966 610.67129,160.01816 C 610.95029,160.25846 611.38829,160.65686 611.46929,161.21516 C 611.58029,162.00596 612.69929,162.24476 613.86029,161.37476 C 614.34029,161.01596 615.17729,162.09266 616.53329,161.33516 C 617.88929,160.57796 619.81229,160.97936 619.48529,162.21266 C 619.32329,162.81026 619.68329,163.44896 620.12129,164.04656 C 620.56229,164.64416 621.21929,166.44746 620.83829,167.47586 C 620.28029,168.99206 621.39629,169.82996 621.12029,171.18476 C 620.83829,172.54136 621.27929,173.77766 620.67929,175.61156 C 620.08229,177.44546 620.07329,179.73956 620.95829,180.39716 C 622.19429,181.31426 621.45029,183.13196 622.51229,183.90686 C 623.39129,184.54406 622.87229,186.09986 624.50729,186.57746 C 626.14229,187.05626 625.18529,188.33216 626.90129,188.61206 C 628.61729,188.89046 629.21429,190.32596 631.00829,190.00646 C 632.33129,189.77216 633.02729,190.14716 633.79529,190.50176 C 633.95429,191.77766 633.60029,196.46816 633.51929,197.66486 C 633.45029,198.72536 632.96129,200.41286 632.96129,201.45296 C 632.96129,202.09016 634.07729,202.24976 635.35529,202.24976 C 636.63029,202.24976 637.19129,201.65216 636.87029,199.97636 C 636.55229,198.30206 636.47429,194.21816 636.55529,191.66486 C 637.65929,192.28586 638.71229,193.15736 638.66429,194.11556 C 638.58629,195.66956 638.60729,198.45866 638.38529,199.89716 C 638.22629,200.93426 638.46629,202.56896 638.54429,203.64566 C 638.62529,204.04406 640.77929,204.00476 641.65529,203.64566 C 642.53429,203.28686 642.53429,202.33046 642.45329,197.98256 C 642.41429,195.83066 640.45529,193.63346 642.93329,192.55976 C 644.12729,192.04136 645.80429,190.84436 646.44329,189.72836 C 647.07929,188.61206 648.47429,189.05006 649.47329,189.60956 C 650.46929,190.16786 652.06529,191.02016 653.06129,190.64516 C 654.33629,190.16786 655.69229,191.36306 656.81129,190.64516 C 657.92729,189.92756 659.36129,191.16386 660.27929,190.28636 C 661.19429,189.40886 662.79029,190.24676 663.46829,189.40886 C 664.14629,188.57246 666.93929,189.88796 667.93529,188.77166 C 668.93129,187.65416 670.28729,189.08966 671.20529,188.25326 C 671.44529,188.03336 671.73029,187.98506 672.04229,188.00996 C 672.00929,189.89816 671.70629,192.89966 671.64329,193.83566 C 671.57129,194.89766 671.08529,196.58516 671.08529,197.62376 C 671.08529,198.26246 672.20129,198.42206 673.47929,198.42206 C 674.75429,198.42206 675.31229,197.82296 674.99429,196.14866 C 674.67629,194.47436 675.13229,190.35536 675.21329,187.80206 z "
         style="fill:#d9d9d9;fill-opacity:1.0000000;stroke:#000000;stroke-width:0.37500000" />
      <g
         transform="matrix(3.000000,0.000000,0.000000,3.000000,-3.272712,-3.133542)"
         id="g70">
        <path
           id="path72"
           d="M 204.65200,53.951300 C 204.83000,53.800500 204.66400,53.486500 204.75400,53.185200 C 204.84200,52.883900 205.31400,52.707700 205.78400,52.607600 C 206.25600,52.507000 206.57400,51.803400 207.12100,51.677900 C 207.41300,51.611000 207.40200,51.402000 207.38900,51.200800 C 207.34200,50.469900 207.91000,50.008000 208.20300,50.196400 C 208.36900,49.882000 209.05600,49.794100 209.27300,50.083200 C 209.37500,49.857100 209.78200,49.794100 209.98500,50.083200 C 210.30400,49.844400 210.92700,50.145700 210.87700,50.535300 C 211.32200,50.522600 211.58900,50.774100 211.55100,51.088000 C 211.79300,51.037800 212.06100,51.175900 212.08600,51.363900 C 212.04500,51.672500 212.65000,51.752100 212.37100,51.951800 C 212.12600,52.127100 211.89200,52.057800 211.61300,51.819000 C 211.33400,51.579300 210.40400,51.792200 210.27100,51.911800 C 210.13800,52.031400 209.99100,52.084600 209.88500,51.991400 C 209.77900,51.898600 209.52600,51.752100 209.40600,51.765800 C 209.28700,51.779000 209.03400,51.779000 208.88800,51.499700 C 208.74200,51.220400 208.37000,51.180800 208.30300,51.286800 C 208.23700,51.393200 208.44900,51.779000 208.66200,51.925000 C 208.87500,52.071400 208.76900,52.350700 209.02100,52.509900 C 209.18700,52.614900 209.03400,52.975300 208.94100,53.187700 C 208.84800,53.400500 208.48900,53.334100 208.46300,53.174500 C 208.43600,53.015300 208.34300,52.908900 208.13100,53.148100 C 207.91800,53.387400 207.46600,53.321000 207.36000,53.254600 C 207.25300,53.187700 206.96100,53.068500 206.76100,53.134900 C 206.56200,53.201300 206.85400,53.307800 206.88100,53.400500 C 206.90700,53.493800 206.56200,53.533400 206.36300,53.533400 C 206.16300,53.533400 206.09700,53.666200 206.21700,53.693000 C 206.33600,53.719400 206.80100,53.746300 206.98800,53.639800 C 207.17400,53.533400 207.74500,53.639800 207.79800,53.839500 C 207.85100,54.038700 207.46600,54.118300 207.24000,54.092000 C 206.90500,54.052400 206.41600,54.264800 206.17600,54.331200 C 205.93700,54.397600 205.29900,54.224800 205.04700,54.304400 C 204.79400,54.383900 204.54500,54.070500 204.65200,53.951300 z "
           style="fill:#ffffff;stroke:none" />
        <path
           id="path74"
           d="M 209.12800,55.115400 C 208.88200,55.115400 209.16700,55.474300 208.92800,55.580700 C 208.68900,55.686700 208.76900,56.006000 208.98100,56.138800 C 209.19400,56.271600 209.67300,56.324900 209.97800,56.258500 C 210.28400,56.192100 210.35000,56.298500 210.15100,56.431300 C 209.95100,56.564100 210.45700,56.591000 210.41700,56.803400 C 210.37700,57.016300 210.60300,56.976200 210.81600,56.963000 C 211.02800,56.949900 211.30700,56.790200 211.54700,56.644200 C 211.78600,56.497700 211.95900,56.604200 211.73300,56.856600 C 211.50700,57.109000 210.74900,57.428400 210.15100,57.388300 C 209.55300,57.348300 209.23400,57.508000 209.36600,57.734000 C 209.50000,57.960100 210.13800,58.000200 210.47000,57.880000 C 210.80200,57.760400 210.74900,57.973300 210.49600,58.119300 C 210.24400,58.265800 209.88500,58.279000 209.57900,58.265800 C 209.27400,58.252600 209.00700,58.558300 209.40600,58.731100 C 209.80500,58.904000 210.33700,58.797500 210.53600,58.943500 C 210.73600,59.090000 211.34700,58.863900 211.36000,59.116400 C 211.37400,59.368800 211.18800,59.462100 210.82900,59.435700 C 210.47000,59.408900 210.57500,59.597800 210.84200,59.701300 C 211.08100,59.794600 211.50700,59.794600 211.73300,59.767700 C 211.95900,59.741400 211.89200,60.007000 211.66600,60.100300 C 211.44000,60.193000 210.70900,60.326300 210.35000,60.312700 C 209.99100,60.299500 210.16300,60.565600 210.63000,60.565600 C 212.05200,60.565600 212.53000,59.780900 212.88900,59.236000 C 213.06500,58.968900 213.40700,58.823900 213.48800,58.983600 C 213.56700,59.143200 213.58000,59.182800 213.42100,59.316100 C 213.26100,59.448900 213.30100,59.528500 213.59400,59.541700 C 213.88600,59.554800 214.31200,59.462100 214.56400,59.382500 C 214.81700,59.302400 215.56100,59.805800 214.94900,59.821000 C 213.87300,59.847800 212.54400,60.299500 212.10500,60.485500 C 211.66600,60.671500 210.93500,61.022100 210.48300,61.004100 C 210.15100,60.990900 210.01800,61.136900 210.15100,61.309700 C 210.28400,61.482600 210.70900,61.482600 210.94800,61.403000 C 211.18800,61.322900 211.24100,61.403000 211.08100,61.562200 C 210.92200,61.721800 210.52300,61.788200 210.24400,61.841500 C 209.96500,61.894700 209.82800,62.103200 210.04500,62.187200 C 210.45700,62.346800 210.08400,62.492800 210.37700,62.572400 C 210.66900,62.652500 210.35000,62.904900 210.66900,62.984500 C 210.98800,63.064600 211.17500,63.024600 211.41400,62.838500 C 211.65300,62.652500 211.78600,62.546100 212.03800,62.572400 C 212.29100,62.599300 212.46400,62.466000 212.61000,62.266800 C 212.75700,62.067500 213.24800,61.708700 213.40700,61.881500 C 213.56700,62.054400 213.90000,61.735000 213.96600,61.907900 C 214.03200,62.080700 214.31200,61.974300 214.37800,62.213500 C 214.45200,62.480100 214.76300,62.532900 214.97600,62.439600 C 215.18900,62.346800 215.36100,62.120800 215.36100,61.788200 C 215.36100,61.456200 215.44200,61.322900 215.52100,61.681800 C 215.60100,62.040700 215.89300,62.147100 216.04000,61.974300 C 216.18600,61.801400 216.23900,61.203300 216.13200,60.924500 C 216.02700,60.645200 216.01300,60.286300 216.11900,60.219900 C 216.22600,60.153500 216.47800,60.764800 216.58500,61.030400 C 216.69100,61.296500 216.97000,61.217000 216.98300,60.950800 C 216.99700,60.685200 217.24900,60.551900 217.43500,60.751600 C 217.62100,60.950800 217.51500,61.615400 217.56800,61.934700 C 217.62100,62.253600 218.14000,61.854700 218.19300,61.961100 C 218.24600,62.067500 218.44600,62.093900 218.52600,61.867800 C 218.60500,61.642200 218.79100,61.442500 218.89800,61.575400 C 219.00400,61.708700 219.16300,61.934700 219.23000,62.187200 C 219.29600,62.439600 219.53600,62.572400 219.68200,62.306800 C 219.82800,62.040700 219.93400,61.522600 219.88100,61.163200 C 219.82800,60.804800 219.92100,60.578800 220.05400,60.764800 C 220.18700,60.950800 220.17400,61.456200 220.18700,61.867800 C 220.20000,62.279900 220.63900,62.240400 220.63900,61.628600 C 220.63900,61.349800 220.77200,61.296500 220.81200,61.456200 C 220.85200,61.615400 220.85200,61.881500 220.89100,62.001100 C 220.99000,62.296100 221.33000,62.133900 221.37000,61.934700 C 221.41000,61.735000 221.34300,61.017200 221.26400,60.698400 C 221.18400,60.379100 221.34300,60.153500 221.47600,60.326300 C 221.60900,60.498700 221.63600,60.950800 221.66200,61.456200 C 221.68900,61.961100 221.96800,61.987500 222.11400,61.841500 C 222.26000,61.695000 222.26000,61.269700 222.19400,60.964000 C 222.12800,60.658400 222.34000,60.658400 222.43300,60.844400 C 222.52700,61.030400 222.68600,60.910800 222.65900,60.764800 C 222.63300,60.618800 222.76600,60.485500 222.89900,60.685200 C 223.03100,60.884400 222.99100,61.336600 222.92500,61.695000 C 222.85900,62.054400 223.25700,62.014300 223.44300,61.708700 C 223.63000,61.403000 223.53700,60.565600 223.37700,60.299500 C 223.21700,60.033900 223.23100,59.688100 223.32400,59.382500 C 223.41700,59.076800 223.59000,59.063100 223.60300,59.196400 C 223.61600,59.329300 223.69600,59.554800 223.84200,59.728200 C 223.98800,59.900500 224.06800,59.927400 224.09500,59.661300 C 224.12200,59.395700 224.25500,59.462100 224.30800,59.661300 C 224.36100,59.861000 224.45400,60.020200 224.58700,59.847800 C 224.72000,59.674500 224.89300,59.807800 224.78600,60.073400 C 224.68000,60.339500 224.68000,60.578800 224.75900,60.844400 C 224.83900,61.110500 225.11800,61.070500 225.14500,60.764800 C 225.20000,60.129100 225.27800,60.551900 225.34400,60.831200 C 225.41100,61.110500 225.61000,61.097300 225.65000,60.937700 C 225.69000,60.778000 225.73000,60.738400 225.73000,60.910800 C 225.73000,61.083700 225.79700,61.230100 225.96900,61.230100 C 226.14200,61.230100 226.10200,60.884400 226.18200,60.671500 C 226.26200,60.459100 226.40800,60.751600 226.60700,61.243300 C 226.80700,61.735000 226.95300,61.269700 227.41800,62.386400 C 227.60800,62.842000 227.88300,62.452800 227.87000,62.293600 C 227.85700,62.133900 227.89700,62.027500 228.12300,62.027500 C 228.34900,62.027500 228.53500,61.974300 228.45500,61.801400 C 228.37500,61.628600 228.42800,61.309700 228.41500,60.950800 C 228.40200,60.592000 228.44200,60.392700 228.48200,60.592000 C 228.52200,60.791200 228.65400,61.070500 228.86700,61.217000 C 229.08000,61.363000 229.22600,60.964000 229.05300,60.711600 C 228.88000,60.459100 228.64100,59.861000 228.65400,59.355600 C 228.66400,58.983600 228.81400,59.103200 228.81400,59.368800 C 228.81400,59.634900 228.94700,60.113400 229.14600,60.219900 C 229.34500,60.326300 229.42500,59.834100 229.33200,59.581700 C 229.23900,59.329300 229.18600,58.983600 229.38500,58.917200 C 229.58500,58.850700 229.33200,58.571400 229.15900,58.372200 C 228.98600,58.172500 228.88000,57.973300 229.18600,57.986500 C 229.49200,58.000200 229.23900,57.774100 229.09300,57.627600 C 228.94700,57.481600 228.69400,57.189100 229.09300,57.228700 C 229.49200,57.268700 229.35900,57.029500 229.19900,56.896600 C 229.04000,56.763800 228.94700,56.510900 229.22600,56.524600 C 229.50500,56.537800 229.67800,56.378100 229.65200,56.258500 C 229.54900,55.798000 228.88000,55.261400 228.46800,54.849300 C 228.05600,54.437700 227.39100,54.025500 227.03300,53.959100 C 226.67400,53.892200 226.66000,54.158400 226.75400,54.317500 C 226.84700,54.477200 227.03300,54.583700 227.05900,54.424000 C 227.08600,54.264800 227.36500,54.437700 227.49800,54.650100 C 227.63100,54.863000 228.08300,55.128600 228.36200,55.367800 C 228.64100,55.607100 227.99000,55.487500 227.67100,55.168600 C 227.48800,54.986000 227.51100,55.208200 227.75100,55.461100 C 227.99000,55.713500 227.68400,55.820000 227.43100,55.607100 C 227.17900,55.394700 226.52800,54.796500 226.11500,54.410800 C 225.70300,54.025500 225.63700,54.118300 225.62400,54.370800 C 225.61000,54.623700 225.75700,54.796500 226.02300,55.008900 C 226.28800,55.221800 226.62100,55.553900 226.87300,55.779900 C 227.12600,56.006000 226.91300,56.152000 226.75400,55.992300 C 226.59400,55.833200 226.04900,55.394700 225.73000,55.089000 C 225.41100,54.782900 225.11800,54.636900 224.91900,54.676900 C 224.72000,54.716500 224.73300,54.942500 224.97200,55.181800 C 225.21200,55.421100 225.50400,55.873200 225.50400,56.138800 C 225.50400,56.404900 225.29100,56.591000 225.18500,56.112500 C 225.07900,55.633900 224.57300,55.075400 224.20100,54.650100 C 223.82900,54.224800 223.45700,54.145200 223.17800,54.171500 C 222.89900,54.197900 222.91200,54.517200 222.91200,54.769700 C 222.91200,55.022100 222.72600,54.876100 222.71300,54.690100 C 222.69900,54.504100 222.48600,54.344400 222.36700,54.357600 C 222.24700,54.370800 222.28700,54.756500 222.24700,54.929400 C 222.20700,55.102200 222.02100,55.261400 222.02100,54.863000 C 222.02100,54.464000 221.58300,54.264800 221.39700,54.251100 C 221.21100,54.238000 221.03800,54.317500 221.13100,54.490400 C 221.22400,54.663200 221.18400,55.128600 221.11700,55.394700 C 221.05100,55.660300 220.85200,55.195000 220.81200,54.703300 C 220.77200,54.211600 220.14700,53.865900 219.70800,54.011900 C 219.27000,54.158400 219.60200,54.477200 219.52200,54.782900 C 219.44200,55.089000 219.32300,54.809700 219.28300,54.490400 C 219.24300,54.171500 219.03000,53.972300 218.73800,54.051900 C 218.44600,54.131500 218.24600,54.291200 218.25900,54.504100 C 218.27300,54.716500 218.27300,54.902500 218.20600,55.248200 C 218.14000,55.593900 218.02000,55.421100 218.03300,55.195000 C 218.04700,54.968900 217.98000,54.596800 217.91400,54.383900 C 217.84700,54.171500 217.74100,54.370800 217.76800,54.636900 C 217.79400,54.902500 217.72800,55.514300 217.62100,55.886400 C 217.51500,56.258500 217.35600,56.271600 217.43500,55.766800 C 217.51500,55.261400 217.31600,54.517200 217.11600,54.171500 C 216.97300,53.924500 216.65100,53.839500 216.65100,54.184700 C 216.65100,54.530400 216.74400,54.782900 216.98300,55.035800 C 217.22300,55.288200 217.03600,55.913200 216.79700,56.245300 C 216.55800,56.577300 216.57200,56.099300 216.65100,55.739900 C 216.73100,55.381000 216.29200,55.261400 216.11900,55.195000 C 215.94700,55.128600 216.30500,54.769700 216.38500,54.291200 C 216.42500,54.054800 216.37200,53.905900 216.21200,53.892200 C 216.05300,53.879100 215.62800,54.331200 215.44200,54.663200 C 215.49400,54.317500 215.44200,54.011900 215.28200,54.011900 C 215.12200,54.011900 214.94900,54.344400 214.83000,54.583700 C 214.71000,54.822900 214.59000,54.690100 214.71000,54.437700 C 214.83000,54.184700 215.01600,53.507000 214.77700,53.360500 C 214.53700,53.214500 214.32500,53.812700 214.07200,53.706200 C 213.92900,53.646200 214.12500,53.267700 214.20500,53.094900 C 214.28500,52.922000 214.12500,52.789200 213.76600,53.108100 C 213.40700,53.427400 213.24800,53.945500 213.15500,54.264800 C 213.06200,54.583700 212.42400,55.102200 212.07800,55.381000 C 211.73300,55.660300 211.58700,55.553900 211.75900,55.434200 C 211.93200,55.314600 212.27800,54.942500 212.45000,54.796500 C 212.62300,54.650100 212.54400,54.563600 212.21100,54.816100 C 211.87900,55.069000 211.27400,55.527500 210.65600,55.686700 C 210.29300,55.780900 210.24400,55.700400 210.60300,55.580700 C 210.96200,55.461100 211.78600,54.889300 211.98500,54.623700 C 212.11000,54.457200 211.78600,54.596800 211.62600,54.636900 C 211.46700,54.676900 211.33400,54.623700 211.65300,54.490400 C 211.97200,54.357600 212.98200,53.307800 213.19500,52.922000 C 213.40700,52.536800 213.22100,52.390300 213.08900,52.403500 C 212.95600,52.417200 212.77000,52.509900 212.81000,52.350700 C 212.84900,52.191100 212.75700,51.978200 212.58300,52.044600 C 212.41100,52.111000 212.42400,52.496700 212.35800,52.709100 C 212.29100,52.922000 211.91900,53.201300 211.67900,53.201300 C 211.44000,53.201300 211.10800,53.254600 210.85600,53.453800 C 210.60300,53.653000 210.48300,53.467000 210.60300,53.307800 C 210.72200,53.148100 210.98800,53.108100 211.25400,53.094900 C 211.52000,53.081700 211.81300,53.041700 212.03800,52.789200 C 212.26400,52.536800 212.27800,52.337100 212.10500,52.323900 C 211.93200,52.310700 211.64000,52.084600 211.54700,51.991400 C 211.07400,51.519200 210.20900,52.177400 209.87200,52.563100 C 209.68600,52.775500 209.04800,53.387400 208.84800,53.547000 C 208.64900,53.706200 208.72900,53.932300 209.06100,53.626600 C 209.39300,53.321000 209.50000,53.533400 209.19400,53.759400 C 208.88800,53.985500 208.66200,54.317500 208.76900,54.437700 C 208.87500,54.557300 209.28700,54.410800 209.51300,54.264800 C 209.73900,54.118300 209.84500,54.477200 209.28700,54.596800 C 208.91200,54.677400 208.78100,54.832200 209.07400,54.849300 C 209.30000,54.863000 209.64600,54.756500 209.96500,54.570500 C 210.28400,54.383900 210.53600,54.490400 210.27100,54.676900 C 210.00500,54.863000 209.42000,55.115400 209.12800,55.115400 z "
           style="fill:#ffffff;stroke:none" />
      </g>
      <path
         style="fill:#d9d9d9;fill-opacity:1.0000000;stroke:none"
         d="M 629.28894,154.92287 C 630.24594,153.81257 631.08294,153.32777 631.95894,154.12607 C 632.75394,154.84817 632.83794,155.16317 631.84194,154.92287 C 630.84294,154.68407 630.16494,154.92287 629.56794,155.64077 C 628.96794,156.35987 628.29294,156.08027 629.28894,154.92287 z "
         id="path78" />
      <path
         style="fill:#000000;fill-opacity:1.0000000;stroke:none"
         d="M 616.81229,154.35656 C 617.24429,154.28936 618.08729,153.71816 618.60629,153.03986 C 619.12529,152.36306 620.24129,152.12276 620.91929,152.92106 C 621.59729,153.71816 621.95429,153.99776 622.31429,154.15736 C 622.67429,154.31726 622.67429,154.83566 622.11629,154.99376 C 621.55829,155.15366 620.79929,155.27366 620.40029,155.07446 C 620.00129,154.87526 619.40429,154.71566 618.92429,154.83566 C 618.44729,154.95446 618.24929,154.71566 618.64529,154.51646 C 619.04429,154.31726 619.52429,153.71816 619.76129,153.47936 C 620.00129,153.24056 620.64029,153.43976 620.28029,153.67856 C 619.92329,153.91856 620.08229,154.43576 620.43929,154.63496 C 620.79929,154.83566 621.51629,154.83566 621.83729,154.47686 C 621.35729,153.95816 620.56229,153.28016 620.24129,153.08066 C 619.92329,152.88146 619.64429,152.80106 619.24529,153.28016 C 618.84629,153.75896 617.88929,154.91486 616.97129,154.87526 C 616.05329,154.83566 616.29329,154.43576 616.81229,154.35656 z "
         id="path82" />
      <g
         style="fill:#c7d9ba;fill-opacity:1.0000000"
         id="g2819">
        <path
           id="path80"
           d="M 612.34529,157.54706 C 613.06529,156.74876 614.22029,156.74876 614.73929,155.87126 C 615.25529,154.99376 615.81629,155.31326 615.17729,156.15116 C 614.53829,156.98906 613.30229,157.14866 612.78329,157.74626 C 612.26429,158.34386 611.98529,157.94546 612.34529,157.54706 z "
           style="fill:#c7d9ba;fill-opacity:1.0000000;stroke:none" />
        <path
           id="path84"
           d="M 642.01529,161.95346 C 641.66129,162.50276 641.33729,163.21016 641.29829,163.76816 C 641.25629,164.32646 641.71529,164.70566 641.77529,164.00696 C 641.83529,163.30976 641.89529,162.89096 642.39329,162.37226 C 642.89129,161.85386 642.41429,161.33516 642.01529,161.95346 z "
           style="fill:#c7d9ba;fill-opacity:1.0000000;stroke:none" />
        <path
           id="path86"
           d="M 637.12829,161.89316 C 637.54529,161.70566 638.24429,161.27516 638.58629,160.87676 C 638.92529,160.47836 639.14429,160.73756 638.80529,161.17556 C 638.46629,161.61506 637.68929,162.13346 637.32929,162.25226 C 636.96929,162.37226 636.69029,162.09266 637.12829,161.89316 z "
           style="fill:#c7d9ba;fill-opacity:1.0000000;stroke:none" />
        <path
           id="path88"
           d="M 637.74929,164.28536 C 637.17629,165.08816 634.91729,166.99826 634.23929,167.35706 C 633.56129,167.71616 633.80129,168.23456 634.55729,167.95496 C 633.99929,168.47336 632.76329,169.31126 631.96529,169.55006 C 631.16729,169.78886 631.00829,170.50646 632.20529,170.06846 C 633.40229,169.63046 635.07629,168.47336 635.51429,167.95496 C 635.95229,167.43626 635.39429,167.19746 636.07229,166.63946 C 636.75029,166.08116 638.00429,165.06176 638.18729,164.64416 C 638.46629,164.00696 638.14529,163.72736 637.74929,164.28536 z "
           style="fill:#c7d9ba;fill-opacity:1.0000000;stroke:none" />
        <path
           id="path90"
           d="M 635.27429,170.78636 C 636.13229,170.30156 637.72529,168.58166 638.18729,167.59586 C 638.46629,166.99826 639.02429,167.07746 638.58629,167.99426 C 638.14529,168.91136 636.51029,170.54756 635.95229,170.98556 C 635.39429,171.42356 634.35929,171.30506 635.27429,170.78636 z "
           style="fill:#c7d9ba;fill-opacity:1.0000000;stroke:none" />
        <path
           id="path92"
           d="M 653.42129,161.33516 C 653.18729,161.89616 653.13929,163.21016 653.22029,163.84736 C 653.30129,164.48606 653.77829,164.96366 653.69729,164.00696 C 653.61929,163.05056 653.61929,162.09266 653.89829,161.81426 C 654.17729,161.53436 653.81729,160.37876 653.42129,161.33516 z "
           style="fill:#c7d9ba;fill-opacity:1.0000000;stroke:none" />
        <path
           id="path94"
           d="M 658.28429,163.68776 C 658.68929,164.12126 658.88129,166.16036 658.84229,166.91786 C 658.80329,167.67656 659.48129,167.67656 659.43929,166.59836 C 659.40029,165.52316 659.32229,164.16686 658.96229,163.44896 C 658.60529,162.73106 657.72629,163.09016 658.28429,163.68776 z "
           style="fill:#c7d9ba;fill-opacity:1.0000000;stroke:none" />
        <path
           id="path96"
           d="M 662.55329,165.00476 C 662.79929,165.52466 663.11129,166.51916 663.11129,167.23706 C 663.11129,167.95496 663.62729,167.63546 663.66929,166.79906 C 663.70829,165.96116 663.58829,165.24326 663.30929,164.68526 C 663.03029,164.12726 662.19329,164.24576 662.55329,165.00476 z "
           style="fill:#c7d9ba;fill-opacity:1.0000000;stroke:none" />
        <path
           id="path98"
           d="M 665.18429,164.32646 C 664.96829,163.71416 664.62629,163.16906 664.38629,163.24976 C 664.14629,163.32896 664.30829,163.88696 664.62629,164.48606 C 664.94429,165.08366 665.42429,165.00476 665.18429,164.32646 z "
           style="fill:#c7d9ba;fill-opacity:1.0000000;stroke:none" />
        <path
           id="path100"
           d="M 648.51329,168.83216 C 648.39629,170.50226 647.63729,171.98306 646.71929,172.50176 C 645.80429,173.02016 645.96329,173.85656 647.07929,173.02016 C 648.19529,172.18226 649.03229,170.74676 649.27229,169.47086 C 649.51229,168.19346 648.59429,167.71616 648.51329,168.83216 z "
           style="fill:#c7d9ba;fill-opacity:1.0000000;stroke:none" />
        <path
           id="path102"
           d="M 646.52129,168.07496 C 646.04429,168.63296 645.76229,169.82996 645.76229,170.74676 C 645.76229,171.66386 646.08329,170.98556 646.16129,170.46716 C 646.24229,169.94846 646.40129,169.23056 646.80029,168.99206 C 647.19929,168.75176 646.99829,167.51696 646.52129,168.07496 z "
           style="fill:#c7d9ba;fill-opacity:1.0000000;stroke:none" />
        <path
           id="path104"
           d="M 681.05729,169.23056 C 681.47729,170.03786 682.09229,171.34436 682.29329,172.10186 C 682.49129,172.86056 682.01129,173.05976 681.85229,172.38146 C 681.69329,171.70346 680.93729,170.18876 680.65529,169.67006 C 680.37629,169.15166 680.57729,168.31376 681.05729,169.23056 z "
           style="fill:#c7d9ba;fill-opacity:1.0000000;stroke:none" />
      </g>
      <path
         style="fill:#009c32;fill-opacity:1.0000000;stroke:#000000;stroke-width:0.37500000"
         d="M 685.67429,205.52216 C 688.79729,205.62776 692.74229,204.39296 694.79429,202.43876 C 693.53729,201.91856 691.99529,201.68126 690.46529,201.71066 C 691.20629,200.96366 691.81529,200.14316 692.22029,199.33916 C 691.27229,199.29086 690.24929,199.44746 689.22629,199.71836 C 689.46329,198.94796 689.61629,198.20816 689.64329,197.50076 C 688.78229,197.84066 687.92729,198.37076 687.12329,199.01966 C 687.23729,198.19496 687.25829,197.39666 687.16529,196.67456 C 686.15429,197.28836 685.20329,198.18776 684.39029,199.24256 C 684.42029,198.46316 684.36929,197.69396 684.21929,197.02316 C 683.48129,197.56526 682.78829,198.28436 682.18229,199.10606 C 681.99629,198.00746 681.67829,196.97936 681.22529,196.14416 C 679.98329,197.74526 679.19129,200.40686 678.99929,202.58816 C 679.01729,201.86306 678.94829,201.15266 678.85529,200.43476 C 679.43729,199.04906 679.79729,197.69696 679.89929,196.48556 C 679.31729,196.79306 678.76529,197.16956 678.19529,197.62526 C 677.85929,196.68326 677.45129,195.81026 676.92329,195.08966 C 676.31729,196.14566 675.92729,197.45396 675.73229,198.81026 C 675.63329,197.55206 675.37229,196.36256 674.92829,195.39866 C 673.70129,196.79186 672.80129,198.86876 672.41129,200.86976 C 672.69029,199.02866 672.69029,197.25476 672.36329,195.90986 C 671.55329,196.76096 670.73729,197.98106 670.00229,199.32296 C 669.64529,198.25226 669.21329,197.29406 668.69429,196.50596 C 668.05529,197.95046 667.70729,199.79606 667.61429,201.65216 C 667.41629,199.64246 666.97229,197.72636 666.27329,196.33316 C 665.28029,197.98856 664.66229,200.44796 664.45529,202.83116 C 664.21829,202.19396 663.94229,201.54356 663.65429,200.92706 C 664.05029,199.45616 664.21829,198.00476 664.05629,196.81376 C 663.44429,197.19026 662.82329,197.72186 662.25929,198.32096 C 661.65029,197.37476 660.97829,196.57946 660.31829,195.98906 C 660.10229,197.34536 660.18329,199.01816 660.48629,200.71766 C 660.27329,201.06896 660.06629,201.39296 659.88329,201.75026 C 659.67029,199.66286 659.17529,197.65166 658.39529,196.19696 C 657.59129,197.64716 657.06629,199.56176 656.82329,201.49376 C 656.72729,199.69646 656.37929,197.98556 655.85129,196.81076 C 655.23629,197.68676 654.76829,198.77966 654.44729,199.93526 C 654.60029,198.35606 654.49529,196.80926 654.07829,195.56426 C 653.36729,196.21316 652.71929,197.05256 652.18829,197.98856 C 652.21229,197.03786 652.11629,196.12976 651.90029,195.33716 C 650.88629,196.16036 649.99829,197.35706 649.30529,198.65636 C 649.03529,197.52416 648.63929,196.48856 648.10529,195.65786 C 647.43029,196.68176 646.95329,198.00476 646.67429,199.35806 C 646.71629,198.67856 646.69529,198.04706 646.59629,197.44796 C 645.67229,198.05456 644.81429,198.93626 644.07629,199.93076 C 644.11529,198.58916 643.97129,197.30876 643.59329,196.24976 C 642.40229,197.38046 641.44829,199.07846 640.84829,200.81126 C 640.82129,199.42706 640.60229,198.11006 640.15229,197.04356 C 639.03029,198.23456 638.16329,199.97936 637.66229,201.73706 C 637.41629,200.50076 637.00529,199.36256 636.45029,198.45716 C 635.53829,199.78016 634.79129,201.54656 634.55129,203.32796 C 634.98929,201.62726 634.95329,199.85336 634.67129,198.43826 C 634.18229,198.78536 633.71429,199.21466 633.27329,199.69496 C 632.96429,199.04306 632.61029,198.45866 632.20529,197.96366 C 631.70129,198.95546 631.37429,200.16386 631.22429,201.40466 C 631.11329,199.95446 630.78029,198.58916 630.23429,197.50946 C 629.46029,198.45566 628.86329,199.67906 628.44929,200.99156 C 628.12829,199.34786 627.55529,197.78786 626.74229,196.66856 C 626.19029,197.62226 625.80029,198.79556 625.58129,200.01446 C 625.28429,198.30776 624.70229,196.70096 623.87729,195.53786 C 623.27129,196.55456 622.88129,197.81426 622.65929,199.12676 C 621.98429,197.66906 621.11429,196.36106 620.11229,195.49106 C 619.68029,196.90316 619.63829,198.61706 619.87229,200.26046 C 618.80129,198.32696 617.31029,196.57646 615.74429,195.65786 C 615.62429,196.71836 615.73829,197.87876 616.00529,199.04456 C 615.01229,198.42356 613.98929,197.94446 613.02029,197.72786 C 613.60229,200.63846 616.14929,203.88896 618.42629,205.19396 C 627.93929,209.46836 680.72129,211.30556 685.67429,205.52216 z "
         id="path106" />
      <path
         id="path110"
         d="M 648.69929,247.11356 C 650.93429,247.11356 654.03029,247.66286 657.97829,249.50546 C 662.76329,251.73956 671.53829,250.30256 674.72729,248.06996 C 677.91929,245.83616 685.85129,245.03936 690.34829,249.04556 C 692.99429,244.65686 695.10029,240.03686 696.68129,235.30406 C 691.75229,233.55506 682.70429,229.88546 676.48229,233.39516 C 670.26029,236.90516 661.80629,237.86156 659.57429,236.58566 C 657.34229,235.30976 653.16629,232.11806 648.69929,232.11806 C 644.23529,232.11806 640.06229,235.30976 637.82729,236.58566 C 635.59529,237.86156 627.14129,236.90516 620.91929,233.39516 C 614.69729,229.88546 605.60729,233.55506 600.67529,235.30406 C 602.25929,240.03686 604.36529,244.65686 607.01129,249.04556 C 611.50829,245.03936 619.48529,245.83616 622.67429,248.06996 C 625.86329,250.30256 634.63829,251.73956 639.42329,249.50546 C 643.37129,247.66286 646.46729,247.11356 648.69929,247.11356 z "
         style="fill:#ffffff;stroke:#ffffff;stroke-width:0.37500000;stroke-opacity:1.0000000" />
      <path
         id="path112"
         d="M 648.69929,217.92206 C 652.84829,217.92206 655.58729,219.19796 657.34229,220.15586 C 662.24129,222.82796 671.37629,220.47386 675.52529,217.28486 C 679.67429,214.09436 683.82029,215.05106 689.88029,218.87876 C 693.02729,220.86656 696.69929,222.56276 699.67829,222.56276 C 700.14029,219.25376 700.37129,215.94026 700.37129,212.65886 L 700.37129,209.14916 C 696.06329,209.14916 693.23129,208.35086 689.24429,205.32146 C 685.25429,202.28936 677.59829,199.89716 672.01529,204.04406 C 666.43229,208.19276 659.58929,206.57246 656.38229,204.52316 C 653.51129,202.68926 650.45429,201.33266 648.69929,201.33266 C 646.94429,201.33266 643.88729,202.68926 641.01629,204.52316 C 637.81229,206.57246 630.96929,208.19276 625.38629,204.04406 C 619.80329,199.89716 612.14729,202.28936 608.15729,205.32146 C 604.17029,208.35086 601.29929,209.14916 596.99129,209.14916 L 596.99129,212.65886 C 596.99129,215.94026 597.21929,219.25376 597.68129,222.56276 C 600.66029,222.56276 604.37429,220.86656 607.52129,218.87876 C 613.58129,215.05106 617.73029,214.09436 621.87629,217.28486 C 626.02229,220.47386 635.16029,222.82796 640.06229,220.15586 C 641.81429,219.19796 644.55329,217.92206 648.69929,217.92206 z "
         style="fill:#ffffff;stroke:#fffffe;stroke-width:0.37500000;stroke-opacity:1.0000000" />
      <path
         style="fill:#db9b68;fill-opacity:1.0000000;stroke:#000000;stroke-width:0.37500000"
         d="M 614.86529,243.65066 C 615.37829,245.57846 614.22029,245.88446 613.71029,243.95816 L 611.08829,234.09116 C 610.57529,232.16486 611.73329,231.85706 612.24629,233.78486 L 614.86529,243.65066 z "
         id="path120" />
      <path
         style="fill:#db9b68;fill-opacity:1.0000000;stroke:#000000;stroke-width:0.37500000"
         d="M 618.84929,241.69226 C 614.77829,240.25376 609.67529,238.38026 604.76729,236.62526 C 603.45629,236.15636 602.90729,236.60606 604.45829,237.24326 C 610.23329,239.61656 613.18229,240.85136 617.97629,242.72786"
         id="path122" />
      <path
         style="fill:#ffef7c;stroke:#000000;stroke-width:0.37500000"
         d="M 632.40329,247.59116 C 632.40329,232.59686 632.60429,214.13396 632.60429,211.18226 C 632.60429,208.81676 631.50929,208.41806 631.48829,211.18226 C 631.40729,221.23106 631.04729,235.62776 630.80729,246.55556"
         id="path124" />
      <path
         style="fill:#ffef7c;stroke:#000000;stroke-width:0.37500000"
         d="M 649.95029,257.16236 C 649.95029,242.16806 650.14829,209.34836 650.14829,206.39816 C 650.14829,204.03086 649.05329,203.63246 649.03229,206.39816 C 648.95429,216.44696 648.59429,245.19896 648.35429,256.12526"
         id="path126" />
      <path
         style="fill:#ffef7c;stroke:#000000;stroke-width:0.37500000"
         d="M 666.81029,253.17956 C 667.04429,238.18676 667.47329,213.20666 667.51829,210.25646 C 667.55729,207.89096 666.46829,207.47486 666.40229,210.23906 C 666.16829,220.28486 665.59229,242.09336 665.18429,253.01546"
         id="path128" />
      <path
         style="fill:#ffef7c;stroke:#000000;stroke-width:0.37500000"
         d="M 680.62829,238.41806 C 680.68229,234.16136 680.72129,230.99006 680.73329,230.14196 C 680.74529,229.04606 680.09729,228.72836 680.07329,230.12876 C 680.03429,232.34636 679.97729,235.29506 679.91429,238.57796"
         id="path130" />
      <path
         style="fill:#db9b68;fill-opacity:1.0000000;stroke:#000000;stroke-width:0.37500000"
         d="M 625.44029,247.05626 C 627.27329,269.70866 670.20929,274.58966 680.09729,246.19646 L 670.20929,246.15566 C 661.91429,260.03336 640.85729,257.32196 632.40329,247.59116 C 632.40329,246.79406 632.24129,246.24326 630.80729,245.75696 C 626.46329,244.28186 623.03429,242.96516 619.28429,241.56896 C 617.76929,241.00646 616.41329,243.68426 618.72629,244.60136 C 618.40829,245.71766 619.60229,247.07246 621.12029,246.59486 C 621.75629,247.07246 622.79429,246.87326 623.27129,246.23606 C 623.95529,246.44846 624.68129,246.82796 625.44029,247.05626 z "
         id="path132" />
      <path
         style="fill:#db9b68;fill-opacity:1.0000000;stroke:#000000;stroke-width:0.37500000"
         d="M 670.84529,246.63446 L 685.68329,246.15566 C 687.67529,246.15566 687.47729,243.96266 686.12129,243.96266 C 686.99729,241.33046 687.55529,239.29706 687.91529,238.13996 C 688.95029,237.74156 689.11229,236.14616 686.95829,236.58566 L 671.64329,239.53586 C 670.52729,239.81576 670.44629,240.69296 671.16629,241.13096 C 670.96529,242.16806 670.56629,244.20146 670.40729,244.91906 C 669.33029,245.19896 669.33029,246.71366 670.84529,246.63446 z "
         id="path134" />
      <g
         style="fill:#fbeb86;fill-opacity:1.0000000"
         transform="matrix(3.000000,0.000000,0.000000,3.000000,-3.272712,-3.133542)"
         id="g136">
        <path
           id="path138"
           d="M 209.95100,73.711600 L 213.88600,72.462100 C 213.88600,73.179800 213.11500,73.698400 212.55700,73.525500 C 212.37100,74.057300 211.77300,74.310200 211.13400,73.844900 C 210.88200,73.977700 210.23100,74.004100 209.95100,73.711600 z "
           style="fill:#fbeb86;fill-opacity:1.0000000;stroke:#000000;stroke-width:0.12500000" />
        <path
           id="path140"
           d="M 214.47100,73.977700 L 209.26000,75.572900 C 208.88800,76.689600 208.96800,77.992300 209.71200,78.710100 C 210.51000,77.380500 212.34400,77.088000 213.80600,77.699400 C 213.00900,76.795600 213.67400,75.067500 214.47100,73.977700 z "
           style="fill:#fbeb86;fill-opacity:1.0000000;stroke:#000000;stroke-width:0.12500000" />
        <path
           id="path142"
           d="M 214.44500,77.726200 L 209.15400,79.135400 C 209.44700,79.587100 210.35000,79.826300 210.72200,79.587100 C 211.62600,80.278500 212.79600,79.693500 213.07500,79.015800 C 213.80600,79.082200 214.41800,78.510400 214.44500,77.726200 z "
           style="fill:#fbeb86;fill-opacity:1.0000000;stroke:#000000;stroke-width:0.12500000" />
        <path
           id="path144"
           d="M 219.76100,71.013300 L 215.30800,72.382500 C 215.76000,72.874200 216.49100,72.980600 216.89000,72.701800 C 217.42200,73.219900 218.11300,72.954300 218.36600,72.422500 C 219.23000,72.529000 219.76100,71.784300 219.76100,71.013300 z "
           style="fill:#fbeb86;fill-opacity:1.0000000;stroke:#000000;stroke-width:0.12500000" />
        <path
           id="path3712"
           d="M 220.50600,72.781400 L 215.45500,74.137400 C 215.02900,75.626100 214.89700,77.407400 215.77400,78.470400 C 216.33200,77.221400 218.32600,76.662800 219.94700,77.753100 C 218.59200,76.716000 219.15000,74.669100 220.50600,72.781400 z "
           style="fill:#fbeb86;fill-opacity:1.0000000;stroke:#000000;stroke-width:0.12500000" />
        <path
           id="path148"
           d="M 219.94700,77.992300 L 215.33500,78.789700 C 215.49400,79.281400 216.17300,79.347800 216.46500,79.122200 C 217.07600,79.813100 218.02000,79.773100 218.51200,79.042200 C 219.00400,79.255000 219.72200,78.896200 219.94700,77.992300 z "
           style="fill:#fbeb86;fill-opacity:1.0000000;stroke:#000000;stroke-width:0.12500000" />
        <path
           id="path3715"
           d="M 225.34400,71.890800 L 221.27700,73.140300 C 221.57000,73.472800 222.11400,73.605600 222.47300,73.353200 C 223.04500,73.685200 223.97500,73.353200 224.21400,72.807800 C 224.74600,72.914200 225.30500,72.382500 225.34400,71.890800 z "
           style="fill:#fbeb86;fill-opacity:1.0000000;stroke:#000000;stroke-width:0.12500000" />
        <path
           id="path152"
           d="M 225.58400,73.446000 L 221.06400,74.535800 C 220.34600,75.918600 220.16000,77.939100 220.85200,79.029000 C 221.83500,77.487000 224.38700,77.221400 225.50400,78.045100 C 224.86600,77.035300 224.52000,74.669100 225.58400,73.446000 z "
           style="fill:#fbeb86;fill-opacity:1.0000000;stroke:#000000;stroke-width:0.12500000" />
        <path
           id="path154"
           d="M 225.53000,78.258000 L 220.32000,79.188600 C 220.63900,79.906400 221.57000,79.932800 221.98200,79.680300 C 222.79200,80.158900 223.74900,80.052400 224.13500,79.281400 C 224.80000,79.414700 225.46400,79.122200 225.53000,78.258000 z "
           style="fill:#fbeb86;fill-opacity:1.0000000;stroke:#000000;stroke-width:0.12500000" />
      </g>
      <path
         style="fill:#d31629;fill-opacity:1.0000000;stroke:#000000;stroke-width:0.37500000"
         d="M 631.48829,210.86456 C 629.37329,212.21936 625.70429,210.58466 624.90629,214.53236 C 626.82029,213.25646 630.60929,214.79186 631.44629,214.23356 C 631.46729,213.03686 631.46729,211.50176 631.48829,210.86456 z "
         id="path158" />
      <path
         style="fill:#d31629;fill-opacity:1.0000000;stroke:#000000;stroke-width:0.37500000"
         d="M 649.03229,206.07896 C 646.92029,207.43376 643.25129,205.79906 642.45329,209.74676 C 644.36729,208.47086 648.15629,210.00596 648.99329,209.44796 C 649.01129,208.25126 649.01129,206.71616 649.03229,206.07896 z "
         id="path160" />
      <path
         style="fill:#d31629;fill-opacity:1.0000000;stroke:#000000;stroke-width:0.37500000"
         d="M 666.40829,209.91956 C 664.27229,211.24256 660.63029,209.55056 659.77229,213.48656 C 661.70429,212.24006 665.46929,213.83366 666.31529,213.28886 C 666.35429,212.09336 666.37829,210.55676 666.40829,209.91956 z "
         id="path162" />
      <path
         style="fill:#ffffff;stroke:#000000;stroke-width:0.37500000"
         d="M 680.07629,229.87826 C 678.40229,230.91536 675.54629,229.58816 674.87129,232.67456 C 676.38929,231.69746 679.34129,232.94846 680.00429,232.51916 C 680.03429,231.58166 680.05229,230.37776 680.07629,229.87826 z "
         id="path164" />
      <g
         transform="matrix(3.000000,0.000000,0.000000,3.000000,-3.272712,-3.133542)"
         id="g166">
        <path
           id="path168"
           d="M 225.23800,81.680800 L 225.23800,82.591500 L 225.78300,82.525100 L 225.78300,81.574400 L 225.23800,81.680800 z "
           style="fill:#000000;stroke:none" />
        <path
           id="path170"
           d="M 226.17500,81.494800 L 226.17500,82.478700 L 226.71400,82.405400 L 226.71400,81.388300 L 226.17500,81.494800 z "
           style="fill:#000000;stroke:none" />
        <path
           id="path172"
           d="M 227.10600,81.315100 L 227.10600,82.358600 L 227.65100,82.292200 L 227.65100,81.209100 L 227.10600,81.315100 z "
           style="fill:#000000;stroke:none" />
        <path
           id="path174"
           d="M 228.04300,81.135900 L 228.04300,82.239400 L 228.58800,82.173000 L 228.58800,81.023100 L 228.04300,81.135900 z "
           style="fill:#000000;stroke:none" />
        <path
           id="path176"
           d="M 228.98000,80.943000 L 228.98000,82.119800 L 229.51800,82.052900 L 229.51800,80.843400 L 228.98000,80.943000 z "
           style="fill:#000000;stroke:none" />
      </g>
      <g
         transform="matrix(3.000000,0.000000,0.000000,3.000000,-3.272712,-3.133542)"
         id="g178">
        <path
           id="path180"
           d="M 209.57100,83.396600 C 210.32400,83.654900 210.44300,83.707700 211.08100,83.933800 C 211.04200,84.439100 211.97200,85.302900 212.95600,85.728700"
           style="fill:none;stroke:#000000;stroke-width:0.12500000" />
        <path
           id="path182"
           d="M 225.34400,84.478700 C 222.95200,88.520200 214.81700,90.527000 209.92500,83.561700 C 213.06200,91.058800 222.68600,90.221400 226.30100,84.904500"
           style="fill:none;stroke:#000000;stroke-width:0.12500000" />
        <path
           id="path184"
           d="M 224.70600,83.256000 C 224.75900,83.973800 225.23800,84.638300 226.43500,84.930800"
           style="fill:none;stroke:#000000;stroke-width:0.12500000" />
        <path
           id="path186"
           d="M 224.83900,83.841000 C 224.57900,84.191100 224.26400,84.529500 223.92600,84.842000"
           style="fill:none;stroke:#000000;stroke-width:0.12500000" />
        <path
           id="path188"
           d="M 223.41300,85.284800 C 222.89500,85.701800 222.36300,86.049500 221.91500,86.286800"
           style="fill:none;stroke:#000000;stroke-width:0.12500000" />
        <path
           id="path190"
           d="M 207.33300,82.578300 C 207.54600,82.664700 207.84400,82.385400 207.71200,82.113000"
           style="fill:none;stroke:#000000;stroke-width:0.12500000" />
        <path
           id="path192"
           d="M 208.13100,83.242800 C 208.31700,83.196400 208.44900,82.817500 208.25700,82.624700"
           style="fill:none;stroke:#000000;stroke-width:0.12500000" />
        <path
           id="path194"
           d="M 208.84800,83.123200 C 208.94800,83.016800 208.98100,82.624700 208.74900,82.551400"
           style="fill:none;stroke:#000000;stroke-width:0.12500000" />
        <path
           id="path196"
           d="M 218.43200,86.560700 C 218.04500,86.560700 218.04500,87.137400 218.43200,87.137400 C 218.82000,87.137400 218.82500,86.560700 218.43200,86.560700 z "
           style="fill:none;stroke:#000000;stroke-width:0.12500000" />
        <path
           id="path198"
           d="M 221.64900,86.082200 C 221.26200,86.082200 221.26200,86.658900 221.64900,86.658900 C 222.03600,86.658900 222.04200,86.082200 221.64900,86.082200 z "
           style="fill:none;stroke:#000000;stroke-width:0.12500000" />
        <path
           id="path200"
           d="M 223.69600,84.806300 C 223.30900,84.806300 223.30900,85.383000 223.69600,85.383000 C 224.08300,85.383000 224.08900,84.806300 223.69600,84.806300 z "
           style="fill:none;stroke:#000000;stroke-width:0.12500000" />
        <path
           id="path202"
           d="M 215.08300,86.002600 C 214.69600,86.002600 214.69600,86.579300 215.08300,86.579300 C 215.46900,86.579300 215.47500,86.002600 215.08300,86.002600 z "
           style="fill:none;stroke:#000000;stroke-width:0.12500000" />
        <path
           id="path204"
           d="M 212.50400,84.726200 C 212.11600,84.726200 212.11600,85.302900 212.50400,85.302900 C 212.89100,85.302900 212.89600,84.726200 212.50400,84.726200 z "
           style="fill:none;stroke:#000000;stroke-width:0.12500000" />
      </g>
      <g
         transform="matrix(3.000000,0.000000,0.000000,3.000000,-3.272712,-3.133542)"
         id="g206">
        <path
           id="path208"
           d="M 202.96000,80.012900 L 209.97800,73.711600 L 210.03100,75.306800"
           style="fill:none;stroke:#000000;stroke-width:0.031199999" />
        <path
           id="path210"
           d="M 204.90100,80.703800 L 211.70600,74.801900"
           style="fill:none;stroke:#000000;stroke-width:0.031199999" />
        <path
           id="path212"
           d="M 204.92700,78.576800 L 208.88800,82.086100"
           style="fill:none;stroke:#000000;stroke-width:0.031199999" />
        <path
           id="path214"
           d="M 202.96000,80.278500 L 205.99000,82.803900 L 207.34600,82.777500"
           style="fill:none;stroke:#000000;stroke-width:0.031199999" />
        <path
           id="path216"
           d="M 209.18000,79.161800 L 210.93500,82.830700"
           style="fill:none;stroke:#000000;stroke-width:0.031199999" />
        <path
           id="path218"
           d="M 210.66900,79.613900 L 209.87200,82.431800"
           style="fill:none;stroke:#000000;stroke-width:0.031199999" />
        <path
           id="path220"
           d="M 210.96800,79.733600 L 210.43000,82.631500"
           style="fill:none;stroke:#000000;stroke-width:0.031199999" />
        <path
           id="path222"
           d="M 211.26800,79.853200 L 210.98800,82.830700"
           style="fill:none;stroke:#000000;stroke-width:0.031199999" />
        <path
           id="path224"
           d="M 212.13200,79.826300 L 212.63700,84.299500"
           style="fill:none;stroke:#000000;stroke-width:0.031199999" />
        <path
           id="path226"
           d="M 212.37800,79.719900 L 213.30100,84.798000"
           style="fill:none;stroke:#000000;stroke-width:0.031199999" />
        <path
           id="path228"
           d="M 212.61000,79.560700 L 213.93900,85.170100"
           style="fill:none;stroke:#000000;stroke-width:0.031199999" />
        <path
           id="path230"
           d="M 211.02800,82.431800 C 210.90800,82.445000 210.57600,82.378600 210.49600,82.285800 C 210.33700,82.312200 210.08400,82.245800 209.96500,82.139300"
           style="fill:none;stroke:#000000;stroke-width:0.031199999" />
        <path
           id="path232"
           d="M 211.09900,81.660800 C 210.98400,81.670100 210.70000,81.630000 210.63400,81.545600 C 210.49200,81.558800 210.26600,81.506000 210.16900,81.417200"
           style="fill:none;stroke:#000000;stroke-width:0.031199999" />
        <path
           id="path234"
           d="M 211.17000,80.889800 C 211.05900,80.894200 210.82400,80.881000 210.77100,80.805800 C 210.64700,80.805800 210.44800,80.765800 210.37200,80.695000"
           style="fill:none;stroke:#000000;stroke-width:0.031199999" />
        <path
           id="path236"
           d="M 211.24100,80.118800 C 211.13400,80.118800 210.94800,80.132500 210.90800,80.065600 C 210.80200,80.052400 210.63000,80.026000 210.57600,79.972800"
           style="fill:none;stroke:#000000;stroke-width:0.031199999" />
        <path
           id="path238"
           d="M 212.16500,80.078800 C 212.22500,80.099300 212.37100,80.072400 212.43700,80.039200 C 212.51700,80.052400 212.65000,80.019200 212.70300,79.966000"
           style="fill:none;stroke:#000000;stroke-width:0.031199999" />
        <g
           id="g240">
          <path
             id="path242"
             d="M 212.25800,80.909800 C 212.32500,80.937700 212.51700,80.923000 212.59000,80.882000 C 212.67000,80.902000 212.84200,80.872700 212.90600,80.817100"
             style="fill:none;stroke:#000000;stroke-width:0.031199999" />
          <path
             id="path244"
             d="M 212.35100,81.740900 C 212.42600,81.776500 212.66300,81.774100 212.74300,81.724800 C 212.82300,81.751100 213.03500,81.726200 213.11000,81.667600"
             style="fill:none;stroke:#000000;stroke-width:0.031199999" />
          <path
             id="path246"
             d="M 212.44400,82.571400 C 212.52800,82.615400 212.80900,82.624700 212.89600,82.567500 C 212.97600,82.600700 213.22800,82.579300 213.31300,82.518200"
             style="fill:none;stroke:#000000;stroke-width:0.031199999" />
          <path
             id="path248"
             d="M 212.53700,83.402000 C 212.62900,83.453800 212.95500,83.475300 213.04900,83.410300 C 213.12900,83.450400 213.42100,83.432800 213.51600,83.368800"
             style="fill:none;stroke:#000000;stroke-width:0.031199999" />
        </g>
        <path
           id="path250"
           d="M 212.63000,84.233100 C 212.73000,84.292600 213.10200,84.326300 213.20100,84.253100 C 213.28100,84.299500 213.61300,84.286300 213.72000,84.219900"
           style="fill:none;stroke:#000000;stroke-width:0.031199999" />
        <g
           id="g252">
          <path
             id="path254"
             d="M 214.48500,85.436200 L 216.49100,79.161800"
             style="fill:none;stroke:#000000;stroke-width:0.031199999" />
          <path
             id="path256"
             d="M 215.18900,85.721800 L 216.66400,79.294600"
             style="fill:none;stroke:#000000;stroke-width:0.031199999" />
          <path
             id="path258"
             d="M 215.90700,85.941100 L 216.83700,79.427900"
             style="fill:none;stroke:#000000;stroke-width:0.031199999" />
          <path
             id="path260"
             d="M 214.64400,84.970900 C 214.75000,85.077300 215.17500,85.183300 215.32200,85.143700 C 215.44200,85.276500 215.81400,85.329700 216.00000,85.276500"
             style="fill:none;stroke:#000000;stroke-width:0.031199999" />
          <g
             id="g262">
            <path
               id="path264"
               d="M 214.92700,84.079300 C 215.02200,84.174500 215.39800,84.268700 215.53000,84.233100 C 215.63600,84.351700 215.96700,84.398100 216.13200,84.351700"
               style="fill:none;stroke:#000000;stroke-width:0.031199999" />
            <path
               id="path266"
               d="M 215.21100,83.187700 C 215.29300,83.271600 215.62100,83.353700 215.73800,83.322400 C 215.83100,83.426900 216.11900,83.466500 216.26300,83.426900"
               style="fill:none;stroke:#000000;stroke-width:0.031199999" />
            <path
               id="path268"
               d="M 215.49400,82.295600 C 215.56400,82.368800 215.84300,82.438600 215.94700,82.411800 C 216.02700,82.501600 216.27200,82.534800 216.39500,82.501600"
               style="fill:none;stroke:#000000;stroke-width:0.031199999" />
            <path
               id="path270"
               d="M 215.77800,81.404000 C 215.83600,81.466000 216.06600,81.523600 216.15500,81.501600 C 216.22100,81.576800 216.42500,81.603200 216.52700,81.576800"
               style="fill:none;stroke:#000000;stroke-width:0.031199999" />
            <path
               id="path272"
               d="M 216.06200,80.512400 C 216.10700,80.563100 216.28900,80.608600 216.36300,80.591000 C 216.41600,80.651500 216.57800,80.671500 216.65900,80.651500"
               style="fill:none;stroke:#000000;stroke-width:0.031199999" />
          </g>
          <path
             id="path274"
             d="M 216.34500,79.620300 C 216.37900,79.660300 216.51100,79.693500 216.57200,79.680300 C 216.61100,79.726700 216.73100,79.739900 216.79100,79.726700"
             style="fill:none;stroke:#000000;stroke-width:0.031199999" />
        </g>
        <path
           id="path276"
           d="M 220.51500,86.022100 L 218.60500,79.075400"
           style="fill:none;stroke:#000000;stroke-width:0.031199999" />
        <path
           id="path278"
           d="M 219.70200,86.193500 L 218.39600,79.187700"
           style="fill:none;stroke:#000000;stroke-width:0.031199999" />
        <path
           id="path280"
           d="M 218.89600,86.273600 L 218.19900,79.375200"
           style="fill:none;stroke:#000000;stroke-width:0.031199999" />
        <path
           id="path282"
           d="M 220.36400,85.516800 C 220.24100,85.629600 219.76600,85.728200 219.60600,85.676900 C 219.46700,85.819000 219.05300,85.860500 218.84900,85.793600"
           style="fill:none;stroke:#000000;stroke-width:0.031199999" />
        <path
           id="path284"
           d="M 220.09100,84.516800 C 219.98300,84.617800 219.56100,84.705200 219.41700,84.659800 C 219.29400,84.785800 218.92600,84.822400 218.74600,84.763300"
           style="fill:none;stroke:#000000;stroke-width:0.031199999" />
        <path
           id="path286"
           d="M 219.81800,83.516800 C 219.72300,83.606100 219.35700,83.681800 219.22800,83.642200 C 219.12000,83.753100 218.80000,83.784300 218.64200,83.733600"
           style="fill:none;stroke:#000000;stroke-width:0.031199999" />
        <path
           id="path288"
           d="M 219.54500,82.516800 C 219.46400,82.594400 219.15200,82.658900 219.03900,82.624700 C 218.94700,82.720400 218.67300,82.746300 218.53800,82.703800"
           style="fill:none;stroke:#000000;stroke-width:0.031199999" />
        <path
           id="path290"
           d="M 219.27200,81.516800 C 219.20500,81.582700 218.94700,81.635900 218.85000,81.607100 C 218.77300,81.687700 218.54700,81.707700 218.43500,81.673500"
           style="fill:none;stroke:#000000;stroke-width:0.031199999" />
        <path
           id="path292"
           d="M 218.99800,80.516300 C 218.94600,80.571000 218.74200,80.613000 218.66100,80.589500 C 218.60000,80.654900 218.42000,80.669600 218.33100,80.643700"
           style="fill:none;stroke:#000000;stroke-width:0.031199999" />
        <path
           id="path294"
           d="M 218.72500,79.516300 C 218.68700,79.558800 218.53800,79.590000 218.47200,79.572400 C 218.42600,79.622200 218.29300,79.631500 218.22800,79.613900"
           style="fill:none;stroke:#000000;stroke-width:0.031199999" />
        <path
           id="path296"
           d="M 221.04600,85.862000 L 222.26000,79.820000"
           style="fill:none;stroke:#000000;stroke-width:0.031199999" />
        <path
           id="path298"
           d="M 221.81000,85.555800 L 222.46100,79.886400"
           style="fill:none;stroke:#000000;stroke-width:0.031199999" />
        <path
           id="path300"
           d="M 222.49400,85.170100 L 222.65400,79.942100"
           style="fill:none;stroke:#000000;stroke-width:0.031199999" />
        <path
           id="path302"
           d="M 221.27300,84.776500 C 221.37700,84.861000 221.76200,84.912800 221.88900,84.863000 C 222.00700,84.968900 222.34100,84.978200 222.50000,84.913700"
           style="fill:none;stroke:#000000;stroke-width:0.031199999" />
        <path
           id="path304"
           d="M 221.45600,83.859000 C 221.54700,83.933300 221.88200,83.978700 221.99500,83.934700 C 222.09900,84.027500 222.38900,84.035300 222.52800,83.979700"
           style="fill:none;stroke:#000000;stroke-width:0.031199999" />
        <path
           id="path306"
           d="M 221.63900,82.941100 C 221.71600,83.006000 222.00100,83.044600 222.10100,83.006500 C 222.19000,83.086600 222.43800,83.092400 222.55600,83.046100"
           style="fill:none;stroke:#000000;stroke-width:0.031199999" />
        <path
           id="path308"
           d="M 221.82200,82.023600 C 221.88500,82.078800 222.12100,82.110500 222.20700,82.078300 C 222.28100,82.146200 222.48600,82.149600 222.58500,82.112000"
           style="fill:none;stroke:#000000;stroke-width:0.031199999" />
        <path
           id="path310"
           d="M 222.00400,81.105600 C 222.05500,81.151500 222.24000,81.176400 222.31200,81.150500 C 222.37200,81.205200 222.53500,81.206700 222.61300,81.177900"
           style="fill:none;stroke:#000000;stroke-width:0.031199999" />
        <path
           id="path312"
           d="M 222.18700,80.188100 C 222.22400,80.223800 222.36000,80.242300 222.41800,80.222300 C 222.46300,80.264300 222.58300,80.264300 222.64100,80.244300"
           style="fill:none;stroke:#000000;stroke-width:0.031199999" />
        <path
           id="path314"
           d="M 224.74400,81.001600 L 224.20600,79.288700"
           style="fill:none;stroke:#000000;stroke-width:0.031199999" />
        <path
           id="path316"
           d="M 224.63600,82.300000 L 224.00300,79.500600"
           style="fill:none;stroke:#000000;stroke-width:0.031199999" />
        <path
           id="path318"
           d="M 224.67600,82.012400 C 224.63500,82.016300 224.59800,82.015800 224.57200,82.008900 C 224.49200,82.098300 224.24600,82.131000 224.12300,82.097300"
           style="fill:none;stroke:#000000;stroke-width:0.031199999" />
        <path
           id="path320"
           d="M 224.74400,81.001600 C 224.68600,81.063100 224.45500,81.120300 224.36700,81.097800 C 224.30000,81.173000 224.09600,81.198900 223.99400,81.172000"
           style="fill:none;stroke:#000000;stroke-width:0.031199999" />
        <path
           id="path322"
           d="M 224.46300,80.109000 C 224.41700,80.159800 224.23500,80.204300 224.16100,80.186700 C 224.10800,80.247200 223.94700,80.266800 223.86500,80.246300"
           style="fill:none;stroke:#000000;stroke-width:0.031199999" />
        <path
           id="path324"
           d="M 217.82100,69.724300 L 219.73500,71.053400 L 220.37300,72.807800"
           style="fill:none;stroke:#000000;stroke-width:0.031199999" />
        <path
           id="path326"
           d="M 216.94300,70.893700 L 215.72000,72.249700"
           style="fill:none;stroke:#000000;stroke-width:0.031199999" />
        <path
           id="path328"
           d="M 215.61400,72.675000 L 215.85400,74.030900"
           style="fill:none;stroke:#000000;stroke-width:0.031199999" />
        <path
           id="path330"
           d="M 223.59000,70.973300 L 225.26500,71.904000 L 225.63700,73.419600 L 225.53000,78.231100"
           style="fill:none;stroke:#000000;stroke-width:0.031199999" />
        <path
           id="path332"
           d="M 222.02100,72.063600 L 221.30300,73.127100 L 221.09100,74.535800"
           style="fill:none;stroke:#000000;stroke-width:0.031199999" />
        <path
           id="path334"
           d="M 220.63900,79.135400 C 221.11700,80.597300 222.81900,82.937200 223.85600,83.920600"
           style="fill:none;stroke:#000000;stroke-width:0.031199999" />
        <path
           id="path336"
           d="M 221.01100,79.082200 C 221.57000,80.039200 223.27100,82.617800 224.30200,83.395700 L 223.78700,79.707200"
           style="fill:none;stroke:#000000;stroke-width:0.031199999" />
        <path
           id="path338"
           d="M 220.50600,72.834600 C 221.88800,75.280400 225.55700,79.055300 227.36500,80.438100"
           style="fill:none;stroke:#000000;stroke-width:0.031199999" />
        <path
           id="path340"
           d="M 225.63700,73.419600 C 226.30100,75.067500 228.26900,77.779500 230.39600,79.906400"
           style="fill:none;stroke:#000000;stroke-width:0.031199999" />
        <path
           id="path342"
           d="M 214.49800,74.057300 C 216.14600,77.407400 220.50600,83.468900 222.04800,85.383000"
           style="fill:none;stroke:#000000;stroke-width:0.031199999" />
        <path
           id="path344"
           d="M 207.10700,78.789700 L 206.81500,81.421500"
           style="fill:none;stroke:#000000;stroke-width:0.031199999" />
        <path
           id="path346"
           d="M 211.94600,71.159800 L 213.91300,72.488900 L 214.31200,74.030900"
           style="fill:none;stroke:#000000;stroke-width:0.031199999" />
        <path
           id="path348"
           d="M 209.97800,73.711600 L 210.82900,72.435700"
           style="fill:none;stroke:#000000;stroke-width:0.031199999" />
      </g>
      <g
         style="fill:#000000;fill-opacity:1.0000000"
         transform="matrix(3.000000,0.000000,0.000000,3.000000,-3.272712,-3.133542)"
         id="g350">
        <path
           style="fill:#000000;fill-opacity:1.0000000;stroke:none"
           d="M 203.85800,93.758000 C 203.46800,94.378100 203.06300,94.413700 202.86200,94.287300 C 202.78000,94.236000 202.75900,94.222800 202.69600,94.182800 C 202.64200,94.149100 202.60300,94.108100 202.64800,94.035300 L 203.58400,92.547000 C 203.63000,92.474800 203.68400,92.492300 203.73800,92.526000 C 203.80100,92.566100 203.82200,92.579300 203.90400,92.631000 C 204.10500,92.757500 204.24800,93.137900 203.85800,93.758000 L 204.31400,94.044600 C 204.78400,93.298500 204.32700,92.746700 203.88200,92.467400 C 203.51500,92.236000 203.01200,91.919600 203.01200,91.919600 L 202.97900,91.973800 C 203.07700,92.061200 203.17900,92.178400 203.08100,92.335100 L 202.23900,93.673500 C 202.14000,93.830200 201.99000,93.788200 201.86900,93.738000 L 201.83500,93.791700 L 202.70500,94.339000 C 203.15000,94.618800 203.84500,94.791200 204.31400,94.044600 L 203.85800,93.758000 z "
           id="path352" />
        <path
           style="fill:#000000;fill-opacity:1.0000000;stroke:none"
           d="M 205.10300,93.573900 C 205.18700,93.408400 205.05700,93.292600 204.93600,93.206700 L 204.96600,93.147600 L 206.70500,94.028500 L 206.39400,94.642700 L 206.31700,94.603700 C 206.50900,94.224300 206.25100,93.913700 206.06700,93.820000 C 205.97300,93.772600 205.86400,93.717400 205.78500,93.677400 C 205.71900,93.643700 205.67100,93.653500 205.58700,93.818500 C 205.52600,93.939600 205.25900,94.465000 205.25900,94.465000 C 205.37500,94.523600 205.65200,94.713000 205.95800,94.303900 L 206.01400,94.332700 L 205.52300,95.301900 L 205.45400,95.267200 C 205.66200,94.746300 205.32400,94.624700 205.20800,94.566100 L 204.87300,95.226700 C 204.79000,95.392200 204.81000,95.436700 204.87700,95.470400 C 204.95600,95.510400 205.06500,95.565600 205.15800,95.613000 C 205.38000,95.725700 205.69800,95.753100 206.07700,95.421100 L 206.16300,95.465000 L 205.70500,96.001600 L 203.96700,95.120800 L 203.99500,95.064100 C 204.13600,95.110500 204.30600,95.147600 204.39000,94.982100 L 205.10300,93.573900 z "
           id="path354" />
        <path
           style="fill:#000000;fill-opacity:1.0000000;stroke:none"
           d="M 207.48500,94.469900 C 207.35900,94.429400 207.18200,94.421500 207.09000,94.643700 C 206.99900,94.863400 207.10200,95.025500 207.40400,95.307300 C 207.62800,95.517200 207.79400,95.807800 207.64700,96.162800 C 207.43200,96.678400 206.91400,96.543100 206.70700,96.457200 C 206.57400,96.402000 206.38100,96.291700 206.27700,96.188600 C 206.21700,96.131000 206.20800,96.117800 206.11800,96.188600 L 206.05700,96.163200 L 206.34200,95.476700 L 206.40400,95.502100 C 206.30600,95.880500 206.42700,96.251600 206.74100,96.382000 C 207.00700,96.492300 207.19900,96.353700 207.25100,96.228700 C 207.33100,96.037300 207.22100,95.847800 206.95300,95.584100 C 206.71900,95.348800 206.55100,95.045600 206.68000,94.737000 C 206.84500,94.338500 207.18200,94.242300 207.52400,94.383900 C 207.71100,94.461600 207.85100,94.592000 207.92400,94.667200 C 207.99100,94.743300 208.03200,94.724300 208.12400,94.627600 L 208.18500,94.653000 L 207.92400,95.280900 L 207.86300,95.255000 C 207.90900,94.768700 207.69200,94.534800 207.48500,94.469900 z "
           id="path356" />
        <path
           style="fill:#000000;fill-opacity:1.0000000;stroke:none"
           d="M 208.53100,96.791200 C 208.47000,96.966500 208.61500,97.063600 208.74600,97.133000 L 208.72500,97.193000 L 207.62600,96.808800 L 207.64700,96.749200 C 207.79000,96.775500 207.96700,96.790200 208.02800,96.615400 L 208.55000,95.121700 C 208.61000,94.946900 208.46300,94.848800 208.33500,94.780400 L 208.35600,94.720400 L 209.45500,95.104200 L 209.43400,95.164200 C 209.28800,95.136900 209.11400,95.123200 209.05300,95.298000 L 208.53100,96.791200 z "
           id="path358" />
        <path
           style="fill:#000000;fill-opacity:1.0000000;stroke:none"
           d="M 210.08600,96.429400 L 210.30500,95.620800 C 210.33000,95.527500 210.42600,95.512900 210.56400,95.544600 C 210.78600,95.599300 210.90600,95.814600 210.82900,96.097800 C 210.75300,96.380500 210.61600,96.555800 210.08600,96.429400 L 210.06600,96.507000 C 210.06600,96.507000 210.10000,96.516300 210.14800,96.529500 L 210.55200,97.724300 L 211.16400,97.889800 L 211.18000,97.828300 C 211.13300,97.812700 211.09800,97.791700 211.08700,97.760400 L 210.70400,96.633900 C 211.02000,96.641800 211.26500,96.530400 211.34200,96.244800 C 211.45000,95.847300 211.09500,95.579700 210.59100,95.443000 L 209.54200,95.159300 L 209.52500,95.223300 C 209.65700,95.282400 209.81200,95.369800 209.76300,95.548500 L 209.35100,97.072900 C 209.30200,97.251600 209.17400,97.262900 209.02600,97.245800 L 209.01000,97.307300 L 210.04300,97.586600 L 210.05900,97.525100 C 209.94700,97.471800 209.82500,97.393200 209.87400,97.214500 L 210.06600,96.507000 L 210.08600,96.429400 z "
           id="path360" />
        <path
           style="fill:#000000;fill-opacity:1.0000000;stroke:none"
           d="M 212.03600,96.135400 C 212.06800,95.952800 211.91000,95.880000 211.77000,95.832200 L 211.78100,95.766800 L 213.69900,96.109000 L 213.57900,96.786800 L 213.49400,96.771600 C 213.56900,96.352700 213.23300,96.130000 213.02900,96.093400 C 212.92500,96.074900 212.80500,96.053400 212.71800,96.038200 C 212.64500,96.025100 212.60100,96.048000 212.56900,96.230600 C 212.54500,96.363400 212.44200,96.943500 212.44200,96.943500 C 212.57000,96.966000 212.88800,97.068000 213.06400,96.588000 L 213.12600,96.599300 L 212.93600,97.668600 L 212.86000,97.655400 C 212.90900,97.096800 212.55000,97.077800 212.42200,97.054800 L 212.29200,97.784300 C 212.25900,97.966500 212.29200,98.003100 212.36500,98.016300 C 212.45300,98.031900 212.57200,98.053400 212.67600,98.071400 C 212.92100,98.115400 213.23300,98.050000 213.50000,97.623200 L 213.59500,97.640300 L 213.31200,98.285800 L 211.39300,97.944000 L 211.40400,97.881500 C 211.55200,97.885400 211.72600,97.871300 211.75800,97.689100 L 212.03600,96.135400 z "
           id="path362" />
        <path
           style="fill:#000000;fill-opacity:1.0000000;stroke:none"
           d="M 214.86800,98.463000 L 214.87200,98.399600 C 214.99500,98.383500 215.13900,98.351700 215.15200,98.164200 L 215.27500,96.390800 L 215.15900,96.382500 C 214.92700,96.366400 214.62700,96.542200 214.60500,96.864900 L 214.53300,96.860000 L 214.57700,96.225700 L 216.51600,96.360500 L 216.47200,96.994800 L 216.40000,96.989900 C 216.42300,96.667200 216.15000,96.451300 215.91800,96.435200 L 215.80200,96.427400 L 215.67900,98.200800 C 215.66600,98.388300 215.80100,98.439600 215.92100,98.472800 L 215.91600,98.535800 L 214.86800,98.463000 z "
           id="path364" />
        <path
           style="fill:#000000;fill-opacity:1.0000000;stroke:none"
           d="M 217.34200,97.501100 L 217.35600,98.256000 C 217.35900,98.441100 217.49800,98.483100 217.64200,98.502600 L 217.64400,98.569000 L 216.55700,98.588500 L 216.55600,98.522100 C 216.70200,98.497700 216.82500,98.451300 216.82200,98.265800 L 216.79300,96.687200 C 216.79000,96.501600 216.66500,96.459600 216.51800,96.440100 L 216.51700,96.376600 L 217.60300,96.357100 L 217.60500,96.420600 C 217.46100,96.445000 217.32300,96.492300 217.32700,96.677400 L 217.33900,97.365900 L 218.13600,97.351200 L 218.12300,96.662800 C 218.12000,96.477700 217.98400,96.435700 217.83700,96.416200 L 217.83600,96.352700 L 218.92200,96.332700 L 218.92400,96.396600 C 218.77700,96.421100 218.65400,96.467900 218.65700,96.653000 L 218.68600,98.232100 C 218.68900,98.417200 218.81400,98.459100 218.96100,98.478700 L 218.96200,98.545100 L 217.87600,98.564600 L 217.87500,98.498200 C 218.02100,98.473300 218.15500,98.426900 218.15200,98.241400 L 218.13800,97.487000 L 217.34200,97.501100 z "
           id="path366" />
        <path
           style="fill:#000000;fill-opacity:1.0000000;stroke:none"
           d="M 219.42700,96.606100 C 219.40700,96.422000 219.23500,96.396600 219.08700,96.390800 L 219.07900,96.324900 L 221.01700,96.111000 L 221.09300,96.795100 L 221.00700,96.804800 C 220.96100,96.381500 220.57500,96.262900 220.36900,96.285300 C 220.26400,96.297000 220.14300,96.310200 220.05500,96.320000 C 219.98100,96.328300 219.94600,96.363000 219.96600,96.547000 C 219.98100,96.681300 220.04600,97.267200 220.04600,97.267200 C 220.17500,97.253100 220.51000,97.260400 220.54200,96.750600 L 220.60600,96.743300 L 220.72500,97.823900 L 220.64800,97.832200 C 220.53700,97.282400 220.18700,97.365400 220.05800,97.380000 L 220.14000,98.116400 C 220.16000,98.300500 220.20200,98.326800 220.27600,98.318500 C 220.36400,98.308800 220.48500,98.295600 220.58900,98.283900 C 220.83700,98.256500 221.11800,98.106100 221.25400,97.620800 L 221.34900,97.610000 L 221.26000,98.310200 L 219.32200,98.524100 L 219.31500,98.460600 C 219.45800,98.422500 219.62100,98.360000 219.60100,98.175900 L 219.42700,96.606100 z "
           id="path368" />
        <path
           style="fill:#000000;fill-opacity:1.0000000;stroke:none"
           d="M 225.47000,97.031400 C 225.52500,97.208700 225.69900,97.201800 225.84500,97.180300 L 225.86400,97.241400 L 224.75000,97.580200 L 224.73200,97.519200 C 224.86300,97.456200 225.01400,97.363900 224.96000,97.186700 L 224.50000,95.674000 C 224.44600,95.496700 224.26900,95.504100 224.12500,95.525100 L 224.10700,95.464000 L 225.22000,95.125200 L 225.23800,95.186200 C 225.10500,95.250200 224.95600,95.341500 225.01000,95.518700 L 225.47000,97.031400 z "
           id="path370" />
        <path
           style="fill:#000000;fill-opacity:1.0000000;stroke:none"
           d="M 227.25700,96.744300 C 226.63000,96.986000 226.01900,96.798500 225.75700,96.119800 C 225.50400,95.464500 225.86000,94.912300 226.40400,94.702300 C 226.65300,94.607100 226.83800,94.612000 226.98700,94.614400 C 227.13600,94.615900 227.16100,94.520200 227.17200,94.433300 L 227.25500,94.401500 L 227.51200,95.069500 L 227.43000,95.101200 C 227.08000,94.700400 226.70600,94.692500 226.43300,94.798000 C 226.27600,94.859000 225.93700,95.087100 226.26000,95.925900 C 226.58200,96.761900 226.95800,96.744300 227.21800,96.643700 C 227.35000,96.593400 227.50500,96.480100 227.45100,96.340500 C 227.39800,96.201300 227.32100,96.002600 227.30000,95.948400 C 227.23600,95.783400 227.10900,95.791200 226.97100,95.817500 L 226.94900,95.760900 L 227.92200,95.385900 L 227.94300,95.442500 C 227.82300,95.515800 227.71700,95.600700 227.78100,95.766300 C 227.84900,95.941600 227.97800,96.277000 227.97800,96.277000 C 227.83300,96.463000 227.48500,96.656900 227.25700,96.744300 z "
           id="path372" />
        <path
           style="fill:#000000;fill-opacity:1.0000000;stroke:none"
           d="M 228.76500,94.933800 L 229.10400,95.608100 C 229.18700,95.773600 229.33000,95.751100 229.46900,95.706200 L 229.49900,95.765300 L 228.52800,96.253600 L 228.49900,96.194500 C 228.61900,96.109000 228.71100,96.013300 228.62800,95.847800 L 227.91800,94.437700 C 227.83400,94.272100 227.70300,94.288700 227.56200,94.335100 L 227.53400,94.278000 L 228.50500,93.789700 L 228.53300,93.846400 C 228.41500,93.930800 228.31100,94.032400 228.39400,94.197900 L 228.70400,94.812700 L 229.41500,94.454700 L 229.10600,93.840000 C 229.02200,93.674500 228.88200,93.696000 228.74000,93.741900 L 228.71200,93.685200 L 229.68200,93.196400 L 229.71100,93.253600 C 229.59000,93.339000 229.49900,93.434700 229.58200,93.600300 L 230.29200,95.010400 C 230.37500,95.175900 230.50600,95.159300 230.64700,95.113000 L 230.67700,95.172500 L 229.70600,95.660800 L 229.67600,95.601700 C 229.79800,95.515800 229.89900,95.415700 229.81500,95.250200 L 229.47600,94.575800 L 228.76500,94.933800 z "
           id="path374" />
        <path
           style="fill:#000000;fill-opacity:1.0000000;stroke:none"
           d="M 231.36700,94.756000 L 231.33300,94.702300 C 231.42400,94.616400 231.52100,94.506500 231.42100,94.347300 L 230.47800,92.840500 L 230.38000,92.902500 C 230.18300,93.025500 230.04300,93.344400 230.21400,93.618800 L 230.15400,93.656400 L 229.81700,93.117800 L 231.46400,92.086600 L 231.80100,92.625600 L 231.74000,92.663700 C 231.56800,92.389300 231.22000,92.375600 231.02400,92.498700 L 230.92500,92.560700 L 231.86900,94.067100 C 231.96800,94.226200 232.10800,94.188100 232.22400,94.144700 L 232.25700,94.198900 L 231.36700,94.756000 z "
           id="path376" />
        <path
           style="fill:#000000;fill-opacity:1.0000000;stroke:none"
           d="M 222.91500,96.862000 L 222.72900,96.045100 C 222.70700,95.950800 222.78500,95.893700 222.92100,95.856600 C 223.14400,95.800000 223.35000,95.934200 223.41500,96.220400 C 223.48100,96.506000 223.44200,96.724300 222.91500,96.862000 L 222.93300,96.940100 C 222.93300,96.940100 222.96800,96.932300 223.01700,96.921100 L 223.93500,97.786300 L 224.55200,97.645200 L 224.53800,97.583200 C 224.48900,97.591500 224.44900,97.589500 224.42400,97.566600 L 223.55700,96.752100 C 223.83900,96.611000 224.00400,96.397600 223.93700,96.109000 C 223.84500,95.707700 223.40700,95.637900 222.89800,95.754100 L 221.83800,95.996300 L 221.85300,96.061200 C 221.99800,96.050500 222.17500,96.055300 222.21700,96.236000 L 222.56800,97.775500 C 222.61000,97.956200 222.50100,98.026000 222.36300,98.080200 L 222.37700,98.142200 L 223.42000,97.904000 L 223.40600,97.842000 C 223.28200,97.847300 223.13800,97.835100 223.09700,97.654500 L 222.93300,96.940100 L 222.91500,96.862000 z "
           id="path378" />
      </g>
      <path
         style="fill:none;fill-opacity:1.0000000;stroke:#000000;stroke-width:0.36901581;stroke-miterlimit:4.0000000;stroke-dasharray:none;stroke-opacity:1.0000000"
         d="M 699.53059,142.12958 L 699.53059,212.44609 C 699.53059,239.44116 683.84470,268.63598 648.68217,278.68070 C 613.51953,268.63598 597.80707,239.44116 597.80707,212.44609 L 597.80707,142.12958 L 699.53059,142.12958 z "
         id="path2784" />
    </g>
  </g>
</svg>
