<?xml version="1.0" encoding="UTF-8" standalone="no"?>
<svg
   xmlns:dc="http://purl.org/dc/elements/1.1/"
   xmlns:cc="http://web.resource.org/cc/"
   xmlns:rdf="http://www.w3.org/1999/02/22-rdf-syntax-ns#"
   xmlns:svg="http://www.w3.org/2000/svg"
   xmlns="http://www.w3.org/2000/svg"
   xmlns:sodipodi="http://inkscape.sourceforge.net/DTD/sodipodi-0.dtd"
   xmlns:inkscape="http://www.inkscape.org/namespaces/inkscape"
   width="872"
   height="440"
   id="svg2"
   sodipodi:version="0.32"
   inkscape:version="0.42"
   sodipodi:docname="falkland_islands.svg"
   sodipodi:docbase="/home/demailly">
  <metadata
     id="metadata381">
    <rdf:RDF>
      <cc:Work
         rdf:about="">
        <dc:format>image/svg+xml</dc:format>
        <dc:type
           rdf:resource="http://purl.org/dc/dcmitype/StillImage" />
      </cc:Work>
    </rdf:RDF>
  </metadata>
  <sodipodi:namedview
     inkscape:cy="99.043955"
     inkscape:cx="102.19039"
     inkscape:zoom="2.4559706"
     inkscape:window-height="530"
     inkscape:window-width="950"
     inkscape:pageshadow="2"
     inkscape:pageopacity="0.0"
     borderopacity="1.0"
     bordercolor="#666666"
     pagecolor="#ffffff"
     id="base"
     inkscape:window-x="0"
     inkscape:window-y="0"
     inkscape:current-layer="svg2" />
  <defs
     id="defs4">
    <marker
       id="ArrowEnd"
       viewBox="0 0 10 10"
       refX="0"
       refY="5"
       markerUnits="strokeWidth"
       markerWidth="4"
       markerHeight="3"
       orient="auto">
      <path
         d="M 0 0 L 10 5 L 0 10 z"
         id="path7" />
    </marker>
    <marker
       id="ArrowStart"
       viewBox="0 0 10 10"
       refX="10"
       refY="5"
       markerUnits="strokeWidth"
       markerWidth="4"
       markerHeight="3"
       orient="auto">
      <path
         d="M 10 0 L 0 5 L 10 10 z"
         id="path10" />
    </marker>
  </defs>
  <g
     id="g12"
     transform="matrix(3.000000,0.000000,0.000000,3.000000,-3.272712,-3.133542)">
    <g
       id="g14">
      <path
         style="fill:#1262ff;stroke:#000000;stroke-width:0.25000000"
         d="M 289.32900,145.30300 L 289.32900,1.3102100 L 1.3102100,1.3102100 L 1.3102100,145.30300 L 289.32900,145.30300 z "
         id="path16" />
      <path
         style="fill:#1262ff;stroke:#000000;stroke-width:0.25000000"
         id="path18" />
    </g>
    <path
       style="fill:#ffffff;stroke:#000000;stroke-width:0.25000000"
       d="M 1.3102100,25.299500 L 31.683300,25.299500 L 1.3102100,10.059200 L 1.3102100,1.3102100 L 18.688200,1.3102100 L 61.175900,22.488400 L 61.175900,1.3102100 L 85.101700,1.3102100 L 85.101700,22.488400 L 127.58900,1.3102100 L 145.11700,1.3102100 L 145.11700,10.059200 L 114.59400,25.299500 L 145.11700,25.299500 L 145.11700,49.307300 L 114.59400,49.307300 L 145.11700,64.547500 L 145.11700,73.299500 L 127.58900,73.299500 L 85.101700,52.118800 L 85.101700,73.299500 L 61.175900,73.299500 L 61.175900,52.118800 L 18.688200,73.299500 L 1.3102100,73.299500 L 1.3102100,64.547500 L 31.683300,49.307300 L 1.3102100,49.307300 L 1.3102100,25.299500 z "
       id="path20" />
    <g
       id="g22">
      <path
         style="fill:#ef072d;stroke:#000000;stroke-width:0.25000000;stroke-linejoin:bevel"
         d="M 133.81400,1.3102100 L 85.813200,25.316100 L 97.303400,25.316100 L 145.11700,1.3102100 L 133.81400,1.3102100 z "
         id="path24" />
      <path
         style="fill:#ef072d;stroke:#000000;stroke-width:0.25000000;stroke-linejoin:bevel"
         d="M 145.11700,73.299500 L 97.252600,49.306800 L 108.79400,49.306800 L 145.11700,67.579700 L 145.11700,73.299500 z "
         id="path26" />
      <path
         style="fill:#ef072d;stroke:#000000;stroke-width:0.25000000;stroke-linejoin:bevel"
         d="M 49.402500,25.316100 L 1.3102100,1.3102100 L 1.3102100,7.0436100 L 37.811700,25.316100 L 49.402500,25.316100 z "
         id="path28" />
      <path
         style="fill:#ef072d;stroke:#000000;stroke-width:0.25000000;stroke-linejoin:bevel"
         d="M 49.303400,49.306800 L 1.3102100,73.299500 L 12.794600,73.299500 L 60.794600,49.306800 L 49.303400,49.306800 z "
         id="path30" />
      <path
         style="fill:#ef072d;stroke:#000000;stroke-width:0.25000000"
         d="M 1.3102100,30.279900 L 66.272600,30.279900 L 66.272600,1.3102100 L 80.331200,1.3102100 L 80.331200,30.279900 L 145.11700,30.279900 L 145.11700,44.339000 L 80.331200,44.339000 L 80.331200,73.299500 L 66.272600,73.299500 L 66.272600,44.339000 L 1.3102100,44.339000 L 1.3102100,30.279900 z "
         id="path32" />
    </g>
    <g
       id="g34">
      <path
         style="fill:#ffffff;stroke:#000000;stroke-width:0.25000000"
         d="M 217.32000,105.10300 C 234.88700,105.10300 249.12800,90.862000 249.12800,73.295100 C 249.12800,55.728200 234.88700,41.487500 217.32000,41.487500 C 199.75300,41.487500 185.51200,55.728200 185.51200,73.295100 C 185.51200,90.862000 199.75300,105.10300 217.32000,105.10300 z "
         id="path36" />
      <path
         style="fill:#ffffff;stroke:#000000;stroke-width:0.25000000"
         id="path38" />
    </g>
    <g
       id="g40">
      <path
         style="fill:#ffef7c;stroke:#000000;stroke-width:0.12500000"
         d="M 203.97000,85.701800 C 205.51200,86.340000 206.75500,87.113900 207.63900,87.882000 C 211.67900,91.391300 207.47900,98.090500 203.65100,98.781900 C 201.46500,99.176900 200.35400,98.835100 199.87600,97.771600 C 199.05100,95.910800 200.75000,95.966000 201.97600,95.804400 C 203.99600,95.538200 208.59500,89.025100 203.97000,85.701800 z "
         id="path42" />
      <path
         style="fill:#ef072d;stroke:#000000;stroke-width:0.12500000"
         d="M 203.97000,85.701800 C 202.96400,85.162800 201.73600,86.233600 201.41800,87.669100 C 201.16200,88.817500 201.83400,89.998200 203.11900,91.032400 C 203.67700,90.208200 204.42800,89.200400 205.81100,90.902000 C 206.41200,88.500200 205.41900,86.605600 203.97000,85.701800 z "
         id="path44" />
      <path
         style="fill:#ffef7c;stroke:#000000;stroke-width:0.12500000"
         d="M 230.66900,85.701800 C 229.12700,86.340000 227.88400,87.113900 227.00000,87.882000 C 222.95900,91.391300 227.16000,98.090500 230.98800,98.781900 C 233.17400,99.176900 234.28500,98.835100 234.76300,97.771600 C 235.58800,95.910800 233.88900,95.966000 232.66300,95.804400 C 230.64300,95.538200 226.04300,89.025100 230.66900,85.701800 z "
         id="path46" />
      <path
         style="fill:#ef072d;stroke:#000000;stroke-width:0.12500000"
         d="M 230.66900,85.701800 C 231.67500,85.162800 232.90300,86.233600 233.22100,87.669100 C 233.47700,88.817500 232.80500,89.998200 231.52000,91.032400 C 230.96200,90.208200 230.21100,89.200400 228.82800,90.902000 C 228.22700,88.500200 229.22000,86.605600 230.66900,85.701800 z "
         id="path48" />
      <path
         style="fill:#ffef7c;stroke:#000000;stroke-width:0.12500000"
         d="M 217.31600,99.207200 C 225.18500,99.207200 230.55500,96.708200 234.96800,93.092400 C 236.28500,92.013800 236.03200,91.444500 235.23500,90.753100 C 234.43700,90.061700 233.53300,88.572900 233.21400,87.669100 C 234.01100,91.391300 224.49400,95.325800 217.31600,95.325800 C 210.13800,95.325800 200.62000,91.391300 201.41800,87.669100 C 201.09800,88.572900 200.19500,90.061700 199.39700,90.753100 C 198.60000,91.444500 198.34600,92.013800 199.66300,93.092400 C 204.07600,96.708200 209.44700,99.207200 217.31600,99.207200 z "
         id="path50" />
      <g
         id="g52">
        <path
           style="fill:#ef072d;stroke:#000000;stroke-width:0.12500000"
           d="M 200.19100,96.332700 C 200.96200,96.970900 201.63000,97.638800 201.84300,98.090500 C 202.94000,97.180300 201.97200,96.199900 201.14800,96.120300 C 200.81500,96.088000 200.45500,96.154900 200.19100,96.332700 z "
           id="path54" />
        <path
           style="fill:#ef072d;stroke:#000000;stroke-width:0.12500000"
           d="M 234.44000,96.332700 C 233.66900,96.970900 233.00100,97.638800 232.78800,98.090500 C 231.69200,97.180300 232.65900,96.199900 233.48300,96.120300 C 233.81700,96.088000 234.17600,96.154900 234.44000,96.332700 z "
           id="path56" />
      </g>
      <g
         id="g58">
        <path
           style="fill:#ffef7c;stroke:#000000;stroke-width:0.12500000"
           d="M 202.33300,97.154000 C 202.28700,96.606600 201.68900,96.175500 201.15200,96.123200 C 200.30300,96.041200 199.37000,96.641800 199.84900,97.705200 C 199.47700,96.428900 198.75900,94.820500 198.04100,93.916700 C 197.54800,93.295600 197.88200,92.109000 198.75900,91.683800 C 199.63600,91.258000 201.44400,92.215500 201.44400,93.411800 C 201.44400,95.728200 202.41200,95.930800 202.33300,97.154000 z "
           id="path60" />
        <path
           style="fill:#ffef7c;stroke:#000000;stroke-width:0.12500000"
           d="M 232.29900,97.154000 C 232.34400,96.606600 232.94200,96.175500 233.48000,96.123200 C 234.32800,96.041200 235.26100,96.641800 234.78200,97.705200 C 235.15400,96.428900 235.87200,94.820500 236.59000,93.916700 C 237.08300,93.295600 236.75000,92.109000 235.87200,91.683800 C 234.99500,91.258000 233.18700,92.215500 233.18700,93.411800 C 233.18700,95.728200 232.21900,95.930800 232.29900,97.154000 z "
           id="path62" />
      </g>
    </g>
    <path
       style="fill:#00009e;stroke:#000000;stroke-width:0.12500000"
       d="M 234.54300,48.110000 L 234.54300,71.930800 C 234.54300,81.075800 229.23000,90.966000 217.32000,94.368800 C 205.41000,90.966000 200.08800,81.075800 200.08800,71.930800 L 200.08800,48.110000 L 234.54300,48.110000 z "
       id="path64" />
    <g
       id="g66">
      <path
         style="fill:#6621ff;stroke:#000000;stroke-width:0.12500000"
         d="M 226.16200,63.645200 C 226.34700,63.595900 226.77900,63.606600 226.94000,63.835600 C 227.19200,64.194000 227.71100,64.074400 227.96300,64.420100 C 228.21500,64.765800 228.50800,65.085100 228.50800,65.576800 C 228.50800,66.068500 228.46000,67.288700 228.46800,67.557300 C 228.48200,67.969400 228.54200,68.033900 228.90700,68.022600 C 229.34500,68.009400 229.95100,67.969900 229.97000,67.052400 C 229.98400,66.414200 229.43900,66.015300 229.27900,63.742300 C 229.51800,63.503100 229.73100,63.290200 229.65200,62.971400 C 229.57200,62.652500 230.10300,62.492800 230.05000,62.014300 C 229.99700,61.535800 230.58200,61.243300 230.34200,60.711600 C 230.10300,60.179800 230.63500,60.153500 230.42200,59.728200 C 230.21000,59.302400 230.76800,58.930300 230.52900,58.558300 C 230.28900,58.185700 230.84800,57.840500 230.55500,57.388300 C 230.26300,56.936700 230.71400,56.670600 230.42200,56.324900 C 230.60800,55.979700 230.44900,54.995800 229.86400,54.437700 C 229.27900,53.879100 228.45500,53.586600 227.97600,53.374200 C 227.08600,52.978200 225.42400,53.161300 224.25500,53.321000 C 223.08500,53.480100 220.90400,53.639800 220.24000,53.533400 C 219.57500,53.427400 218.00700,53.321000 216.77100,53.560200 C 216.34800,53.641800 215.86700,53.493800 215.61400,53.214500 C 215.41200,52.991400 215.29500,53.015300 215.10900,53.028500 C 214.92300,53.041700 214.81700,52.975300 214.72400,52.709100 C 214.56000,52.240900 214.19200,52.563100 214.01900,51.978200 C 213.90400,51.587100 213.30100,51.925000 213.11500,51.592900 C 212.92900,51.260400 212.70300,51.220400 212.19800,51.260400 C 212.17200,51.061200 211.89200,50.914700 211.64000,50.967900 C 211.67900,50.635900 211.40100,50.369800 210.93500,50.383000 C 210.98800,49.970900 210.33700,49.652000 210.00500,49.904500 C 209.79200,49.598800 209.36600,49.665200 209.26000,49.904500 C 209.03400,49.598800 208.31700,49.692100 208.14400,50.024100 C 207.83800,49.824900 207.24400,50.314100 207.29300,51.087600 C 207.30600,51.300500 207.31800,51.522100 207.01400,51.592900 C 206.44200,51.725700 206.11000,52.469900 205.61800,52.576300 C 205.12600,52.682800 204.63400,52.868800 204.54100,53.187700 C 204.44800,53.507000 204.62100,53.839500 204.43500,53.998700 C 204.24900,54.158400 204.55500,54.304400 204.64800,54.383900 C 204.74100,54.464000 204.88700,54.596800 204.91400,54.782900 C 204.95100,55.046500 205.32400,55.126100 205.71100,54.836100 C 205.87100,54.716500 206.15000,55.075400 206.60200,54.822900 C 207.05400,54.570500 207.69500,54.704300 207.58600,55.115400 C 207.53200,55.314600 207.65200,55.527500 207.79800,55.726700 C 207.94500,55.925900 208.16400,56.527000 208.03700,56.869800 C 207.85100,57.375200 208.22300,57.654500 208.13100,58.106100 C 208.03700,58.558300 208.18400,58.970400 207.98400,59.581700 C 207.78500,60.193000 207.78200,60.957700 208.07700,61.176900 C 208.48900,61.482600 208.24100,62.088500 208.59500,62.346800 C 208.88800,62.559200 208.71500,63.077800 209.26000,63.237000 C 209.80500,63.396600 209.48600,63.821900 210.05800,63.915200 C 210.63000,64.008000 210.82900,64.486500 211.42700,64.380000 C 211.86800,64.301900 212.10000,64.426900 212.35600,64.545100 C 212.40900,64.970400 212.29100,66.533900 212.26400,66.932800 C 212.24100,67.286300 212.07800,67.848800 212.07800,68.195500 C 212.07800,68.407900 212.45000,68.461100 212.87600,68.461100 C 213.30100,68.461100 213.48800,68.261900 213.38100,67.703300 C 213.27500,67.145200 213.24900,65.783900 213.27600,64.932800 C 213.64400,65.139800 213.99500,65.430300 213.97900,65.749700 C 213.95300,66.267700 213.96000,67.197400 213.88600,67.676900 C 213.83300,68.022600 213.91300,68.567500 213.93900,68.926400 C 213.96600,69.059200 214.68400,69.046100 214.97600,68.926400 C 215.26900,68.806800 215.26900,68.488000 215.24200,67.038700 C 215.22900,66.321400 214.57600,65.589000 215.40200,65.231100 C 215.80000,65.058300 216.35900,64.659300 216.57200,64.287300 C 216.78400,63.915200 217.24900,64.061200 217.58200,64.247700 C 217.91400,64.433800 218.44600,64.717900 218.77800,64.592900 C 219.20300,64.433800 219.65500,64.832200 220.02800,64.592900 C 220.40000,64.353700 220.87800,64.765800 221.18400,64.473300 C 221.48900,64.180800 222.02100,64.460100 222.24700,64.180800 C 222.47300,63.902000 223.40400,64.340500 223.73600,63.968400 C 224.06800,63.595900 224.52000,64.074400 224.82600,63.795600 C 224.90600,63.722300 225.00100,63.706200 225.10500,63.714500 C 225.09400,64.343900 224.99300,65.344400 224.97200,65.656400 C 224.94800,66.010400 224.78600,66.572900 224.78600,66.919100 C 224.78600,67.132000 225.15800,67.185200 225.58400,67.185200 C 226.00900,67.185200 226.19500,66.985500 226.08900,66.427400 C 225.98300,65.869300 226.13500,64.496300 226.16200,63.645200 z "
         id="path68" />
      <g
         id="g70">
        <path
           style="fill:#ffffff;stroke:none"
           d="M 204.65200,53.951300 C 204.83000,53.800500 204.66400,53.486500 204.75400,53.185200 C 204.84200,52.883900 205.31400,52.707700 205.78400,52.607600 C 206.25600,52.507000 206.57400,51.803400 207.12100,51.677900 C 207.41300,51.611000 207.40200,51.402000 207.38900,51.200800 C 207.34200,50.469900 207.91000,50.008000 208.20300,50.196400 C 208.36900,49.882000 209.05600,49.794100 209.27300,50.083200 C 209.37500,49.857100 209.78200,49.794100 209.98500,50.083200 C 210.30400,49.844400 210.92700,50.145700 210.87700,50.535300 C 211.32200,50.522600 211.58900,50.774100 211.55100,51.088000 C 211.79300,51.037800 212.06100,51.175900 212.08600,51.363900 C 212.04500,51.672500 212.65000,51.752100 212.37100,51.951800 C 212.12600,52.127100 211.89200,52.057800 211.61300,51.819000 C 211.33400,51.579300 210.40400,51.792200 210.27100,51.911800 C 210.13800,52.031400 209.99100,52.084600 209.88500,51.991400 C 209.77900,51.898600 209.52600,51.752100 209.40600,51.765800 C 209.28700,51.779000 209.03400,51.779000 208.88800,51.499700 C 208.74200,51.220400 208.37000,51.180800 208.30300,51.286800 C 208.23700,51.393200 208.44900,51.779000 208.66200,51.925000 C 208.87500,52.071400 208.76900,52.350700 209.02100,52.509900 C 209.18700,52.614900 209.03400,52.975300 208.94100,53.187700 C 208.84800,53.400500 208.48900,53.334100 208.46300,53.174500 C 208.43600,53.015300 208.34300,52.908900 208.13100,53.148100 C 207.91800,53.387400 207.46600,53.321000 207.36000,53.254600 C 207.25300,53.187700 206.96100,53.068500 206.76100,53.134900 C 206.56200,53.201300 206.85400,53.307800 206.88100,53.400500 C 206.90700,53.493800 206.56200,53.533400 206.36300,53.533400 C 206.16300,53.533400 206.09700,53.666200 206.21700,53.693000 C 206.33600,53.719400 206.80100,53.746300 206.98800,53.639800 C 207.17400,53.533400 207.74500,53.639800 207.79800,53.839500 C 207.85100,54.038700 207.46600,54.118300 207.24000,54.092000 C 206.90500,54.052400 206.41600,54.264800 206.17600,54.331200 C 205.93700,54.397600 205.29900,54.224800 205.04700,54.304400 C 204.79400,54.383900 204.54500,54.070500 204.65200,53.951300 z "
           id="path72" />
        <path
           style="fill:#ffffff;stroke:none"
           d="M 209.12800,55.115400 C 208.88200,55.115400 209.16700,55.474300 208.92800,55.580700 C 208.68900,55.686700 208.76900,56.006000 208.98100,56.138800 C 209.19400,56.271600 209.67300,56.324900 209.97800,56.258500 C 210.28400,56.192100 210.35000,56.298500 210.15100,56.431300 C 209.95100,56.564100 210.45700,56.591000 210.41700,56.803400 C 210.37700,57.016300 210.60300,56.976200 210.81600,56.963000 C 211.02800,56.949900 211.30700,56.790200 211.54700,56.644200 C 211.78600,56.497700 211.95900,56.604200 211.73300,56.856600 C 211.50700,57.109000 210.74900,57.428400 210.15100,57.388300 C 209.55300,57.348300 209.23400,57.508000 209.36600,57.734000 C 209.50000,57.960100 210.13800,58.000200 210.47000,57.880000 C 210.80200,57.760400 210.74900,57.973300 210.49600,58.119300 C 210.24400,58.265800 209.88500,58.279000 209.57900,58.265800 C 209.27400,58.252600 209.00700,58.558300 209.40600,58.731100 C 209.80500,58.904000 210.33700,58.797500 210.53600,58.943500 C 210.73600,59.090000 211.34700,58.863900 211.36000,59.116400 C 211.37400,59.368800 211.18800,59.462100 210.82900,59.435700 C 210.47000,59.408900 210.57500,59.597800 210.84200,59.701300 C 211.08100,59.794600 211.50700,59.794600 211.73300,59.767700 C 211.95900,59.741400 211.89200,60.007000 211.66600,60.100300 C 211.44000,60.193000 210.70900,60.326300 210.35000,60.312700 C 209.99100,60.299500 210.16300,60.565600 210.63000,60.565600 C 212.05200,60.565600 212.53000,59.780900 212.88900,59.236000 C 213.06500,58.968900 213.40700,58.823900 213.48800,58.983600 C 213.56700,59.143200 213.58000,59.182800 213.42100,59.316100 C 213.26100,59.448900 213.30100,59.528500 213.59400,59.541700 C 213.88600,59.554800 214.31200,59.462100 214.56400,59.382500 C 214.81700,59.302400 215.56100,59.805800 214.94900,59.821000 C 213.87300,59.847800 212.54400,60.299500 212.10500,60.485500 C 211.66600,60.671500 210.93500,61.022100 210.48300,61.004100 C 210.15100,60.990900 210.01800,61.136900 210.15100,61.309700 C 210.28400,61.482600 210.70900,61.482600 210.94800,61.403000 C 211.18800,61.322900 211.24100,61.403000 211.08100,61.562200 C 210.92200,61.721800 210.52300,61.788200 210.24400,61.841500 C 209.96500,61.894700 209.82800,62.103200 210.04500,62.187200 C 210.45700,62.346800 210.08400,62.492800 210.37700,62.572400 C 210.66900,62.652500 210.35000,62.904900 210.66900,62.984500 C 210.98800,63.064600 211.17500,63.024600 211.41400,62.838500 C 211.65300,62.652500 211.78600,62.546100 212.03800,62.572400 C 212.29100,62.599300 212.46400,62.466000 212.61000,62.266800 C 212.75700,62.067500 213.24800,61.708700 213.40700,61.881500 C 213.56700,62.054400 213.90000,61.735000 213.96600,61.907900 C 214.03200,62.080700 214.31200,61.974300 214.37800,62.213500 C 214.45200,62.480100 214.76300,62.532900 214.97600,62.439600 C 215.18900,62.346800 215.36100,62.120800 215.36100,61.788200 C 215.36100,61.456200 215.44200,61.322900 215.52100,61.681800 C 215.60100,62.040700 215.89300,62.147100 216.04000,61.974300 C 216.18600,61.801400 216.23900,61.203300 216.13200,60.924500 C 216.02700,60.645200 216.01300,60.286300 216.11900,60.219900 C 216.22600,60.153500 216.47800,60.764800 216.58500,61.030400 C 216.69100,61.296500 216.97000,61.217000 216.98300,60.950800 C 216.99700,60.685200 217.24900,60.551900 217.43500,60.751600 C 217.62100,60.950800 217.51500,61.615400 217.56800,61.934700 C 217.62100,62.253600 218.14000,61.854700 218.19300,61.961100 C 218.24600,62.067500 218.44600,62.093900 218.52600,61.867800 C 218.60500,61.642200 218.79100,61.442500 218.89800,61.575400 C 219.00400,61.708700 219.16300,61.934700 219.23000,62.187200 C 219.29600,62.439600 219.53600,62.572400 219.68200,62.306800 C 219.82800,62.040700 219.93400,61.522600 219.88100,61.163200 C 219.82800,60.804800 219.92100,60.578800 220.05400,60.764800 C 220.18700,60.950800 220.17400,61.456200 220.18700,61.867800 C 220.20000,62.279900 220.63900,62.240400 220.63900,61.628600 C 220.63900,61.349800 220.77200,61.296500 220.81200,61.456200 C 220.85200,61.615400 220.85200,61.881500 220.89100,62.001100 C 220.99000,62.296100 221.33000,62.133900 221.37000,61.934700 C 221.41000,61.735000 221.34300,61.017200 221.26400,60.698400 C 221.18400,60.379100 221.34300,60.153500 221.47600,60.326300 C 221.60900,60.498700 221.63600,60.950800 221.66200,61.456200 C 221.68900,61.961100 221.96800,61.987500 222.11400,61.841500 C 222.26000,61.695000 222.26000,61.269700 222.19400,60.964000 C 222.12800,60.658400 222.34000,60.658400 222.43300,60.844400 C 222.52700,61.030400 222.68600,60.910800 222.65900,60.764800 C 222.63300,60.618800 222.76600,60.485500 222.89900,60.685200 C 223.03100,60.884400 222.99100,61.336600 222.92500,61.695000 C 222.85900,62.054400 223.25700,62.014300 223.44300,61.708700 C 223.63000,61.403000 223.53700,60.565600 223.37700,60.299500 C 223.21700,60.033900 223.23100,59.688100 223.32400,59.382500 C 223.41700,59.076800 223.59000,59.063100 223.60300,59.196400 C 223.61600,59.329300 223.69600,59.554800 223.84200,59.728200 C 223.98800,59.900500 224.06800,59.927400 224.09500,59.661300 C 224.12200,59.395700 224.25500,59.462100 224.30800,59.661300 C 224.36100,59.861000 224.45400,60.020200 224.58700,59.847800 C 224.72000,59.674500 224.89300,59.807800 224.78600,60.073400 C 224.68000,60.339500 224.68000,60.578800 224.75900,60.844400 C 224.83900,61.110500 225.11800,61.070500 225.14500,60.764800 C 225.20000,60.129100 225.27800,60.551900 225.34400,60.831200 C 225.41100,61.110500 225.61000,61.097300 225.65000,60.937700 C 225.69000,60.778000 225.73000,60.738400 225.73000,60.910800 C 225.73000,61.083700 225.79700,61.230100 225.96900,61.230100 C 226.14200,61.230100 226.10200,60.884400 226.18200,60.671500 C 226.26200,60.459100 226.40800,60.751600 226.60700,61.243300 C 226.80700,61.735000 226.95300,61.269700 227.41800,62.386400 C 227.60800,62.842000 227.88300,62.452800 227.87000,62.293600 C 227.85700,62.133900 227.89700,62.027500 228.12300,62.027500 C 228.34900,62.027500 228.53500,61.974300 228.45500,61.801400 C 228.37500,61.628600 228.42800,61.309700 228.41500,60.950800 C 228.40200,60.592000 228.44200,60.392700 228.48200,60.592000 C 228.52200,60.791200 228.65400,61.070500 228.86700,61.217000 C 229.08000,61.363000 229.22600,60.964000 229.05300,60.711600 C 228.88000,60.459100 228.64100,59.861000 228.65400,59.355600 C 228.66400,58.983600 228.81400,59.103200 228.81400,59.368800 C 228.81400,59.634900 228.94700,60.113400 229.14600,60.219900 C 229.34500,60.326300 229.42500,59.834100 229.33200,59.581700 C 229.23900,59.329300 229.18600,58.983600 229.38500,58.917200 C 229.58500,58.850700 229.33200,58.571400 229.15900,58.372200 C 228.98600,58.172500 228.88000,57.973300 229.18600,57.986500 C 229.49200,58.000200 229.23900,57.774100 229.09300,57.627600 C 228.94700,57.481600 228.69400,57.189100 229.09300,57.228700 C 229.49200,57.268700 229.35900,57.029500 229.19900,56.896600 C 229.04000,56.763800 228.94700,56.510900 229.22600,56.524600 C 229.50500,56.537800 229.67800,56.378100 229.65200,56.258500 C 229.54900,55.798000 228.88000,55.261400 228.46800,54.849300 C 228.05600,54.437700 227.39100,54.025500 227.03300,53.959100 C 226.67400,53.892200 226.66000,54.158400 226.75400,54.317500 C 226.84700,54.477200 227.03300,54.583700 227.05900,54.424000 C 227.08600,54.264800 227.36500,54.437700 227.49800,54.650100 C 227.63100,54.863000 228.08300,55.128600 228.36200,55.367800 C 228.64100,55.607100 227.99000,55.487500 227.67100,55.168600 C 227.48800,54.986000 227.51100,55.208200 227.75100,55.461100 C 227.99000,55.713500 227.68400,55.820000 227.43100,55.607100 C 227.17900,55.394700 226.52800,54.796500 226.11500,54.410800 C 225.70300,54.025500 225.63700,54.118300 225.62400,54.370800 C 225.61000,54.623700 225.75700,54.796500 226.02300,55.008900 C 226.28800,55.221800 226.62100,55.553900 226.87300,55.779900 C 227.12600,56.006000 226.91300,56.152000 226.75400,55.992300 C 226.59400,55.833200 226.04900,55.394700 225.73000,55.089000 C 225.41100,54.782900 225.11800,54.636900 224.91900,54.676900 C 224.72000,54.716500 224.73300,54.942500 224.97200,55.181800 C 225.21200,55.421100 225.50400,55.873200 225.50400,56.138800 C 225.50400,56.404900 225.29100,56.591000 225.18500,56.112500 C 225.07900,55.633900 224.57300,55.075400 224.20100,54.650100 C 223.82900,54.224800 223.45700,54.145200 223.17800,54.171500 C 222.89900,54.197900 222.91200,54.517200 222.91200,54.769700 C 222.91200,55.022100 222.72600,54.876100 222.71300,54.690100 C 222.69900,54.504100 222.48600,54.344400 222.36700,54.357600 C 222.24700,54.370800 222.28700,54.756500 222.24700,54.929400 C 222.20700,55.102200 222.02100,55.261400 222.02100,54.863000 C 222.02100,54.464000 221.58300,54.264800 221.39700,54.251100 C 221.21100,54.238000 221.03800,54.317500 221.13100,54.490400 C 221.22400,54.663200 221.18400,55.128600 221.11700,55.394700 C 221.05100,55.660300 220.85200,55.195000 220.81200,54.703300 C 220.77200,54.211600 220.14700,53.865900 219.70800,54.011900 C 219.27000,54.158400 219.60200,54.477200 219.52200,54.782900 C 219.44200,55.089000 219.32300,54.809700 219.28300,54.490400 C 219.24300,54.171500 219.03000,53.972300 218.73800,54.051900 C 218.44600,54.131500 218.24600,54.291200 218.25900,54.504100 C 218.27300,54.716500 218.27300,54.902500 218.20600,55.248200 C 218.14000,55.593900 218.02000,55.421100 218.03300,55.195000 C 218.04700,54.968900 217.98000,54.596800 217.91400,54.383900 C 217.84700,54.171500 217.74100,54.370800 217.76800,54.636900 C 217.79400,54.902500 217.72800,55.514300 217.62100,55.886400 C 217.51500,56.258500 217.35600,56.271600 217.43500,55.766800 C 217.51500,55.261400 217.31600,54.517200 217.11600,54.171500 C 216.97300,53.924500 216.65100,53.839500 216.65100,54.184700 C 216.65100,54.530400 216.74400,54.782900 216.98300,55.035800 C 217.22300,55.288200 217.03600,55.913200 216.79700,56.245300 C 216.55800,56.577300 216.57200,56.099300 216.65100,55.739900 C 216.73100,55.381000 216.29200,55.261400 216.11900,55.195000 C 215.94700,55.128600 216.30500,54.769700 216.38500,54.291200 C 216.42500,54.054800 216.37200,53.905900 216.21200,53.892200 C 216.05300,53.879100 215.62800,54.331200 215.44200,54.663200 C 215.49400,54.317500 215.44200,54.011900 215.28200,54.011900 C 215.12200,54.011900 214.94900,54.344400 214.83000,54.583700 C 214.71000,54.822900 214.59000,54.690100 214.71000,54.437700 C 214.83000,54.184700 215.01600,53.507000 214.77700,53.360500 C 214.53700,53.214500 214.32500,53.812700 214.07200,53.706200 C 213.92900,53.646200 214.12500,53.267700 214.20500,53.094900 C 214.28500,52.922000 214.12500,52.789200 213.76600,53.108100 C 213.40700,53.427400 213.24800,53.945500 213.15500,54.264800 C 213.06200,54.583700 212.42400,55.102200 212.07800,55.381000 C 211.73300,55.660300 211.58700,55.553900 211.75900,55.434200 C 211.93200,55.314600 212.27800,54.942500 212.45000,54.796500 C 212.62300,54.650100 212.54400,54.563600 212.21100,54.816100 C 211.87900,55.069000 211.27400,55.527500 210.65600,55.686700 C 210.29300,55.780900 210.24400,55.700400 210.60300,55.580700 C 210.96200,55.461100 211.78600,54.889300 211.98500,54.623700 C 212.11000,54.457200 211.78600,54.596800 211.62600,54.636900 C 211.46700,54.676900 211.33400,54.623700 211.65300,54.490400 C 211.97200,54.357600 212.98200,53.307800 213.19500,52.922000 C 213.40700,52.536800 213.22100,52.390300 213.08900,52.403500 C 212.95600,52.417200 212.77000,52.509900 212.81000,52.350700 C 212.84900,52.191100 212.75700,51.978200 212.58300,52.044600 C 212.41100,52.111000 212.42400,52.496700 212.35800,52.709100 C 212.29100,52.922000 211.91900,53.201300 211.67900,53.201300 C 211.44000,53.201300 211.10800,53.254600 210.85600,53.453800 C 210.60300,53.653000 210.48300,53.467000 210.60300,53.307800 C 210.72200,53.148100 210.98800,53.108100 211.25400,53.094900 C 211.52000,53.081700 211.81300,53.041700 212.03800,52.789200 C 212.26400,52.536800 212.27800,52.337100 212.10500,52.323900 C 211.93200,52.310700 211.64000,52.084600 211.54700,51.991400 C 211.07400,51.519200 210.20900,52.177400 209.87200,52.563100 C 209.68600,52.775500 209.04800,53.387400 208.84800,53.547000 C 208.64900,53.706200 208.72900,53.932300 209.06100,53.626600 C 209.39300,53.321000 209.50000,53.533400 209.19400,53.759400 C 208.88800,53.985500 208.66200,54.317500 208.76900,54.437700 C 208.87500,54.557300 209.28700,54.410800 209.51300,54.264800 C 209.73900,54.118300 209.84500,54.477200 209.28700,54.596800 C 208.91200,54.677400 208.78100,54.832200 209.07400,54.849300 C 209.30000,54.863000 209.64600,54.756500 209.96500,54.570500 C 210.28400,54.383900 210.53600,54.490400 210.27100,54.676900 C 210.00500,54.863000 209.42000,55.115400 209.12800,55.115400 z "
           id="path74" />
      </g>
      <g
         id="g76">
        <path
           style="fill:#6621ff;stroke:none"
           d="M 210.47000,52.589500 C 210.78900,52.219400 211.06800,52.057800 211.36000,52.323900 C 211.62500,52.564600 211.65300,52.669600 211.32100,52.589500 C 210.98800,52.509900 210.76200,52.589500 210.56300,52.828800 C 210.36300,53.068500 210.13800,52.975300 210.47000,52.589500 z "
           id="path78" />
        <path
           style="fill:#6621ff;stroke:none"
           d="M 205.20600,53.560200 C 205.44600,53.294100 205.83100,53.294100 206.00400,53.001600 C 206.17600,52.709100 206.36300,52.815600 206.15000,53.094900 C 205.93700,53.374200 205.52500,53.427400 205.35200,53.626600 C 205.17900,53.825800 205.08600,53.693000 205.20600,53.560200 z "
           id="path80" />
        <path
           style="fill:#6621ff;stroke:none"
           d="M 206.69500,52.496700 C 206.83900,52.474300 207.12000,52.283900 207.29300,52.057800 C 207.46600,51.832200 207.83800,51.752100 208.06400,52.018200 C 208.29000,52.283900 208.40900,52.377100 208.52900,52.430300 C 208.64900,52.483600 208.64900,52.656400 208.46300,52.709100 C 208.27700,52.762400 208.02400,52.802400 207.89100,52.736000 C 207.75800,52.669600 207.55900,52.616400 207.39900,52.656400 C 207.24000,52.696000 207.17400,52.616400 207.30600,52.550000 C 207.43900,52.483600 207.59900,52.283900 207.67800,52.204300 C 207.75800,52.124700 207.97100,52.191100 207.85100,52.270700 C 207.73200,52.350700 207.78500,52.523100 207.90400,52.589500 C 208.02400,52.656400 208.26300,52.656400 208.37000,52.536800 C 208.21000,52.363900 207.94500,52.137900 207.83800,52.071400 C 207.73200,52.005000 207.63900,51.978200 207.50600,52.137900 C 207.37300,52.297500 207.05400,52.682800 206.74800,52.669600 C 206.44200,52.656400 206.52200,52.523100 206.69500,52.496700 z "
           id="path82" />
        <path
           style="fill:#6621ff;stroke:none"
           d="M 215.09600,55.029000 C 214.97800,55.212100 214.87000,55.447900 214.85700,55.633900 C 214.84300,55.820000 214.99600,55.946400 215.01600,55.713500 C 215.03600,55.481100 215.05600,55.341500 215.22200,55.168600 C 215.38800,54.995800 215.22900,54.822900 215.09600,55.029000 z "
           id="path84" />
        <path
           style="fill:#6621ff;stroke:none"
           d="M 213.46700,55.008900 C 213.60600,54.946400 213.83900,54.802900 213.95300,54.670100 C 214.06600,54.537300 214.13900,54.623700 214.02600,54.769700 C 213.91300,54.916200 213.65400,55.089000 213.53400,55.128600 C 213.41400,55.168600 213.32100,55.075400 213.46700,55.008900 z "
           id="path86" />
        <path
           style="fill:#6621ff;stroke:none"
           d="M 213.67400,55.806300 C 213.48300,56.073900 212.73000,56.710600 212.50400,56.830200 C 212.27800,56.949900 212.35800,57.122700 212.61000,57.029500 C 212.42400,57.202300 212.01200,57.481600 211.74600,57.561200 C 211.48000,57.640800 211.42700,57.880000 211.82600,57.734000 C 212.22500,57.588000 212.78300,57.202300 212.92900,57.029500 C 213.07500,56.856600 212.88900,56.777000 213.11500,56.591000 C 213.34100,56.404900 213.75900,56.065100 213.82000,55.925900 C 213.91300,55.713500 213.80600,55.620300 213.67400,55.806300 z "
           id="path88" />
        <path
           style="fill:#6621ff;stroke:none"
           d="M 212.84900,57.973300 C 213.13500,57.811700 213.66600,57.238400 213.82000,56.909800 C 213.91300,56.710600 214.09900,56.737000 213.95300,57.042600 C 213.80600,57.348300 213.26100,57.893700 213.07500,58.039700 C 212.88900,58.185700 212.54400,58.146200 212.84900,57.973300 z "
           id="path90" />
        <path
           style="fill:#6621ff;stroke:none"
           d="M 218.89800,54.822900 C 218.82000,55.009900 218.80400,55.447900 218.83100,55.660300 C 218.85800,55.873200 219.01700,56.032400 218.99000,55.713500 C 218.96400,55.394700 218.96400,55.075400 219.05700,54.982600 C 219.15000,54.889300 219.03000,54.504100 218.89800,54.822900 z "
           id="path92" />
        <path
           style="fill:#6621ff;stroke:none"
           d="M 220.51900,55.607100 C 220.65400,55.751600 220.71800,56.431300 220.70500,56.683800 C 220.69200,56.936700 220.91800,56.936700 220.90400,56.577300 C 220.89100,56.218900 220.86500,55.766800 220.74500,55.527500 C 220.62600,55.288200 220.33300,55.407900 220.51900,55.607100 z "
           id="path94" />
        <path
           style="fill:#6621ff;stroke:none"
           d="M 221.94200,56.046100 C 222.02400,56.219400 222.12800,56.550900 222.12800,56.790200 C 222.12800,57.029500 222.30000,56.923000 222.31400,56.644200 C 222.32700,56.364900 222.28700,56.125600 222.19400,55.939600 C 222.10100,55.753600 221.82200,55.793100 221.94200,56.046100 z "
           id="path96" />
        <path
           style="fill:#6621ff;stroke:none"
           d="M 222.81900,55.820000 C 222.74700,55.615900 222.63300,55.434200 222.55300,55.461100 C 222.47300,55.487500 222.52700,55.673500 222.63300,55.873200 C 222.73900,56.072400 222.89900,56.046100 222.81900,55.820000 z "
           id="path98" />
        <path
           style="fill:#6621ff;stroke:none"
           d="M 217.26200,57.321900 C 217.22300,57.878600 216.97000,58.372200 216.66400,58.545100 C 216.35900,58.717900 216.41200,58.996700 216.78400,58.717900 C 217.15600,58.438600 217.43500,57.960100 217.51500,57.534800 C 217.59500,57.109000 217.28900,56.949900 217.26200,57.321900 z "
           id="path100" />
        <path
           style="fill:#6621ff;stroke:none"
           d="M 216.59800,57.069500 C 216.43900,57.255500 216.34500,57.654500 216.34500,57.960100 C 216.34500,58.265800 216.45200,58.039700 216.47800,57.866900 C 216.50500,57.694000 216.55800,57.454700 216.69100,57.375200 C 216.82400,57.295100 216.75700,56.883500 216.59800,57.069500 z "
           id="path102" />
        <path
           style="fill:#6621ff;stroke:none"
           d="M 228.11000,57.454700 C 228.25000,57.723800 228.45500,58.159300 228.52200,58.411800 C 228.58800,58.664700 228.42800,58.731100 228.37500,58.505000 C 228.32200,58.279000 228.07000,57.774100 227.97600,57.601200 C 227.88300,57.428400 227.95000,57.149100 228.11000,57.454700 z "
           id="path104" />
      </g>
    </g>
    <path
       style="fill:#00b800;stroke:#000000;stroke-width:0.12500000"
       d="M 229.64900,69.551900 C 230.69000,69.587100 232.00500,69.175500 232.68900,68.524100 C 232.27000,68.350700 231.75600,68.271600 231.24600,68.281400 C 231.49300,68.032400 231.69600,67.758900 231.83100,67.490900 C 231.51500,67.474800 231.17400,67.527000 230.83300,67.617300 C 230.91200,67.360500 230.96300,67.113900 230.97200,66.878100 C 230.68500,66.991400 230.40000,67.168100 230.13200,67.384400 C 230.17000,67.109500 230.17700,66.843400 230.14600,66.602700 C 229.80900,66.807300 229.49200,67.107100 229.22100,67.458700 C 229.23100,67.198900 229.21400,66.942500 229.16400,66.718900 C 228.91800,66.899600 228.68700,67.139300 228.48500,67.413200 C 228.42300,67.047000 228.31700,66.704300 228.16600,66.425900 C 227.75200,66.959600 227.48800,67.846800 227.42400,68.573900 C 227.43000,68.332200 227.40700,68.095400 227.37600,67.856100 C 227.57000,67.394200 227.69000,66.943500 227.72400,66.539700 C 227.53000,66.642200 227.34600,66.767700 227.15600,66.919600 C 227.04400,66.605600 226.90800,66.314600 226.73200,66.074400 C 226.53000,66.426400 226.40000,66.862500 226.33500,67.314600 C 226.30200,66.895200 226.21500,66.498700 226.06700,66.177400 C 225.65800,66.641800 225.35800,67.334100 225.22800,68.001100 C 225.32100,67.387400 225.32100,66.796100 225.21200,66.347800 C 224.94200,66.631500 224.67000,67.038200 224.42500,67.485500 C 224.30600,67.128600 224.16200,66.809200 223.98900,66.546500 C 223.77600,67.028000 223.66000,67.643200 223.62900,68.261900 C 223.56300,67.592000 223.41500,66.953300 223.18200,66.488900 C 222.85100,67.040700 222.64500,67.860500 222.57600,68.654900 C 222.49700,68.442500 222.40500,68.225700 222.30900,68.020200 C 222.44100,67.529900 222.49700,67.046100 222.44300,66.649100 C 222.23900,66.774600 222.03200,66.951800 221.84400,67.151500 C 221.64100,66.836100 221.41700,66.571000 221.19700,66.374200 C 221.12500,66.826300 221.15200,67.383900 221.25300,67.950400 C 221.18200,68.067500 221.11300,68.175500 221.05200,68.294600 C 220.98100,67.598800 220.81600,66.928400 220.55600,66.443500 C 220.28800,66.926900 220.11300,67.565100 220.03200,68.209100 C 220.00000,67.610000 219.88400,67.039700 219.70800,66.648100 C 219.50300,66.940100 219.34700,67.304400 219.24000,67.689600 C 219.29100,67.163200 219.25600,66.647600 219.11700,66.232600 C 218.88000,66.448900 218.66400,66.728700 218.48700,67.040700 C 218.49500,66.723800 218.46300,66.421100 218.39100,66.156900 C 218.05300,66.431300 217.75700,66.830200 217.52600,67.263300 C 217.43600,66.885900 217.30400,66.540700 217.12600,66.263800 C 216.90100,66.605100 216.74200,67.046100 216.64900,67.497200 C 216.66300,67.270700 216.65600,67.060200 216.62300,66.860500 C 216.31500,67.062700 216.02900,67.356600 215.78300,67.688100 C 215.79600,67.240900 215.74800,66.814100 215.62200,66.461100 C 215.22500,66.838000 214.90700,67.404000 214.70700,67.981600 C 214.69800,67.520200 214.62500,67.081200 214.47500,66.725700 C 214.10100,67.122700 213.81200,67.704300 213.64500,68.290200 C 213.56300,67.878100 213.42600,67.498700 213.24100,67.196900 C 212.93700,67.637900 212.68800,68.226700 212.60800,68.820500 C 212.75400,68.253600 212.74200,67.662300 212.64800,67.190600 C 212.48500,67.306300 212.32900,67.449400 212.18200,67.609500 C 212.07900,67.392200 211.96100,67.197400 211.82600,67.032400 C 211.65800,67.363000 211.54900,67.765800 211.49900,68.179400 C 211.46200,67.696000 211.35100,67.240900 211.16900,66.881000 C 210.91100,67.196400 210.71200,67.604200 210.57400,68.041700 C 210.46700,67.493800 210.27600,66.973800 210.00500,66.600700 C 209.82100,66.918600 209.69100,67.309700 209.61800,67.716000 C 209.51900,67.147100 209.32500,66.611500 209.05000,66.223800 C 208.84800,66.562700 208.71800,66.982600 208.64400,67.420100 C 208.41900,66.934200 208.12900,66.498200 207.79500,66.208200 C 207.65100,66.678900 207.63700,67.250200 207.71500,67.798000 C 207.35800,67.153500 206.86100,66.570000 206.33900,66.263800 C 206.29900,66.617300 206.33700,67.004100 206.42600,67.392700 C 206.09500,67.185700 205.75400,67.026000 205.43100,66.953800 C 205.62500,67.924000 206.47400,69.007500 207.23300,69.442500 C 210.40400,70.867300 227.99800,71.479700 229.64900,69.551900 z "
       id="path106" />
    <g
       id="g108">
      <path
         style="fill:#ffffff;stroke:#000000;stroke-width:0.12500000"
         d="M 217.32400,83.415700 C 218.06900,83.415700 219.10100,83.598800 220.41700,84.213000 C 222.01200,84.957700 224.93700,84.478700 226.00000,83.734500 C 227.06400,82.989900 229.70800,82.724300 231.20700,84.059700 C 232.08900,82.596800 232.79100,81.056800 233.31800,79.479200 C 231.67500,78.896200 228.65900,77.673000 226.58500,78.842900 C 224.51100,80.012900 221.69300,80.331700 220.94900,79.906400 C 220.20500,79.481100 218.81300,78.417200 217.32400,78.417200 C 215.83600,78.417200 214.44500,79.481100 213.70000,79.906400 C 212.95600,80.331700 210.13800,80.012900 208.06400,78.842900 C 205.99000,77.673000 202.96000,78.896200 201.31600,79.479200 C 201.84400,81.056800 202.54600,82.596800 203.42800,84.059700 C 204.92700,82.724300 207.58600,82.989900 208.64900,83.734500 C 209.71200,84.478700 212.63700,84.957700 214.23200,84.213000 C 215.54800,83.598800 216.58000,83.415700 217.32400,83.415700 z "
         id="path110" />
      <path
         style="fill:#ffffff;stroke:#000000;stroke-width:0.12500000"
         d="M 217.32400,73.685200 C 218.70700,73.685200 219.62000,74.110500 220.20500,74.429800 C 221.83800,75.320500 224.88300,74.535800 226.26600,73.472800 C 227.64900,72.409300 229.03100,72.728200 231.05100,74.004100 C 232.10000,74.666700 233.32400,75.232100 234.31700,75.232100 C 234.47100,74.129100 234.54800,73.024600 234.54800,71.930800 L 234.54800,70.760900 C 233.11200,70.760900 232.16800,70.494800 230.83900,69.485000 C 229.50900,68.474300 226.95700,67.676900 225.09600,69.059200 C 223.23500,70.442100 220.95400,69.902000 219.88500,69.218900 C 218.92800,68.607600 217.90900,68.155400 217.32400,68.155400 C 216.73900,68.155400 215.72000,68.607600 214.76300,69.218900 C 213.69500,69.902000 211.41400,70.442100 209.55300,69.059200 C 207.69200,67.676900 205.14000,68.474300 203.81000,69.485000 C 202.48100,70.494800 201.52400,70.760900 200.08800,70.760900 L 200.08800,71.930800 C 200.08800,73.024600 200.16400,74.129100 200.31800,75.232100 C 201.31100,75.232100 202.54900,74.666700 203.59800,74.004100 C 205.61800,72.728200 207.00100,72.409300 208.38300,73.472800 C 209.76500,74.535800 212.81100,75.320500 214.44500,74.429800 C 215.02900,74.110500 215.94200,73.685200 217.32400,73.685200 z "
         id="path112" />
      <path
         style="fill:#ffffff;stroke:#000000;stroke-width:0.12500000"
         d="M 217.32000,94.368800 C 220.58100,93.437200 223.34500,92.019200 225.64400,90.263300 C 223.85700,90.274600 221.58700,89.796100 220.63000,89.051900 C 219.67300,88.307300 218.24400,87.988400 217.32500,87.988400 C 216.40600,87.988400 214.97600,88.307300 214.01900,89.051900 C 213.06200,89.796100 210.77600,90.274600 208.98900,90.263300 C 211.28800,92.019200 214.05900,93.437200 217.32000,94.368800 z "
         id="path114" />
    </g>
    <g
       id="g116">
      <g
         id="g118">
        <path
           style="fill:#ffef7c;stroke:#000000;stroke-width:0.12500000"
           d="M 206.04600,82.261400 C 206.21700,82.904000 205.83100,83.006000 205.66100,82.363900 L 204.78700,79.074900 C 204.61600,78.432800 205.00200,78.330200 205.17300,78.972800 L 206.04600,82.261400 z "
           id="path120" />
        <path
           style="fill:#ffef7c;stroke:#000000;stroke-width:0.12500000"
           d="M 207.37400,81.608600 C 206.01700,81.129100 204.31600,80.504600 202.68000,79.919600 C 202.24300,79.763300 202.06000,79.913200 202.57700,80.125600 C 204.50200,80.916700 205.48500,81.328300 207.08300,81.953800"
           id="path122" />
        <path
           style="fill:#ffef7c;stroke:#000000;stroke-width:0.12500000"
           d="M 211.89200,83.574900 C 211.89200,78.576800 211.95900,72.422500 211.95900,71.438600 C 211.95900,70.650100 211.59400,70.517200 211.58700,71.438600 C 211.56000,74.788200 211.44000,79.587100 211.36000,83.229700"
           id="path124" />
        <path
           style="fill:#ffef7c;stroke:#000000;stroke-width:0.12500000"
           d="M 217.74100,86.765300 C 217.74100,81.767200 217.80700,70.827300 217.80700,69.843900 C 217.80700,69.054800 217.44200,68.922000 217.43500,69.843900 C 217.40900,73.193500 217.28900,82.777500 217.20900,86.419600"
           id="path126" />
        <path
           style="fill:#ffef7c;stroke:#000000;stroke-width:0.12500000"
           d="M 223.36100,85.437700 C 223.43900,80.440100 223.58200,72.113400 223.59700,71.130000 C 223.61000,70.341500 223.24700,70.202800 223.22500,71.124200 C 223.14700,74.472800 222.95500,81.742300 222.81900,85.383000"
           id="path128" />
        <path
           style="fill:#ffef7c;stroke:#000000;stroke-width:0.12500000"
           d="M 227.96700,80.517200 C 227.98500,79.098300 227.99800,78.041200 228.00200,77.758500 C 228.00600,77.393200 227.79000,77.287300 227.78200,77.754100 C 227.76900,78.493300 227.75000,79.476200 227.72900,80.570500"
           id="path130" />
        <path
           style="fill:#ffef7c;stroke:#000000;stroke-width:0.12500000"
           d="M 209.57100,83.396600 C 210.18200,90.947400 224.49400,92.574400 227.79000,83.110000 L 224.49400,83.096400 C 221.72900,87.722300 214.71000,86.818500 211.89200,83.574900 C 211.89200,83.309200 211.83800,83.125600 211.36000,82.963500 C 209.91200,82.471800 208.76900,82.032900 207.51900,81.567500 C 207.01400,81.380000 206.56200,82.272600 207.33300,82.578300 C 207.22700,82.950400 207.62500,83.402000 208.13100,83.242800 C 208.34300,83.402000 208.68900,83.335600 208.84800,83.123200 C 209.07600,83.194000 209.31800,83.320500 209.57100,83.396600 z "
           id="path132" />
        <path
           style="fill:#ffef7c;stroke:#000000;stroke-width:0.12500000"
           d="M 224.70600,83.256000 L 229.65200,83.096400 C 230.31600,83.096400 230.25000,82.365400 229.79800,82.365400 C 230.09000,81.488000 230.27600,80.810200 230.39600,80.424500 C 230.74100,80.291700 230.79500,79.759900 230.07700,79.906400 L 224.97200,80.889800 C 224.60000,80.983100 224.57300,81.275500 224.81300,81.421500 C 224.74600,81.767200 224.61300,82.445000 224.56000,82.684200 C 224.20100,82.777500 224.20100,83.282400 224.70600,83.256000 z "
           id="path134" />
      </g>
      <g
         id="g136">
        <path
           style="fill:#ffffff;stroke:#000000;stroke-width:0.12500000"
           d="M 209.95100,73.711600 L 213.88600,72.462100 C 213.88600,73.179800 213.11500,73.698400 212.55700,73.525500 C 212.37100,74.057300 211.77300,74.310200 211.13400,73.844900 C 210.88200,73.977700 210.23100,74.004100 209.95100,73.711600 z "
           id="path138" />
        <path
           style="fill:#ffffff;stroke:#000000;stroke-width:0.12500000"
           d="M 214.47100,73.977700 L 209.26000,75.572900 C 208.88800,76.689600 208.96800,77.992300 209.71200,78.710100 C 210.51000,77.380500 212.34400,77.088000 213.80600,77.699400 C 213.00900,76.795600 213.67400,75.067500 214.47100,73.977700 z "
           id="path140" />
        <path
           style="fill:#ffffff;stroke:#000000;stroke-width:0.12500000"
           d="M 214.44500,77.726200 L 209.15400,79.135400 C 209.44700,79.587100 210.35000,79.826300 210.72200,79.587100 C 211.62600,80.278500 212.79600,79.693500 213.07500,79.015800 C 213.80600,79.082200 214.41800,78.510400 214.44500,77.726200 z "
           id="path142" />
        <path
           style="fill:#ffffff;stroke:#000000;stroke-width:0.12500000"
           d="M 219.76100,71.013300 L 215.30800,72.382500 C 215.76000,72.874200 216.49100,72.980600 216.89000,72.701800 C 217.42200,73.219900 218.11300,72.954300 218.36600,72.422500 C 219.23000,72.529000 219.76100,71.784300 219.76100,71.013300 z "
           id="path144" />
        <path
           style="fill:#ffffff;stroke:#000000;stroke-width:0.12500000"
           d="M 220.50600,72.781400 L 215.45500,74.137400 C 215.02900,75.626100 214.89700,77.407400 215.77400,78.470400 C 216.33200,77.221400 218.32600,76.662800 219.94700,77.753100 C 218.59200,76.716000 219.15000,74.669100 220.50600,72.781400 z "
           id="path146" />
        <path
           style="fill:#ffffff;stroke:#000000;stroke-width:0.12500000"
           d="M 219.94700,77.992300 L 215.33500,78.789700 C 215.49400,79.281400 216.17300,79.347800 216.46500,79.122200 C 217.07600,79.813100 218.02000,79.773100 218.51200,79.042200 C 219.00400,79.255000 219.72200,78.896200 219.94700,77.992300 z "
           id="path148" />
        <path
           style="fill:#ffffff;stroke:#000000;stroke-width:0.12500000"
           d="M 225.34400,71.890800 L 221.27700,73.140300 C 221.57000,73.472800 222.11400,73.605600 222.47300,73.353200 C 223.04500,73.685200 223.97500,73.353200 224.21400,72.807800 C 224.74600,72.914200 225.30500,72.382500 225.34400,71.890800 z "
           id="path150" />
        <path
           style="fill:#ffffff;stroke:#000000;stroke-width:0.12500000"
           d="M 225.58400,73.446000 L 221.06400,74.535800 C 220.34600,75.918600 220.16000,77.939100 220.85200,79.029000 C 221.83500,77.487000 224.38700,77.221400 225.50400,78.045100 C 224.86600,77.035300 224.52000,74.669100 225.58400,73.446000 z "
           id="path152" />
        <path
           style="fill:#ffffff;stroke:#000000;stroke-width:0.12500000"
           d="M 225.53000,78.258000 L 220.32000,79.188600 C 220.63900,79.906400 221.57000,79.932800 221.98200,79.680300 C 222.79200,80.158900 223.74900,80.052400 224.13500,79.281400 C 224.80000,79.414700 225.46400,79.122200 225.53000,78.258000 z "
           id="path154" />
      </g>
      <g
         id="g156">
        <path
           style="fill:#ffffff;stroke:#000000;stroke-width:0.12500000"
           d="M 211.58700,71.332700 C 210.88200,71.784300 209.65900,71.239400 209.39300,72.555300 C 210.03100,72.130000 211.29400,72.641800 211.57300,72.455700 C 211.58000,72.056800 211.58000,71.545100 211.58700,71.332700 z "
           id="path158" />
        <path
           style="fill:#ffffff;stroke:#000000;stroke-width:0.12500000"
           d="M 217.43500,69.737500 C 216.73100,70.189100 215.50800,69.644200 215.24200,70.960100 C 215.88000,70.534800 217.14300,71.046500 217.42200,70.860500 C 217.42800,70.461600 217.42800,69.949900 217.43500,69.737500 z "
           id="path160" />
        <path
           style="fill:#ffffff;stroke:#000000;stroke-width:0.12500000"
           d="M 223.22700,71.017700 C 222.51500,71.458700 221.30100,70.894700 221.01500,72.206700 C 221.65900,71.791200 222.91400,72.322400 223.19600,72.140800 C 223.20900,71.742300 223.21700,71.230100 223.22700,71.017700 z "
           id="path162" />
        <path
           style="fill:#ffffff;stroke:#000000;stroke-width:0.12500000"
           d="M 227.78300,77.670600 C 227.22500,78.016300 226.27300,77.573900 226.04800,78.602700 C 226.55400,78.277000 227.53800,78.694000 227.75900,78.550900 C 227.76900,78.238400 227.77500,77.837100 227.78300,77.670600 z "
           id="path164" />
      </g>
      <g
         id="g166">
        <path
           style="fill:#000000;stroke:none"
           d="M 225.23800,81.680800 L 225.23800,82.591500 L 225.78300,82.525100 L 225.78300,81.574400 L 225.23800,81.680800 z "
           id="path168" />
        <path
           style="fill:#000000;stroke:none"
           d="M 226.17500,81.494800 L 226.17500,82.478700 L 226.71400,82.405400 L 226.71400,81.388300 L 226.17500,81.494800 z "
           id="path170" />
        <path
           style="fill:#000000;stroke:none"
           d="M 227.10600,81.315100 L 227.10600,82.358600 L 227.65100,82.292200 L 227.65100,81.209100 L 227.10600,81.315100 z "
           id="path172" />
        <path
           style="fill:#000000;stroke:none"
           d="M 228.04300,81.135900 L 228.04300,82.239400 L 228.58800,82.173000 L 228.58800,81.023100 L 228.04300,81.135900 z "
           id="path174" />
        <path
           style="fill:#000000;stroke:none"
           d="M 228.98000,80.943000 L 228.98000,82.119800 L 229.51800,82.052900 L 229.51800,80.843400 L 228.98000,80.943000 z "
           id="path176" />
      </g>
      <g
         id="g178">
        <path
           style="fill:none;stroke:#000000;stroke-width:0.12500000"
           d="M 209.57100,83.396600 C 210.32400,83.654900 210.44300,83.707700 211.08100,83.933800 C 211.04200,84.439100 211.97200,85.302900 212.95600,85.728700"
           id="path180" />
        <path
           style="fill:none;stroke:#000000;stroke-width:0.12500000"
           d="M 225.34400,84.478700 C 222.95200,88.520200 214.81700,90.527000 209.92500,83.561700 C 213.06200,91.058800 222.68600,90.221400 226.30100,84.904500"
           id="path182" />
        <path
           style="fill:none;stroke:#000000;stroke-width:0.12500000"
           d="M 224.70600,83.256000 C 224.75900,83.973800 225.23800,84.638300 226.43500,84.930800"
           id="path184" />
        <path
           style="fill:none;stroke:#000000;stroke-width:0.12500000"
           d="M 224.83900,83.841000 C 224.57900,84.191100 224.26400,84.529500 223.92600,84.842000"
           id="path186" />
        <path
           style="fill:none;stroke:#000000;stroke-width:0.12500000"
           d="M 223.41300,85.284800 C 222.89500,85.701800 222.36300,86.049500 221.91500,86.286800"
           id="path188" />
        <path
           style="fill:none;stroke:#000000;stroke-width:0.12500000"
           d="M 207.33300,82.578300 C 207.54600,82.664700 207.84400,82.385400 207.71200,82.113000"
           id="path190" />
        <path
           style="fill:none;stroke:#000000;stroke-width:0.12500000"
           d="M 208.13100,83.242800 C 208.31700,83.196400 208.44900,82.817500 208.25700,82.624700"
           id="path192" />
        <path
           style="fill:none;stroke:#000000;stroke-width:0.12500000"
           d="M 208.84800,83.123200 C 208.94800,83.016800 208.98100,82.624700 208.74900,82.551400"
           id="path194" />
        <path
           style="fill:none;stroke:#000000;stroke-width:0.12500000"
           d="M 218.43200,86.560700 C 218.04500,86.560700 218.04500,87.137400 218.43200,87.137400 C 218.82000,87.137400 218.82500,86.560700 218.43200,86.560700 z "
           id="path196" />
        <path
           style="fill:none;stroke:#000000;stroke-width:0.12500000"
           d="M 221.64900,86.082200 C 221.26200,86.082200 221.26200,86.658900 221.64900,86.658900 C 222.03600,86.658900 222.04200,86.082200 221.64900,86.082200 z "
           id="path198" />
        <path
           style="fill:none;stroke:#000000;stroke-width:0.12500000"
           d="M 223.69600,84.806300 C 223.30900,84.806300 223.30900,85.383000 223.69600,85.383000 C 224.08300,85.383000 224.08900,84.806300 223.69600,84.806300 z "
           id="path200" />
        <path
           style="fill:none;stroke:#000000;stroke-width:0.12500000"
           d="M 215.08300,86.002600 C 214.69600,86.002600 214.69600,86.579300 215.08300,86.579300 C 215.46900,86.579300 215.47500,86.002600 215.08300,86.002600 z "
           id="path202" />
        <path
           style="fill:none;stroke:#000000;stroke-width:0.12500000"
           d="M 212.50400,84.726200 C 212.11600,84.726200 212.11600,85.302900 212.50400,85.302900 C 212.89100,85.302900 212.89600,84.726200 212.50400,84.726200 z "
           id="path204" />
      </g>
      <g
         id="g206">
        <path
           style="fill:none;stroke:#000000;stroke-width:0.031199999"
           d="M 202.96000,80.012900 L 209.97800,73.711600 L 210.03100,75.306800"
           id="path208" />
        <path
           style="fill:none;stroke:#000000;stroke-width:0.031199999"
           d="M 204.90100,80.703800 L 211.70600,74.801900"
           id="path210" />
        <path
           style="fill:none;stroke:#000000;stroke-width:0.031199999"
           d="M 204.92700,78.576800 L 208.88800,82.086100"
           id="path212" />
        <path
           style="fill:none;stroke:#000000;stroke-width:0.031199999"
           d="M 202.96000,80.278500 L 205.99000,82.803900 L 207.34600,82.777500"
           id="path214" />
        <path
           style="fill:none;stroke:#000000;stroke-width:0.031199999"
           d="M 209.18000,79.161800 L 210.93500,82.830700"
           id="path216" />
        <path
           style="fill:none;stroke:#000000;stroke-width:0.031199999"
           d="M 210.66900,79.613900 L 209.87200,82.431800"
           id="path218" />
        <path
           style="fill:none;stroke:#000000;stroke-width:0.031199999"
           d="M 210.96800,79.733600 L 210.43000,82.631500"
           id="path220" />
        <path
           style="fill:none;stroke:#000000;stroke-width:0.031199999"
           d="M 211.26800,79.853200 L 210.98800,82.830700"
           id="path222" />
        <path
           style="fill:none;stroke:#000000;stroke-width:0.031199999"
           d="M 212.13200,79.826300 L 212.63700,84.299500"
           id="path224" />
        <path
           style="fill:none;stroke:#000000;stroke-width:0.031199999"
           d="M 212.37800,79.719900 L 213.30100,84.798000"
           id="path226" />
        <path
           style="fill:none;stroke:#000000;stroke-width:0.031199999"
           d="M 212.61000,79.560700 L 213.93900,85.170100"
           id="path228" />
        <path
           style="fill:none;stroke:#000000;stroke-width:0.031199999"
           d="M 211.02800,82.431800 C 210.90800,82.445000 210.57600,82.378600 210.49600,82.285800 C 210.33700,82.312200 210.08400,82.245800 209.96500,82.139300"
           id="path230" />
        <path
           style="fill:none;stroke:#000000;stroke-width:0.031199999"
           d="M 211.09900,81.660800 C 210.98400,81.670100 210.70000,81.630000 210.63400,81.545600 C 210.49200,81.558800 210.26600,81.506000 210.16900,81.417200"
           id="path232" />
        <path
           style="fill:none;stroke:#000000;stroke-width:0.031199999"
           d="M 211.17000,80.889800 C 211.05900,80.894200 210.82400,80.881000 210.77100,80.805800 C 210.64700,80.805800 210.44800,80.765800 210.37200,80.695000"
           id="path234" />
        <path
           style="fill:none;stroke:#000000;stroke-width:0.031199999"
           d="M 211.24100,80.118800 C 211.13400,80.118800 210.94800,80.132500 210.90800,80.065600 C 210.80200,80.052400 210.63000,80.026000 210.57600,79.972800"
           id="path236" />
        <path
           style="fill:none;stroke:#000000;stroke-width:0.031199999"
           d="M 212.16500,80.078800 C 212.22500,80.099300 212.37100,80.072400 212.43700,80.039200 C 212.51700,80.052400 212.65000,80.019200 212.70300,79.966000"
           id="path238" />
        <g
           id="g240">
          <path
             style="fill:none;stroke:#000000;stroke-width:0.031199999"
             d="M 212.25800,80.909800 C 212.32500,80.937700 212.51700,80.923000 212.59000,80.882000 C 212.67000,80.902000 212.84200,80.872700 212.90600,80.817100"
             id="path242" />
          <path
             style="fill:none;stroke:#000000;stroke-width:0.031199999"
             d="M 212.35100,81.740900 C 212.42600,81.776500 212.66300,81.774100 212.74300,81.724800 C 212.82300,81.751100 213.03500,81.726200 213.11000,81.667600"
             id="path244" />
          <path
             style="fill:none;stroke:#000000;stroke-width:0.031199999"
             d="M 212.44400,82.571400 C 212.52800,82.615400 212.80900,82.624700 212.89600,82.567500 C 212.97600,82.600700 213.22800,82.579300 213.31300,82.518200"
             id="path246" />
          <path
             style="fill:none;stroke:#000000;stroke-width:0.031199999"
             d="M 212.53700,83.402000 C 212.62900,83.453800 212.95500,83.475300 213.04900,83.410300 C 213.12900,83.450400 213.42100,83.432800 213.51600,83.368800"
             id="path248" />
        </g>
        <path
           style="fill:none;stroke:#000000;stroke-width:0.031199999"
           d="M 212.63000,84.233100 C 212.73000,84.292600 213.10200,84.326300 213.20100,84.253100 C 213.28100,84.299500 213.61300,84.286300 213.72000,84.219900"
           id="path250" />
        <g
           id="g252">
          <path
             style="fill:none;stroke:#000000;stroke-width:0.031199999"
             d="M 214.48500,85.436200 L 216.49100,79.161800"
             id="path254" />
          <path
             style="fill:none;stroke:#000000;stroke-width:0.031199999"
             d="M 215.18900,85.721800 L 216.66400,79.294600"
             id="path256" />
          <path
             style="fill:none;stroke:#000000;stroke-width:0.031199999"
             d="M 215.90700,85.941100 L 216.83700,79.427900"
             id="path258" />
          <path
             style="fill:none;stroke:#000000;stroke-width:0.031199999"
             d="M 214.64400,84.970900 C 214.75000,85.077300 215.17500,85.183300 215.32200,85.143700 C 215.44200,85.276500 215.81400,85.329700 216.00000,85.276500"
             id="path260" />
          <g
             id="g262">
            <path
               style="fill:none;stroke:#000000;stroke-width:0.031199999"
               d="M 214.92700,84.079300 C 215.02200,84.174500 215.39800,84.268700 215.53000,84.233100 C 215.63600,84.351700 215.96700,84.398100 216.13200,84.351700"
               id="path264" />
            <path
               style="fill:none;stroke:#000000;stroke-width:0.031199999"
               d="M 215.21100,83.187700 C 215.29300,83.271600 215.62100,83.353700 215.73800,83.322400 C 215.83100,83.426900 216.11900,83.466500 216.26300,83.426900"
               id="path266" />
            <path
               style="fill:none;stroke:#000000;stroke-width:0.031199999"
               d="M 215.49400,82.295600 C 215.56400,82.368800 215.84300,82.438600 215.94700,82.411800 C 216.02700,82.501600 216.27200,82.534800 216.39500,82.501600"
               id="path268" />
            <path
               style="fill:none;stroke:#000000;stroke-width:0.031199999"
               d="M 215.77800,81.404000 C 215.83600,81.466000 216.06600,81.523600 216.15500,81.501600 C 216.22100,81.576800 216.42500,81.603200 216.52700,81.576800"
               id="path270" />
            <path
               style="fill:none;stroke:#000000;stroke-width:0.031199999"
               d="M 216.06200,80.512400 C 216.10700,80.563100 216.28900,80.608600 216.36300,80.591000 C 216.41600,80.651500 216.57800,80.671500 216.65900,80.651500"
               id="path272" />
          </g>
          <path
             style="fill:none;stroke:#000000;stroke-width:0.031199999"
             d="M 216.34500,79.620300 C 216.37900,79.660300 216.51100,79.693500 216.57200,79.680300 C 216.61100,79.726700 216.73100,79.739900 216.79100,79.726700"
             id="path274" />
        </g>
        <path
           style="fill:none;stroke:#000000;stroke-width:0.031199999"
           d="M 220.51500,86.022100 L 218.60500,79.075400"
           id="path276" />
        <path
           style="fill:none;stroke:#000000;stroke-width:0.031199999"
           d="M 219.70200,86.193500 L 218.39600,79.187700"
           id="path278" />
        <path
           style="fill:none;stroke:#000000;stroke-width:0.031199999"
           d="M 218.89600,86.273600 L 218.19900,79.375200"
           id="path280" />
        <path
           style="fill:none;stroke:#000000;stroke-width:0.031199999"
           d="M 220.36400,85.516800 C 220.24100,85.629600 219.76600,85.728200 219.60600,85.676900 C 219.46700,85.819000 219.05300,85.860500 218.84900,85.793600"
           id="path282" />
        <path
           style="fill:none;stroke:#000000;stroke-width:0.031199999"
           d="M 220.09100,84.516800 C 219.98300,84.617800 219.56100,84.705200 219.41700,84.659800 C 219.29400,84.785800 218.92600,84.822400 218.74600,84.763300"
           id="path284" />
        <path
           style="fill:none;stroke:#000000;stroke-width:0.031199999"
           d="M 219.81800,83.516800 C 219.72300,83.606100 219.35700,83.681800 219.22800,83.642200 C 219.12000,83.753100 218.80000,83.784300 218.64200,83.733600"
           id="path286" />
        <path
           style="fill:none;stroke:#000000;stroke-width:0.031199999"
           d="M 219.54500,82.516800 C 219.46400,82.594400 219.15200,82.658900 219.03900,82.624700 C 218.94700,82.720400 218.67300,82.746300 218.53800,82.703800"
           id="path288" />
        <path
           style="fill:none;stroke:#000000;stroke-width:0.031199999"
           d="M 219.27200,81.516800 C 219.20500,81.582700 218.94700,81.635900 218.85000,81.607100 C 218.77300,81.687700 218.54700,81.707700 218.43500,81.673500"
           id="path290" />
        <path
           style="fill:none;stroke:#000000;stroke-width:0.031199999"
           d="M 218.99800,80.516300 C 218.94600,80.571000 218.74200,80.613000 218.66100,80.589500 C 218.60000,80.654900 218.42000,80.669600 218.33100,80.643700"
           id="path292" />
        <path
           style="fill:none;stroke:#000000;stroke-width:0.031199999"
           d="M 218.72500,79.516300 C 218.68700,79.558800 218.53800,79.590000 218.47200,79.572400 C 218.42600,79.622200 218.29300,79.631500 218.22800,79.613900"
           id="path294" />
        <path
           style="fill:none;stroke:#000000;stroke-width:0.031199999"
           d="M 221.04600,85.862000 L 222.26000,79.820000"
           id="path296" />
        <path
           style="fill:none;stroke:#000000;stroke-width:0.031199999"
           d="M 221.81000,85.555800 L 222.46100,79.886400"
           id="path298" />
        <path
           style="fill:none;stroke:#000000;stroke-width:0.031199999"
           d="M 222.49400,85.170100 L 222.65400,79.942100"
           id="path300" />
        <path
           style="fill:none;stroke:#000000;stroke-width:0.031199999"
           d="M 221.27300,84.776500 C 221.37700,84.861000 221.76200,84.912800 221.88900,84.863000 C 222.00700,84.968900 222.34100,84.978200 222.50000,84.913700"
           id="path302" />
        <path
           style="fill:none;stroke:#000000;stroke-width:0.031199999"
           d="M 221.45600,83.859000 C 221.54700,83.933300 221.88200,83.978700 221.99500,83.934700 C 222.09900,84.027500 222.38900,84.035300 222.52800,83.979700"
           id="path304" />
        <path
           style="fill:none;stroke:#000000;stroke-width:0.031199999"
           d="M 221.63900,82.941100 C 221.71600,83.006000 222.00100,83.044600 222.10100,83.006500 C 222.19000,83.086600 222.43800,83.092400 222.55600,83.046100"
           id="path306" />
        <path
           style="fill:none;stroke:#000000;stroke-width:0.031199999"
           d="M 221.82200,82.023600 C 221.88500,82.078800 222.12100,82.110500 222.20700,82.078300 C 222.28100,82.146200 222.48600,82.149600 222.58500,82.112000"
           id="path308" />
        <path
           style="fill:none;stroke:#000000;stroke-width:0.031199999"
           d="M 222.00400,81.105600 C 222.05500,81.151500 222.24000,81.176400 222.31200,81.150500 C 222.37200,81.205200 222.53500,81.206700 222.61300,81.177900"
           id="path310" />
        <path
           style="fill:none;stroke:#000000;stroke-width:0.031199999"
           d="M 222.18700,80.188100 C 222.22400,80.223800 222.36000,80.242300 222.41800,80.222300 C 222.46300,80.264300 222.58300,80.264300 222.64100,80.244300"
           id="path312" />
        <path
           style="fill:none;stroke:#000000;stroke-width:0.031199999"
           d="M 224.74400,81.001600 L 224.20600,79.288700"
           id="path314" />
        <path
           style="fill:none;stroke:#000000;stroke-width:0.031199999"
           d="M 224.63600,82.300000 L 224.00300,79.500600"
           id="path316" />
        <path
           style="fill:none;stroke:#000000;stroke-width:0.031199999"
           d="M 224.67600,82.012400 C 224.63500,82.016300 224.59800,82.015800 224.57200,82.008900 C 224.49200,82.098300 224.24600,82.131000 224.12300,82.097300"
           id="path318" />
        <path
           style="fill:none;stroke:#000000;stroke-width:0.031199999"
           d="M 224.74400,81.001600 C 224.68600,81.063100 224.45500,81.120300 224.36700,81.097800 C 224.30000,81.173000 224.09600,81.198900 223.99400,81.172000"
           id="path320" />
        <path
           style="fill:none;stroke:#000000;stroke-width:0.031199999"
           d="M 224.46300,80.109000 C 224.41700,80.159800 224.23500,80.204300 224.16100,80.186700 C 224.10800,80.247200 223.94700,80.266800 223.86500,80.246300"
           id="path322" />
        <path
           style="fill:none;stroke:#000000;stroke-width:0.031199999"
           d="M 217.82100,69.724300 L 219.73500,71.053400 L 220.37300,72.807800"
           id="path324" />
        <path
           style="fill:none;stroke:#000000;stroke-width:0.031199999"
           d="M 216.94300,70.893700 L 215.72000,72.249700"
           id="path326" />
        <path
           style="fill:none;stroke:#000000;stroke-width:0.031199999"
           d="M 215.61400,72.675000 L 215.85400,74.030900"
           id="path328" />
        <path
           style="fill:none;stroke:#000000;stroke-width:0.031199999"
           d="M 223.59000,70.973300 L 225.26500,71.904000 L 225.63700,73.419600 L 225.53000,78.231100"
           id="path330" />
        <path
           style="fill:none;stroke:#000000;stroke-width:0.031199999"
           d="M 222.02100,72.063600 L 221.30300,73.127100 L 221.09100,74.535800"
           id="path332" />
        <path
           style="fill:none;stroke:#000000;stroke-width:0.031199999"
           d="M 220.63900,79.135400 C 221.11700,80.597300 222.81900,82.937200 223.85600,83.920600"
           id="path334" />
        <path
           style="fill:none;stroke:#000000;stroke-width:0.031199999"
           d="M 221.01100,79.082200 C 221.57000,80.039200 223.27100,82.617800 224.30200,83.395700 L 223.78700,79.707200"
           id="path336" />
        <path
           style="fill:none;stroke:#000000;stroke-width:0.031199999"
           d="M 220.50600,72.834600 C 221.88800,75.280400 225.55700,79.055300 227.36500,80.438100"
           id="path338" />
        <path
           style="fill:none;stroke:#000000;stroke-width:0.031199999"
           d="M 225.63700,73.419600 C 226.30100,75.067500 228.26900,77.779500 230.39600,79.906400"
           id="path340" />
        <path
           style="fill:none;stroke:#000000;stroke-width:0.031199999"
           d="M 214.49800,74.057300 C 216.14600,77.407400 220.50600,83.468900 222.04800,85.383000"
           id="path342" />
        <path
           style="fill:none;stroke:#000000;stroke-width:0.031199999"
           d="M 207.10700,78.789700 L 206.81500,81.421500"
           id="path344" />
        <path
           style="fill:none;stroke:#000000;stroke-width:0.031199999"
           d="M 211.94600,71.159800 L 213.91300,72.488900 L 214.31200,74.030900"
           id="path346" />
        <path
           style="fill:none;stroke:#000000;stroke-width:0.031199999"
           d="M 209.97800,73.711600 L 210.82900,72.435700"
           id="path348" />
      </g>
    </g>
    <g
       id="g350">
      <path
         style="fill:#00009e;stroke:none"
         d="M 203.85800,93.758000 C 203.46800,94.378100 203.06300,94.413700 202.86200,94.287300 C 202.78000,94.236000 202.75900,94.222800 202.69600,94.182800 C 202.64200,94.149100 202.60300,94.108100 202.64800,94.035300 L 203.58400,92.547000 C 203.63000,92.474800 203.68400,92.492300 203.73800,92.526000 C 203.80100,92.566100 203.82200,92.579300 203.90400,92.631000 C 204.10500,92.757500 204.24800,93.137900 203.85800,93.758000 L 204.31400,94.044600 C 204.78400,93.298500 204.32700,92.746700 203.88200,92.467400 C 203.51500,92.236000 203.01200,91.919600 203.01200,91.919600 L 202.97900,91.973800 C 203.07700,92.061200 203.17900,92.178400 203.08100,92.335100 L 202.23900,93.673500 C 202.14000,93.830200 201.99000,93.788200 201.86900,93.738000 L 201.83500,93.791700 L 202.70500,94.339000 C 203.15000,94.618800 203.84500,94.791200 204.31400,94.044600 L 203.85800,93.758000 z "
         id="path352" />
      <path
         style="fill:#00009e;stroke:none"
         d="M 205.10300,93.573900 C 205.18700,93.408400 205.05700,93.292600 204.93600,93.206700 L 204.96600,93.147600 L 206.70500,94.028500 L 206.39400,94.642700 L 206.31700,94.603700 C 206.50900,94.224300 206.25100,93.913700 206.06700,93.820000 C 205.97300,93.772600 205.86400,93.717400 205.78500,93.677400 C 205.71900,93.643700 205.67100,93.653500 205.58700,93.818500 C 205.52600,93.939600 205.25900,94.465000 205.25900,94.465000 C 205.37500,94.523600 205.65200,94.713000 205.95800,94.303900 L 206.01400,94.332700 L 205.52300,95.301900 L 205.45400,95.267200 C 205.66200,94.746300 205.32400,94.624700 205.20800,94.566100 L 204.87300,95.226700 C 204.79000,95.392200 204.81000,95.436700 204.87700,95.470400 C 204.95600,95.510400 205.06500,95.565600 205.15800,95.613000 C 205.38000,95.725700 205.69800,95.753100 206.07700,95.421100 L 206.16300,95.465000 L 205.70500,96.001600 L 203.96700,95.120800 L 203.99500,95.064100 C 204.13600,95.110500 204.30600,95.147600 204.39000,94.982100 L 205.10300,93.573900 z "
         id="path354" />
      <path
         style="fill:#00009e;stroke:none"
         d="M 207.48500,94.469900 C 207.35900,94.429400 207.18200,94.421500 207.09000,94.643700 C 206.99900,94.863400 207.10200,95.025500 207.40400,95.307300 C 207.62800,95.517200 207.79400,95.807800 207.64700,96.162800 C 207.43200,96.678400 206.91400,96.543100 206.70700,96.457200 C 206.57400,96.402000 206.38100,96.291700 206.27700,96.188600 C 206.21700,96.131000 206.20800,96.117800 206.11800,96.188600 L 206.05700,96.163200 L 206.34200,95.476700 L 206.40400,95.502100 C 206.30600,95.880500 206.42700,96.251600 206.74100,96.382000 C 207.00700,96.492300 207.19900,96.353700 207.25100,96.228700 C 207.33100,96.037300 207.22100,95.847800 206.95300,95.584100 C 206.71900,95.348800 206.55100,95.045600 206.68000,94.737000 C 206.84500,94.338500 207.18200,94.242300 207.52400,94.383900 C 207.71100,94.461600 207.85100,94.592000 207.92400,94.667200 C 207.99100,94.743300 208.03200,94.724300 208.12400,94.627600 L 208.18500,94.653000 L 207.92400,95.280900 L 207.86300,95.255000 C 207.90900,94.768700 207.69200,94.534800 207.48500,94.469900 z "
         id="path356" />
      <path
         style="fill:#00009e;stroke:none"
         d="M 208.53100,96.791200 C 208.47000,96.966500 208.61500,97.063600 208.74600,97.133000 L 208.72500,97.193000 L 207.62600,96.808800 L 207.64700,96.749200 C 207.79000,96.775500 207.96700,96.790200 208.02800,96.615400 L 208.55000,95.121700 C 208.61000,94.946900 208.46300,94.848800 208.33500,94.780400 L 208.35600,94.720400 L 209.45500,95.104200 L 209.43400,95.164200 C 209.28800,95.136900 209.11400,95.123200 209.05300,95.298000 L 208.53100,96.791200 z "
         id="path358" />
      <path
         style="fill:#00009e;stroke:none"
         d="M 210.08600,96.429400 L 210.30500,95.620800 C 210.33000,95.527500 210.42600,95.512900 210.56400,95.544600 C 210.78600,95.599300 210.90600,95.814600 210.82900,96.097800 C 210.75300,96.380500 210.61600,96.555800 210.08600,96.429400 L 210.06600,96.507000 C 210.06600,96.507000 210.10000,96.516300 210.14800,96.529500 L 210.55200,97.724300 L 211.16400,97.889800 L 211.18000,97.828300 C 211.13300,97.812700 211.09800,97.791700 211.08700,97.760400 L 210.70400,96.633900 C 211.02000,96.641800 211.26500,96.530400 211.34200,96.244800 C 211.45000,95.847300 211.09500,95.579700 210.59100,95.443000 L 209.54200,95.159300 L 209.52500,95.223300 C 209.65700,95.282400 209.81200,95.369800 209.76300,95.548500 L 209.35100,97.072900 C 209.30200,97.251600 209.17400,97.262900 209.02600,97.245800 L 209.01000,97.307300 L 210.04300,97.586600 L 210.05900,97.525100 C 209.94700,97.471800 209.82500,97.393200 209.87400,97.214500 L 210.06600,96.507000 L 210.08600,96.429400 z "
         id="path360" />
      <path
         style="fill:#00009e;stroke:none"
         d="M 212.03600,96.135400 C 212.06800,95.952800 211.91000,95.880000 211.77000,95.832200 L 211.78100,95.766800 L 213.69900,96.109000 L 213.57900,96.786800 L 213.49400,96.771600 C 213.56900,96.352700 213.23300,96.130000 213.02900,96.093400 C 212.92500,96.074900 212.80500,96.053400 212.71800,96.038200 C 212.64500,96.025100 212.60100,96.048000 212.56900,96.230600 C 212.54500,96.363400 212.44200,96.943500 212.44200,96.943500 C 212.57000,96.966000 212.88800,97.068000 213.06400,96.588000 L 213.12600,96.599300 L 212.93600,97.668600 L 212.86000,97.655400 C 212.90900,97.096800 212.55000,97.077800 212.42200,97.054800 L 212.29200,97.784300 C 212.25900,97.966500 212.29200,98.003100 212.36500,98.016300 C 212.45300,98.031900 212.57200,98.053400 212.67600,98.071400 C 212.92100,98.115400 213.23300,98.050000 213.50000,97.623200 L 213.59500,97.640300 L 213.31200,98.285800 L 211.39300,97.944000 L 211.40400,97.881500 C 211.55200,97.885400 211.72600,97.871300 211.75800,97.689100 L 212.03600,96.135400 z "
         id="path362" />
      <path
         style="fill:#00009e;stroke:none"
         d="M 214.86800,98.463000 L 214.87200,98.399600 C 214.99500,98.383500 215.13900,98.351700 215.15200,98.164200 L 215.27500,96.390800 L 215.15900,96.382500 C 214.92700,96.366400 214.62700,96.542200 214.60500,96.864900 L 214.53300,96.860000 L 214.57700,96.225700 L 216.51600,96.360500 L 216.47200,96.994800 L 216.40000,96.989900 C 216.42300,96.667200 216.15000,96.451300 215.91800,96.435200 L 215.80200,96.427400 L 215.67900,98.200800 C 215.66600,98.388300 215.80100,98.439600 215.92100,98.472800 L 215.91600,98.535800 L 214.86800,98.463000 z "
         id="path364" />
      <path
         style="fill:#00009e;stroke:none"
         d="M 217.34200,97.501100 L 217.35600,98.256000 C 217.35900,98.441100 217.49800,98.483100 217.64200,98.502600 L 217.64400,98.569000 L 216.55700,98.588500 L 216.55600,98.522100 C 216.70200,98.497700 216.82500,98.451300 216.82200,98.265800 L 216.79300,96.687200 C 216.79000,96.501600 216.66500,96.459600 216.51800,96.440100 L 216.51700,96.376600 L 217.60300,96.357100 L 217.60500,96.420600 C 217.46100,96.445000 217.32300,96.492300 217.32700,96.677400 L 217.33900,97.365900 L 218.13600,97.351200 L 218.12300,96.662800 C 218.12000,96.477700 217.98400,96.435700 217.83700,96.416200 L 217.83600,96.352700 L 218.92200,96.332700 L 218.92400,96.396600 C 218.77700,96.421100 218.65400,96.467900 218.65700,96.653000 L 218.68600,98.232100 C 218.68900,98.417200 218.81400,98.459100 218.96100,98.478700 L 218.96200,98.545100 L 217.87600,98.564600 L 217.87500,98.498200 C 218.02100,98.473300 218.15500,98.426900 218.15200,98.241400 L 218.13800,97.487000 L 217.34200,97.501100 z "
         id="path366" />
      <path
         style="fill:#00009e;stroke:none"
         d="M 219.42700,96.606100 C 219.40700,96.422000 219.23500,96.396600 219.08700,96.390800 L 219.07900,96.324900 L 221.01700,96.111000 L 221.09300,96.795100 L 221.00700,96.804800 C 220.96100,96.381500 220.57500,96.262900 220.36900,96.285300 C 220.26400,96.297000 220.14300,96.310200 220.05500,96.320000 C 219.98100,96.328300 219.94600,96.363000 219.96600,96.547000 C 219.98100,96.681300 220.04600,97.267200 220.04600,97.267200 C 220.17500,97.253100 220.51000,97.260400 220.54200,96.750600 L 220.60600,96.743300 L 220.72500,97.823900 L 220.64800,97.832200 C 220.53700,97.282400 220.18700,97.365400 220.05800,97.380000 L 220.14000,98.116400 C 220.16000,98.300500 220.20200,98.326800 220.27600,98.318500 C 220.36400,98.308800 220.48500,98.295600 220.58900,98.283900 C 220.83700,98.256500 221.11800,98.106100 221.25400,97.620800 L 221.34900,97.610000 L 221.26000,98.310200 L 219.32200,98.524100 L 219.31500,98.460600 C 219.45800,98.422500 219.62100,98.360000 219.60100,98.175900 L 219.42700,96.606100 z "
         id="path368" />
      <path
         style="fill:#00009e;stroke:none"
         d="M 225.47000,97.031400 C 225.52500,97.208700 225.69900,97.201800 225.84500,97.180300 L 225.86400,97.241400 L 224.75000,97.580200 L 224.73200,97.519200 C 224.86300,97.456200 225.01400,97.363900 224.96000,97.186700 L 224.50000,95.674000 C 224.44600,95.496700 224.26900,95.504100 224.12500,95.525100 L 224.10700,95.464000 L 225.22000,95.125200 L 225.23800,95.186200 C 225.10500,95.250200 224.95600,95.341500 225.01000,95.518700 L 225.47000,97.031400 z "
         id="path370" />
      <path
         style="fill:#00009e;stroke:none"
         d="M 227.25700,96.744300 C 226.63000,96.986000 226.01900,96.798500 225.75700,96.119800 C 225.50400,95.464500 225.86000,94.912300 226.40400,94.702300 C 226.65300,94.607100 226.83800,94.612000 226.98700,94.614400 C 227.13600,94.615900 227.16100,94.520200 227.17200,94.433300 L 227.25500,94.401500 L 227.51200,95.069500 L 227.43000,95.101200 C 227.08000,94.700400 226.70600,94.692500 226.43300,94.798000 C 226.27600,94.859000 225.93700,95.087100 226.26000,95.925900 C 226.58200,96.761900 226.95800,96.744300 227.21800,96.643700 C 227.35000,96.593400 227.50500,96.480100 227.45100,96.340500 C 227.39800,96.201300 227.32100,96.002600 227.30000,95.948400 C 227.23600,95.783400 227.10900,95.791200 226.97100,95.817500 L 226.94900,95.760900 L 227.92200,95.385900 L 227.94300,95.442500 C 227.82300,95.515800 227.71700,95.600700 227.78100,95.766300 C 227.84900,95.941600 227.97800,96.277000 227.97800,96.277000 C 227.83300,96.463000 227.48500,96.656900 227.25700,96.744300 z "
         id="path372" />
      <path
         style="fill:#00009e;stroke:none"
         d="M 228.76500,94.933800 L 229.10400,95.608100 C 229.18700,95.773600 229.33000,95.751100 229.46900,95.706200 L 229.49900,95.765300 L 228.52800,96.253600 L 228.49900,96.194500 C 228.61900,96.109000 228.71100,96.013300 228.62800,95.847800 L 227.91800,94.437700 C 227.83400,94.272100 227.70300,94.288700 227.56200,94.335100 L 227.53400,94.278000 L 228.50500,93.789700 L 228.53300,93.846400 C 228.41500,93.930800 228.31100,94.032400 228.39400,94.197900 L 228.70400,94.812700 L 229.41500,94.454700 L 229.10600,93.840000 C 229.02200,93.674500 228.88200,93.696000 228.74000,93.741900 L 228.71200,93.685200 L 229.68200,93.196400 L 229.71100,93.253600 C 229.59000,93.339000 229.49900,93.434700 229.58200,93.600300 L 230.29200,95.010400 C 230.37500,95.175900 230.50600,95.159300 230.64700,95.113000 L 230.67700,95.172500 L 229.70600,95.660800 L 229.67600,95.601700 C 229.79800,95.515800 229.89900,95.415700 229.81500,95.250200 L 229.47600,94.575800 L 228.76500,94.933800 z "
         id="path374" />
      <path
         style="fill:#00009e;stroke:none"
         d="M 231.36700,94.756000 L 231.33300,94.702300 C 231.42400,94.616400 231.52100,94.506500 231.42100,94.347300 L 230.47800,92.840500 L 230.38000,92.902500 C 230.18300,93.025500 230.04300,93.344400 230.21400,93.618800 L 230.15400,93.656400 L 229.81700,93.117800 L 231.46400,92.086600 L 231.80100,92.625600 L 231.74000,92.663700 C 231.56800,92.389300 231.22000,92.375600 231.02400,92.498700 L 230.92500,92.560700 L 231.86900,94.067100 C 231.96800,94.226200 232.10800,94.188100 232.22400,94.144700 L 232.25700,94.198900 L 231.36700,94.756000 z "
         id="path376" />
      <path
         style="fill:#00009e;stroke:none"
         d="M 222.91500,96.862000 L 222.72900,96.045100 C 222.70700,95.950800 222.78500,95.893700 222.92100,95.856600 C 223.14400,95.800000 223.35000,95.934200 223.41500,96.220400 C 223.48100,96.506000 223.44200,96.724300 222.91500,96.862000 L 222.93300,96.940100 C 222.93300,96.940100 222.96800,96.932300 223.01700,96.921100 L 223.93500,97.786300 L 224.55200,97.645200 L 224.53800,97.583200 C 224.48900,97.591500 224.44900,97.589500 224.42400,97.566600 L 223.55700,96.752100 C 223.83900,96.611000 224.00400,96.397600 223.93700,96.109000 C 223.84500,95.707700 223.40700,95.637900 222.89800,95.754100 L 221.83800,95.996300 L 221.85300,96.061200 C 221.99800,96.050500 222.17500,96.055300 222.21700,96.236000 L 222.56800,97.775500 C 222.61000,97.956200 222.50100,98.026000 222.36300,98.080200 L 222.37700,98.142200 L 223.42000,97.904000 L 223.40600,97.842000 C 223.28200,97.847300 223.13800,97.835100 223.09700,97.654500 L 222.93300,96.940100 L 222.91500,96.862000 z "
         id="path378" />
    </g>
  </g>
</svg>
