<?xml version="1.0" encoding="UTF-8" standalone="no"?>
<svg
   xmlns:dc="http://purl.org/dc/elements/1.1/"
   xmlns:cc="http://web.resource.org/cc/"
   xmlns:rdf="http://www.w3.org/1999/02/22-rdf-syntax-ns#"
   xmlns:svg="http://www.w3.org/2000/svg"
   xmlns="http://www.w3.org/2000/svg"
   xmlns:sodipodi="http://inkscape.sourceforge.net/DTD/sodipodi-0.dtd"
   xmlns:inkscape="http://www.inkscape.org/namespaces/inkscape"
   width="706pt"
   height="474pt"
   id="svg2"
   sodipodi:version="0.32"
   inkscape:version="0.43"
   sodipodi:docname="lebanon2.svg"
   sodipodi:docbase="/home/demailly/ajour/flags"
   version="1.0">
  <metadata
     id="metadata31">
    <rdf:RDF>
      <cc:Work
         rdf:about="">
        <dc:format>image/svg+xml</dc:format>
        <dc:type
           rdf:resource="http://purl.org/dc/dcmitype/StillImage" />
      </cc:Work>
    </rdf:RDF>
  </metadata>
  <sodipodi:namedview
     inkscape:cy="294.13957"
     inkscape:cx="364.21595"
     inkscape:zoom="0.61399264"
     inkscape:window-height="898"
     inkscape:window-width="988"
     inkscape:pageshadow="2"
     inkscape:pageopacity="0.0"
     borderopacity="1.0"
     bordercolor="#666666"
     pagecolor="#ffffff"
     id="base"
     inkscape:window-x="61"
     inkscape:window-y="50"
     inkscape:current-layer="svg2" />
  <defs
     id="defs4">
    <marker
       id="ArrowEnd"
       viewBox="0 0 10 10"
       refX="0"
       refY="5"
       markerUnits="strokeWidth"
       markerWidth="4"
       markerHeight="3"
       orient="auto">
      <path
         d="M 0,0 L 10,5 L 0,10 L 0,0 z "
         id="path7" />
    </marker>
    <marker
       id="ArrowStart"
       viewBox="0 0 10 10"
       refX="10"
       refY="5"
       markerUnits="strokeWidth"
       markerWidth="4"
       markerHeight="3"
       orient="auto">
      <path
         d="M 10,0 L 0,5 L 10,10 L 10,0 z "
         id="path10" />
    </marker>
  </defs>
  <g
     id="g1338"
     transform="matrix(5,0,0,5,-41.87167,-186.7986)">
    <path
       style="fill:#ffffff;stroke:none"
       d="M 8.56201,155.14 L 184.195,155.14 L 184.195,37.613 L 8.56201,37.613 L 8.56201,155.14 z "
       id="path16" />
    <path
       style="fill:#ffffff;stroke:none"
       d="M 184.195,37.593 L 8.543,37.593 L 8.543,155.16 L 184.215,155.16 L 184.215,37.593 L 184.195,37.593 M 184.172,37.632 C 184.172,37.672 184.172,155.078 184.172,155.117 C 184.133,155.117 8.621,155.117 8.582,155.117 C 8.582,155.078 8.582,37.672 8.582,37.632 C 8.621,37.632 184.133,37.632 184.172,37.632"
       id="path18" />
    <path
       style="fill:#ff0000;stroke:none"
       d="M 8.56201,65.894 L 184.195,65.894 L 184.195,37.617 L 8.56201,37.617 L 8.56201,65.894 z "
       id="path20" />
    <path
       style="fill:#ff0000;stroke:none"
       d="M 8.56201,155.14 L 184.195,155.14 L 184.195,126.902 L 8.56201,126.902 L 8.56201,155.14 z "
       id="path22" />
    <path
       style="fill:#c66620;stroke:none"
       d="M 82.953,123.508 L 84.344,121.558 L 86.539,119.597 L 87.75,117.828 L 88.457,116.195 L 89.344,113.359 L 89.476,111.914 L 89.344,110.457 L 88.773,108.129 L 87.617,106.836 L 84.961,105.898 L 79.453,100.488 L 77.027,97.734 L 77.965,96.808 L 81.551,101.199 L 84.957,101.375 L 84.113,95.922 L 81.512,94.097 L 80.203,88.836 L 81.086,88.648 L 82.242,93.132 L 84.816,92.289 L 83.93,86.879 L 84.949,87.722 L 85.832,92.289 L 87.601,92.289 L 89.644,97.933 L 91.566,96.914 L 91.008,91.367 L 91.742,91.367 L 92.219,96.914 L 94.125,96.914 L 95.144,92.293 L 93.754,91.367 L 91.137,86.843 L 90.156,80.722 L 91,81.144 L 91.558,85.629 L 93.793,85.113 L 93.605,79.511 L 94.312,80.449 L 94.312,84.918 L 95.469,84.972 L 95.847,80.636 L 96.336,80.636 L 96.012,84.738 L 92.863,85.894 L 93.746,87.718 L 95.465,90.511 L 96.199,91.355 L 94.808,96.902 L 97.219,97.73 L 100.722,94.09 L 98.066,90.41 L 98.953,84.902 L 99.781,84.902 L 98.992,90.41 L 100.668,90.504 L 102.492,85.882 L 103.32,85.882 L 101.605,90.406 L 99.875,91.343 L 99.875,94.082 L 102.492,94.968 L 105.148,94.968 L 105.84,89.379 L 106.875,89.511 L 106.168,95.058 L 109.246,95.48 L 111.015,90.07 L 111.668,90.258 L 109.992,95.996 L 107.758,96.785 L 102.484,96.785 L 101.601,100.465 L 102.484,103.175 L 107.894,104.062 L 109.801,104.062 L 111.148,99.578 L 111.855,99.863 L 110.316,104.758 L 114.09,105.832 L 116.133,101.347 L 116.84,101.906 L 114.781,106.812 L 105.972,105.875 L 105.129,109.554 L 104.613,110.82 L 103.922,112.207 L 103.597,113.144 L 103.41,114.398 L 103.597,115.843 L 104.441,117.804 L 106.156,119.207 L 108.637,121.402 L 110.488,122.968 L 112.082,124.972 L 110.488,124.605 L 108.91,123.722 L 107.562,122.101 L 106.023,120.793 L 103.734,119.39 L 101.691,118.328 L 102.195,119.949 L 102.48,121.406 L 102.519,122.289 L 102.519,124.972 L 100.844,122.847 L 99.59,120.789 L 99.265,119.578 L 98.941,118.504 L 98.246,118 L 97.211,117.715 L 95.836,118.504 L 94.625,119.211 L 93.414,118.328 L 92.707,118.179 L 91.879,118.328 L 90.379,118.652 L 88.746,119.386 L 87.219,120.324 L 85.816,121.398 L 82.926,123.484"
       id="path24" />
    <path
       style="fill:#33dc00;stroke:none"
       d="M 120.129,107.742 L 118.304,106.011 L 115.703,105.043 L 111.312,103.175 L 107.824,102.238 L 105.207,101.351 L 103.383,100.468 L 103.304,99.679 L 104.324,99.027 L 107.828,99.679 L 110.566,100.238 L 116.59,102.062 L 119.152,103.316 L 120.883,104.336 L 122.652,104.336 L 121.808,103.179 L 119.191,101.355 L 116.59,99.871 L 113.972,99.027 L 111.41,98.468 L 109.543,97.718 L 110.48,96.793 L 113.137,96.886 L 114.484,96.695 L 115.887,96.886 L 117.465,97.254 L 119.14,97.769 L 119.508,97.769 L 119.183,96.789 L 118.492,96.136 L 117.472,95.484 L 113.137,94.367 L 107.82,93.851 L 104.316,93.675 L 102.547,93.199 L 102.547,92.273 L 102.777,91.484 L 103.469,90.777 L 106.086,90.508 L 111.211,90.601 L 113.922,91.351 L 117.465,92.086 L 119.89,92.273 L 118.488,90.965 L 116.91,89.89 L 113.461,89.199 L 108.648,88.504 L 107.601,88.539 L 108.144,88.504 L 106.414,86.312 L 106.09,85.617 L 106.414,84.91 L 107.816,85.101 L 112.476,86.121 L 111.211,85.101 L 106.93,83.14 L 105.719,82.215 L 105.203,81.332 L 106.086,80.953 L 109.492,80.64 L 111.207,80.64 L 109.859,79.703 L 108.32,79.187 L 106.93,77.933 L 104.312,76.679 L 102.543,75.875 L 100.906,74.91 L 98.48,72.949 L 95.508,68.613 L 92.945,72.008 L 91.215,73.968 L 89.363,75.468 L 86.746,76.816 L 84.129,77.742 L 83.34,78.3 L 82.972,78.953 L 86.23,78.449 L 88.793,78.449 L 87.637,79.183 L 85.019,79.699 L 83.152,80.953 L 81.531,82.261 L 80.918,83.105 L 80.594,84.125 L 82.324,83.144 L 84.992,82.168 L 84.367,83.988 L 83.347,85.105 L 80.554,86.508 L 79.289,87.062 L 78.32,87.621 L 75.379,88.64 L 74.496,89.523 L 74.211,90.082 L 74.035,90.504 L 75.383,90.273 L 81.586,89.062 L 83.262,88.64 L 85.879,88.64 L 86.765,88.504 L 87.648,88.64 L 87.785,89.062 L 87.648,89.523 L 84.144,91.156 L 80.558,92.734 L 78.691,93.484 L 77.289,94.367 L 74.211,96.371 L 72.957,98.101 L 71.801,99.258 L 70.914,99.867 L 70.59,100.465 L 72.961,100.097 L 75.387,99.484 L 81.547,96.785 L 84.148,95.902 L 88.496,94.078 L 91.195,93.195 L 93.851,92.406 L 96.398,93.195 L 97.285,94.078 L 97.109,95.48 L 95.531,95.804 L 92.93,95.898 L 92.125,95.992 L 91.242,96.683 L 90.453,97.05 L 89.008,97.375 L 88.312,95.984 L 88.312,94.16 L 84.156,95.89 L 84.156,97.703 L 83.832,98.64 L 83.273,99.468 L 80.945,100.777 L 79.734,101.336 L 78.906,102.222 L 77.312,102.781 L 74.887,102.929 L 73.676,102.781 L 72.656,102.929 L 70.941,103.664 L 68.367,105.023 L 66.597,105.851 L 67.156,106.367 L 67.808,106.636 L 69.402,106.824 L 70.941,106.636 L 75.414,105.617 L 77.09,105.429 L 78.914,104.738 L 80.59,104.316 L 81.746,104.738 L 82.355,105.023 L 82.488,105.429 L 82.121,105.988 L 79.504,107.758 L 75.211,109.39 L 71.996,110.41 L 73.168,111.215 L 74.515,111.215 L 78.906,110.793 L 81.605,110.086 L 82.355,109.531 L 84.168,107.718 L 86.785,105.851 L 91.215,105.851 L 94.39,105.199 L 95.547,105.066 L 98.148,105.066 L 100.804,105.855 L 102.574,106.793 L 106.965,107.429 L 109.527,107.023 L 110.508,107.718 L 113.164,108.972 L 114.879,109.531 L 117.496,109.855 L 120.152,111.3 L 121.828,111.3 L 121.406,109.722 L 120.152,107.718 L 120.129,107.742 z M 83.32,102.234 L 82.301,103.172 L 82.301,102.234 L 82.762,101.675 L 83.222,101.351 L 84.105,102.238 L 83.316,102.238 L 83.32,102.234 z M 87.984,100.597 L 86.73,101.343 L 86.73,99.476 L 87.613,99.246 L 88.457,99.476 L 89.383,100.457 L 87.98,100.593 L 87.984,100.597 z M 94.668,100.461 L 93.633,100.23 L 92.422,100.461 L 91.918,98.324 L 93.457,98.093 L 94.996,98.461 L 94.672,100.465 L 94.668,100.461 z M 87.097,81.48 L 85.75,81.84 L 86.73,81.48 L 89.121,81.312 L 87.097,81.48 M 89.347,85.066 L 87.617,84.699 L 88.078,83.066 L 89.344,81.3 L 89.387,81.3 L 92.93,80.922 L 95.492,81.109 L 98.094,81.859 L 98.461,82.379 L 98.094,82.933 L 97.25,83.109 L 93.816,84.703 L 89.344,85.07 L 89.347,85.066 z M 101.746,101.019 L 101.558,101.902 L 100.156,101.168 L 99,101.343 L 99.652,99.574 L 100.906,99.574 L 102.078,100.09 L 101.754,101.015 L 101.746,101.019 z M 100.707,88.476 L 98.992,88.476 L 96.375,88.613 L 95.695,87.687 L 95.883,86.843 L 97.394,85.769 L 98.988,85.918 L 100.758,85.867 L 104.246,86.804 L 105.183,87.687 L 106.023,88.566 L 104.664,88.613 L 102.758,88.8 L 100.699,88.476"
       id="path26" />
    <path
       style="fill:#000000;stroke:none"
       d="M 184.195,37.554 L 8.50801,37.554 L 8.50801,155.195 L 184.254,155.195 L 184.254,37.554 L 184.199,37.554 L 184.195,37.554 z M 184.137,37.672 C 184.137,37.785 184.137,154.968 184.137,155.086 C 184.023,155.086 8.73401,155.086 8.621,155.086 C 8.621,154.972 8.621,37.789 8.621,37.672 C 8.73401,37.672 184.023,37.672 184.137,37.672"
       id="path28" />
  </g>
</svg>
