<?xml version="1.0" encoding="UTF-8" standalone="no"?>
<svg
   xmlns:dc="http://purl.org/dc/elements/1.1/"
   xmlns:cc="http://web.resource.org/cc/"
   xmlns:rdf="http://www.w3.org/1999/02/22-rdf-syntax-ns#"
   xmlns:svg="http://www.w3.org/2000/svg"
   xmlns="http://www.w3.org/2000/svg"
   xmlns:sodipodi="http://inkscape.sourceforge.net/DTD/sodipodi-0.dtd"
   xmlns:inkscape="http://www.inkscape.org/namespaces/inkscape"
   width="706pt"
   height="422pt"
   id="svg2"
   sodipodi:version="0.32"
   inkscape:version="0.43"
   sodipodi:docname="liechtenstein1.svg"
   sodipodi:docbase="/home/demailly/ajour/flags"
   version="1.0">
  <metadata
     id="metadata95">
    <rdf:RDF>
      <cc:Work
         rdf:about="">
        <dc:format>image/svg+xml</dc:format>
        <dc:type
           rdf:resource="http://purl.org/dc/dcmitype/StillImage" />
      </cc:Work>
    </rdf:RDF>
  </metadata>
  <sodipodi:namedview
     inkscape:cy="72.749515"
     inkscape:cx="433.1881"
     inkscape:zoom="0.61399264"
     inkscape:window-height="864"
     inkscape:window-width="991"
     inkscape:pageshadow="2"
     inkscape:pageopacity="0.0"
     borderopacity="1.0"
     bordercolor="#666666"
     pagecolor="#ffffff"
     id="base"
     inkscape:window-x="152"
     inkscape:window-y="35"
     inkscape:current-layer="svg2" />
  <defs
     id="defs4">
    <marker
       id="ArrowEnd"
       viewBox="0 0 10 10"
       refX="0"
       refY="5"
       markerUnits="strokeWidth"
       markerWidth="4"
       markerHeight="3"
       orient="auto">
      <path
         d="M 0,0 L 10,5 L 0,10 L 0,0 z "
         id="path7" />
    </marker>
    <marker
       id="ArrowStart"
       viewBox="0 0 10 10"
       refX="10"
       refY="5"
       markerUnits="strokeWidth"
       markerWidth="4"
       markerHeight="3"
       orient="auto">
      <path
         d="M 10,0 L 0,5 L 10,10 L 10,0 z "
         id="path10" />
    </marker>
  </defs>
  <g
     id="g1434"
     transform="matrix(5,0,0,5,-41.86367,-219.3802)">
    <path
       style="fill:#0018cc;stroke:none"
       d="M 8.504,95.879 L 184.25,95.879 L 184.25,43.898 L 8.504,43.898 L 8.504,95.879 z "
       id="path16" />
    <path
       style="fill:#ff0000;stroke:none"
       d="M 8.504,148.855 L 184.25,148.855 L 184.25,95.882 L 8.504,95.882 L 8.504,148.855 z "
       id="path18" />
    <path
       style="fill:none;stroke:#000000;stroke-width:0"
       d="M 8.50801,148.855 L 184.254,148.855 L 184.254,43.898 L 8.50801,43.898 L 8.50801,148.855 z "
       id="path20" />
    <path
       style="fill:#ffcc00;stroke:none"
       d="M 41.554,64.218 C 42.375,64.218 43.039,63.582 43.039,62.793 C 43.039,62.008 42.375,61.367 41.554,61.367 C 40.734,61.367 40.07,62.004 40.07,62.793 C 40.07,63.578 40.734,64.218 41.554,64.218"
       id="path22" />
    <path
       style="fill:#ffcc00;stroke:none"
       d="M 35.176,62.785 L 37.715,60.308 L 40.008,61.832 C 40.008,61.832 39.375,62.656 40.004,63.715 L 37.719,65.304 L 35.18,62.785"
       id="path24" />
    <path
       style="fill:#ffcc00;stroke:none"
       d="M 47.949,62.879 L 45.41,60.402 L 43.117,61.925 C 43.117,61.925 43.75,62.75 43.121,63.808 L 45.406,65.398 L 47.945,62.879"
       id="path26" />
    <path
       style="fill:#ffcc00;stroke:none"
       d="M 41.371,56.597 L 44.051,58.933 L 42.5,61.261 C 42.5,61.261 41.637,60.582 40.558,61.23 L 38.855,59.144 L 41.375,56.605"
       id="path28" />
    <path
       style="fill:#ffcc00;stroke:none"
       d="M 43.187,66.047 L 40.09,66.047 C 40.453,65.672 40.953,64.668 41.633,64.668 C 42.316,64.668 42.812,65.652 43.176,66.031 L 43.187,66.043"
       id="path30" />
    <path
       style="fill:#ffcc00;stroke:none"
       d="M 53.894,83.168 C 42.461,85.613 29.367,83.246 29.367,83.246 L 29.367,83.047 C 29.367,83.047 42.461,80.683 53.894,83.125 L 53.894,83.16"
       id="path32" />
    <path
       style="fill:#ffcc00;stroke:none"
       d="M 55.109,78.222 C 55.109,78.222 52.68,75.187 49.281,77.679 L 49.187,77.664 C 49.187,77.664 47.551,75.632 45.18,76.832 L 43.344,69.898 C 43.75,69.523 44.008,69.031 44.008,68.484 C 44.008,67.32 42.879,66.375 41.48,66.375 C 40.086,66.375 38.957,67.316 38.957,68.484 C 38.957,69.043 39.222,69.55 39.652,69.929 L 37.844,76.765 C 35.453,75.523 33.797,77.578 33.797,77.578 L 33.703,77.593 C 30.308,75.105 27.875,78.136 27.875,78.136 C 27.875,78.136 26.781,79.316 28.937,78.972 C 31.094,78.632 30.375,78.972 30.582,79.316 C 30.785,79.656 31.301,81.031 29.554,82.578 L 29.57,82.605 C 29.57,82.605 41.398,80.09 53.437,82.66 C 51.691,81.117 52.222,79.75 52.41,79.398 C 52.605,79.031 51.898,78.715 54.054,79.054 C 56.211,79.398 55.117,78.218 55.117,78.218 L 55.109,78.222 z M 38.648,76.867 L 40.371,70.363 C 40.703,70.5 41.074,70.582 41.472,70.582 C 41.883,70.582 42.265,70.492 42.613,70.347 L 44.41,77.132 L 44.355,77.086 C 41.781,74.64 39.281,76.355 38.652,76.867"
       id="path34" />
    <path
       style="fill:#0018cc;stroke:none"
       d="M 41.472,77.109 C 41.472,77.109 42.137,77.781 41.918,78.394 L 43.121,78.117 C 43.121,78.117 41.953,78.699 41.769,81.019 L 41.48,81.019 L 41.437,81.015 L 41.144,81.015 C 40.965,78.695 39.793,78.113 39.793,78.113 L 40.996,78.39 C 40.777,77.781 41.426,77.105 41.426,77.105 L 41.469,77.109"
       id="path36" />
    <path
       style="fill:#0018cc;stroke:none"
       d="M 36.988,77.195 C 36.988,77.195 37.691,77.84 37.512,78.457 L 38.699,78.129 C 38.699,78.129 37.57,78.761 37.531,81.09 L 37.242,81.101 L 37.199,81.101 L 36.91,81.113 C 36.582,78.804 35.379,78.273 35.379,78.273 L 36.601,78.496 C 36.347,77.898 36.949,77.195 36.949,77.195 L 36.992,77.195"
       id="path38" />
    <path
       style="fill:#0018cc;stroke:none"
       d="M 32.621,77.519 C 32.621,77.519 33.394,78.105 33.281,78.738 L 34.426,78.32 C 34.426,78.32 33.371,79.039 33.59,81.355 L 33.304,81.386 L 33.262,81.386 L 32.976,81.418 C 32.398,79.144 31.14,78.707 31.14,78.707 L 32.379,78.836 C 32.058,78.261 32.582,77.511 32.582,77.511 L 32.625,77.511"
       id="path40" />
    <path
       style="fill:#0018cc;stroke:none"
       d="M 45.972,77.234 C 45.972,77.234 46.582,77.945 46.316,78.539 L 47.543,78.328 C 47.543,78.328 46.332,78.847 45.969,81.152 L 45.68,81.136 L 45.637,81.132 L 45.347,81.117 C 45.347,78.793 44.226,78.144 44.226,78.144 L 45.406,78.488 C 45.238,77.867 45.937,77.23 45.937,77.23 L 45.98,77.234"
       id="path42" />
    <path
       style="fill:#0018cc;stroke:none"
       d="M 50.277,77.582 C 50.277,77.582 50.785,78.343 50.437,78.91 L 51.683,78.82 C 51.683,78.82 50.41,79.215 49.726,81.472 L 49.441,81.429 L 49.402,81.422 L 49.117,81.379 C 49.437,79.07 48.414,78.32 48.414,78.32 L 49.539,78.773 C 49.457,78.14 50.238,77.574 50.238,77.574 L 50.277,77.582"
       id="path44" />
    <path
       style="fill:#ffcc00;stroke:none"
       d="M 41.527,75.492 C 42.176,75.492 42.707,75.054 42.707,74.508 C 42.707,73.965 42.18,73.523 41.527,73.523 C 40.879,73.523 40.347,73.961 40.347,74.508 C 40.347,75.05 40.875,75.492 41.527,75.492"
       id="path46" />
    <path
       style="fill:#ffcc00;stroke:none"
       d="M 41.527,73.199 C 42.176,73.199 42.707,72.761 42.707,72.215 C 42.707,71.672 42.18,71.23 41.527,71.23 C 40.879,71.23 40.347,71.672 40.347,72.215 C 40.347,72.758 40.875,73.199 41.527,73.199"
       id="path48" />
    <path
       style="fill:#ffcc00;stroke:none"
       d="M 27.949,77.617 C 28.597,77.617 29.129,77.179 29.129,76.632 C 29.129,76.09 28.601,75.648 27.949,75.648 C 27.301,75.648 26.769,76.086 26.769,76.632 C 26.769,77.175 27.297,77.617 27.949,77.617"
       id="path50" />
    <path
       style="fill:#ffcc00;stroke:none"
       d="M 26.922,75.656 C 27.57,75.656 28.101,75.215 28.101,74.672 C 28.101,74.129 27.574,73.687 26.922,73.687 C 26.273,73.687 25.742,74.125 25.742,74.672 C 25.742,75.215 26.269,75.656 26.922,75.656"
       id="path52" />
    <path
       style="fill:#ffcc00;stroke:none"
       d="M 26.097,73.652 C 26.746,73.652 27.277,73.211 27.277,72.668 C 27.277,72.125 26.75,71.683 26.097,71.683 C 25.445,71.683 24.918,72.121 24.918,72.668 C 24.918,73.211 25.445,73.652 26.097,73.652"
       id="path54" />
    <path
       style="fill:#ffcc00;stroke:none"
       d="M 26.277,71.5 C 26.926,71.5 27.457,71.062 27.457,70.515 C 27.457,69.972 26.93,69.531 26.277,69.531 C 25.629,69.531 25.097,69.968 25.097,70.515 C 25.097,71.058 25.625,71.5 26.277,71.5"
       id="path56" />
    <path
       style="fill:#ffcc00;stroke:none"
       d="M 27.785,69.726 C 28.437,69.726 28.965,69.285 28.965,68.742 C 28.965,68.199 28.437,67.758 27.785,67.758 C 27.137,67.758 26.605,68.195 26.605,68.742 C 26.605,69.285 27.133,69.726 27.785,69.726"
       id="path58" />
    <path
       style="fill:#ffcc00;stroke:none"
       d="M 30.215,69.011 C 30.863,69.011 31.394,68.574 31.394,68.027 C 31.394,67.484 30.867,67.043 30.215,67.043 C 29.566,67.043 29.035,67.484 29.035,68.027 C 29.035,68.57 29.562,69.011 30.215,69.011"
       id="path60" />
    <path
       style="fill:#ffcc00;stroke:none"
       d="M 32.785,69.246 C 33.433,69.246 33.965,68.808 33.965,68.261 C 33.965,67.718 33.437,67.277 32.785,67.277 C 32.137,67.277 31.605,67.715 31.605,68.261 C 31.605,68.804 32.133,69.246 32.785,69.246"
       id="path62" />
    <path
       style="fill:#ffcc00;stroke:none"
       d="M 35.183,69.875 C 35.832,69.875 36.363,69.437 36.363,68.89 C 36.363,68.347 35.836,67.906 35.183,67.906 C 34.535,67.906 34.004,68.343 34.004,68.89 C 34.004,69.433 34.531,69.875 35.183,69.875"
       id="path64" />
    <path
       style="fill:#ffcc00;stroke:none"
       d="M 37.609,70.343 C 38.258,70.343 38.789,69.906 38.789,69.359 C 38.789,68.816 38.262,68.375 37.609,68.375 C 36.961,68.375 36.43,68.816 36.43,69.359 C 36.43,69.902 36.957,70.343 37.609,70.343"
       id="path66" />
    <path
       style="fill:#ffcc00;stroke:none"
       d="M 55.031,77.617 C 54.383,77.617 53.851,77.179 53.851,76.632 C 53.851,76.09 54.379,75.648 55.031,75.648 C 55.68,75.648 56.211,76.086 56.211,76.632 C 56.211,77.175 55.683,77.617 55.031,77.617"
       id="path68" />
    <path
       style="fill:#ffcc00;stroke:none"
       d="M 56.062,75.656 C 55.414,75.656 54.883,75.215 54.883,74.672 C 54.883,74.129 55.41,73.687 56.062,73.687 C 56.711,73.687 57.242,74.125 57.242,74.672 C 57.242,75.215 56.715,75.656 56.062,75.656"
       id="path70" />
    <path
       style="fill:#ffcc00;stroke:none"
       d="M 56.883,73.652 C 56.234,73.652 55.703,73.211 55.703,72.668 C 55.703,72.125 56.23,71.683 56.883,71.683 C 57.531,71.683 58.062,72.121 58.062,72.668 C 58.062,73.211 57.535,73.652 56.883,73.652"
       id="path72" />
    <path
       style="fill:#ffcc00;stroke:none"
       d="M 56.703,71.5 C 56.054,71.5 55.523,71.062 55.523,70.515 C 55.523,69.972 56.051,69.531 56.703,69.531 C 57.351,69.531 57.883,69.968 57.883,70.515 C 57.883,71.058 57.355,71.5 56.703,71.5"
       id="path74" />
    <path
       style="fill:#ffcc00;stroke:none"
       d="M 55.195,69.726 C 54.547,69.726 54.015,69.285 54.015,68.742 C 54.015,68.199 54.543,67.758 55.195,67.758 C 55.844,67.758 56.375,68.195 56.375,68.742 C 56.375,69.285 55.847,69.726 55.195,69.726"
       id="path76" />
    <path
       style="fill:#ffcc00;stroke:none"
       d="M 52.769,69.011 C 52.121,69.011 51.59,68.574 51.59,68.027 C 51.59,67.484 52.117,67.043 52.769,67.043 C 53.418,67.043 53.949,67.484 53.949,68.027 C 53.949,68.57 53.422,69.011 52.769,69.011"
       id="path78" />
    <path
       style="fill:#ffcc00;stroke:none"
       d="M 50.195,69.246 C 49.543,69.246 49.015,68.808 49.015,68.261 C 49.015,67.718 49.543,67.277 50.195,67.277 C 50.844,67.277 51.375,67.715 51.375,68.261 C 51.375,68.804 50.847,69.246 50.195,69.246"
       id="path80" />
    <path
       style="fill:#ffcc00;stroke:none"
       d="M 47.797,69.875 C 47.148,69.875 46.617,69.437 46.617,68.89 C 46.617,68.347 47.144,67.906 47.797,67.906 C 48.445,67.906 48.976,68.343 48.976,68.89 C 48.976,69.433 48.449,69.875 47.797,69.875"
       id="path82" />
    <path
       style="fill:#ffcc00;stroke:none"
       d="M 45.371,70.343 C 44.722,70.343 44.191,69.906 44.191,69.359 C 44.191,68.816 44.719,68.375 45.371,68.375 C 46.019,68.375 46.551,68.816 46.551,69.359 C 46.551,69.902 46.023,70.343 45.371,70.343"
       id="path84" />
    <path
       style="fill:#ffcc00;stroke:none"
       d="M 43.535,70.609 L 43.672,71.179 C 43.672,71.179 48.129,70.781 49.293,70.238 C 50.457,69.695 52.996,69.179 54.265,70.238 C 54.265,70.238 55.668,71.238 54.539,73.586 C 54.539,73.586 53.765,75.086 52.734,76.113 L 53.105,76.359 C 53.105,76.359 55.152,74.297 55.324,73.125 C 55.324,73.125 55.801,72.211 55.426,70.922 C 55.051,69.636 53.816,69.347 53.816,69.347 C 53.816,69.347 53.097,68.976 51.039,69.234 C 51.039,69.234 49.121,69.691 48.64,69.949 C 48.64,69.949 45.418,70.75 43.531,70.605"
       id="path86" />
    <path
       style="fill:#ffcc00;stroke:none"
       d="M 39.449,70.609 L 39.312,71.179 C 39.312,71.179 34.855,70.781 33.691,70.238 C 32.527,69.695 29.988,69.179 28.719,70.238 C 28.719,70.238 27.316,71.238 28.445,73.586 C 28.445,73.586 29.308,75.086 30.336,76.113 L 29.777,76.359 C 29.777,76.359 27.828,74.297 27.656,73.125 C 27.656,73.125 27.18,72.211 27.554,70.922 C 27.93,69.636 29.164,69.347 29.164,69.347 C 29.164,69.347 29.883,68.976 31.941,69.234 C 31.941,69.234 33.859,69.691 34.34,69.949 C 34.34,69.949 37.562,70.75 39.445,70.605"
       id="path88" />
    <path
       style="fill:#ffcc00;stroke:none"
       d="M 38.797,71.558 C 38.797,71.558 34.98,71.16 33.812,70.617 C 32.648,70.074 30.109,69.558 28.84,70.617 C 28.84,70.617 27.898,71.468 29.027,73.816 C 29.027,73.816 29.453,74.804 30.394,75.746 L 31.078,76.242 C 31.078,76.242 32.445,76.242 33.504,76.988 C 33.504,76.988 34.746,75.929 35.804,75.867 C 35.804,75.867 36.984,75.925 37.422,76.113 L 38.789,71.554"
       id="path90" />
    <path
       style="fill:#ffcc00;stroke:none"
       d="M 44.023,71.558 C 44.023,71.558 47.84,71.16 49.008,70.617 C 50.172,70.074 52.711,69.558 53.98,70.617 C 53.98,70.617 54.922,71.468 53.793,73.816 C 53.793,73.816 53.367,74.804 52.426,75.746 L 51.742,76.242 C 51.742,76.242 50.375,76.242 49.316,76.988 C 49.316,76.988 48.074,75.929 47.015,75.867 C 47.015,75.867 45.836,75.925 45.398,76.113 L 44.031,71.554"
       id="path92" />
  </g>
</svg>
