<?xml version="1.0" encoding="UTF-8" standalone="no"?>
<svg
   xmlns:dc="http://purl.org/dc/elements/1.1/"
   xmlns:cc="http://web.resource.org/cc/"
   xmlns:rdf="http://www.w3.org/1999/02/22-rdf-syntax-ns#"
   xmlns:svg="http://www.w3.org/2000/svg"
   xmlns="http://www.w3.org/2000/svg"
   xmlns:sodipodi="http://inkscape.sourceforge.net/DTD/sodipodi-0.dtd"
   xmlns:inkscape="http://www.inkscape.org/namespaces/inkscape"
   width="707pt"
   height="400pt"
   id="svg2"
   sodipodi:version="0.32"
   inkscape:version="0.43"
   sodipodi:docname="mexico1.svg"
   sodipodi:docbase="/home/demailly/ajour/flags"
   version="1.0">
  <metadata
     id="metadata377">
    <rdf:RDF>
      <cc:Work
         rdf:about="">
        <dc:format>image/svg+xml</dc:format>
        <dc:type
           rdf:resource="http://purl.org/dc/dcmitype/StillImage" />
      </cc:Work>
    </rdf:RDF>
  </metadata>
  <sodipodi:namedview
     inkscape:cy="309.11737"
     inkscape:cx="504.90266"
     inkscape:zoom="0.5"
     inkscape:window-height="560"
     inkscape:window-width="988"
     inkscape:pageshadow="2"
     inkscape:pageopacity="0.0"
     borderopacity="1.0"
     bordercolor="#666666"
     pagecolor="#ffffff"
     id="base"
     inkscape:window-x="74"
     inkscape:window-y="108"
     inkscape:current-layer="svg2" />
  <defs
     id="defs4">
    <marker
       id="ArrowEnd"
       viewBox="0 0 10 10"
       refX="0"
       refY="5"
       markerUnits="strokeWidth"
       markerWidth="4"
       markerHeight="3"
       orient="auto">
      <path
         d="M 0,0 L 10,5 L 0,10 L 0,0 z "
         id="path7" />
    </marker>
    <marker
       id="ArrowStart"
       viewBox="0 0 10 10"
       refX="10"
       refY="5"
       markerUnits="strokeWidth"
       markerWidth="4"
       markerHeight="3"
       orient="auto">
      <path
         d="M 10,0 L 0,5 L 10,10 L 10,0 z "
         id="path10" />
    </marker>
  </defs>
  <g
     id="g1858"
     transform="matrix(5,0,0,5,-44.4487,-234.7238)">
    <path
       style="fill:#ffffff;stroke:none"
       d="M 9.087837,145.695 L 184.79483,145.695 L 184.79483,47.074 L 9.087837,47.074 L 9.087837,145.695 z "
       id="path16" />
    <path
       style="fill:#ff0000;stroke:none"
       d="M 126.25883,145.683 L 184.82583,145.683 L 184.82583,47.062 L 126.25883,47.062 L 126.25883,145.683 z "
       id="path18" />
    <path
       style="fill:#00ff00;stroke:none"
       d="M 9.079827,145.695 L 67.645827,145.695 L 67.645827,47.074 L 9.079827,47.074 L 9.079827,145.695 z "
       id="path20" />
    <path
       style="fill:#3e0000;stroke:none"
       d="M 106.30583,78.3 C 106.59083,78.113 106.68483,77.761 106.90783,77.601 C 107.12683,78.203 107.47783,79.125 106.90783,79.668 C 109.79483,80.746 111.09483,83.8 112.14183,86.379 C 112.55183,87.14 113.31383,87.363 114.04483,87.457 C 114.04483,87.711 114.10683,87.996 113.82583,88.125 C 113.91983,88.855 114.11083,89.808 113.38383,90.285 C 113.57183,93.718 114.11083,97.343 112.62283,100.269 L 112.40383,100.269 C 112.11883,99.668 112.62283,99.062 112.24783,98.523 C 111.86883,98.711 112.12283,99.601 111.48583,99.508 C 111.04483,99.191 111.13783,96.519 110.72383,98.363 C 110.34483,97.664 110.87983,96.328 109.96283,96.136 L 109.36083,94.992 C 109.38783,95.371 108.91983,95.371 108.72783,95.246 L 108.06383,94.39 C 108.00183,94.832 107.62283,94.832 107.30583,94.707 C 107.02083,94.55 106.79783,94.23 106.54483,94.008 C 106.32583,94.578 105.68883,94.324 105.46583,93.945 C 104.51683,93.054 103.94683,91.785 102.57983,91.656 C 102.42283,91.531 102.32583,91.308 102.13783,91.277 L 102.42283,93.246 C 105.21583,95.312 107.34083,99.004 110.80183,99.449 C 111.05583,99.543 110.98983,99.828 110.89583,99.957 C 109.78683,100.59 108.48583,101.324 107.21583,100.812 C 106.61483,101.382 105.56783,101.222 104.86883,101.734 C 105.27883,102.144 105.37683,102.718 105.62983,103.258 C 106.16583,102.656 106.70883,101.922 107.46983,101.574 C 107.50183,101.761 107.31383,101.828 107.37683,102.015 C 107.75583,102.203 108.54783,100.968 108.51683,101.953 C 108.61083,102.109 108.64183,102.3 108.83383,102.398 C 109.94283,102.304 109.55983,100.968 110.64183,100.875 C 111.08383,100.968 111.65783,100.687 111.94283,101.097 C 112.47783,101.004 112.70483,100.144 113.30583,100.273 C 113.08783,100.718 112.64183,101.226 112.16583,101.64 C 112.25883,102.242 112.41983,103.101 111.72383,103.386 C 111.37683,103.48 111.12283,103.261 110.80583,103.261 L 109.88783,104.023 C 110.10683,104.277 110.71283,104.086 110.64983,104.465 C 110.17683,105.386 108.49383,105.066 108.62283,106.211 C 108.18083,107.226 107.13383,108.246 106.08783,108.593 C 105.77083,108.816 105.57983,108.117 105.32583,108.593 C 105.61083,108.593 105.83383,108.91 105.95883,109.101 C 106.08383,109.894 105.64183,110.437 105.26283,111.008 C 105.86483,111.453 105.86483,110.215 106.46583,110.629 C 106.71983,111.105 105.86483,111.453 106.46583,111.707 C 106.84483,111.738 107.19283,111.675 107.48183,111.484 C 107.66983,110.66 105.96283,110.215 107.00883,109.48 C 107.29483,109.48 107.54483,109.734 107.54483,110.019 C 107.32583,110.429 107.60683,110.718 107.86083,111.004 C 107.95483,108.968 109.57183,107.664 110.90783,106.203 L 111.03283,105.058 C 111.75883,105.375 111.75883,106.394 111.72783,107.187 C 112.26283,107.093 112.74383,106.363 113.02883,105.82 C 113.18483,104.582 111.12683,105.281 111.88783,104.008 C 112.07583,103.722 112.39583,103.562 112.64983,103.691 C 112.93483,103.879 113.02883,104.39 112.86883,104.769 C 113.27883,105.179 113.30983,105.785 113.69283,106.136 C 113.91183,104.547 112.83783,102.636 114.32583,101.398 C 114.73583,100.89 115.30583,100.445 115.37283,99.808 C 115.90783,99.746 115.52883,100.379 115.84483,100.57 C 116.03283,100.093 117.01683,99.715 116.44683,99.109 C 115.97383,98.41 113.97383,99.332 114.70483,97.902 C 114.89183,97.715 115.21283,97.554 115.46583,97.746 C 115.59083,97.902 115.68483,98.191 115.52883,98.347 L 116.29083,98.57 C 116.16583,97.808 115.18083,96.789 115.97383,95.898 C 116.22783,94.976 115.59483,94.406 115.37283,93.707 C 115.84483,93.644 116.51283,93.738 116.73583,94.308 C 117.17683,93.547 117.39983,92.75 118.03683,92.082 C 118.29083,92.652 117.84883,93.859 118.41583,94.465 L 118.57183,94.59 C 118.98183,94.082 118.79083,93.222 118.63383,92.621 C 119.17283,92.746 119.20483,93.476 119.48983,93.922 C 119.93083,95.734 119.36483,97.547 117.96983,98.785 C 118.47383,98.972 118.91983,98.117 119.48983,98.66 C 119.58383,98.976 119.36483,99.23 119.11083,99.328 C 118.85683,99.328 118.60683,99.355 118.41583,99.172 L 117.11483,99.55 C 117.05183,100.152 116.98983,100.726 116.89583,101.328 C 117.52883,101.422 117.97383,100.312 118.73583,100.695 C 117.37283,102.539 117.27883,105.05 114.93083,106.293 C 114.99383,106.48 115.21583,106.64 115.37283,106.8 C 115.68883,106.738 116.06783,106.293 116.35283,106.675 C 116.63783,106.863 116.50883,107.277 116.35283,107.5 C 116.06783,107.722 115.75183,108.039 115.37283,107.816 C 114.93083,107.531 115.34083,106.8 114.70883,106.672 C 114.39183,106.515 113.98183,106.609 113.62983,106.578 C 113.37683,106.894 113.47383,107.433 113.47383,107.722 C 113.69283,107.691 113.82183,107.312 114.07583,107.343 C 114.36083,108.199 113.95083,109.187 113.56783,109.949 C 112.20483,111.504 110.07983,111.187 108.30183,111.761 C 108.74383,112.238 110.20483,112.492 109.21983,113.382 C 108.96583,113.636 108.55583,113.476 108.45883,113.16 C 108.33383,112.875 108.45883,112.398 107.98583,112.398 L 107.38383,113.445 C 107.76283,113.922 108.96983,113.066 108.52483,114.144 C 106.84483,114.429 105.38383,115.32 103.73583,115.734 C 102.56383,115.293 101.51683,114.621 100.53283,113.668 C 100.15383,113.699 99.379827,114.543 99.032827,114.672 C 99.032827,114.672 101.00883,115.734 101.23183,115.734 C 101.23183,115.734 100.59883,116.718 100.25183,117.578 C 100.28283,117.863 99.903827,118.211 99.618827,117.957 C 99.016827,117.258 98.161827,116.398 97.270827,116.652 C 96.954827,116.906 97.083827,117.605 96.508827,117.574 C 96.477827,116.941 94.192827,116.527 93.622827,117.035 C 93.274827,116.398 94.255827,116.398 94.383827,115.89 L 95.903827,114.523 L 95.747827,114.207 C 94.829827,114.238 94.669827,116.144 93.782827,115.285 C 93.528827,115.441 93.274827,115.285 93.087827,115.129 C 92.801827,115.382 92.708827,115.922 92.262827,115.89 C 91.883827,116.113 91.567827,115.574 91.501827,115.289 C 91.028827,115.574 90.454827,115.859 89.883827,115.73 C 89.536827,115.382 89.883827,114.875 89.883827,114.586 C 89.157827,114.554 88.805827,116.109 88.141827,115.187 C 87.985827,114.871 88.426827,114.648 88.204827,114.363 C 87.887827,114.804 87.286827,114.902 86.778827,114.742 C 86.524827,114.519 86.590827,114.109 86.684827,113.82 C 86.938827,113.379 87.887827,113.41 87.540827,112.773 C 87.415827,112.488 87.098827,112.648 86.938827,112.679 C 86.782827,113.058 86.622827,113.57 86.180827,113.664 C 85.547827,113.187 84.407827,114.074 84.278827,112.902 C 83.993827,112.933 83.899827,112.617 83.743827,112.461 L 83.743827,111.922 C 83.333827,111.922 82.856827,112.238 82.379827,112.238 C 82.094827,111.761 81.493827,111.761 81.364827,111.254 C 81.364827,110.906 81.743827,110.906 81.899827,110.617 C 81.172827,110.492 80.790827,109.695 80.379827,109.187 C 80.411827,108.933 80.665827,108.679 80.919827,108.648 L 81.837827,108.648 C 81.680827,108.332 81.172827,108.015 80.919827,107.57 C 80.762827,107.758 80.633827,108.015 80.379827,108.109 C 79.938827,108.234 79.653827,107.953 79.399827,107.668 C 79.051827,107.824 78.606827,107.73 78.321827,107.511 C 78.508827,106.879 79.337827,106.718 79.778827,106.367 C 79.051827,106.683 77.969827,106.523 77.337827,105.925 C 77.243827,105.64 77.462827,105.48 77.653827,105.293 C 77.180827,105.07 76.481827,105.199 76.196827,104.625 C 76.165827,104.246 76.481827,104.215 76.669827,103.925 C 76.321827,103.64 75.751827,103.609 75.653827,103.101 C 75.653827,102.879 75.622827,102.593 75.907827,102.562 C 77.079827,103.132 76.317827,101.578 77.176827,101.578 C 77.083827,101.199 76.669827,100.976 76.415827,100.656 C 75.813827,101.324 75.243827,100.371 74.512827,100.593 C 74.133827,100.152 73.942827,99.547 74.133827,98.972 C 74.356827,98.816 74.672827,98.656 74.895827,98.816 C 75.368827,99.258 75.559827,99.386 76.196827,99.195 C 76.133827,98.117 74.387827,98.433 74.454827,97.16 C 74.610827,96.972 74.770827,96.875 74.989827,96.843 L 75.051827,96.906 C 75.430827,96.336 74.227827,95 75.524827,94.871 L 75.809827,95.312 L 75.965827,94.234 C 76.376827,93.949 76.407827,94.804 76.883827,94.39 L 77.645827,93.468 C 78.153827,93.691 77.962827,94.484 77.801827,94.867 L 77.547827,95.246 C 77.895827,95.371 78.055827,95.531 78.243827,95.847 C 78.274827,96.48 77.450827,96.578 77.262827,97.148 C 77.356827,97.148 77.704827,97.086 77.864827,97.211 L 78.083827,97.75 C 78.368827,97.625 78.559827,97.242 78.938827,97.371 C 79.731827,98.101 79.032827,99.183 78.938827,100.043 C 78.590827,100.39 77.926827,100.328 77.544827,100.105 L 77.325827,99.882 C 76.563827,100.613 77.766827,101.281 77.926827,102.011 C 78.180827,101.918 78.083827,101.601 78.305827,101.57 C 78.876827,101.855 78.493827,102.679 78.938827,103.093 C 79.192827,102.683 78.938827,101.472 79.825827,101.949 C 80.297827,102.648 79.606827,103.379 79.825827,104.078 C 80.110827,104.109 80.204827,103.699 80.520827,103.855 L 80.739827,104.234 C 81.055827,103.918 81.563827,103.25 82.196827,103.632 C 82.544827,103.949 82.481827,104.679 82.258827,105.062 C 81.879827,105.57 82.512827,106.715 81.434827,106.683 C 81.434827,106.906 81.372827,107.16 81.497827,107.351 C 81.684827,107.004 82.036827,106.683 82.415827,106.812 C 82.700827,107.066 82.669827,107.445 83.016827,107.668 C 83.047827,107.351 83.270827,107.035 83.551827,106.906 C 84.469827,106.968 84.024827,108.75 85.231827,108.336 C 86.087827,108.812 85.044827,110.148 86.149827,110.402 L 86.590827,109.418 C 86.180827,109.039 85.575827,108.527 85.829827,107.894 C 86.239827,107.453 86.840827,107.453 87.415827,107.355 C 86.465827,106.687 85.005827,106.914 84.368827,105.765 C 84.114827,105.132 84.524827,104.429 84.622827,104.019 C 85.954827,104.812 87.157827,106.246 88.809827,106.531 C 89.188827,106.718 89.696827,107.484 90.079827,106.754 L 90.395827,106.437 C 90.079827,106.281 89.633827,106.09 89.571827,105.675 L 89.571827,105.168 C 88.430827,105.261 87.606827,104.758 86.590827,104.312 L 86.590827,104.156 L 87.126827,104.093 C 86.208827,103.777 85.825827,102.218 84.684827,102.886 C 84.212827,102.886 83.958827,102.347 83.481827,102.73 C 83.133827,102.636 83.262827,102.414 83.008827,102.191 C 82.536827,102.066 81.993827,101.906 81.708827,101.429 C 81.614827,100.988 82.118827,101.113 82.340827,100.988 C 82.247827,100.066 80.821827,99.91 81.325827,98.922 C 81.481827,98.859 81.544827,98.984 81.641827,99.078 C 82.114827,98.539 81.422827,98.125 81.262827,97.679 C 80.661827,97.902 80.059827,97.492 79.805827,96.918 C 79.270827,95.965 80.376827,95.84 80.821827,95.265 C 80.317827,94.949 80.286827,94.218 80.442827,93.644 L 80.661827,93.582 C 80.817827,94.121 80.598827,94.789 81.102827,95.172 C 81.575827,94.886 82.274827,94.73 82.782827,95.015 C 83.446827,95.461 82.751827,96.254 83.098827,96.699 C 83.477827,97.047 83.129827,97.746 83.762827,97.937 C 84.016827,97.558 83.606827,97.304 83.700827,96.922 C 84.204827,96.984 84.172827,97.652 84.364827,98 L 85.758827,98.761 C 84.333827,97.652 84.997827,95.39 83.317827,94.343 C 82.462827,93.234 83.696827,91.863 82.844827,90.75 C 82.751827,91.004 82.465827,90.906 82.337827,90.812 C 81.801827,90.242 80.942827,90.433 80.337827,90.05 C 80.020827,89.828 79.801827,89.64 79.575827,89.289 C 79.481827,88.687 79.954827,88.179 80.493827,88.082 C 81.094827,88.461 82.141827,87.957 82.458827,88.781 C 83.376827,88.75 84.329827,89.48 84.739827,90.371 C 85.309827,91.769 83.407827,93.55 85.594827,94.187 C 86.512827,94.82 85.782827,96.984 87.403827,96.476 C 87.751827,96.16 87.372827,95.554 87.782827,95.269 C 86.864827,95.175 86.008827,94.414 85.594827,93.586 C 84.962827,91.965 85.340827,90.343 86.419827,89.07 L 88.544827,86.879 C 88.071827,85.832 86.485827,86.308 85.657827,86.179 C 85.403827,85.961 84.930827,86.304 84.739827,85.863 C 84.454827,85.515 84.266827,84.972 84.454827,84.496 C 84.547827,84.054 84.044827,83.64 83.852827,83.195 C 83.567827,81.734 85.278827,81.543 85.977827,80.621 C 86.610827,80.273 86.641827,81.191 86.801827,81.543 C 86.801827,81.765 86.864827,82.019 86.739827,82.211 C 86.231827,82.304 86.485827,81.672 86.204827,81.449 C 86.016827,81.859 85.856827,82.242 85.887827,82.75 C 86.364827,83.16 86.868827,82.656 87.344827,82.593 C 87.282827,83.293 86.520827,83.578 86.044827,83.961 C 86.262827,84.054 86.516827,84.402 86.899827,84.277 C 87.438827,83.547 88.262827,83.101 88.040827,82.05 C 88.227827,81.351 89.087827,81.418 89.305827,80.781 C 89.368827,80.34 89.559827,79.765 89.305827,79.382 C 89.399827,79.258 89.559827,79.351 89.684827,79.32 C 89.840827,79.539 89.938827,79.761 90.157827,79.922 C 90.442827,79.605 90.126827,78.812 90.692827,78.777 L 90.977827,79.379 C 91.356827,79.125 90.883827,78.394 91.356827,78.332 C 91.766827,78.617 91.672827,79.093 91.891827,79.476 C 92.555827,79.289 91.797827,78.332 92.426827,78.332 C 92.837827,78.711 92.774827,79.285 92.868827,79.761 C 94.137827,79.761 95.817827,79.605 96.454827,81 C 96.579827,81.031 96.672827,81.062 96.770827,81.156 C 96.926827,80.968 96.770827,80.777 96.676827,80.617 C 96.012827,79.058 93.348827,79.41 94.012827,77.406 C 95.598827,75.656 98.708827,76.199 100.64583,76.965 C 102.38783,77.726 104.20083,79.093 106.29483,78.332 L 106.30583,78.3 z M 90.438827,85.394 C 92.149827,88.222 87.329827,89.148 87.645827,91.882 C 88.118827,94.14 90.973827,91.82 91.833827,93.855 C 92.305827,94.234 91.708827,95.57 92.594827,95.316 C 92.407827,95.093 92.247827,94.808 92.438827,94.554 L 93.262827,94.554 L 92.438827,92.582 C 92.251827,92.707 91.930827,92.961 91.743827,92.644 C 91.208827,91.246 90.540827,89.593 91.141827,88 C 90.223827,87.109 91.868827,86.761 91.903827,85.996 C 91.587827,85.457 92.282827,84.851 92.122827,84.25 C 91.649827,84.66 91.012827,85.234 90.442827,85.394 L 90.438827,85.394 z M 97.231827,97.925 C 97.262827,98.465 97.833827,99.07 97.294827,99.578 C 96.567827,98.5 95.645827,99.578 94.790827,99.672 C 94.255827,99.765 93.555827,100.117 93.047827,99.672 C 93.016827,99.293 93.079827,98.972 93.266827,98.687 C 92.157827,99.195 90.919827,97.289 90.157827,98.531 L 90.919827,99.199 C 91.106827,99.929 90.887827,100.691 90.540827,101.265 L 90.919827,101.203 C 91.329827,101.836 91.645827,100.886 92.219827,101.203 L 92.126827,101.109 C 92.094827,100.824 92.157827,100.57 92.344827,100.347 C 93.106827,100.222 93.864827,100.601 94.563827,100.824 L 94.626827,100.445 C 94.973827,100.32 95.196827,100.351 95.544827,100.445 C 95.637827,101.937 97.286827,100.601 97.762827,101.652 C 98.395827,101.019 99.442827,101.336 100.04483,100.828 C 99.251827,100.32 98.997827,99.304 98.364827,98.601 L 98.047827,99.078 C 97.512827,98.922 97.606827,98.254 97.223827,97.933 L 97.231827,97.925 z M 86.184827,98.976 L 85.805827,98.754 L 86.024827,98.816 L 86.180827,98.972 L 86.184827,98.976 z M 86.883827,98.914 L 87.169827,100.281 L 88.247827,100.281 L 88.247827,100.125 C 88.090827,99.715 88.309827,99.269 88.688827,98.98 L 86.879827,98.918 L 86.883827,98.914 z M 91.583827,105.562 L 91.204827,106.23 C 91.645827,106.707 92.090827,107.086 92.598827,107.375 C 92.755827,107.218 92.567827,106.933 92.723827,106.773 C 92.438827,106.836 92.215827,106.679 92.059827,106.457 C 91.934827,106.203 92.247827,106.14 92.278827,105.949 C 92.059827,105.793 91.868827,105.601 91.583827,105.57 L 91.583827,105.562 z M 80.411827,105.625 C 80.157827,106.066 80.629827,106.418 80.852827,106.769 C 81.262827,106.261 80.313827,106.101 80.411827,105.625 z M 97.169827,106.168 L 96.852827,106.39 C 97.008827,106.515 97.106827,106.707 97.071827,106.929 L 97.165827,106.168 L 97.169827,106.168 z M 88.407827,109.441 C 87.426827,109.629 88.379827,110.617 87.872827,111.125 C 88.157827,111.281 87.872827,112.172 88.473827,111.726 C 89.137827,111.758 89.489827,112.359 89.774827,112.871 L 89.680827,112.429 C 89.837827,112.144 90.122827,111.859 90.536827,111.953 C 90.692827,111.984 90.883827,112.175 90.915827,112.332 L 90.915827,112.175 C 91.071827,111.734 91.547827,111.668 91.962827,111.668 C 92.309827,111.761 92.340827,112.144 92.434827,112.429 C 92.907827,113.097 93.544827,112.683 94.243827,112.808 C 94.622827,112.715 94.969827,113.316 95.255827,112.871 C 94.528827,111.98 93.161827,112.238 92.813827,110.965 C 92.243827,110.902 91.290827,110.679 91.133827,111.406 C 90.723827,111.882 90.118827,111.785 89.547827,111.785 C 89.262827,111.531 88.790827,111.117 89.075827,110.64 C 89.391827,110.008 90.024827,109.593 90.755827,109.656 L 90.692827,109.117 C 90.219827,108.64 88.379827,108.132 88.411827,109.433 L 88.407827,109.441 z M 103.48583,110.429 C 102.82183,110.523 102.25183,110.746 101.96583,111.414 C 101.58783,111.793 101.01683,111.89 100.50883,111.73 C 100.09883,112.078 99.274827,112.238 99.305827,112.875 C 101.17683,114.433 102.22383,111.382 103.87283,111.285 C 103.49383,111.097 103.61883,110.715 103.49383,110.429"
       id="path22" />
    <path
       style="fill:#a64b18;stroke:none"
       d="M 95.169827,77.918 C 95.485827,78.679 96.247827,77.98 96.688827,78.519 L 95.708827,78.898 C 95.266827,78.644 94.661827,78.457 94.505827,77.914 C 94.692827,77.183 95.454827,76.898 96.090827,76.769 L 95.172827,77.914"
       id="path24" />
    <path
       style="fill:#a64b18;stroke:none"
       d="M 100.21583,77.441 C 100.12283,77.851 100.34083,78.297 100.59483,78.679 C 99.294827,78.867 98.278827,78.172 97.454827,77.379 C 97.075827,77.789 97.833827,78.265 97.926827,78.523 C 97.262827,78.336 96.786827,77.699 96.087827,77.601 C 97.036827,75.918 98.942827,77.254 100.21283,77.445"
       id="path26" />
    <path
       style="fill:#a64b18;stroke:none"
       d="M 106.59483,78.683 C 106.68883,79.254 106.21583,79.699 105.77083,79.89 C 104.12283,80.332 102.91583,79.191 101.48983,78.843 C 101.11083,78.558 100.79483,78.211 100.66583,77.765 C 102.50583,78.398 104.59883,80.086 106.59883,78.687"
       id="path28" />
    <path
       style="fill:#a64b18;stroke:none"
       d="M 100.05583,80.879 C 99.993827,80.656 99.739827,80.562 99.520827,80.5 L 99.301827,80.754 L 100.05983,82.726 C 99.934827,82.758 99.551827,82.125 99.301827,82.504 C 99.333827,83.172 99.837827,83.84 99.743827,84.632 C 99.333827,84.508 99.458827,83.742 98.825827,83.871 C 98.508827,84.187 98.825827,84.793 98.825827,85.238 L 98.161827,83.871 C 98.446827,83.965 98.602827,83.746 98.762827,83.554 C 98.544827,83.269 99.301827,83.078 99.141827,82.664 C 99.266827,81.742 98.633827,81.363 98.762827,80.437 C 98.321827,80.027 99.016827,79.422 98.446827,79.07 C 98.633827,78.945 98.954827,78.976 99.141827,79.07 C 99.649827,79.578 99.837827,80.277 100.05983,80.882"
       id="path30" />
    <path
       style="fill:#a64b18;stroke:none"
       d="M 98.153827,79.445 C 98.278827,79.824 97.774827,79.984 97.458827,79.886 C 96.922827,80.011 96.602827,79.632 96.255827,79.285 C 96.825827,79.129 97.618827,78.937 98.157827,79.441"
       id="path32" />
    <path
       style="fill:#991800;stroke:none"
       d="M 102.56383,81.132 L 102.78283,82.179 C 102.30983,80.687 100.21583,80.621 100.11883,79.222 C 101.25883,79.379 101.89183,80.269 102.55983,81.129"
       id="path34" />
    <path
       style="fill:#a64b18;stroke:none"
       d="M 91.676827,80.433 C 92.024827,80.465 92.247827,80.054 92.438827,79.832 C 92.501827,80.117 92.532827,80.656 92.817827,80.976 L 93.036827,80.976 L 93.098827,80.277 C 94.016827,80.308 95.032827,80.121 95.700827,80.754 C 95.165827,80.941 94.430827,80.375 93.958827,80.879 C 94.399827,81.672 95.544827,81.164 96.020827,82.117 C 95.450827,82.433 94.688827,81.449 94.024827,81.8 C 94.340827,82.433 95.258827,82.5 95.704827,83.039 C 95.040827,83.355 93.930827,83.039 93.262827,82.5 C 93.641827,82.152 93.801827,81.644 93.735827,81.199 C 93.071827,80.851 93.419827,81.769 93.040827,81.961 C 92.786827,82.215 92.407827,82.086 92.059827,82.117 C 92.215827,81.738 92.122827,81.164 91.840827,80.972 L 91.684827,80.972 C 91.399827,81.289 91.938827,81.672 91.528827,81.957 C 91.087827,82.527 90.387827,81.64 90.071827,82.336 L 89.946827,82.336 C 89.852827,82.148 90.071827,82.082 90.165827,81.957 C 90.383827,81.988 90.544827,81.894 90.700827,81.734 C 90.637827,81.324 90.165827,81.195 89.844827,81.035 L 89.559827,81.035 L 89.844827,80.211 C 90.098827,80.429 89.938827,81.035 90.446827,80.972 L 90.762827,80.117 C 90.731827,80.273 90.794827,80.402 90.919827,80.496 C 91.329827,80.59 91.360827,80.086 91.454827,79.828 C 91.641827,79.984 91.360827,80.304 91.672827,80.429"
       id="path36" />
    <path
       style="fill:#991800;stroke:none"
       d="M 110.94283,85.078 C 111.41583,86.093 111.82983,87.238 112.84483,87.843 C 110.11883,86.859 109.86483,83.742 108.27883,81.738 C 108.12283,81.707 107.96283,81.453 107.83783,81.644 L 109.04083,83.871 C 108.59883,84.379 109.61083,84.855 109.04083,85.394 C 108.81783,85.55 108.43883,85.457 108.34483,85.172 C 108.28283,84.793 108.81783,84.984 108.81783,84.632 C 108.69283,82.882 107.16983,81.707 105.83783,80.656 C 106.27883,80.086 107.16983,80.34 107.83783,80.75 C 109.32583,81.863 110.53283,83.355 110.94683,85.074"
       id="path38" />
    <path
       style="fill:#a64b18;stroke:none"
       d="M 98.309827,80.75 L 98.309827,81.035 C 97.993827,80.816 97.137827,81.258 97.294827,80.496 C 97.579827,80.59 98.340827,79.988 98.309827,80.75"
       id="path40" />
    <path
       style="fill:#991800;stroke:none"
       d="M 102.24783,82.562 L 101.10683,81.195 C 101.64583,81.449 102.12283,82.019 102.24783,82.562"
       id="path42" />
    <path
       style="fill:#a64b18;stroke:none"
       d="M 97.610827,82.785 L 97.501827,83.8 C 97.313827,83.168 96.629827,81.765 96.090827,81.355 C 96.852827,81.324 97.547827,82.656 97.610827,82.785"
       id="path44" />
    <path
       style="fill:#ff0000;stroke:none"
       d="M 88.251827,82.945 C 88.094827,82.343 88.532827,81.898 88.915827,81.578 L 89.610827,81.515 C 89.102827,81.925 89.422827,83.23 88.247827,82.945"
       id="path46" />
    <path
       style="fill:#3eff3e;stroke:none"
       d="M 85.489827,83.261 C 85.774827,83.261 85.868827,83.199 86.122827,83.324 C 86.059827,83.449 85.266827,83.64 85.489827,84.179 C 85.743827,84.59 86.282827,84.367 86.629827,84.558 L 86.786827,85.605 C 86.251827,85.793 85.645827,85.636 85.106827,85.449 C 84.821827,85.07 84.919827,84.656 85.106827,84.242 C 84.790827,83.703 84.028827,83.097 84.442827,82.398 L 85.583827,81.574 C 85.551827,82.144 85.110827,82.718 85.489827,83.258"
       id="path48" />
    <path
       style="fill:#a64b18;stroke:none"
       d="M 98.594827,82.277 L 98.532827,82.785 C 97.962827,82.722 97.770827,82.086 97.551827,81.64 C 97.962827,81.703 98.501827,81.734 98.598827,82.273"
       id="path50" />
    <path
       style="fill:#991800;stroke:none"
       d="M 101.80183,83.55 L 101.64583,84.187 C 101.29783,83.332 100.50583,82.664 100.34483,81.738 C 101.07183,81.707 101.96283,82.691 101.80183,83.55"
       id="path52" />
    <path
       style="fill:#991800;stroke:none"
       d="M 107.83383,84.949 C 107.83383,85.394 108.11883,85.84 107.89583,86.316 C 106.81783,86.664 105.89583,85.109 105.07583,84.312 C 105.73983,84.882 106.43883,85.297 107.13783,85.773 C 107.67283,85.457 107.10683,85.011 107.07583,84.629 L 105.17283,81.957 C 106.25183,82.718 107.10683,83.863 107.83783,84.945"
       id="path54" />
    <path
       style="fill:#a64b18;stroke:none"
       d="M 97.008827,83.867 L 96.790827,84.308 C 96.442827,84.34 96.411827,83.961 96.255827,83.8 C 96.508827,83.773 96.727827,83.453 96.856827,83.261 C 96.981827,82.562 96.348827,83.386 96.255827,82.785 L 96.473827,82.5 C 96.790827,82.816 97.169827,83.355 97.008827,83.867"
       id="path56" />
    <path
       style="fill:#a64b18;stroke:none"
       d="M 93.360827,83.261 C 92.727827,83.738 93.708827,85.613 92.442827,85.074 C 92.442827,84.984 93.235827,83.547 91.524827,82.562 C 92.805827,82.609 92.981827,82.5 93.364827,83.261"
       id="path58" />
    <path
       style="fill:#a64b18;stroke:none"
       d="M 91.899827,83.55 C 91.680827,84.058 91.137827,84.504 90.598827,84.629 C 90.629827,84.187 90.883827,83.675 90.692827,83.328 C 89.551827,83.613 88.251827,83.961 87.645827,85.011 L 87.770827,85.613 C 87.516827,85.613 87.297827,85.297 87.169827,85.074 C 87.422827,84.472 87.833827,83.804 88.469827,83.484 C 88.911827,83.261 89.864827,83.64 89.833827,82.882 C 90.688827,82.758 91.356827,83.039 91.895827,83.55"
       id="path60" />
    <path
       style="fill:#991800;stroke:none"
       d="M 103.00583,83.867 C 102.81783,83.613 102.43483,83.168 102.94283,82.882 C 103.35283,83.136 102.56383,83.515 103.00583,83.867"
       id="path62" />
    <path
       style="fill:#a64b18;stroke:none"
       d="M 94.340827,83.929 L 93.805827,85.453 C 94.153827,84.851 93.012827,83.449 94.184827,83.547 L 94.340827,83.925"
       id="path64" />
    <path
       style="fill:#a64b18;stroke:none"
       d="M 95.325827,83.804 C 95.481827,84.152 95.356827,84.566 95.169827,84.851 L 94.883827,83.804 L 95.325827,83.804"
       id="path66" />
    <path
       style="fill:#991800;stroke:none"
       d="M 102.56383,85.617 L 102.24783,85.996 C 101.61483,85.363 102.21583,84.504 102.34083,83.804 C 102.62683,84.215 102.71983,85.011 102.55983,85.617"
       id="path68" />
    <path
       style="fill:#991800;stroke:none"
       d="M 100.87983,84.566 C 101.09883,85.074 101.09883,85.675 101.19683,86.218 L 100.34083,84.027 C 100.68883,83.742 101.35683,84.058 100.87683,84.566"
       id="path70" />
    <path
       style="fill:#a64b18;stroke:none"
       d="M 96.407827,87.367 C 95.934827,86.605 95.614827,85.461 95.872827,84.316 C 96.950827,84.886 96.344827,86.414 96.407827,87.367"
       id="path72" />
    <path
       style="fill:#3eff3e;stroke:none"
       d="M 90.215827,85.84 C 90.469827,88.511 86.348827,89.242 87.106827,92.105 C 87.579827,92.898 87.262827,94.074 88.309827,94.554 C 87.516827,94.554 86.501827,94.332 86.122827,93.41 C 85.649827,92.742 85.743827,91.726 85.743827,90.961 C 86.313827,89.277 88.215827,88.418 89.071827,86.988 C 88.915827,86.418 88.723827,85.843 88.313827,85.398 C 88.219827,85.144 88.376827,84.797 88.692827,84.699 C 89.356827,84.699 89.926827,85.332 90.212827,85.843"
       id="path74" />
    <path
       style="fill:#991800;stroke:none"
       d="M 97.676827,85.234 L 97.458827,84.695 L 97.676827,85.074 L 97.676827,85.23"
       id="path76" />
    <path
       style="fill:#a64b18;stroke:none"
       d="M 95.262827,85.457 C 95.262827,86.125 95.641827,86.855 94.883827,87.3 L 94.567827,87.523 C 94.536827,86.922 94.883827,86.379 94.629827,85.777 C 94.094827,86.031 94.157827,86.699 94.028827,87.238 C 93.364827,86.285 94.786827,85.871 94.563827,84.949 C 94.782827,85.105 94.817827,85.648 95.258827,85.457"
       id="path78" />
    <path
       style="fill:#991800;stroke:none"
       d="M 100.59483,87.621 L 99.899827,85.394 L 100.27883,85.172 C 100.49783,85.871 101.16583,86.793 100.59483,87.621"
       id="path80" />
    <path
       style="fill:#991800;stroke:none"
       d="M 98.434827,88.765 C 98.215827,87.527 96.817827,86.73 97.008827,85.332 C 97.926827,86.222 98.434827,87.523 98.434827,88.765"
       id="path82" />
    <path
       style="fill:#a64b18;stroke:none"
       d="M 92.883827,87.238 L 92.727827,87.238 L 93.262827,85.554 C 93.262827,85.965 93.704827,86.953 92.883827,87.238"
       id="path84" />
    <path
       style="fill:#a64b18;stroke:none"
       d="M 112.78283,90.039 C 110.78683,89.5 110.50183,87.144 109.73583,85.554 C 110.90783,86.984 111.63783,88.765 112.78283,90.039"
       id="path86" />
    <path
       style="fill:#a64b18;stroke:none"
       d="M 92.055827,87.461 C 91.868827,87.523 91.739827,87.367 91.583827,87.304 L 92.598827,86.004 C 92.411827,86.48 92.344827,87.082 92.063827,87.465"
       id="path88" />
    <path
       style="fill:#991800;stroke:none"
       d="M 99.672827,88.894 L 99.579827,86.16 L 100.05183,87.75 L 99.672827,88.894"
       id="path90" />
    <path
       style="fill:#a64b18;stroke:none"
       d="M 109.25883,86.156 C 109.82983,87.617 110.55983,88.984 111.47783,90.289 L 111.25883,90.511 C 109.92683,89.465 109.45083,87.84 108.87983,86.379 C 108.78683,86.125 109.09883,86.156 109.25883,86.156"
       id="path92" />
    <path
       style="fill:#991800;stroke:none"
       d="M 106.91183,87.144 C 106.50183,87.363 106.02483,86.922 105.61083,86.699 C 105.95883,86 106.46583,86.605 106.91183,86.855 L 106.91183,87.14"
       id="path94" />
    <path
       style="fill:#991800;stroke:none"
       d="M 105.67283,87.906 C 105.41983,88.605 104.94683,87.937 104.62683,87.843 L 104.24783,87.304 C 104.52883,87.179 104.62683,86.765 104.46583,86.48 C 104.87683,86.957 105.82983,87.304 105.66983,87.91"
       id="path96" />
    <path
       style="fill:#991800;stroke:none"
       d="M 101.73983,87.3 C 101.64583,87.523 101.55183,87.808 101.26683,87.902 C 101.11083,87.523 101.86883,87.172 101.80183,86.695 C 101.95883,86.882 101.58383,87.14 101.73983,87.297"
       id="path98" />
    <path
       style="fill:#a64b18;stroke:none"
       d="M 110.55983,90.738 C 109.57983,90.105 108.59483,88.609 108.21283,87.304 L 108.33783,86.925 C 108.96983,88.195 109.47783,89.597 110.55583,90.742"
       id="path100" />
    <path
       style="fill:#991800;stroke:none"
       d="M 97.610827,89.593 C 97.294827,88.863 96.817827,88.195 97.008827,87.242 C 97.481827,87.843 97.735827,88.765 97.610827,89.593"
       id="path102" />
    <path
       style="fill:#991800;stroke:none"
       d="M 96.532827,89.754 C 96.122827,88.992 95.551827,88.23 95.551827,87.371 C 96.247827,87.941 96.598827,88.8 96.532827,89.754"
       id="path104" />
    <path
       style="fill:#a64b18;stroke:none"
       d="M 109.57583,90.738 C 108.27483,90.359 107.80183,88.961 107.29483,87.91 L 107.57983,87.468 C 107.92683,88.675 108.75183,89.726 109.57583,90.742"
       id="path106" />
    <path
       style="fill:#a64b18;stroke:none"
       d="M 95.391827,90.8 C 94.790827,90.863 94.665827,90.132 94.411827,89.754 L 94.255827,88.992 L 94.790827,89.277 C 95.360827,88.898 94.665827,88.293 95.106827,87.847 C 95.547827,88.703 95.200827,89.851 95.391827,90.804"
       id="path108" />
    <path
       style="fill:#a64b18;stroke:none"
       d="M 106.59483,88.004 C 107.16583,88.925 107.57583,89.91 108.27483,90.8 C 107.10283,90.988 106.62683,89.5 106.14983,88.672 L 106.36883,87.91 L 106.58783,88.004"
       id="path110" />
    <path
       style="fill:#991800;stroke:none"
       d="M 104.46583,88.449 C 104.40383,88.672 104.34083,88.89 104.14983,88.988 C 103.83383,88.988 103.57983,88.734 103.48583,88.449 L 103.92683,88.008 C 104.14583,88.07 104.30583,88.293 104.46283,88.449"
       id="path112" />
    <path
       style="fill:#a64b18;stroke:none"
       d="M 113.38383,88.511 C 113.44683,88.859 113.22783,89.082 113.29083,89.433 C 112.71983,89.34 112.46583,88.703 112.14983,88.289 L 113.38383,88.511"
       id="path114" />
    <path
       style="fill:#a64b18;stroke:none"
       d="M 80.696827,88.511 C 80.571827,88.734 80.126827,88.922 80.161827,89.273 C 79.844827,88.863 80.379827,88.574 80.696827,88.511"
       id="path116" />
    <path
       style="fill:#a64b18;stroke:none"
       d="M 93.801827,91.945 C 93.262827,91.152 92.977827,90.293 92.883827,89.273 C 92.977827,89.429 93.102827,89.461 93.262827,89.429 C 93.770827,89.207 93.169827,88.797 93.579827,88.508 C 93.454827,89.652 93.422827,90.953 93.797827,91.941"
       id="path118" />
    <path
       style="fill:#991800;stroke:none"
       d="M 103.10283,88.988 L 103.00883,89.433 C 102.75583,89.371 102.53683,89.211 102.34483,88.988 L 102.62983,88.609 C 102.81783,88.64 102.94683,88.863 103.10283,88.988"
       id="path120" />
    <path
       style="fill:#991800;stroke:none"
       d="M 103.64183,91.504 C 102.30983,91.25 101.57983,89.82 101.26283,88.675 C 102.37283,89.468 102.43483,90.711 103.64183,91.504"
       id="path122" />
    <path
       style="fill:#a64b18;stroke:none"
       d="M 81.837827,88.828 C 81.680827,89.113 81.172827,89.527 81.458827,89.972 C 81.172827,90.004 80.922827,89.656 80.794827,89.433 C 80.825827,88.988 81.458827,88.703 81.840827,88.832"
       id="path124" />
    <path
       style="fill:#a64b18;stroke:none"
       d="M 106.52883,90.675 C 105.95883,90.422 105.35683,89.597 105.16583,88.894 C 106.02083,88.988 105.92683,90.132 106.52883,90.675"
       id="path126" />
    <path
       style="fill:#a64b18;stroke:none"
       d="M 92.055827,91.882 C 91.614827,91.09 91.360827,90.199 91.360827,89.211 C 91.422827,89.398 91.547827,89.621 91.739827,89.652 L 92.212827,89.144 C 92.497827,89.906 92.684827,91.179 92.055827,91.879"
       id="path128" />
    <path
       style="fill:#a64b18;stroke:none"
       d="M 82.376827,90.195 C 82.122827,90.32 81.903827,89.754 81.997827,89.527 C 82.215827,89.433 82.376827,89.242 82.598827,89.211 L 82.379827,90.195"
       id="path130" />
    <path
       style="fill:#3eff3e;stroke:none"
       d="M 84.219827,90.515 C 84.598827,91.629 83.587827,92.422 83.965827,93.566 C 85.962827,94.234 85.075827,96.777 87.012827,97.222 L 87.266827,98.207 C 86.825827,98.269 86.540827,98.05 86.126827,98.144 C 84.700827,97.066 85.555827,94.965 83.844827,94.105 C 83.180827,92.836 84.255827,90.894 82.926827,89.91 L 82.989827,89.371 C 83.399827,89.625 84.005827,89.972 84.223827,90.515"
       id="path132" />
    <path
       style="fill:#a64b18;stroke:none"
       d="M 105.54483,90.738 L 105.92283,91.117 C 105.48183,91.117 104.97383,90.894 104.62283,90.418 C 104.46583,90.195 104.24383,89.941 104.24383,89.656 C 104.96983,89.179 104.90783,90.449 105.54483,90.734"
       id="path134" />
    <path
       style="fill:#991800;stroke:none"
       d="M 97.008827,90.578 L 97.610827,91.816 C 97.200827,91.308 96.848827,90.164 96.024827,90.293 L 95.930827,89.66 C 96.087827,90.136 96.594827,90.422 97.008827,90.582"
       id="path136" />
    <path
       style="fill:#a64b18;stroke:none"
       d="M 104.62683,91.277 C 104.02483,91.183 103.51683,90.8 103.16983,90.293 L 103.64183,89.754 C 103.79783,90.324 104.24383,90.863 104.62283,91.277"
       id="path138" />
    <path
       style="fill:#991800;stroke:none"
       d="M 98.817827,92.648 C 98.438827,91.949 97.770827,91.312 97.676827,90.582 L 98.817827,92.648"
       id="path140" />
    <path
       style="fill:#730000;stroke:none"
       d="M 112.08383,90.578 C 112.33783,92.515 112.41583,95.425 112.32183,97.398 C 112.32183,95.394 111.89583,92.707 111.76683,90.738 C 111.86083,90.675 111.95483,90.515 112.08383,90.582"
       id="path142" />
    <path
       style="fill:#730000;stroke:none"
       d="M 112.95883,90.324 L 113.00583,90.734 L 112.87983,98.351 L 112.48583,90.879 L 112.95883,90.324"
       id="path144" />
    <path
       style="fill:#991800;stroke:none"
       d="M 101.48583,91.722 L 101.73983,93.09 L 100.34483,90.8 C 100.78683,91.054 100.91583,92.136 101.48583,91.722"
       id="path146" />
    <path
       style="fill:#730000;stroke:none"
       d="M 109.79783,91.343 C 109.98583,92.613 110.05183,94.047 110.01683,95.32 C 109.44683,94.019 109.12983,92.617 108.81383,91.187 C 109.12983,91.25 109.47783,91.535 109.79483,91.343"
       id="path148" />
    <path
       style="fill:#730000;stroke:none"
       d="M 108.65783,94.332 C 108.05583,93.793 107.73983,92.363 107.29483,91.343 C 109.00583,91.218 108.21283,93.347 108.65783,94.332"
       id="path150" />
    <path
       style="fill:#730000;stroke:none"
       d="M 110.87983,96.082 L 110.87983,96.304 L 110.56383,91.504 C 110.71983,91.535 111.16583,91.093 111.09883,91.566 C 111.35283,93.125 110.94283,94.586 110.87983,96.082"
       id="path152" />
    <path
       style="fill:#991800;stroke:none"
       d="M 96.469827,92.265 C 96.407827,92.203 95.962827,91.726 96.090827,91.441 L 96.469827,92.265"
       id="path154" />
    <path
       style="fill:#730000;stroke:none"
       d="M 107.29083,94.109 C 106.56383,93.476 106.24383,92.648 105.83383,91.882 C 106.08783,91.882 106.27483,91.25 106.59483,91.504 C 107.00583,92.297 107.03683,93.379 107.29083,94.109"
       id="path156" />
    <path
       style="fill:#991800;stroke:none"
       d="M 101.57983,93.855 L 100.12283,91.882 L 100.21583,91.726 C 100.81783,92.328 101.04083,93.187 101.57983,93.855"
       id="path158" />
    <path
       style="fill:#730000;stroke:none"
       d="M 104.40383,91.882 C 104.43483,91.82 104.87683,92.008 105.00583,91.726 L 105.66983,93.476 L 104.39983,91.886"
       id="path160" />
    <path
       style="fill:#a64b18;stroke:none"
       d="M 95.008827,93.25 L 97.005827,96.015 C 95.833827,95.16 95.196827,94.011 94.340827,92.867 L 94.497827,92.199 C 94.938827,92.355 94.751827,92.929 95.005827,93.246"
       id="path162" />
    <path
       style="fill:#991800;stroke:none"
       d="M 97.071827,95.16 C 96.532827,94.59 95.962827,93.57 95.551827,92.715 L 95.868827,92.269 C 96.501827,93.16 96.786827,94.144 97.071827,95.164"
       id="path164" />
    <path
       style="fill:#730000;stroke:none"
       d="M 99.231827,94.062 L 99.153827,94.539 L 98.219827,92.648 C 98.313827,92.902 99.137827,93.777 99.235827,94.062"
       id="path166" />
    <path
       style="fill:#a64b18;stroke:none"
       d="M 91.454827,94.777 C 90.727827,93.441 88.821827,94.965 88.090827,93.476 C 89.106827,94.207 91.262827,92.875 91.454827,94.777"
       id="path168" />
    <path
       style="fill:#00ff00;stroke:none"
       d="M 118.11483,95.382 C 118.30183,95.636 118.49383,95.445 118.71583,95.382 L 119.09483,94.715 C 119.25183,96.304 118.71583,97.925 117.19283,98.754 C 116.71983,98.086 116.08383,97.484 116.11483,96.625 C 116.49383,95.992 116.49383,95.066 116.20883,94.398 C 116.80983,94.906 116.52483,95.89 117.03283,96.402 C 117.31383,95.48 117.06383,94.367 117.56783,93.574 C 117.66183,94.144 118.16983,94.781 118.10283,95.386"
       id="path170" />
    <path
       style="fill:#991800;stroke:none"
       d="M 94.786827,96.402 L 93.360827,93.73 L 94.723827,95.543 L 94.786827,96.398"
       id="path172" />
    <path
       style="fill:#730000;stroke:none"
       d="M 111.63783,98.054 C 111.29083,96.816 111.63783,95.258 111.63783,93.859 C 111.73183,95.226 112.23983,96.785 111.63783,98.054"
       id="path174" />
    <path
       style="fill:#730000;stroke:none"
       d="M 98.434827,95.636 C 99.036827,94.906 99.446827,96.715 99.735827,95.543 C 100.62283,96.843 101.95483,97.961 102.39983,99.453 C 100.91183,98.562 99.735827,97.004 98.751827,95.699 C 98.594827,97.258 100.30583,98.211 100.43083,99.738 C 99.575827,97.765 97.926827,96.113 97.383827,94.015 C 97.731827,94.554 97.919827,95.16 98.430827,95.636"
       id="path176" />
    <path
       style="fill:#991800;stroke:none"
       d="M 103.59483,95.254 C 103.56383,95.285 103.26283,95.476 103.29483,95.539 L 102.48583,94.062 L 103.59483,95.254"
       id="path178" />
    <path
       style="fill:#00ff00;stroke:none"
       d="M 76.981827,95.925 L 77.645827,95.925 C 77.360827,96.433 76.313827,96.812 76.598827,97.547 C 76.723827,97.734 77.294827,97.957 77.485827,97.957 L 76.692827,100.023 C 76.629827,99.168 75.489827,98.019 75.075827,97.449 C 75.454827,97.511 75.547827,97.101 75.676827,96.847 C 75.583827,96.531 75.489827,96.277 75.520827,95.925 C 75.739827,96.019 76.028827,96.179 76.282827,96.019 C 76.629827,95.672 76.282827,95.258 76.282827,94.875 C 76.536827,94.906 77.075827,94.812 77.360827,94.496 C 77.329827,95.004 76.598827,95.418 76.981827,95.925"
       id="path180" />
    <path
       style="fill:#730000;stroke:none"
       d="M 100.11883,95.16 L 99.739827,94.492 L 100.34083,94.933 L 100.12283,95.156"
       id="path182" />
    <path
       style="fill:#730000;stroke:none"
       d="M 101.10283,95.382 C 102.43483,96.144 102.87683,97.64 104.14983,98.593 L 106.36883,100.5 L 105.38783,100.593 C 103.80183,98.687 101.99383,96.906 100.66183,94.933 C 101.00883,94.492 101.04083,95.187 101.10283,95.375"
       id="path184" />
    <path
       style="fill:#ffffff;stroke:none"
       d="M 89.008827,96.402 C 88.790827,96.148 88.790827,95.64 89.008827,95.386 L 89.610827,95.008 C 89.516827,95.355 88.883827,95.8 89.008827,96.406"
       id="path186" />
    <path
       style="fill:#730000;stroke:none"
       d="M 92.122827,96.465 C 91.903827,96.906 91.551827,97.289 91.075827,97.449 C 90.379827,97.636 89.872827,97.23 89.774827,96.625 C 89.743827,96.308 89.555827,95.832 89.837827,95.547 C 90.629827,94.625 91.645827,95.863 92.118827,96.468"
       id="path188" />
    <path
       style="fill:#a64b18;stroke:none"
       d="M 93.868827,95.636 C 93.649827,95.699 93.141827,95.543 93.110827,95.16 C 93.395827,95.254 93.774827,95.285 93.868827,95.636"
       id="path190" />
    <path
       style="fill:#ff7e00;stroke:none"
       d="M 82.442827,95.32 C 82.536827,95.73 82.348827,96.59 81.778827,96.144 L 81.305827,95.636 C 81.653827,95.414 82.001827,95.258 82.446827,95.32"
       id="path192" />
    <path
       style="fill:#ffffff;stroke:none"
       d="M 88.313827,96.402 C 87.903827,96.117 87.965827,95.578 88.407827,95.324 L 88.313827,96.402"
       id="path194" />
    <path
       style="fill:#ffffff;stroke:none"
       d="M 93.200827,96.082 C 92.883827,96.398 92.598827,96.683 92.505827,97.066 C 92.692827,96.781 92.821827,96.05 92.661827,95.543 L 93.196827,96.082"
       id="path196" />
    <path
       style="fill:#730000;stroke:none"
       d="M 109.79783,99.836 C 109.57983,100.023 109.22783,100.152 108.87983,100.215 C 107.29483,98.91 105.67683,97.609 104.15383,96.082 L 104.15383,95.703 C 106.05583,97.004 107.48183,99.488 109.80183,99.836"
       id="path198" />
    <path
       style="fill:#730000;stroke:none"
       d="M 106.91183,99.965 C 105.26283,98.82 103.93083,97.39 102.62983,95.769 L 106.91183,99.965"
       id="path200" />
    <path
       style="fill:#ff7e00;stroke:none"
       d="M 81.618827,96.687 C 81.430827,96.812 81.176827,97.004 80.922827,96.843 C 80.829827,96.812 80.797827,96.937 80.704827,97 C 80.485827,96.715 80.169827,96.047 80.797827,95.922 C 81.176827,95.984 81.208827,96.554 81.622827,96.683"
       id="path202" />
    <path
       style="fill:#a64b18;stroke:none"
       d="M 94.563827,96.91 L 93.262827,96.91 C 93.356827,96.468 93.833827,96.402 94.180827,96.242 C 94.337827,96.465 94.497827,96.652 94.559827,96.91"
       id="path204" />
    <path
       style="fill:#730000;stroke:none"
       d="M 98.817827,98.148 C 98.501827,97.961 98.469827,97.48 98.059827,97.449 L 97.774827,97.828 L 96.919827,96.523 C 97.422827,96.808 97.360827,95.824 97.774827,96.398 L 98.821827,98.148"
       id="path206" />
    <path
       style="fill:#a64b18;stroke:none"
       d="M 96.309827,96.785 L 96.688827,98.308 C 96.087827,98.121 95.708827,97.164 95.485827,96.465 C 95.672827,96.781 96.180827,96.972 96.309827,96.781"
       id="path208" />
    <path
       style="fill:#ff0000;stroke:none"
       d="M 82.919827,98.437 C 82.383827,98.691 81.938827,97.929 81.684827,97.547 C 81.778827,97.199 82.411827,96.976 82.602827,96.531 C 82.821827,97.132 83.172827,97.769 82.919827,98.437"
       id="path210" />
    <path
       style="fill:#730000;stroke:none"
       d="M 89.297827,96.91 C 89.485827,97.351 89.645827,97.832 89.454827,98.308 C 88.919827,98.433 88.251827,98.433 87.868827,97.992 C 87.426827,97.644 87.551827,97.008 87.649827,96.531 C 88.090827,96.91 88.758827,97.484 89.297827,96.91"
       id="path212" />
    <path
       style="fill:#a64b18;stroke:none"
       d="M 94.184827,97.547 C 93.805827,98.277 92.852827,98.023 92.122827,98.054 L 91.837827,97.929 C 92.438827,97.55 93.391827,97.675 94.184827,97.55"
       id="path214" />
    <path
       style="fill:#3ea03e;stroke:none"
       d="M 78.727827,98.691 C 78.540827,98.629 78.411827,98.468 78.192827,98.535 L 78.633827,97.933 C 78.887827,98.027 78.821827,98.472 78.727827,98.695"
       id="path216" />
    <path
       style="fill:#a64b18;stroke:none"
       d="M 95.770827,98.531 C 95.833827,98.5 95.864827,98.437 95.926827,98.437 L 96.020827,98.531 C 95.258827,98.847 94.532827,99.164 93.641827,99.132 L 94.497827,98.148 C 94.813827,98.496 95.290827,98.718 95.766827,98.527"
       id="path218" />
    <path
       style="fill:#3eff3e;stroke:none"
       d="M 86.407827,99.836 C 86.629827,100.758 86.126827,101.55 85.426827,102.187 L 85.208827,102.187 C 85.301827,102.156 85.270827,102.031 85.270827,101.965 C 84.797827,101.523 84.352827,102.121 83.844827,102.027 C 83.844827,101.871 83.813827,101.742 83.688827,101.648 C 83.434827,101.648 83.118827,101.996 82.926827,101.648 C 83.149827,101.015 82.454827,100.379 82.231827,99.742 C 82.516827,99.742 82.262827,99.3 82.169827,99.074 C 82.422827,98.918 82.770827,99.297 83.087827,99.074 L 83.528827,98.312 C 84.700827,98.312 85.493827,99.359 86.415827,99.836"
       id="path220" />
    <path
       style="fill:#730000;stroke:none"
       d="M 104.14983,101.586 C 103.42283,101.461 102.40783,101.617 102.11883,100.73 C 101.89983,100.445 102.05583,99.875 101.58383,99.84 C 101.45883,99.933 101.39583,100.062 101.42683,100.218 L 100.73183,98.82 C 101.68083,100.343 103.74383,99.773 104.15783,101.586"
       id="path222" />
    <path
       style="fill:#730000;stroke:none"
       d="M 104.84883,100.98 C 104.15383,101.297 103.89983,100.347 103.54783,99.965 L 102.94683,98.82 L 104.84883,100.98"
       id="path224" />
    <path
       style="fill:#3ea03e;stroke:none"
       d="M 78.505827,99.359 L 78.505827,99.738 L 77.809827,99.738 C 77.872827,99.359 78.157827,98.66 78.505827,99.359"
       id="path226" />
    <path
       style="fill:#ff7e00;stroke:none"
       d="M 90.536827,99.519 C 90.505827,100.121 90.348827,100.886 89.774827,101.043 C 89.079827,101.136 88.887827,100.343 88.696827,99.898 C 88.633827,99.55 89.075827,99.328 89.297827,99.199 C 89.645827,99.23 90.024827,99.644 90.059827,99.074 C 90.313827,99.043 90.501827,99.297 90.532827,99.515"
       id="path228" />
    <path
       style="fill:#ffffff;stroke:none"
       d="M 83.583827,99.519 C 83.489827,99.898 83.204827,99.425 82.981827,99.363 L 83.075827,99.14 C 83.294827,99.109 83.610827,99.265 83.583827,99.519"
       id="path230" />
    <path
       style="fill:#ffffff;stroke:none"
       d="M 84.598827,99.297 C 84.626827,99.484 84.505827,99.644 84.344827,99.675 C 84.059827,99.707 83.774827,99.457 83.903827,99.199 L 84.598827,99.293"
       id="path232" />
    <path
       style="fill:#3ea03e;stroke:none"
       d="M 75.903827,100.343 L 75.840827,100.437 C 75.653827,100.375 75.555827,100.121 75.587827,99.898 L 75.840827,99.742 C 75.965827,99.898 76.059827,100.183 75.903827,100.343"
       id="path234" />
    <path
       style="fill:#ffffff;stroke:none"
       d="M 83.903827,100.218 C 83.649827,100.535 83.239827,100.535 82.922827,100.343 C 82.735827,100.187 82.606827,99.933 82.829827,99.742 C 83.083827,100.886 84.223827,99.074 83.907827,100.218"
       id="path236" />
    <path
       style="fill:#ffffff;stroke:none"
       d="M 85.583827,100.058 C 85.770827,100.375 85.520827,100.726 85.489827,101.043 L 85.364827,101.043 C 85.208827,100.726 85.270827,100.218 85.583827,100.058"
       id="path238" />
    <path
       style="fill:#00ff00;stroke:none"
       d="M 115.73583,103.652 C 116.74783,103.304 116.30583,101.777 117.47783,101.648 C 117.00583,103.332 116.11483,105.273 114.30583,106.004 C 114.08383,104.351 113.54483,102.25 115.19283,101.105 C 114.78283,101.929 114.46583,102.949 114.59083,103.777 L 114.80983,103.777 C 115.21983,102.601 115.63383,101.425 116.48983,100.437 C 116.48983,101.582 115.98183,102.664 115.73183,103.648"
       id="path240" />
    <path
       style="fill:#ffffff;stroke:none"
       d="M 84.727827,100.664 C 84.883827,101.14 84.348827,101.172 84.126827,101.425 L 83.969827,101.425 C 83.813827,101.015 84.411827,100.758 84.731827,100.664"
       id="path242" />
    <path
       style="fill:#3eff3e;stroke:none"
       d="M 88.313827,100.726 C 88.251827,101.457 87.997827,102.73 88.848827,103.172 C 89.512827,103.297 90.118827,102.761 90.305827,102.187 L 90.368827,101.871 C 90.684827,102.125 91.540827,101.996 91.286827,102.57 C 91.098827,103.172 90.969827,103.648 90.590827,104.093 C 89.958827,104.347 89.356827,104.695 88.528827,104.535 L 88.907827,104.093 C 88.688827,103.746 88.372827,104.093 88.083827,104.093 C 87.258827,103.84 86.657827,103.109 85.958827,102.632 C 86.145827,101.933 87.192827,101.554 87.005827,100.664 L 88.305827,100.726"
       id="path244" />
    <path
       style="fill:#ff7e00;stroke:none"
       d="M 101.41983,100.886 L 101.57583,100.73 C 101.86083,102.16 103.44683,102.097 104.62283,102.254 C 104.77883,102.41 104.93883,102.664 104.77883,102.886 C 104.43083,103.172 103.92283,103.265 103.47783,103.109 C 103.95083,102.793 103.19283,102.379 102.87683,102.187 C 102.11483,101.871 101.03683,101.808 100.27483,101.965 C 100.36883,101.711 100.05583,101.742 99.958827,101.648 L 98.532827,102.027 L 98.532827,101.804 C 99.196827,101.363 100.62683,101.836 100.65783,100.66 C 100.91183,100.785 101.12983,101.136 101.41583,100.882"
       id="path246" />
    <path
       style="fill:#3eff3e;stroke:none"
       d="M 94.786827,101.492 C 95.547827,101.746 96.340827,101.937 97.165827,102.129 C 97.071827,102.508 96.532827,102.922 96.911827,103.336 C 97.352827,103.336 97.637827,103.019 97.989827,102.894 C 98.020827,103.527 97.547827,104.07 97.833827,104.707 C 97.454827,105.308 96.852827,105.691 96.247827,105.945 L 96.153827,105.246 C 95.520827,104.929 95.204827,105.847 94.633827,105.945 C 94.852827,105.758 94.633827,105.468 94.411827,105.406 L 93.047827,106.008 C 92.922827,105.851 93.587827,105.5 93.110827,105.246 C 92.540827,105.562 91.969827,105.058 91.747827,104.547 C 91.528827,103.593 91.778827,102.672 92.348827,101.972 L 92.286827,101.656 C 92.602827,101.91 92.950827,101.5 93.266827,101.75 C 93.454827,101.465 93.297827,101.117 93.110827,100.894 C 93.805827,100.8 94.028827,102.261 94.790827,101.496"
       id="path248" />
    <path
       style="fill:#ff0000;stroke:none"
       d="M 89.837827,101.648 C 89.868827,102.027 89.551827,102.347 89.301827,102.57 C 88.985827,102.695 88.829827,102.347 88.860827,102.129 L 88.922827,101.367 L 89.840827,101.652"
       id="path250" />
    <path
       style="fill:#ff7e00;stroke:none"
       d="M 111.48183,101.363 C 111.54483,101.55 111.29483,101.84 111.63783,101.965 L 111.76283,101.965 C 111.91983,102.312 111.91983,102.886 111.47783,103.011 L 110.94283,102.949 C 110.97383,102.632 111.22783,102.347 111.00583,102.027 C 110.81783,101.773 110.56383,101.679 110.24783,101.742 C 110.43483,101.265 111.00583,101.363 111.48183,101.363"
       id="path252" />
    <path
       style="fill:#ffffff;stroke:none"
       d="M 96.407827,102.57 C 96.344827,102.664 96.251827,102.632 96.153827,102.632 C 95.934827,102.539 95.997827,102.254 96.090827,102.125 C 96.376827,102.125 96.438827,102.312 96.407827,102.566"
       id="path254" />
    <path
       style="fill:#ff7e00;stroke:none"
       d="M 99.071827,103.113 C 98.817827,103.082 98.883827,102.797 98.817827,102.636 C 99.196827,102.418 99.579827,102.226 100.05183,102.195 L 99.071827,103.117"
       id="path256" />
    <path
       style="fill:#ff0000;stroke:none"
       d="M 110.62283,102.254 C 110.71583,103.047 109.95883,103.207 109.48183,103.652 C 109.19683,103.746 109.07183,103.398 108.97383,103.273 C 108.78683,102.703 109.44683,102.605 109.73583,102.351 C 110.02083,102.32 110.33783,102.066 110.62283,102.258"
       id="path258" />
    <path
       style="fill:#00ff00;stroke:none"
       d="M 78.251827,103.113 C 78.376827,103.367 78.313827,103.683 78.629827,103.875 L 79.165827,103.781 C 79.133827,104.129 79.258827,104.414 79.544827,104.636 L 80.145827,104.636 C 80.051827,105.175 79.766827,105.812 79.165827,105.937 L 78.184827,105.843 C 78.340827,105.656 78.911827,105.687 78.946827,105.242 C 79.008827,104.609 78.251827,104.925 78.028827,104.543 C 77.618827,104.511 77.333827,104.73 76.981827,104.48 C 77.489827,104.226 77.962827,104.511 78.407827,104.101 C 78.376827,103.754 78.219827,103.402 77.872827,103.277 L 76.446827,103.183 C 76.794827,103.277 77.079827,103.121 77.208827,102.804 L 77.208827,102.265 C 77.680827,102.359 77.555827,103.504 78.255827,103.121"
       id="path260" />
    <path
       style="fill:#ffffff;stroke:none"
       d="M 95.864827,102.89 L 95.770827,103.398 C 95.516827,103.492 95.614827,103.175 95.391827,103.113 C 95.106827,103.175 94.883827,103.59 94.567827,103.336 C 94.473827,103.019 94.852827,102.894 95.008827,102.734 C 94.790827,102.547 93.962827,102.828 94.247827,102.258 C 94.848827,102.32 95.704827,102.07 95.864827,102.89"
       id="path262" />
    <path
       style="fill:#ffffff;stroke:none"
       d="M 86.950827,103.015 C 86.762827,102.922 86.794827,102.73 86.794827,102.57 C 86.919827,102.445 87.047827,102.254 87.266827,102.347 C 87.329827,102.632 87.239827,102.918 86.950827,103.015"
       id="path264" />
    <path
       style="fill:#ffffff;stroke:none"
       d="M 90.915827,102.347 C 90.790827,102.504 90.883827,102.918 90.536827,102.886 C 90.251827,102.632 90.629827,102.254 90.915827,102.347"
       id="path266" />
    <path
       style="fill:#3eff3e;stroke:none"
       d="M 108.65783,103.875 L 109.63783,104.543 C 109.06783,105.113 108.21283,105.211 107.45083,105.465 C 107.38783,105.652 107.48183,105.843 107.66983,105.843 L 108.33383,105.781 C 108.30183,106.066 107.95483,106.351 107.66983,106.449 C 106.75183,106.511 105.82983,106.449 105.29083,105.781 C 105.10283,105.718 104.97383,105.843 104.91183,106.004 L 105.00583,106.32 C 104.37283,106.32 104.14983,105.367 103.54783,105.781 C 103.73583,106.511 104.52883,106.797 105.16583,106.925 C 104.34083,107.527 103.20083,107.336 102.18483,107.367 C 101.67683,106.129 103.38783,106.32 103.77083,105.3 C 104.46583,105.648 104.87983,104.793 105.45083,104.632 C 105.60683,103.777 106.30583,103.109 106.81383,102.504 C 106.78283,102.758 106.87683,102.98 107.06783,103.172 L 108.04783,102.347 C 108.55583,102.726 108.30183,103.425 108.64983,103.871"
       id="path268" />
    <path
       style="fill:#3eff3e;stroke:none"
       d="M 102.94283,102.793 C 102.81783,102.918 102.87983,103.109 102.87983,103.269 C 103.16583,103.648 103.64183,103.746 104.08383,103.777 C 103.57983,106.258 100.24383,105.652 99.356827,108.132 C 99.231827,108.418 99.102827,108.734 98.817827,108.894 C 98.122827,108.738 97.930827,107.941 97.676827,107.371 C 97.676827,105.847 98.087827,104.16 99.672827,103.554 C 99.958827,103.144 100.43483,102.664 100.81383,102.41 C 101.60683,102.316 102.27083,102.535 102.93883,102.789"
       id="path270" />
    <path
       style="fill:#ffffff;stroke:none"
       d="M 94.184827,103.558 C 94.184827,104.066 93.965827,104.543 93.489827,104.797 C 93.235827,104.828 92.981827,104.734 92.887827,104.48 L 92.887827,104.324 C 93.235827,104.449 93.805827,104.168 93.805827,103.722 C 93.899827,103.312 93.297827,103.121 93.587827,102.738 C 94.028827,102.8 94.059827,103.277 94.188827,103.562"
       id="path272" />
    <path
       style="fill:#ffffff;stroke:none"
       d="M 101.48583,103.558 L 101.64183,103.558 C 101.82983,103.906 101.38783,103.968 101.10283,104.035 C 100.72383,104.129 100.59483,103.847 100.50183,103.558 C 100.43883,103.433 100.59483,103.371 100.65783,103.273 L 100.81383,103.273 C 100.81383,103.367 100.75183,103.496 100.87683,103.558 C 101.22383,103.465 101.09483,102.89 101.57183,102.89 L 101.47783,103.558"
       id="path274" />
    <path
       style="fill:#ffffff;stroke:none"
       d="M 105.16583,103.336 C 105.13383,103.777 104.91183,104.16 104.53283,104.48 C 104.71983,104.258 104.40783,103.273 105.16583,103.336"
       id="path276" />
    <path
       style="fill:#ffffff;stroke:none"
       d="M 90.598827,103.558 C 90.473827,103.906 90.126827,104.035 89.774827,104.035 C 89.712827,103.656 90.122827,103.527 90.376827,103.398 C 90.501827,103.367 90.532827,103.492 90.594827,103.554"
       id="path278" />
    <path
       style="fill:#ffffff;stroke:none"
       d="M 98.434827,103.781 L 98.528827,103.402 L 98.684827,103.558 L 98.430827,103.781"
       id="path280" />
    <path
       style="fill:#ffffff;stroke:none"
       d="M 96.247827,103.652 C 95.962827,104.191 95.551827,104.797 94.883827,104.859 C 94.727827,104.765 94.696827,104.64 94.727827,104.48 C 95.262827,104.386 95.708827,103.843 96.090827,103.496 L 96.247827,103.652"
       id="path282" />
    <path
       style="fill:#ffffff;stroke:none"
       d="M 106.97383,103.875 C 107.03683,104.031 106.91183,104.222 106.75583,104.254 C 106.50183,104.316 106.28283,104.16 106.21983,103.937 L 106.37683,103.558 C 106.50183,103.652 106.69283,104 106.97783,103.875"
       id="path284" />
    <path
       style="fill:#ffffff;stroke:none"
       d="M 93.485827,103.875 L 93.485827,104.031 C 93.360827,104.125 93.075827,104.062 92.977827,103.875 C 93.102827,103.781 93.387827,103.558 93.485827,103.875"
       id="path286" />
    <path
       style="fill:#ffffff;stroke:none"
       d="M 108.27483,103.718 C 108.33783,103.718 108.46283,103.687 108.49383,103.781 C 108.55583,104.066 108.33783,104.289 108.20883,104.414 L 108.64983,104.539 C 108.61883,104.793 108.39583,104.886 108.20883,104.918 C 107.86083,105.011 107.63783,104.793 107.51283,104.539 C 107.57583,104.254 107.38783,103.906 107.66983,103.715 C 107.92283,103.715 108.04783,104.156 108.27083,103.715"
       id="path288" />
    <path
       style="fill:#ffffff;stroke:none"
       d="M 97.008827,104.164 C 97.071827,104.418 96.790827,104.48 96.692827,104.64 C 96.536827,104.64 96.344827,104.672 96.251827,104.484 C 96.094827,104.136 96.505827,104.23 96.629827,104.105 C 96.755827,104.136 96.915827,104.043 97.008827,104.168"
       id="path290" />
    <path
       style="fill:#ffffff;stroke:none"
       d="M 101.41983,104.543 L 101.86083,104.32 C 102.04783,104.414 101.86083,104.636 101.79783,104.797 L 102.17683,104.922 C 102.17683,105.207 101.92283,105.207 101.73583,105.3 C 101.29483,105.394 101.16583,105.078 101.04083,104.793 C 100.88383,104.414 101.64183,103.84 101.41983,104.539"
       id="path292" />
    <path
       style="fill:#ffffff;stroke:none"
       d="M 99.962827,104.418 C 99.743827,104.543 99.743827,104.765 99.743827,105.019 L 99.837827,105.082 C 100.15383,104.988 100.15383,104.574 100.50183,104.48 C 100.65783,104.574 100.52883,104.89 100.43883,105.019 L 100.12283,105.304 L 100.81783,105.398 C 100.87983,105.652 100.59883,105.683 100.43883,105.777 C 99.934827,105.933 99.489827,105.59 99.360827,105.175 C 99.360827,104.797 99.329827,104.351 99.739827,104.254 C 99.864827,104.222 99.895827,104.347 99.958827,104.41"
       id="path294" />
    <path
       style="fill:#ffffff;stroke:none"
       d="M 103.64183,104.258 C 103.73583,104.605 103.29483,104.699 103.10283,104.859 C 103.00883,104.859 102.91583,104.89 102.88383,104.797 C 102.88383,104.449 103.29483,104.258 103.64583,104.258"
       id="path296" />
    <path
       style="fill:#00ff00;stroke:none"
       d="M 91.075827,105.625 C 90.887827,105.812 90.505827,106.226 90.219827,105.847 C 90.536827,105.66 90.915827,105.371 90.981827,104.925 C 90.887827,104.832 90.887827,104.547 91.075827,104.484 C 91.294827,104.769 91.294827,105.34 91.075827,105.629"
       id="path298" />
    <path
       style="fill:#ffffff;stroke:none"
       d="M 106.37283,104.925 C 106.71983,104.894 107.00583,104.418 107.35283,104.547 C 107.29083,104.925 106.91183,105.086 106.68883,105.308 C 106.78283,105.465 106.97383,105.371 107.06783,105.562 C 107.16183,105.75 106.91183,105.785 106.75183,105.785 C 106.43483,105.754 106.05583,105.5 105.98983,105.183 C 105.98983,104.929 105.92683,104.613 106.20883,104.484 L 106.36483,104.925"
       id="path300" />
    <path
       style="fill:#ff7e00;stroke:none"
       d="M 86.184827,105.847 C 85.899827,106.289 85.458827,106.101 85.106827,105.941 C 84.887827,105.656 84.598827,105.273 84.821827,104.863 C 85.262827,105.179 85.770827,105.465 86.184827,105.847"
       id="path302" />
    <path
       style="fill:#00ff00;stroke:none"
       d="M 90.438827,104.863 C 90.563827,105.117 90.313827,105.465 89.997827,105.562 C 89.934827,105.308 90.028827,104.8 90.438827,104.863"
       id="path304" />
    <path
       style="fill:#ffffff;stroke:none"
       d="M 101.64183,105.468 C 101.82983,105.847 101.35683,105.847 101.10283,105.945 L 100.97783,105.945 C 100.97783,105.851 100.91583,105.82 100.88383,105.789 C 101.10283,105.566 101.39183,105.566 101.64583,105.472"
       id="path306" />
    <path
       style="fill:#3ea03e;stroke:none"
       d="M 81.618827,106.308 C 81.587827,106.34 81.047827,105.07 80.985827,105.039 C 80.829827,104.945 81.747827,104.101 81.872827,104.008 C 81.840827,104.132 81.684827,106.183 81.618827,106.312"
       id="path308" />
    <path
       style="fill:#ff7e00;stroke:none"
       d="M 96.407827,106.609 L 96.469827,106.547 C 96.688827,108.039 96.817827,109.597 97.770827,110.808 C 97.551827,111.125 97.008827,111.125 96.790827,110.902 C 95.934827,109.726 96.505827,107.851 95.266827,106.992 C 95.110827,106.867 95.204827,106.644 95.172827,106.453 L 95.551827,106.168 C 95.676827,106.39 95.993827,106.769 96.407827,106.609"
       id="path310" />
    <path
       style="fill:#ffffff;stroke:none"
       d="M 99.516827,106.168 C 99.672827,106.609 98.090827,107.246 99.297827,107.215 C 99.360827,107.402 99.172827,107.5 99.079827,107.531 C 98.700827,107.5 98.223827,107.343 98.161827,106.929 C 98.255827,106.644 97.942827,106.453 98.161827,106.23 L 98.540827,106.832 C 98.887827,106.707 99.079827,106.132 99.520827,106.164"
       id="path312" />
    <path
       style="fill:#00ffff;stroke:none"
       d="M 90.692827,107.535 L 90.313827,107.156 C 90.532827,107.062 90.692827,106.808 90.915827,106.617 C 91.387827,107.25 92.024827,107.793 92.723827,107.984 C 93.258827,108.715 93.258827,109.699 93.102827,110.527 C 92.501827,109.957 90.915827,110.781 91.294827,109.289 C 91.356827,109.289 91.481827,109.32 91.516827,109.226 C 91.231827,108.242 90.215827,108.117 89.391827,107.988 C 88.821827,108.336 88.790827,107.64 88.411827,107.386 L 86.637827,106.465 C 88.157827,106.433 89.141827,108.148 90.696827,107.543"
       id="path314" />
    <path
       style="fill:#ff7e00;stroke:none"
       d="M 94.247827,108.234 C 94.879827,108.488 95.008827,107.027 95.481827,107.98 C 95.606827,109.218 95.735827,110.461 96.528827,111.414 L 95.641827,111.289 C 95.610827,110.718 95.454827,110.05 94.883827,109.828 C 94.157827,110.082 94.122827,110.05 93.743827,109.449 L 93.649827,108.91 C 93.903827,108.91 94.251827,109.132 94.407827,108.754 C 94.090827,108.343 93.106827,108.375 93.204827,107.547 C 93.329827,107.261 93.204827,106.816 93.583827,106.722 C 93.364827,107.293 93.551827,108.121 94.247827,108.246"
       id="path316" />
    <path
       style="fill:#ff7e00;stroke:none"
       d="M 94.563827,107.597 C 94.309827,107.629 93.930827,107.629 93.962827,107.312 C 93.774827,106.742 94.434827,107.218 94.563827,106.836 L 94.563827,107.597"
       id="path318" />
    <path
       style="fill:#ff7e00;stroke:none"
       d="M 100.59483,107.691 C 100.71983,107.215 101.16583,107.183 101.48183,106.929 C 101.48183,107.117 100.97383,107.597 100.59483,107.691"
       id="path320" />
    <path
       style="fill:#00ff00;stroke:none"
       d="M 111.09883,108.234 C 111.00583,108.328 110.87983,108.39 110.87983,108.519 C 110.97383,108.836 111.25883,108.613 111.38783,108.519 C 111.73583,107.918 112.52883,107.566 112.90783,106.929 C 113.25583,107.468 112.49783,108.074 113.06383,108.453 L 113.59883,108.359 C 113.47383,109.183 112.99783,109.882 112.29783,110.363 C 111.18883,110.742 109.95083,110.84 108.80983,111.125 C 108.62283,109.441 109.82583,108.074 110.93483,106.929 C 111.25183,107.277 110.99783,107.785 111.09083,108.23"
       id="path322" />
    <path
       style="fill:#3ea03e;stroke:none"
       d="M 80.313827,107.597 C 80.251827,107.754 79.204827,107.312 79.079827,107.343 L 79.934827,106.996 C 80.344827,106.933 80.344827,107.281 80.313827,107.597"
       id="path324" />
    <path
       style="fill:#ff7e00;stroke:none"
       d="M 107.45083,107.152 C 107.07183,107.629 106.53283,107.945 105.93083,107.976 C 105.58383,107.691 105.86883,107.277 105.99383,106.992 C 106.46583,107.054 106.91183,107.211 107.45083,107.148"
       id="path326" />
    <path
       style="fill:#00ff00;stroke:none"
       d="M 82.919827,108.297 C 83.266827,108.453 83.458827,108.043 83.583827,107.851 L 83.583827,107.597 C 84.055827,108.136 84.118827,109.347 85.040827,108.996 C 85.071827,109.597 84.946827,110.3 85.419827,110.746 C 86.051827,110.968 86.243827,111.636 86.559827,112.113 C 85.895827,111.957 84.817827,111.703 84.278827,112.336 C 84.403827,111.957 84.122827,111.382 83.676827,111.289 C 83.141827,111.351 82.536827,112.179 82.059827,111.414 L 81.805827,111.16 C 82.184827,110.429 82.329827,110.922 83.294827,110.269 C 82.536827,109.57 81.297827,110.648 80.915827,109.222 C 81.387827,109 82.434827,109.445 82.372827,108.523 C 82.215827,108.367 81.993827,108.269 81.837827,108.078 L 82.153827,107.379 C 82.309827,107.726 82.532827,108.109 82.911827,108.3"
       id="path328" />
    <path
       style="fill:#00ffff;stroke:none"
       d="M 105.22783,108.074 C 104.69283,108.644 103.16583,108.074 103.32583,109.121 L 103.86083,109.597 C 103.67283,110.168 102.97383,109.754 102.62683,110.043 C 102.91183,109.187 101.13783,108.929 102.11883,107.976 C 103.06783,107.945 104.27483,108.132 105.06783,107.535 C 105.19283,107.597 105.16183,107.882 105.22383,108.074"
       id="path330" />
    <path
       style="fill:#ff7e00;stroke:none"
       d="M 101.04083,108.84 C 101.22783,108.933 101.48183,109.125 101.48183,109.379 C 100.87983,109.191 100.30983,109.597 99.895827,110.14 L 99.579827,110.586 C 99.325827,110.14 98.692827,110.742 98.215827,110.429 C 97.614827,109.761 97.422827,108.937 97.297827,108.078 C 97.645827,108.586 97.930827,109.347 98.598827,109.508 C 99.200827,109.601 99.676827,109.066 99.899827,108.617 C 99.962827,107.761 101.04083,108.648 101.41983,107.918 C 101.57583,108.488 100.56383,108.234 101.04083,108.84"
       id="path332" />
    <path
       style="fill:#00ff00;stroke:none"
       d="M 87.551827,108.074 C 87.235827,108.105 87.266827,108.644 87.016827,108.23 C 86.985827,108.168 86.954827,108.136 86.891827,108.136 C 86.544827,108.261 86.891827,108.515 86.891827,108.675 C 87.176827,109.023 87.684827,109.023 87.872827,108.519 L 87.778827,108.074 L 87.934827,108.074 C 87.872827,108.297 87.872827,108.644 88.251827,108.742 C 88.094827,108.929 88.063827,109.218 87.774827,109.218 C 87.239827,108.742 86.696827,109.312 86.348827,108.457 C 86.255827,107.758 87.172827,108.015 87.551827,108.078"
       id="path334" />
    <path
       style="fill:#ff7e00;stroke:none"
       d="M 105.45083,109.218 C 105.54483,109.597 105.45083,110.14 105.07183,110.425 C 104.88383,110.773 104.40783,110.933 104.15383,110.742 C 104.02883,110.679 104.12283,110.519 104.09083,110.425 C 104.21583,110.269 104.46983,110.425 104.53283,110.203 C 104.02883,109.664 105.07183,109.379 105.45083,109.218"
       id="path336" />
    <path
       style="fill:#3ea03e;stroke:none"
       d="M 87.391827,109.824 C 87.204827,110.203 87.235827,110.746 86.790827,110.968 C 86.536827,110.59 86.727827,109.668 87.391827,109.824"
       id="path338" />
    <path
       style="fill:#ff7e00;stroke:none"
       d="M 101.48583,110.207 C 101.64183,110.617 100.75883,110.715 101.20083,111.129 C 100.98183,111.316 100.69683,111.097 100.50583,110.972 C 100.21983,110.718 100.69283,110.433 100.72383,110.148 C 100.87983,109.894 101.54783,109.707 101.48183,110.211"
       id="path340" />
    <path
       style="fill:#ff7e00;stroke:none"
       d="M 90.692827,110.968 C 90.438827,111.156 90.090827,111.125 89.774827,111.125 C 89.555827,110.808 89.930827,110.425 90.215827,110.363 L 90.688827,110.425 L 90.688827,110.965"
       id="path342" />
    <path
       style="fill:#ff7e00;stroke:none"
       d="M 94.786827,110.367 C 95.071827,110.652 95.258827,111.191 94.879827,111.511 C 94.626827,111.668 94.309827,111.668 94.024827,111.574 C 93.708827,111.32 93.708827,110.906 93.739827,110.527 L 93.864827,110.371 L 94.020827,110.656 L 94.778827,110.371"
       id="path344" />
    <path
       style="fill:#00ffff;stroke:none"
       d="M 96.469827,112.496 L 95.012827,112.179 C 95.360827,111.324 96.059827,112.211 96.629827,112.054 C 97.676827,111.898 98.911827,111.769 99.895827,111.293 C 99.200827,112.246 97.801827,112.562 96.469827,112.5"
       id="path346" />
    <path
       style="fill:#3ea03e;stroke:none"
       d="M 87.645827,111.797 L 87.551827,112.175 L 86.950827,111.574 C 87.075827,111.289 87.676827,111.418 87.645827,111.797"
       id="path348" />
    <path
       style="fill:#00ff00;stroke:none"
       d="M 105.54483,111.672 C 105.38783,111.703 105.25883,111.859 105.16583,111.957 C 105.35283,112.972 106.46583,111.957 107.12983,112.273 C 107.22383,112.812 105.48183,113.765 106.97383,114.023 L 103.54783,115.168 C 102.88383,114.726 102.15383,114.535 101.58383,113.867 C 102.05583,113.711 102.88383,113.961 103.00883,113.328 L 101.96283,113.265 C 102.78683,112.058 104.21583,111.867 105.54783,111.675"
       id="path350" />
    <path
       style="fill:#00ff00;stroke:none"
       d="M 92.055827,112.879 C 92.688827,113.703 93.544827,113.258 94.403827,113.48 C 94.149827,113.859 94.024827,114.465 93.579827,114.847 C 93.294827,114.66 93.989827,114.246 93.422827,114.023 C 92.981827,113.929 92.727827,114.433 92.505827,114.722 C 92.411827,114.976 92.442827,115.293 92.126827,115.484 C 91.969827,115.105 92.505827,114.722 91.969827,114.468 C 91.368827,114.5 90.989827,115.136 90.383827,115.23 C 90.411827,114.976 90.669827,114.277 90.446827,113.961 C 89.938827,113.929 89.368827,114.246 88.860827,114.562 L 88.860827,113.8 C 88.165827,113.547 87.657827,114.179 87.020827,114.402 C 87.114827,113.672 88.606827,113.578 87.938827,112.652 L 88.473827,113.031 L 88.790827,112.652 L 88.696827,112.558 L 88.790827,112.496 C 89.106827,113.004 89.454827,113.605 90.153827,113.574 C 90.469827,113.386 90.532827,113.004 90.372827,112.718 C 90.590827,113.129 90.973827,113.386 91.450827,113.32 C 91.829827,113.035 91.637827,112.718 91.575827,112.336 C 91.829827,112.367 91.891827,112.715 92.047827,112.875"
       id="path352" />
    <path
       style="fill:#3ea03e;stroke:none"
       d="M 85.489827,112.656 C 85.489827,112.91 85.235827,113.101 85.047827,113.195 C 84.922827,113.132 84.829827,113.132 84.731827,113.039 C 84.794827,112.754 85.172827,112.437 85.493827,112.66"
       id="path354" />
    <path
       style="fill:#3ea03e;stroke:none"
       d="M 86.344827,112.816 C 86.251827,113.004 86.059827,113.258 85.809827,113.258 L 86.028827,112.656 L 86.344827,112.812"
       id="path356" />
    <path
       style="fill:#ff0000;stroke:none"
       d="M 98.817827,113.039 C 98.629827,112.945 99.071827,113.894 98.692827,114.468 L 98.438827,114.468 L 98.313827,112.945 C 98.532827,113.039 98.598827,112.789 98.821827,112.882 L 98.821827,113.039"
       id="path358" />
    <path
       style="fill:#00ff00;stroke:none"
       d="M 96.692827,114.343 C 96.219827,114.562 96.282827,113.965 96.153827,113.644 C 95.997827,113.297 96.438827,113.234 96.532827,113.105 L 96.688827,114.343"
       id="path360" />
    <path
       style="fill:#ffffff;stroke:none"
       d="M 97.926827,113.961 L 97.926827,114.402 L 97.294827,114.402 C 97.075827,114.054 97.137827,113.48 97.231827,113.101 C 97.864827,112.879 97.766827,113.64 97.926827,113.957"
       id="path362" />
    <path
       style="fill:#00ff00;stroke:none"
       d="M 94.977827,116.461 L 94.239827,116.461 C 94.270827,116.144 95.583827,115.3 96.024827,115.011 C 95.583827,115.359 95.422827,116.109 94.977827,116.461"
       id="path364" />
    <path
       style="fill:#ffffff;stroke:none"
       d="M 95.399827,116.351 L 96.786827,115.011 L 95.899827,116.617 L 95.403827,116.355"
       id="path366" />
    <path
       style="fill:#ff0000;stroke:none"
       d="M 96.532827,116.758 C 96.438827,116.726 96.313827,116.726 96.251827,116.632 L 97.614827,115.011 C 97.489827,115.711 96.919827,116.187 96.536827,116.758"
       id="path368" />
    <path
       style="fill:#ff0000;stroke:none"
       d="M 100.72383,115.996 C 100.87983,116.152 100.56783,116.343 100.43883,116.375 C 99.774827,115.933 98.919827,115.484 98.442827,115.008 L 100.72383,115.992"
       id="path370" />
    <path
       style="fill:#00ff00;stroke:none"
       d="M 100.05583,116.992 C 99.962827,117.086 99.950827,117.617 99.794827,117.679 C 99.352827,117.109 98.473827,116.285 97.774827,116.156 L 98.005827,115.508 L 100.05583,116.988"
       id="path372" />
    <path
       style="fill:none;stroke:#000000;stroke-width:0"
       d="M 9.106837,145.679 L 184.81383,145.679 L 184.81383,47.058 L 9.106837,47.058 L 9.106837,145.679 z "
       id="path374" />
  </g>
</svg>
