<?xml version="1.0" encoding="UTF-8" standalone="no"?>
<svg
   xmlns:dc="http://purl.org/dc/elements/1.1/"
   xmlns:cc="http://web.resource.org/cc/"
   xmlns:rdf="http://www.w3.org/1999/02/22-rdf-syntax-ns#"
   xmlns:svg="http://www.w3.org/2000/svg"
   xmlns="http://www.w3.org/2000/svg"
   xmlns:sodipodi="http://inkscape.sourceforge.net/DTD/sodipodi-0.dtd"
   xmlns:inkscape="http://www.inkscape.org/namespaces/inkscape"
   width="706pt"
   height="426pt"
   id="svg2"
   sodipodi:version="0.32"
   inkscape:version="0.43"
   sodipodi:docname="paraguay.svg"
   sodipodi:docbase="/home/demailly/ajour/flags"
   version="1.0">
  <metadata
     id="metadata407">
    <rdf:RDF>
      <cc:Work
         rdf:about="">
        <dc:format>image/svg+xml</dc:format>
        <dc:type
           rdf:resource="http://purl.org/dc/dcmitype/StillImage" />
      </cc:Work>
    </rdf:RDF>
  </metadata>
  <sodipodi:namedview
     inkscape:cy="146.26"
     inkscape:cx="494.56486"
     inkscape:zoom="0.89700488"
     inkscape:window-height="955"
     inkscape:window-width="1247"
     inkscape:pageshadow="2"
     inkscape:pageopacity="0.0"
     borderopacity="1.0"
     bordercolor="#666666"
     pagecolor="#ffffff"
     id="base"
     inkscape:window-x="162"
     inkscape:window-y="10"
     inkscape:current-layer="svg2" />
  <defs
     id="defs4">
    <marker
       id="ArrowEnd"
       viewBox="0 0 10 10"
       refX="0"
       refY="5"
       markerUnits="strokeWidth"
       markerWidth="4"
       markerHeight="3"
       orient="auto">
      <path
         d="M 0,0 L 10,5 L 0,10 L 0,0 z "
         id="path7" />
    </marker>
    <marker
       id="ArrowStart"
       viewBox="0 0 10 10"
       refX="10"
       refY="5"
       markerUnits="strokeWidth"
       markerWidth="4"
       markerHeight="3"
       orient="auto">
      <path
         d="M 10,0 L 0,5 L 10,10 L 10,0 z "
         id="path10" />
    </marker>
  </defs>
  <g
     id="g2098"
     transform="matrix(5,0,0,5,-41.57772,-217.4537)">
    <path
       style="fill:#ffffff;stroke:none"
       d="M 8.50391,149.273 L 184.25,149.273 L 184.25,43.484 L 8.50391,43.484 L 8.50391,149.273 z "
       id="path16" />
    <path
       style="fill:none;stroke:#000000;stroke-width:0"
       d="M 8.5,149.273 L 184.246,149.273 L 184.246,43.4835 L 8.5,43.4835 L 8.5,149.273 z "
       id="path18" />
    <path
       style="fill:#ff0000;stroke:none"
       d="M 8.50391,78.332 L 184.25,78.332 L 184.25,43.484 L 8.50391,43.484 L 8.50391,78.332 z "
       id="path20" />
    <path
       style="fill:#0000ff;stroke:none"
       d="M 8.50391,149.273 L 184.25,149.273 L 184.25,114.426 L 8.50391,114.426 L 8.50391,149.273 z "
       id="path22" />
    <path
       style="fill:none;stroke:#000000;stroke-width:0.51601398"
       d="M 96.375,80.649 C 105.012,80.649 112.078,87.715 112.078,96.3985 C 112.078,105.039 105.012,112.106 96.375,112.106 C 87.7383,112.106 80.6719,105.039 80.6719,96.3985 C 80.6719,87.719 87.7383,80.649 96.375,80.649 z "
       id="path24" />
    <path
       style="fill:#ff0000;stroke:none"
       d="M 96.375,82.961 C 103.73,82.961 109.766,88.996 109.766,96.3946 C 109.766,103.75 103.734,109.789 96.375,109.789 C 88.9766,109.789 82.9844,103.754 82.9844,96.3946 C 82.9844,88.996 88.9766,82.961 96.375,82.961 z M 96.375,86.559 C 101.746,86.559 106.168,90.981 106.168,96.3946 C 106.168,101.77 101.746,106.191 96.375,106.191 C 90.9609,106.191 86.582,101.77 86.582,96.3946 C 86.582,90.981 90.9609,86.559 96.375,86.559"
       id="path26" />
    <path
       style="fill:none;stroke:#000000;stroke-width:0.244904"
       d="M 96.375,82.961 C 103.73,82.961 109.766,88.996 109.766,96.3946 C 109.766,103.75 103.734,109.785 96.375,109.785 C 88.9766,109.785 82.9844,103.75 82.9844,96.3946 C 82.9844,88.996 88.9766,82.961 96.375,82.961 z "
       id="path28" />
    <path
       style="fill:#ffffff;stroke:#000000;stroke-width:0.244904;fill-opacity:1"
       d="M 96.375,86.559 C 101.746,86.559 106.168,90.981 106.168,96.3946 C 106.168,101.766 101.746,106.191 96.375,106.191 C 90.9609,106.191 86.582,101.77 86.582,96.3946 C 86.582,90.981 90.9609,86.559 96.375,86.559 z "
       id="path1503" />
    <path
       style="fill:#ffb800;stroke:none"
       d="M 85.8789,99.0431 L 83.9375,99.2892 L 83.8594,98.422 C 83.8203,98.2188 83.8203,98.0509 83.8594,97.9298 C 83.8594,97.8478 83.9375,97.7657 84.0234,97.6837 C 84.1016,97.6017 84.1875,97.5626 84.3086,97.5626 C 84.4297,97.5626 84.5547,97.5626 84.6797,97.6446 C 84.7617,97.7228 84.8438,97.8478 84.8828,98.0157 C 84.9219,97.9376 84.9609,97.8517 85.0469,97.7696 C 85.0859,97.7306 85.168,97.6485 85.332,97.5235 L 85.6602,97.2384 L 85.7422,97.7306 L 85.332,98.0587 C 85.2109,98.1798 85.1289,98.2618 85.0859,98.3048 C 85.0469,98.3438 85.0039,98.3868 85.0039,98.4259 C 85.0039,98.504 85.0039,98.547 85.0039,98.672 L 85.0039,98.7501 L 85.8281,98.629 L 85.8672,99.0392 L 85.8789,99.0431 z M 84.7188,98.797 L 84.6797,98.4688 C 84.6797,98.2657 84.6406,98.1407 84.5977,98.0978 C 84.5977,98.0587 84.5586,98.0157 84.5195,98.0157 C 84.4805,97.9767 84.4375,97.9767 84.3984,97.9767 C 84.3203,97.9767 84.2773,98.0157 84.2344,98.0587 C 84.1953,98.0978 84.1523,98.1407 84.1523,98.2228 C 84.1523,98.2618 84.1914,98.3438 84.1914,98.5079 L 84.2305,98.836 L 84.7227,98.797 L 84.7188,98.797 z M 85.6719,96.9767 L 83.7305,96.8126 L 83.8516,95.2852 L 84.1797,95.3243 L 84.0586,96.3985 L 84.5117,96.4376 L 84.5898,95.4063 L 84.918,95.4454 L 84.8359,96.4767 L 85.3711,96.5157 L 85.4492,95.4024 L 85.7773,95.4024 L 85.6562,96.9728 L 85.6719,96.9767 z M 85.8359,95.0743 L 83.9375,94.5821 L 84.0586,93.922 C 84.1367,93.6759 84.1797,93.5118 84.2227,93.4298 C 84.2617,93.3478 84.3438,93.2657 84.4688,93.2267 C 84.5898,93.1446 84.7148,93.1446 84.8789,93.1876 C 84.957,93.2267 85.082,93.2657 85.125,93.3517 C 85.2031,93.3907 85.2461,93.4728 85.2891,93.5548 C 85.3281,93.6368 85.3281,93.7188 85.3281,93.8009 C 85.3281,93.8829 85.2891,94.004 85.2461,94.211 L 85.207,94.4571 L 85.9062,94.6602 L 85.8281,95.0704 L 85.8359,95.0743 z M 84.3477,94.2501 L 84.8828,94.3712 L 84.9219,94.1681 C 84.9609,94.004 84.9609,93.8829 84.9609,93.8399 C 84.9609,93.8009 84.9609,93.7188 84.9219,93.6759 C 84.8828,93.6368 84.8398,93.6368 84.7578,93.5938 C 84.7188,93.5938 84.6367,93.5938 84.5938,93.6329 C 84.5547,93.672 84.5156,93.7149 84.4727,93.754 C 84.4336,93.7931 84.4336,93.9181 84.3906,94.0392 L 84.3516,94.2423 L 84.3477,94.2501 z M 84.4727,92.348 L 84.6367,91.977 L 85.625,92.43 C 85.7461,92.508 85.8711,92.551 85.9102,92.551 C 85.9922,92.59 86.0742,92.551 86.1133,92.512 C 86.1953,92.512 86.2773,92.434 86.3164,92.309 C 86.3555,92.227 86.3555,92.106 86.3555,92.063 C 86.3164,91.981 86.3164,91.899 86.2344,91.859 C 86.1953,91.82 86.0703,91.777 85.9492,91.695 L 84.9609,91.242 L 85.125,90.871 L 86.0742,91.324 C 86.2773,91.402 86.4453,91.488 86.4844,91.57 C 86.5625,91.609 86.6484,91.692 86.6875,91.774 C 86.7266,91.856 86.7266,91.977 86.7266,92.059 C 86.7266,92.18 86.6875,92.305 86.6055,92.469 C 86.5234,92.633 86.4414,92.754 86.3594,92.8399 C 86.3203,92.879 86.2383,92.961 86.1133,92.961 C 86.0352,93.0001 85.9492,93.0001 85.9102,92.961 C 85.7891,92.961 85.625,92.879 85.418,92.797 L 84.4688,92.344 L 84.4727,92.348 z M 85.4648,90.074 L 85.957,89.414 C 86.0391,89.293 86.1211,89.211 86.1602,89.129 C 86.1992,89.09 86.2812,89.047 86.3242,89.008 C 86.4062,89.008 86.4883,89.008 86.5703,89.008 C 86.6523,89.008 86.6914,89.047 86.7734,89.086 C 86.8555,89.125 86.8945,89.207 86.9375,89.289 C 86.9766,89.371 86.9766,89.492 86.9766,89.574 C 87.0586,89.496 87.1406,89.453 87.2617,89.453 C 87.3438,89.453 87.4648,89.492 87.5469,89.531 C 87.625,89.613 87.668,89.652 87.7109,89.777 C 87.75,89.859 87.793,89.942 87.793,90.024 C 87.793,90.106 87.7539,90.227 87.7109,90.309 C 87.6719,90.348 87.5898,90.512 87.4258,90.719 L 87.0547,91.297 L 85.4453,90.059 L 85.4648,90.074 z M 85.9609,89.949 L 86.332,90.234 L 86.4961,90.031 C 86.5742,89.867 86.6602,89.785 86.6602,89.746 C 86.6992,89.707 86.6992,89.668 86.6992,89.582 C 86.6992,89.543 86.6602,89.504 86.6172,89.461 C 86.5781,89.422 86.4961,89.379 86.4531,89.422 C 86.4141,89.422 86.3711,89.422 86.332,89.504 C 86.293,89.504 86.2109,89.625 86.1289,89.75 L 85.9648,89.953 L 85.9609,89.949 z M 86.6211,90.445 L 87.0312,90.774 L 87.2344,90.445 C 87.3164,90.324 87.3555,90.242 87.3984,90.199 C 87.3984,90.16 87.4375,90.121 87.3984,90.035 C 87.3984,89.996 87.3594,89.953 87.3203,89.871 C 87.2812,89.871 87.2383,89.832 87.1562,89.832 C 87.1172,89.832 87.0742,89.871 87.0352,89.871 C 86.9961,89.91 86.9141,89.992 86.7891,90.156 L 86.625,90.442 L 86.6211,90.445 z M 88.2734,89.617 L 86.8711,88.215 L 87.1172,87.887 L 88.2734,89.082 L 88.9727,88.34 L 89.2188,88.586 L 88.2695,89.617 L 88.2734,89.617 z M 89.4336,88.418 L 88.1953,86.848 L 88.4805,86.563 L 89.7188,88.133 L 89.4336,88.418 M 90.6719,86.559 L 91.082,86.438 C 91.1211,86.641 91.1211,86.848 91.082,87.016 C 91,87.18 90.8789,87.344 90.7109,87.469 C 90.5078,87.59 90.2578,87.633 90.0508,87.551 C 89.8047,87.512 89.5977,87.348 89.4336,87.059 C 89.2695,86.774 89.1875,86.524 89.2305,86.234 C 89.3125,85.988 89.4336,85.781 89.6836,85.656 C 89.8867,85.492 90.0547,85.453 90.2617,85.492 C 90.3828,85.531 90.5078,85.613 90.6328,85.695 L 90.3477,86.024 C 90.2695,85.942 90.1836,85.902 90.1016,85.859 C 90.0234,85.859 89.9375,85.899 89.8555,85.938 C 89.7344,86.02 89.6523,86.141 89.6094,86.266 C 89.6094,86.43 89.6484,86.594 89.7734,86.801 C 89.8945,87.004 90.0195,87.172 90.1836,87.211 C 90.3047,87.25 90.4297,87.211 90.5547,87.133 C 90.6367,87.094 90.6758,87.012 90.7188,86.93 C 90.7578,86.809 90.7188,86.684 90.6797,86.559 L 90.6719,86.559 z M 93.3594,86.145 L 92.9492,86.266 L 92.6211,85.895 L 91.9219,86.223 L 91.9219,86.715 L 91.5117,86.836 L 91.5508,84.649 L 91.9219,84.484 L 93.3672,86.137 L 93.3594,86.145 z M 92.4062,85.649 L 91.8711,85.031 L 91.8711,85.856 L 92.4062,85.652 L 92.4062,85.649 z M 93.9766,83.871 L 94.6758,83.75 C 94.8398,83.75 94.9609,83.75 95.0469,83.75 C 95.168,83.789 95.293,83.828 95.375,83.914 C 95.457,83.996 95.5391,84.078 95.5781,84.199 C 95.6562,84.32 95.6992,84.484 95.6992,84.692 C 95.7383,84.856 95.7383,84.977 95.6992,85.102 C 95.6602,85.266 95.6172,85.387 95.5352,85.512 C 95.4961,85.594 95.3711,85.633 95.2891,85.676 C 95.207,85.715 95.0859,85.758 94.918,85.797 L 94.2188,85.879 L 93.9727,83.856 L 93.9766,83.871 z M 94.3906,84.16 L 94.5547,85.481 L 94.8398,85.442 C 94.9609,85.442 95.043,85.442 95.0859,85.402 C 95.125,85.402 95.207,85.363 95.207,85.32 C 95.2461,85.281 95.2891,85.199 95.2891,85.117 C 95.3281,84.996 95.3281,84.871 95.2891,84.707 C 95.2891,84.586 95.25,84.461 95.207,84.379 C 95.168,84.301 95.1289,84.215 95.0859,84.176 C 95.0469,84.137 94.9648,84.137 94.8828,84.137 C 94.8438,84.098 94.7188,84.137 94.5977,84.137 L 94.3945,84.176 L 94.3906,84.16 z M 96.168,85.692 L 96.207,83.625 L 97.6523,83.664 L 97.6523,83.992 L 96.5781,83.992 L 96.5781,84.445 L 97.5664,84.445 L 97.5664,84.816 L 96.5781,84.777 L 96.5781,85.356 L 97.6523,85.356 L 97.6523,85.727 L 96.168,85.688 L 96.168,85.692 z M 98.0273,85.816 L 98.4375,83.793 L 98.8477,83.914 L 98.4766,85.566 L 99.4258,85.77 L 99.3477,86.098 L 98.0273,85.813 L 98.0273,85.816 z M 100.301,86.477 L 101.086,84.578 L 101.664,84.863 C 101.91,84.945 102.035,85.027 102.117,85.066 C 102.199,85.149 102.238,85.27 102.281,85.395 C 102.32,85.516 102.281,85.641 102.242,85.805 C 102.16,85.926 102.121,86.008 102.039,86.051 C 101.961,86.129 101.918,86.129 101.836,86.172 C 101.758,86.172 101.672,86.172 101.59,86.172 C 101.508,86.133 101.387,86.094 101.219,86.008 L 100.973,85.926 L 100.688,86.625 L 100.316,86.461 L 100.301,86.477 z M 101.336,85.07 L 101.09,85.606 L 101.293,85.684 C 101.457,85.766 101.539,85.805 101.578,85.805 C 101.656,85.805 101.699,85.766 101.742,85.766 C 101.781,85.727 101.82,85.684 101.863,85.645 C 101.863,85.563 101.863,85.481 101.863,85.442 C 101.824,85.359 101.824,85.32 101.742,85.277 C 101.703,85.277 101.621,85.199 101.496,85.156 L 101.332,85.074 L 101.336,85.07 z M 103.238,88.254 L 102.867,88.008 L 102.988,87.516 L 102.328,87.063 L 101.957,87.309 L 101.629,87.063 L 103.363,85.867 L 103.691,86.113 L 103.238,88.262 L 103.238,88.254 z M 103.07,87.137 L 103.273,86.352 L 102.613,86.805 L 103.066,87.133 L 103.07,87.137 z M 103.402,88.418 L 104.805,86.973 L 105.383,87.59 C 105.547,87.754 105.629,87.875 105.668,87.961 C 105.707,88.082 105.707,88.164 105.668,88.289 C 105.668,88.41 105.586,88.492 105.504,88.574 C 105.422,88.656 105.301,88.738 105.176,88.738 C 105.055,88.738 104.93,88.699 104.766,88.574 C 104.805,88.695 104.805,88.777 104.805,88.859 C 104.805,88.942 104.766,89.063 104.723,89.27 L 104.645,89.723 L 104.316,89.352 L 104.398,88.816 C 104.438,88.652 104.477,88.531 104.477,88.445 C 104.477,88.406 104.477,88.363 104.438,88.324 C 104.438,88.285 104.398,88.203 104.316,88.16 L 104.277,88.078 L 103.699,88.695 L 103.414,88.41 L 103.402,88.418 z M 104.477,87.883 L 104.68,88.086 C 104.801,88.25 104.926,88.332 104.965,88.332 C 105.004,88.371 105.047,88.371 105.086,88.371 C 105.125,88.371 105.164,88.332 105.207,88.289 C 105.246,88.25 105.289,88.168 105.289,88.125 C 105.289,88.086 105.289,88.004 105.25,87.961 C 105.211,87.922 105.168,87.879 105.047,87.758 L 104.844,87.512 L 104.473,87.883 L 104.477,87.883 z M 105.758,91.395 L 105.512,91.066 L 105.758,90.613 L 105.305,89.953 L 104.852,90.117 L 104.605,89.746 L 106.629,89.168 L 106.875,89.539 L 105.762,91.399 L 105.758,91.395 z M 105.965,90.32 L 106.375,89.621 L 105.633,89.867 L 105.961,90.32 L 105.965,90.32 z M 106.875,92.223 L 107.16,92.059 L 107.531,92.8829 L 106.832,93.211 C 106.711,93.172 106.586,93.0899 106.461,92.9649 C 106.34,92.8438 106.258,92.719 106.176,92.555 C 106.094,92.352 106.055,92.184 106.094,91.977 C 106.094,91.813 106.176,91.649 106.258,91.484 C 106.379,91.363 106.504,91.238 106.711,91.156 C 106.875,91.078 107.039,91.035 107.246,91.035 C 107.41,91.074 107.574,91.117 107.738,91.238 C 107.816,91.32 107.941,91.442 108.023,91.649 C 108.105,91.852 108.145,92.059 108.105,92.227 C 108.066,92.43 107.984,92.555 107.82,92.68 L 107.617,92.352 C 107.699,92.27 107.738,92.188 107.738,92.106 C 107.777,91.984 107.738,91.902 107.699,91.777 C 107.617,91.613 107.535,91.531 107.371,91.492 C 107.25,91.41 107.086,91.453 106.879,91.531 C 106.676,91.652 106.551,91.777 106.469,91.942 C 106.43,92.063 106.43,92.227 106.469,92.395 C 106.508,92.473 106.59,92.516 106.633,92.598 C 106.711,92.68 106.754,92.719 106.836,92.7618 L 107.039,92.641 L 106.875,92.231 L 106.875,92.223 z M 108.527,93.2149 L 108.609,93.6251 L 107.621,93.8712 C 107.457,93.9102 107.336,93.9532 107.293,93.9532 C 107.211,93.9923 107.172,94.0743 107.129,94.1563 C 107.09,94.2345 107.09,94.3204 107.129,94.4415 C 107.168,94.5235 107.207,94.6056 107.25,94.6446 C 107.289,94.7267 107.371,94.7267 107.453,94.7267 C 107.492,94.7267 107.617,94.6876 107.738,94.6446 L 108.812,94.3985 L 108.895,94.7696 L 107.906,95.0548 C 107.703,95.0938 107.535,95.1368 107.414,95.1368 C 107.336,95.1368 107.25,95.1368 107.168,95.0978 C 107.09,95.0587 107.004,94.9767 106.965,94.8946 C 106.887,94.8165 106.844,94.6915 106.801,94.5235 C 106.762,94.3204 106.762,94.1954 106.762,94.0704 C 106.762,93.9493 106.801,93.8673 106.883,93.7852 C 106.922,93.7462 106.961,93.6642 107.047,93.6212 C 107.168,93.5821 107.293,93.5392 107.539,93.4571 L 108.527,93.211 L 108.527,93.2149 z M 107.082,97.5978 L 107.082,97.1446 L 107.535,96.9806 L 107.496,96.1563 L 107.043,95.9923 L 107.043,95.5392 L 109.023,96.2813 L 109.023,96.7345 L 107.082,97.6017 L 107.082,97.5978 z M 107.824,96.8126 L 108.566,96.5274 L 107.824,96.2813 L 107.824,96.8165 L 107.824,96.8126 z M 107,98.0938 L 107.824,98.2149 L 109.02,97.5978 L 108.98,98.0899 L 108.156,98.461 L 108.855,99.0392 L 108.816,99.4923 L 107.785,98.6251 L 106.961,98.504 L 107,98.0938"
       id="path30" />
    <path
       style="fill:#0045ff;stroke:none"
       d="M 96.375,91.395 C 99.1016,91.395 101.375,93.6251 101.375,96.3946 C 101.375,99.1212 99.1055,101.356 96.375,101.356 C 93.6055,101.356 91.375,99.1251 91.375,96.3946 C 91.375,93.6251 93.6055,91.395 96.375,91.395"
       id="path32" />
    <path
       style="fill:none;stroke:#000000;stroke-width:0.128878"
       d="M 96.375,91.395 C 99.1016,91.395 101.375,93.6251 101.375,96.3946 C 101.375,99.1212 99.1055,101.356 96.375,101.356 C 93.6055,101.356 91.375,99.1251 91.375,96.3946 C 91.375,93.629 93.6055,91.395 96.375,91.395 z "
       id="path34" />
    <path
       style="fill:#ffcc00;stroke:none"
       d="M 96.375,92.305 L 97.2812,95.0743 L 100.254,95.0743 L 97.8594,96.7657 L 98.7656,99.5352 L 96.3711,97.8009 L 93.9766,99.5352 L 94.8828,96.7657 L 92.4883,95.0743 L 95.4609,95.0743 L 96.3672,92.305"
       id="path36" />
    <path
       style="fill:none;stroke:#000000;stroke-width:0.128878"
       d="M 96.375,92.305 L 97.2812,95.0704 L 100.254,95.0704 L 97.8594,96.7618 L 98.7656,99.5313 L 96.3711,97.797 L 93.9766,99.5313 L 94.8828,96.7618 L 92.4883,95.0704 L 95.4609,95.0704 L 96.3672,92.305 L 96.375,92.305 z "
       id="path38" />
    <path
       style="fill:#ffcc00;stroke:none"
       d="M 96.293,95.9454 C 96.332,95.9454 96.375,95.9845 96.375,96.0665 C 96.375,96.1056 96.3359,96.1446 96.293,96.1446 C 96.2539,96.1446 96.2148,96.1056 96.2148,96.0665 C 96.2148,95.9845 96.2539,95.9454 96.293,95.9454"
       id="path40" />
    <path
       style="fill:none;stroke:#000000;stroke-width:0.0278251"
       d="M 96.293,95.9415 C 96.332,95.9415 96.375,95.9806 96.375,96.0626 C 96.375,96.1017 96.3359,96.1407 96.293,96.1407 C 96.2539,96.1407 96.2148,96.1017 96.2148,96.0626 C 96.2148,95.9806 96.2539,95.9415 96.293,95.9415 z "
       id="path42" />
    <path
       style="fill:none;stroke:#000000;stroke-width:0.129729"
       d="M 96.375,97.8829 L 96.375,92.348"
       id="path44" />
    <path
       style="fill:none;stroke:#000000;stroke-width:0.128878"
       d="M 92.5312,95.0743 L 97.8203,96.7657"
       id="path46" />
    <path
       style="fill:none;stroke:#000000;stroke-width:0.128878"
       d="M 100.137,95.0743 L 94.8477,96.8517"
       id="path48" />
    <path
       style="fill:none;stroke:#000000;stroke-width:0.128878"
       d="M 95.4258,94.9923 L 98.7305,99.4962"
       id="path50" />
    <path
       style="fill:none;stroke:#000000;stroke-width:0.128878"
       d="M 94.0625,99.3751 L 97.2852,95.1173"
       id="path52" />
    <path
       style="fill:#00a600;stroke:none"
       d="M 96.9531,88.625 C 96.9531,88.543 97.7773,88.543 98.6055,88.828 C 99.4297,89.156 100.008,89.488 99.9258,89.734 C 99.8047,89.938 99.1016,89.816 98.2734,89.531 C 97.4922,89.203 96.9531,88.707 96.9531,88.625"
       id="path54" />
    <path
       style="fill:none;stroke:#000000;stroke-width:0.0278251"
       d="M 96.9531,88.625 C 96.9531,88.543 97.7773,88.543 98.6055,88.828 C 99.4297,89.156 100.008,89.488 99.9258,89.734 C 99.8047,89.938 99.1016,89.816 98.2734,89.531 C 97.4922,89.203 96.9531,88.707 96.9531,88.625 z "
       id="path56" />
    <path
       style="fill:#00a600;stroke:none"
       d="M 96.707,89.453 C 97.1172,89.531 97.4922,89.168 98.3594,89.25 C 99.2266,89.328 99.8867,89.578 99.8438,89.785 C 99.8438,89.949 99.1016,90.07 98.2344,89.988 C 97.3672,89.91 96.6641,89.66 96.707,89.453"
       id="path58" />
    <path
       style="fill:none;stroke:#000000;stroke-width:0.0278251"
       d="M 96.707,89.453 C 97.1172,89.531 97.4922,89.168 98.3594,89.25 C 99.2266,89.328 99.8867,89.578 99.8438,89.785 C 99.8438,89.949 99.1016,90.07 98.2344,89.988 C 97.3672,89.91 96.6641,89.66 96.707,89.453 z "
       id="path60" />
    <path
       style="fill:#00a600;stroke:none"
       d="M 97.9453,88.297 C 98.3555,88.379 98.5625,88.418 98.7266,88.5 C 99.0117,88.664 100.172,89.488 99.9219,89.777 C 99.8008,89.942 99.1406,89.816 98.6836,89.324 C 98.2305,88.832 98.1914,88.746 97.9414,88.293"
       id="path62" />
    <path
       style="fill:none;stroke:#000000;stroke-width:0.0278251"
       d="M 97.9453,88.297 C 98.3555,88.379 98.5625,88.418 98.7266,88.5 C 99.0117,88.664 100.172,89.488 99.9219,89.777 C 99.8008,89.942 99.1406,89.816 98.6836,89.324 C 98.2305,88.832 98.1914,88.75 97.9414,88.293 L 97.9453,88.297 z "
       id="path64" />
    <path
       style="fill:#00a600;stroke:none"
       d="M 102.285,91.852 L 101.418,90.945 L 101.172,91.231 C 101.008,91.231 100.844,91.231 100.637,91.27 C 100.227,91.309 99.8945,91.473 99.9375,91.598 C 99.9375,91.719 100.309,91.762 100.719,91.719 C 100.883,91.68 101.047,91.641 101.172,91.555 L 101.832,92.254 L 102.285,91.844"
       id="path66" />
    <path
       style="fill:none;stroke:#000000;stroke-width:0.0278251"
       d="M 102.285,91.852 L 101.418,90.945 L 101.172,91.231 C 101.008,91.231 100.844,91.231 100.637,91.27 C 100.227,91.309 99.8945,91.473 99.9375,91.598 C 99.9375,91.719 100.309,91.762 100.719,91.719 C 100.883,91.68 101.047,91.641 101.172,91.555 L 101.832,92.254 L 102.285,91.844 L 102.285,91.852 z "
       id="path68" />
    <path
       style="fill:#00a600;stroke:none"
       d="M 101.996,89.824 C 102.117,89.824 102.242,90.027 102.281,90.277 C 102.32,90.442 102.281,90.563 102.242,90.688 L 102.242,91.266 L 101.996,91.266 L 101.996,90.688 C 101.914,90.606 101.875,90.484 101.832,90.316 C 101.793,90.031 101.871,89.824 101.996,89.824"
       id="path70" />
    <path
       style="fill:none;stroke:#000000;stroke-width:0.0278251"
       d="M 101.996,89.824 C 102.117,89.824 102.242,90.027 102.281,90.277 C 102.32,90.442 102.281,90.563 102.242,90.688 L 102.242,91.266 L 101.996,91.266 L 101.996,90.688 C 101.914,90.606 101.875,90.484 101.832,90.316 C 101.793,90.031 101.871,89.824 101.996,89.824 z "
       id="path72" />
    <path
       style="fill:#00a600;stroke:none"
       d="M 104.312,92.555 C 104.395,92.594 104.234,92.8829 104.027,93.172 C 103.781,93.4181 103.574,93.5821 103.449,93.5431 C 103.57,93.9142 103.613,94.4493 103.652,94.8634 C 103.488,94.8634 103.367,94.8634 103.199,94.8634 C 103.16,94.5352 103.16,94.2032 103.078,93.8751 C 102.957,93.9571 102.707,93.9571 102.418,93.8751 C 102.047,93.836 101.801,93.672 101.801,93.5899 C 101.801,93.5079 102.129,93.5079 102.5,93.5509 C 102.703,93.5899 102.91,93.672 103.035,93.754 C 102.996,93.6329 102.953,93.5079 102.914,93.3829 C 103.078,93.3438 103.117,93.1798 103.285,93.1798 C 103.367,93.2579 103.406,93.3438 103.449,93.4649 C 103.449,93.3438 103.57,93.1368 103.734,92.9298 C 103.98,92.684 104.27,92.477 104.312,92.559"
       id="path74" />
    <path
       style="fill:none;stroke:#000000;stroke-width:0.0278251"
       d="M 104.312,92.555 C 104.395,92.594 104.234,92.8829 104.027,93.172 C 103.781,93.4181 103.574,93.5821 103.449,93.5431 C 103.57,93.9142 103.613,94.4493 103.652,94.8634 C 103.488,94.8634 103.367,94.8634 103.199,94.8634 C 103.16,94.5352 103.16,94.2032 103.078,93.8751 C 102.957,93.9571 102.707,93.9571 102.418,93.8751 C 102.047,93.836 101.801,93.672 101.801,93.5899 C 101.801,93.5079 102.129,93.5079 102.5,93.5509 C 102.703,93.5899 102.91,93.672 103.035,93.754 C 102.996,93.6329 102.953,93.5079 102.914,93.3829 C 103.078,93.3438 103.117,93.1798 103.285,93.1798 C 103.367,93.2579 103.406,93.3438 103.449,93.4649 C 103.449,93.3438 103.57,93.1368 103.734,92.9298 C 103.98,92.684 104.27,92.477 104.312,92.559 L 104.312,92.555 z "
       id="path76" />
    <path
       style="fill:#00a600;stroke:none"
       d="M 103.484,96.3165 C 103.648,96.2774 103.855,96.2774 104.02,96.2345 C 103.98,96.5626 103.938,96.8517 103.898,97.1837 C 103.938,97.0626 104.062,96.9376 104.227,96.7735 C 104.512,96.5704 104.762,96.4454 104.844,96.4884 C 104.883,96.5704 104.762,96.7735 104.473,96.9806 C 104.227,97.2267 103.98,97.3517 103.895,97.2657 C 103.895,97.2657 103.895,97.2657 103.895,97.2657 C 103.855,97.5118 103.855,97.7579 103.812,98.0079 C 103.609,98.0079 103.359,98.0079 103.152,98.0079 C 103.234,97.7228 103.316,97.4298 103.355,97.1407 C 103.273,97.1798 103.027,97.0587 102.738,96.8556 C 102.492,96.6095 102.285,96.3634 102.367,96.2774 C 102.406,96.1954 102.695,96.3165 102.984,96.5626 C 103.188,96.7267 103.355,96.9337 103.395,97.0548 C 103.434,96.8087 103.477,96.5626 103.477,96.3126"
       id="path78" />
    <path
       style="fill:none;stroke:#000000;stroke-width:0.0278251"
       d="M 103.484,96.3165 C 103.648,96.2774 103.855,96.2774 104.02,96.2345 C 103.98,96.5626 103.938,96.8517 103.898,97.1837 C 103.938,97.0626 104.062,96.9376 104.227,96.7735 C 104.512,96.5704 104.762,96.4454 104.844,96.4884 C 104.883,96.5704 104.762,96.7735 104.473,96.9806 C 104.227,97.2267 103.98,97.3517 103.895,97.2657 C 103.895,97.2657 103.895,97.2657 103.895,97.2657 C 103.855,97.5118 103.855,97.7579 103.812,98.0079 C 103.609,98.0079 103.359,98.0079 103.152,98.0079 C 103.234,97.7228 103.316,97.4298 103.355,97.1407 C 103.273,97.1798 103.027,97.0587 102.738,96.8556 C 102.492,96.6095 102.285,96.3634 102.367,96.2774 C 102.406,96.1954 102.695,96.3165 102.984,96.5626 C 103.188,96.7267 103.355,96.9337 103.395,97.0548 C 103.434,96.8087 103.477,96.5626 103.477,96.3126 L 103.484,96.3165 z "
       id="path80" />
    <path
       style="fill:#00a600;stroke:none"
       d="M 100.18,101.731 L 100.922,102.391 L 99.7266,103.215 L 99.2344,102.68 L 100.184,101.731"
       id="path82" />
    <path
       style="fill:none;stroke:#000000;stroke-width:0.0278251"
       d="M 100.18,101.731 L 100.922,102.391 L 99.7266,103.215 L 99.2344,102.68 L 100.184,101.731 L 100.18,101.731 z "
       id="path84" />
    <path
       style="fill:#00a600;stroke:none"
       d="M 102.328,99.5821 L 103.195,100.074 L 102.164,101.106 L 101.547,100.652 L 102.328,99.5782"
       id="path86" />
    <path
       style="fill:none;stroke:#000000;stroke-width:0.0278329"
       d="M 102.332,99.586 L 103.195,100.082 L 102.164,101.109 L 101.551,100.656 L 102.336,99.586 L 102.332,99.586 z "
       id="path88" />
    <path
       style="fill:#00a600;stroke:none"
       d="M 100.469,100.242 C 100.672,100.242 100.84,100.695 100.797,101.231 C 100.758,101.809 100.594,102.262 100.387,102.262 C 100.184,102.262 100.059,101.809 100.102,101.231 C 100.102,100.652 100.266,100.242 100.473,100.242"
       id="path90" />
    <path
       style="fill:none;stroke:#000000;stroke-width:0.0278335"
       d="M 100.465,100.242 C 100.668,100.242 100.836,100.691 100.797,101.231 C 100.758,101.805 100.59,102.262 100.387,102.266 C 100.184,102.266 100.059,101.813 100.098,101.234 C 100.098,100.66 100.262,100.246 100.465,100.242 z "
       id="path92" />
    <path
       style="fill:#00a600;stroke:none"
       d="M 101.172,99.7892 C 101.375,99.8282 101.336,100.449 101.094,101.152 C 100.891,101.813 100.559,102.348 100.352,102.266 C 100.188,102.227 100.188,101.606 100.434,100.902 C 100.637,100.242 101.012,99.7071 101.176,99.7892"
       id="path94" />
    <path
       style="fill:none;stroke:#000000;stroke-width:0.0276645"
       d="M 101.172,99.7892 C 101.375,99.8282 101.336,100.449 101.094,101.152 C 100.891,101.813 100.559,102.348 100.352,102.266 C 100.188,102.227 100.188,101.606 100.434,100.902 C 100.637,100.242 101.012,99.7071 101.176,99.7892 L 101.172,99.7892 z "
       id="path96" />
    <path
       style="fill:#00a600;stroke:none"
       d="M 92.4062,104.914 C 92.8164,105.199 93.1875,105.449 93.8516,105.367 C 94.8398,104.418 96.7031,103.883 98.6445,103.344 C 98.5234,103.262 98.3594,103.18 98.1914,103.098 C 96.7461,103.469 95.3398,103.922 94.0195,104.668 C 93.8164,104.75 93.6484,104.789 93.4414,104.871 C 93.1133,104.871 92.7812,104.91 92.4102,104.91"
       id="path98" />
    <path
       style="fill:none;stroke:#000000;stroke-width:0.0278251"
       d="M 92.4062,104.914 C 92.8164,105.199 93.1875,105.449 93.8516,105.367 C 94.8398,104.418 96.7031,103.883 98.6445,103.344 C 98.5234,103.262 98.3594,103.18 98.1914,103.098 C 96.7461,103.469 95.3398,103.922 94.0195,104.668 C 93.8164,104.75 93.6484,104.789 93.4414,104.871 C 93.1133,104.871 92.7812,104.91 92.4102,104.91 L 92.4062,104.914 z "
       id="path100" />
    <path
       style="fill:#00a600;stroke:none"
       d="M 99.4766,101.195 C 99.5977,101.316 99.4375,101.856 99.1055,102.391 C 98.7344,102.926 98.3203,103.297 98.1562,103.215 C 97.9922,103.094 98.1562,102.598 98.5273,102.02 C 98.8984,101.484 99.3125,101.113 99.4766,101.195"
       id="path102" />
    <path
       style="fill:none;stroke:#000000;stroke-width:0.0278251"
       d="M 99.4766,101.195 C 99.5977,101.316 99.4375,101.856 99.1055,102.391 C 98.7344,102.926 98.3203,103.297 98.1562,103.215 C 97.9922,103.094 98.1562,102.598 98.5273,102.02 C 98.8984,101.484 99.3125,101.113 99.4766,101.195 z "
       id="path104" />
    <path
       style="fill:#00a600;stroke:none"
       d="M 101.004,103.551 C 101.004,103.715 100.387,103.836 99.6406,103.836 C 98.8984,103.797 98.3203,103.633 98.3203,103.426 C 98.3203,103.262 98.9375,103.141 99.6836,103.18 C 100.426,103.18 101.004,103.344 101.004,103.551"
       id="path106" />
    <path
       style="fill:none;stroke:#000000;stroke-width:0.0278275"
       d="M 101.004,103.551 C 101.004,103.715 100.391,103.84 99.6406,103.84 C 98.9023,103.797 98.3203,103.633 98.3203,103.426 C 98.3203,103.262 98.9335,103.137 99.6796,103.176 C 100.422,103.176 101,103.34 100.996,103.547 L 101.004,103.551 z "
       id="path108" />
    <path
       style="fill:#00a600;stroke:none"
       d="M 100.508,102.641 C 100.547,102.805 100.098,103.094 99.4336,103.301 C 98.8164,103.504 98.2773,103.504 98.1953,103.34 C 98.1562,103.137 98.6055,102.848 99.2695,102.68 C 99.8867,102.477 100.465,102.477 100.508,102.641"
       id="path110" />
    <path
       style="fill:none;stroke:#000000;stroke-width:0.0278318"
       d="M 100.508,102.641 C 100.547,102.805 100.094,103.09 99.4335,103.297 C 98.8163,103.5 98.2812,103.504 98.1991,103.34 C 98.1562,103.137 98.6093,102.848 99.2733,102.684 C 99.8905,102.481 100.469,102.477 100.508,102.641 z "
       id="path112" />
    <path
       style="fill:#00a600;stroke:none"
       d="M 100.137,101.898 C 100.219,102.02 99.8906,102.477 99.3555,102.891 C 98.8633,103.301 98.3242,103.508 98.1992,103.344 C 98.1172,103.223 98.4453,102.766 98.9805,102.356 C 99.4727,101.984 100.012,101.738 100.137,101.902"
       id="path114" />
    <path
       style="fill:none;stroke:#000000;stroke-width:0.0278251"
       d="M 100.137,101.898 C 100.219,102.02 99.8906,102.477 99.3555,102.887 C 98.8633,103.297 98.3242,103.504 98.1992,103.34 C 98.1172,103.219 98.4453,102.762 98.9805,102.352 C 99.4727,101.981 100.012,101.734 100.137,101.898 z "
       id="path116" />
    <path
       style="fill:#00a600;stroke:none"
       d="M 101.543,99.9532 C 101.707,100.035 101.582,100.652 101.258,101.273 C 100.93,101.934 100.516,102.387 100.352,102.262 C 100.148,102.18 100.312,101.602 100.637,100.941 C 100.965,100.324 101.379,99.8673 101.543,99.9532"
       id="path118" />
    <path
       style="fill:none;stroke:#000000;stroke-width:0.0276665"
       d="M 101.543,99.9493 C 101.707,100.027 101.586,100.648 101.25,101.266 C 100.922,101.926 100.508,102.383 100.348,102.258 C 100.141,102.18 100.309,101.598 100.641,100.941 C 100.969,100.324 101.383,99.8673 101.543,99.9493 z "
       id="path120" />
    <path
       style="fill:#00a600;stroke:none"
       d="M 101.793,100.117 C 101.957,100.199 101.754,100.777 101.34,101.398 C 100.93,101.977 100.473,102.391 100.309,102.266 C 100.145,102.184 100.348,101.606 100.762,100.984 C 101.172,100.406 101.629,99.9962 101.793,100.117"
       id="path122" />
    <path
       style="fill:none;stroke:#000000;stroke-width:0.0276656"
       d="M 101.793,100.121 C 101.957,100.203 101.754,100.777 101.34,101.398 C 100.926,101.973 100.473,102.387 100.309,102.266 C 100.145,102.184 100.348,101.609 100.762,100.988 C 101.176,100.414 101.629,100 101.793,100.121 z "
       id="path124" />
    <path
       style="fill:#00a600;stroke:none"
       d="M 102.781,101.731 C 102.82,101.934 102.289,102.184 101.543,102.348 C 100.844,102.469 100.223,102.426 100.223,102.227 C 100.184,102.023 100.715,101.773 101.418,101.609 C 102.117,101.488 102.738,101.527 102.781,101.731"
       id="path126" />
    <path
       style="fill:none;stroke:#000000;stroke-width:0.0276681"
       d="M 102.781,101.734 C 102.816,101.938 102.285,102.184 101.543,102.352 C 100.84,102.473 100.223,102.43 100.223,102.227 C 100.188,102.023 100.719,101.777 101.422,101.609 C 102.125,101.488 102.742,101.531 102.781,101.731 L 102.781,101.734 z "
       id="path128" />
    <path
       style="fill:#00a600;stroke:none"
       d="M 103.277,100.82 C 103.359,101.066 102.785,101.563 101.957,101.934 C 101.09,102.344 100.348,102.469 100.223,102.219 C 100.141,102.016 100.715,101.52 101.543,101.106 C 102.41,100.734 103.152,100.613 103.277,100.82"
       id="path130" />
    <path
       style="fill:none;stroke:#000000;stroke-width:0.0278275"
       d="M 103.277,100.824 C 103.359,101.066 102.781,101.563 101.953,101.938 C 101.09,102.352 100.344,102.473 100.219,102.231 C 100.137,102.027 100.715,101.531 101.543,101.117 C 102.406,100.742 103.152,100.621 103.277,100.828 L 103.277,100.824 z "
       id="path132" />
    <path
       style="fill:#00a600;stroke:none"
       d="M 102.66,100.449 C 102.781,100.613 102.375,101.191 101.711,101.688 C 101.051,102.223 100.391,102.473 100.227,102.305 C 100.105,102.102 100.512,101.563 101.176,101.023 C 101.875,100.531 102.539,100.238 102.66,100.445"
       id="path134" />
    <path
       style="fill:none;stroke:#000000;stroke-width:0.0278251"
       d="M 102.66,100.449 C 102.781,100.613 102.375,101.191 101.711,101.688 C 101.051,102.223 100.391,102.469 100.227,102.305 C 100.105,102.102 100.512,101.563 101.176,101.023 C 101.875,100.531 102.539,100.242 102.66,100.445 L 102.66,100.449 z "
       id="path136" />
    <path
       style="fill:#00a600;stroke:none"
       d="M 102.742,97.3087 C 102.988,97.3478 103.152,97.9688 103.07,98.672 C 102.988,99.3712 102.742,99.9493 102.492,99.9102 C 102.289,99.9102 102.121,99.2931 102.207,98.5899 C 102.246,97.8478 102.492,97.3087 102.742,97.3087"
       id="path138" />
    <path
       style="fill:none;stroke:#000000;stroke-width:0.0278252"
       d="M 102.738,97.3087 C 102.984,97.3438 103.148,97.9649 103.07,98.672 C 102.992,99.3712 102.742,99.9532 102.492,99.9142 C 102.289,99.9142 102.121,99.297 102.203,98.5938 C 102.242,97.8517 102.488,97.3126 102.738,97.3126 L 102.738,97.3087 z "
       id="path140" />
    <path
       style="fill:#00a600;stroke:none"
       d="M 102.367,97.9688 C 102.531,97.9298 102.738,98.379 102.777,98.9181 C 102.777,99.4962 102.656,99.9493 102.492,99.9493 C 102.289,99.9493 102.121,99.4962 102.082,98.961 C 102.043,98.4259 102.164,97.9728 102.367,97.9728"
       id="path142" />
    <path
       style="fill:none;stroke:#000000;stroke-width:0.0278251"
       d="M 102.367,97.9688 C 102.531,97.9298 102.738,98.379 102.777,98.9181 C 102.777,99.4962 102.656,99.9493 102.492,99.9493 C 102.289,99.9493 102.121,99.4962 102.082,98.961 C 102.043,98.4259 102.164,97.9728 102.367,97.9728 L 102.367,97.9688 z "
       id="path144" />
    <path
       style="fill:#00a600;stroke:none"
       d="M 101.461,98.961 C 101.543,98.8829 101.871,99.0431 102.16,99.3321 C 102.445,99.6173 102.57,99.9493 102.488,100.074 C 102.367,100.156 102.035,99.9962 101.789,99.6642 C 101.504,99.379 101.336,99.047 101.461,98.9649"
       id="path146" />
    <path
       style="fill:none;stroke:#000000;stroke-width:0.0278314"
       d="M 101.461,98.9649 C 101.543,98.8868 101.867,99.047 102.16,99.336 C 102.445,99.6251 102.57,99.9571 102.488,100.082 C 102.363,100.16 102.035,100 101.789,99.672 C 101.504,99.3829 101.336,99.0509 101.461,98.9688 L 101.461,98.9649 z "
       id="path148" />
    <path
       style="fill:#00a600;stroke:none"
       d="M 103.816,100.078 C 103.816,100.242 103.488,100.363 103.074,100.363 C 102.664,100.363 102.332,100.242 102.332,100.117 C 102.332,99.9532 102.66,99.8321 103.074,99.8321 C 103.484,99.8321 103.816,99.9532 103.816,100.078"
       id="path150" />
    <path
       style="fill:none;stroke:#000000;stroke-width:0.0278253"
       d="M 103.813,100.074 C 103.813,100.238 103.488,100.367 103.074,100.363 C 102.664,100.363 102.328,100.246 102.332,100.121 C 102.332,99.9571 102.66,99.8282 103.07,99.8321 C 103.481,99.8321 103.816,99.9493 103.813,100.074 z "
       id="path152" />
    <path
       style="fill:#00a600;stroke:none"
       d="M 104.52,99.086 C 104.602,99.2892 104.191,99.6642 103.57,99.8673 C 102.953,100.113 102.414,100.152 102.332,99.9493 C 102.254,99.7462 102.703,99.3712 103.281,99.1251 C 103.898,98.922 104.438,98.879 104.52,99.086"
       id="path154" />
    <path
       style="fill:none;stroke:#000000;stroke-width:0.0278316"
       d="M 104.523,99.0899 C 104.602,99.297 104.191,99.6642 103.574,99.8712 C 102.953,100.117 102.418,100.156 102.336,99.9532 C 102.258,99.7462 102.707,99.379 103.285,99.129 C 103.906,98.9259 104.441,98.8868 104.523,99.086 L 104.523,99.0899 z "
       id="path156" />
    <path
       style="fill:#00a600;stroke:none"
       d="M 104.809,98.1368 C 104.973,98.3829 104.562,98.961 103.902,99.4571 C 103.242,99.9493 102.539,100.156 102.375,99.9493 C 102.211,99.7032 102.621,99.1251 103.281,98.629 C 103.941,98.1368 104.645,97.9298 104.809,98.1368"
       id="path158" />
    <path
       style="fill:none;stroke:#000000;stroke-width:0.0278315"
       d="M 104.813,98.1368 C 104.977,98.3829 104.563,98.961 103.907,99.4571 C 103.251,99.9493 102.548,100.16 102.38,99.9532 C 102.216,99.7071 102.63,99.129 103.286,98.6329 C 103.942,98.1407 104.645,97.9298 104.813,98.1368 z "
       id="path160" />
    <path
       style="fill:#00a600;stroke:none"
       d="M 103.445,97.5157 C 103.648,97.6368 103.648,98.2579 103.367,98.9181 C 103.121,99.5782 102.707,100.031 102.461,99.9493 C 102.258,99.8282 102.297,99.2071 102.539,98.547 C 102.824,97.8868 103.238,97.4337 103.445,97.5157"
       id="path162" />
    <path
       style="fill:none;stroke:#000000;stroke-width:0.0278314"
       d="M 103.445,97.5157 C 103.648,97.6407 103.652,98.254 103.363,98.9142 C 103.113,99.5743 102.699,100.027 102.453,99.9454 C 102.249,99.8204 102.285,99.2071 102.535,98.547 C 102.824,97.8868 103.238,97.4337 103.445,97.5157 z "
       id="path164" />
    <path
       style="fill:#00a600;stroke:none"
       d="M 104.23,97.7618 C 104.395,97.9259 104.109,98.547 103.57,99.2071 C 103.035,99.8243 102.457,100.238 102.289,100.074 C 102.125,99.9102 102.41,99.2931 102.949,98.672 C 103.484,98.0118 104.062,97.6407 104.23,97.7657"
       id="path166" />
    <path
       style="fill:none;stroke:#000000;stroke-width:0.0276645"
       d="M 104.23,97.7618 C 104.395,97.9259 104.109,98.5431 103.57,99.2071 C 103.035,99.8243 102.457,100.238 102.289,100.074 C 102.125,99.9102 102.41,99.2931 102.949,98.672 C 103.484,98.0118 104.062,97.6407 104.23,97.7657 L 104.23,97.7618 z "
       id="path168" />
    <path
       style="fill:#00a600;stroke:none"
       d="M 102.246,94.5392 C 102.41,94.4181 102.863,94.7852 103.277,95.4063 C 103.688,95.9845 103.855,96.5626 103.688,96.6876 C 103.523,96.7696 103.07,96.4024 102.699,95.7813 C 102.289,95.2032 102.082,94.6251 102.246,94.5431"
       id="path170" />
    <path
       style="fill:none;stroke:#000000;stroke-width:0.0276665"
       d="M 102.246,94.5431 C 102.41,94.422 102.859,94.7931 103.273,95.4102 C 103.68,95.9923 103.848,96.5665 103.684,96.6915 C 103.519,96.7696 103.07,96.4024 102.695,95.7813 C 102.289,95.1993 102.078,94.6251 102.246,94.5392 L 102.246,94.5431 z "
       id="path172" />
    <path
       style="fill:#00a600;stroke:none"
       d="M 102.824,94.2501 C 103.027,94.211 103.359,94.7032 103.605,95.3634 C 103.809,96.0235 103.852,96.6446 103.688,96.7267 C 103.484,96.7657 103.152,96.2735 102.906,95.6134 C 102.703,94.9142 102.66,94.336 102.824,94.2501"
       id="path174" />
    <path
       style="fill:none;stroke:#000000;stroke-width:0.0276656"
       d="M 102.824,94.2501 C 103.027,94.211 103.363,94.6993 103.605,95.3595 C 103.812,96.0196 103.855,96.6368 103.691,96.7188 C 103.488,96.7579 103.152,96.2696 102.906,95.6095 C 102.699,94.9102 102.656,94.3321 102.82,94.2501 L 102.824,94.2501 z "
       id="path176" />
    <path
       style="fill:#00a600;stroke:none"
       d="M 103.898,93.754 C 104.145,93.7931 104.27,94.4962 104.184,95.2813 C 104.102,96.1056 103.855,96.7657 103.605,96.7657 C 103.402,96.7267 103.277,96.0235 103.359,95.2384 C 103.438,94.4142 103.688,93.754 103.895,93.754"
       id="path178" />
    <path
       style="fill:none;stroke:#000000;stroke-width:0.0276719"
       d="M 103.898,93.754 C 104.145,93.797 104.266,94.5001 104.184,95.2852 C 104.102,96.1056 103.852,96.7696 103.605,96.7696 C 103.402,96.7267 103.281,96.0274 103.363,95.2384 C 103.445,94.4181 103.695,93.7579 103.898,93.754 z "
       id="path180" />
    <path
       style="fill:#00a600;stroke:none"
       d="M 104.848,94.0431 C 105.051,94.1642 104.926,94.8673 104.562,95.6134 C 104.234,96.3556 103.781,96.8946 103.574,96.7696 C 103.371,96.6876 103.492,95.9845 103.82,95.2423 C 104.191,94.5001 104.645,93.9649 104.852,94.047"
       id="path182" />
    <path
       style="fill:none;stroke:#000000;stroke-width:0.0276645"
       d="M 104.852,94.0431 C 105.055,94.1642 104.93,94.8673 104.566,95.6134 C 104.238,96.3556 103.785,96.8946 103.578,96.7696 C 103.375,96.6876 103.496,95.9884 103.824,95.2423 C 104.195,94.5001 104.648,93.9649 104.855,94.047 L 104.852,94.0431 z "
       id="path184" />
    <path
       style="fill:#00a600;stroke:none"
       d="M 100.883,92.184 C 101.004,91.981 101.625,92.145 102.285,92.469 C 102.945,92.8399 103.398,93.254 103.316,93.461 C 103.195,93.6251 102.574,93.5001 101.914,93.1329 C 101.254,92.8048 100.801,92.348 100.883,92.184"
       id="path186" />
    <path
       style="fill:none;stroke:#000000;stroke-width:0.0276645"
       d="M 100.883,92.184 C 101.004,91.981 101.625,92.145 102.285,92.469 C 102.945,92.8399 103.398,93.2501 103.316,93.4571 C 103.195,93.6212 102.574,93.4962 101.914,93.129 C 101.254,92.8009 100.801,92.348 100.883,92.18 L 100.883,92.184 z "
       id="path188" />
    <path
       style="fill:#00a600;stroke:none"
       d="M 101.379,91.563 C 101.543,91.399 102.078,91.727 102.617,92.262 C 103.152,92.797 103.441,93.336 103.277,93.5001 C 103.156,93.6212 102.617,93.336 102.082,92.8009 C 101.547,92.266 101.258,91.688 101.383,91.563"
       id="path190" />
    <path
       style="fill:none;stroke:#000000;stroke-width:0.0276656"
       d="M 101.379,91.566 C 101.547,91.406 102.078,91.731 102.613,92.27 C 103.149,92.8048 103.434,93.3438 103.274,93.5079 C 103.153,93.6251 102.613,93.3438 102.078,92.8048 C 101.543,92.27 101.258,91.688 101.375,91.566 L 101.379,91.566 z "
       id="path192" />
    <path
       style="fill:#00a600;stroke:none"
       d="M 102.078,91.106 C 102.242,91.024 102.656,91.477 102.984,92.137 C 103.355,92.836 103.477,93.4571 103.27,93.5392 C 103.105,93.6212 102.652,93.1681 102.32,92.465 C 101.992,91.805 101.867,91.184 102.074,91.102"
       id="path194" />
    <path
       style="fill:none;stroke:#000000;stroke-width:0.0276691"
       d="M 102.078,91.106 C 102.238,91.024 102.66,91.473 102.988,92.133 C 103.359,92.8321 103.484,93.4532 103.277,93.5313 C 103.117,93.6134 102.656,93.1642 102.324,92.461 C 101.992,91.805 101.871,91.184 102.078,91.102 L 102.078,91.106 z "
       id="path196" />
    <path
       style="fill:#00a600;stroke:none"
       d="M 103.152,90.57 C 103.355,90.57 103.562,91.231 103.562,92.055 C 103.602,92.879 103.441,93.5821 103.234,93.5821 C 103.031,93.5821 102.824,92.922 102.824,92.098 C 102.785,91.274 102.945,90.57 103.152,90.57"
       id="path198" />
    <path
       style="fill:none;stroke:#000000;stroke-width:0.027833"
       d="M 103.156,90.566 C 103.359,90.566 103.57,91.223 103.57,92.051 C 103.613,92.8712 103.445,93.5782 103.242,93.5821 C 103.039,93.5821 102.828,92.9259 102.832,92.098 C 102.789,91.277 102.957,90.57 103.16,90.566 L 103.156,90.566 z "
       id="path200" />
    <path
       style="fill:#00a600;stroke:none"
       d="M 100.262,88.793 C 100.465,88.715 100.879,89.203 101.211,89.906 C 101.496,90.606 101.582,91.27 101.375,91.352 C 101.172,91.43 100.715,90.942 100.426,90.238 C 100.098,89.539 100.055,88.875 100.262,88.793"
       id="path202" />
    <path
       style="fill:none;stroke:#000000;stroke-width:0.0278291"
       d="M 100.258,88.793 C 100.461,88.711 100.879,89.203 101.207,89.902 C 101.496,90.602 101.582,91.262 101.371,91.344 C 101.168,91.426 100.707,90.934 100.422,90.234 C 100.09,89.535 100.047,88.875 100.258,88.793 z "
       id="path204" />
    <path
       style="fill:#00a600;stroke:none"
       d="M 99.8906,89.371 C 100.055,89.25 100.508,89.574 100.922,90.113 C 101.332,90.649 101.539,91.188 101.375,91.309 C 101.254,91.43 100.758,91.106 100.344,90.566 C 99.9336,90.031 99.7266,89.492 99.8906,89.371"
       id="path206" />
    <path
       style="fill:none;stroke:#000000;stroke-width:0.0278321"
       d="M 99.8908,89.373 C 100.059,89.252 100.508,89.58 100.922,90.115 C 101.332,90.654 101.539,91.19 101.371,91.315 C 101.25,91.436 100.754,91.108 100.34,90.572 C 99.9338,90.033 99.7228,89.498 99.8908,89.373 z "
       id="path208" />
    <path
       style="fill:#00a600;stroke:none"
       d="M 99.1445,90.488 C 99.1836,90.324 99.7617,90.324 100.383,90.527 C 101,90.731 101.457,91.063 101.371,91.227 C 101.332,91.43 100.793,91.391 100.133,91.227 C 99.5156,91.024 99.0586,90.692 99.1445,90.484"
       id="path210" />
    <path
       style="fill:none;stroke:#000000;stroke-width:0.027833"
       d="M 99.1404,90.484 C 99.1794,90.32 99.7575,90.32 100.375,90.524 C 100.992,90.727 101.449,91.059 101.367,91.223 C 101.328,91.426 100.793,91.387 100.129,91.223 C 99.5115,91.02 99.0544,90.688 99.1365,90.481 L 99.1404,90.484 z "
       id="path212" />
    <path
       style="fill:#00a600;stroke:none"
       d="M 99.5156,89.867 C 99.6367,89.703 100.133,89.867 100.672,90.277 C 101.164,90.688 101.496,91.102 101.414,91.266 C 101.293,91.43 100.754,91.227 100.258,90.856 C 99.7227,90.445 99.3906,89.988 99.5156,89.867"
       id="path214" />
    <path
       style="fill:none;stroke:#000000;stroke-width:0.0278269"
       d="M 99.5161,89.867 C 99.6333,89.703 100.133,89.867 100.668,90.281 C 101.165,90.692 101.497,91.106 101.415,91.27 C 101.297,91.434 100.758,91.231 100.262,90.856 C 99.727,90.445 99.395,89.988 99.5161,89.867 z "
       id="path216" />
    <path
       style="fill:#00a600;stroke:none"
       d="M 102.66,90.899 C 102.863,90.859 103.152,91.434 103.32,92.18 C 103.484,92.879 103.441,93.5431 103.238,93.5821 C 103.074,93.6212 102.746,93.047 102.578,92.301 C 102.414,91.602 102.457,90.938 102.66,90.899"
       id="path218" />
    <path
       style="fill:none;stroke:#000000;stroke-width:0.0276691"
       d="M 102.661,90.899 C 102.864,90.856 103.153,91.438 103.321,92.18 C 103.489,92.879 103.446,93.5431 103.235,93.5821 C 103.075,93.6251 102.743,93.047 102.575,92.301 C 102.407,91.602 102.45,90.938 102.661,90.899 z "
       id="path220" />
    <path
       style="fill:#00a600;stroke:none"
       d="M 100.055,102.352 L 100.383,102.516 L 100.711,102.477 L 100.176,102.106 L 100.055,102.352"
       id="path222" />
    <path
       style="fill:#00a600;stroke:none"
       d="M 102.078,100.16 L 102.16,99.7501 L 102.984,100.16 L 102.738,100.363 L 102.078,100.16"
       id="path224" />
    <path
       style="fill:#00a600;stroke:none"
       d="M 103.941,96.7696 L 103.98,96.1095 L 103.527,96.3946 L 103.406,97.0548 L 103.941,96.7696"
       id="path226" />
    <path
       style="fill:#00a600;stroke:none"
       d="M 97.9883,103.18 L 98.1523,103.102 L 98.2344,103.02 L 98.3984,103.391 L 98.0273,103.512 L 97.9883,103.184"
       id="path228" />
    <path
       style="fill:#00a600;stroke:none"
       d="M 103.445,93.629 L 103.367,93.3009 L 103.082,93.3399 C 102.961,93.379 102.961,93.3399 102.961,93.461 L 103.043,93.6251 L 103.082,93.8282 L 103.453,93.6251"
       id="path230" />
    <path
       style="fill:#00a600;stroke:none"
       d="M 101.254,91.481 L 101.707,91.277 L 101.504,91.031 L 101.383,90.66 L 101.305,91.238 L 100.934,91.484 L 101.262,91.484"
       id="path232" />
    <path
       style="fill:#00a600;stroke:none"
       d="M 93.3164,89.289 C 93.8516,88.754 94.8438,88.301 95.8359,88.508 C 95.3008,88.711 94.1445,89.375 93.6055,89.664 C 93.3594,89.664 93.5664,89.293 93.3203,89.293"
       id="path234" />
    <path
       style="fill:none;stroke:#000000;stroke-width:0.0278273"
       d="M 93.317,89.285 C 93.8483,88.746 94.8405,88.293 95.8327,88.5 C 95.3014,88.707 94.1413,89.367 93.6061,89.656 C 93.3639,89.652 93.5631,89.285 93.3209,89.285 L 93.317,89.285 z "
       id="path236" />
    <path
       style="fill:#00a600;stroke:none"
       d="M 94.4766,103.594 C 94.1484,103.102 93.8984,102.563 93.8984,102.023 C 94.0195,102.434 94.1836,102.723 94.4336,103.055 C 94.4336,103.219 94.4727,103.426 94.4727,103.59"
       id="path238" />
    <path
       style="fill:none;stroke:#000000;stroke-width:0.0278253"
       d="M 94.4767,103.594 C 94.1486,103.098 93.9025,102.563 93.9025,102.023 C 94.0236,102.434 94.1916,102.727 94.4377,103.059 C 94.4377,103.223 94.4767,103.43 94.4767,103.594 z "
       id="path240" />
    <path
       style="fill:#00a600;stroke:none"
       d="M 94.2695,103.387 C 93.4023,103.102 93.2812,102.231 93.1562,101.613 C 93.4414,102.066 93.6914,102.398 94.1055,102.77 C 94.1445,102.973 94.2266,103.18 94.2695,103.387"
       id="path242" />
    <path
       style="fill:none;stroke:#000000;stroke-width:0.0278252"
       d="M 94.2695,103.387 C 93.4062,103.098 93.2812,102.231 93.1562,101.609 C 93.4414,102.063 93.6875,102.398 94.1016,102.766 C 94.1406,102.973 94.2227,103.18 94.2617,103.387 L 94.2695,103.387 z "
       id="path244" />
    <path
       style="fill:#00a600;stroke:none"
       d="M 93.7734,103.594 C 93.0312,102.688 92.5352,101.734 92.6992,100.867 C 93.0273,101.898 93.8125,102.52 93.7734,103.594"
       id="path246" />
    <path
       style="fill:none;stroke:#000000;stroke-width:0.0276684"
       d="M 93.7734,103.594 C 93.0312,102.684 92.5351,101.731 92.7031,100.867 C 93.0273,101.898 93.8125,102.52 93.7734,103.594 z "
       id="path248" />
    <path
       style="fill:#00a600;stroke:none"
       d="M 93.3594,103.387 C 92.5742,102.481 92.0781,101.527 92.2461,100.66 C 92.5742,101.691 93.4023,102.313 93.3594,103.387"
       id="path250" />
    <path
       style="fill:none;stroke:#000000;stroke-width:0.0276684"
       d="M 93.3594,103.387 C 92.5781,102.477 92.082,101.527 92.25,100.656 C 92.5742,101.688 93.4023,102.309 93.3594,103.387 z "
       id="path252" />
    <path
       style="fill:#00a600;stroke:none"
       d="M 92.6562,103.012 C 91.9961,102.106 91.625,101.152 91.7891,100.324 C 92.0352,101.316 92.7383,101.977 92.6562,103.008"
       id="path254" />
    <path
       style="fill:none;stroke:#000000;stroke-width:0.0273372"
       d="M 92.6562,103.016 C 91.9961,102.106 91.625,101.156 91.793,100.328 C 92.0391,101.32 92.7383,101.981 92.6562,103.016 z "
       id="path256" />
    <path
       style="fill:#00a600;stroke:none"
       d="M 91.7031,102.27 C 91.2109,101.281 90.9609,100.289 91.2109,99.5001 C 91.332,100.531 92.7383,102.434 91.7031,102.27"
       id="path258" />
    <path
       style="fill:none;stroke:#000000;stroke-width:0.0273375"
       d="M 91.7033,102.266 C 91.2072,101.277 90.9611,100.285 91.2072,99.5001 C 91.3322,100.531 92.7346,102.43 91.7033,102.266 z "
       id="path260" />
    <path
       style="fill:#00a600;stroke:none"
       d="M 91.0859,101.731 C 90.6758,100.742 90.5078,99.7071 90.8398,98.961 C 90.8789,99.6602 91.043,100.199 91.332,100.941 C 91.25,101.188 91.168,101.477 91.0859,101.727"
       id="path262" />
    <path
       style="fill:none;stroke:#000000;stroke-width:0.027337"
       d="M 91.0864,101.731 C 90.6724,100.742 90.5083,99.711 90.8364,98.9649 C 90.8794,99.6642 91.0435,100.199 91.3325,100.945 C 91.2544,101.191 91.1724,101.481 91.0904,101.731 L 91.0864,101.731 z "
       id="path264" />
    <path
       style="fill:#00a600;stroke:none"
       d="M 90.4648,101.07 C 90.1797,99.9571 90.1367,98.8399 90.543,98.0938 C 90.5039,98.672 90.9961,100.695 90.9531,100.863 C 90.832,101.066 90.543,100.863 90.4609,101.066"
       id="path266" />
    <path
       style="fill:none;stroke:#000000;stroke-width:0.0273382"
       d="M 90.4609,101.07 C 90.1719,99.961 90.1289,98.8399 90.543,98.0978 C 90.5,98.672 90.9961,100.695 90.957,100.863 C 90.8359,101.07 90.5469,100.863 90.4648,101.07 L 90.4609,101.07 z "
       id="path268" />
    <path
       style="fill:#00a600;stroke:none"
       d="M 89.5977,99.8282 C 88.9375,98.672 89.2695,97.5978 90.0078,96.8556 C 89.8867,97.5978 89.9258,98.2188 90.0469,99.0431 C 89.9688,99.1212 90.0859,99.8673 90.0469,99.9923 C 89.9688,100.113 89.6758,99.6642 89.5938,99.8282"
       id="path270" />
    <path
       style="fill:none;stroke:#000000;stroke-width:0.0273369"
       d="M 89.5976,99.8282 C 88.9336,98.6759 89.2656,97.6017 90.0117,96.8556 C 89.8867,97.5938 89.9297,98.2149 90.0547,99.0392 C 89.9766,99.1251 90.0976,99.8634 90.0547,99.9845 C 89.9766,100.106 89.6797,99.6563 89.6055,99.8204 L 89.5976,99.8282 z "
       id="path272" />
    <path
       style="fill:#00a600;stroke:none"
       d="M 89.1445,98.9181 C 89.2227,97.5157 89.5977,96.1915 90.3828,95.2423 C 90.0547,96.1915 89.9297,96.9337 89.8477,97.9259 C 89.6016,98.254 89.3555,98.586 89.1484,98.9142"
       id="path274" />
    <path
       style="fill:none;stroke:#000000;stroke-width:0.0275046"
       d="M 89.1401,98.92 C 89.2222,97.5177 89.5933,96.1935 90.3784,95.2442 C 90.0503,96.1895 89.9214,96.9356 89.8394,97.9278 C 89.5933,98.2599 89.3472,98.5919 89.1401,98.92 z "
       id="path276" />
    <path
       style="fill:#00a600;stroke:none"
       d="M 88.7305,95.6524 C 89.5156,94.2501 90.5039,93.0079 91.7031,92.387 C 90.9219,93.211 90.4648,93.9142 89.9297,94.9493 C 89.1055,98.172 89.1484,95.4024 88.7344,95.6485"
       id="path278" />
    <path
       style="fill:none;stroke:#000000;stroke-width:0.027827"
       d="M 88.7299,95.6563 C 89.515,94.254 90.5072,93.0157 91.7064,92.395 C 90.9213,93.2188 90.4642,93.9181 89.9291,94.9532 C 89.1049,98.1759 89.1439,95.4063 88.7299,95.6524 L 88.7299,95.6563 z "
       id="path280" />
    <path
       style="fill:#00a600;stroke:none"
       d="M 89.1445,94.1251 C 90.1758,92.68 91.457,91.438 92.9023,90.942 C 91.5391,92.016 90.5469,93.504 89.3477,94.7852 L 89.1445,94.1251"
       id="path282" />
    <path
       style="fill:none;stroke:#000000;stroke-width:0.0278274"
       d="M 89.144,94.1251 C 90.1792,92.684 91.4565,91.442 92.9057,90.945 C 91.5424,92.02 90.5503,93.5079 89.351,94.7852 L 89.144,94.129 L 89.144,94.1251 z "
       id="path284" />
    <path
       style="fill:#00a600;stroke:none"
       d="M 89.3906,93.2579 C 90.5469,91.856 91.9102,90.738 93.3984,90.406 C 92.3672,91.066 91.6641,91.77 90.8789,92.7618 C 90.3867,92.9259 89.8906,93.0899 89.3945,93.254"
       id="path286" />
    <path
       style="fill:none;stroke:#000000;stroke-width:0.0278284"
       d="M 89.3861,93.254 C 90.5385,91.848 91.9017,90.731 93.3939,90.402 C 92.3666,91.066 91.6596,91.766 90.8783,92.7579 C 90.3822,92.922 89.89,93.0899 89.3939,93.254 L 89.3861,93.254 z "
       id="path288" />
    <path
       style="fill:#00a600;stroke:none"
       d="M 90.3828,91.727 C 91.4961,90.777 92.7773,90.035 94.0195,89.949 C 93.0703,90.359 92.4102,90.816 91.625,91.52 C 91.2148,91.602 90.8008,91.641 90.3867,91.723"
       id="path290" />
    <path
       style="fill:none;stroke:#000000;stroke-width:0.0278311"
       d="M 90.3863,91.731 C 91.5035,90.785 92.7808,90.039 94.0191,89.953 C 93.0738,90.367 92.4136,90.82 91.6285,91.524 C 91.2183,91.609 90.8082,91.649 90.3941,91.731 L 90.3863,91.731 z "
       id="path292" />
    <path
       style="fill:#00a600;stroke:none"
       d="M 88.5234,95.2423 C 88.2773,94.2931 88.4023,92.9298 88.8086,91.977 C 88.7695,92.676 89.0547,94.1642 89.1367,94.8673 C 89.0547,95.4845 88.6016,94.9493 88.5195,95.2384"
       id="path294" />
    <path
       style="fill:none;stroke:#000000;stroke-width:0.0278252"
       d="M 88.5234,95.2384 C 88.2773,94.2931 88.3984,92.9298 88.8085,91.973 C 88.7695,92.676 89.0585,94.1602 89.1367,94.8595 C 89.0585,95.4806 88.6054,94.9415 88.5195,95.2306 L 88.5234,95.2384 z "
       id="path296" />
    <path
       style="fill:#00a600;stroke:none"
       d="M 91.168,90.692 C 92.3633,89.824 93.8516,89.121 95.0938,89.121 C 94.1445,89.449 93.4414,89.863 92.5742,90.484 C 91.707,90.938 91.2969,90.895 91.1719,90.688"
       id="path298" />
    <path
       style="fill:none;stroke:#000000;stroke-width:0.0278283"
       d="M 91.168,90.695 C 92.3672,89.828 93.8555,89.129 95.0938,89.129 C 94.1446,89.457 93.4375,89.867 92.5704,90.488 C 91.7032,90.938 91.2891,90.899 91.168,90.695 z "
       id="path300" />
    <path
       style="fill:#00a600;stroke:none"
       d="M 88.5234,96.5235 C 88.1133,95.6173 88.0312,94.129 88.3203,93.0938 C 88.3594,93.7931 88.6484,94.8282 88.8555,95.5313 C 88.9375,96.2735 88.5703,96.2306 88.5273,96.5196"
       id="path302" />
    <path
       style="fill:none;stroke:#000000;stroke-width:0.0278274"
       d="M 88.5232,96.5235 C 88.1131,95.6134 88.0271,94.1329 88.3162,93.0978 C 88.3552,93.797 88.6482,94.8282 88.8552,95.5313 C 88.9373,96.2696 88.5662,96.2306 88.5232,96.5196 L 88.5232,96.5235 z "
       id="path304" />
    <path
       style="fill:#00a600;stroke:none"
       d="M 88.8125,97.8478 C 88.0312,96.7345 87.7812,94.9962 87.7812,93.7149 C 88.0273,94.6212 88.3164,95.5313 88.7305,96.3985 C 88.7305,96.8087 88.8125,97.4298 88.8125,97.8438"
       id="path306" />
    <path
       style="fill:none;stroke:#000000;stroke-width:0.0278334"
       d="M 88.8165,97.8478 C 88.0352,96.7306 87.7891,94.9962 87.7852,93.711 C 88.0313,94.6173 88.3165,95.5274 88.7305,96.3985 C 88.7305,96.8087 88.8165,97.4259 88.8126,97.8399 L 88.8165,97.8478 z "
       id="path308" />
    <path
       style="fill:#00a600;stroke:none"
       d="M 91.418,90.32 C 92.0352,89.578 93.7305,88.543 94.7656,88.34 C 94.1875,88.711 93.6094,89.246 93.0742,89.742 C 92.7891,89.824 91.7109,90.234 91.4219,90.32"
       id="path310" />
    <path
       style="fill:none;stroke:#000000;stroke-width:0.027828"
       d="M 91.4178,90.324 C 92.0389,89.586 93.7264,88.547 94.7616,88.34 C 94.1874,88.711 93.6092,89.25 93.0702,89.746 C 92.785,89.828 91.7108,90.242 91.4217,90.324 L 91.4178,90.324 z "
       id="path312" />
    <path
       style="fill:#00a600;stroke:none"
       d="M 90.4258,91.231 C 90.8359,90.363 91.8281,89.414 92.7383,88.918 C 92.2852,89.41 91.8711,90.113 91.5,90.734 C 91.2539,90.899 90.6758,91.106 90.4258,91.227"
       id="path314" />
    <path
       style="fill:none;stroke:#000000;stroke-width:0.027833"
       d="M 90.4256,91.234 C 90.8396,90.371 91.8318,89.418 92.742,88.926 C 92.2889,89.418 91.8709,90.121 91.5037,90.742 C 91.2576,90.902 90.6756,91.109 90.4295,91.234 L 90.4256,91.234 z "
       id="path316" />
    <path
       style="fill:#00a600;stroke:none"
       d="M 89.6797,92.348 C 89.8828,91.399 90.668,90.074 91.4531,89.371 C 91.125,89.988 90.8359,90.734 90.5859,91.395 C 90.5859,92.055 89.8867,92.137 89.6797,92.344"
       id="path318" />
    <path
       style="fill:none;stroke:#000000;stroke-width:0.0278326"
       d="M 89.6793,92.348 C 89.8863,91.402 90.6715,90.078 91.4527,89.371 C 91.1246,89.988 90.8316,90.731 90.5855,91.391 C 90.5855,92.051 89.8863,92.137 89.6793,92.344 L 89.6793,92.348 z "
       id="path320" />
    <path
       style="fill:#00a600;stroke:none"
       d="M 88.8945,94.6212 C 88.7734,93.6329 88.9727,92.184 89.5547,91.274 C 89.3906,91.973 89.5547,92.7579 89.5547,93.504 C 89.3906,93.7501 89.0195,94.3282 88.8945,94.6173"
       id="path322" />
    <path
       style="fill:none;stroke:#000000;stroke-width:0.0278323"
       d="M 88.8901,94.6173 C 88.7651,93.629 88.9722,92.184 89.5503,91.274 C 89.3823,91.973 89.5503,92.7579 89.5503,93.504 C 89.3862,93.754 89.019,94.3321 88.894,94.6173 L 88.8901,94.6173 z "
       id="path324" />
    <path
       style="fill:#00a600;stroke:none"
       d="M 89.3906,99.4571 C 88.4844,98.3829 87.6562,96.7735 87.6562,95.5743 C 87.9844,96.4806 88.3984,97.1017 88.9375,97.9298 C 89.0156,98.3009 89.3086,99.0431 89.3906,99.4571"
       id="path326" />
    <path
       style="fill:none;stroke:#000000;stroke-width:0.0278304"
       d="M 89.3945,99.4571 C 88.4883,98.3829 87.6641,96.7696 87.6641,95.5704 C 87.9922,96.4806 88.4063,97.1017 88.9414,97.9259 C 89.0195,98.297 89.3086,99.0431 89.3945,99.4532 L 89.3945,99.4571 z "
       id="path328" />
    <path
       style="fill:#00a600;stroke:none"
       d="M 89.6797,100.242 C 88.7305,99.254 87.9453,98.1368 87.6992,96.9767 C 88.1523,97.8009 88.6484,98.379 89.3086,99.0821 C 89.4297,99.4923 89.5547,99.8634 89.6797,100.238"
       id="path330" />
    <path
       style="fill:none;stroke:#000000;stroke-width:0.0278309"
       d="M 89.6763,100.242 C 88.7232,99.2501 87.938,98.1368 87.6919,96.9806 C 88.149,97.8048 88.6451,98.3829 89.3052,99.086 C 89.4302,99.4962 89.5552,99.8673 89.6763,100.238 L 89.6763,100.242 z "
       id="path332" />
    <path
       style="fill:#00a600;stroke:none"
       d="M 90.4258,100.906 C 89.2695,100.121 88.2773,99.2149 87.7812,98.1368 C 88.3984,98.836 89.0195,99.3321 89.8047,99.8712 C 90.0078,100.199 90.2148,100.531 90.4219,100.902"
       id="path334" />
    <path
       style="fill:none;stroke:#000000;stroke-width:0.0278283"
       d="M 90.422,100.902 C 89.2696,100.117 88.2775,99.2071 87.7775,98.1368 C 88.3986,98.836 89.0157,99.3321 89.797,99.8751 C 90.004,100.203 90.211,100.531 90.4142,100.906 L 90.422,100.902 z "
       id="path336" />
    <path
       style="fill:#00a600;stroke:none"
       d="M 91.168,101.566 C 89.8906,101.031 88.7305,100.285 88.0273,99.336 C 88.8086,99.9142 89.4727,100.285 90.3828,100.656 C 90.6289,100.941 90.918,101.234 91.1641,101.563"
       id="path338" />
    <path
       style="fill:none;stroke:#000000;stroke-width:0.027826"
       d="M 91.1646,101.563 C 89.8873,101.023 88.731,100.281 88.0279,99.3321 C 88.8091,99.9142 89.4693,100.285 90.3794,100.656 C 90.6294,100.945 90.9185,101.231 91.1646,101.563 z "
       id="path340" />
    <path
       style="fill:#00a600;stroke:none"
       d="M 92.4062,102.434 C 91.0859,102.023 89.8867,101.445 89.0586,100.574 C 89.8828,101.066 90.5859,101.316 91.5352,101.606 C 91.8203,101.891 92.1133,102.141 92.4023,102.43"
       id="path342" />
    <path
       style="fill:none;stroke:#000000;stroke-width:0.0278284"
       d="M 92.4063,102.43 C 91.086,102.02 89.8867,101.441 89.0586,100.574 C 89.8867,101.066 90.586,101.316 91.5391,101.606 C 91.8282,101.891 92.1172,102.141 92.4063,102.43 z "
       id="path344" />
    <path
       style="fill:#00a600;stroke:none"
       d="M 93.4805,103.055 C 92.1172,102.809 90.8359,102.313 89.9688,101.57 C 90.8359,101.941 91.5781,102.148 92.5312,102.313 C 92.8594,102.559 93.1484,102.805 93.4805,103.055"
       id="path346" />
    <path
       style="fill:none;stroke:#000000;stroke-width:0.0278311"
       d="M 93.4806,103.055 C 92.1173,102.809 90.8361,102.313 89.9689,101.57 C 90.8361,101.938 91.5822,102.145 92.5314,102.313 C 92.8634,102.555 93.1525,102.805 93.4845,103.055 L 93.4806,103.055 z "
       id="path348" />
    <path
       style="fill:#00a600;stroke:none"
       d="M 94.3086,103.344 C 93.1133,103.383 91.9141,103.18 91.0039,102.559 C 91.8281,102.805 92.4883,102.844 93.3594,102.844 C 93.6445,103.008 93.9766,103.172 94.3086,103.336"
       id="path350" />
    <path
       style="fill:none;stroke:#000000;stroke-width:0.0278262"
       d="M 94.3083,103.344 C 93.113,103.387 91.9138,103.18 91.0037,102.555 C 91.8318,102.801 92.488,102.844 93.3552,102.844 C 93.6443,103.004 93.9763,103.172 94.3044,103.336 L 94.3083,103.344 z "
       id="path352" />
    <path
       style="fill:#00a600;stroke:none"
       d="M 94.7656,103.305 C 93.6094,103.508 92.4102,103.508 91.418,103.059 C 92.2852,103.141 92.9453,103.098 93.7734,102.938 C 94.1016,103.059 94.4336,103.184 94.7617,103.309"
       id="path354" />
    <path
       style="fill:none;stroke:#000000;stroke-width:0.0278293"
       d="M 94.7659,103.305 C 93.6096,103.512 92.4143,103.512 91.4221,103.059 C 92.2854,103.141 92.9456,103.102 93.7737,102.934 C 94.0979,103.059 94.4299,103.184 94.762,103.305 L 94.7659,103.305 z "
       id="path356" />
    <path
       style="fill:#00a600;stroke:none"
       d="M 95.4258,103.512 C 94.2695,103.84 93.1133,103.922 92.0781,103.633 C 92.9453,103.633 93.5625,103.469 94.3906,103.262 C 94.7188,103.344 95.0898,103.426 95.4219,103.508"
       id="path358" />
    <path
       style="fill:none;stroke:#000000;stroke-width:0.0278305"
       d="M 95.426,103.514 C 94.2698,103.842 93.1174,103.924 92.0823,103.639 C 92.9456,103.639 93.5667,103.471 94.3948,103.268 C 94.7229,103.35 95.094,103.432 95.4221,103.518 L 95.426,103.514 z "
       id="path360" />
    <path
       style="fill:#00a600;stroke:none"
       d="M 89.4727,93.297 C 89.3516,92.309 89.5938,91.316 90.1719,90.406 C 90.0078,91.066 90.0078,91.852 89.9688,92.594 C 89.8477,92.8399 89.5977,93.004 89.4766,93.2931"
       id="path362" />
    <path
       style="fill:none;stroke:#000000;stroke-width:0.0278323"
       d="M 89.4722,93.297 C 89.3472,92.309 89.5972,91.316 90.1753,90.406 C 90.0112,91.066 90.0112,91.852 89.9683,92.594 C 89.8472,92.836 89.6011,93.0079 89.4761,93.297 L 89.4722,93.297 z "
       id="path364" />
    <path
       style="fill:#00a600;stroke:none"
       d="M 90.4648,92.305 C 90.3828,90.734 91.5781,90.117 92.5703,89.828 C 91.7891,90.527 91.25,91.563 90.4648,92.305"
       id="path366" />
    <path
       style="fill:none;stroke:#000000;stroke-width:0.0279948"
       d="M 90.4689,92.309 C 90.3869,90.742 91.5822,90.121 92.5783,89.832 C 91.797,90.535 91.2541,91.566 90.4689,92.309 z "
       id="path368" />
    <path
       style="fill:#00a600;stroke:none"
       d="M 89.7617,93.379 L 89.5586,93.0079 C 89.8438,92.102 90.5469,91.645 91.2109,91.231 C 90.8008,91.848 90.4297,92.219 90.2227,93.0079 L 89.7695,93.379"
       id="path370" />
    <path
       style="fill:none;stroke:#000000;stroke-width:0.0279915"
       d="M 89.7616,93.379 L 89.5545,93.0118 C 89.8397,92.102 90.5428,91.649 91.203,91.234 C 90.7928,91.856 90.4217,92.227 90.2147,93.0157 L 89.7655,93.3868 L 89.7616,93.379 z "
       id="path372" />
    <path
       style="fill:#00a600;stroke:none"
       d="M 88.8945,96.1524 C 88.1094,95.3282 89.5117,93.1798 89.9688,92.723 C 89.6406,93.5899 89.2266,96.2345 89.1836,97.2696 L 88.8984,96.1563"
       id="path374" />
    <path
       style="fill:none;stroke:#000000;stroke-width:0.0279927"
       d="M 88.8942,96.1485 C 88.109,95.3282 89.5153,93.1759 89.9684,92.719 C 89.6364,93.5821 89.1832,96.2306 89.1832,97.2618 L 88.8942,96.1485"
       id="path376" />
    <path
       style="fill:#00a600;stroke:none"
       d="M 88.9766,97.9298 C 89.1797,96.5274 89.6367,95.0392 90.5039,94.1681 C 90.0938,95.0352 89.8867,95.7774 89.7617,96.8126 C 89.6406,96.8946 89.5586,97.2228 89.4766,97.3907 C 89.3125,97.6368 89.1484,97.7188 88.9844,97.9259"
       id="path378" />
    <path
       style="fill:none;stroke:#000000;stroke-width:0.0275052"
       d="M 88.9728,97.9259 C 89.1798,96.5235 89.6329,95.0352 90.5001,94.1681 C 90.086,95.0313 89.879,95.7735 89.754,96.8087 C 89.6329,96.8907 89.547,97.2188 89.465,97.3829 C 89.3048,97.6329 89.1368,97.7149 88.9728,97.922 L 88.9728,97.9259 z "
       id="path380" />
    <path
       style="fill:#00a600;stroke:none"
       d="M 89.3477,98.879 C 88.3984,98.4259 88.6875,95.7813 88.9375,95.2423 C 88.9375,96.3556 89.6367,97.8438 89.3477,98.879"
       id="path382" />
    <path
       style="fill:none;stroke:#000000;stroke-width:0.0279918"
       d="M 89.3477,98.879 C 88.3946,98.4259 88.6876,95.7813 88.9376,95.2423 C 88.9376,96.3556 89.6368,97.8399 89.3477,98.879 z "
       id="path384" />
    <path
       style="fill:#00a600;stroke:none"
       d="M 90.1328,100.574 C 89.8477,99.4181 89.8047,98.3438 90.2539,97.5587 C 90.1719,98.3438 90.2539,98.922 90.5,99.7462 C 90.3789,99.9923 90.2539,100.281 90.1289,100.57"
       id="path386" />
    <path
       style="fill:none;stroke:#000000;stroke-width:0.0273382"
       d="M 90.1328,100.57 C 89.8437,99.4181 89.8008,98.3399 90.2539,97.5587 C 90.1719,98.3399 90.2539,98.9181 90.5,99.7462 C 90.3789,99.9962 90.2578,100.285 90.1328,100.574 L 90.1328,100.57 z "
       id="path388" />
    <path
       style="fill:#00a600;stroke:none"
       d="M 90.5469,100.781 L 89.8477,100.453 C 89.3555,99.6681 89.0664,98.8438 89.1875,98.1407 C 89.3906,98.8009 89.6797,99.297 90.1367,99.9142 L 90.5469,100.781"
       id="path390" />
    <path
       style="fill:none;stroke:#000000;stroke-width:0.0273372"
       d="M 90.5508,100.781 L 89.8516,100.449 C 89.3633,99.6642 89.0664,98.836 89.1953,98.1329 C 89.3984,98.7931 89.6875,99.2931 90.1445,99.9102 L 90.5547,100.777 L 90.5508,100.781 z "
       id="path392" />
    <path
       style="fill:#00a600;stroke:none"
       d="M 91.7461,101.609 C 91.0039,100.992 90.4258,100.496 90.0547,99.9571 C 90.1758,100.617 90.5078,101.277 91.3359,101.816 L 91.9961,102.227 L 91.75,101.609"
       id="path394" />
    <path
       style="fill:none;stroke:#000000;stroke-width:0.0278277"
       d="M 91.7459,101.606 C 91.0037,100.988 90.4217,100.492 90.0506,99.9571 C 90.1756,100.617 90.5076,101.277 91.3319,101.816 L 91.992,102.227 L 91.742,101.609 L 91.7459,101.606 z "
       id="path396" />
    <path
       style="fill:#00a600;stroke:none"
       d="M 93.1914,102.434 C 92.6562,102.27 92.1172,102.106 91.582,101.941 C 91.9531,102.227 92.3242,102.559 92.6953,102.848 C 93.5195,103.012 93.7266,103.219 93.1875,102.438"
       id="path398" />
    <path
       style="fill:none;stroke:#000000;stroke-width:0.0278251"
       d="M 93.1914,102.434 C 92.6562,102.27 92.1172,102.106 91.582,101.941 C 91.9531,102.227 92.3242,102.559 92.6953,102.848 C 93.5195,103.012 93.7266,103.219 93.1875,102.438 L 93.1914,102.434 z "
       id="path400" />
    <path
       style="fill:#00a600;stroke:none"
       d="M 100.387,104.914 C 100.016,105.199 99.6016,105.449 98.9844,105.367 C 98.0352,104.5 96.3398,103.965 94.5234,103.469 C 94.4453,103.508 94.1953,103.387 93.7812,103.348 C 93.4102,103.02 93.0391,102.731 92.625,102.398 C 93.2031,102.563 93.7383,102.727 94.2773,102.891 C 94.3164,102.93 94.3164,102.969 94.3594,103.012 C 95.7617,103.383 97.457,103.918 98.7812,104.664 C 98.9844,104.746 99.1523,104.785 99.3594,104.867 C 99.6875,104.867 100.059,104.906 100.391,104.906"
       id="path402" />
    <path
       style="fill:none;stroke:#000000;stroke-width:0.0278251"
       d="M 100.387,104.914 C 100.016,105.199 99.6016,105.449 98.9844,105.367 C 98.0352,104.5 96.3398,103.965 94.5234,103.469 C 94.4453,103.508 94.1953,103.387 93.7812,103.348 C 93.4102,103.02 93.0391,102.731 92.625,102.398 C 93.2031,102.563 93.7383,102.727 94.2773,102.891 C 94.3164,102.93 94.3164,102.969 94.3594,103.012 C 95.7617,103.383 97.457,103.918 98.7812,104.664 C 98.9844,104.746 99.1523,104.785 99.3594,104.867 C 99.6875,104.867 100.059,104.906 100.391,104.906 L 100.387,104.914 z "
       id="path404" />
  </g>
</svg>
