<?xml version="1.0" encoding="UTF-8" standalone="no"?>
<svg
   xmlns:dc="http://purl.org/dc/elements/1.1/"
   xmlns:cc="http://web.resource.org/cc/"
   xmlns:rdf="http://www.w3.org/1999/02/22-rdf-syntax-ns#"
   xmlns:svg="http://www.w3.org/2000/svg"
   xmlns="http://www.w3.org/2000/svg"
   xmlns:sodipodi="http://inkscape.sourceforge.net/DTD/sodipodi-0.dtd"
   xmlns:inkscape="http://www.inkscape.org/namespaces/inkscape"
   width="702pt"
   height="468pt"
   id="svg2"
   sodipodi:version="0.32"
   inkscape:version="0.43"
   sodipodi:docname="peru.svg"
   sodipodi:docbase="/home/demailly/ajour/flags/in_doubt"
   version="1.0">
  <metadata
     id="metadata331">
    <rdf:RDF>
      <cc:Work
         rdf:about="">
        <dc:format>image/svg+xml</dc:format>
        <dc:type
           rdf:resource="http://purl.org/dc/dcmitype/StillImage" />
      </cc:Work>
    </rdf:RDF>
  </metadata>
  <sodipodi:namedview
     inkscape:cy="302.41308"
     inkscape:cx="358.60626"
     inkscape:zoom="0.86831672"
     inkscape:window-height="876"
     inkscape:window-width="1127"
     inkscape:pageshadow="2"
     inkscape:pageopacity="0.0"
     borderopacity="1.0"
     bordercolor="#666666"
     pagecolor="#ffffff"
     id="base"
     inkscape:window-x="360"
     inkscape:window-y="0"
     inkscape:current-layer="svg2" />
  <defs
     id="defs4">
    <marker
       id="ArrowEnd"
       viewBox="0 0 10 10"
       refX="0"
       refY="5"
       markerUnits="strokeWidth"
       markerWidth="4"
       markerHeight="3"
       orient="auto">
      <path
         d="M 0,0 L 10,5 L 0,10 L 0,0 z "
         id="path7" />
    </marker>
    <marker
       id="ArrowStart"
       viewBox="0 0 10 10"
       refX="10"
       refY="5"
       markerUnits="strokeWidth"
       markerWidth="4"
       markerHeight="3"
       orient="auto">
      <path
         d="M 10,0 L 0,5 L 10,10 L 10,0 z "
         id="path10" />
    </marker>
  </defs>
  <g
     style="fill:#28ff09;fill-opacity:0.06269848;stroke:none"
     id="g1875"
     transform="matrix(1.172579,0,0,1.172579,1.373597,0.447009)">
    <rect
       y="-9.0000001e-05"
       x="247.50002"
       width="248.75002"
       style="font-size:12px;fill:#ffffff;fill-opacity:1;fill-rule:evenodd;stroke-width:1pt"
       id="rect576"
       height="496.06299" />
    <rect
       y="-4.6000001e-05"
       x="0"
       width="247.50003"
       style="font-size:12px;fill:#ff0000;fill-opacity:1;fill-rule:evenodd;stroke-width:1pt"
       id="rect575"
       height="496.06299" />
    <rect
       y="-6.0999999e-05"
       x="494.32077"
       width="249.77362"
       style="font-size:12px;fill:#ff0000;fill-opacity:1;fill-rule:evenodd;stroke-width:1pt"
       id="rect577"
       height="496.06299" />
  </g>
  <path
     id="path22"
     d="M -0.93368,581.0569 L 877.70127,581.0569 L 877.70127,0.3519 L -0.93368,0.3519 L -0.93368,581.0569 z "
     style="fill:none;stroke:#000000;stroke-width:0" />
  <g
     id="g1622"
     transform="matrix(0.913517,0,0,0.913517,35.2407,26.19137)">
    <path
       style="fill:#000000;stroke:none"
       d="M 405.74627,396.4469 C 387.40627,398.6769 371.04127,391.1169 356.04127,382.6769 C 349.85127,377.3469 346.62627,369.5319 340.55127,364.3169 L 339.43627,362.4619 C 329.90627,357.0119 320.59127,350.9219 310.80627,345.8419 C 310.57127,345.1019 310.08127,344.6119 310.20127,343.7319 C 315.76627,342.7569 321.47127,344.8469 326.93627,345.8419 C 324.34127,341.0169 321.74127,334.1819 316.15627,331.5669 C 313.32627,330.8219 310.22127,331.4469 307.60127,332.0519 C 306.00127,327.7169 304.38127,322.9919 305.51127,317.7769 C 305.86627,316.0369 307.97127,317.4269 309.10627,316.6619 C 308.24627,312.9519 305.76627,309.2219 306.76127,305.6269 L 313.58127,311.5869 L 313.81127,311.2319 L 303.77627,300.5669 L 303.77627,299.0869 C 310.08127,299.9419 315.41627,305.1569 321.23627,308.0119 C 322.83627,309.9819 324.94627,311.0969 326.54627,313.0869 C 327.52627,309.7469 322.46627,307.3869 324.20627,304.1619 C 320.61127,296.9769 317.52627,289.3969 310.57127,283.9269 C 309.34127,286.1569 307.60127,288.7519 305.74627,290.1219 C 305.74627,290.1219 299.32127,273.2469 306.11627,268.4019 L 308.71627,269.0069 L 305.74627,251.3919 L 306.72127,250.7819 L 308.44127,253.1269 C 309.18627,250.6669 306.84127,246.5669 309.30127,244.8269 L 320.08127,262.4419 C 319.47627,254.3769 317.74127,245.9419 315.88627,237.9919 C 312.42627,237.7569 314.28127,248.4219 310.57127,241.8369 C 310.20127,237.6219 308.85127,233.6569 309.08627,229.0669 C 310.94127,227.5819 313.91127,228.3219 316.13627,228.4619 C 315.78627,225.1219 314.65127,221.3919 313.79627,217.7969 C 314.14627,217.3069 314.65127,217.1919 315.27627,217.1919 L 318.61627,221.0369 C 318.01127,217.8169 317.38627,213.3619 316.76127,210.0019 C 316.88127,209.5119 317.74127,209.8869 318.24627,209.7669 C 320.84627,212.6219 322.70127,216.0969 325.06127,218.6919 C 324.94627,213.9869 325.43627,208.4019 325.67127,203.8119 C 328.52127,204.9269 328.63627,208.7719 330.12127,211.2519 C 330.24127,212.8519 331.10127,214.2219 331.60627,215.7069 C 338.54127,204.9069 349.69127,195.6069 360.47127,189.7669 L 364.14627,187.0919 C 363.03127,191.0569 356.51127,197.6019 356.02127,201.4469 C 363.20627,195.8619 370.76627,191.5269 378.58127,187.4269 C 379.32127,187.5419 380.29627,187.0719 380.68627,188.0319 C 379.71127,191.1169 371.64627,198.6569 370.16127,201.7619 C 372.01627,202.5019 377.58127,197.0119 380.68627,196.9769 C 373.26627,202.3069 365.82627,208.6369 358.75627,215.4719 C 365.06127,214.9819 371.27627,212.2469 376.60627,208.2819 C 378.83127,206.5469 382.54627,201.7219 382.54627,201.7219 C 382.54627,209.7869 377.83627,217.7369 370.27627,221.9569 C 361.11627,225.9219 347.60127,228.0319 345.61127,240.4519 C 353.17127,236.3719 371.51127,228.2819 371.51127,228.2819 C 371.51127,230.2569 369.28127,231.5069 367.91627,232.7369 C 359.86627,234.4569 354.04627,243.4019 348.58127,249.3569 C 343.13127,257.2869 339.04627,266.2319 337.93627,275.5519 C 342.52627,269.1019 349.45627,260.5319 357.76127,259.1619 C 358.36627,259.0469 359.85127,260.1419 358.99127,261.0169 C 356.27627,262.8719 353.65627,265.1019 352.17127,268.0869 C 355.63127,267.9719 357.87627,262.8719 361.70627,262.5019 C 362.44627,262.8719 362.19127,263.6169 362.19127,264.2419 C 358.73627,267.0919 356.49127,270.9419 354.51627,274.6719 C 357.74127,273.3219 359.45627,268.2269 363.44127,267.6019 L 363.44127,269.3369 C 360.22127,275.5319 356.51127,281.4869 355.14127,288.4419 C 358.85127,284.7269 364.42127,280.0019 368.52127,276.5269 L 369.38127,277.6419 C 367.29127,283.8319 363.67627,289.5519 362.56127,296.1369 C 363.91127,296.7419 364.04627,294.2819 365.53127,294.0269 L 366.39127,294.8869 L 363.17127,312.5019 C 365.02627,312.1319 366.25627,305.1769 369.10627,308.6569 C 362.79627,330.2569 364.51627,356.4469 375.53127,375.3169 C 381.72127,382.0119 387.79627,391.8169 397.83627,389.9619 C 399.43627,389.7269 401.06127,389.3569 402.66127,389.1019 C 402.05627,384.8869 402.31127,379.5519 403.52127,375.3369 C 409.34127,370.0019 419.26127,372.7369 425.57127,375.3369 C 429.53627,377.0719 431.76127,381.2919 435.35627,383.4019 C 439.55627,382.7969 444.40127,381.8019 448.11127,384.2619 C 455.53127,379.4369 462.36627,371.8569 471.90127,372.9719 C 474.36127,374.0869 479.69127,372.7369 479.08627,377.1919 C 479.43627,380.0419 478.11127,382.8919 479.08627,385.2569 C 487.27127,384.8869 494.08627,380.9219 499.53627,374.8269 C 503.61627,372.9719 504.61627,383.0119 508.20627,376.8019 C 506.45127,370.2569 506.29627,361.2119 510.26127,355.0419 L 513.56127,351.9569 L 520.94127,340.8219 L 523.03127,339.9619 C 521.80127,343.4619 521.88127,348.2619 522.62127,351.1369 C 525.84627,347.9119 529.63627,342.0319 530.70627,337.2469 L 531.90127,340.5869 C 532.64127,345.4119 533.32627,350.5119 530.47127,357.1319 C 533.44127,356.7619 538.40127,352.1319 541.00127,351.1369 C 538.54127,350.5319 537.40627,348.7919 536.66627,347.4269 C 536.31127,345.4519 535.92127,342.6019 538.52127,341.7219 C 540.86627,341.3519 543.34627,342.2119 544.94627,344.4369 C 545.80627,342.5819 546.43127,340.3519 546.17627,338.4769 C 543.46127,339.0869 541.10127,337.6219 538.50127,337.2469 C 529.71127,332.1719 523.01127,323.1069 519.16627,314.2819 C 520.76627,311.6819 524.36127,314.8869 527.09627,314.6319 L 525.37627,304.2019 C 527.56127,306.2119 529.20627,305.4319 530.68627,304.8069 C 530.80627,302.3469 527.85627,300.2169 529.83127,298.2469 C 535.53127,298.1269 540.10127,303.6919 544.08627,306.8019 C 546.80127,303.9469 543.73627,298.2469 546.80127,295.8819 L 550.88627,298.8519 L 550.88627,297.6219 C 551.86127,294.1619 548.54127,295.7619 546.80127,294.9069 C 545.20127,294.0469 542.60127,292.3069 543.20627,289.9419 C 544.43627,287.8369 546.92127,286.2319 548.91127,286.9769 C 545.82627,285.9969 542.97127,287.3269 539.61627,286.9769 L 534.30127,282.5219 C 531.84127,276.9369 525.26127,276.0769 520.29627,273.8319 C 520.90127,271.1169 524.01127,270.4919 526.23627,269.9819 C 530.43627,268.3819 524.51627,265.0219 525.12127,261.9169 C 526.47127,260.1769 528.95127,260.1769 531.06127,260.6869 C 529.94627,258.3419 528.46127,256.0969 527.72127,253.6169 C 530.43627,255.3919 533.79627,254.9819 536.99627,255.1019 C 536.76127,252.9919 532.17127,251.6419 535.14127,249.3969 C 538.60127,249.3969 542.33127,250.3719 545.29627,252.3669 C 544.81127,250.7619 544.18627,248.7719 542.95627,247.6569 C 540.86627,248.5169 538.50127,249.7669 536.02127,248.7719 C 535.04627,246.9169 532.05627,246.0569 532.56127,243.1869 C 533.67627,240.4719 536.64627,239.3369 538.99127,238.9669 C 539.10627,237.2469 537.87627,238.8519 537.01627,238.3619 C 533.67627,236.2519 529.83127,235.3919 526.00127,234.5119 C 520.68627,233.2819 516.47127,228.4419 512.62127,224.0869 C 511.60627,223.4969 510.63127,221.6819 509.38127,220.9769 L 506.93627,216.1169 C 505.35627,214.7669 504.92627,215.1019 502.40627,212.8169 C 506.74127,210.7069 505.20127,215.1569 510.67127,213.9669 L 503.24627,203.3019 L 500.16127,200.4119 C 502.76127,200.4119 507.97127,202.1519 510.57127,202.1519 C 509.08627,199.4169 508.30627,196.9969 505.94127,194.6319 C 505.59127,193.6569 504.75127,192.8519 505.49127,192.6219 C 509.57627,192.0119 511.68627,195.8419 515.27627,196.2119 C 515.51127,193.2469 511.82127,190.5119 513.30627,187.5419 C 516.52627,188.8919 519.38127,191.2519 522.23127,193.4969 C 523.71627,190.0419 521.62627,185.0619 523.95127,181.8369 L 524.81127,182.2119 C 530.00627,196.9769 549.85127,206.7819 543.26627,225.4119 L 540.29627,235.8419 C 540.90127,236.5869 540.90127,237.5819 541.78127,238.1869 C 543.01127,235.9619 545.86627,235.5869 547.97127,235.8419 C 551.56627,238.3219 547.85627,242.1719 547.11627,245.0219 L 553.93127,253.3219 C 556.52627,249.8669 559.01127,245.7619 560.49127,241.4069 C 563.09127,241.8969 562.83627,245.6269 564.08627,247.7369 C 566.54627,246.6219 565.39627,245.5519 568.79627,243.2819 C 569.16627,246.7419 570.65127,249.7269 570.88627,253.0869 C 573.11127,251.6019 572.48627,247.6419 575.33627,246.8969 C 575.10127,261.1569 570.88627,276.6819 557.25127,283.7719 C 558.60127,285.2569 561.58627,286.3719 560.84627,289.1019 C 560.84627,291.2119 559.86627,293.1869 557.87627,293.9269 C 557.27127,294.4169 556.15627,294.0469 556.02127,295.0419 L 556.62627,299.4969 C 558.60127,299.1419 560.33627,296.4069 562.56127,295.6469 C 563.42127,297.9919 562.21127,300.6069 562.56127,302.8369 C 565.16127,302.3469 564.53627,294.9069 567.27127,299.2419 C 566.90127,302.4619 566.90127,306.1919 567.27127,309.4169 C 568.75627,309.1819 568.61627,306.9569 570.24127,307.3069 L 569.92627,309.6519 L 570.00627,318.8319 C 573.71627,319.5719 577.68127,319.0669 581.02127,317.9719 C 582.50627,320.3169 578.67627,322.0519 577.19127,323.3019 C 569.01127,328.1269 563.93127,338.1869 553.63627,337.9519 C 552.40627,339.6919 552.03627,341.8019 551.92127,343.9069 C 553.63627,344.7669 554.01127,347.1319 553.40127,348.9869 C 552.17127,351.0969 550.06127,352.0719 547.70127,352.2119 C 543.99127,351.3519 544.47627,356.5469 542.38627,358.5369 L 541.52627,359.6519 C 545.72627,360.6269 551.19627,359.0469 555.39627,360.0219 C 554.04627,363.4769 549.83127,363.8719 547.09627,366.2119 C 549.81127,367.0719 554.40127,367.0719 557.50627,366.2119 C 557.99127,366.4469 556.19627,367.6569 556.31127,368.1469 C 552.72127,371.6019 549.96627,372.4069 545.61127,373.8919 C 547.83627,375.4919 551.54627,375.2369 553.65627,376.8569 C 553.54127,379.3169 550.80627,379.4569 549.20627,380.1969 C 546.86127,380.8019 544.26127,381.1769 542.01627,382.3069 C 542.76127,384.9069 546.95627,386.7619 545.35627,389.7469 C 535.31627,386.0369 522.05627,389.8669 512.87627,384.0469 C 511.15627,382.6969 509.04627,381.9369 506.68627,381.9369 C 506.08127,384.4169 506.19627,387.6419 503.09127,388.4969 C 501.11627,388.8519 499.49627,388.0119 498.01127,387.0119 C 490.82627,389.1219 484.14627,392.4619 476.33127,393.2069 L 476.10127,393.5769 C 477.58127,395.8019 479.55627,397.9119 479.55627,400.6469 C 483.89127,403.2469 490.33627,402.3869 492.70127,407.6019 C 493.44127,409.4569 492.58127,411.3119 491.84127,412.9319 L 490.35627,413.7919 C 487.01627,412.5619 484.04627,410.5669 480.57127,409.5719 C 478.60127,411.9169 479.83127,416.5269 476.11627,417.0119 L 470.67127,416.7819 L 471.02127,405.7469 C 466.19627,404.6319 460.86627,398.0519 456.76127,405.1419 C 454.30127,408.1069 450.94127,409.5919 447.23127,408.4769 C 444.01127,407.7369 441.41127,405.5119 438.93127,403.1469 C 434.22127,406.9969 429.02627,412.1919 422.58127,409.1019 L 417.76127,406.9969 C 414.92627,408.4769 411.19627,408.7119 409.71127,412.3269 C 410.31627,414.9269 409.22127,417.4069 406.74127,418.2819 C 405.14127,418.0519 403.52127,419.7669 402.03627,418.2819 L 401.17627,414.0669 L 385.06127,423.3619 C 382.23127,423.7319 382.23127,420.6469 381.47127,418.9069 L 382.44627,414.0869 C 388.26627,410.6269 394.08627,406.8969 400.78627,405.5319 C 401.86127,402.4619 403.93127,398.8919 406.92127,397.0119 L 405.61127,396.6219 L 405.74627,396.4469 z M 434.63627,394.5719 C 431.04127,397.4269 420.00627,396.8369 416.04127,397.9519 C 417.52627,399.1819 425.33627,400.5519 427.19127,401.0369 C 430.53127,401.2719 432.83627,398.2269 435.45627,396.4869 L 434.63627,394.5519 L 445.78627,396.7019 L 445.18127,398.3419 C 447.15127,400.5319 460.51127,396.5269 462.74127,395.0419 C 459.40127,395.5319 447.79627,394.5519 445.80627,396.6819 L 434.65127,394.5319"
       id="path24" />
    <path
       style="fill:#000000;stroke:none"
       d="M 468.52127,224.1419 C 468.63627,223.6569 469.94627,223.3619 470.33627,222.9919 C 470.82627,220.7619 471.93627,216.6619 469.36127,215.3169 C 466.52627,216.4269 462.93627,215.8019 460.20127,214.7119 C 463.03127,213.7319 465.76627,211.9969 468.87127,211.3719 C 474.69127,211.9769 476.06127,205.5519 480.76627,203.6769 C 486.70627,197.7369 486.84127,189.2819 485.22127,181.3319 C 483.99127,178.2469 480.63127,175.9969 479.77127,172.6569 C 478.54127,170.1969 475.57127,167.9519 472.72127,168.8119 C 471.37127,166.5869 470.12127,164.1019 467.40627,163.4769 C 461.70627,163.5969 458.24627,158.2619 451.92127,160.2569 C 453.13127,164.0069 447.11627,163.3419 447.58127,166.1169 L 450.18127,168.1469 C 450.18127,168.1469 447.68127,170.6669 449.96627,171.5669 C 455.63127,171.9569 461.52627,173.9069 464.92627,177.7169 L 465.90127,179.2019 C 467.38627,178.8319 468.61627,180.8019 469.98627,181.5469 C 475.29627,184.1419 469.98627,188.1069 471.21627,191.9769 C 470.24127,193.2069 468.24627,194.4569 468.24627,196.1919 C 466.64627,197.6769 464.53627,198.1669 462.54627,198.5369 C 460.82627,195.1969 456.97627,194.3169 453.63627,193.4619 C 448.44127,195.9219 446.74127,201.7219 446.88127,207.8169 L 443.61627,207.5019 C 445.72627,204.0469 443.38627,200.1769 443.26627,196.4669 C 440.92127,195.1219 438.18627,194.4969 435.22127,194.1219 C 432.87627,194.8669 431.02127,199.6919 428.40127,197.4619 C 426.80127,196.3519 425.57127,193.2469 423.09127,193.4969 C 424.32127,189.6519 418.01127,187.5019 421.11627,184.2819 C 420.63127,182.9319 422.23127,180.1019 422.23127,178.9869 C 426.19627,174.2819 428.95127,174.7669 437.09627,171.5469 C 439.43627,170.8619 442.52627,169.4169 445.24127,169.8469 C 447.05627,169.8669 447.36627,167.3269 447.36627,167.3269 C 446.92127,167.2119 446.66627,166.8569 446.45127,166.4469 C 446.08127,165.7469 445.80627,164.8869 444.79127,164.7469 C 445.65127,163.5169 447.25127,163.2619 446.88127,161.4069 L 446.02127,160.5519 C 438.83127,160.5519 430.78627,156.0969 425.82627,163.2619 C 423.73627,163.1469 421.74127,163.3819 420.12127,164.3769 C 418.89127,169.8269 414.04627,163.6369 412.07627,168.5969 C 410.35627,169.7119 412.07627,173.9269 408.48127,172.6769 C 406.62627,174.5319 407.13627,177.7569 406.99627,180.4919 C 404.28127,182.2269 405.02627,186.4469 405.27627,189.4169 C 409.24127,191.3919 406.62627,194.0069 407.36627,197.1119 C 406.25627,201.9569 413.18627,201.0769 411.82127,206.0369 C 412.56127,210.3719 417.27127,209.3769 420.37627,209.8869 C 422.83627,214.9619 430.53127,212.8519 435.00627,212.8519 C 432.17127,215.5669 428.58127,216.3119 425.22127,217.3069 C 422.62127,218.5369 419.65127,216.1919 417.42627,218.2819 C 417.79627,219.5119 419.65127,220.3919 418.91127,222.3669 L 411.64627,223.1469 C 406.51127,222.8919 398.67627,221.1369 388.30627,215.0419 C 383.22627,227.8169 379.63627,240.1769 366.60627,252.5419 C 374.42127,260.8419 379.49627,271.4069 381.72127,282.5819 C 385.31627,303.3019 361.56627,341.5869 378.17127,352.6419 C 401.84127,365.7819 436.39127,368.8119 442.83627,379.7469 C 443.58127,379.3769 450.26127,374.7869 456.70627,369.2419 C 473.60127,364.2419 486.19627,362.9119 500.70627,359.2019 C 503.24627,358.0319 506.02127,356.8169 508.07127,354.7119 C 510.72627,351.3719 512.46627,349.8069 512.46627,349.8069 C 518.83127,335.9419 515.41627,317.5819 507.89627,305.2169 C 501.70627,286.7219 512.23127,271.4469 524.49627,258.7919 C 528.46127,254.7119 521.04127,252.3469 520.04627,248.6169 C 505.00627,240.1419 506.45127,216.5469 506.45127,216.5469 L 500.61127,219.4969 C 495.43627,221.5669 484.71127,226.1919 474.40127,225.3369 L 468.67627,224.2019"
       id="path26" />
    <path
       style="fill:#00ff00;stroke:none"
       d="M 408.67627,396.0369 C 409.34127,395.8019 410.06127,395.6469 410.82627,395.5669 C 411.06127,395.5669 411.17627,395.3369 411.31127,395.1969 L 404.49627,391.6019 C 397.07627,393.4619 389.63627,392.7169 383.67627,388.1469 C 368.18627,372.8919 362.11627,352.1519 363.48127,329.6719 C 363.97127,325.2169 364.83127,320.3719 364.96627,316.0169 C 359.40127,325.3169 361.88127,338.8519 361.74127,350.2769 C 362.85627,358.3419 363.71627,366.6619 368.79627,372.8719 C 368.56127,373.8519 367.19127,373.3619 366.70627,372.6419 C 354.55627,353.2819 359.88627,324.2219 362.25127,302.6219 C 358.17127,307.8369 358.05127,315.2769 356.68627,321.9769 C 355.20127,329.4169 355.82627,338.1069 354.83127,345.4319 C 354.59627,345.4319 354.45627,345.6669 354.34127,345.7819 C 352.25127,323.8119 358.05127,303.4619 364.12627,284.0869 C 360.29627,287.1719 355.22127,291.4069 353.71627,296.2519 C 351.86127,296.0169 352.11627,298.1069 351.37127,298.9669 C 348.40127,306.5269 348.15127,315.1019 347.17127,323.4219 C 345.82627,323.1869 346.19627,321.1919 345.68627,320.0819 C 345.45627,304.0669 352.25127,290.9019 356.95627,276.8769 C 347.42627,283.5769 346.56627,295.7469 344.20627,306.4069 L 343.34627,306.4069 C 342.62127,293.6369 348.54127,282.2119 353.73627,271.2719 C 343.58127,276.2319 343.20627,288.6569 338.87127,297.6969 C 336.90127,306.9969 335.27627,317.5619 334.67127,326.3719 L 333.18627,325.7619 C 332.21127,303.5569 340.61127,285.1769 349.53627,267.0519 L 349.30127,266.8169 C 337.77627,275.9969 333.56127,289.1619 333.18627,303.4419 C 332.70127,303.5569 332.21127,304.5519 331.70627,303.6769 C 329.36127,295.9969 333.18627,287.9119 335.29627,280.4719 C 334.06627,270.0419 340.37627,261.8569 343.60127,252.7969 C 346.93627,248.0869 349.79127,243.2469 354.38127,239.1419 C 349.92627,240.1219 346.08127,244.3569 342.11627,247.4419 C 337.03627,252.0319 332.07627,263.4419 332.07627,263.4419 C 332.07627,255.0019 336.90127,247.5619 344.22127,242.0919 C 343.87127,235.2769 347.93627,228.4419 354.38127,225.1019 C 363.05127,222.2469 372.35127,219.6519 378.17127,211.0769 C 376.06127,211.8169 373.71627,213.3019 371.60627,214.3019 C 366.29627,216.6419 360.59127,218.2619 354.63627,219.1219 C 349.06627,225.9419 342.25127,232.2669 338.89127,239.9819 C 336.17627,237.2669 340.37627,234.4169 341.23627,231.6819 C 345.06127,225.4919 351.02127,220.2769 355.47127,214.3019 C 351.13627,217.1519 342.09627,226.5869 342.09627,226.5869 C 344.81127,219.0269 352.48627,214.1819 358.20627,208.0869 C 363.03127,202.2669 373.85127,199.1619 375.59127,191.4669 C 370.39627,192.8169 363.91127,198.9069 359.06627,202.1319 C 347.79627,211.8019 331.43127,236.3919 331.43127,236.3919 C 334.65127,223.7319 343.95127,213.3019 353.73627,203.6169 C 353.01127,200.5319 354.71127,198.2819 355.84627,195.9419 C 351.51127,196.9169 347.91627,201.3919 344.20627,204.4969 C 337.64127,210.8219 332.05627,217.4069 331.06127,225.9619 C 330.37627,227.4419 328.50127,235.1019 326.60627,227.4419 C 324.75127,223.4769 323.89127,219.0069 320.18127,215.7819 C 320.78627,223.2269 324.38127,230.1769 326.37127,237.2469 L 325.76627,237.8519 C 322.79627,233.8919 322.31127,227.9319 318.09127,224.4569 C 318.69627,230.5319 321.31127,236.7419 324.65127,241.7019 C 326.25627,247.6569 327.36627,253.8719 328.11127,260.1969 C 327.87627,260.5669 327.36627,260.6869 326.99627,260.8019 C 323.65627,253.8519 325.14127,245.0419 320.43627,238.7119 C 318.09127,235.9969 319.57627,229.0469 313.61627,230.4119 C 312.50627,230.4119 311.27627,230.4119 310.90127,231.6419 C 311.27627,233.6169 311.13627,237.9719 312.01627,239.8269 L 315.72627,233.9869 L 317.70127,236.5869 C 319.55627,246.0169 322.93627,264.6319 322.93627,264.6319 C 326.15627,272.1919 330.45627,280.2769 330.57127,288.7119 L 329.08627,288.4769 C 326.62627,274.4569 317.44627,263.1669 311.23627,250.6269 C 310.00627,260.0619 320.39627,276.5669 320.39627,276.5669 C 316.56627,271.1169 313.83127,264.9069 309.75127,259.5719 C 308.63627,270.8619 317.31127,278.9269 322.50627,287.8719 C 322.38627,288.7319 322.74127,289.7269 322.13627,290.2169 L 321.27627,289.9819 C 316.56627,283.6569 313.71627,275.7069 307.01627,270.8819 C 305.78627,270.8819 305.67127,272.3669 304.92627,272.9919 L 306.15627,285.2769 C 308.50127,285.0419 307.64127,279.2019 311.47127,281.3119 C 322.11627,291.4869 326.95627,304.6519 331.43127,317.6769 C 332.03627,318.7919 332.66127,320.0219 332.03627,321.2719 C 331.80127,321.7619 331.17627,321.5069 330.80627,321.5069 C 325.24127,315.1769 319.79127,306.9969 311.72127,305.1219 C 323.36627,320.1419 333.17127,334.1619 344.45627,349.3169 C 345.06127,350.1769 344.45627,350.8019 344.22127,351.6619 L 343.36627,351.3119 C 339.90627,347.0919 337.66127,342.2469 333.58127,338.2819 C 332.23127,341.1369 329.49627,337.9119 327.64127,337.6769 C 326.66627,337.0719 325.78627,336.1919 324.67127,335.9419 L 324.90627,337.6769 C 327.99127,344.4969 334.32127,349.0869 340.65127,352.5619 C 341.99627,353.7919 343.61627,355.2769 342.74127,357.0119 C 335.06127,353.0519 328.36627,346.4669 318.95127,346.5869 L 320.43627,348.3219 C 328.36627,353.5369 337.17127,357.2469 344.22127,363.8319 C 350.53127,378.7119 365.53127,387.0319 379.67127,391.2519 C 387.85627,393.4769 397.64127,395.7069 406.08127,393.9669 L 408.75627,395.9219"
       id="path28" />
    <path
       style="fill:#00ff00;stroke:none"
       d="M 442.07627,162.5219 C 441.10127,163.7519 439.10627,163.3819 439.10627,165.1219 C 438.99127,164.2619 438.13127,163.5169 437.25127,163.4019 L 435.53127,163.4019 C 436.51127,160.8019 439.86627,162.6569 442.09627,162.5419"
       id="path30" />
    <path
       style="fill:#00ff00;stroke:none"
       d="M 432.77627,162.1519 C 432.54627,163.8919 433.01127,165.4919 434.63627,166.1169 L 436.60627,166.3519 L 434.88627,169.0669 C 433.91127,166.9569 428.58127,167.9519 431.06127,163.9869 C 430.57127,163.3819 429.94627,163.1269 429.20627,163.1269 C 429.94627,161.5269 431.66627,162.5219 432.79627,162.1519"
       id="path32" />
    <path
       style="fill:#00ff00;stroke:none"
       d="M 459.55627,165.1219 C 457.21127,167.4619 451.76127,161.4069 453.61627,167.6019 C 453.24627,167.1119 450.76627,165.3719 453.01127,163.3819 C 455.24127,163.1469 458.83127,162.4069 459.57627,165.1019"
       id="path34" />
    <path
       style="fill:#00ff00;stroke:none"
       d="M 427.70127,166.6219 C 427.21127,167.1119 427.58127,167.8519 427.46627,168.4769 C 428.44127,169.7119 429.81127,169.8269 431.06127,170.2169 C 429.45627,171.1919 427.72127,171.4469 425.98127,172.0719 C 426.10127,170.8419 424.75127,169.8469 423.87127,169.3569 C 422.64127,169.1219 420.53127,170.1019 420.90127,167.8719 C 420.41627,166.7619 421.76127,166.2719 422.38627,166.1569 C 424.24127,166.1569 426.21627,166.0369 427.70127,166.6419"
       id="path36" />
    <path
       style="fill:#00ff00;stroke:none"
       d="M 440.84627,166.9969 C 440.35627,167.3669 439.61627,167.2269 439.12627,167.2269 L 439.36127,166.1169 L 440.84627,166.9769"
       id="path38" />
    <path
       style="fill:#00ff00;stroke:none"
       d="M 468.48127,167.6219 C 465.26127,167.5019 466.25627,171.5869 462.91627,170.8419 C 461.80127,169.3569 464.14627,167.9919 465.26127,167.6219 C 466.49127,167.9919 467.35127,166.7619 468.48127,167.6219"
       id="path40" />
    <path
       style="fill:#00ff00;stroke:none"
       d="M 459.92627,170.8419 C 458.69627,171.2119 457.33127,170.2369 456.33127,169.3569 C 456.70627,167.7569 458.67627,168.7519 459.92627,168.4969 L 459.92627,170.8419"
       id="path42" />
    <path
       style="fill:#00ff00;stroke:none"
       d="M 415.53127,169.1019 C 415.29627,169.8469 416.02127,170.3369 416.39127,170.8419 L 418.73627,170.2369 C 419.47627,170.9769 418.50127,172.4619 419.71127,172.9519 C 420.82627,172.7169 421.68627,172.0919 422.93627,172.3469 C 422.93627,173.3219 422.33127,174.8069 421.21627,175.5669 C 420.10127,175.4519 419.12627,174.2219 417.87627,175.0819 L 417.64127,175.3169 C 417.27127,174.3369 416.78127,173.4619 415.78627,172.6019 L 412.56127,173.5769 C 412.56127,171.7219 413.42127,169.3569 415.53127,169.1219"
       id="path44" />
    <path
       style="fill:#00ff00;stroke:none"
       d="M 468.85127,176.5469 C 467.87627,175.3169 465.88627,175.3169 465.51127,173.8319 C 467.97127,174.6919 467.60127,169.7469 469.71127,172.3469 C 469.10627,173.5769 469.10627,175.0619 468.85127,176.5669"
       id="path46" />
    <path
       style="fill:#00ff00;stroke:none"
       d="M 478.28627,175.9219 C 475.68627,175.0619 472.97127,177.2669 471.47127,178.5169 C 471.58627,176.6619 471.11627,174.1819 472.95627,173.1869 C 475.29627,172.8169 476.66627,174.6719 478.26627,175.9019"
       id="path48" />
    <path
       style="fill:#00ff00;stroke:none"
       d="M 417.89627,178.2819 L 418.75627,178.2819 L 417.89627,181.8769 C 416.66627,181.2719 415.43627,180.2769 413.81127,180.6469 C 411.84127,181.3919 411.70627,185.1019 409.36127,183.9869 L 407.25127,184.8469 C 407.01627,183.3619 408.97127,182.7569 409.36127,181.5069 L 409.36127,177.0519 C 411.82127,182.0119 415.29627,170.9769 415.78627,178.5369 C 416.52627,179.2819 417.27127,178.6569 417.87627,178.3019"
       id="path50" />
    <path
       style="fill:#00ff00;stroke:none"
       d="M 481.88127,181.0169 C 480.02627,185.1019 477.17127,179.2819 475.06127,182.7569 C 474.83127,181.8969 474.20627,181.1569 474.45627,180.0219 C 476.92127,177.7969 479.53627,180.5119 481.88127,180.9969"
       id="path52" />
    <path
       style="fill:#00ff00;stroke:none"
       d="M 417.89627,189.3369 C 413.93127,187.6019 414.18627,195.9019 410.47127,191.6819 C 410.35627,189.9419 406.51127,188.7119 408.99127,186.9769 C 410.84627,186.2319 411.95627,190.1969 413.44127,187.4619 C 413.81127,186.2319 412.70127,184.3769 414.30127,183.6169 C 417.64127,183.6169 417.01627,187.3269 417.89627,189.3169"
       id="path54" />
    <path
       style="fill:#00ff00;stroke:none"
       d="M 481.25627,188.0869 C 482.36627,187.4819 482.85627,186.2319 482.23127,185.1219 C 484.94627,184.7669 483.46127,189.4569 484.20627,191.4469 L 483.71627,193.1869 C 482.74127,189.9619 478.15127,193.4219 478.01127,190.2169 C 477.52627,189.6119 476.78127,189.2419 475.92127,189.3569 C 475.92127,187.8719 474.81127,185.3919 477.15127,184.9069 C 479.24127,184.9069 479.38127,187.5019 481.23627,188.1269"
       id="path56" />
    <path
       style="fill:#00ff00;stroke:none"
       d="M 421.49127,196.4069 C 417.52627,196.1769 418.26627,200.7469 414.06627,200.3719 C 413.20627,200.7469 411.23627,200.0019 410.47127,199.1419 C 410.24127,198.6569 409.73127,198.4019 409.86627,197.6569 C 410.84627,197.2869 411.47127,199.6319 412.33127,197.8919 L 410.84627,194.9269 C 413.44127,194.0669 413.81127,200.3719 416.15627,196.4069 C 416.52627,195.0619 414.67127,192.8169 417.01627,192.3269 L 421.47127,196.4069"
       id="path58" />
    <path
       style="fill:#00ff00;stroke:none"
       d="M 539.65127,228.9469 C 538.54127,230.9219 539.65127,234.6519 539.42127,236.7619 C 532.85627,232.5419 521.08127,232.4269 516.49127,223.6169 L 509.06627,216.4269 C 515.37627,216.1919 520.96127,218.6569 525.04627,222.9919 C 526.76127,226.4469 535.86627,232.2119 536.72127,229.1019 C 534.26127,216.4469 535.08127,204.7269 525.41627,194.9269 L 525.41627,192.3269 C 536.80127,201.5069 544.24127,214.7869 539.67127,228.9469"
       id="path60" />
    <path
       style="fill:#00ff00;stroke:none"
       d="M 476.29627,192.9319 C 477.40627,194.2819 475.06127,196.8969 478.01127,196.7819 C 478.75627,195.5519 479.86627,193.9269 481.60627,194.9269 C 483.32627,197.4069 479.75127,198.3819 480.12127,200.6269 C 477.89627,203.9669 476.66627,200.7469 474.18627,200.3919 C 473.81127,198.5369 470.96127,197.0519 473.58127,195.3169 C 474.92627,194.7119 474.43627,192.6019 476.29627,192.9719"
       id="path62" />
    <path
       style="fill:#00ff00;stroke:none"
       d="M 533.09127,221.4869 C 531.23627,217.5219 526.64627,209.9419 526.27627,210.1969 C 527.99127,216.5269 530.84627,222.4819 533.09127,228.6919 C 527.27127,222.7369 523.79627,215.2969 521.82127,207.4619 C 520.33627,202.8719 519.96627,197.7969 517.62127,193.4419 C 528.03127,199.1419 532.25127,210.4319 533.11127,221.4869"
       id="path64" />
    <path
       style="fill:#ff0000;stroke:none"
       d="M 459.55627,199.7669 C 455.10127,200.6269 450.76627,203.3619 448.03127,206.8369 C 447.17127,204.8669 447.79627,201.3919 450.00627,199.3969 C 452.11627,196.6819 455.57127,196.6819 458.05127,198.5369 C 458.65627,198.7719 459.16627,199.2819 459.53627,199.7669"
       id="path66" />
    <path
       style="fill:#00ff00;stroke:none"
       d="M 517.33127,200.6269 L 518.18627,203.5969 C 513.99127,204.8269 512.87627,199.5119 510.51127,197.0319 C 512.74127,198.2619 516.08127,198.1469 517.33127,200.6269"
       id="path68" />
    <path
       style="fill:#ff0000;stroke:none"
       d="M 440.84627,199.3969 C 441.08127,201.6219 441.70627,203.9869 441.45127,205.9619 C 439.36127,203.3619 438.11127,200.0019 435.14127,198.2819 L 435.14127,197.6769 C 437.36627,197.4419 439.85127,198.0519 440.84627,199.3969"
       id="path70" />
    <path
       style="fill:#00ff00;stroke:none"
       d="M 471.47127,203.8719 C 472.33127,203.3819 473.81127,203.0119 474.81127,203.6369 C 474.69127,204.0069 474.92627,204.1219 475.04627,204.2419 C 473.93127,203.7519 473.44127,205.1019 473.32627,205.7269 C 474.06627,207.9519 471.10127,207.4419 469.98627,208.3219 L 469.38127,208.3219 C 471.10127,205.2369 465.18127,205.2369 467.66127,202.3669 L 467.42627,200.3919 C 468.17127,200.0219 470.14127,201.1369 470.65127,199.4169 C 473.11127,200.7619 468.18627,202.8719 471.51127,203.8719"
       id="path72" />
    <path
       style="fill:#00ff00;stroke:none"
       d="M 424.22127,200.0219 C 423.61627,201.9969 424.96627,203.2469 425.33627,204.8469 C 423.85127,204.9619 422.50627,205.5869 421.51127,206.8169 C 419.04627,207.0519 416.80127,206.7019 414.69127,205.9619 C 415.18127,204.8469 414.69127,203.2469 416.17627,202.3669 C 419.02627,200.2569 420.51127,207.3269 422.36627,202.7369 L 421.25627,199.7669 L 424.22127,200.0019"
       id="path74" />
    <path
       style="fill:#ff0000;stroke:none"
       d="M 439.08627,208.0869 C 436.11627,209.5719 433.89127,205.4919 431.29627,204.2419 C 430.92127,203.3819 430.18127,202.6419 430.43627,201.5269 C 431.41127,200.6669 433.40127,200.9219 434.63627,201.2919 L 439.08627,208.1069"
       id="path76" />
    <path
       style="fill:#00ff00;stroke:none"
       d="M 465.26127,202.1319 C 465.61127,203.9869 462.17127,204.4769 463.40127,206.3519 C 464.51627,207.3269 466.00127,206.8369 466.99627,207.8369 C 463.77627,211.1769 458.81127,213.0519 453.99127,211.2919 L 453.63627,211.0569 C 456.72127,209.9419 461.68627,209.5719 462.54627,205.1019 C 463.40127,204.2419 462.05627,202.1319 463.77627,201.8769 C 464.14627,201.9969 464.63627,202.2269 465.26127,202.1119"
       id="path78" />
    <path
       style="fill:#ff0000;stroke:none"
       d="M 459.92627,203.8719 C 459.69127,208.4619 454.47627,206.9569 451.51127,208.0869 C 452.11627,205.0019 456.95627,203.1269 459.92627,203.8719"
       id="path80" />
    <path
       style="fill:#00ff00;stroke:none"
       d="M 519.06627,207.8369 L 521.78127,216.1369 C 519.06627,213.4219 517.19127,208.8119 513.11127,207.4419 C 515.63127,211.0769 519.30127,213.7719 519.53627,215.6269 C 511.49127,217.4819 509.49627,207.9519 506.90127,204.8269 C 511.60627,205.5669 514.32127,206.9369 519.04627,207.7969"
       id="path82" />
    <path
       style="fill:#00ff00;stroke:none"
       d="M 433.40127,209.5719 C 429.81127,211.0569 427.21127,209.3369 423.24627,209.8069 C 422.76127,209.5719 422.64127,208.9469 423.01127,208.3219 C 424.86627,207.4619 427.83627,207.9519 428.71627,205.7269 C 430.20127,206.9569 431.80127,208.3219 433.42127,209.5719"
       id="path84" />
    <path
       style="fill:#00ff00;stroke:none"
       d="M 328.61627,223.2469 L 328.61627,223.8519 C 327.64127,219.6319 326.76127,215.2969 327.13627,210.4519 C 328.61627,214.5319 332.07627,218.8919 328.61627,223.2269"
       id="path86" />
    <path
       style="fill:#ff0000;stroke:none"
       d="M 445.55127,210.8219 C 443.09127,216.5469 429.08627,222.5219 423.18627,223.4219 C 419.88627,223.9069 419.79127,220.9619 421.78127,220.2569 C 429.08627,219.0269 436.04127,216.6619 441.49127,210.8219 L 445.57127,210.8219"
       id="path88" />
    <path
       style="fill:#ff0000;stroke:none"
       d="M 468.22627,218.7719 C 468.22627,220.1219 468.97127,222.7369 466.74127,223.2269 C 459.81127,221.6219 452.74127,219.0069 448.03127,213.1869 L 446.84127,211.1369 L 451.37127,211.1369 C 457.31127,215.5869 460.78627,219.5319 468.22627,218.7719"
       id="path90" />
    <path
       style="fill:#ffff00;stroke:none"
       d="M 479.88627,229.3169 C 488.44127,227.5819 496.49127,224.6119 504.55627,221.5069 C 504.98627,241.1169 513.60127,246.4469 522.64127,257.0119 C 510.12127,269.7869 498.60127,285.9419 504.79127,305.1769 C 507.13627,315.4719 514.83127,323.6769 513.09127,335.5869 C 511.37127,343.7719 509.38127,353.2069 500.08127,356.1919 C 491.29627,359.0469 482.40627,360.0819 473.48127,362.5619 C 462.46627,364.6719 451.58627,368.3419 442.91627,377.4419 C 441.06127,373.7319 436.64627,371.5869 433.42127,369.8469 C 417.68127,363.6569 400.65127,358.6369 384.65127,353.0519 C 362.46627,341.9369 381.76127,314.1619 384.34127,294.7469 C 391.27627,274.9419 369.96627,252.9119 369.47627,252.5419 C 377.52627,241.8769 384.16627,237.4069 389.06627,218.5369 C 399.71127,223.8719 412.99127,228.3419 426.62627,225.1019 C 433.93127,223.8719 441.00127,222.2469 446.82127,217.2869 C 455.98127,224.9819 467.76127,229.8269 479.90627,229.3169"
       id="path92" />
    <path
       style="fill:#000000;stroke:none"
       d="M 443.67627,223.6169 L 443.67627,284.5719 L 389.79127,284.9819 C 389.79127,284.9819 384.88627,258.7519 372.85627,252.3069 C 372.85627,252.3069 389.75127,237.9119 389.38127,226.8569 L 389.98627,223.8919 C 416.93627,236.7819 443.65627,223.6569 443.65627,223.6569"
       id="path94" />
    <path
       style="fill:#000000;stroke:none"
       d="M 469.96627,232.2119 L 476.97627,233.8519 L 486.27627,232.4269 L 501.54627,226.2319 C 501.92127,228.7119 500.57127,231.4469 501.54627,234.0469 C 503.77627,242.2269 510.47127,248.8119 516.66627,255.1419 L 502.17127,274.4769 L 499.49627,283.7319 C 470.37627,283.7319 449.42127,284.3369 449.42127,284.3369 L 449.42127,222.4619 L 469.94627,232.1719"
       id="path96" />
    <path
       style="fill:#7ebeff;stroke:none"
       d="M 441.90127,225.9619 L 441.90127,281.7019 L 423.69627,281.4669 C 423.69627,281.4669 425.33627,269.4769 432.52627,258.7519 C 434.98627,253.5369 427.93627,241.3719 438.46127,243.6169 C 439.32127,242.1319 438.17127,240.3719 438.03127,238.4969 C 436.66627,237.2869 434.61627,237.1319 432.93627,236.4869 C 430.35627,235.5319 429.42127,234.1019 428.07127,231.0969 C 433.01127,229.8669 441.88127,226.0169 441.88127,226.0169"
       id="path98" />
    <path
       style="fill:#ffffff;stroke:none"
       d="M 474.18627,235.1569 L 473.81127,237.2669 C 472.58127,236.6619 470.47127,237.1519 470.35627,238.7519 C 470.35627,239.3569 470.12127,239.9819 470.59127,240.2369 C 469.61627,239.4969 468.61627,240.4719 467.62127,240.5869 C 467.13627,238.3619 467.62127,235.3719 464.90627,234.2619 C 462.31127,233.5369 461.08127,236.1169 460.20127,237.8519 C 459.59627,239.8269 459.96627,242.1919 461.06127,243.8119 C 466.37127,245.2969 459.57627,249.0269 463.40127,251.2519 L 460.18127,252.1119 C 459.57627,249.5119 459.32127,246.2919 456.58627,244.6719 C 454.36127,243.8119 453.61627,246.1569 452.76127,247.3869 C 450.41627,251.6019 457.46627,252.4619 454.24127,256.3119 C 453.63627,257.6569 455.22127,258.4219 455.96127,258.9069 L 457.44627,258.9069 C 456.95627,260.7619 456.58627,262.9919 457.21127,264.8469 C 458.56127,266.9569 460.43627,264.9619 461.92127,264.6119 L 462.29127,264.3769 C 462.89627,265.6069 463.26627,267.3469 464.38127,268.2269 C 466.23627,267.4819 467.83627,266.6219 469.32127,268.8319 C 470.67127,268.2269 471.17627,269.5719 471.17627,270.5519 C 471.54627,273.5169 471.02127,274.8469 471.37127,277.8169 C 464.94627,278.9269 451.25627,281.2719 451.25627,281.2719 L 451.25627,225.1969 C 451.25627,225.1969 465.84627,233.4019 474.14627,235.0019"
       id="path100" />
    <path
       style="fill:#7ebeff;stroke:none"
       d="M 426.21627,231.3119 C 426.31127,233.0519 426.92127,234.8869 426.58627,236.7619 C 425.86627,240.9419 423.79627,245.3369 424.73127,249.5319 C 414.94627,252.5019 402.74127,241.0969 396.21627,253.3819 C 393.60127,257.8369 398.46127,263.9869 398.83127,269.3169 C 393.38627,273.4019 399.28127,277.1919 399.42127,281.6619 L 391.99627,281.8969 C 388.54127,271.2319 385.68627,259.9269 376.25627,251.8569 C 384.43627,245.1569 390.80627,236.4669 392.17127,226.7819 C 402.33127,231.7419 414.30127,231.2319 426.19627,231.2319"
       id="path102" />
    <path
       style="fill:#ffffff;stroke:none"
       d="M 498.69627,229.7269 C 499.67127,239.5319 505.80627,248.5569 513.11127,255.7469 C 507.17127,265.2969 500.39627,270.3369 498.28627,281.6419 C 492.35127,279.5319 486.35127,277.8919 479.53627,277.7569 C 478.56127,273.6769 477.42627,271.2719 478.93127,267.0519 C 484.12627,270.5119 483.13127,261.8369 487.85627,264.4569 C 490.57127,263.8519 490.08127,261.1169 490.57127,259.0069 C 492.42627,259.4969 494.90627,258.8919 495.88627,256.6619 C 496.00127,255.4319 495.76627,254.3169 495.02627,253.4419 C 496.37127,252.2119 496.88127,250.2169 496.51127,248.6169 C 495.78627,247.2669 493.91127,245.9019 492.31127,246.8769 L 491.70627,246.8769 C 492.05627,245.3919 492.56127,243.1669 490.84627,242.1719 C 490.84627,239.8269 493.81127,236.9569 490.61127,235.2169 C 488.38627,235.5669 486.27627,236.8169 484.90627,238.5569 C 485.02627,239.9069 484.67127,240.9019 483.18627,240.9019 C 483.42127,239.9269 483.07127,237.8169 481.70627,236.6819 L 479.61627,237.0519 C 479.73127,236.5669 479.53627,235.9769 479.77127,235.3519 C 486.95627,235.7269 492.58127,232.0119 498.77627,229.7869"
       id="path104" />
    <path
       style="fill:#660000;stroke:none"
       d="M 430.18127,237.0119 C 432.40627,238.7319 437.52627,236.9769 437.74127,241.7219 C 435.51127,243.5769 431.43127,239.4969 431.02127,242.4269 L 430.67127,258.1869 C 427.25127,266.4069 420.55127,272.3669 421.80127,281.0569 C 417.72127,275.4919 423.15127,270.1419 423.89127,264.6919 C 421.29627,262.9519 418.07127,265.2969 414.96627,264.9269 L 407.54627,264.6919 C 407.66127,263.0869 407.66127,261.6019 406.43127,260.4719 C 406.19627,263.9069 406.31127,265.1769 405.20127,267.4269 C 403.97127,270.5119 399.85127,273.6919 401.08127,280.6669 L 398.40127,272.7569 C 404.34127,267.1919 393.58127,261.7219 400.12127,256.3919 C 400.12127,256.0169 398.65627,256.1769 397.91627,256.7819 L 396.92127,257.2269 C 398.77627,250.8819 401.11627,251.1569 403.97127,249.1619 C 412.01627,247.9319 416.68627,254.5319 424.98627,251.4269 C 429.81127,248.0869 424.04627,243.2069 427.25127,238.7319 L 427.85627,233.2469 C 429.20627,233.2469 429.34127,236.1369 430.20127,237.0119"
       id="path106" />
    <path
       style="fill:#00ff00;stroke:none"
       d="M 466.74127,243.8519 L 469.08627,243.2469 C 470.68627,245.5869 466.86127,248.4619 470.31627,249.8069 L 473.54127,248.5769 C 474.02627,249.9269 474.36127,249.8669 475.98127,248.8719 C 477.70127,247.6419 477.25127,247.0519 476.74127,245.3169 C 475.63127,243.7119 476.13627,241.7619 474.77127,240.2569 C 475.88627,239.8869 476.25627,238.6569 476.49127,237.6569 C 476.84127,238.7719 477.83627,241.3719 479.71127,240.2569 L 480.06127,240.0219 C 481.04127,241.6219 478.09127,242.8719 478.20627,244.7269 C 477.72127,247.0719 479.32127,249.0669 481.17627,249.8069 C 482.66127,249.9269 483.77627,248.3219 484.14627,247.0919 C 484.51627,245.8619 483.54127,245.1219 483.91127,243.8719 C 485.02627,244.2419 485.88627,244.6119 486.88127,243.8719 C 488.85127,242.2669 485.39627,239.4169 488.60127,238.5369 C 488.71627,240.3919 486.99627,243.8719 489.57627,245.6069 C 487.35127,246.5869 485.45627,248.3619 485.20127,251.2119 C 483.34627,251.2119 480.27627,251.1919 479.42127,252.7769 C 481.51127,256.2319 473.48127,258.2269 477.70127,261.7019 C 480.29627,261.9369 482.52627,259.9619 483.63627,257.8519 C 484.38127,255.9969 487.35127,255.5119 487.72127,253.4019 C 488.95127,253.6369 490.06127,254.2619 491.06127,252.7969 C 492.03627,251.9369 491.06127,248.8319 493.65627,249.8269 L 494.02627,250.0619 C 493.28627,251.5469 490.80627,252.6569 492.17127,254.5119 C 492.52627,255.0019 492.52627,255.4919 493.03127,255.7469 C 492.05627,256.9769 488.09127,255.6269 487.72127,258.7119 C 486.49127,259.8269 489.20627,261.9369 486.60627,261.9369 C 485.74627,261.9369 485.49127,260.5869 484.51627,261.0769 C 482.79627,262.1919 482.29127,264.7869 480.31627,264.6719 C 480.08127,264.1819 480.08127,263.5569 479.45627,263.1869 C 477.48627,262.8169 476.99627,265.0419 476.23627,266.1569 C 476.00127,271.6019 475.04627,274.6319 478.38627,278.7319 C 481.27627,279.1419 494.36127,281.0769 496.35127,282.4419 C 488.17127,282.2119 463.09127,282.2469 452.54627,282.8519 C 456.99627,282.2469 467.21127,279.5519 471.76127,279.5519 C 473.85127,275.2169 472.99127,272.8519 472.87627,268.2619 C 472.52627,264.5519 469.28127,267.0319 467.79627,264.0469 L 465.20127,264.6519 C 464.85127,263.4219 464.59627,261.9369 463.11127,261.4269 L 459.28127,262.9119 C 458.91127,260.5669 461.37127,257.3269 458.42127,255.9619 L 456.56627,255.9619 C 459.90627,252.8719 454.10627,250.9969 455.45627,248.0319 C 457.68127,249.3769 457.50627,250.3719 459.01127,252.6219 C 460.49127,254.1019 461.97627,251.8369 463.95127,252.4619 C 465.29627,254.1819 462.87627,259.2019 465.22127,260.1969 C 466.56627,259.5919 469.30127,258.5969 469.04627,261.4269 C 469.16627,262.4069 470.39627,263.6569 471.39127,263.7719 C 472.74127,263.2819 474.36127,262.9119 474.98627,261.4269 C 474.75127,258.2069 474.63627,254.6119 471.76127,252.9919 C 470.41627,253.1069 469.30127,254.5919 467.79627,253.5969 C 469.14627,251.8569 468.17127,248.7719 465.82627,248.5169 L 464.85127,248.5169 C 465.45627,247.2869 466.70627,245.9219 465.82627,244.4369 C 463.97127,242.5819 461.23627,240.7269 462.85627,237.8719 C 463.09127,237.1319 464.08627,237.1319 464.57627,237.6419 C 465.06127,239.7469 464.45627,242.7169 466.68627,243.8319"
       id="path108" />
    <path
       style="fill:#00ff00;stroke:none"
       d="M 547.72127,238.4969 C 546.97627,240.1019 547.11627,243.4619 544.38127,242.5819 C 543.03127,241.3519 544.49627,239.8669 544.75127,238.4969 C 545.61127,238.4969 546.84127,237.1519 547.72127,238.4969"
       id="path110" />
    <path
       style="fill:#ffffff;stroke:none"
       d="M 475.67127,246.2119 C 475.18127,244.8669 472.58127,245.7269 471.84127,245.9769 L 471.84127,242.1319 C 473.69627,242.7369 474.67127,244.7269 475.67127,246.2119"
       id="path112" />
    <path
       style="fill:#00ff00;stroke:none"
       d="M 541.99627,244.7119 C 541.02127,246.0569 539.02627,246.0569 537.29127,245.9419 C 536.68627,245.0819 535.06127,244.5919 535.43627,243.2269 C 537.40627,240.9969 541.13627,242.3669 541.99627,244.7119"
       id="path114" />
    <path
       style="fill:#ffffff;stroke:none"
       d="M 481.13627,247.6419 C 480.16127,247.2669 480.90127,244.9819 481.25627,244.4769 C 483.28627,243.9269 481.02127,246.8769 481.13627,247.6419"
       id="path116" />
    <path
       style="fill:#00ff00;stroke:none"
       d="M 553.65627,262.3469 C 554.51627,256.3919 558.24627,251.6819 561.08127,246.5869 L 562.79627,249.1819 L 553.63627,262.3269"
       id="path118" />
    <path
       style="fill:#00ff00;stroke:none"
       d="M 568.17127,258.4969 L 559.86627,266.4269 C 562.58127,261.4669 562.62127,259.0269 563.99127,253.3219 C 563.50127,253.2069 565.92127,249.9419 565.18127,250.0619 L 567.03627,247.7169 C 568.26627,250.6869 569.63627,254.9069 568.15127,258.5169"
       id="path120" />
    <path
       style="fill:#ffffff;stroke:none"
       d="M 489.69127,249.1819 C 489.45627,249.6719 489.32127,250.1569 489.32127,250.6669 L 486.72127,250.4319 C 486.72127,248.6919 488.58127,248.8319 489.69127,249.2019"
       id="path122" />
    <path
       style="fill:#00ff00;stroke:none"
       d="M 552.68127,256.0169 L 550.96127,261.7219 L 547.99127,250.0619 C 550.33627,251.5469 551.45127,254.0269 552.70127,256.0169"
       id="path124" />
    <path
       style="fill:#ffffff;stroke:none"
       d="M 482.99127,255.7069 L 482.50627,253.6769 C 482.62127,252.5619 484.22127,253.5569 484.85127,252.8169 C 485.08127,253.5569 483.73627,255.9769 482.99127,255.7269"
       id="path126" />
    <path
       style="fill:#00ff00;stroke:none"
       d="M 547.09627,259.9819 L 542.89627,257.8719 C 542.89627,255.7619 540.06127,255.4119 540.55127,253.4219 C 543.26627,254.7869 547.11627,256.0169 547.11627,259.9819"
       id="path128" />
    <path
       style="fill:#00ff00;stroke:none"
       d="M 557.13627,266.8169 C 557.50627,267.5619 558.24627,267.4269 558.99127,267.4269 L 553.67627,274.2419 L 552.44627,268.2819 C 555.90127,264.0669 558.87127,258.7319 562.23127,254.0069 C 560.63127,258.2269 559.01127,262.5619 557.15127,266.7819"
       id="path130" />
    <path
       style="fill:#ffffff;stroke:none"
       d="M 468.95127,258.2819 L 465.39627,258.2819 L 466.25627,254.5719 C 466.60627,254.6919 468.93127,257.9119 468.93127,258.2819"
       id="path132" />
    <path
       style="fill:#ffffff;stroke:none"
       d="M 472.70127,258.7519 C 472.58127,259.3569 472.93627,260.1019 472.35127,260.4719 C 470.37627,260.4719 471.60627,257.6219 470.00627,256.6219 C 471.86127,254.7669 472.60127,257.3669 472.72127,258.7319"
       id="path134" />
    <path
       style="fill:#ffffff;stroke:none"
       d="M 479.51627,258.9869 L 480.41627,258.8119 L 482.42627,255.5319 C 481.66627,256.9369 480.26127,258.6169 479.53627,258.9869"
       id="path136" />
    <path
       style="fill:#00ff00;stroke:none"
       d="M 548.83127,267.9319 C 545.12127,264.9619 539.79127,262.9719 534.83127,261.4869 L 532.85627,257.0319 C 538.67627,259.2619 546.35127,261.2519 548.83127,267.9519"
       id="path138" />
    <path
       style="fill:#00ff00;stroke:none"
       d="M 559.24127,279.3569 C 561.70627,275.6469 565.18127,272.2869 567.54627,268.5569 L 567.05627,267.9519 C 562.23127,271.5469 558.38627,276.3919 554.53627,280.8419 C 555.27627,271.0369 567.17127,265.7069 571.99627,257.5019 C 571.88127,266.4269 566.68627,274.6319 559.24127,279.3369"
       id="path140" />
    <path
       style="fill:#00ff00;stroke:none"
       d="M 549.43627,275.1419 C 545.10127,271.6819 538.79627,267.2119 531.35127,268.3219 C 530.37627,266.9769 529.49627,265.2369 529.49627,263.8719 C 536.80127,265.9769 546.10127,266.5869 549.45627,275.1569"
       id="path142" />
    <path
       style="fill:#7ebeff;stroke:none"
       d="M 420.63127,267.0719 C 418.65627,271.2919 415.92127,277.1119 419.14627,281.7219 L 405.39627,281.7219 C 399.32127,276.7619 406.37127,272.1719 407.85627,267.4619 C 412.05627,268.0669 416.41127,267.4619 420.61127,267.1119"
       id="path144" />
    <path
       style="fill:#00ff00;stroke:none"
       d="M 548.83127,279.8469 L 549.18627,282.5619 C 545.47127,278.5969 541.00127,276.9769 536.66627,274.8869 C 535.80627,274.8869 535.18127,275.2569 534.57627,275.9969 L 534.57627,276.6019 C 538.03127,278.2069 541.39127,280.0619 544.73127,282.3069 C 539.16627,284.0269 535.57127,276.3519 530.72627,274.2419 L 527.13627,272.7569 C 535.31627,269.3019 543.99127,272.9919 548.83127,279.8269"
       id="path146" />
    <path
       style="fill:#00ff00;stroke:none"
       d="M 555.16127,290.0219 C 556.51127,289.2819 555.90127,286.0569 558.13127,287.3069 C 558.99127,288.0519 558.99127,289.9069 558.13127,290.6469 C 556.27627,290.9969 554.42127,291.8769 553.93127,293.8719 L 553.93127,296.8369 C 553.81127,294.9819 553.18627,293.1269 552.21127,291.5069 C 552.56127,290.2769 552.70127,287.6569 551.84127,286.1769 C 553.44127,286.9169 552.21127,290.5119 555.18127,290.0219"
       id="path148" />
    <path
       style="fill:#000000;stroke:none"
       d="M 442.07627,372.2269 C 443.05127,371.8569 449.08627,363.6369 489.04627,357.3469 C 498.58127,354.1219 506.76127,343.9469 508.01127,334.1419 C 506.52627,325.7069 504.30127,317.5219 500.59127,310.0619 C 499.47627,304.4769 496.10127,294.7469 499.94627,289.3019 C 499.94627,288.5569 392.36627,289.5319 388.36627,289.3769 C 388.36627,289.3769 389.08627,296.4069 386.62627,301.0569 C 384.16627,305.7069 376.10127,328.0519 377.64127,336.7419 C 379.18627,345.4119 381.35127,350.3919 394.98627,354.7269 C 408.61627,359.0669 425.98127,362.4819 430.92127,365.5869 C 435.86627,368.6769 442.07627,372.2269 442.07627,372.2269"
       id="path150" />
    <path
       style="fill:#00ff00;stroke:none"
       d="M 550.31627,291.5269 C 548.83127,292.1319 546.97627,291.7619 546.23627,290.2969 C 546.58627,288.8119 548.20627,288.9469 549.20627,288.3219 L 550.31627,291.5469"
       id="path152" />
    <path
       style="fill:#ff0000;stroke:none"
       d="M 497.25127,291.1919 C 494.02627,307.6969 506.04127,320.9419 505.06127,336.8369 C 501.97627,344.0269 495.39627,353.2269 486.97627,354.9619 C 472.23127,360.5519 459.67127,356.1569 441.49127,368.9869 C 431.82127,358.5569 417.31127,359.9269 405.16127,355.3369 C 397.85627,352.8719 390.04627,352.1119 383.46127,347.8919 C 378.15127,340.8219 379.01127,330.5319 381.11627,322.2119 C 383.46127,313.2819 391.27627,298.6769 391.06127,291.2119 C 390.96127,292.1119 497.27127,291.2119 497.27127,291.2119"
       id="path154" />
    <path
       style="fill:#000000;stroke:none"
       d="M 436.11627,295.9969 C 441.43127,297.8519 446.52627,300.2169 450.98127,304.3019 C 456.92127,305.9019 461.51127,311.1169 466.35127,315.5869 C 469.94627,318.3019 472.54627,326.7619 477.99127,323.4019 C 480.33627,323.7719 482.19127,321.5469 484.18627,320.4319 L 486.27627,316.2119 C 488.38627,316.2119 489.24127,318.4419 490.10127,319.8069 C 489.75127,323.0319 489.98627,326.5069 487.76127,328.9869 C 482.31127,333.3219 475.12127,337.1719 467.79627,333.8119 C 460.61127,330.1019 452.68127,325.9969 443.75627,328.1069 C 440.78627,329.9619 438.44127,332.0719 435.70627,334.0669 C 433.48127,339.3969 440.16127,335.1769 440.53127,339.1419 C 441.39127,338.6569 442.87627,337.5419 443.75627,338.9069 C 444.73127,341.2519 447.09627,338.4219 448.83127,339.7669 C 450.31627,343.1069 453.17127,339.3969 455.39627,341.8769 C 457.11627,340.9019 458.73627,342.2469 460.10127,342.9919 C 461.08127,345.5869 461.70627,348.2069 461.82127,351.0569 C 461.70627,353.1669 460.47127,355.0219 458.60127,356.1369 C 456.13627,356.0169 453.28627,354.6519 451.41127,357.2469 C 449.18627,357.9919 447.33127,356.3919 446.70627,354.6519 C 446.58627,354.3019 446.93627,353.6769 446.47127,353.4219 C 443.75627,358.1269 439.04627,352.6769 436.56627,357.8719 C 434.71127,358.6169 432.48627,357.3869 431.62627,355.5319 C 431.62627,354.1819 430.39627,353.7919 429.51627,353.1869 C 427.79627,354.7869 425.43627,356.7819 422.70127,355.5319 C 419.73127,353.5569 417.13627,351.9369 413.17127,352.3069 C 411.08127,351.3319 410.57127,349.2219 410.45627,347.2269 C 407.99127,347.6019 405.00627,346.9969 403.63627,344.5119 C 403.15127,343.7719 403.40127,342.5419 403.40127,341.5469 C 399.69127,341.0569 396.84127,339.0669 394.98627,335.9619 C 389.67127,328.0319 394.86627,318.7119 397.44627,311.1369 C 401.52627,306.8019 405.49127,302.0719 411.08127,299.2219 C 414.90627,298.1069 419.01127,297.9919 422.35127,295.9969 C 424.94627,295.6469 428.42127,296.8569 431.02127,295.7619 L 436.10127,295.9969"
       id="path156" />
    <path
       style="fill:#ffff00;stroke:none"
       d="M 442.07627,307.9119 C 443.93127,312.3669 444.90627,318.0869 442.31127,322.5619 C 442.07627,314.8669 440.59127,304.0669 431.04127,300.4719 L 427.44627,298.9869 C 433.15127,300.1019 439.96627,301.4469 442.07627,307.9119"
       id="path158" />
    <path
       style="fill:#ffff00;stroke:none"
       d="M 438.11127,312.1319 L 439.38127,326.3719 C 438.11127,312.1319 427.70127,304.8069 418.52127,302.2119 C 416.92127,301.7219 415.06127,302.0919 413.44127,301.7219 C 421.37127,298.1269 429.67127,302.3269 435.74627,307.6769 L 438.09127,312.1319"
       id="path160" />
    <path
       style="fill:#00ff00;stroke:none"
       d="M 549.20627,315.9769 C 546.86127,311.1569 547.23127,306.0569 548.22627,300.7269 C 555.41627,303.8119 548.60127,310.7619 549.20627,315.9769"
       id="path162" />
    <path
       style="fill:#00ff00;stroke:none"
       d="M 560.10127,300.7069 C 562.44627,307.5219 555.51127,309.8869 552.42627,314.1019 L 554.14627,306.1769 C 556.37127,304.3169 557.60127,301.9569 560.08127,300.7269"
       id="path164" />
    <path
       style="fill:#ffff00;stroke:none"
       d="M 447.66127,318.9669 C 447.29127,320.7069 446.31127,322.3069 444.69127,323.6769 C 449.14627,316.8569 445.55127,308.0319 442.09627,301.9569 C 447.03627,306.0369 449.88627,312.3869 447.66127,318.9469"
       id="path166" />
    <path
       style="fill:#00ff00;stroke:none"
       d="M 546.47127,317.4619 C 543.24627,311.0169 534.08627,310.2769 533.09127,302.5819 C 539.40127,304.9269 544.73127,311.1369 546.47127,317.4619"
       id="path168" />
    <path
       style="fill:#ffff00;stroke:none"
       d="M 434.63627,314.6919 C 435.98127,317.4069 436.86127,324.7269 435.86627,328.3419 C 434.88627,322.7569 430.72627,314.8869 425.65127,311.8969 C 417.35127,309.3019 407.25127,305.5669 400.06127,312.6419 C 401.66627,309.3019 406.37127,305.4519 410.84627,304.9619 C 420.37627,304.1019 428.69627,307.9919 434.63627,314.7119"
       id="path170" />
    <path
       style="fill:#00ff00;stroke:none"
       d="M 553.05127,327.0319 C 548.22627,321.9569 553.65627,317.4819 556.88127,313.6369 L 564.55627,304.9419 C 566.41127,314.2419 557.62127,320.1969 553.03127,327.0319"
       id="path172" />
    <path
       style="fill:#00ff00;stroke:none"
       d="M 548.20627,327.5219 C 544.12627,322.1919 537.42627,317.2269 530.74627,315.3519 C 530.14127,312.7569 528.15127,310.3919 528.89127,307.6769 C 536.93627,311.7619 545.63127,318.5969 548.22627,327.5419"
       id="path174" />
    <path
       style="fill:#ffff00;stroke:none"
       d="M 454.47627,318.9669 C 453.87127,321.4269 451.64627,323.4219 449.16627,324.3019 L 448.05127,324.5319 C 450.65127,319.9419 451.76127,313.8719 450.39627,308.1469 C 452.62127,311.3719 455.84627,314.5919 454.47627,318.9469"
       id="path176" />
    <path
       style="fill:#ffff00;stroke:none"
       d="M 459.55627,320.0819 C 458.81127,322.6769 456.72127,324.7869 454.24127,325.5319 C 454.12627,324.3019 456.47127,322.1919 456.95627,320.0819 C 458.30627,316.3719 457.07627,312.1519 454.86627,309.1619 C 458.09127,311.5069 460.68627,315.7269 459.57627,320.0819"
       id="path178" />
    <path
       style="fill:#ffff00;stroke:none"
       d="M 430.67127,318.3419 C 433.01127,322.1919 434.75127,328.6369 433.38627,333.5969 L 432.52627,331.4869 C 432.52627,328.8919 432.76127,326.0369 430.18127,324.9269 C 430.90127,324.0669 430.90127,322.2119 430.18127,321.3319 C 428.32627,318.4769 425.47127,319.7269 423.61627,316.8769 C 420.16127,317.8519 418.17127,311.8019 414.94627,315.6469 C 413.22627,313.9069 410.24127,313.9069 408.38627,315.6469 C 406.52627,317.5019 406.29627,319.4969 403.44127,318.1269 C 402.09627,317.6419 401.95627,318.7319 401.58627,319.6119 C 397.76127,323.6919 399.36127,331.1569 396.88127,335.3719 C 395.76627,331.9169 393.79627,327.1919 396.27627,323.7119 C 397.62127,317.3869 403.95127,312.4269 409.90627,311.1769 C 417.95627,311.1769 425.14127,312.7769 430.72627,318.3619"
       id="path180" />
    <path
       style="fill:#00ff00;stroke:none"
       d="M 320.06127,319.5719 C 322.52627,324.4169 327.25127,328.2619 329.47627,333.2269 C 323.28627,329.6319 316.10127,321.0569 311.13627,314.7269 L 310.53127,312.3869 L 319.08627,319.5719 L 320.06127,319.5719"
       id="path182" />
    <path
       style="fill:#00ff00;stroke:none"
       d="M 562.83627,328.1469 L 556.90127,331.9969 C 559.24127,328.0319 563.83127,324.9269 565.82627,320.7069 C 565.22127,320.1019 564.34127,320.7069 563.73627,321.0569 L 555.18127,329.3569 C 558.52127,323.4019 563.48127,318.3219 568.18627,312.9919 C 568.18627,318.0669 567.83627,324.3969 562.87627,328.1269"
       id="path184" />
    <path
       style="fill:#ffff00;stroke:none"
       d="M 465.51127,319.8269 C 465.63127,322.4269 464.53627,325.0419 461.92127,326.0169 C 460.80627,326.3919 459.83127,327.5019 458.69627,326.3919 C 461.15627,323.4219 463.03127,319.9419 462.29127,315.9619 C 464.26127,316.3319 464.38127,318.5569 465.51127,319.8069"
       id="path186" />
    <path
       style="fill:#00ff00;stroke:none"
       d="M 548.58127,334.9819 C 537.31127,335.9619 529.49627,325.4319 524.79127,316.8569 C 534.45627,318.4619 545.12127,324.9269 548.58127,334.9819"
       id="path188" />
    <path
       style="fill:#ffff00;stroke:none"
       d="M 412.56127,318.9669 L 411.70627,319.8269 L 410.22127,318.1069 C 410.57127,315.9969 412.68127,318.2269 412.56127,318.9669"
       id="path190" />
    <path
       style="fill:#ffff00;stroke:none"
       d="M 418.52127,318.5969 L 418.52127,319.5719 L 416.17627,318.3419 C 416.41127,316.3719 418.15127,318.1069 418.52127,318.5769"
       id="path192" />
    <path
       style="fill:#00ff00;stroke:none"
       d="M 330.72627,337.0919 C 324.04627,332.7569 317.46627,326.3119 308.67627,328.7919 C 307.93627,325.9419 307.70127,322.7169 307.81627,319.8669 L 313.52127,321.9769 L 330.74627,337.1119"
       id="path194" />
    <path
       style="fill:#ffff00;stroke:none"
       d="M 422.85627,318.9269 C 422.74127,319.2819 424.94627,320.9019 425.08127,321.0369 C 424.73127,322.1519 420.92127,322.1919 420.18127,322.4419 L 420.78627,319.3569 L 422.83627,318.9669"
       id="path196" />
    <path
       style="fill:#ffff00;stroke:none"
       d="M 410.45627,321.6019 L 410.06127,325.1219 L 406.97627,323.4769 L 408.13127,321.0969 C 410.49127,320.2169 407.62127,319.9269 410.47127,321.6219"
       id="path198" />
    <path
       style="fill:#ffff00;stroke:none"
       d="M 416.15627,321.9369 C 416.27627,322.9119 416.04127,323.6569 415.29627,324.2819 C 413.81127,324.6519 412.46627,323.3019 413.44127,321.9369 C 414.30127,321.9369 415.78627,319.9619 416.15627,321.9369"
       id="path200" />
    <path
       style="fill:#ffff00;stroke:none"
       d="M 405.12127,322.5619 C 405.24127,323.9069 404.14627,324.6719 402.77627,324.2819 C 401.92127,324.5119 401.92127,324.0469 401.54627,323.4219 C 401.17627,321.9369 402.77627,321.6819 403.63627,321.3119 C 404.38127,321.0769 404.98627,321.9169 405.12127,322.5419"
       id="path202" />
    <path
       style="fill:#00ff00;stroke:none"
       d="M 574.12627,321.5669 C 571.29627,324.7869 566.70627,328.7519 563.11127,331.9969 C 562.50627,332.6019 561.62627,332.6019 560.76627,332.9719 C 564.96627,330.6269 567.95627,326.1569 570.06127,322.1919 C 571.04127,321.0769 572.77627,321.8369 574.14627,321.5869"
       id="path204" />
    <path
       style="fill:#ffff00;stroke:none"
       d="M 487.21127,323.4419 C 487.44627,324.7869 486.84127,325.7819 485.72627,326.6619 C 485.61127,325.1769 483.75627,323.0669 486.08127,321.9569 C 486.68627,321.8369 487.31127,322.6969 487.19127,323.4419"
       id="path206" />
    <path
       style="fill:#ffff00;stroke:none"
       d="M 469.10627,327.5219 C 467.87627,328.8719 465.65127,330.1219 464.02627,328.7519 C 465.37627,327.2669 467.48627,324.7869 467.85627,322.1919 C 469.45627,323.3019 469.71127,325.7819 469.08627,327.5219"
       id="path208" />
    <path
       style="fill:#ffff00;stroke:none"
       d="M 428.85127,323.0669 L 426.80127,325.7469 C 427.64127,327.6969 424.12627,322.8519 424.12627,322.8519 C 424.73127,321.9969 428.50127,321.9569 428.87127,323.0519"
       id="path210" />
    <path
       style="fill:#ffff00;stroke:none"
       d="M 423.60127,328.7719 C 423.48127,329.6319 422.36627,330.0019 421.74127,329.3769 C 420.14127,328.5169 420.26127,326.7819 420.26127,325.1569 C 422.48627,322.4419 424.34127,327.1319 423.60127,328.7519"
       id="path212" />
    <path
       style="fill:#ffff00;stroke:none"
       d="M 483.11127,328.7719 L 481.62627,330.0019 C 481.62627,328.5169 479.77127,325.1769 483.11127,325.1769 C 483.46127,326.5269 483.60127,327.4069 483.11127,328.7719"
       id="path214" />
    <path
       style="fill:#ffff00;stroke:none"
       d="M 409.34127,329.0269 C 408.85127,329.6319 408.11127,329.2619 407.48627,329.3769 C 406.62627,328.5169 406.74127,327.7769 407.25127,326.6619 C 408.97127,324.8069 410.33627,327.6419 409.36127,329.0069"
       id="path216" />
    <path
       style="fill:#ffff00;stroke:none"
       d="M 473.81127,330.5119 C 473.07127,332.6219 470.47127,331.8569 469.36127,331.1169 C 470.70627,329.6319 471.58627,328.0319 471.82127,326.0369 C 474.04627,326.5269 474.53627,328.5169 473.79627,330.4919"
       id="path218" />
    <path
       style="fill:#ffff00;stroke:none"
       d="M 417.89627,330.8819 C 416.29627,331.8569 414.55627,330.5319 413.81127,329.0269 C 413.81127,328.4219 413.58127,327.6769 414.30127,327.2869 C 415.27627,328.1469 417.01627,327.8919 417.01627,326.4269 L 417.87627,330.8819"
       id="path220" />
    <path
       style="fill:#ffff00;stroke:none"
       d="M 478.91127,329.0269 C 479.28127,330.3719 477.79627,330.8819 477.19127,331.4869 L 475.96127,331.4869 C 475.96127,329.3769 478.18627,324.6719 478.93127,329.0269"
       id="path222" />
    <path
       style="fill:#ffff00;stroke:none"
       d="M 403.38627,328.1469 C 407.76127,331.1169 402.03627,330.1219 401.78127,330.4919 L 400.67127,329.0069 L 400.90127,327.8919 C 401.88127,327.5219 402.38627,328.4969 403.36627,328.1269"
       id="path224" />
    <path
       style="fill:#ffff00;stroke:none"
       d="M 430.18127,329.0269 C 430.53127,330.3719 429.57627,331.2519 428.69627,330.8819 C 427.83627,330.1419 427.21127,329.3969 427.46627,328.1669 C 428.32627,327.5619 429.92627,327.9319 430.18127,329.0269"
       id="path226" />
    <path
       style="fill:#ffff00;stroke:none"
       d="M 427.40627,335.2769 C 427.03627,335.7619 424.81127,335.5519 424.32127,335.6869 C 424.20627,334.7119 423.38627,332.3869 424.73127,331.7619 C 425.84627,332.2469 427.40627,334.0269 427.40627,335.2769"
       id="path228" />
    <path
       style="fill:#ffff00;stroke:none"
       d="M 415.29627,336.2119 C 414.06627,337.0719 411.70627,337.0719 410.47127,336.2119 C 408.87127,335.6069 409.36127,333.6169 410.47127,332.6219 C 412.07627,334.5919 416.04127,332.1319 415.29627,336.2119"
       id="path230" />
    <path
       style="fill:#ffff00;stroke:none"
       d="M 405.12127,333.8719 C 405.35627,335.7269 405.00627,338.0869 403.03127,338.5769 C 401.68627,338.3419 400.18127,337.9719 399.43627,336.8369 C 399.06627,334.2419 401.15627,333.9869 402.77627,332.9919 C 403.75627,332.8719 404.63627,332.9919 405.12127,333.8519"
       id="path232" />
    <path
       style="fill:#ffff00;stroke:none"
       d="M 422.74127,334.9819 C 422.38627,335.9619 421.62627,337.3269 420.65127,336.8369 C 419.16627,336.6019 419.04627,334.6119 420.04627,333.8719 C 421.27627,333.5169 422.01627,334.2419 422.76127,334.9819"
       id="path234" />
    <path
       style="fill:#ffff00;stroke:none"
       d="M 432.52627,335.3519 C 431.04127,336.5869 434.24127,337.9519 432.76127,338.3219 C 431.52627,339.1819 430.04627,338.0869 429.79127,336.8369 C 429.04627,334.9819 431.51127,334.7269 432.50627,335.3519"
       id="path236" />
    <path
       style="fill:#00ff00;stroke:none"
       d="M 550.94127,337.4619 C 551.17627,340.8019 547.23127,344.5319 550.33627,346.8969 L 551.19627,346.8969 C 551.54627,348.3819 549.71127,348.8719 548.85127,349.3769 L 545.88627,348.7719 C 549.22127,345.6869 548.22627,340.2169 550.96127,337.4819"
       id="path238" />
    <path
       style="fill:#ffff00;stroke:none"
       d="M 426.82127,340.0819 C 426.21627,340.9419 425.33627,341.5669 424.22127,341.3119 C 423.48127,340.5669 423.61627,339.5719 423.61627,338.5969 C 424.22127,338.4769 428.07127,337.2469 426.84127,340.0819"
       id="path240" />
    <path
       style="fill:#ffff00;stroke:none"
       d="M 419.14627,339.4569 C 419.02627,340.4319 418.40127,341.1919 417.66127,341.9169 C 416.54627,342.2869 415.06127,342.2869 415.31627,340.6869 C 415.08127,337.6019 418.03127,340.3169 419.14627,339.4569"
       id="path242" />
    <path
       style="fill:#ffff00;stroke:none"
       d="M 410.82627,342.7969 C 410.59127,344.1419 408.97127,343.7719 408.11127,344.2819 C 406.76127,343.5369 405.76627,341.9369 406.62627,340.4319 C 408.34627,338.3219 412.33127,339.9419 410.82627,342.7769"
       id="path244" />
    <path
       style="fill:#ffff00;stroke:none"
       d="M 438.11127,340.0819 C 438.34627,340.9419 437.99127,341.6819 437.25127,342.1919 L 436.39127,342.1919 L 436.39127,340.0819 L 438.11127,340.0819"
       id="path246" />
    <path
       style="fill:#ffff00;stroke:none"
       d="M 431.29627,341.5669 C 431.41127,342.1719 431.29627,343.7919 430.18127,343.9069 C 429.20627,344.1419 428.83127,343.9069 428.69627,343.0519 C 428.69627,341.7019 430.18127,341.3319 431.29627,341.5669"
       id="path248" />
    <path
       style="fill:#ffff00;stroke:none"
       d="M 448.89127,343.0519 L 448.89127,344.9069 C 447.03627,345.5119 447.40627,342.7969 447.03627,342.1719 C 447.89627,341.9369 448.38627,342.6569 448.89127,343.0319"
       id="path250" />
    <path
       style="fill:#ffff00;stroke:none"
       d="M 434.26127,345.4119 C 433.77627,346.2719 433.28627,345.2969 432.77627,345.1769 L 433.63627,343.6919 C 433.87127,343.9269 435.12127,344.8069 434.24127,345.4319"
       id="path252" />
    <path
       style="fill:#ffff00;stroke:none"
       d="M 453.97127,344.3019 C 453.61627,344.7869 452.25127,345.6469 451.25627,345.7819 C 451.13627,344.9269 451.37127,343.9269 452.11627,343.6769 C 452.85627,343.4419 453.34627,344.0269 453.97127,344.2819"
       id="path254" />
    <path
       style="fill:#ffff00;stroke:none"
       d="M 423.60127,345.1569 C 422.87627,345.7619 422.36627,346.7619 421.25627,346.3919 C 421.02127,345.2769 421.37127,344.2819 422.36627,343.9069 C 423.09127,343.9069 423.97127,344.1419 423.60127,345.1419"
       id="path256" />
    <path
       style="fill:#ffff00;stroke:none"
       d="M 458.44127,344.9269 C 458.20627,345.4119 457.33127,345.5319 456.58627,345.4119 L 456.58627,344.3019 C 457.33127,344.0669 457.81627,344.6519 458.44127,344.9069"
       id="path258" />
    <path
       style="fill:#ffff00;stroke:none"
       d="M 445.29627,345.7819 C 445.53127,346.6419 445.06127,346.6419 444.43627,346.8969 C 443.69627,347.6419 443.09127,346.7819 442.95627,346.0369 C 443.07127,344.9269 445.80627,343.4419 445.29627,345.8019"
       id="path260" />
    <path
       style="fill:#00ff00;stroke:none"
       d="M 521.80127,365.1569 C 522.91627,361.3119 523.28627,357.2269 523.52127,352.8719 L 529.45627,344.5719 C 531.92127,352.5219 526.74127,359.2219 521.78127,365.1769"
       id="path262" />
    <path
       style="fill:#00ff00;stroke:none"
       d="M 543.24627,347.8919 L 543.24627,348.7519 C 541.52627,349.1219 540.53127,347.1519 539.65127,346.0369 L 539.88627,344.5519 C 541.60627,344.7869 542.85627,346.1569 543.22627,347.8919"
       id="path264" />
    <path
       style="fill:#ffff00;stroke:none"
       d="M 427.70127,346.8969 C 426.95627,347.0119 426.47127,346.4069 425.72627,346.6619 L 425.96127,345.1769 L 427.68127,346.9169"
       id="path266" />
    <path
       style="fill:#ffff00;stroke:none"
       d="M 417.27127,346.6419 C 417.27127,348.2469 416.41127,351.2319 414.04627,349.6119 C 412.81627,348.7519 412.56127,347.2669 413.18627,346.0169 C 414.67127,346.0169 416.52627,344.5319 417.27127,346.6219"
       id="path268" />
    <path
       style="fill:#00ff00;stroke:none"
       d="M 520.92127,346.0369 C 520.18127,353.4769 521.64627,361.8019 517.33127,367.7569 L 511.39127,375.1969 C 511.99627,368.8719 517.25127,359.0269 518.73627,353.0669 L 515.47127,356.8169 C 511.76127,360.2769 512.01627,366.1169 509.53627,370.2169 C 507.81627,360.2969 515.72627,353.7119 520.31627,346.0169 L 520.92127,346.0169"
       id="path270" />
    <path
       style="fill:#ffff00;stroke:none"
       d="M 439.08627,346.6419 C 439.32127,347.5019 438.60127,347.8719 438.11127,348.3819 C 437.36627,348.4969 436.51127,348.3819 436.39127,347.5219 C 436.27627,345.9219 438.24627,346.2919 439.10627,346.6619"
       id="path272" />
    <path
       style="fill:#ffff00;stroke:none"
       d="M 433.40127,349.0069 C 433.05127,349.7469 433.05127,350.8619 432.17127,351.1169 C 431.56627,351.3519 430.82627,350.8819 430.68627,350.2569 C 430.57127,349.3969 430.92127,348.6569 431.66627,348.1469 C 432.40627,348.0319 433.26627,348.1469 433.38627,349.0069"
       id="path274" />
    <path
       style="fill:#ffff00;stroke:none"
       d="M 448.89127,350.4919 L 448.03127,350.4919 C 447.42627,349.3769 448.15127,348.6369 449.14627,348.1469 C 448.65627,348.7519 450.26127,350.2569 448.91127,350.4919"
       id="path276" />
    <path
       style="fill:#ffff00;stroke:none"
       d="M 459.92627,349.8869 C 460.29627,351.4869 459.43627,352.8519 458.07127,353.4769 C 455.98127,353.5969 457.09627,350.5119 457.21127,349.3969 C 457.56127,347.5419 459.55627,348.9069 459.92627,349.8869"
       id="path278" />
    <path
       style="fill:#ffff00;stroke:none"
       d="M 451.99627,350.5869 L 453.63627,351.1919 L 455.06127,348.7119 L 453.34627,348.7519 L 451.99627,350.5669"
       id="path280" />
    <path
       style="fill:#ffff00;stroke:none"
       d="M 418.58127,351.4669 L 422.03627,351.7619 L 420.68627,348.5969 C 420.68627,348.9469 418.83127,349.1019 418.60127,351.4469"
       id="path282" />
    <path
       style="fill:#ffff00;stroke:none"
       d="M 427.44627,350.2569 C 427.68127,351.6019 426.58627,352.8519 425.35627,353.2269 L 423.63627,352.8519 C 424.24127,351.7419 423.52127,349.6319 425.35627,349.6319 C 426.10127,349.7469 427.07627,349.2619 427.44627,350.2369"
       id="path284" />
    <path
       style="fill:#ffff00;stroke:none"
       d="M 444.43627,350.8619 C 444.79127,351.9769 443.32627,352.7169 442.58127,353.2069 C 441.72127,353.2069 441.97627,351.8569 442.35127,351.3519 C 442.95627,351.1169 443.58127,350.6069 444.43627,350.8619"
       id="path286" />
    <path
       style="fill:#ffff00;stroke:none"
       d="M 438.48127,352.6219 C 438.48127,353.8519 437.25127,354.7269 436.39127,355.3369 C 435.27627,355.3369 434.04627,355.3369 433.67627,354.1019 C 434.40127,353.2469 435.02627,350.2569 437.01627,351.7619 C 437.76127,351.4069 437.99127,352.3669 438.50127,352.6219"
       id="path288" />
    <path
       style="fill:#ffff00;stroke:none"
       d="M 452.48627,354.1019 C 451.62627,354.9619 450.26127,355.3369 449.14627,354.7119 C 448.54127,353.1069 450.49127,353.8519 451.00127,352.8519 C 451.49127,353.2269 453.34627,352.8519 452.48627,354.0869"
       id="path290" />
    <path
       style="fill:#00ff00;stroke:none"
       d="M 539.40127,360.1019 C 535.94127,359.4969 531.10127,362.2119 527.62127,362.5619 C 527.50627,357.7369 535.92127,358.3019 538.40127,354.7119 L 543.71627,350.7819 C 543.48127,352.5219 540.74627,358.4619 539.38127,360.0819"
       id="path292" />
    <path
       style="fill:#00ff00;stroke:none"
       d="M 543.24627,366.2719 L 525.02627,366.2719 C 530.96127,361.5669 539.51627,363.0519 547.33127,362.8169 L 543.24627,366.2719"
       id="path294" />
    <path
       style="fill:#00ff00;stroke:none"
       d="M 550.06127,369.6119 C 548.20627,371.2119 544.24127,370.5869 544.36127,373.4619 C 535.31627,370.8619 525.39627,373.0869 516.72127,374.9419 C 518.95127,370.9769 522.91627,369.9819 526.88127,369.2419 L 550.06127,369.5919"
       id="path296" />
    <path
       style="fill:#ff0000;stroke:none"
       d="M 433.40127,385.6469 L 433.63627,388.1069 C 426.45127,381.0369 413.93127,384.7669 405.74627,387.1319 C 404.88627,383.6569 404.88627,380.3169 405.74627,376.7019 C 411.93627,373.2469 420.12127,375.4719 425.94127,378.1869 C 429.02627,379.9269 430.88627,383.2619 433.36627,385.6269"
       id="path298" />
    <path
       style="fill:#00ff00;stroke:none"
       d="M 546.72127,377.6969 L 539.90627,379.6719 C 536.19627,377.8169 532.23127,376.5869 528.01127,375.8219 C 534.32127,373.7119 541.02127,375.7069 546.72127,377.6769"
       id="path300" />
    <path
       style="fill:#ff0000;stroke:none"
       d="M 475.92127,386.0169 C 474.20627,384.5319 471.84127,383.6769 469.36127,384.5319 C 463.05127,386.7619 455.49127,385.8819 449.77127,389.8669 L 449.16627,386.6419 C 457.58127,381.6819 465.90127,371.8769 476.54627,377.0919 L 475.94127,386.0169"
       id="path302" />
    <path
       style="fill:#00ff00;stroke:none"
       d="M 503.65627,379.7669 C 501.06127,382.2269 505.84627,382.8169 504.47627,385.5519 C 502.76127,388.1469 500.43627,385.3919 498.69627,385.1419 C 491.39127,385.6269 485.02627,391.0969 477.21127,390.7069 C 477.44627,386.8569 482.03627,386.9569 484.63627,385.9619 C 490.70627,385.4719 495.45627,381.4069 499.90627,377.0719 C 501.13627,377.0719 503.13127,378.6369 503.61627,379.7469"
       id="path304" />
    <path
       style="fill:#00ff00;stroke:none"
       d="M 525.02627,379.1819 C 524.79127,379.5519 520.31627,379.8069 519.71127,382.4069 C 524.04627,381.6619 530.12127,381.2919 534.34127,380.6869 C 536.56627,381.9169 539.04627,382.5419 540.76627,385.1419 C 531.47127,383.7919 519.20627,385.9969 511.64627,379.4369 C 515.61127,378.0869 520.94127,378.3219 525.02627,379.2019"
       id="path306" />
    <path
       style="fill:#ff0000;stroke:none"
       d="M 446.78127,388.6169 C 447.27127,390.5869 446.04127,391.8369 445.55127,393.4419 C 443.32627,394.9269 439.61627,394.1819 436.99627,394.0669 C 436.99627,391.3519 435.39627,388.2269 437.23127,385.9969 C 440.45627,385.9969 446.39127,384.1419 446.76127,388.5969"
       id="path308" />
    <path
       style="fill:#ff0000;stroke:none"
       d="M 432.52627,392.6019 C 424.59627,397.4419 415.41627,393.8319 408.11127,390.1419 C 413.93127,387.4269 422.48627,386.5469 429.18627,388.6569 C 430.41627,389.6319 432.40627,390.8819 432.52627,392.6219"
       id="path310" />
    <path
       style="fill:#ff0000;stroke:none"
       d="M 473.81127,388.9869 C 468.61627,392.3269 461.43127,392.2119 455.10127,393.6919 L 450.02627,393.0869 C 456.33127,388.2619 464.88627,389.1219 472.70127,387.7569 L 473.81127,388.9869"
       id="path312" />
    <path
       style="fill:#ff0000;stroke:none"
       d="M 476.54627,398.5569 L 476.54627,399.0469 C 474.65127,398.5569 461.58627,397.8919 458.83127,401.0569 C 455.86627,403.9069 451.90127,406.8369 447.42627,405.3519 C 445.08127,403.4969 439.75127,402.1319 440.86627,398.7919 C 442.83627,398.5569 444.94627,402.6419 448.05127,402.0119 C 457.35127,401.4069 464.65127,394.0869 474.45627,396.4269 L 476.54627,398.5369"
       id="path314" />
    <path
       style="fill:#ff0000;stroke:none"
       d="M 438.48127,397.5619 C 436.39127,401.6419 432.17127,406.9969 426.84127,406.4869 C 420.16127,405.7469 414.94627,400.6669 408.13127,400.9019 C 407.15127,402.0119 406.64627,403.3819 404.90627,403.2469 C 405.51127,401.2719 407.62127,399.1619 409.61627,398.5369 C 418.65627,398.5369 429.32127,409.3369 436.39127,397.3069 C 436.88127,397.7969 437.74127,397.5419 438.48127,397.5419"
       id="path316" />
    <path
       style="fill:#00ff00;stroke:none"
       d="M 477.77627,403.0319 L 487.19127,406.4869 L 486.70627,408.3419 C 480.51127,406.1169 473.56127,403.0119 466.99627,400.2769 C 470.22127,402.1319 474.18627,402.0119 477.77627,402.9919"
       id="path318" />
    <path
       style="fill:#00ff00;stroke:none"
       d="M 412.31127,405.0019 C 404.63627,408.0869 397.93627,413.0669 390.49127,416.6619 C 388.03127,410.2169 395.57127,410.7069 398.54127,408.5969 C 403.73627,409.8269 407.09627,403.0319 412.29127,405.0019"
       id="path320" />
    <path
       style="fill:#ff0000;stroke:none"
       d="M 478.03127,408.3619 C 476.80127,410.5869 477.54627,415.8019 472.95627,413.4419 L 473.81127,406.8769 L 478.01127,408.3619"
       id="path322" />
    <path
       style="fill:#00ff00;stroke:none"
       d="M 490.80627,408.9869 C 490.92127,409.4769 490.80627,410.1019 490.20127,410.4719 C 489.59627,409.8469 488.97127,408.8719 489.71127,407.9919 C 490.43627,407.6219 490.43627,408.5969 490.82627,408.9669"
       id="path324" />
    <path
       style="fill:#ff0000;stroke:none"
       d="M 407.85627,410.9619 C 407.97127,412.3069 407.25127,413.1869 407.50627,414.5519 C 406.64627,415.2969 405.53127,415.6669 404.28127,415.4119 C 406.11627,413.9269 404.04627,411.1919 407.25127,410.9619 L 407.85627,410.9619"
       id="path326" />
    <path
       style="fill:#00ff00;stroke:none"
       d="M 387.89627,414.3169 C 388.13127,416.7819 386.78127,418.6569 384.92627,420.2769 C 383.95127,419.1619 384.18627,417.3069 384.57627,416.0569 C 385.68627,415.4519 386.54627,414.3169 387.91627,414.3169"
       id="path328" />
  </g>
</svg>
