<?xml version="1.0" encoding="UTF-8" standalone="no"?>
<svg
   xmlns:dc="http://purl.org/dc/elements/1.1/"
   xmlns:cc="http://web.resource.org/cc/"
   xmlns:rdf="http://www.w3.org/1999/02/22-rdf-syntax-ns#"
   xmlns:svg="http://www.w3.org/2000/svg"
   xmlns="http://www.w3.org/2000/svg"
   xmlns:sodipodi="http://inkscape.sourceforge.net/DTD/sodipodi-0.dtd"
   xmlns:inkscape="http://www.inkscape.org/namespaces/inkscape"
   width="706pt"
   height="356pt"
   id="svg2"
   sodipodi:version="0.32"
   inkscape:version="0.43"
   sodipodi:docname="philippines1.svg"
   sodipodi:docbase="/home/demailly/ajour/flags"
   version="1.0">
  <metadata
     id="metadata73">
    <rdf:RDF>
      <cc:Work
         rdf:about="">
        <dc:format>image/svg+xml</dc:format>
        <dc:type
           rdf:resource="http://purl.org/dc/dcmitype/StillImage" />
      </cc:Work>
    </rdf:RDF>
  </metadata>
  <sodipodi:namedview
     inkscape:cy="220.14515"
     inkscape:cx="459.50761"
     inkscape:zoom="0.86831672"
     inkscape:window-height="1102"
     inkscape:window-width="1303"
     inkscape:pageshadow="2"
     inkscape:pageopacity="0.0"
     borderopacity="1.0"
     bordercolor="#666666"
     pagecolor="#ffffff"
     id="base"
     inkscape:window-x="115"
     inkscape:window-y="35"
     inkscape:current-layer="svg2" />
  <defs
     id="defs4">
    <marker
       id="ArrowEnd"
       viewBox="0 0 10 10"
       refX="0"
       refY="5"
       markerUnits="strokeWidth"
       markerWidth="4"
       markerHeight="3"
       orient="auto">
      <path
         d="M 0,0 L 10,5 L 0,10 L 0,0 z "
         id="path7" />
    </marker>
    <marker
       id="ArrowStart"
       viewBox="0 0 10 10"
       refX="10"
       refY="5"
       markerUnits="strokeWidth"
       markerWidth="4"
       markerHeight="3"
       orient="auto">
      <path
         d="M 10,0 L 0,5 L 10,10 L 10,0 z "
         id="path10" />
    </marker>
  </defs>
  <g
     id="g1401"
     transform="matrix(5,0,0,5,-41.73926,-260.7645)">
    <path
       style="fill:#ff0000;stroke:none"
       d="M 8.50391,140.438 L 184.25,140.438 L 184.25,52.316 L 8.50391,52.316 L 8.50391,140.438 z "
       id="path16" />
    <path
       style="fill:#007eff;stroke:none"
       d="M 8.50391,96.379 L 184.25,96.379 L 184.25,52.32 L 8.50391,52.32 L 8.50391,96.379 z "
       id="path18" />
    <path
       style="fill:#ffffff;stroke:none"
       d="M 82.3164,96.2774 L 8.50391,52.32 L 8.50391,140.438 L 82.3164,96.2774"
       id="path20" />
    <path
       style="fill:none;stroke:#000000;stroke-width:0"
       d="M 8.50391,140.438 L 184.25,140.438 L 184.25,52.32 L 8.50391,52.32 L 8.50391,140.438 z "
       id="path22" />
    <path
       style="fill:#ffff00;stroke:none"
       d="M 66,88.918 L 66.6328,94.4728 L 72.0234,95.6642 L 66.9961,98.0313 L 67.4141,103.551 L 63.6719,99.4845 L 58.5664,101.59 L 61.2656,96.7618 L 57.7031,92.488 L 63.0938,93.6798 L 66,88.91"
       id="path24" />
    <path
       style="fill:none;stroke:#000000;stroke-width:0.21427301"
       d="M 66,88.918 L 66.6328,94.4728 L 72.0234,95.6642 L 66.9961,98.0313 L 67.4141,103.551 L 63.668,99.4806 L 58.5625,101.586 L 61.2656,96.7579 L 57.7031,92.484 L 63.0937,93.6798 L 66,88.91 L 66,88.918 z "
       id="path26" />
    <path
       style="fill:#ffff00;stroke:none"
       d="M 17.4336,116.234 L 19.2461,121.52 L 24.7656,121.52 L 20.3672,124.922 L 21.9648,130.223 L 17.4336,127.063 L 12.9023,130.223 L 14.5,124.922 L 10.1016,121.52 L 15.6211,121.52 L 17.4336,116.234"
       id="path28" />
    <path
       style="fill:none;stroke:#000000;stroke-width:0.21427301"
       d="M 17.4297,116.234 L 19.2422,121.52 L 24.7617,121.52 L 20.3633,124.922 L 21.9609,130.223 L 17.4297,127.059 L 12.8984,130.223 L 14.4961,124.922 L 10.0977,121.52 L 15.6172,121.52 L 17.4297,116.234"
       id="path30" />
    <path
       style="fill:#ffff00;stroke:none"
       d="M 13.207,61.625 L 17.5547,65.125 L 22.2227,62.172 L 20.3125,67.402 L 24.4844,71.027 L 18.9688,70.781 L 16.8203,75.883 L 15.3516,70.547 L 9.82031,70.027 L 14.4883,67.074 L 13.207,61.633"
       id="path32" />
    <path
       style="fill:none;stroke:#000000;stroke-width:0.21427301"
       d="M 13.207,61.625 L 17.5547,65.125 L 22.2227,62.172 L 20.3125,67.402 L 24.4844,71.027 L 18.9688,70.781 L 16.8203,75.883 L 15.3516,70.547 L 9.82031,70.027 L 14.4883,67.074 L 13.2109,61.633 L 13.207,61.625 z "
       id="path34" />
    <path
       style="fill:#ffff00;stroke:none"
       d="M 31.6797,103.234 L 29.9023,112.492 L 32.3398,113.527 L 34.8047,112.457 L 32.9766,103.25 L 36.9648,101.594 L 42.2266,109.395 L 44.6797,108.402 L 45.6641,105.898 L 37.875,100.629 L 39.7773,95.9845 L 49.0078,97.7657 L 50.0391,95.3243 L 48.9727,92.8517 L 39.793,94.6876 L 38.1406,90.688 L 45.918,85.41 L 44.9297,82.949 L 42.4297,81.961 L 37.2227,89.758 L 32.6133,87.844 L 34.4297,78.633 L 31.9648,77.563 L 29.5312,78.598 L 31.3086,87.848 L 27.3203,89.5 L 22.125,81.692 L 19.625,82.68 L 18.6367,85.141 L 26.4219,90.426 L 24.4961,95.0626 L 15.2734,93.2657 L 14.207,95.7384 L 15.2383,98.1798 L 24.4609,96.3985 L 26.1094,100.398 L 18.3242,105.609 L 19.3086,108.113 L 21.7617,109.106 L 27.0312,101.301 L 31.6797,103.234"
       id="path36" />
    <path
       style="fill:none;stroke:#000000;stroke-width:0.21427301"
       d="M 31.6797,103.234 L 29.9023,112.492 L 32.3398,113.527 L 34.8047,112.457 L 32.9727,103.25 L 36.9609,101.594 L 42.2227,109.395 L 44.6758,108.402 L 45.6602,105.898 L 37.8711,100.633 L 39.7773,95.9884 L 49.0078,97.7696 L 50.0391,95.3282 L 48.9727,92.8556 L 39.793,94.6915 L 38.1406,90.692 L 45.918,85.414 L 44.9297,82.953 L 42.4297,81.965 L 37.2227,89.762 L 32.6133,87.848 L 34.4297,78.637 L 31.9648,77.566 L 29.5273,78.602 L 31.3047,87.852 L 27.3125,89.508 L 22.1172,81.699 L 19.6172,82.688 L 18.625,85.149 L 26.4102,90.434 L 24.4844,95.0665 L 15.2617,93.2696 L 14.1953,95.7423 L 15.2305,98.1837 L 24.4531,96.4024 L 26.1016,100.402 L 18.3164,105.613 L 19.3008,108.117 L 21.7539,109.109 L 27.0234,101.305 L 31.6758,103.238 L 31.6797,103.234 z "
       id="path38" />
    <path
       style="fill:#ffff00;stroke:none"
       d="M 32.3984,87.828 L 33.4844,78.199 L 31.9688,77.543 L 30.4688,78.18 L 31.5586,87.828 L 32.3984,87.828"
       id="path40" />
    <path
       style="fill:none;stroke:#000000;stroke-width:0.21427301"
       d="M 32.3984,87.828 L 33.4805,78.203 L 31.9648,77.547 L 30.4687,78.184 L 31.5586,87.832 L 32.3984,87.832 L 32.3984,87.828 z "
       id="path42" />
    <path
       style="fill:#ffff00;stroke:none"
       d="M 27.1797,89.637 L 21.1602,82.063 L 19.625,82.672 L 19.0156,84.184 L 26.5898,90.231 L 27.1836,89.637"
       id="path44" />
    <path
       style="fill:none;stroke:#000000;stroke-width:0.21427301"
       d="M 27.1797,89.633 L 21.1602,82.059 L 19.625,82.668 L 19.0156,84.18 L 26.5898,90.227 L 27.1836,89.633 L 27.1797,89.633 z "
       id="path46" />
    <path
       style="fill:#ffff00;stroke:none"
       d="M 24.4492,95.2931 L 14.8516,94.2071 L 14.1953,95.7267 L 14.832,97.2306 L 24.4531,96.1368 L 24.4531,95.297"
       id="path48" />
    <path
       style="fill:none;stroke:#000000;stroke-width:0.21427301"
       d="M 24.4492,95.2931 L 14.8516,94.2071 L 14.1953,95.7267 L 14.832,97.2306 L 24.4531,96.1368 L 24.4531,95.297 L 24.4492,95.2931 z "
       id="path50" />
    <path
       style="fill:#ffff00;stroke:none"
       d="M 26.25,100.527 L 18.6953,106.563 L 19.3008,108.106 L 20.8086,108.715 L 26.8398,101.121 L 26.2461,100.527"
       id="path52" />
    <path
       style="fill:none;stroke:#000000;stroke-width:0.21427301"
       d="M 26.25,100.527 L 18.6953,106.563 L 19.3008,108.106 L 20.8086,108.715 L 26.8398,101.121 L 26.2461,100.527 L 26.25,100.527 z "
       id="path54" />
    <path
       style="fill:#ffff00;stroke:none"
       d="M 37.375,89.902 L 43.3945,82.328 L 44.9297,82.934 L 45.5391,84.449 L 37.9648,90.496 L 37.3711,89.902"
       id="path56" />
    <path
       style="fill:none;stroke:#000000;stroke-width:0.21427301"
       d="M 37.375,89.902 L 43.3945,82.328 L 44.9297,82.938 L 45.5391,84.449 L 37.9648,90.496 L 37.3711,89.902 L 37.375,89.902 z "
       id="path58" />
    <path
       style="fill:#ffff00;stroke:none"
       d="M 39.793,94.879 L 49.3906,93.7931 L 50.0469,95.3126 L 49.4102,96.8165 L 39.7891,95.7228 L 39.7891,94.8829"
       id="path60" />
    <path
       style="fill:none;stroke:#000000;stroke-width:0.21427301"
       d="M 39.793,94.879 L 49.3906,93.7931 L 50.0469,95.3126 L 49.4102,96.8165 L 39.7891,95.7228 L 39.7891,94.8829 L 39.793,94.879 z "
       id="path62" />
    <path
       style="fill:#ffff00;stroke:none"
       d="M 37.7344,100.816 L 45.2891,106.852 L 44.6836,108.395 L 43.1758,109.004 L 37.1445,101.41 L 37.7383,100.816"
       id="path64" />
    <path
       style="fill:none;stroke:#000000;stroke-width:0.21427301"
       d="M 37.7344,100.816 L 45.2891,106.852 L 44.6836,108.391 L 43.1758,109 L 37.1445,101.406 L 37.7383,100.813 L 37.7344,100.816 z "
       id="path66" />
    <path
       style="fill:#ffff00;stroke:none"
       d="M 32.7695,103.242 L 33.8555,112.871 L 32.3398,113.527 L 30.8398,112.891 L 31.9297,103.242 L 32.7695,103.242"
       id="path68" />
    <path
       style="fill:none;stroke:#000000;stroke-width:0.21427301"
       d="M 32.7695,103.238 L 33.8516,112.863 L 32.3359,113.52 L 30.8398,112.883 L 31.9297,103.234 L 32.7695,103.234 L 32.7695,103.238 z "
       id="path70" />
  </g>
</svg>
