<?xml version="1.0" encoding="UTF-8" standalone="no"?>
<svg
   xmlns:dc="http://purl.org/dc/elements/1.1/"
   xmlns:cc="http://web.resource.org/cc/"
   xmlns:rdf="http://www.w3.org/1999/02/22-rdf-syntax-ns#"
   xmlns:svg="http://www.w3.org/2000/svg"
   xmlns="http://www.w3.org/2000/svg"
   xmlns:sodipodi="http://inkscape.sourceforge.net/DTD/sodipodi-0.dtd"
   xmlns:inkscape="http://www.inkscape.org/namespaces/inkscape"
   width="141.39999pt"
   height="70pt"
   id="svg2"
   sodipodi:version="0.32"
   inkscape:version="0.43"
   sodipodi:docname="tajikistan1.svg"
   sodipodi:docbase="/home/demailly/eps"
   version="1.0">
  <metadata
     id="metadata89">
    <rdf:RDF>
      <cc:Work
         rdf:about="">
        <dc:format>image/svg+xml</dc:format>
        <dc:type
           rdf:resource="http://purl.org/dc/dcmitype/StillImage" />
      </cc:Work>
    </rdf:RDF>
  </metadata>
  <sodipodi:namedview
     inkscape:cy="43.090192"
     inkscape:cx="98.448258"
     inkscape:zoom="6.9465337"
     inkscape:window-height="972"
     inkscape:window-width="1721"
     inkscape:pageshadow="2"
     inkscape:pageopacity="0.0"
     borderopacity="1.0"
     bordercolor="#666666"
     pagecolor="#ffffff"
     id="base"
     inkscape:window-x="576"
     inkscape:window-y="71"
     inkscape:current-layer="svg2" />
  <defs
     id="defs4">
    <marker
       id="ArrowEnd"
       viewBox="0 0 10 10"
       refX="0"
       refY="5"
       markerUnits="strokeWidth"
       markerWidth="4"
       markerHeight="3"
       orient="auto">
      <path
         d="M 0,0 L 10,5 L 0,10 L 0,0 z "
         id="path7" />
    </marker>
    <marker
       id="ArrowStart"
       viewBox="0 0 10 10"
       refX="10"
       refY="5"
       markerUnits="strokeWidth"
       markerWidth="4"
       markerHeight="3"
       orient="auto">
      <path
         d="M 10,0 L 0,5 L 10,10 L 10,0 z "
         id="path10" />
    </marker>
  </defs>
  <g
     id="g2351"
     transform="translate(-8.349488,-52.97606)">
    <path
       style="fill:#ffffff;stroke:none"
       d="M 8.504,139.578 L 184.25,139.578 L 184.25,53.183 L 8.504,53.183 L 8.504,139.578 z "
       id="path16" />
    <path
       style="fill:#ff0000;stroke:none"
       d="M 8.504,81.515 L 184.25,81.515 L 184.25,53.179 L 8.504,53.179 L 8.504,81.515 z "
       id="path18" />
    <path
       style="fill:#239f40;fill-opacity:1;stroke:none"
       d="M 8.504,139.578 L 184.25,139.578 L 184.25,111.242 L 8.504,111.242 L 8.504,139.578 z "
       id="path20" />
    <path
       style="fill:#ffff00;stroke:none"
       d="M 85.109,99.195 L 85.426,100.125 L 86.394,100.125 L 85.621,100.722 L 85.902,101.652 L 85.105,101.097 L 84.308,101.652 L 84.59,100.722 L 83.816,100.125 L 84.785,100.125 L 85.101,99.195"
       id="path22" />
    <path
       style="fill:none;stroke:#000000;stroke-width:0.210071"
       d="M 85.109,99.195 L 85.426,100.125 L 86.394,100.125 L 85.621,100.722 L 85.902,101.652 L 85.105,101.097 L 84.308,101.652 L 84.59,100.722 L 83.816,100.125 L 84.785,100.125 L 85.101,99.195 L 85.109,99.195 z "
       id="path24" />
    <path
       style="fill:#ffff00;stroke:none"
       d="M 97.558,105.14 L 98.476,105.14 C 98.09,105.593 97.371,105.91 96.539,105.91 C 95.707,105.91 94.972,105.601 94.59,105.14 L 95.476,105.14 L 96.523,103.824 L 97.554,105.14"
       id="path26" />
    <path
       style="fill:none;stroke:#000000;stroke-width:0.210071"
       d="M 97.558,105.14 L 98.476,105.14 C 98.09,105.593 97.367,105.91 96.539,105.91 C 95.707,105.91 94.972,105.601 94.586,105.14 L 95.476,105.14 L 96.523,103.824 L 97.554,105.14 L 97.558,105.14 z "
       id="path28" />
    <path
       style="fill:#ffff00;stroke:none"
       d="M 91.269,105.785 L 92.18,105.675 C 91.851,106.175 91.176,106.574 90.351,106.679 C 89.523,106.781 88.762,106.566 88.32,106.156 L 89.203,106.05 L 90.082,104.613 L 91.265,105.793"
       id="path30" />
    <path
       style="fill:none;stroke:#000000;stroke-width:0.210071"
       d="M 91.273,105.789 L 92.183,105.679 C 91.855,106.175 91.18,106.578 90.355,106.679 C 89.527,106.781 88.765,106.566 88.324,106.156 L 89.207,106.05 L 90.082,104.613 L 91.265,105.797 L 91.273,105.789 z "
       id="path32" />
    <path
       style="fill:#ffff00;stroke:none"
       d="M 88.222,85.386 L 88.539,86.316 L 89.508,86.316 L 88.734,86.914 L 89.015,87.843 L 88.219,87.289 L 87.422,87.843 L 87.703,86.914 L 86.93,86.316 L 87.898,86.316 L 88.215,85.386"
       id="path34" />
    <path
       style="fill:none;stroke:#000000;stroke-width:0.210071"
       d="M 88.222,85.386 L 88.539,86.316 L 89.508,86.316 L 88.734,86.914 L 89.015,87.843 L 88.219,87.289 L 87.422,87.843 L 87.703,86.914 L 86.93,86.316 L 87.898,86.316 L 88.215,85.386 L 88.222,85.386 z "
       id="path36" />
    <path
       style="fill:#ffff00;stroke:none"
       d="M 84.269,91.632 L 84.586,92.562 L 85.554,92.562 L 84.781,93.16 L 85.062,94.09 L 84.265,93.535 L 83.469,94.09 L 83.75,93.16 L 82.976,92.562 L 83.945,92.562 L 84.262,91.632"
       id="path38" />
    <path
       style="fill:none;stroke:#000000;stroke-width:0.210071"
       d="M 84.269,91.632 L 84.586,92.562 L 85.554,92.562 L 84.781,93.16 L 85.062,94.09 L 84.265,93.535 L 83.469,94.09 L 83.75,93.16 L 82.976,92.562 L 83.945,92.562 L 84.262,91.632 L 84.269,91.632 z "
       id="path40" />
    <path
       style="fill:#ffff00;stroke:none"
       d="M 96.004,83.105 L 96.32,84.035 L 97.289,84.035 L 96.515,84.632 L 96.797,85.562 L 96,85.008 L 95.203,85.562 L 95.484,84.632 L 94.711,84.035 L 95.68,84.035 L 95.996,83.105"
       id="path42" />
    <path
       style="fill:none;stroke:#000000;stroke-width:0.210071"
       d="M 96.004,83.105 L 96.32,84.035 L 97.289,84.035 L 96.515,84.632 L 96.797,85.562 L 96,85.008 L 95.203,85.562 L 95.484,84.632 L 94.711,84.035 L 95.68,84.035 L 95.996,83.105 L 96.004,83.105 z "
       id="path44" />
    <path
       style="fill:#ffff00;stroke:none"
       d="M 89.336,101.625 C 88.902,102.367 88.015,103.258 86.828,103.668 C 85.617,104.082 84.387,103.898 83.586,103.554 C 84.176,104.48 85.758,105.269 87.195,104.777 C 88.605,104.293 89.394,102.703 89.336,101.629"
       id="path46" />
    <path
       style="fill:none;stroke:#000000;stroke-width:0.210071"
       d="M 89.336,101.625 C 88.902,102.367 88.015,103.258 86.828,103.668 C 85.621,104.082 84.387,103.898 83.582,103.554 C 84.172,104.476 85.754,105.269 87.191,104.777 C 88.601,104.293 89.39,102.703 89.332,101.629 L 89.336,101.625 z "
       id="path48" />
    <path
       style="fill:#ffff00;stroke:none"
       d="M 96.43,94.105 C 95.781,94.668 96.734,101.683 93.969,102.797 C 93.363,103.039 92.39,103.222 91.297,102.918 C 90.519,102.715 89.719,101.863 89.43,101.601 C 89.535,104.32 92.539,104.246 93.91,103.711 C 96.887,102.554 96.14,95.14 96.43,94.105"
       id="path50" />
    <path
       style="fill:none;stroke:#000000;stroke-width:0.210071"
       d="M 96.43,94.105 C 95.781,94.668 96.734,101.687 93.969,102.797 C 93.363,103.039 92.39,103.222 91.297,102.918 C 90.519,102.715 89.719,101.863 89.43,101.601 C 89.535,104.32 92.539,104.246 93.91,103.711 C 96.887,102.554 96.14,95.14 96.43,94.105 z "
       id="path52" />
    <path
       style="fill:#ffff00;stroke:none"
       d="M 103.492,101.625 C 103.926,102.367 104.812,103.258 106,103.668 C 107.211,104.082 108.441,103.898 109.246,103.554 C 108.656,104.48 107.074,105.269 105.637,104.777 C 104.226,104.293 103.437,102.703 103.496,101.629"
       id="path54" />
    <path
       style="fill:none;stroke:#000000;stroke-width:0.210071"
       d="M 103.492,101.625 C 103.926,102.367 104.812,103.258 106,103.668 C 107.211,104.082 108.441,103.898 109.246,103.554 C 108.656,104.476 107.074,105.269 105.637,104.777 C 104.226,104.293 103.437,102.703 103.496,101.629 L 103.492,101.625 z "
       id="path56" />
    <path
       style="fill:#ffff00;stroke:none;stroke-opacity:1"
       d="M 96.367,94.777 C 96.367,90.457 100.613,91.164 100.613,91.164 C 100.613,88.82 98.773,86.8 96.437,86.8 C 94.101,86.8 92.207,88.699 92.207,91.043 C 92.207,91.043 96.367,90.457 96.367,94.777"
       id="path58" />
    <path
       style="fill:none;stroke:#000000;stroke-width:0.210071"
       d="M 96.367,94.777 C 96.367,90.457 100.613,91.164 100.613,91.164 C 100.613,88.82 98.773,86.804 96.437,86.804 C 94.101,86.804 92.207,88.703 92.207,91.047 C 92.207,91.047 96.367,90.461 96.367,94.781 L 96.367,94.777 z "
       id="path60" />
    <path
       style="fill:#ffff00;stroke:none"
       d="M 107.539,99.187 L 107.222,100.117 L 106.254,100.117 L 107.027,100.715 L 106.746,101.644 L 107.543,101.09 L 108.34,101.644 L 108.058,100.715 L 108.832,100.117 L 107.863,100.117 L 107.547,99.187"
       id="path62" />
    <path
       style="fill:none;stroke:#000000;stroke-width:0.210071"
       d="M 107.539,99.187 L 107.222,100.117 L 106.254,100.117 L 107.027,100.715 L 106.746,101.644 L 107.543,101.09 L 108.34,101.644 L 108.058,100.715 L 108.832,100.117 L 107.863,100.117 L 107.547,99.187 L 107.539,99.187 z "
       id="path64" />
    <path
       style="fill:#ffff00;stroke:none"
       d="M 103.828,85.386 L 103.512,86.316 L 102.543,86.316 L 103.316,86.914 L 103.039,87.843 L 103.836,87.289 L 104.633,87.843 L 104.355,86.914 L 105.129,86.316 L 104.16,86.316 L 103.844,85.386"
       id="path66" />
    <path
       style="fill:none;stroke:#000000;stroke-width:0.210071"
       d="M 103.828,85.386 L 103.512,86.316 L 102.543,86.316 L 103.316,86.914 L 103.035,87.843 L 103.832,87.289 L 104.629,87.843 L 104.347,86.914 L 105.121,86.316 L 104.152,86.316 L 103.836,85.386 L 103.828,85.386 z "
       id="path68" />
    <path
       style="fill:#ffff00;stroke:none"
       d="M 107.777,91.632 L 107.461,92.562 L 106.492,92.562 L 107.265,93.16 L 106.984,94.09 L 107.781,93.535 L 108.578,94.09 L 108.297,93.16 L 109.07,92.562 L 108.101,92.562 L 107.785,91.632"
       id="path70" />
    <path
       style="fill:none;stroke:#000000;stroke-width:0.210071"
       d="M 107.777,91.632 L 107.461,92.562 L 106.492,92.562 L 107.265,93.16 L 106.984,94.09 L 107.781,93.535 L 108.578,94.09 L 108.297,93.16 L 109.07,92.562 L 108.101,92.562 L 107.785,91.632 L 107.777,91.632 z "
       id="path72" />
    <path
       style="fill:#ffff00;stroke:none"
       d="M 103.945,109.101 C 102.258,108.269 99.594,107.73 96.594,107.73 C 93.711,107.73 91.133,108.226 89.437,109.008 L 88.996,108.281 C 90.66,107.363 93.457,106.765 96.629,106.765 C 99.887,106.765 102.75,107.398 104.398,108.359 L 103.953,109.097"
       id="path74" />
    <path
       style="fill:none;stroke:#000000;stroke-width:0.210071"
       d="M 103.945,109.101 C 102.258,108.269 99.59,107.73 96.594,107.73 C 93.711,107.73 91.133,108.226 89.437,109.008 L 88.996,108.281 C 90.66,107.367 93.457,106.765 96.629,106.765 C 99.883,106.765 102.75,107.398 104.398,108.359 L 103.953,109.097 L 103.945,109.101 z "
       id="path76" />
    <path
       style="fill:#ffff00;stroke:none"
       d="M 102.336,105.691 L 101.426,105.582 C 101.754,106.082 102.43,106.48 103.254,106.586 C 104.082,106.687 104.844,106.472 105.285,106.062 L 104.402,105.957 L 103.523,104.519 L 102.34,105.699"
       id="path78" />
    <path
       style="fill:none;stroke:#000000;stroke-width:0.210071"
       d="M 102.336,105.695 L 101.426,105.586 C 101.754,106.086 102.43,106.484 103.254,106.59 C 104.082,106.691 104.844,106.476 105.285,106.066 L 104.402,105.961 L 103.527,104.523 L 102.344,105.703 L 102.336,105.695 z "
       id="path80" />
    <path
       style="fill:#ffff00;stroke:none"
       d="M 96.367,94.105 C 97.015,94.668 96.062,101.683 98.828,102.797 C 99.433,103.039 100.406,103.222 101.5,102.918 C 102.277,102.715 103.078,101.863 103.367,101.601 C 103.262,104.32 100.258,104.246 98.887,103.711 C 95.91,102.554 96.656,95.14 96.367,94.105"
       id="path82" />
    <path
       style="fill:none;stroke:#000000;stroke-width:0.210071"
       d="M 96.367,94.105 C 97.015,94.668 96.062,101.687 98.828,102.797 C 99.433,103.039 100.406,103.222 101.5,102.918 C 102.277,102.715 103.078,101.863 103.367,101.601 C 103.262,104.32 100.258,104.246 98.887,103.711 C 95.91,102.554 96.656,95.14 96.367,94.105 z "
       id="path84" />
    <path
       style="fill:none;stroke:#000000;stroke-width:0"
       d="M 8.50801,139.578 L 184.254,139.578 L 184.254,53.183 L 8.50801,53.183 L 8.50801,139.578 z "
       id="path86" />
  </g>
</svg>
