<?xml version="1.0" encoding="UTF-8" standalone="no"?>
<svg
   xmlns:dc="http://purl.org/dc/elements/1.1/"
   xmlns:cc="http://web.resource.org/cc/"
   xmlns:rdf="http://www.w3.org/1999/02/22-rdf-syntax-ns#"
   xmlns:svg="http://www.w3.org/2000/svg"
   xmlns="http://www.w3.org/2000/svg"
   xmlns:sodipodi="http://inkscape.sourceforge.net/DTD/sodipodi-0.dtd"
   xmlns:inkscape="http://www.inkscape.org/namespaces/inkscape"
   width="704pt"
   height="437pt"
   id="svg2"
   sodipodi:version="0.32"
   inkscape:version="0.43"
   sodipodi:docname="turkmenistan3.svg"
   sodipodi:docbase="flags/src"
   version="1.0">
  <metadata
     id="metadata369">
    <rdf:RDF>
      <cc:Work
         rdf:about="">
        <dc:format>image/svg+xml</dc:format>
        <dc:type
           rdf:resource="http://purl.org/dc/dcmitype/StillImage" />
      </cc:Work>
    </rdf:RDF>
  </metadata>
  <sodipodi:namedview
     inkscape:cy="41.638135"
     inkscape:cx="417.5831"
     inkscape:zoom="0.70710678"
     inkscape:window-height="1109"
     inkscape:window-width="988"
     inkscape:pageshadow="2"
     inkscape:pageopacity="0.0"
     borderopacity="1.0"
     bordercolor="#666666"
     pagecolor="#ffffff"
     id="base"
     inkscape:window-x="175"
     inkscape:window-y="35"
     inkscape:current-layer="svg2" />
  <defs
     id="defs4">
    <marker
       id="ArrowEnd"
       viewBox="0 0 10 10"
       refX="0"
       refY="5"
       markerUnits="strokeWidth"
       markerWidth="4"
       markerHeight="3"
       orient="auto">
      <path
         d="M 0,0 L 10,5 L 0,10 L 0,0 z "
         id="path7" />
    </marker>
    <marker
       id="ArrowStart"
       viewBox="0 0 10 10"
       refX="10"
       refY="5"
       markerUnits="strokeWidth"
       markerWidth="4"
       markerHeight="3"
       orient="auto">
      <path
         d="M 10,0 L 0,5 L 10,10 L 10,0 z "
         id="path10" />
    </marker>
  </defs>
  <g
     id="g1845"
     transform="matrix(5,0,0,5,-43.97524,-210.5063)">
    <path
       style="fill:#11a000;stroke:none;fill-opacity:1"
       d="M 8.50391,150.688 L 184.25,150.688 L 184.25,42.07 L 8.50391,42.07 L 8.50391,150.688 z "
       id="path16" />
    <path
       style="fill:none;stroke:#000000;stroke-width:0"
       d="M 8.50391,150.688 L 184.25,150.688 L 184.25,42.0696 L 8.50391,42.0696 L 8.50391,150.688 z "
       id="path18" />
    <path
       style="fill:#cf0648;stroke:none;fill-opacity:1"
       d="M 22.4062,150.504 L 68.9336,150.504 L 68.9336,42.258 L 22.4062,42.258 L 22.4062,150.504 z "
       id="path20" />
    <path
       style="fill:#ffffff;stroke:none"
       d="M 79.6875,72.199 C 82.1914,75.129 85.7344,76.785 89.8828,76.848 C 97.3945,76.789 103.488,70.676 103.414,63.086 C 103.484,57.828 100.461,53.477 95.9961,51.184 C 97.957,53.563 99.1094,56.574 99.1484,59.926 C 99.1133,67.387 93.0234,73.496 85.4297,73.5 C 83.4258,73.5 81.4531,73.031 79.6836,72.199"
       id="path22" />
    <path
       style="fill:#ffffff;stroke:none"
       d="M 83.7656,59.363 L 81.9141,59.363 L 81.5469,57.879 L 80.9922,59.363 L 79.1406,59.363 L 80.6211,60.477 L 80.0664,62.149 L 81.5508,61.035 L 82.8477,62.149 L 82.293,60.477 L 83.7734,59.363"
       id="path24" />
    <path
       style="fill:#ffffff;stroke:none"
       d="M 78.0234,60.668 L 76.5391,61.598 L 75.2422,60.484 L 75.6094,62.156 L 73.9414,63.086 L 75.793,63.27 L 76.1602,64.938 L 76.7148,63.27 L 78.5664,63.453 L 77.2695,62.34 L 78.0078,60.668"
       id="path26" />
    <path
       style="fill:#ffffff;stroke:none"
       d="M 82.8398,64.203 L 81.7305,65.504 L 80.25,64.945 L 81.1758,66.25 L 80.0625,67.551 L 81.7305,67.18 L 82.6562,68.852 L 82.6562,66.992 L 84.5078,66.621 L 82.8398,65.883 L 82.8398,64.211"
       id="path28" />
    <path
       style="fill:#ffffff;stroke:none"
       d="M 81.543,51.367 L 80.4297,52.668 L 78.9492,52.113 L 79.875,53.414 L 78.7656,54.715 L 80.4336,54.344 L 81.3594,55.832 L 81.3594,54.16 L 83.2109,53.789 L 81.543,53.047 L 81.543,51.375"
       id="path30" />
    <path
       style="fill:#ffffff;stroke:none"
       d="M 88.7734,51.926 L 87.4766,53.039 L 85.9922,51.926 L 86.5508,53.598 L 85.0664,54.527 L 86.918,54.527 L 87.2852,56.383 L 88.0234,54.711 L 89.6914,54.711 L 88.2109,53.598 L 88.7656,51.926"
       id="path32" />
    <path
       style="fill:#f98211;stroke:none"
       d="M 35.7539,66.809 L 31.8633,63.649 L 31.1211,64.578 L 30.7539,64.207 L 31.4922,63.465 L 29.2695,61.793 L 30.0117,61.238 L 27.9727,59.566 L 27.9727,60.305 L 28.8984,61.234 L 28.3438,61.789 L 30.5664,63.461 L 30.3828,63.832 L 27.9766,61.973 L 27.9766,63.277 L 28.7148,63.277 L 29.082,63.645 L 29.082,64.574 L 30.75,65.688 L 32.7852,65.688 L 31.6758,64.945 L 32.043,64.578 L 34.8242,66.809 L 32.043,68.852 L 31.6758,68.481 L 32.7852,67.738 L 30.75,67.738 L 29.082,69.039 L 29.082,69.781 L 28.7148,70.152 L 27.9766,70.152 L 27.9766,71.453 L 30.3828,69.594 L 30.5664,69.965 L 28.3438,71.637 L 28.8984,72.195 L 27.9727,73.125 L 27.9727,73.867 L 30.0117,72.195 L 29.2695,71.637 L 31.4922,69.965 L 30.7539,69.227 L 31.1211,68.856 L 31.8633,69.781 L 35.7539,66.809"
       id="path34" />
    <path
       style="fill:#f98211;stroke:none"
       d="M 31.3047,66.809 L 28.707,64.762 L 27.9688,64.945 L 27.9688,68.481 L 28.707,68.664 L 31.3047,66.809"
       id="path36" />
    <path
       style="fill:none;stroke:#f98211;stroke-width:0.65495402"
       d="M 49.1016,63.457 L 50.3984,62.344 L 53.3633,62.344 L 54.6562,61.043 L 54.6562,59.559 L 56.3242,57.699 L 56.3242,53.797 L 54.6562,52.125 L 54.6562,50.641 L 53.3633,49.152 L 50.3984,49.152 L 49.1016,48.039 L 41.875,48.039 L 40.582,49.152 L 37.8008,49.152 L 36.3203,50.641 L 36.3203,52.125 L 34.6523,53.797 L 34.6523,57.699 L 36.3203,59.559 L 36.3203,61.043 L 37.8008,62.344 L 40.582,62.344 L 41.875,63.457 L 49.1016,63.457"
       id="path38" />
    <path
       style="fill:#ffffff;stroke:none"
       d="M 35.9375,55.461 L 35.5703,55.461 L 35.5703,54.348 L 37.4219,52.492 L 37.2383,51.004 L 38.1641,50.266 L 41.1289,50.266 L 42.4258,48.965 L 45.207,48.965 L 45.207,49.703 L 42.4258,49.703 L 44.0938,51.004 L 44.4609,50.266 L 45.1992,50.266 L 45.1992,51.75 L 44.4609,52.492 L 43.5352,51.75 L 42.9805,51.195 L 41.8711,51.008 L 42.2383,52.121 L 43.1641,52.305 L 43.9062,52.859 L 43.5391,53.414 L 41.1289,51.742 L 40.5742,50.816 L 39.4648,50.816 L 39.832,51.742 L 40.7578,52.113 L 43.168,53.785 L 42.6094,54.34 L 41.6836,53.602 L 41.3164,53.043 L 40.0195,52.859 L 40.5742,53.973 L 41.3125,54.156 L 42.2422,54.711 L 41.5,55.453 L 36.8672,55.453 L 36.8672,54.711 L 38.1641,54.711 L 38.1641,53.973 L 36.4961,53.973 L 35.9414,54.711 L 35.9414,55.453"
       id="path40" />
    <path
       style="fill:#f98211;stroke:none"
       d="M 35.9375,56.203 L 35.5703,56.203 L 35.5703,57.316 L 37.4219,58.988 L 37.2383,60.477 L 38.1641,61.402 L 41.1289,61.402 L 42.4258,62.516 L 45.207,62.516 L 45.207,61.957 L 42.4258,61.957 L 44.0938,60.656 L 44.4609,61.215 L 45.1992,61.215 L 45.1992,59.727 L 44.4609,58.984 L 43.5352,59.727 L 42.9805,60.469 L 41.8711,60.469 L 42.2383,59.539 L 43.1641,59.168 L 43.9062,58.613 L 43.5391,58.055 L 41.1289,59.914 L 40.5742,60.652 L 39.4648,60.84 L 39.832,59.727 L 40.7578,59.543 L 43.168,57.684 L 42.6094,57.129 L 41.6836,57.871 L 41.3164,58.613 L 40.0195,58.797 L 40.5742,57.496 L 41.3125,57.309 L 42.2422,56.754 L 41.5,56.199 L 36.8672,56.199 L 36.8672,56.754 L 38.1641,56.754 L 38.1641,57.496 L 36.4961,57.496 L 35.9414,56.942 L 35.9414,56.199"
       id="path42" />
    <path
       style="fill:#f98211;stroke:none"
       d="M 55.0312,55.461 L 55.3984,55.461 L 55.3984,54.348 L 53.7305,52.492 L 53.7305,51.004 L 52.8047,50.266 L 49.8398,50.266 L 48.7266,48.965 L 45.9492,48.965 L 45.9492,49.703 L 48.7266,49.703 L 46.875,51.004 L 46.5078,50.266 L 45.7695,50.266 L 45.7695,51.75 L 46.5078,52.492 L 47.6172,51.75 L 47.9844,51.195 L 49.0938,51.008 L 48.7266,52.121 L 47.9883,52.305 L 47.0625,52.859 L 47.4297,53.414 L 49.8398,51.742 L 50.3945,50.816 L 51.5039,50.816 L 51.1367,51.742 L 50.2109,52.113 L 47.9844,53.785 L 48.3516,54.34 L 49.2773,53.602 L 49.6445,53.043 L 50.9414,52.859 L 50.5742,53.973 L 49.6484,54.156 L 48.9062,54.711 L 49.4609,55.453 L 54.2773,55.453 L 54.2773,54.711 L 52.7969,54.711 L 52.7969,53.973 L 54.4648,53.973 L 55.0195,54.711 L 55.0195,55.453"
       id="path44" />
    <path
       style="fill:#ffffff;stroke:none"
       d="M 55.0312,56.203 L 55.3984,56.203 L 55.3984,57.316 L 53.7305,58.988 L 53.7305,60.477 L 52.8047,61.402 L 49.8398,61.402 L 48.7266,62.516 L 45.9492,62.516 L 45.9492,61.957 L 48.7266,61.957 L 46.875,60.656 L 46.5078,61.215 L 45.7695,61.215 L 45.7695,59.727 L 46.5078,58.984 L 47.6172,59.727 L 47.9844,60.469 L 49.0938,60.469 L 48.7266,59.539 L 47.9883,59.168 L 47.0625,58.613 L 47.4297,58.055 L 49.8398,59.914 L 50.3945,60.652 L 51.5039,60.84 L 51.1367,59.727 L 50.2109,59.543 L 47.9844,57.684 L 48.3516,57.129 L 49.2773,57.871 L 49.6445,58.613 L 50.9414,58.797 L 50.5742,57.496 L 49.6484,57.309 L 48.9062,56.754 L 49.4609,56.199 L 54.2773,56.199 L 54.2773,56.754 L 52.7969,56.754 L 52.7969,57.496 L 54.4648,57.496 L 55.0195,56.942 L 55.0195,56.199"
       id="path46" />
    <path
       style="fill:#ffffff;stroke:none"
       d="M 45.5781,55.832 L 43.7266,55.832 L 45.5781,53.977 L 45.5781,55.832"
       id="path48" />
    <path
       style="fill:#ffffff;stroke:none"
       d="M 45.5781,55.832 L 45.5781,57.688 L 47.4297,55.832 L 45.5781,55.832"
       id="path50" />
    <path
       style="fill:#f98211;stroke:none"
       d="M 35.0078,95.8243 L 36.6758,94.336 L 37.418,94.8907 L 36.3086,95.8204 L 38.5312,95.8204 L 38.5312,93.7735 L 34.4531,93.7735 L 34.4531,95.8204 L 35.0078,95.8204"
       id="path52" />
    <path
       style="fill:#f98211;stroke:none"
       d="M 37.2383,92.66 L 39.0898,92.66 L 39.0898,91.918 L 37.2383,91.918 L 37.2383,92.66 z "
       id="path54" />
    <path
       style="fill:#f98211;stroke:none"
       d="M 45.3906,88.754 L 43.168,88.754 L 39.832,90.609 L 39.832,92.8399 L 41.3125,92.8399 L 45.3906,90.426 L 45.3906,88.754"
       id="path56" />
    <path
       style="fill:#ffffff;stroke:none"
       d="M 35.0078,96.5665 L 36.6758,98.2384 L 37.418,97.4962 L 36.3086,96.5704 L 38.5312,96.5704 L 38.5312,98.6134 L 34.4531,98.6134 L 34.4531,96.5704 L 35.0078,96.5704"
       id="path58" />
    <path
       style="fill:#ffffff;stroke:none"
       d="M 37.2383,100.656 L 39.0898,100.656 L 39.0898,99.7306 L 37.2383,99.7306 L 37.2383,100.656 z "
       id="path60" />
    <path
       style="fill:#ffffff;stroke:none"
       d="M 56.6992,95.8243 L 54.8477,94.336 L 54.1094,94.8907 L 55.2188,95.8204 L 52.9961,95.8204 L 52.9961,93.7735 L 57.2578,93.7735 L 57.2578,95.8204 L 56.7031,95.8204"
       id="path62" />
    <path
       style="fill:#ffffff;stroke:none"
       d="M 52.6211,92.66 L 54.4766,92.66 L 54.4766,91.918 L 52.6211,91.918 L 52.6211,92.66 z "
       id="path64" />
    <path
       style="fill:none;stroke:#f98211;stroke-width:0.65495402"
       d="M 48.9141,87.637 L 54.1055,90.609 L 55.7734,90.609 L 55.7734,92.8399 L 58.1797,92.8399 L 58.1797,99.5352 L 55.7734,99.5352 L 55.7734,101.953 L 54.1055,101.953 L 48.9141,104.742 L 42.8008,104.742 L 37.6133,101.953 L 35.7578,101.953 L 35.7578,99.5352 L 33.5352,99.5352 L 33.5352,92.8399 L 35.7578,92.8399 L 35.7578,90.609 L 37.6133,90.609 L 42.8008,87.637 L 48.9141,87.637"
       id="path66" />
    <path
       style="fill:#f98211;stroke:none"
       d="M 56.6992,96.5665 L 54.8477,98.2384 L 54.1094,97.4962 L 55.2188,96.5704 L 52.9961,96.5704 L 52.9961,98.6134 L 57.2578,98.6134 L 57.2578,96.5704 L 56.7031,96.5704"
       id="path68" />
    <path
       style="fill:#f98211;stroke:none"
       d="M 52.6211,100.656 L 54.4766,100.656 L 54.4766,99.7306 L 52.6211,99.7306 L 52.6211,100.656 z "
       id="path70" />
    <path
       style="fill:#f98211;stroke:none"
       d="M 46.1328,103.633 L 48.543,103.633 L 51.6914,101.777 L 51.6914,99.547 L 50.2109,99.547 L 46.1328,101.965 L 46.1328,103.637"
       id="path72" />
    <path
       style="fill:#f98211;stroke:none"
       d="M 39.832,96.1915 L 39.832,98.6095 L 41.8672,98.6095 L 45.7578,101.027 L 45.7578,96.1915 L 39.8281,96.1915"
       id="path74" />
    <path
       style="fill:#f98211;stroke:none"
       d="M 51.6953,96.1915 L 51.6953,93.7774 L 49.8438,93.7774 L 45.7656,91.359 L 45.7656,96.1915 L 51.6953,96.1915"
       id="path76" />
    <path
       style="fill:#ffffff;stroke:none"
       d="M 41.3125,101.773 L 41.3125,99.5431 L 39.832,99.5431 L 39.832,101.773 L 43.168,103.629 L 43.168,102.512 L 44.0938,102.512 L 44.0938,103.629 L 45.3906,103.629 L 45.3906,101.957 L 43.7227,101.027 L 41.3125,101.77"
       id="path78" />
    <path
       style="fill:#ffffff;stroke:none"
       d="M 42.9805,100.656 L 41.8711,99.9142 L 41.8711,101.027 L 42.9805,100.656"
       id="path80" />
    <path
       style="fill:#ffffff;stroke:none"
       d="M 50.2148,90.613 L 50.2148,92.8438 L 51.6953,92.8438 L 51.6953,90.613 L 48.5469,88.758 L 48.5469,89.871 L 47.6211,89.871 L 47.6211,88.758 L 46.1406,88.758 L 46.1406,90.43 L 47.9922,91.543 L 50.2188,90.617"
       id="path82" />
    <path
       style="fill:#ffffff;stroke:none"
       d="M 48.7305,91.914 L 49.6562,92.473 L 49.6562,91.359 L 48.7305,91.914"
       id="path84" />
    <path
       style="fill:#ffffff;stroke:none"
       d="M 41.5,95.0782 L 42.4258,96.1915 L 44.0938,96.1915 L 45.7617,95.0782 L 45.7617,94.5196 L 44.6484,93.2188 L 43.168,94.1485 L 43.7227,94.7032 L 44.2773,94.3321 L 44.6445,94.8868 L 43.3477,95.629 L 42.4219,94.5157 L 41.4961,95.0743"
       id="path86" />
    <path
       style="fill:#ffffff;stroke:none"
       d="M 41.5,97.3087 L 42.4258,96.1954 L 44.0938,96.1954 L 45.7617,97.3087 L 45.7617,97.8634 L 44.6484,99.1642 L 43.168,98.4259 L 43.7227,97.6837 L 44.2773,98.0548 L 44.6445,97.6837 L 43.3477,96.7579 L 42.4219,97.8712 L 41.4961,97.3165"
       id="path88" />
    <path
       style="fill:#ffffff;stroke:none"
       d="M 50.0273,97.3087 L 49.1016,96.1954 L 47.6211,96.1954 L 45.7695,97.3087 L 45.7695,97.8634 L 47.0664,99.1642 L 48.3633,98.4259 L 47.8086,97.6837 L 47.4414,98.0548 L 47.0742,97.6837 L 48.3711,96.7579 L 49.2969,97.8712 L 50.0391,97.3165"
       id="path90" />
    <path
       style="fill:#ffffff;stroke:none"
       d="M 50.0273,95.0782 L 49.1016,96.1915 L 47.6211,96.1915 L 45.7695,95.0782 L 45.7695,94.5196 L 47.0664,93.2188 L 48.3633,94.1485 L 47.8086,94.7032 L 47.4414,94.3321 L 47.0742,94.8868 L 48.3711,95.629 L 49.2969,94.5157 L 50.0391,95.0743"
       id="path92" />
    <path
       style="fill:#f98211;stroke:none"
       d="M 34.8242,135.254 L 34.8242,131.352 L 38.1602,128.563 L 45.5742,128.563 L 45.5742,132.281 L 43.7227,132.281 L 40.3867,134.324 L 40.3867,135.254 L 34.8281,135.254"
       id="path94" />
    <path
       style="fill:#ffffff;stroke:none"
       d="M 36.3086,131.16 L 37.7891,129.859 L 37.7891,131.16 L 36.3086,131.16"
       id="path96" />
    <path
       style="fill:#cf068b;stroke:none"
       d="M 35.5664,134.324 L 36.1211,134.324 L 36.1211,131.906 L 35.5664,131.906 L 35.5664,134.324 z "
       id="path98" />
    <path
       style="fill:#cf068b;stroke:none"
       d="M 37.793,134.324 L 38.3477,134.324 L 38.3477,131.906 L 37.793,131.906 L 37.793,134.324 z "
       id="path100" />
    <path
       style="fill:#cf068b;stroke:none"
       d="M 35.75,133.391 L 38.1602,133.391 L 38.1602,132.836 L 35.75,132.836 L 35.75,133.391 z "
       id="path102" />
    <path
       style="fill:#cf068b;stroke:none"
       d="M 39.2773,131.531 L 39.6445,131.531 L 39.6445,129.113 L 39.2773,129.113 L 39.2773,131.531 z "
       id="path104" />
    <path
       style="fill:#cf068b;stroke:none"
       d="M 41.5,131.531 L 42.0547,131.531 L 42.0547,129.113 L 41.5,129.113 L 41.5,131.531 z "
       id="path106" />
    <path
       style="fill:#cf068b;stroke:none"
       d="M 39.4609,130.414 L 41.8711,130.414 L 41.8711,130.043 L 39.4609,130.043 L 39.4609,130.414 z "
       id="path108" />
    <path
       style="fill:#ffffff;stroke:none"
       d="M 48.9141,128.555 L 53.5469,128.555 L 56.6992,131.344 L 56.6992,135.246 L 51.1406,135.246 L 51.1406,134.316 L 47.8047,132.273 L 46.1367,132.273 L 46.1367,128.555 L 47.0625,128.555 L 47.6172,129.297 L 48.9141,128.555"
       id="path110" />
    <path
       style="fill:#ffffff;stroke:none"
       d="M 42.7969,142.504 L 38.1641,142.504 L 34.8281,139.715 L 34.8281,135.813 L 40.3867,135.813 L 40.3867,136.738 L 43.7227,138.781 L 45.5742,138.781 L 45.5742,142.5 L 44.4609,142.5 L 43.9062,141.758 L 42.793,142.5"
       id="path112" />
    <path
       style="fill:#f98211;stroke:none"
       d="M 55.4023,131.16 L 53.9219,129.859 L 53.9219,131.16 L 55.4023,131.16"
       id="path114" />
    <path
       style="fill:#cf068b;stroke:none"
       d="M 55.5859,134.324 L 56.1406,134.324 L 56.1406,131.906 L 55.5859,131.906 L 55.5859,134.324 z "
       id="path116" />
    <path
       style="fill:#cf068b;stroke:none"
       d="M 53.3633,134.324 L 53.7344,134.324 L 53.7344,131.906 L 53.3633,131.906 L 53.3633,134.324 z "
       id="path118" />
    <path
       style="fill:#cf068b;stroke:none"
       d="M 53.5469,133.391 L 55.957,133.391 L 55.957,132.836 L 53.5469,132.836 L 53.5469,133.391 z "
       id="path120" />
    <path
       style="fill:#cf068b;stroke:none"
       d="M 51.8789,131.531 L 52.4336,131.531 L 52.4336,129.113 L 51.8789,129.113 L 51.8789,131.531 z "
       id="path122" />
    <path
       style="fill:#cf068b;stroke:none"
       d="M 49.6562,131.531 L 50.0273,131.531 L 50.0273,129.113 L 49.6562,129.113 L 49.6562,131.531 z "
       id="path124" />
    <path
       style="fill:#cf068b;stroke:none"
       d="M 49.8438,130.414 L 52.25,130.414 L 52.25,130.043 L 49.8438,130.043 L 49.8438,130.414 z "
       id="path126" />
    <path
       style="fill:none;stroke:#f98211;stroke-width:0.65495402"
       d="M 33.7109,140.273 L 37.418,143.621 L 54.1016,143.621 L 57.8086,140.273 L 57.8086,130.789 L 54.1016,127.441 L 37.418,127.441 L 33.7109,130.789 L 33.7109,140.273"
       id="path128" />
    <path
       style="fill:#f98211;stroke:none"
       d="M 56.6992,135.809 L 56.6992,139.711 L 53.5469,142.5 L 46.1367,142.5 L 46.1367,138.781 L 47.8047,138.781 L 51.1406,136.738 L 51.1406,135.813 L 56.6992,135.813"
       id="path130" />
    <path
       style="fill:#f98211;stroke:none"
       d="M 47.4336,137.856 L 50.2148,136.367 L 50.2148,134.695 L 47.4336,133.211 L 44.0977,133.211 L 41.3164,134.695 L 41.3164,136.367 L 44.0977,137.856 L 47.4336,137.856"
       id="path132" />
    <path
       style="fill:#ffffff;stroke:none"
       d="M 55.4023,139.902 L 53.9219,141.203 L 53.9219,139.902 L 55.4023,139.902"
       id="path134" />
    <path
       style="fill:#cf068b;stroke:none"
       d="M 55.5859,139.156 L 56.1406,139.156 L 56.1406,136.738 L 55.5859,136.738 L 55.5859,139.156 z "
       id="path136" />
    <path
       style="fill:#cf068b;stroke:none"
       d="M 53.3633,139.156 L 53.7344,139.156 L 53.7344,136.738 L 53.3633,136.738 L 53.3633,139.156 z "
       id="path138" />
    <path
       style="fill:#cf068b;stroke:none"
       d="M 53.5469,138.231 L 55.957,138.231 L 55.957,137.676 L 53.5469,137.676 L 53.5469,138.231 z "
       id="path140" />
    <path
       style="fill:#cf068b;stroke:none"
       d="M 51.8789,141.949 L 52.4336,141.949 L 52.4336,139.719 L 51.8789,139.719 L 51.8789,141.949 z "
       id="path142" />
    <path
       style="fill:#cf068b;stroke:none"
       d="M 49.6562,141.949 L 50.0273,141.949 L 50.0273,139.719 L 49.6562,139.719 L 49.6562,141.949 z "
       id="path144" />
    <path
       style="fill:#cf068b;stroke:none"
       d="M 49.8438,141.016 L 52.25,141.016 L 52.25,140.648 L 49.8438,140.648 L 49.8438,141.016 z "
       id="path146" />
    <path
       style="fill:none;stroke:#cf068b;stroke-width:0.54688102"
       d="M 43.168,134.324 L 43.9102,135.066 L 45.7617,133.953 L 45.7617,133.027"
       id="path148" />
    <path
       style="fill:none;stroke:#cf068b;stroke-width:0.54688102"
       d="M 43.168,136.738 L 43.9102,135.996 L 45.7617,137.109 L 45.7617,138.035"
       id="path150" />
    <path
       style="fill:none;stroke:#cf068b;stroke-width:0.54688102"
       d="M 48.3594,134.324 L 47.6211,135.066 L 45.7695,133.953 L 45.7695,133.027"
       id="path152" />
    <path
       style="fill:none;stroke:#cf068b;stroke-width:0.54688102"
       d="M 48.3594,136.738 L 47.6211,135.996 L 45.7695,137.109 L 45.7695,138.035"
       id="path154" />
    <path
       style="fill:#f98211;stroke:none"
       d="M 36.3086,139.902 L 37.7891,141.203 L 37.7891,139.902 L 36.3086,139.902"
       id="path156" />
    <path
       style="fill:#cf068b;stroke:none"
       d="M 35.5664,139.156 L 36.1211,139.156 L 36.1211,136.738 L 35.5664,136.738 L 35.5664,139.156 z "
       id="path158" />
    <path
       style="fill:#cf068b;stroke:none"
       d="M 37.793,139.156 L 38.3477,139.156 L 38.3477,136.738 L 37.793,136.738 L 37.793,139.156 z "
       id="path160" />
    <path
       style="fill:#cf068b;stroke:none"
       d="M 35.75,138.231 L 38.1602,138.231 L 38.1602,137.676 L 35.75,137.676 L 35.75,138.231 z "
       id="path162" />
    <path
       style="fill:#cf068b;stroke:none"
       d="M 39.2773,141.949 L 39.6445,141.949 L 39.6445,139.719 L 39.2773,139.719 L 39.2773,141.949 z "
       id="path164" />
    <path
       style="fill:#cf068b;stroke:none"
       d="M 41.5,141.949 L 42.0547,141.949 L 42.0547,139.719 L 41.5,139.719 L 41.5,141.949 z "
       id="path166" />
    <path
       style="fill:#cf068b;stroke:none"
       d="M 39.4609,141.016 L 41.8711,141.016 L 41.8711,140.648 L 39.4609,140.648 L 39.4609,141.016 z "
       id="path168" />
    <path
       style="fill:#f98211;stroke:none"
       d="M 45.9492,105.863 L 46.6875,106.977 L 47.9844,106.606 L 47.9844,106.977 L 48.7227,106.977 L 48.7227,109.395 L 56.3203,109.395 L 56.3203,110.695 L 57.0586,112.738 L 57.8008,112.738 L 57.8008,113.664 L 58.9102,113.664 L 58.9102,114.594 L 60.5781,116.078 L 58.9102,117.566 L 58.9102,118.492 L 57.8008,118.492 L 57.8008,119.422 L 57.0586,119.422 L 56.3203,121.465 L 56.3203,122.766 L 48.7227,122.766 L 48.7227,125.184 L 47.9844,125.184 L 47.9844,125.555 L 46.6875,125.184 L 45.9492,126.109 L 45.0234,125.184 L 43.9141,125.555 L 43.9141,125.184 L 42.9844,125.184 L 42.9844,122.766 L 35.3867,122.766 L 35.3867,121.465 L 34.6484,119.422 L 33.9102,119.422 L 33.9102,118.492 L 32.9844,118.492 L 32.9844,117.566 L 31.1328,116.078 L 32.9844,114.594 L 32.9844,113.664 L 33.9102,113.664 L 33.9102,112.738 L 34.6484,112.738 L 35.3867,110.695 L 35.3867,109.395 L 42.9844,109.395 L 42.9844,106.977 L 43.9141,106.977 L 43.9141,106.606 L 45.0234,106.977 L 45.9492,105.863"
       id="path170" />
    <path
       style="fill:#ffffff;stroke:none"
       d="M 55.5898,110.141 L 55.5898,111.254 L 54.4805,110.141 L 55.5898,110.141"
       id="path172" />
    <path
       style="fill:#ffffff;stroke:none"
       d="M 47.6172,110.516 L 47.6172,108.66 L 46.8789,109.215 L 46.8789,108.473 L 46.5117,108.473 L 45.957,107.547 L 45.2188,108.473 L 44.8516,108.473 L 44.8516,109.215 L 44.1133,108.66 L 44.1133,110.516 L 47.6328,110.516"
       id="path174" />
    <path
       style="fill:none;stroke:#cf068b;stroke-width:0.43879899"
       d="M 47.6172,110.516 L 47.6172,108.66 L 46.8789,109.215 L 46.8789,108.473 L 46.5078,108.473 L 45.9531,107.547 L 45.2148,108.473 L 44.8438,108.473 L 44.8438,109.215 L 44.1055,108.66 L 44.1055,110.516 L 47.625,110.516 L 47.6172,110.516 z "
       id="path176" />
    <path
       style="fill:#ffffff;stroke:none"
       d="M 55.5898,117.582 L 56.6992,117.582 L 58.7383,116.094 L 56.6992,114.426 L 55.5898,114.426 L 55.5898,117.586"
       id="path178" />
    <path
       style="fill:none;stroke:#cf068b;stroke-width:0.43879899"
       d="M 55.5859,117.582 L 56.6953,117.582 L 58.7344,116.094 L 56.6953,114.426 L 55.5859,114.426 L 55.5859,117.586 L 55.5859,117.582 z "
       id="path180" />
    <path
       style="fill:#ffffff;stroke:none"
       d="M 55.5898,122.047 L 55.5898,120.742 L 54.4805,122.047 L 55.5898,122.047"
       id="path182" />
    <path
       style="fill:#ffffff;stroke:none"
       d="M 36.125,117.582 L 35.0117,117.582 L 32.9766,116.094 L 35.0117,114.426 L 36.125,114.426 L 36.125,117.586"
       id="path184" />
    <path
       style="fill:none;stroke:#cf068b;stroke-width:0.43879899"
       d="M 36.1211,117.582 L 35.0078,117.582 L 32.9727,116.094 L 35.0078,114.426 L 36.1211,114.426 L 36.1211,117.586 L 36.1211,117.582 z "
       id="path186" />
    <path
       style="fill:#ffffff;stroke:none"
       d="M 36.125,122.047 L 36.125,120.742 L 37.2344,122.047 L 36.125,122.047"
       id="path188" />
    <path
       style="fill:#ffffff;stroke:none"
       d="M 44.0938,121.676 L 44.0938,123.531 L 44.832,122.789 L 44.832,123.719 L 45.1992,123.719 L 45.7539,124.457 L 46.4922,123.719 L 46.8594,123.719 L 46.8594,122.789 L 47.5977,123.531 L 47.5977,121.676 L 44.0781,121.676"
       id="path190" />
    <path
       style="fill:none;stroke:#cf068b;stroke-width:0.43879899"
       d="M 44.0938,121.676 L 44.0938,123.531 L 44.832,122.789 L 44.832,123.719 L 45.2031,123.719 L 45.7578,124.461 L 46.4961,123.719 L 46.8672,123.719 L 46.8672,122.789 L 47.6055,123.531 L 47.6055,121.676 L 44.0859,121.676 L 44.0938,121.676 z "
       id="path192" />
    <path
       style="fill:#f98211;stroke:none"
       d="M 45.9492,121.488 L 38.5391,121.488 L 36.1289,118.887 L 36.1289,113.121 L 38.5391,110.52 L 53.1836,110.52 L 55.5898,113.121 L 55.5898,118.887 L 53.1836,121.488 L 45.9531,121.488"
       id="path194" />
    <path
       style="fill:none;stroke:#cf068b;stroke-width:0.43879899"
       d="M 45.9492,121.488 L 38.5391,121.488 L 36.1289,118.887 L 36.1289,113.121 L 38.5391,110.52 L 53.1836,110.52 L 55.5898,113.121 L 55.5898,118.887 L 53.1836,121.488 L 45.9531,121.488 L 45.9492,121.488 z "
       id="path196" />
    <path
       style="fill:#ffffff;stroke:none"
       d="M 36.125,110.141 L 36.125,111.254 L 37.2344,110.141 L 36.125,110.141"
       id="path198" />
    <path
       style="fill:#cf0648;stroke:none;fill-opacity:1"
       d="M 45.9492,120.188 L 39.2773,120.188 L 37.6094,118.332 L 37.6094,113.684 L 39.2773,112.012 L 52.4375,112.012 L 54.1055,113.684 L 54.1055,118.332 L 52.4375,120.188 L 45.9492,120.188"
       id="path200" />
    <path
       style="fill:#ffffff;stroke:none"
       d="M 42.4258,112.188 L 41.6836,113.301 L 40.7578,112.188 L 42.4258,112.188"
       id="path202" />
    <path
       style="fill:#f98211;stroke:none"
       d="M 44.6484,112.188 L 43.9102,113.301 L 43.168,112.188 L 44.6484,112.188"
       id="path204" />
    <path
       style="fill:#ffffff;stroke:none"
       d="M 37.9766,114.981 L 38.9023,115.723 L 37.9766,116.648 L 37.9766,114.977"
       id="path206" />
    <path
       style="fill:#f98211;stroke:none"
       d="M 39.2773,112.559 L 39.6445,113.859 L 38.1641,113.676 L 39.2734,112.563"
       id="path208" />
    <path
       style="fill:#ffffff;stroke:none"
       d="M 49.2852,112.188 L 50.2148,113.301 L 50.9531,112.188 L 49.2852,112.188"
       id="path210" />
    <path
       style="fill:#f98211;stroke:none"
       d="M 47.0625,112.188 L 47.9883,113.301 L 48.7266,112.188 L 47.0586,112.188"
       id="path212" />
    <path
       style="fill:#f98211;stroke:none"
       d="M 52.4375,112.559 L 52.2539,113.859 L 53.5508,113.676 L 52.4414,112.563"
       id="path214" />
    <path
       style="fill:#ffffff;stroke:none"
       d="M 49.2852,119.813 L 50.2148,118.887 L 50.9531,119.813 L 49.2852,119.813"
       id="path216" />
    <path
       style="fill:#f98211;stroke:none"
       d="M 47.0625,119.813 L 47.9883,118.887 L 48.7266,119.813 L 47.0586,119.813"
       id="path218" />
    <path
       style="fill:#f98211;stroke:none"
       d="M 52.4375,119.629 L 52.2539,118.328 L 53.5508,118.512 L 52.4414,119.625"
       id="path220" />
    <path
       style="fill:#ffffff;stroke:none"
       d="M 42.4258,119.813 L 41.6836,118.887 L 40.7578,119.813 L 42.4258,119.813"
       id="path222" />
    <path
       style="fill:#f98211;stroke:none"
       d="M 44.6484,119.813 L 43.9102,118.887 L 43.168,119.813 L 44.6484,119.813"
       id="path224" />
    <path
       style="fill:#f98211;stroke:none"
       d="M 39.2773,119.629 L 39.6445,118.328 L 38.1641,118.512 L 39.2734,119.625"
       id="path226" />
    <path
       style="fill:#ffffff;stroke:none"
       d="M 45.207,112.188 L 45.9453,113.301 L 46.8711,112.188 L 45.2031,112.188"
       id="path228" />
    <path
       style="fill:#ffffff;stroke:none"
       d="M 45.207,119.813 L 45.9453,118.887 L 46.8711,119.813 L 45.2031,119.813"
       id="path230" />
    <path
       style="fill:#ffffff;stroke:none"
       d="M 53.918,114.981 L 52.8086,115.723 L 53.918,116.648 L 53.918,114.977"
       id="path232" />
    <path
       style="fill:#f98211;stroke:none"
       d="M 40.2031,118.328 L 45.9453,118.328 L 45.9453,116.094 L 40.2031,116.094 L 40.2031,118.328 z "
       id="path234" />
    <path
       style="fill:#f98211;stroke:none"
       d="M 45.9492,116.094 L 51.6953,116.094 L 51.6953,113.68 L 45.9492,113.68 L 45.9492,116.094 z "
       id="path236" />
    <path
       style="fill:#ffffff;stroke:none"
       d="M 45.207,115.723 L 45.5742,115.164 L 44.832,114.609 L 45.1992,114.055 L 45.9375,114.609 L 45.9375,116.094 L 42.0469,116.094 L 41.3047,115.168 L 42.6016,114.055 L 43.1602,114.609 L 42.4219,115.164 L 42.7891,115.723 L 45.1992,115.723"
       id="path238" />
    <path
       style="fill:#ffffff;stroke:none"
       d="M 46.5039,115.723 L 46.1367,115.164 L 46.875,114.609 L 46.5078,114.055 L 45.9531,114.609 L 45.9531,116.094 L 49.6602,116.094 L 50.3984,115.168 L 49.1016,114.055 L 48.7344,114.609 L 49.2891,115.164 L 48.9219,115.723 L 46.5156,115.723"
       id="path240" />
    <path
       style="fill:#ffffff;stroke:none"
       d="M 46.5039,116.465 L 46.1367,116.836 L 46.875,117.578 L 46.5078,118.133 L 45.9531,117.578 L 45.9531,116.09 L 49.6602,116.09 L 50.3984,117.02 L 49.1016,118.133 L 48.7344,117.578 L 49.2891,116.836 L 48.9219,116.465 L 46.5156,116.465"
       id="path242" />
    <path
       style="fill:#ffffff;stroke:none"
       d="M 45.207,116.465 L 45.5742,116.836 L 44.832,117.578 L 45.1992,118.133 L 45.9375,117.578 L 45.9375,116.09 L 42.0469,116.09 L 41.3047,117.02 L 42.6016,118.133 L 43.1602,117.578 L 42.4219,116.836 L 42.7891,116.465 L 45.1992,116.465"
       id="path244" />
    <path
       style="fill:#ffffff;stroke:none"
       d="M 45.207,68.109 L 45.7617,68.852 L 46.3164,68.109 L 45.207,68.109"
       id="path246" />
    <path
       style="fill:none;stroke:#cf068b;stroke-width:0.43879899"
       d="M 45.207,68.109 L 45.7617,68.852 L 46.3164,68.109 L 45.207,68.109"
       id="path248" />
    <path
       style="fill:#f98211;stroke:none"
       d="M 45.7617,64.574 L 44.8359,66.059 L 43.9102,65.504 L 43.9102,69.223 L 40.7578,69.223 L 40.7578,70.707 L 38.1641,70.707 L 38.1641,72.75 L 34.6445,72.75 L 34.6445,74.234 L 32.7891,74.234 L 33.9023,75.539 L 32.7891,76.84 L 34.6445,76.84 L 34.6445,78.141 L 38.1641,78.141 L 38.1641,80.184 L 40.7578,80.184 L 40.7578,81.856 L 43.9102,81.856 L 43.9102,85.387 L 44.8359,84.832 L 45.7617,86.316 L 46.6875,84.832 L 47.4297,85.387 L 47.4297,81.856 L 50.5781,81.856 L 50.5781,80.184 L 53.3594,80.184 L 53.3594,78.141 L 56.8789,78.141 L 56.8789,76.84 L 58.5469,76.84 L 57.6211,75.539 L 58.5469,74.234 L 56.8789,74.234 L 56.8789,72.75 L 53.3594,72.75 L 53.3594,70.707 L 50.5781,70.707 L 50.5781,69.223 L 47.4297,69.223 L 47.4297,65.504 L 46.6875,66.059 L 45.7617,64.574"
       id="path250" />
    <path
       style="fill:#ffffff;stroke:none"
       d="M 45.9492,72.574 L 45.9492,70.531 L 46.5039,70.531 L 46.5039,67.184 L 46.1367,67.367 L 45.7695,66.625 L 45.4023,67.367 L 44.8477,67.184 L 44.8477,70.531 L 45.4023,70.531 L 45.4023,72.574 L 45.957,72.574"
       id="path252" />
    <path
       style="fill:none;stroke:#cf068b;stroke-width:0.43879899"
       d="M 45.9492,72.574 L 45.9492,70.531 L 46.5039,70.531 L 46.5039,67.184 L 46.1328,67.367 L 45.7617,66.625 L 45.3906,67.367 L 44.8359,67.184 L 44.8359,70.531 L 45.3906,70.531 L 45.3906,72.574 L 45.9453,72.574 L 45.9492,72.574 z "
       id="path254" />
    <path
       style="fill:#ffffff;stroke:none"
       d="M 45.7617,84.289 L 45.3945,83.547 L 44.8398,83.918 L 44.8398,80.387 L 45.3945,80.387 L 45.3945,78.344 L 45.9492,78.344 L 45.9492,80.387 L 46.5039,80.387 L 46.5039,83.918 L 46.1367,83.547 L 45.7695,84.289"
       id="path256" />
    <path
       style="fill:none;stroke:#cf068b;stroke-width:0.43879899"
       d="M 45.7617,84.289 L 45.3906,83.547 L 44.8359,83.918 L 44.8359,80.387 L 45.3906,80.387 L 45.3906,78.344 L 45.9453,78.344 L 45.9453,80.387 L 46.5,80.387 L 46.5,83.918 L 46.1289,83.547 L 45.7578,84.289 L 45.7617,84.289 z "
       id="path258" />
    <path
       style="fill:#ffffff;stroke:none"
       d="M 34.6406,75.918 L 35.3789,75.918 L 35.3789,74.992 L 34.6406,74.992 L 34.6406,75.918 z "
       id="path260" />
    <path
       style="fill:#ffffff;stroke:none"
       d="M 39.2773,74.434 L 40.3867,74.434 L 40.3867,71.832 L 39.2773,71.832 L 39.2773,74.434 z "
       id="path262" />
    <path
       style="fill:#ffffff;stroke:none"
       d="M 50.9531,74.434 L 52.25,74.434 L 52.25,71.832 L 50.9531,71.832 L 50.9531,74.434 z "
       id="path264" />
    <path
       style="fill:#ffffff;stroke:none"
       d="M 50.9531,79.266 L 52.25,79.266 L 52.25,76.664 L 50.9531,76.664 L 50.9531,79.266 z "
       id="path266" />
    <path
       style="fill:#ffffff;stroke:none"
       d="M 39.2773,79.266 L 40.3867,79.266 L 40.3867,76.664 L 39.2773,76.664 L 39.2773,79.266 z "
       id="path268" />
    <path
       style="fill:#ffffff;stroke:none"
       d="M 55.957,75.918 L 56.8828,75.918 L 56.8828,74.992 L 55.957,74.992 L 55.957,75.918 z "
       id="path270" />
    <path
       style="fill:#ffffff;stroke:none"
       d="M 36.125,75.551 L 39.2773,75.551 L 39.2773,74.438 L 36.125,74.438 L 36.125,75.551 z "
       id="path272" />
    <path
       style="fill:#ffffff;stroke:none"
       d="M 52.25,75.551 L 55.2148,75.551 L 55.2148,74.438 L 52.25,74.438 L 52.25,75.551 z "
       id="path274" />
    <path
       style="fill:#ffffff;stroke:none"
       d="M 52.25,76.664 L 55.2148,76.664 L 55.2148,75.551 L 52.25,75.551 L 52.25,76.664 z "
       id="path276" />
    <path
       style="fill:#ffffff;stroke:none"
       d="M 36.125,76.664 L 39.2773,76.664 L 39.2773,75.551 L 36.125,75.551 L 36.125,76.664 z "
       id="path278" />
    <path
       style="fill:#cf068b;stroke:none"
       d="M 37.0508,75.734 L 39.2734,75.734 L 39.2734,75.363 L 37.0508,75.363 L 37.0508,75.734 z "
       id="path280" />
    <path
       style="fill:#cf068b;stroke:none"
       d="M 37.0508,75.551 L 39.2734,75.551 L 39.2734,75.18 L 37.0508,75.18 L 37.0508,75.551 z "
       id="path282" />
    <path
       style="fill:#cf068b;stroke:none"
       d="M 52.25,75.551 L 54.4766,75.551 L 54.4766,75.18 L 52.25,75.18 L 52.25,75.551 z "
       id="path284" />
    <path
       style="fill:#cf068b;stroke:none"
       d="M 52.25,75.734 L 54.4766,75.734 L 54.4766,75.363 L 52.25,75.363 L 52.25,75.734 z "
       id="path286" />
    <path
       style="fill:#cf068b;stroke:none"
       d="M 35.3789,75.551 L 36.1211,75.551 L 36.1211,73.692 L 35.3789,73.692 L 35.3789,75.551 z "
       id="path288" />
    <path
       style="fill:#cf068b;stroke:none"
       d="M 35.3789,74.434 L 36.8633,74.434 L 36.8633,73.692 L 35.3789,73.692 L 35.3789,74.434 z "
       id="path290" />
    <path
       style="fill:#cf068b;stroke:none"
       d="M 55.2148,75.551 L 55.957,75.551 L 55.957,73.692 L 55.2148,73.692 L 55.2148,75.551 z "
       id="path292" />
    <path
       style="fill:#cf068b;stroke:none"
       d="M 54.4766,74.434 L 55.957,74.434 L 55.957,73.692 L 54.4766,73.692 L 54.4766,74.434 z "
       id="path294" />
    <path
       style="fill:#cf068b;stroke:none"
       d="M 55.2148,77.223 L 55.957,77.223 L 55.957,75.551 L 55.2148,75.551 L 55.2148,77.223 z "
       id="path296" />
    <path
       style="fill:#cf068b;stroke:none"
       d="M 54.4766,77.223 L 55.957,77.223 L 55.957,76.664 L 54.4766,76.664 L 54.4766,77.223 z "
       id="path298" />
    <path
       style="fill:#cf068b;stroke:none"
       d="M 35.3789,77.223 L 36.1211,77.223 L 36.1211,75.551 L 35.3789,75.551 L 35.3789,77.223 z "
       id="path300" />
    <path
       style="fill:#cf068b;stroke:none"
       d="M 35.3789,77.223 L 36.8633,77.223 L 36.8633,76.664 L 35.3789,76.664 L 35.3789,77.223 z "
       id="path302" />
    <path
       style="fill:#cf068b;stroke:none"
       d="M 39.832,73.316 C 39.9922,73.328 40.1055,73.211 40.1992,73.133 C 40.1055,72.926 39.9922,72.809 39.832,72.762 C 39.707,72.805 39.5938,72.922 39.6484,73.133 C 39.5938,73.211 39.707,73.328 39.832,73.316"
       id="path304" />
    <path
       style="fill:#cf068b;stroke:none"
       d="M 51.6953,73.316 C 51.4844,73.328 51.3672,73.211 51.3281,73.133 C 51.3672,72.926 51.4844,72.809 51.6953,72.762 C 51.7734,72.805 51.8906,72.922 51.8789,73.133 C 51.8906,73.211 51.7773,73.328 51.6953,73.316"
       id="path306" />
    <path
       style="fill:#cf068b;stroke:none"
       d="M 51.6953,77.594 C 51.4844,77.629 51.3672,77.75 51.3281,77.965 C 51.3672,78.035 51.4844,78.152 51.6953,78.149 C 51.7734,78.149 51.8906,78.035 51.8789,77.961 C 51.8906,77.746 51.7773,77.629 51.6953,77.59"
       id="path308" />
    <path
       style="fill:#cf068b;stroke:none"
       d="M 39.832,77.594 C 39.9922,77.629 40.1055,77.75 40.1992,77.965 C 40.1055,78.035 39.9922,78.152 39.832,78.149 C 39.707,78.149 39.5938,78.035 39.6484,77.961 C 39.5938,77.746 39.707,77.629 39.832,77.59"
       id="path310" />
    <path
       style="fill:#cf068b;stroke:none"
       d="M 41.8711,72.942 L 43.5391,72.942 L 43.5391,69.969 L 41.8711,69.969 L 41.8711,72.942 z "
       id="path312" />
    <path
       style="fill:#cf068b;stroke:none"
       d="M 47.9883,72.942 L 49.6562,72.942 L 49.6562,69.969 L 47.9883,69.969 L 47.9883,72.942 z "
       id="path314" />
    <path
       style="fill:#cf068b;stroke:none"
       d="M 47.9883,80.942 L 49.6562,80.942 L 49.6562,77.969 L 47.9883,77.969 L 47.9883,80.942 z "
       id="path316" />
    <path
       style="fill:#cf068b;stroke:none"
       d="M 41.8711,80.942 L 43.5391,80.942 L 43.5391,77.969 L 41.8711,77.969 L 41.8711,80.942 z "
       id="path318" />
    <path
       style="fill:#f98211;stroke:none"
       d="M 42.2422,70.527 L 42.7969,71.453 L 43.3516,70.527 L 42.2422,70.527"
       id="path320" />
    <path
       style="fill:#f98211;stroke:none"
       d="M 49.2852,70.527 L 48.7305,71.453 L 48.1758,70.527 L 49.2852,70.527"
       id="path322" />
    <path
       style="fill:#f98211;stroke:none"
       d="M 49.2852,80.383 L 48.7305,79.641 L 48.1758,80.383 L 49.2852,80.383"
       id="path324" />
    <path
       style="fill:#f98211;stroke:none"
       d="M 42.2422,80.383 L 42.7969,79.641 L 43.3516,80.383 L 42.2422,80.383"
       id="path326" />
    <path
       style="fill:#f98211;stroke:none"
       d="M 45.7617,79.082 L 43.168,79.082 L 40.7578,76.293 L 39.6484,76.293 L 39.6484,74.621 L 40.7578,74.621 L 43.168,71.836 L 48.3555,71.836 L 50.7656,74.621 L 51.875,74.621 L 51.875,76.293 L 50.7656,76.293 L 48.3555,79.082 L 45.7617,79.082"
       id="path328" />
    <path
       style="fill:none;stroke:#cf068b;stroke-width:0.65495402"
       d="M 45.7617,79.082 L 43.168,79.082 L 40.7578,76.293 L 39.6484,76.293 L 39.6484,74.621 L 40.7578,74.621 L 43.168,71.836 L 48.3555,71.836 L 50.7656,74.621 L 51.875,74.621 L 51.875,76.293 L 50.7656,76.293 L 48.3555,79.082 L 45.7617,79.082"
       id="path330" />
    <path
       style="fill:#cf068b;stroke:none"
       d="M 45.7617,73.129 L 43.7266,73.129 L 42.6133,74.43 L 42.6133,75.543 L 42.6133,75.356 L 42.6133,76.469 L 43.7266,77.953 L 47.6172,77.953 L 48.9141,76.469 L 48.9141,75.356 L 48.9141,75.539 L 48.9141,74.426 L 47.6172,73.125 L 45.7656,73.125"
       id="path332" />
    <path
       style="fill:#ffffff;stroke:none"
       d="M 44.0938,75.551 L 43.5391,76.664 L 43.1719,76.109 L 43.1719,74.809 L 43.5391,74.25 L 44.0938,75.363 L 44.0938,75.547"
       id="path334" />
    <path
       style="fill:#ffffff;stroke:none"
       d="M 47.4336,75.551 L 47.9883,76.664 L 48.3555,76.109 L 48.3555,74.809 L 47.9883,74.25 L 47.4336,75.363 L 47.4336,75.547"
       id="path336" />
    <path
       style="fill:#f98211;stroke:none"
       d="M 45.7617,77.035 L 45.9453,77.406 L 46.6836,77.406 L 46.1289,76.852 L 46.6836,76.852 L 47.2383,77.406 L 47.6055,77.035 L 46.8672,75.363 L 47.6055,73.692 L 47.2383,73.508 L 46.6836,74.063 L 46.1289,74.063 L 46.6836,73.508 L 45.9453,73.508 L 45.7617,73.879 L 45.3945,73.508 L 44.8398,73.508 L 45.3945,74.063 L 44.8398,74.063 L 44.2852,73.508 L 43.918,73.692 L 44.6562,75.363 L 43.918,77.035 L 44.2852,77.406 L 44.8398,76.852 L 45.3945,76.852 L 44.8398,77.406 L 45.3945,77.406 L 45.7617,77.035"
       id="path338" />
    <path
       style="fill:#ffffff;stroke:none"
       d="M 46.3164,75.359 L 45.7617,74.805 L 45.207,75.359 L 45.7617,75.914 L 46.3164,75.359"
       id="path340" />
    <path
       style="fill:#f98211;stroke:none"
       d="M 35.7539,84.66 L 31.8633,81.688 L 31.1211,82.43 L 30.7539,82.242 L 31.4922,81.316 L 29.2695,79.645 L 30.0117,79.274 L 27.9727,77.602 L 27.9727,78.344 L 28.8984,79.086 L 28.3438,79.641 L 30.5664,81.5 L 30.3828,81.871 L 27.9766,80.012 L 27.9766,81.313 L 28.7148,81.313 L 29.082,81.684 L 29.082,82.426 L 30.75,83.727 L 32.7852,83.727 L 31.6758,82.984 L 32.043,82.43 L 34.8242,84.66 L 32.043,86.891 L 31.6758,86.336 L 32.7852,85.594 L 30.75,85.594 L 29.082,86.895 L 29.082,87.637 L 28.7148,88.008 L 27.9766,88.008 L 27.9766,89.496 L 30.3828,87.449 L 30.5664,87.82 L 28.3438,89.676 L 28.8984,90.231 L 27.9727,90.973 L 27.9727,91.902 L 30.0117,90.231 L 29.2695,89.676 L 31.4922,88.004 L 30.7539,87.078 L 31.1211,86.891 L 31.8633,87.633 L 35.7539,84.66"
       id="path342" />
    <path
       style="fill:#f98211;stroke:none"
       d="M 35.7539,105.863 L 31.8633,102.891 L 31.1211,103.633 L 30.7539,103.449 L 31.4922,102.52 L 29.2695,100.848 L 30.0117,100.293 L 27.9727,98.6212 L 27.9727,99.5509 L 28.8984,100.293 L 28.3438,100.848 L 30.5664,102.707 L 30.3828,103.078 L 27.9766,101.035 L 27.9766,102.52 L 28.7148,102.52 L 29.082,102.891 L 29.082,103.633 L 30.75,104.934 L 32.7852,104.934 L 31.6758,104.008 L 32.043,103.637 L 34.8242,105.867 L 32.043,108.098 L 31.6758,107.539 L 32.7852,106.797 L 30.75,106.797 L 29.082,108.102 L 29.082,108.84 L 28.7148,109.211 L 27.9766,109.211 L 27.9766,110.512 L 30.3828,108.656 L 30.5664,109.027 L 28.3438,110.883 L 28.8984,111.254 L 27.9727,112.18 L 27.9727,112.922 L 30.0117,111.25 L 29.2695,110.879 L 31.4922,109.207 L 30.7539,108.281 L 31.1211,108.098 L 31.8633,108.836 L 35.7539,105.863"
       id="path344" />
    <path
       style="fill:#f98211;stroke:none"
       d="M 35.7539,125.395 L 31.8633,122.422 L 31.1211,123.352 L 30.7539,122.981 L 31.4922,122.238 L 29.2695,120.566 L 30.0117,120.012 L 27.9727,118.34 L 27.9727,119.082 L 28.8984,120.008 L 28.3438,120.563 L 30.5664,122.234 L 30.3828,122.606 L 27.9766,120.746 L 27.9766,122.051 L 28.7148,122.051 L 29.082,122.418 L 29.082,123.16 L 30.75,124.461 L 32.7852,124.461 L 31.6758,123.723 L 32.043,123.352 L 34.8242,125.395 L 32.043,127.625 L 31.6758,127.254 L 32.7852,126.512 L 30.75,126.512 L 29.082,127.629 L 29.082,128.555 L 28.7148,128.926 L 27.9766,128.926 L 27.9766,130.227 L 30.3828,128.371 L 30.5664,128.738 L 28.3438,130.41 L 28.8984,130.969 L 27.9727,131.895 L 27.9727,132.637 L 30.0117,130.965 L 29.2695,130.406 L 31.4922,128.734 L 30.7539,127.996 L 31.1211,127.625 L 31.8633,128.551 L 35.7539,125.391"
       id="path346" />
    <path
       style="fill:#f98211;stroke:none"
       d="M 35.7539,147.156 L 31.8633,143.996 L 31.1211,144.926 L 30.7539,144.555 L 31.4922,143.813 L 29.2695,142.141 L 30.0117,141.586 L 27.9727,139.914 L 27.9727,140.656 L 28.8984,141.586 L 28.3438,142.141 L 30.5664,143.813 L 30.3828,144.184 L 27.9766,142.328 L 27.9766,143.629 L 28.7148,143.629 L 29.082,143.996 L 29.082,144.926 L 30.75,146.039 L 32.7852,146.039 L 31.6758,145.301 L 32.043,144.93 L 34.8242,147.16 L 35.75,147.16"
       id="path348" />
    <path
       style="fill:#f98211;stroke:none"
       d="M 34.8242,46.531 L 32.043,48.762 L 31.6758,48.391 L 32.7852,47.465 L 30.75,47.465 L 29.082,48.766 L 29.082,49.508 L 28.7148,49.879 L 27.9766,49.879 L 27.9766,51.363 L 30.3828,49.32 L 30.5664,49.688 L 28.3438,51.547 L 28.8984,52.102 L 27.9727,52.844 L 27.9727,53.77 L 30.0117,52.098 L 29.2695,51.543 L 31.4922,49.871 L 30.7539,48.942 L 31.1211,48.754 L 31.8633,49.496 L 35.7539,46.524 L 34.8281,46.524"
       id="path350" />
    <path
       style="fill:#f98211;stroke:none"
       d="M 55.2148,66.809 L 59.1094,63.649 L 59.8477,64.578 L 60.2148,64.207 L 59.4766,63.465 L 61.6992,61.793 L 60.9609,61.238 L 63.1836,59.566 L 63.1836,60.305 L 62.0742,61.234 L 62.6289,61.789 L 60.4062,63.461 L 60.7734,63.832 L 63.1797,61.973 L 63.1797,63.277 L 62.4414,63.277 L 61.8867,63.645 L 61.8867,64.574 L 60.2188,65.688 L 58.1836,65.688 L 59.293,64.945 L 58.9258,64.578 L 56.1484,66.809 L 58.9258,68.852 L 59.293,68.481 L 58.1836,67.738 L 60.2188,67.738 L 61.8867,69.039 L 61.8867,69.781 L 62.4414,70.152 L 63.1797,70.152 L 63.1797,71.453 L 60.7734,69.594 L 60.4062,69.965 L 62.6289,71.637 L 62.0742,72.195 L 63.1836,73.125 L 63.1836,73.867 L 60.9609,72.195 L 61.6992,71.637 L 59.4766,69.965 L 60.2148,69.227 L 59.8477,68.856 L 59.1094,69.781 L 55.2148,66.809"
       id="path352" />
    <path
       style="fill:#f98211;stroke:none"
       d="M 59.668,66.809 L 62.2617,64.762 L 63.1875,64.945 L 63.1875,68.481 L 62.2617,68.664 L 59.668,66.809"
       id="path354" />
    <path
       style="fill:#f98211;stroke:none"
       d="M 55.2148,84.66 L 59.1094,81.688 L 59.8477,82.43 L 60.2148,82.242 L 59.4766,81.316 L 61.6992,79.645 L 60.9609,79.274 L 63.1836,77.602 L 63.1836,78.344 L 62.0742,79.086 L 62.6289,79.641 L 60.4062,81.5 L 60.7734,81.871 L 63.1797,80.012 L 63.1797,81.313 L 62.4414,81.313 L 61.8867,81.684 L 61.8867,82.426 L 60.2188,83.727 L 58.1836,83.727 L 59.293,82.984 L 58.9258,82.43 L 56.1484,84.66 L 58.9258,86.891 L 59.293,86.336 L 58.1836,85.594 L 60.2188,85.594 L 61.8867,86.895 L 61.8867,87.637 L 62.4414,88.008 L 63.1797,88.008 L 63.1797,89.496 L 60.7734,87.449 L 60.4062,87.82 L 62.6289,89.676 L 62.0742,90.231 L 63.1836,90.973 L 63.1836,91.902 L 60.9609,90.231 L 61.6992,89.676 L 59.4766,88.004 L 60.2148,87.078 L 59.8477,86.891 L 59.1094,87.633 L 55.2148,84.66"
       id="path356" />
    <path
       style="fill:#f98211;stroke:none"
       d="M 55.2148,105.863 L 59.1094,102.891 L 59.8477,103.633 L 60.2148,103.449 L 59.4766,102.52 L 61.6992,100.848 L 60.9609,100.293 L 63.1836,98.6212 L 63.1836,99.5509 L 62.0742,100.293 L 62.6289,100.848 L 60.4062,102.707 L 60.7734,103.078 L 63.1797,101.035 L 63.1797,102.52 L 62.4414,102.52 L 61.8867,102.891 L 61.8867,103.633 L 60.2188,104.934 L 58.1836,104.934 L 59.293,104.008 L 58.9258,103.637 L 56.1484,105.867 L 58.9258,108.098 L 59.293,107.539 L 58.1836,106.797 L 60.2188,106.797 L 61.8867,108.102 L 61.8867,108.84 L 62.4414,109.211 L 63.1797,109.211 L 63.1797,110.512 L 60.7734,108.656 L 60.4062,109.027 L 62.6289,110.883 L 62.0742,111.254 L 63.1836,112.18 L 63.1836,112.922 L 60.9609,111.25 L 61.6992,110.879 L 59.4766,109.207 L 60.2148,108.281 L 59.8477,108.098 L 59.1094,108.836 L 55.2148,105.863"
       id="path358" />
    <path
       style="fill:#f98211;stroke:none"
       d="M 55.2148,125.395 L 59.1094,122.422 L 59.8477,123.352 L 60.2148,122.981 L 59.4766,122.238 L 61.6992,120.566 L 60.9609,120.012 L 63.1836,118.34 L 63.1836,119.082 L 62.0742,120.008 L 62.6289,120.563 L 60.4062,122.234 L 60.7734,122.606 L 63.1797,120.746 L 63.1797,122.051 L 62.4414,122.051 L 61.8867,122.418 L 61.8867,123.16 L 60.2188,124.461 L 58.1836,124.461 L 59.293,123.723 L 58.9258,123.352 L 56.1484,125.395 L 58.9258,127.625 L 59.293,127.254 L 58.1836,126.512 L 60.2188,126.512 L 61.8867,127.629 L 61.8867,128.555 L 62.4414,128.926 L 63.1797,128.926 L 63.1797,130.227 L 60.7734,128.371 L 60.4062,128.738 L 62.6289,130.41 L 62.0742,130.969 L 63.1836,131.895 L 63.1836,132.637 L 60.9609,130.965 L 61.6992,130.406 L 59.4766,128.734 L 60.2148,127.996 L 59.8477,127.625 L 59.1094,128.551 L 55.2148,125.391"
       id="path360" />
    <path
       style="fill:#f98211;stroke:none"
       d="M 55.2148,147.156 L 59.1094,143.996 L 59.8477,144.926 L 60.2148,144.555 L 59.4766,143.813 L 61.6992,142.141 L 60.9609,141.586 L 63.1836,139.914 L 63.1836,140.656 L 62.0742,141.586 L 62.6289,142.141 L 60.4062,143.813 L 60.7734,144.184 L 63.1797,142.328 L 63.1797,143.629 L 62.4414,143.629 L 61.8867,143.996 L 61.8867,144.926 L 60.2188,146.039 L 58.1836,146.039 L 59.293,145.301 L 58.9258,144.93 L 56.1484,147.16 L 55.2188,147.16"
       id="path362" />
    <path
       style="fill:#f98211;stroke:none"
       d="M 56.1445,46.531 L 58.9219,48.762 L 59.2891,48.391 L 58.1797,47.465 L 60.2148,47.465 L 61.8828,48.766 L 61.8828,49.508 L 62.4375,49.879 L 63.1758,49.879 L 63.1758,51.363 L 60.7695,49.32 L 60.4023,49.688 L 62.625,51.547 L 62.0703,52.102 L 63.1797,52.844 L 63.1797,53.77 L 60.957,52.098 L 61.6953,51.543 L 59.4727,49.871 L 60.2109,48.942 L 59.8438,48.754 L 59.1055,49.496 L 55.2109,46.524 L 56.1406,46.524"
       id="path364" />
    <path
       style="fill:none;stroke:#000000;stroke-width:0"
       d="M 8.50391,150.688 L 184.25,150.688 L 184.25,42.0696 L 8.50391,42.0696 L 8.50391,150.688 z "
       id="path366" />
  </g>
</svg>
