<?xml version="1.0" encoding="UTF-8" standalone="no"?>
<!-- Created with Sodipodi ("http://www.sodipodi.com/") -->
<!-- /Creative Commons Public Domain -->
<!--

-->
<svg
   xmlns:dc="http://purl.org/dc/elements/1.1/"
   xmlns:cc="http://web.resource.org/cc/"
   xmlns:rdf="http://www.w3.org/1999/02/22-rdf-syntax-ns#"
   xmlns:svg="http://www.w3.org/2000/svg"
   xmlns="http://www.w3.org/2000/svg"
   xmlns:sodipodi="http://inkscape.sourceforge.net/DTD/sodipodi-0.dtd"
   xmlns:inkscape="http://www.inkscape.org/namespaces/inkscape"
   height="140mm"
   id="svg576"
   sodipodi:docname="Flag_of_California.svg"
   sodipodi:version="0.32"
   width="210mm"
   inkscape:version="0.43"
   sodipodi:docbase="/home/demailly">
  <metadata
     id="metadata3">
    <rdf:RDF>
      <cc:Work
         rdf:about="">
        <dc:title>Clipart by Jon A. Cruz - United States - California</dc:title>
        <dc:description />
        <dc:subject>
          <rdf:Bag>
            <rdf:li />
            <rdf:li>america</rdf:li>
            <rdf:li>flag</rdf:li>
            <rdf:li>0x9c7e034</rdf:li>
            <rdf:li>unitedstates</rdf:li>
            <rdf:li>north_america</rdf:li>
            <rdf:li>sign</rdf:li>
          </rdf:Bag>
        </dc:subject>
        <dc:publisher>
          <cc:Agent
             rdf:about="http://www.openclipart.org">
            <dc:title>Jon A. Cruz</dc:title>
          </cc:Agent>
        </dc:publisher>
        <dc:creator>
          <cc:Agent>
            <dc:title>Jon A. Cruz</dc:title>
          </cc:Agent>
        </dc:creator>
        <dc:rights>
          <cc:Agent>
            <dc:title>Jon A. Cruz</dc:title>
          </cc:Agent>
        </dc:rights>
        <dc:date />
        <dc:format>image/svg+xml</dc:format>
        <dc:type
           rdf:resource="http://purl.org/dc/dcmitype/StillImage" />
        <cc:license
           rdf:resource="http://web.resource.org/cc/PublicDomain" />
        <dc:language>en</dc:language>
      </cc:Work>
      <cc:License
         rdf:about="http://web.resource.org/cc/PublicDomain">
        <cc:permits
           rdf:resource="http://web.resource.org/cc/Reproduction" />
        <cc:permits
           rdf:resource="http://web.resource.org/cc/Distribution" />
        <cc:permits
           rdf:resource="http://web.resource.org/cc/DerivativeWorks" />
      </cc:License>
    </rdf:RDF>
  </metadata>
  <defs
     id="defs578" />
  <sodipodi:namedview
     id="base"
     inkscape:zoom="0.75393651"
     inkscape:cx="372.04724"
     inkscape:cy="371.64077"
     inkscape:window-width="1248"
     inkscape:window-height="866"
     inkscape:window-x="0"
     inkscape:window-y="0"
     inkscape:current-layer="svg576" />
  <rect
     y="0"
     x="0"
     width="744.09448"
     style="fill:#ffffff;fill-opacity:1;fill-rule:evenodd;stroke:none"
     sodipodi:insensitive="true"
     id="flag"
     height="496.06299" />
  <g
     id="g2304">
    <path
       d="M 168.105,303.6285 L 609.2955,304.863 L 609.9735,298.7655 C 609.1035,297.369 605.3235,298.128 604.1145,298.128 C 602.388,296.055 601.143,292.761 598.9335,291.9105 C 596.6535,291.033 593.8845,291.327 591.1215,291.672 C 590.2575,289.2525 589.7835,286.6005 588.0525,285.693 C 586.1565,284.7 583.164,286.251 580.401,286.7685 C 579.192,284.8695 578.661,282.7305 576.1365,281.5485 C 574.347,280.824 571.647,280.6185 569.4015,280.791 C 568.6575,278.5455 567.729,275.673 565.2555,275.331 C 560.3085,274.6245 560.421,277.749 558.003,278.958 C 557.0865,276.2745 555.264,274.257 553.3395,273.777 C 551.1195,273.222 548.1585,275.1585 545.568,275.85 L 504.996,275.0115 C 504.996,275.0115 497.3055,271.665 494.634,270.867 C 492.555,270.3705 487.62,266.961 487.62,266.961 C 484.179,267.5865 484.056,269.766 482.877,269.4705 C 481.293,269.0745 481.431,265.8375 478.0545,265.527 C 475.0485,264.9315 472.899,268.671 470.283,269.073 C 468.4095,269.3625 468.1605,266.0265 464.5845,265.686 C 462.7605,265.5945 460.4955,268.74 458.247,268.8345 L 409.7445,270.867 C 408.9465,269.751 409.029,267.879 406.1175,267.24 C 401.9325,266.4435 358.5315,269.6325 358.5315,269.6325 C 355.941,267.042 353.559,263.4735 349.8015,263.6145 C 344.538,263.8065 344.5425,268.077 344.0235,268.077 C 343.506,268.077 341.196,265.767 338.325,267.042 C 336.0735,268.227 336.252,268.4235 335.2155,269.1135 C 333.3165,267.9045 331.5345,265.6485 329.517,265.4865 C 327.216,265.302 324.681,267.213 322.263,268.077 L 254.9085,279.4755 L 250.2465,281.031 C 250.2465,281.031 240.9315,275.2845 236.376,277.1655 C 232.758,278.532 229.5225,284.139 229.5225,284.139 C 226.587,283.275 223.26,280.692 220.7145,281.5485 C 213.9675,283.8735 215.5335,286.038 212.943,288.2835 C 209.4885,287.4195 202.128,283.9365 199.0725,285.2145 C 193.467,287.4255 194.6355,290.184 190.6635,292.4295 C 188.5245,291.7515 187.0395,289.839 184.089,290.5545 C 180.3825,291.8535 181.485,293.16 180.1035,294.5415 C 176.688,294.8595 170.8725,292.455 168.585,296.9325 L 168.105,303.6285 z "
       id="Grass"
       sodipodi:nodetypes="ccccscscscscscsssssssscccscscscccscscscsccc"
       style="fill:#7e965a;fill-opacity:1;fill-rule:evenodd;stroke:none" />
    <polygon
       id="star"
       points="73.8187,78.8757 53.0477,66.6403 31.193,76.8146 36.411,53.2792 19.9812,35.6383 43.9771,33.328 55.6776,12.251 65.2899,34.3585 88.9509,38.9732 70.8958,54.9467 73.8187,78.8757 "
       sodipodi:arg1="0.945"
       sodipodi:arg2="1.55"
       sodipodi:cx="82.677162"
       sodipodi:cy="66.141731"
       sodipodi:r1="37"
       sodipodi:r2="14"
       sodipodi:sides="5"
       sodipodi:type="star"
       style="fill:#ff0101;fill-opacity:1;fill-rule:evenodd"
       transform="matrix(1.5,0,0,1.5,-17.2209,-17.13379)"
       inkscape:flatsided="false"
       inkscape:rounded="0"
       inkscape:randomized="0"
       d="M 104.34965,96.130118 L 82.96829,80.138704 L 60.853678,96.020412 L 69.455213,70.743912 L 47.517021,54.619385 L 74.214421,54.989063 L 82.770484,29.141849 L 90.668849,54.646822 L 117.89498,54.796893 L 96.079038,70.190155 L 104.34965,96.130118 z " />
    <rect
       style="fill:#fe0101;fill-opacity:1"
       height="101.25"
       id="Stripe"
       width="744.09448"
       x="0"
       y="394.78345" />
    <path
       d="M 212.6775,296.9715 L 224.3385,297.111 C 225.4485,296.8335 224.8935,289.3365 218.7855,289.1985 C 212.6775,289.059 212.4,296.832 212.6775,296.9715 z "
       id="Lump1"
       sodipodi:nodetypes="cccc"
       style="fill:#70582d;fill-opacity:1;fill-rule:evenodd" />
    <path
       d="M 236.8335,294.3345 L 248.4945,294.474 C 249.6045,294.1965 249.0495,286.6995 242.9415,286.5615 C 236.8335,286.422 236.556,294.195 236.8335,294.3345 z "
       id="path583"
       sodipodi:nodetypes="cccc"
       style="fill:#70582d;fill-opacity:1;fill-rule:evenodd" />
    <path
       d="M 261.2565,298.665 L 271.0575,298.7775 C 271.9905,298.554 271.524,292.503 266.3895,292.392 C 261.2565,292.2795 261.0225,298.5525 261.2565,298.665 z "
       id="path584"
       sodipodi:nodetypes="cccc"
       style="fill:#70582d;fill-opacity:1;fill-rule:evenodd" />
    <path
       d="M 297.9405,294.471 L 313.719,294.6135 C 315.2205,294.33 314.469,286.7025 306.2055,286.5615 C 297.9405,286.419 297.5655,294.3285 297.9405,294.471 z "
       id="path585"
       sodipodi:nodetypes="cccc"
       style="fill:#70582d;fill-opacity:1;fill-rule:evenodd" />
    <path
       d="M 324.7455,281.838 L 342.6495,281.9805 C 344.3535,281.697 343.5,274.0695 334.1235,273.9285 C 324.7455,273.786 324.321,281.6955 324.7455,281.838 z "
       id="path586"
       sodipodi:nodetypes="cccc"
       style="fill:#70582d;fill-opacity:1;fill-rule:evenodd" />
    <path
       d="M 347.5125,293.916 L 365.4165,294.0585 C 367.1205,293.775 366.267,286.1475 356.8905,286.0065 C 347.5125,285.864 347.088,293.7735 347.5125,293.916 z "
       id="path587"
       sodipodi:nodetypes="cccc"
       style="fill:#70582d;fill-opacity:1;fill-rule:evenodd" />
    <path
       d="M 384.3015,289.335 L 402.2055,289.4775 C 403.9095,289.194 403.056,281.5665 393.6795,281.4255 C 384.3015,281.283 383.877,289.1925 384.3015,289.335 z "
       id="path588"
       sodipodi:nodetypes="cccc"
       style="fill:#70582d;fill-opacity:1;fill-rule:evenodd" />
    <path
       d="M 421.3665,293.6715 L 439.2705,293.7795 C 440.9745,293.565 440.121,287.778 430.7445,287.6715 C 421.3665,287.5635 420.942,293.5635 421.3665,293.6715 z "
       id="path589"
       sodipodi:nodetypes="cccc"
       style="fill:#70582d;fill-opacity:1;fill-rule:evenodd" />
    <path
       d="M 451.896,292.665 L 467.808,292.8105 C 469.323,292.521 468.564,284.763 460.2315,284.619 C 451.896,284.4735 451.5195,292.5195 451.896,292.665 z "
       id="path590"
       sodipodi:nodetypes="cccc"
       style="fill:#70582d;fill-opacity:1;fill-rule:evenodd" />
    <path
       d="M 484.9365,286.557 L 500.8485,286.7025 C 502.3635,286.413 501.6045,278.655 493.272,278.511 C 484.9365,278.3655 484.56,286.4115 484.9365,286.557 z "
       id="path591"
       sodipodi:nodetypes="cccc"
       style="fill:#70582d;fill-opacity:1;fill-rule:evenodd" />
    <path
       d="M 536.025,294.63 L 551.937,294.753 C 553.452,294.5085 552.693,287.9325 544.3605,287.811 C 536.025,287.688 535.6485,294.507 536.025,294.63 z "
       id="path592"
       sodipodi:nodetypes="cccc"
       style="fill:#70582d;fill-opacity:1;fill-rule:evenodd" />
    <path
       d="M 564.606,298.944 L 577.7295,299.058 C 578.979,298.833 578.352,292.782 571.4805,292.671 C 564.606,292.557 564.2955,298.8315 564.606,298.944 z "
       id="path593"
       sodipodi:nodetypes="cccc"
       style="fill:#775c2a;fill-opacity:1;fill-rule:evenodd" />
    <path
       d="M 429.92828,247.35173 L 429.92828,266.02673 L 431.17328,266.02673 L 429.92828,247.35173 z "
       id="path1653"
       style="fill:#e6dcb6;stroke:none" />
    <path
       d="M 285.50828,259.80173 L 283.01828,267.27173 L 284.26328,267.27173 L 285.50828,259.80173 z "
       id="path794"
       style="fill:#a18e61;stroke:none" />
    <path
       d="M 280.11369,268.93132 L 280.94286,269.34715 L 280.11369,268.93132 z "
       id="path823"
       style="fill:#cbbe8c;stroke:none" />
    <path
       d="M 266.41869,271.42131 L 267.24786,271.83715 L 266.41869,271.42131 z "
       id="path829"
       style="fill:#d8c8a5;stroke:none" />
    <path
       d="M 265.58828,272.25173 L 265.58828,273.49673 L 273.05828,272.25173 L 265.58828,272.25173 z "
       id="path830"
       style="fill:#938759;stroke:none" />
    <path
       d="M 261.85328,272.25173 L 261.85328,273.49673 L 265.58828,273.49673 L 261.85328,272.25173 z "
       id="path833"
       style="fill:#e7d3b3;stroke:none" />
    <g
       transform="scale(1.5,1.5)"
       id="Words">
      <path
         d="M 68.2099,228.178 C 68.0349,225.973 67.5799,224.573 66.4949,223.138 C 64.5349,220.548 61.3849,219.113 57.5699,219.113 C 50.3599,219.113 45.8799,224.258 45.8799,232.518 C 45.8799,240.708 50.3249,245.853 57.4299,245.853 C 63.7649,245.853 67.9999,242.178 68.3149,236.333 L 63.2049,236.333 C 62.8899,239.588 60.8249,241.443 57.5699,241.443 C 53.5099,241.443 51.1299,238.153 51.1299,232.588 C 51.1299,226.953 53.6149,223.593 57.7449,223.593 C 59.5649,223.593 61.0699,224.223 62.0499,225.448 C 62.6099,226.148 62.8899,226.813 63.2049,228.178 L 68.2099,228.178 z "
         id="LetterC"
         style="fill:#775c2a;fill-opacity:1" />
      <path
         d="M 84.2152,239.903 L 85.8952,245.048 L 91.2852,245.048 L 82.4652,219.533 L 76.6552,219.533 L 67.5902,245.048 L 72.9452,245.048 L 74.6602,239.903 L 84.2152,239.903 z M 82.7802,235.528 L 76.1302,235.528 L 79.4552,225.553 L 82.7802,235.528 z "
         id="LetterA"
         style="fill:#775c2a;fill-opacity:1" />
      <path
         d="M 100.547,219.533 L 95.2971,219.533 L 95.2971,245.048 L 109.207,245.048 L 109.168,240.634 L 100.547,240.673 L 100.547,219.533 z "
         id="LetterL"
         sodipodi:nodetypes="ccccccc"
         style="fill:#775c2a;fill-opacity:1" />
      <path
         d="M 117.782,219.533 L 112.532,219.533 L 112.532,245.048 L 117.782,245.048 L 117.782,219.533 z "
         id="LetterI"
         style="fill:#775c2a;fill-opacity:1" />
      <path
         d="M 130.28,234.058 L 138.867,234.058 L 138.867,229.722 L 130.28,229.683 L 130.28,223.908 L 140.489,223.869 L 140.45,219.494 L 125.03,219.533 L 125.03,245.048 L 130.28,245.048 L 130.28,234.058 z "
         id="LetterF"
         sodipodi:nodetypes="ccccccccccc"
         style="fill:#775c2a;fill-opacity:1" />
      <path
         d="M 154.35,219.113 C 150.78,219.113 147.84,220.303 145.67,222.648 C 143.395,225.098 142.1,228.668 142.1,232.483 C 142.1,236.298 143.395,239.903 145.67,242.318 C 147.875,244.698 150.745,245.853 154.385,245.853 C 158.025,245.853 160.895,244.698 163.1,242.318 C 165.305,239.973 166.67,236.263 166.67,232.658 C 166.67,228.668 165.375,225.098 163.1,222.648 C 160.86,220.233 158.025,219.113 154.35,219.113 z M 154.385,223.593 C 158.69,223.593 161.42,227.093 161.42,232.623 C 161.42,237.838 158.585,241.373 154.385,241.373 C 150.15,241.373 147.35,237.838 147.35,232.483 C 147.35,227.128 150.15,223.593 154.385,223.593 z "
         id="LetterO"
         style="fill:#775c2a;fill-opacity:1" />
      <path
         d="M 176.201,234.933 L 181.4,234.933 C 183.364,234.933 184.21,235.843 184.21,237.978 C 184.21,238.188 184.21,238.538 184.18,238.993 C 184.15,239.658 184.15,240.288 184.15,240.673 C 184.15,243.053 184.27,243.823 184.845,245.048 L 189.71,245.048 L 189.71,244.103 C 189.015,243.648 188.743,243.123 188.743,242.003 C 188.623,234.478 188.501,234.128 185.691,232.728 C 188.17,231.608 189.409,229.543 189.409,226.428 C 189.409,224.398 188.804,222.543 187.746,221.283 C 186.749,220.093 185.359,219.533 183.484,219.533 L 171.667,219.533 L 171.667,245.048 L 176.201,245.048 L 176.201,234.933 z M 176.201,230.558 L 176.201,223.908 L 181.671,223.908 C 182.971,223.908 183.515,224.048 184.06,224.573 C 184.604,225.098 184.876,225.973 184.876,227.163 C 184.876,228.388 184.573,229.368 184.06,229.893 C 183.576,230.383 182.971,230.558 181.671,230.558 L 176.201,230.558 z "
         id="LetterR"
         style="fill:#775c2a;fill-opacity:1" />
      <path
         d="M 208.621,245.048 L 213.328,245.048 L 213.328,219.533 L 208.621,219.533 L 208.621,236.893 L 199.553,219.533 L 194.721,219.533 L 194.721,245.048 L 199.428,245.048 L 199.428,227.408 L 208.621,245.048 z "
         id="LetterN"
         style="fill:#775c2a;fill-opacity:1" />
      <path
         d="M 225.456,219.533 L 220.206,219.533 L 220.206,245.048 L 225.456,245.048 L 225.456,219.533 z "
         id="LetterI2"
         style="fill:#775c2a;fill-opacity:1" />
      <path
         d="M 245.696,239.903 L 247.376,245.048 L 252.766,245.048 L 243.946,219.533 L 238.136,219.533 L 229.071,245.048 L 234.426,245.048 L 236.141,239.903 L 245.696,239.903 z M 244.261,235.528 L 237.611,235.528 L 240.936,225.553 L 244.261,235.528 z "
         id="LetterA2"
         style="fill:#775c2a;fill-opacity:1" />
      <path
         d="M 283.67,234.933 L 289.104,234.933 C 291.158,234.933 292.043,235.843 292.043,237.978 C 292.043,238.188 292.043,238.538 292.011,238.993 C 291.98,239.658 291.98,240.288 291.98,240.673 C 291.98,243.053 292.106,243.823 292.707,245.048 L 297.794,245.048 L 297.794,244.103 C 297.067,243.648 296.783,243.123 296.783,242.003 C 296.656,234.478 296.53,234.128 293.591,232.728 C 296.182,231.608 297.478,229.543 297.478,226.428 C 297.478,224.398 296.846,222.543 295.74,221.283 C 294.697,220.093 293.244,219.533 291.285,219.533 L 278.93,219.533 L 278.93,245.048 L 283.67,245.048 L 283.67,234.933 z M 283.67,230.558 L 283.67,223.908 L 289.389,223.908 C 290.747,223.908 291.316,224.048 291.885,224.573 C 292.454,225.098 292.738,225.973 292.738,227.163 C 292.738,228.388 292.422,229.368 291.885,229.893 C 291.379,230.383 290.747,230.558 289.389,230.558 L 283.67,230.558 z "
         id="LetterR2"
         style="fill:#775c2a;fill-opacity:1" />
      <path
         d="M 308.087,234.058 L 315.029,234.097 L 315.029,229.722 L 308.087,229.683 L 308.087,223.908 L 317.337,223.908 L 317.337,219.533 L 302.837,219.533 L 302.837,245.048 L 317.107,245.087 L 317.068,240.751 L 308.087,240.673 L 308.087,234.058 z "
         id="LetterE"
         sodipodi:nodetypes="ccccccccccccc"
         style="fill:#775c2a;fill-opacity:1" />
      <path
         d="M 328.091,235.948 L 333.718,235.948 C 337.75,235.948 340.338,232.623 340.338,227.443 C 340.338,222.333 337.84,219.533 333.266,219.533 L 323.577,219.533 L 323.577,245.048 L 328.091,245.048 L 328.091,235.948 z M 328.091,231.573 L 328.091,223.908 L 332.303,223.908 C 334.711,223.908 335.824,225.133 335.824,227.758 C 335.824,230.348 334.711,231.573 332.303,231.573 L 328.091,231.573 z "
         id="LetterP"
         style="fill:#775c2a;fill-opacity:1" />
      <path
         d="M 357.707,219.533 L 357.707,236.823 C 357.707,239.903 356.244,241.373 353.189,241.373 C 350.134,241.373 348.672,239.903 348.672,236.823 L 348.672,219.533 L 343.797,219.533 L 343.797,236.823 C 343.797,239.693 344.512,241.723 346.104,243.263 C 347.827,244.943 350.329,245.853 353.189,245.853 C 356.049,245.853 358.552,244.943 360.274,243.263 C 361.867,241.723 362.582,239.693 362.582,236.823 L 362.582,219.533 L 357.707,219.533 z "
         id="LetterU"
         style="fill:#775c2a;fill-opacity:1" />
      <path
         d="M 369.902,245.048 L 379.671,245.048 C 382.172,245.048 383.84,244.488 385.151,243.193 C 386.461,241.898 387.295,239.728 387.295,237.698 C 387.295,235.178 386.134,233.183 383.691,231.503 C 385.836,229.893 386.67,228.423 386.67,226.253 C 386.67,224.503 385.925,222.648 384.704,221.388 C 383.423,220.093 381.904,219.533 379.581,219.533 L 369.902,219.533 L 369.902,245.048 z M 374.369,223.908 L 379.224,223.908 C 381.279,223.908 382.381,224.923 382.381,226.813 C 382.381,228.668 381.279,229.683 379.224,229.683 L 374.369,229.683 L 374.369,223.908 z M 374.369,234.058 L 379.701,234.058 C 381.875,234.058 383.006,235.213 383.006,237.383 C 383.006,239.518 381.875,240.673 379.701,240.673 L 374.369,240.673 L 374.369,234.058 z "
         id="LetterB"
         style="fill:#775c2a;fill-opacity:1" />
      <path
         d="M 398.32,219.533 L 393.07,219.533 L 393.07,245.048 L 407.683,244.97 L 407.605,240.673 L 398.32,240.673 L 398.32,219.533 z "
         id="LetterL2"
         sodipodi:nodetypes="ccccccc"
         style="fill:#775c2a;fill-opacity:1" />
      <path
         d="M 416.259,219.533 L 411.009,219.533 L 411.009,245.048 L 416.259,245.048 L 416.259,219.533 z "
         id="LetterI3"
         style="fill:#775c2a;fill-opacity:1" />
      <path
         d="M 443.81,228.178 C 443.635,225.973 443.18,224.573 442.095,223.138 C 440.135,220.548 436.985,219.113 433.17,219.113 C 425.96,219.113 421.48,224.258 421.48,232.518 C 421.48,240.708 425.925,245.853 433.03,245.853 C 439.365,245.853 443.6,242.178 443.915,236.333 L 438.805,236.333 C 438.49,239.588 436.425,241.443 433.17,241.443 C 429.11,241.443 426.73,238.153 426.73,232.588 C 426.73,226.953 429.215,223.593 433.345,223.593 C 435.165,223.593 436.67,224.223 437.65,225.448 C 438.21,226.148 438.49,226.813 438.805,228.178 L 443.81,228.178 z "
         id="LetterC2"
         style="fill:#775c2a;fill-opacity:1" />
    </g>
    <g
       id="TheBear"
       transform="matrix(1.245,0,0,1.245,-4.472695,3.252937)">
      <path
         d="M 224,112 C 221.188,110.878 216.422,108.466 215.484,108.438 C 214.628,108.447 209.291,117.773 207.739,118.773 C 206.841,118.89 200.892,112.379 199.89,112.789 C 199.215,113.077 197.386,114.749 196.555,117.603 C 195.724,120.456 195.89,124.492 195.453,125.602 C 193.14,131.282 190.827,129.837 188.333,138 C 187.245,141.561 189.933,145.895 188.5,149 C 186.687,152.928 175.577,162.894 175.727,164.227 C 177.806,176.559 191.475,168.915 201.127,165.034 C 201.999,169.462 200.741,171.15 196.639,179.94 C 207.379,176.826 207.255,174.46 218.833,177.999 C 224.017,176.814 248.357,152.872 251.635,159.88 C 254.323,165.627 245.196,184.617 248.5,189.333 C 252.739,196.077 275.299,194.612 276.5,193.5 C 280.52,189.778 286.287,181.559 288.707,180.884 C 290.883,180.293 315.184,184.803 322.722,178.878 C 327.262,174.203 340.349,175.156 349.122,178.315 C 349.131,179.468 350.312,190.708 351.246,194.754 C 351.548,201.388 368.19,209.969 374,205.809 L 393.5,183.5 C 393.5,183.5 417.588,161.43 420.421,159.452 C 430.777,151.786 422.217,126.88 415.921,114.167 C 408.536,103.647 390.48,93.2095 386.667,91.5 C 366.857,82.6198 344.967,92.0588 325,94 C 321.068,94.3823 313.179,92.8517 308.781,91.4922 C 295.76,80.3708 275.93,84.7635 263,90.3333 L 224,112 z "
         id="Body"
         sodipodi:nodetypes="cscssscccccccccsccsccccccccc"
         style="opacity:1;fill:#bb872a;stroke:none" />
      <path
         d="M 408,136 C 410.735,138.86 415.292,136.913 411,141 C 414.778,142.736 418.189,138.611 418.333,138.667 C 425.882,141.57 423.037,152.345 419.667,155.167 C 416.808,157.56 414.35,155.46 413,160 C 412.766,159.602 411.548,156.494 410.5,157.5 C 408.361,159.554 412.135,161.013 412,162.5 C 411.196,171.348 394.523,168.27 396.938,180 C 395.562,179.9 393.011,177.204 392.438,177.667 C 391.844,178.148 393.88,182.527 393.438,182.833 C 392.596,183.588 387.146,188.944 384,192 C 381.915,185.12 375.494,201.459 374,204 C 373.607,189.058 361,205.605 361,190 C 358.518,192.441 355.098,196.881 353.555,197.322 C 352.765,197.548 354.339,192.724 354,192 C 353.821,191.617 352.667,193.333 352,194 L 350,171 C 349.871,169.515 351.533,166.844 352,167 C 352.533,167.178 351.838,171.225 353,172 C 354.838,173.225 359.519,173.247 361,173 C 361.519,172.913 358.843,171.472 359,171 C 359.176,170.472 362.097,170.917 362,170 C 361.43,164.584 357.508,157.843 357,152 C 356.841,150.176 360.356,148.067 360,147 C 359.689,146.067 355.586,145.609 355,146 C 354.586,146.276 357.316,148.526 357,149 C 356.649,149.526 353.492,148.343 353,149 C 352.492,149.677 354.79,152.662 354,153 C 352.456,153.662 347.544,151.338 346,152 C 345.21,152.338 347.452,154.945 347,156 C 346.452,157.279 343.667,157.667 343,159 C 342.333,160.333 344.055,163.18 343,164 C 341.055,165.513 336.049,164.324 334,166 C 332.382,167.324 332.765,171.725 332,173 C 331.765,173.392 331.515,170.897 331,171 C 329.848,171.23 327.952,173.762 327,174 C 326.619,174.095 327.632,172.211 327,172 C 324,170.999 319.109,168.26 318,169 C 317.109,169.594 322.23,175.057 321,176 C 318.897,177.612 312.174,177.184 308,176.667 C 305.897,176.406 303.261,173.594 302.167,173.667 C 301.594,173.705 303.726,177.114 303,177 C 300.639,176.631 291.833,171.972 291.833,168.5 C 291.833,162.671 293.28,155.074 285.833,151.5 C 282.532,149.915 283.145,155.505 283,157 C 282.406,163.109 282.585,167.206 287,172 C 279.729,168.556 285.937,174.34 280,175 L 285,177 C 280.811,182.585 280.678,188.334 276.5,192.667 C 275.445,193.761 273.22,188.686 271.167,189.167 C 265.603,190.469 264.407,194.853 267,185 C 264.374,186.651 251.885,196.14 248.667,189.167 C 247.554,186.756 253.054,181.485 253.384,180.317 C 254.88,175.023 254.18,167.394 254.578,160.932 L 252.199,163.113 C 250.707,171.597 246.704,188.76 241.5,196 C 239.525,198.747 236.269,200.161 234.5,203 C 232.11,206.835 232.791,211.105 228,213.5 C 224.2,215.4 217.693,214.837 214.167,217.5 C 211.939,219.182 214.905,226.052 217,226.833 C 222.097,228.734 234.777,228.408 240,226.667 C 253.769,222.077 268.785,206.058 278.833,195.833 C 280.881,193.75 286.796,182 289,182 C 290.859,182 292.266,185.476 293.333,186.667 C 296.266,189.937 310.469,201.723 309.333,206 C 308.264,210.027 299.796,209.244 297.167,212.333 C 294.701,215.23 302.02,216.098 300.667,217.5 C 296.965,221.334 294.305,214.273 292,214.333 C 287.898,214.441 292.521,219.721 295,220 C 308.779,221.553 331.707,215.554 330,198 C 329.523,193.09 322.433,182.635 324.667,178.167 C 326.026,175.448 344.598,177.549 346.833,178.667 C 349.553,180.027 347.887,190.279 348,193 C 348.29,199.97 352.456,211.069 343,213.833 C 339.551,214.842 335.524,213.454 332,214 C 329.48,214.39 327.255,216.238 328.5,219 C 331.275,225.156 341.541,224 347,224 C 352.205,224 360.579,225.018 365,221.667 C 373.037,215.574 378.185,203.055 386,196 C 388.354,193.875 393.567,188.165 397,188.333 C 399.117,188.437 404.315,199.524 407.333,201.5 C 412.603,204.949 420.897,203.072 425.667,207 C 427.697,208.672 427.572,211.374 427.315,212.438 C 427.077,213.426 416.594,211.195 411.254,218.384 C 415.854,228.469 442.469,223.702 445.833,214.833 C 449.798,204.382 439.563,196.081 437.167,187 C 435.343,180.088 437.011,172.916 435.667,166 C 434.097,157.927 429.612,148.043 429.5,140 C 429.426,134.703 431.107,131.49 428.667,126 C 425.774,119.491 419.747,116.136 415.333,111 C 411.71,106.784 398.645,93.3156 392.167,95.1667 C 389.818,95.8376 399.614,104.547 401,105.333 C 403.19,106.576 405.215,105.041 408,108 C 409.8,109.913 410.235,114.229 412.167,115.5 C 413.445,116.341 414.418,112.563 415,114.833 C 415.603,117.184 412.209,118.468 412.333,120.833 C 412.448,123.007 415.529,122.324 416.167,124.167 C 417.317,127.489 411.237,135.915 408,136 z "
         id="Undulations"
         sodipodi:nodetypes="ccccccccsscccsscssssssssssssssssssssssssssccccccccccscccccccccccccccccssccccccccccsccccccccccccccc"
         style="opacity:1;fill:#775c2a;stroke:none" />
      <path
         d="M 207.843,120.789 C 211.048,120.702 211.003,118.072 212.843,117.789 C 216.094,117.289 217.921,126.781 222.51,123.289 C 228.074,119.055 216.123,114.877 215.843,112.289 C 215.771,111.623 217.888,111.621 217.51,110.789 C 214.547,104.272 208.693,119.514 207.843,120.789 z "
         id="L_Ear"
         style="opacity:1;fill:#775c2a;stroke:none" />
      <path
         d="M 198.62,115.305 C 195.668,117.014 195.11,125.902 200.12,123.305 C 206.008,120.252 204.445,111.932 198.62,115.305 z "
         id="R_Ear"
         style="opacity:1;fill:#775c2a;stroke:none" />
      <path
         d="M 201.5,145.5 C 199.735,146.866 203.139,149.031 204.5,147.5 C 205.606,146.256 202.515,144.714 201.5,145.5 z "
         id="TraceEye"
         style="fill:#775c2a;stroke:none" />
      <path
         d="M 248,151.333 C 246.509,151.871 246.121,154.905 245.167,155 C 243.729,155.144 237.483,151.073 236.333,156 C 235.879,157.946 238.453,159.936 237.667,161.667 C 237.467,162.107 232.447,162.322 231.333,163.667 C 227.389,168.427 223.137,170.835 219.167,174.5 C 218.143,175.445 217.53,168.333 215.167,168.333 C 214.105,168.333 209.811,173.568 208.667,174.5 C 203.664,178.9 197.304,179.067 195.172,180.075 C 193.988,179.459 189.886,178.859 190.558,179.5 C 199.038,183.525 202.558,179.936 209,177.167 C 212.78,177.377 216.3,181.805 220,180.667 C 227.836,178.256 235.191,167.844 243,164 C 246.945,162.058 251.269,164.263 253.5,163.333 C 256.895,161.919 255.682,148.563 248,151.333 z "
         id="path3081"
         sodipodi:nodetypes="ccccccccccccccc"
         style="opacity:1;fill:#775c2a;stroke:none" />
      <path
         d="M 422,163 C 425.836,167.987 418.401,165.354 417.667,171.333 C 417.328,174.095 421.18,176.755 420,180 C 419.609,181.076 417.305,180.178 416.5,181.167 C 412.648,185.899 420.636,193.528 425,194 C 421.241,185.228 436.854,192.639 429,183 C 435.498,185.634 434.244,175.157 432.5,171.333 C 430.224,166.344 429.104,171.833 426.667,169.667 C 421.286,164.884 434.763,161.62 422,163 z "
         id="path3083"
         style="fill:#bb872a;stroke:none" />
      <path
         d="M 413.833,167.5 C 412.91,167.421 406.333,170.885 406.333,171.167 C 406.333,172.804 409.033,173.481 409,174.667 C 408.994,174.87 402.759,179.37 406.167,179.667 C 410.618,180.054 417.064,167.775 413.833,167.5 z "
         id="path3086"
         style="fill:#bb872a;stroke:none" />
      <path
         d="M 424,219 C 425.644,218.061 428.028,217.428 429.5,216.333 C 436.966,210.777 417.836,212.097 415.5,214.5 C 410.924,219.207 422.887,221.074 425,221 C 428.133,220.89 424.913,219.277 424,219 z "
         id="path3094"
         sodipodi:nodetypes="ccccccc"
         style="opacity:1;fill:#bb872a;stroke:none" />
      <path
         d="M 419,214 L 419,214 z M 293.167,212.5 C 289.618,215.457 298.426,221.435 301.5,217.5 C 301.603,217.368 295.53,210.53 293.167,212.5"
         id="RFClaw"
         sodipodi:nodetypes="ccccc"
         style="fill:#b6a47e;stroke:none" />
      <path
         d="M 413.833,215.5 C 409.043,215.011 414.63,221.667 416.833,221.667 C 418.971,221.667 415.359,215.656 413.833,215.5 z "
         id="RRClaw"
         style="opacity:1;fill:#b6a47e;stroke:none" />
      <path
         d="M 243,224 L 243,224 z M 212.167,217.5 C 208.736,219.95 212.871,228.286 215.5,224.5 C 216.115,223.614 213.067,216.857 212.167,217.5 M 330.5,216.5 C 328.183,218.817 334.076,224.215 336.5,221.5 C 337.473,220.41 331.25,215.75 330.5,216.5"
         id="LeftClaws"
         sodipodi:nodetypes="cccccccc"
         style="fill:#b6a47e;stroke:none" />
      <path
         d="M 308,91 C 300.014,95.6974 312.255,95.6165 312.833,93.8333 C 313.706,91.1425 307.576,88.7088 306,87.8333 C 297.242,82.9679 286.962,82.0315 277,83 C 264.261,84.2385 252.818,95.5733 241,100.333 C 235.118,102.702 229.886,107.064 225,111 C 224.086,111.736 218.171,113.902 221.167,115.5 C 225.487,117.804 233.078,109.986 235.833,107.333 C 241.714,101.671 250.309,102.459 256.667,97.5 C 259.381,95.3829 260.517,91.7466 264,90.3333 C 271.717,87.2018 284.63,84.0392 293,85.6667 C 298.217,86.681 302.992,90.4276 308,91 z "
         id="Shoulder"
         style="opacity:1;fill:#775c2a;stroke:none" />
      <path
         d="M 100.581,182.453 L 97.7489,183.097 L 101.684,185.06 L 101.875,183.092 L 108.493,179.492 L 109.322,178.062 L 100.581,182.453 z "
         id="path717"
         sodipodi:nodetypes="ccccccc"
         style="opacity:1;fill:#d0cca0;stroke:none"
         transform="matrix(1.2,0,0,1.204819,67.36,-48.45013)" />
      <path
         d="M 104.408,186.398 L 107.63,188.156 L 111.497,180.471 C 108.958,179.811 105.085,183.64 104.408,186.398 z "
         id="path718"
         sodipodi:nodetypes="cccc"
         style="opacity:1;fill:#773f15;stroke:none"
         transform="matrix(1.2,0,0,1.204819,67.36432,-48.45013)" />
      <path
         d="M 104.555,186.427 C 103.836,186.261 102.52,186.693 102.163,187.179 C 101.85,187.605 102.455,188.475 102.543,189.162 L 107.025,189.591 L 107.572,187.892 L 104.555,186.427 z "
         id="path722"
         sodipodi:nodetypes="cscccc"
         style="opacity:1;fill:#8a633b;stroke:none"
         transform="matrix(1.2,0,0,1.204819,67.36432,-48.45013)" />
      <path
         d="M 107.456,188.195 L 101.694,185.442 L 102.192,187.755 L 106.621,188.952 L 107.456,188.195 z "
         id="path2616"
         sodipodi:nodetypes="ccccc"
         style="opacity:1;fill:#d0cca0;stroke:none"
         transform="matrix(1.2,0,0,1.204819,67.36432,-48.45013)" />
      <path
         d="M 175.991,163.526 L 174.505,165.385 C 176.348,172.935 185.263,173.055 188.694,171.738 C 192.686,170.163 199.715,165.479 200.306,165.855 C 200.794,166.194 201.011,169.111 200.693,169.615 C 199.828,170.987 195.311,179.423 194.008,180.385 L 196.408,180.723 C 197.509,179.025 200.72,171.755 201.822,170.058 C 202.645,168.792 202.175,165.559 201.361,164.761 C 200.912,164.369 200.182,164.571 199.462,164.655 C 197.64,164.867 190.475,170.593 182.392,170.163 C 180.637,170.069 177.671,167.15 175.991,163.526 z "
         id="path699"
         sodipodi:nodetypes="ccsssccssssc"
         style="opacity:1;fill:#775c2a;fill-opacity:1;stroke:none" />
      <path
         d="M 89.323,177.444 C 89.674,177.913 91.182,179.1 91.89,178.577 C 92.791,177.947 92.451,175.4 91.657,174.437 L 89.323,177.444 z "
         id="Nose"
         sodipodi:nodetypes="cscc"
         style="opacity:1;fill:#4f3208;stroke:none"
         transform="matrix(1.2,0,0,1.204819,67.36432,-48.45013)" />
      <path
         d="M 168.51562 123.97809 A 2.109375 1.796875 0 1 1  164.29688,123.97809 A 2.109375 1.796875 0 1 1  168.51562 123.97809 z"
         id="Eye"
         sodipodi:cx="166.40625"
         sodipodi:cy="123.97809"
         sodipodi:rx="2.109375"
         sodipodi:ry="1.796875"
         sodipodi:type="arc"
         style="fill:#ffffff;fill-rule:evenodd"
         transform="matrix(1.044444,0,0,0.830402,27.89932,43.96117)" />
      <path
         d="M 167.73438 123.72418 A 1.40625 1.425781 0 1 1  164.92188,123.72418 A 1.40625 1.425781 0 1 1  167.73438 123.72418 z"
         id="Iris"
         sodipodi:cx="166.32812"
         sodipodi:cy="123.72418"
         sodipodi:rx="1.40625"
         sodipodi:ry="1.425781"
         sodipodi:type="arc"
         style="opacity:1;fill:#775c2a;fill-opacity:1;fill-rule:evenodd"
         transform="matrix(1.283334,0,0,1.046535,-10.99129,17.30228)" />
    </g>
  </g>
</svg>
