<?xml version="1.0" encoding="UTF-8" standalone="no"?>
<svg
   xmlns:dc="http://purl.org/dc/elements/1.1/"
   xmlns:cc="http://web.resource.org/cc/"
   xmlns:rdf="http://www.w3.org/1999/02/22-rdf-syntax-ns#"
   xmlns:svg="http://www.w3.org/2000/svg"
   xmlns="http://www.w3.org/2000/svg"
   xmlns:xlink="http://www.w3.org/1999/xlink"
   xmlns:sodipodi="http://inkscape.sourceforge.net/DTD/sodipodi-0.dtd"
   xmlns:inkscape="http://www.inkscape.org/namespaces/inkscape"
   width="696"
   height="398"
   id="svg2"
   sodipodi:version="0.32"
   inkscape:version="0.42"
   sodipodi:docname="usa_louisiana.svg"
   sodipodi:docbase="/home/demailly/nnew/gis_data/flags">
  <metadata
     id="metadata93">
    <rdf:RDF>
      <cc:Work
         rdf:about="">
        <dc:format>image/svg+xml</dc:format>
        <dc:type
           rdf:resource="http://purl.org/dc/dcmitype/StillImage" />
      </cc:Work>
    </rdf:RDF>
  </metadata>
  <sodipodi:namedview
     inkscape:cy="119.38921"
     inkscape:cx="-34.032852"
     inkscape:zoom="5.8316686"
     inkscape:window-height="980"
     inkscape:window-width="1472"
     inkscape:pageshadow="2"
     inkscape:pageopacity="0.0"
     borderopacity="1.0"
     bordercolor="#666666"
     pagecolor="#ffffff"
     id="base"
     inkscape:window-x="139"
     inkscape:window-y="0"
     inkscape:current-layer="svg2" />
  <defs
     id="defs4">
    <marker
       id="ArrowEnd"
       viewBox="0 0 10 10"
       refX="0"
       refY="5"
       markerUnits="strokeWidth"
       markerWidth="4"
       markerHeight="3"
       orient="auto">
      <path
         d="M 0 0 L 10 5 L 0 10 z"
         id="path7" />
    </marker>
    <marker
       id="ArrowStart"
       viewBox="0 0 10 10"
       refX="10"
       refY="5"
       markerUnits="strokeWidth"
       markerWidth="4"
       markerHeight="3"
       orient="auto">
      <path
         d="M 10 0 L 0 5 L 10 10 z"
         id="path10" />
    </marker>
  </defs>
  <path
     style="fill:#000000;fill-opacity:1.0000000;fill-rule:evenodd;stroke:none;stroke-width:1.0000000px;stroke-linecap:butt;stroke-linejoin:miter;stroke-opacity:1.0000000;display:none"
     d="M 52.001713,85.232936 L 51.220463,85.857936 C 51.220463,85.857936 65.930698,103.21085 90.032963,111.92043 C 114.13523,120.63001 147.69778,120.65998 185.18921,86.264186 L 184.50171,85.514186 C 147.22895,119.70937 114.20241,119.59257 90.376713,110.98293 C 66.551015,102.37329 52.001713,85.232936 52.001713,85.232936 z "
     id="path1356" />
  <g
     id="g4393"
     transform="matrix(3.000000,0.000000,0.000000,3.000000,-4.666673e-5,1.955498e-2)">
    <path
       style="fill:#00a5ff;stroke:none"
       d="M 0.034831000,0.034832000 L 231.80279,0.034832000 L 231.80279,132.15479 L 0.034831000,132.15479 L 0.034831000,0.034832000 L 0.034831000,0.034832000 z "
       id="path14" />
    <path
       style="fill:#ffffff;stroke:#000000;stroke-width:0.36000001"
       d="M 174.16679,74.662892 C 170.71079,78.370792 167.25479,81.718892 162.97079,85.030792 L 162.97079,85.030792 L 159.62279,81.214892 L 168.29879,73.258792 L 168.55079,77.254792 L 174.16679,74.662892 L 174.16679,74.662892 z M 58.678791,76.642792 L 69.082791,82.546892 L 71.062791,75.886892 L 73.222791,85.102892 L 71.602791,88.162892 L 71.602791,88.162892 C 66.850791,84.778892 62.278791,80.746792 58.678791,76.642792 L 58.678791,76.642792 z "
       id="path16" />
    <path
       style="fill:none;stroke:#000000;stroke-width:0.36000001"
       d="M 168.55079,77.290892 L 159.55079,81.250792"
       id="path18" />
    <path
       style="fill:none;stroke:#000000;stroke-width:0.36000001"
       d="M 69.154791,82.474792 L 73.222791,85.030792"
       id="path20" />
    <path
       style="fill:#ffbe39;stroke:#000000;stroke-width:0.36000001"
       d="M 86.578791,78.082792 C 84.814891,78.082792 83.374791,78.910792 82.834791,79.954892 C 82.834791,81.970792 83.446791,82.150892 84.166791,83.482892 C 90.358791,92.086792 102.02279,95.686792 114.15479,96.406792 C 127.65479,96.118892 140.11079,91.726892 147.52679,82.762892 C 149.21879,80.710892 147.05879,78.262892 144.71879,78.010892 C 125.96279,75.778892 105.87479,76.426792 86.578791,78.082792 L 86.578791,78.082792 z "
       id="path22" />
    <path
       style="fill:#ffffff;stroke:#000000;stroke-width:0.36000001"
       d="M 123.98279,41.758792 C 125.20679,37.870792 128.51879,32.542892 124.52279,27.574792 C 125.13479,12.958792 111.74279,11.878892 108.17879,24.046892 C 105.51479,33.082792 107.67479,41.074792 105.83879,51.298792 C 105.33479,54.106892 102.99479,54.034792 102.34679,51.118892 C 103.75079,43.810792 104.90279,31.930892 98.890791,25.918792 C 91.978891,22.822892 87.766791,23.506892 82.834791,34.378892 C 78.190791,44.746792 78.730791,57.814792 74.122791,68.182792 C 73.834791,68.974792 73.294791,70.342892 72.466791,71.170892 C 73.294791,71.422792 74.914791,71.170892 75.742791,70.342892 C 77.038891,70.702792 79.558791,69.766892 79.558791,67.894892 C 81.574791,68.794792 83.446791,68.578792 83.914791,66.274892 C 85.462791,67.174892 87.550791,66.346792 87.442791,64.366792 C 89.782791,65.770892 91.762891,64.474792 92.086791,63.070792 C 93.922891,63.070792 96.082791,63.106892 97.342791,60.226892 C 97.774791,61.126792 99.322791,61.162892 99.970791,59.470792 C 107.81879,65.770892 102.16679,77.074792 102.16679,85.246792 C 108.50279,86.182792 116.17079,86.650892 127.97879,85.390892 C 128.44679,80.314792 125.13479,67.570792 131.93879,62.746792 C 134.45879,64.222892 135.17879,63.682792 137.80679,62.242792 C 139.46279,64.870792 143.24279,64.870792 144.86279,63.862792 C 145.36679,66.310792 148.42679,67.246792 150.58679,66.742792 C 151.52279,69.118892 153.64679,71.026792 156.13079,69.802792 C 157.21079,70.342892 157.13879,72.466792 159.65879,71.710892 C 159.65879,67.498892 156.41879,61.810792 155.41079,58.102892 C 152.67479,50.470792 151.77479,44.998892 148.49879,37.366792 C 145.76279,31.102892 144.32279,24.658892 134.89079,26.746792 C 128.12279,28.258792 132.15479,33.910792 127.65479,49.138792 C 127.18679,50.794792 122.00279,55.042892 119.44679,54.646792 C 122.21879,51.370792 123.15479,46.402792 123.98279,41.758792 L 123.98279,41.758792 z M 112.21079,46.258792 C 112.93079,41.326892 115.23479,37.870792 117.39479,35.134792 C 116.96279,32.218892 118.61879,29.698792 119.12279,27.034792 C 120.41879,20.302792 113.57879,19.690792 112.60679,28.186792 C 111.95879,34.126792 111.92279,39.742792 112.21079,46.258792 L 112.21079,46.258792 z "
       id="path26" />
    <path
       style="fill:#00a5ff;fill-opacity:1.0000000;stroke:#000000;stroke-width:0.25200000"
       d="M 117.14279,53.746792 C 116.17079,53.242792 115.16279,52.666892 114.73079,50.902792 C 116.24279,46.906792 117.93479,42.802792 119.98679,40.174892 C 120.81479,44.494892 119.37479,49.570792 117.14279,53.746792 L 117.14279,53.746792 z "
       id="path28" />
    <path
       style="fill:#e5edf1;stroke:none"
       d="M 122.11079,55.582792 C 124.52279,55.762892 129.34679,56.410792 131.21879,53.926792 C 131.00279,56.410792 130.17479,59.938892 131.83079,61.990892 C 128.51879,64.078792 127.69079,67.174892 127.29479,71.098892 C 127.07879,74.194792 127.29479,80.818892 127.29479,85.138792 C 122.32679,85.966792 116.53079,86.398892 111.56279,85.966792 C 107.42279,83.698792 107.85479,75.634792 111.16679,71.098892 C 112.39079,64.258792 116.74679,59.110892 122.11079,55.582792 L 122.11079,55.582792 z "
       id="path30" />
    <path
       style="fill:none;stroke:#000000;stroke-width:0.25200000"
       d="M 122.36279,55.402792 C 125.89079,55.402792 127.25879,54.034792 129.70679,52.126792 C 132.69479,48.850792 132.22679,38.770892 133.23479,31.678892 C 134.06279,29.230892 135.68279,28.402792 138.13079,28.690792 C 140.57879,29.230892 143.31479,30.598892 145.51079,34.954892 C 149.32679,46.942892 153.39479,58.102892 157.06679,69.910792"
       id="path32" />
    <path
       style="fill:none;stroke:#000000;stroke-width:0.25200000"
       d="M 75.778791,70.270892 C 80.638791,58.030792 81.430791,42.730892 86.650891,31.930892 C 88.234791,28.690792 91.258891,27.034792 95.362791,28.114892 C 99.718791,29.230892 100.25879,33.298792 99.718791,37.942892 C 99.178791,43.954892 98.890791,51.298792 100.83479,56.734892"
       id="path34" />
    <path
       style="fill:none;stroke:#000000;stroke-width:0.25200000"
       d="M 79.558791,67.822892 L 85.210791,39.850792"
       id="path36" />
    <path
       style="fill:none;stroke:#000000;stroke-width:0.25200000"
       d="M 83.986791,66.382892 L 87.406791,39.094892"
       id="path38" />
    <path
       style="fill:none;stroke:#000000;stroke-width:0.25200000"
       d="M 87.622791,64.618892 L 90.070791,37.654892"
       id="path40" />
    <path
       style="fill:none;stroke:#000000;stroke-width:0.25200000"
       d="M 91.942791,63.070792 L 92.626791,36.106892"
       id="path42" />
    <path
       style="fill:none;stroke:#000000;stroke-width:0.25200000"
       d="M 97.234791,60.190792 L 95.038891,34.558892"
       id="path44" />
    <path
       style="fill:none;stroke:#000000;stroke-width:0.25200000"
       d="M 150.65879,66.850792 L 145.97879,41.506892"
       id="path46" />
    <path
       style="fill:none;stroke:#000000;stroke-width:0.25200000"
       d="M 144.75479,63.934892 L 142.84679,40.102892"
       id="path48" />
    <path
       style="fill:none;stroke:#000000;stroke-width:0.25200000"
       d="M 137.95079,62.242792 L 139.24679,38.302792"
       id="path50" />
    <path
       style="fill:none;stroke:#000000;stroke-width:0.25200000"
       d="M 132.15479,62.350792 L 135.75479,36.718892"
       id="path52" />
    <path
       style="fill:#e5edf1;stroke:#000000;stroke-width:0.36000001"
       d="M 127.25879,62.350792 C 130.13879,63.106892 131.93879,64.654892 133.70279,67.138792 C 138.52679,68.722892 137.15879,73.654892 134.71079,73.978792 C 134.27879,74.734892 134.31479,75.490892 134.78279,76.354792 C 135.75479,76.822892 136.79879,77.470792 137.77079,76.786892 C 138.02279,75.706892 139.64279,75.022792 140.57879,75.634792 C 142.55879,75.850792 142.84679,79.126792 143.38679,82.294792 C 139.06679,83.626792 134.85479,84.274892 130.46279,85.066892 C 128.91479,83.086792 129.02279,79.090792 128.91479,76.390892 C 129.02279,74.806792 130.46279,74.446892 131.29079,73.258792 C 131.65079,72.430892 130.49879,70.558892 130.96679,69.190792 C 129.81479,68.866792 125.92679,67.066892 125.13479,64.006892 C 128.01479,66.058892 129.67079,66.922792 131.00279,67.354792 C 131.90279,66.706892 129.27479,64.510892 127.25879,62.350792 L 127.25879,62.350792 z M 121.67879,60.802792 C 119.73479,61.882892 117.93479,64.222892 116.71079,66.598892 C 115.27079,66.382892 114.51479,67.750792 113.79479,68.794792 C 113.07479,70.594892 114.65879,72.394892 115.77479,73.258792 C 116.38679,74.194792 116.02679,76.354792 113.72279,77.578792 C 113.90279,74.734892 111.16679,75.238792 109.51079,77.218892 C 108.32279,78.838892 106.23479,82.546892 105.55079,85.714892 C 108.75479,86.362792 120.52679,86.110892 123.29879,85.822892 C 123.94679,83.554892 124.73879,81.286892 125.17079,78.946892 C 125.45879,77.542892 124.66679,75.778892 123.40679,75.742792 C 121.75079,75.706892 120.41879,76.678892 119.41079,77.830892 C 119.62679,75.670892 120.49079,73.690792 119.51879,71.602892 C 121.71479,69.406792 123.01079,66.958792 123.83879,64.150892 C 122.90279,63.646792 120.95879,67.210892 119.01479,67.786892 C 119.01479,66.022792 120.38279,62.818892 121.67879,60.802792 L 121.67879,60.802792 z M 112.93079,61.378892 C 111.38279,63.358792 110.33879,65.338892 108.17879,67.390892 C 109.04279,67.786892 113.65079,64.042892 115.81079,63.430892 C 113.25479,65.266892 111.74279,68.218892 108.57479,69.658892 C 107.63879,70.810792 107.02679,71.134792 105.19079,71.530792 C 104.83079,72.862792 101.48279,77.866792 101.55479,77.794792 C 103.78679,75.310792 106.70279,76.426792 105.47879,81.106892 C 105.01079,82.906792 104.25479,84.598892 102.77879,85.426792 C 97.630791,85.102892 89.242791,82.582792 87.010791,81.502892 C 88.234791,78.010892 90.754791,75.166892 93.850791,73.330892 C 96.298791,71.818892 98.458791,73.330892 97.810791,75.670892 C 99.466791,74.626792 101.66279,72.214892 102.20279,70.558892 C 101.73479,69.190792 101.37479,66.526792 103.03079,65.446892 C 104.18279,64.726892 105.47879,64.546892 106.41479,65.014792 C 108.21479,63.430892 111.31079,61.702792 112.93079,61.378892 L 112.93079,61.378892 z "
       id="path54" />
    <path
       style="fill:#ffffff;stroke:#000000;stroke-width:0.36000001"
       d="M 138.02279,76.858792 C 138.59879,76.138792 139.28279,75.058892 140.75879,75.958792 C 142.73879,76.786892 142.81079,80.422792 143.09879,82.114892 C 142.09079,82.690792 139.85879,83.194792 138.59879,83.446892 C 138.20279,81.790892 137.59079,78.550892 135.61079,77.038892 C 137.26679,77.470792 137.87879,76.858792 138.02279,76.858792 L 138.02279,76.858792 z M 113.36279,77.866792 C 110.48279,79.630792 110.55479,83.590792 108.21479,85.930892 C 107.38679,85.930892 107.24279,85.858792 105.91079,85.606892 C 105.98279,84.598892 108.21479,78.118892 110.05079,77.038892 C 112.10279,74.698792 114.04679,76.030792 113.36279,77.866792 L 113.36279,77.866792 z M 97.450791,75.958792 C 94.930791,76.858792 91.402791,79.198792 89.566791,82.186792 C 88.738791,81.790892 87.910791,81.898892 87.406791,81.286892 C 88.306791,78.298792 92.302791,73.726892 95.110791,73.114892 C 96.370891,72.862792 98.098791,73.546892 97.450791,75.958792 L 97.450791,75.958792 z "
       id="path56" />
    <path
       style="fill:#bd8d00;stroke:none"
       d="M 142.73879,79.198792 C 143.53079,79.090792 146.48279,79.954892 145.36679,81.466792 C 132.51479,86.434892 101.01479,89.350792 84.598791,80.134792 C 85.174791,79.306792 86.866791,78.946892 88.090891,79.198792 C 87.226791,78.442892 86.218791,78.370792 85.066791,78.838892 C 84.058791,79.126792 83.014791,79.306792 83.302791,80.998892 C 91.330791,86.398892 103.64279,89.458792 113.39879,89.638792 C 126.25079,89.062892 138.45479,87.442892 146.30279,82.690792 C 147.59879,81.934892 147.81479,80.890892 147.34679,79.594892 C 146.12279,78.730892 144.43079,78.262892 142.73879,79.198792 L 142.73879,79.198792 z "
       id="path58" />
    <path
       style="fill:#bd8d00;stroke:none"
       d="M 123.33479,32.110892 C 123.87479,33.334892 123.80279,34.882892 122.68679,35.422792 C 121.82279,34.306792 122.25479,32.830892 123.33479,32.110892 L 123.33479,32.110892 z M 133.66679,68.002892 C 133.88279,68.002892 134.17079,68.218892 134.17079,68.434892 C 134.17079,68.686792 133.88279,68.866792 133.66679,68.866792 C 133.45079,68.866792 133.23479,68.686792 133.23479,68.434892 C 133.23479,68.218892 133.45079,68.002892 133.66679,68.002892 L 133.66679,68.002892 z M 116.60279,67.714892 C 116.81879,67.714892 117.10679,67.930892 117.10679,68.146792 C 117.10679,68.398892 116.81879,68.578792 116.60279,68.578792 C 116.38679,68.578792 116.17079,68.398892 116.17079,68.146792 C 116.17079,67.930892 116.38679,67.714892 116.60279,67.714892 L 116.60279,67.714892 z M 105.91079,66.022792 C 106.12679,66.022792 106.41479,66.238792 106.41479,66.454892 C 106.41479,66.706892 106.12679,66.886892 105.91079,66.886892 C 105.69479,66.886892 105.47879,66.706892 105.47879,66.454892 C 105.47879,66.238792 105.69479,66.022792 105.91079,66.022792 L 105.91079,66.022792 z "
       id="path60" />
    <path
       style="fill:none;stroke:#000000;stroke-width:0.36000001"
       d="M 136.69079,87.298792 C 138.88679,87.694792 140.86679,85.390892 143.06279,86.038892 C 143.27879,86.038892 143.56679,86.326892 143.67479,86.434892"
       id="path62" />
    <path
       style="fill:none;stroke:#000000;stroke-width:0.36000001"
       d="M 128.95079,89.206892 C 131.14679,89.350792 133.30679,88.054892 135.53879,88.234892 C 137.73479,88.378892 137.59079,89.206892 139.82279,89.386892"
       id="path64" />
    <path
       style="fill:none;stroke:#000000;stroke-width:0.36000001"
       d="M 123.40679,92.014792 C 125.60279,92.158892 127.76279,90.862792 129.99479,91.042892 C 132.19079,91.186792 132.04679,92.014792 134.27879,92.194792"
       id="path66" />
    <path
       style="fill:none;stroke:#000000;stroke-width:0.36000001"
       d="M 117.97079,90.538892 C 120.16679,90.682792 122.32679,89.386892 124.55879,89.566892 C 126.75479,89.710892 129.02279,91.294792 131.25479,91.474792"
       id="path68" />
    <path
       style="fill:none;stroke:#000000;stroke-width:0.36000001"
       d="M 113.57879,95.146792 C 115.77479,95.290892 117.93479,93.994892 120.16679,94.174892 C 122.36279,94.318892 122.21879,95.146792 124.45079,95.326892"
       id="path70" />
    <path
       style="fill:none;stroke:#000000;stroke-width:0.36000001"
       d="M 111.27479,92.626792 C 113.47079,92.770892 115.63079,91.474792 117.86279,91.654892 C 120.05879,91.798792 122.32679,93.382892 124.55879,93.562892"
       id="path72" />
    <path
       style="fill:none;stroke:#000000;stroke-width:0.36000001"
       d="M 99.574791,93.166892 C 101.77079,93.310792 103.93079,92.014792 106.16279,92.194792 C 108.35879,92.338892 110.62679,93.922792 112.85879,94.102892"
       id="path74" />
    <path
       style="fill:none;stroke:#000000;stroke-width:0.36000001"
       d="M 105.76679,91.690792 C 103.57079,91.834892 101.41079,90.538892 99.178791,90.718892 C 96.982891,90.862792 97.126791,91.690792 94.894791,91.870792"
       id="path76" />
    <path
       style="fill:none;stroke:#000000;stroke-width:0.36000001"
       d="M 99.790791,90.646792 C 101.98679,90.790892 104.14679,89.494892 106.37879,89.674892 C 108.57479,89.818892 110.84279,91.402792 113.07479,91.582792"
       id="path78" />
    <path
       style="fill:none;stroke:#000000;stroke-width:0.36000001"
       d="M 101.59079,89.422792 C 99.394791,89.566892 97.234791,88.270892 95.002791,88.450892 C 92.806791,88.594892 92.950791,89.422792 90.718791,89.602892"
       id="path80" />
    <path
       style="fill:none;stroke:#000000;stroke-width:0.36000001"
       d="M 97.702891,87.802792 C 95.506791,87.946892 93.346791,85.858792 91.114791,86.038892 C 88.918791,86.182792 89.494791,86.542892 87.262891,86.722892"
       id="path82" />
    <path
       style="fill:none;stroke:#000000;stroke-width:0.36000001"
       d="M 84.742791,83.842892 C 86.110791,84.346792 88.522791,84.670892 89.566791,85.714892"
       id="path84" />
    <path
       style="fill:none;stroke:#000000;stroke-width:0.10800000"
       d="M 112.24679,46.042892 C 111.38279,50.038892 111.45479,54.322892 111.77879,57.238792 C 114.80279,51.622892 116.92679,43.990892 119.95079,40.174892 C 121.13879,46.510892 118.11479,51.766892 115.84679,56.374892 C 117.43079,56.050892 118.29479,55.582792 119.33879,54.718892"
       id="path86" />
    <path
       style="fill:#ffffff;stroke:#000000;stroke-width:0.36000001"
       d="M 58.570791,76.642792 C 86.218791,107.74679 135.10679,117.39479 174.09479,74.734892 C 177.37079,77.830892 180.64679,80.926792 183.92279,84.022792 C 132.94679,135.21479 76.822791,117.25079 47.950791,83.194792 C 51.478791,80.998892 55.042791,78.838892 58.570791,76.642792 L 58.570791,76.642792 z "
       id="path88" />
    <text
       sodipodi:linespacing="125.00000%"
       id="text2127"
       style="font-size:9.0000000px;font-style:normal;font-variant:normal;font-weight:normal;font-stretch:normal;text-align:start;line-height:125.00000%;writing-mode:lr-tb;text-anchor:start;fill:#000000;fill-opacity:1.0000000;stroke:none;stroke-width:0.0000000;stroke-linecap:butt;stroke-linejoin:miter;stroke-miterlimit:4.0000000;stroke-dasharray:none;stroke-opacity:1.0000000;font-family:Bitstream Vera Sans"
       xml:space="preserve"><textPath
         id="textPath2910"
         xlink:href="#path2143"><tspan
   style="stroke-width:0.0000000;stroke-miterlimit:4.0000000;stroke-dasharray:none"
   id="tspan2129">UNION JUSTICE &amp; CONFIDENCE</tspan></textPath></text>
    <path
       sodipodi:nodetypes="cc"
       id="path2143"
       d="M 53.922087,86.967380 C 89.192401,119.56798 141.31740,123.86593 180.81465,83.023798"
       style="fill:none;fill-opacity:0.75000000;fill-rule:evenodd;stroke:#000000;stroke-width:0.0000000;stroke-linecap:butt;stroke-linejoin:miter;stroke-miterlimit:4.0000000;stroke-dasharray:none;stroke-opacity:1.0000000" />
    <path
       sodipodi:nodetypes="cccccc"
       id="path3653"
       d="M 112.21079,46.258792 C 112.93079,41.326892 115.23479,37.870792 117.39479,35.134792 C 116.96279,32.218892 118.61879,29.698792 119.12279,27.034792 C 120.41879,20.302792 113.57879,19.690792 112.60679,28.186792 C 111.95879,34.126792 111.92279,39.742792 112.21079,46.258792 L 112.21079,46.258792 z "
       style="fill:#00a5ff;fill-opacity:1.0000000;stroke:#000000;stroke-width:0.40000001;stroke-miterlimit:4.0000000;stroke-dasharray:none" />
  </g>
</svg>
