<?xml version="1.0" encoding="UTF-8" standalone="no"?>
<svg
   xmlns:dc="http://purl.org/dc/elements/1.1/"
   xmlns:cc="http://web.resource.org/cc/"
   xmlns:rdf="http://www.w3.org/1999/02/22-rdf-syntax-ns#"
   xmlns:svg="http://www.w3.org/2000/svg"
   xmlns="http://www.w3.org/2000/svg"
   xmlns:sodipodi="http://inkscape.sourceforge.net/DTD/sodipodi-0.dtd"
   xmlns:inkscape="http://www.inkscape.org/namespaces/inkscape"
   width="696"
   height="398"
   id="svg2"
   sodipodi:version="0.32"
   inkscape:version="0.42"
   sodipodi:docname="usa_iowa.svg"
   sodipodi:docbase="/home/demailly/nnew/gis_data/flags/newsvg">
  <metadata
     id="metadata143">
    <rdf:RDF>
      <cc:Work
         rdf:about="">
        <dc:format>image/svg+xml</dc:format>
        <dc:type
           rdf:resource="http://purl.org/dc/dcmitype/StillImage" />
      </cc:Work>
    </rdf:RDF>
  </metadata>
  <sodipodi:namedview
     inkscape:cy="182.65718"
     inkscape:cx="434.55208"
     inkscape:zoom="1.4142136"
     inkscape:window-height="904"
     inkscape:window-width="1358"
     inkscape:pageshadow="2"
     inkscape:pageopacity="0.0"
     borderopacity="1.0"
     bordercolor="#666666"
     pagecolor="#ffffff"
     id="base"
     inkscape:window-x="474"
     inkscape:window-y="0"
     inkscape:current-layer="svg2" />
  <defs
     id="defs4">
    <marker
       id="ArrowEnd"
       viewBox="0 0 10 10"
       refX="0"
       refY="5"
       markerUnits="strokeWidth"
       markerWidth="4"
       markerHeight="3"
       orient="auto">
      <path
         d="M 0 0 L 10 5 L 0 10 z"
         id="path7" />
    </marker>
    <marker
       id="ArrowStart"
       viewBox="0 0 10 10"
       refX="10"
       refY="5"
       markerUnits="strokeWidth"
       markerWidth="4"
       markerHeight="3"
       orient="auto">
      <path
         d="M 10 0 L 0 5 L 10 10 z"
         id="path10" />
    </marker>
  </defs>
  <path
     id="path14"
     d="M 0.89248300,0.68605000 L 695.44036,0.68605000 L 695.44036,397.04593 L 0.89248300,397.04593 L 0.89248300,0.68605000 L 0.89248300,0.68605000 z "
     style="fill:#ffffff;stroke:none" />
  <path
     id="path16"
     d="M 1.0004530,0.79399000 L 175.09636,0.79399000 L 175.09636,397.04593 L 1.0004530,397.04593 L 1.0004530,0.79399000 L 1.0004530,0.79399000 z "
     style="fill:#0000ff;stroke:#000000;stroke-width:1.0800000" />
  <path
     id="path18"
     d="M 695.44036,0.79399000 L 520.26436,0.79399000 L 520.26436,397.04593 L 695.44036,397.04593 L 695.44036,0.79399000 L 695.44036,0.79399000 z "
     style="fill:#ff0000;stroke:none" />
  <path
     id="path20"
     d="M 0.89248300,0.68605000 L 695.44036,0.68605000 L 695.44036,397.04593 L 0.89248300,397.04593 L 0.89248300,0.68605000 L 0.89248300,0.68605000 z "
     style="fill:none;stroke:#000000;stroke-width:1.2960000" />
  <path
     id="path22"
     d="M 301.34836,326.19793 L 298.64836,326.19793 L 298.64836,300.81793 L 301.34836,300.81793 L 301.34836,326.19793 L 301.34836,326.19793 z M 305.45236,313.23793 C 305.45236,311.72593 305.88436,310.10593 306.42436,308.59393 C 307.18036,307.08193 308.15236,305.67793 309.23236,304.48993 C 310.20436,303.19393 311.82436,302.22193 313.33636,301.46593 C 315.06436,300.70993 317.00836,300.27793 318.84436,300.27793 C 321.00436,300.27793 323.59636,300.92593 325.64836,302.11393 C 327.59236,303.40993 329.42836,305.02993 330.50836,307.08193 C 331.69636,309.13393 332.45236,311.50993 332.45236,313.88593 C 332.45236,316.36993 331.48036,318.63793 330.29236,320.68993 C 328.99636,322.74193 327.16036,324.25393 325.00036,325.22593 C 322.94836,326.19793 320.78836,326.62993 318.62836,326.62993 C 316.46836,326.62993 314.20036,326.08993 312.14836,325.11793 C 310.20436,323.92993 308.47636,322.30993 307.28836,320.25793 C 305.99236,318.20593 305.45236,315.82993 305.45236,313.23793 L 305.45236,313.23793 z M 308.04436,313.12993 C 308.04436,315.72193 308.58436,317.88193 309.88036,319.50193 C 310.96036,321.33793 312.36436,322.52593 313.98436,323.17393 C 315.60436,323.92993 317.22436,324.25393 318.84436,324.25393 C 321.43636,324.25393 323.81236,323.28193 325.97236,321.55393 C 328.45636,319.71793 329.53636,317.12593 329.96836,313.77793 C 329.96836,311.72593 329.53636,309.67393 328.56436,308.05393 C 327.48436,306.43393 325.97236,305.02993 324.35236,304.16593 C 322.51636,303.08593 320.68036,302.65393 318.84436,302.65393 C 317.00836,302.65393 315.06436,303.08593 313.33636,304.16593 C 311.71636,305.13793 310.20436,306.64993 309.34036,308.16193 C 308.36836,309.67393 308.04436,311.50993 308.04436,313.12993 L 308.04436,313.12993 z M 357.61636,322.95793 L 363.98836,300.81793 L 366.68836,300.81793 L 359.34436,326.19793 L 355.99636,326.19793 L 350.27236,305.35393 L 344.76436,326.19793 L 341.30836,326.19793 L 334.18036,300.81793 L 336.55636,300.81793 L 343.03636,322.95793 L 349.08436,300.81793 L 351.56836,300.81793 L 357.61636,322.95793 L 357.61636,322.95793 z M 375.86836,300.81793 L 378.67636,300.81793 L 389.80036,326.19793 L 386.99236,326.19793 L 383.10436,317.55793 L 371.44036,317.55793 L 367.76836,326.19793 L 365.06836,326.19793 L 375.86836,300.81793 L 375.86836,300.81793 z M 377.38036,303.62593 L 372.41236,315.28993 L 382.24036,315.28993 L 377.38036,303.62593 L 377.38036,303.62593 z "
     style="fill:#d10000;stroke:#000000;stroke-width:0.32400000" />
  <path
     id="path24"
     d="M 375.54436,202.10593 C 386.12836,197.13793 401.14036,198.54193 411.50836,193.78993 C 415.61236,195.84193 454.92436,181.36993 445.96036,199.18993 C 448.01236,203.40193 444.44836,206.20993 444.44836,209.55793 C 447.25636,210.96193 460.43236,208.26193 461.62036,213.01393 C 467.34436,229.53793 442.82836,242.71393 432.24436,234.39793 C 427.16836,230.50993 420.36436,229.42993 419.82436,233.10193 C 419.17636,236.77393 416.26036,238.60993 413.56036,243.36193 C 417.12436,244.65793 424.57636,245.52193 428.03236,245.41393 C 439.15636,244.98193 441.53236,247.24993 439.04836,257.83393 C 437.32036,264.96193 420.14836,262.69393 407.94436,268.63393 C 409.45636,265.17793 411.50836,261.93793 414.96436,259.88593 C 412.91236,257.07793 395.41636,253.08193 392.06836,253.08193 C 385.69636,253.72993 357.50836,266.79793 361.39636,243.36193 C 363.23236,232.34593 386.66836,235.80193 390.98836,237.85393 L 390.98836,237.85393 L 392.17636,236.44993 L 392.17636,236.44993 C 377.59636,216.46993 423.60436,220.14193 425.22436,210.31393 C 422.41636,208.90993 419.17636,210.31393 417.12436,209.55793 C 402.00436,212.68993 386.66836,207.50593 374.46436,210.31393 C 372.95236,210.31393 371.65636,209.55793 371.00836,208.90993 C 363.44836,226.40593 358.48036,243.79393 337.20436,252.75793 C 333.20836,254.16193 313.87636,261.93793 310.31236,254.37793 C 309.12436,252.32593 309.44836,247.78993 306.20836,247.03393 C 298.54036,245.73793 276.72436,267.98593 267.11236,255.56593 C 261.82036,248.54593 262.68436,248.43793 269.81236,243.36193 C 269.81236,242.60593 269.05636,241.30993 269.05636,240.55393 C 259.87636,247.68193 237.19636,238.17793 252.10036,226.83793 C 250.69636,224.02993 248.10436,224.78593 245.29636,224.02993 C 231.25636,207.61393 251.45236,199.18993 257.39236,197.13793 C 258.90436,197.13793 261.06436,195.51793 261.06436,194.11393 C 260.09236,191.62993 257.28436,192.06193 259.33636,189.14593 C 261.49636,186.22993 270.67636,181.90993 274.13236,183.31393 C 279.42436,187.30993 282.55636,192.81793 279.85636,200.91793 C 277.69636,206.64193 256.85236,214.41793 253.39636,217.87393 C 254.04436,219.27793 256.09636,221.32993 258.14836,221.32993 C 260.95636,221.32993 268.51636,215.06593 271.21636,214.41793 C 275.42836,213.01393 279.42436,210.31393 283.52836,208.90993 C 291.95236,206.20993 301.99636,204.26593 311.82436,203.50993 C 324.35236,202.53793 323.70436,207.82993 325.54036,217.54993 C 327.16036,218.73793 333.31636,214.63393 337.85236,215.71393 C 340.01236,216.25393 342.06436,225.75793 343.46836,227.70193 C 351.78436,215.17393 358.37236,206.42593 375.54436,202.10593 L 375.54436,202.10593 z "
     style="fill:#deffff;stroke:#001886;stroke-width:0.92400000;fill-opacity:1.0000000;stroke-opacity:1.0000000;stroke-miterlimit:4.0000000;stroke-dasharray:none" />
  <path
     id="path26"
     d="M 344.11636,198.97393 C 342.06436,198.86593 314.09236,200.16193 310.31236,182.01793 C 305.23636,176.83393 306.64036,173.16193 295.62436,170.56993 C 294.11236,171.21793 293.03236,172.72993 289.79236,169.05793 C 286.12036,170.02993 283.09636,169.48993 282.98836,166.57393 C 281.80036,166.68193 275.96836,167.86993 274.24036,164.30593 C 268.94836,164.41393 265.92436,164.73793 264.52036,162.57793 C 261.60436,161.38993 256.20436,164.19793 253.28836,159.76993 C 248.10436,159.12193 243.35236,160.30993 239.46436,155.55793 C 236.22436,155.66593 228.98836,155.88193 228.77236,153.93793 C 256.31236,146.70193 293.78836,131.79793 322.73236,142.16593 C 336.44836,147.78193 334.50436,158.25793 334.93636,169.70593 C 342.06436,165.27793 346.92436,165.27793 352.21636,168.30193 C 355.56436,164.41393 354.48436,158.90593 354.48436,154.58593 C 354.48436,145.08193 365.17636,138.06193 377.05636,138.81793 C 393.25636,139.89793 407.72836,142.48993 423.60436,145.72993 C 433.97236,147.88993 452.65636,144.75793 462.48436,151.88593 C 461.29636,155.66593 451.46836,155.34193 448.01236,153.93793 C 444.88036,156.96193 439.91236,157.93393 434.29636,157.17793 C 428.35636,159.76993 419.82436,159.66193 415.61236,160.74193 C 406.00036,163.44193 396.28036,171.75793 386.66836,173.80993 C 387.42436,175.86193 386.12836,177.26593 386.12836,179.31793 C 386.66836,181.36993 403.30036,191.73793 397.03636,193.78993 C 393.04036,195.08593 377.81236,196.48993 374.46436,194.43793 C 365.06836,196.48993 353.51236,199.72993 344.11636,198.97393 L 344.11636,198.97393 z "
     style="fill:#a64900;stroke:#000000;stroke-width:0.32400000;fill-opacity:1.0000000" />
  <path
     id="path28"
     d="M 300.48436,243.79393 L 297.35236,237.09793 L 297.35236,237.09793 C 296.70436,235.90993 296.48836,235.80193 295.84036,235.80193 L 295.84036,235.80193 L 298.86436,234.39793 L 298.86436,234.39793 C 301.99636,233.10193 303.40036,234.18193 303.94036,235.26193 C 304.91236,237.09793 303.18436,239.04193 302.32036,239.47393 C 301.45636,239.90593 300.91636,239.90593 300.70036,239.68993 C 301.99636,239.36593 302.96836,237.85393 302.32036,236.44993 C 301.56436,234.82993 299.94436,235.15393 298.64836,235.90993 L 298.64836,235.90993 L 301.99636,243.03793 L 301.99636,243.03793 C 302.32036,243.90193 302.75236,244.00993 303.29236,244.11793 L 303.29236,244.11793 L 300.37636,245.52193 L 300.37636,245.52193 C 300.59236,245.08993 300.70036,244.44193 300.48436,243.79393 L 300.48436,243.79393 z "
     style="fill:#001886;stroke:#ffffff;stroke-width:0.0000000;fill-opacity:1.0000000;stroke-miterlimit:4.0000000;stroke-dasharray:none" />
  <path
     id="path30"
     d="M 307.18036,239.36593 L 304.26436,233.10193 L 304.26436,233.10193 C 303.61636,232.02193 303.40036,232.23793 303.07636,232.02193 L 303.07636,232.02193 L 305.88436,230.83393 L 305.88436,230.83393 C 307.39636,229.96993 309.01636,230.07793 309.77236,231.58993 C 310.31236,232.88593 309.55636,234.18193 308.90836,234.72193 C 310.96036,235.69393 312.79636,236.98993 314.74036,236.98993 L 314.74036,236.98993 L 313.33636,237.63793 L 313.33636,237.63793 C 312.79636,237.96193 312.25636,238.06993 311.39236,237.63793 L 311.39236,237.63793 L 307.18036,235.36993 L 307.18036,235.36993 C 308.36836,233.96593 309.01636,233.31793 308.36836,232.23793 C 308.04436,231.26593 306.85636,231.15793 305.45236,232.23793 L 305.45236,232.23793 L 308.36836,238.71793 L 308.36836,238.71793 C 308.80036,239.14993 309.12436,239.47393 309.55636,239.47393 L 309.55636,239.47393 L 307.07236,240.55393 L 307.07236,240.55393 C 307.39636,240.33793 307.39636,239.90593 307.18036,239.36593 L 307.18036,239.36593 z "
     style="fill:#001886;stroke:#ffffff;stroke-width:0.0000000;fill-opacity:1.0000000;stroke-miterlimit:4.0000000;stroke-dasharray:none" />
  <path
     id="path32"
     d="M 315.06436,236.12593 L 312.14836,229.75393 L 312.14836,229.75393 C 311.93236,229.21393 311.50036,228.88993 310.96036,228.67393 L 310.96036,228.67393 L 313.44436,227.48593 L 313.44436,227.48593 C 313.22836,228.02593 313.22836,228.34993 313.44436,229.10593 L 313.44436,229.10593 L 316.57636,235.47793 L 316.57636,235.47793 C 316.79236,236.01793 317.44036,236.34193 317.98036,236.12593 L 317.98036,236.12593 L 315.06436,237.52993 L 315.06436,237.52993 C 315.06436,237.31393 315.49636,236.88193 315.06436,236.12593 L 315.06436,236.12593 z "
     style="fill:#001886;stroke:#ffffff;stroke-width:0.0000000;fill-opacity:1.0000000;stroke-miterlimit:4.0000000;stroke-dasharray:none" />
  <path
     id="path34"
     d="M 318.52036,235.58593 L 319.49236,225.64993 L 319.49236,225.64993 C 318.52036,225.97393 316.14436,226.83793 315.60436,228.34993 L 315.60436,228.34993 L 315.49636,226.29793 L 321.54436,223.48993 L 320.35636,233.53393 L 320.35636,233.53393 C 321.43636,232.77793 324.02836,232.45393 325.43236,230.40193 L 325.43236,230.40193 L 325.43236,232.34593 L 318.52036,235.58593 L 318.52036,235.58593 z "
     style="fill:#001886;stroke:#ffffff;stroke-width:0.0000000;fill-opacity:1.0000000;stroke-miterlimit:4.0000000;stroke-dasharray:none" />
  <path
     id="path36"
     d="M 327.37636,229.86193 L 324.56836,223.92193 L 324.56836,223.92193 C 324.35236,223.48993 324.02836,223.05793 323.48836,222.84193 L 323.48836,222.84193 L 327.48436,220.89793 L 327.48436,220.89793 C 327.59236,220.89793 327.80836,220.78993 328.13236,220.46593 L 328.13236,220.46593 L 328.78036,222.19393 L 328.78036,222.19393 C 328.13236,221.65393 326.94436,222.30193 325.64836,222.94993 L 325.64836,222.94993 L 326.72836,225.21793 L 327.91636,224.67793 L 327.91636,224.67793 C 328.45636,224.46193 328.67236,224.35393 328.78036,224.24593 L 328.78036,224.24593 L 329.53636,225.54193 L 329.53636,225.54193 C 329.21236,225.43393 328.56436,225.43393 328.13236,225.75793 L 328.13236,225.75793 L 327.26836,226.18993 L 328.56436,229.21393 L 328.56436,229.21393 C 330.07636,228.78193 331.69636,228.34993 332.45236,226.72993 L 332.45236,226.72993 L 332.56036,228.56593 L 327.37636,231.04993 L 327.37636,231.04993 C 327.59236,230.50993 327.48436,230.29393 327.37636,229.86193 L 327.37636,229.86193 z "
     style="fill:#001886;stroke:#ffffff;stroke-width:0.0000000;fill-opacity:1.0000000;stroke-miterlimit:4.0000000;stroke-dasharray:none" />
  <path
     id="path38"
     d="M 330.40036,238.17793 C 331.58836,236.88193 332.34436,236.12593 331.58836,234.07393 C 329.10436,235.47793 322.08436,236.88193 321.54436,240.22993 C 323.59636,240.87793 328.45636,238.82593 330.40036,238.17793 L 330.40036,238.17793 z M 280.28836,227.59393 C 278.34436,229.64593 273.48436,230.94193 271.43236,232.99393 C 274.13236,235.90993 277.26436,238.28593 278.56036,241.95793 C 282.98836,239.25793 311.17636,229.42993 309.77236,220.78993 C 309.01636,216.68593 283.52836,226.29793 280.28836,227.59393 L 280.28836,227.59393 z "
     style="fill:#ffffff;stroke:#001886;stroke-width:1.0240000;stroke-miterlimit:4.0000000;stroke-dasharray:none;stroke-opacity:1.0000000" />
  <path
     id="path40"
     d="M 310.20436,181.26193 C 310.09636,177.58993 311.39236,175.64593 314.41636,172.51393"
     style="fill:none;stroke:#000000;stroke-width:1.0800000" />
  <path
     id="path42"
     d="M 310.96036,167.11393 C 309.77236,170.13793 307.18036,172.29793 303.40036,173.70193"
     style="fill:none;stroke:#000000;stroke-width:1.0800000" />
  <path
     id="path44"
     d="M 304.58836,165.60193 C 303.07636,168.19393 299.62036,169.81393 296.38036,170.78593"
     style="fill:none;stroke:#000000;stroke-width:1.0800000" />
  <path
     id="path46"
     d="M 290.22436,169.16593 C 294.32836,168.51793 298.21636,166.68193 300.91636,163.22593"
     style="fill:none;stroke:#000000;stroke-width:1.0800000" />
  <path
     id="path48"
     d="M 283.20436,166.46593 C 287.74036,165.70993 291.41236,163.87393 294.86836,161.06593"
     style="fill:none;stroke:#000000;stroke-width:1.0800000" />
  <path
     id="path50"
     d="M 274.24036,164.19793 C 280.93636,162.57793 286.12036,160.63393 290.98036,157.50193"
     style="fill:none;stroke:#000000;stroke-width:1.0800000" />
  <path
     id="path52"
     d="M 263.87236,162.14593 C 270.67636,160.74193 278.45236,158.36593 284.82436,155.23393"
     style="fill:none;stroke:#000000;stroke-width:1.0800000" />
  <path
     id="path54"
     d="M 253.18036,159.76993 C 261.49636,159.98593 273.59236,156.52993 279.42436,153.07393"
     style="fill:none;stroke:#000000;stroke-width:1.0800000" />
  <path
     id="path56"
     d="M 239.68036,155.44993 C 252.10036,154.15393 264.95236,151.88593 276.07636,148.86193"
     style="fill:none;stroke:#000000;stroke-width:1.0800000" />
  <path
     id="path58"
     d="M 371.22436,183.85393 C 372.84436,188.71393 375.97636,192.16993 380.83636,195.51793"
     style="fill:none;stroke:#000000;stroke-width:1.0800000" />
  <path
     id="path60"
     d="M 369.06436,187.52593 C 369.82036,190.54993 371.22436,193.14193 374.68036,194.54593"
     style="fill:none;stroke:#000000;stroke-width:1.0800000" />
  <path
     id="path62"
     d="M 377.59636,182.01793 C 379.00036,187.52593 383.64436,192.49393 388.18036,195.51793"
     style="fill:none;stroke:#000000;stroke-width:1.0800000" />
  <path
     id="path64"
     d="M 383.21236,181.26193 C 383.53636,187.52593 388.18036,190.54993 393.79636,194.65393"
     style="fill:none;stroke:#000000;stroke-width:1.0800000" />
  <path
     id="path66"
     d="M 448.44436,153.93793 C 438.61636,153.50593 429.11236,151.77793 420.68836,149.40193"
     style="fill:none;stroke:#000000;stroke-width:1.0800000" />
  <path
     id="path68"
     d="M 433.64836,157.06993 C 427.16836,156.42193 421.66036,154.58593 416.58436,152.42593"
     style="fill:none;stroke:#000000;stroke-width:1.0800000" />
  <path
     id="path70"
     d="M 408.91636,155.12593 C 412.48036,157.39393 416.47636,159.12193 422.09236,160.09393"
     style="fill:none;stroke:#000000;stroke-width:1.0800000" />
  <path
     id="path72"
     d="M 402.76036,157.50193 C 404.38036,160.09393 407.40436,161.71393 412.04836,162.57793"
     style="fill:none;stroke:#000000;stroke-width:1.0800000" />
  <path
     id="path74"
     d="M 395.20036,160.74193 C 397.14436,162.90193 400.16836,164.84593 403.73236,165.81793"
     style="fill:none;stroke:#000000;stroke-width:1.0800000" />
  <path
     id="path76"
     d="M 389.26036,163.44193 C 391.20436,165.81793 394.44436,167.86993 398.54836,169.05793"
     style="fill:none;stroke:#000000;stroke-width:1.0800000" />
  <path
     id="path78"
     d="M 385.37236,166.89793 C 386.99236,169.16593 388.61236,170.78593 391.96036,171.75793"
     style="fill:none;stroke:#000000;stroke-width:1.0800000" />
  <path
     id="path80"
     d="M 333.96436,170.89393 C 332.66836,170.56993 330.18436,169.81393 329.75236,168.30193 C 324.46036,154.58593 327.59236,152.74993 312.79636,146.80993 C 303.50836,142.70593 270.02836,147.67393 278.02036,147.56593 C 289.03636,147.34993 316.03636,166.78993 322.40836,174.24193 C 326.83636,171.97393 329.53636,170.89393 333.96436,170.89393 L 333.96436,170.89393 z "
     style="fill:none;stroke:#000000;stroke-width:1.0800000" />
  <path
     id="path82"
     d="M 284.17636,149.07793 C 289.90036,147.88993 297.67636,144.54193 303.18436,144.54193"
     style="fill:none;stroke:#000000;stroke-width:1.0800000" />
  <path
     id="path84"
     d="M 288.71236,151.02193 C 295.84036,149.94193 302.32036,148.86193 309.12436,146.48593"
     style="fill:none;stroke:#000000;stroke-width:1.0800000" />
  <path
     id="path86"
     d="M 294.97636,154.26193 C 302.32036,154.04593 309.55636,152.31793 316.14436,149.94193"
     style="fill:none;stroke:#000000;stroke-width:1.0800000" />
  <path
     id="path88"
     d="M 300.37636,157.50193 C 307.18036,157.93393 315.71236,155.55793 320.89636,153.07393"
     style="fill:none;stroke:#000000;stroke-width:1.0800000" />
  <path
     id="path90"
     d="M 305.99236,160.09393 C 313.87636,160.30993 318.73636,158.58193 324.89236,156.85393"
     style="fill:none;stroke:#000000;stroke-width:1.0800000" />
  <path
     id="path92"
     d="M 310.31236,163.22593 C 315.28036,164.19793 321.65236,162.14593 326.40436,160.30993"
     style="fill:none;stroke:#000000;stroke-width:1.0800000" />
  <path
     id="path94"
     d="M 314.20036,167.11393 C 319.92436,167.65393 325.00036,165.70993 328.67236,163.44193"
     style="fill:none;stroke:#000000;stroke-width:1.0800000" />
  <path
     id="path96"
     d="M 319.38436,170.46193 C 322.94836,170.56993 326.18836,169.48993 329.75236,168.30193"
     style="fill:none;stroke:#000000;stroke-width:1.0800000" />
  <path
     id="path98"
     d="M 406.86436,147.88993 C 407.94436,147.88993 413.12836,149.94193 413.12836,152.20993 C 413.12836,152.20993 389.47636,159.44593 387.53236,162.57793 C 384.61636,167.22193 373.60036,178.45393 366.47236,178.45393"
     style="fill:none;stroke:#000000;stroke-width:1.0800000" />
  <path
     id="path100"
     d="M 364.52836,167.22193 C 361.61236,151.66993 382.13236,143.13793 394.22836,143.13793"
     style="fill:none;stroke:#000000;stroke-width:1.0800000" />
  <path
     id="path102"
     d="M 248.53636,210.74593 C 249.18436,212.04193 250.15636,212.79793 251.45236,213.22993 C 252.85636,213.55393 254.15236,213.33793 255.23236,212.68993 C 256.42036,212.04193 257.17636,210.96193 257.50036,209.66593 C 257.93236,208.36993 257.71636,207.07393 257.06836,205.77793 C 256.31236,204.69793 255.23236,203.94193 254.04436,203.50993 C 252.64036,203.18593 251.45236,203.29393 250.26436,204.04993 C 249.72436,204.26593 249.40036,204.69793 248.96836,205.12993 C 248.53636,205.56193 248.32036,205.99393 248.10436,206.53393 C 247.78036,207.28993 247.67236,207.93793 247.78036,208.69393 C 247.78036,209.44993 248.10436,210.20593 248.53636,210.74593 L 248.53636,210.74593 z M 247.45636,211.39393 C 246.91636,210.63793 246.70036,209.88193 246.59236,209.01793 C 246.59236,208.26193 246.59236,207.50593 246.70036,206.64193 C 247.13236,205.88593 247.45636,205.12993 247.78036,204.58993 C 248.42836,203.94193 248.96836,203.40193 249.61636,202.96993 C 250.48036,202.53793 251.12836,202.32193 251.88436,202.21393 C 252.64036,202.10593 253.39636,202.21393 254.26036,202.42993 C 255.12436,202.53793 255.88036,202.86193 256.42036,203.40193 C 257.06836,203.83393 257.50036,204.48193 258.04036,205.23793 C 258.36436,205.99393 258.79636,206.74993 258.90436,207.39793 C 259.01236,208.26193 259.01236,209.01793 258.79636,209.66593 C 258.47236,210.63793 258.14836,211.39393 257.82436,212.04193 C 257.17636,212.68993 256.52836,213.33793 255.88036,213.76993 C 254.36836,214.63393 252.85636,214.84993 251.23636,214.30993 C 249.50836,213.87793 248.32036,212.90593 247.45636,211.39393 L 247.45636,211.39393 z M 256.20436,199.40593 L 257.28436,198.86593 L 261.06436,205.23793 L 261.06436,205.23793 C 261.28036,205.77793 261.60436,206.20993 261.82036,206.42593 C 262.03636,206.64193 262.14436,206.85793 262.25236,206.96593 C 262.79236,207.18193 263.11636,207.39793 263.76436,207.39793 C 264.08836,207.39793 264.62836,207.28993 265.06036,207.07393 C 265.92436,206.53393 266.35636,205.99393 266.46436,205.23793 C 266.46436,204.48193 266.14036,203.61793 265.60036,202.42993 L 265.60036,202.42993 L 261.92836,196.16593 L 263.00836,195.62593 L 266.68036,202.10593 L 266.68036,202.10593 C 267.54436,203.50993 267.86836,204.58993 267.65236,205.56193 C 267.54436,206.53393 266.89636,207.39793 265.81636,208.04593 C 264.62836,208.69393 263.54836,208.80193 262.68436,208.47793 C 261.82036,208.15393 260.95636,207.39793 260.09236,205.99393 L 260.09236,205.99393 L 256.20436,199.40593 L 256.20436,199.40593 z M 266.14036,195.08593 L 271.64836,204.48193 L 270.56836,205.12993 L 264.62836,194.65393 L 267.43636,193.03393 L 267.43636,193.03393 C 267.86836,192.70993 268.51636,192.49393 268.84036,192.38593 C 269.38036,192.16993 269.70436,192.16993 270.24436,192.27793 C 270.67636,192.27793 271.32436,192.49393 271.75636,192.81793 C 272.40436,193.14193 272.72836,193.57393 273.16036,194.11393 C 273.59236,194.97793 273.70036,195.73393 273.59236,196.59793 C 273.48436,197.46193 272.94436,198.10993 272.29636,198.64993 L 272.29636,198.64993 L 277.26436,201.24193 L 275.96836,201.99793 L 269.92036,198.75793 L 270.89236,198.21793 L 270.89236,198.21793 C 271.64836,197.78593 271.97236,197.24593 272.29636,196.59793 C 272.51236,195.94993 272.51236,195.40993 272.18836,194.76193 C 271.86436,194.43793 271.64836,194.11393 271.32436,193.89793 C 270.89236,193.68193 270.67636,193.46593 270.35236,193.46593 C 269.92036,193.35793 269.70436,193.35793 269.38036,193.46593 C 268.94836,193.57393 268.40836,193.89793 267.76036,194.32993 L 267.76036,194.32993 L 266.14036,195.08593 L 266.14036,195.08593 z "
     style="fill:#001886;stroke:#ffffff;stroke-width:0.0000000;fill-opacity:1.0000000;stroke-miterlimit:4.0000000;stroke-dasharray:none" />
  <path
     id="path104"
     d="M 259.98436,233.10193 L 256.52836,227.16193 L 256.52836,227.16193 C 256.09636,226.40593 256.09636,226.62193 255.44836,226.40593 L 255.44836,226.40593 L 258.04036,224.78593 L 258.04036,224.78593 C 257.93236,225.10993 257.50036,225.54193 258.14836,226.40593 L 258.14836,226.40593 L 261.60436,232.56193 L 261.60436,232.56193 C 263.54836,231.58993 264.62836,231.04993 265.16836,229.42993 L 265.16836,229.42993 L 265.70836,231.58993 L 260.09236,234.82993 L 260.09236,234.82993 C 260.41636,233.85793 260.09236,233.42593 259.98436,233.10193 L 259.98436,233.10193 z M 267.00436,229.42993 L 263.65636,223.27393 L 263.65636,223.27393 C 263.22436,222.73393 263.00836,222.40993 262.25236,222.51793 L 262.25236,222.51793 L 264.95236,221.00593 L 264.95236,221.00593 C 264.73636,221.43793 264.73636,221.86993 264.95236,222.51793 L 264.95236,222.51793 L 268.51636,228.56593 L 268.51636,228.56593 C 268.62436,228.99793 269.48836,229.32193 269.81236,229.10593 L 269.81236,229.10593 L 266.89636,230.94193 L 266.89636,230.94193 C 267.32836,230.61793 267.54436,229.96993 267.00436,229.42993 L 267.00436,229.42993 z M 270.46036,227.48593 L 267.76036,220.89793 L 267.76036,220.89793 C 267.54436,220.46593 267.32836,220.03393 266.78836,220.03393 L 266.78836,220.03393 L 269.92036,218.52193 L 269.92036,218.52193 C 271.75636,217.65793 273.26836,217.98193 273.70036,219.16993 C 274.13236,219.92593 273.80836,220.89793 273.26836,221.43793 C 274.34836,221.43793 275.75236,221.32993 276.40036,222.94993 C 277.26436,225.43393 275.10436,226.72993 273.80836,227.26993 L 273.80836,227.26993 L 270.46036,228.88993 L 270.46036,228.88993 C 270.67636,228.45793 270.67636,228.02593 270.46036,227.48593 L 270.46036,227.48593 z M 278.66836,223.70593 L 276.61636,217.22593 L 276.61636,217.22593 C 276.50836,216.57793 276.40036,216.14593 275.64436,215.82193 L 275.64436,215.82193 L 280.39636,214.30993 L 280.39636,214.30993 C 280.50436,214.20193 280.82836,214.09393 280.93636,213.87793 L 280.93636,213.87793 L 281.36836,215.60593 L 281.36836,215.60593 C 280.82836,215.17393 279.42436,215.60593 278.02036,216.25393 L 278.02036,216.25393 L 278.88436,218.84593 L 280.18036,218.30593 L 280.18036,218.30593 C 280.61236,218.08993 281.04436,218.08993 281.15236,217.87393 L 281.15236,217.87393 L 281.58436,219.38593 L 281.58436,219.38593 C 281.26036,219.06193 280.82836,219.16993 280.18036,219.49393 L 280.18036,219.49393 L 279.10036,219.70993 L 280.28836,223.16593 L 280.28836,223.16593 C 281.80036,222.84193 283.42036,222.62593 284.50036,220.78993 L 284.50036,220.78993 L 284.28436,222.94993 L 278.45236,225.00193 L 278.45236,225.00193 C 278.88436,224.46193 278.88436,224.02993 278.66836,223.70593 L 278.66836,223.70593 z M 286.12036,221.32993 L 284.28436,214.30993 L 284.28436,214.30993 C 284.17636,213.12193 283.85236,213.12193 283.20436,213.12193 L 283.20436,213.12193 L 286.44436,212.14993 L 286.44436,212.14993 C 288.49636,211.50193 290.11636,211.71793 290.65636,213.44593 C 290.98036,214.84993 289.90036,216.14593 288.92836,216.68593 C 290.87236,218.08993 292.60036,219.60193 294.65236,219.92593 L 294.65236,219.92593 L 292.92436,220.35793 L 292.92436,220.35793 C 292.49236,220.57393 291.95236,220.68193 290.98036,220.03393 L 290.98036,220.03393 L 287.09236,217.00993 L 287.09236,217.00993 C 288.71236,215.82193 289.46836,215.17393 289.03636,213.98593 C 288.71236,212.90593 287.41636,212.58193 285.90436,213.44593 L 285.90436,213.44593 L 287.74036,220.68193 L 287.74036,220.68193 C 287.84836,221.32993 288.17236,221.65393 288.71236,221.65393 L 288.71236,221.65393 L 285.79636,222.62593 L 285.79636,222.62593 C 286.12036,222.40993 286.22836,221.86993 286.12036,221.32993 L 286.12036,221.32993 z M 295.73236,218.52193 L 294.43636,211.06993 L 293.35636,211.28593 L 293.35636,211.28593 C 292.49236,211.39393 291.84436,211.71793 291.52036,212.14993 L 291.52036,212.14993 L 291.62836,210.20593 L 291.62836,210.20593 C 291.73636,210.31393 291.95236,210.42193 292.49236,210.31393 L 292.49236,210.31393 L 298.21636,209.01793 L 298.21636,209.01793 C 298.54036,208.90993 298.64836,208.80193 298.86436,208.69393 L 298.86436,208.69393 L 298.64836,210.52993 L 298.64836,210.52993 C 298.54036,210.31393 297.89236,210.20593 297.46036,210.42193 L 297.46036,210.42193 L 295.94836,210.63793 L 297.35236,218.30593 L 297.35236,218.30593 C 297.46036,218.84593 297.89236,218.95393 298.32436,219.06193 L 298.32436,219.06193 L 295.30036,219.70993 L 295.30036,219.70993 C 295.73236,219.38593 295.84036,219.06193 295.73236,218.52193 L 295.73236,218.52193 z M 301.56436,217.22593 L 300.59236,210.20593 L 300.59236,210.20593 C 300.59236,209.55793 300.59236,209.12593 299.83636,208.90993 L 299.83636,208.90993 L 302.75236,208.47793 L 302.75236,208.47793 C 302.32036,208.80193 302.10436,209.23393 302.32036,210.09793 L 302.32036,210.09793 L 303.18436,217.00993 L 303.18436,217.00993 C 303.29236,217.44193 303.61636,218.08993 304.26436,218.08993 L 304.26436,218.08993 L 300.91636,218.52193 L 300.91636,218.52193 C 301.34836,218.41393 301.67236,217.98193 301.56436,217.22593 L 301.56436,217.22593 z M 305.99236,216.68593 L 305.45236,209.98993 L 305.45236,209.98993 C 305.45236,209.34193 305.45236,208.69393 304.91236,208.47793 L 304.91236,208.47793 L 309.77236,207.82993 L 309.77236,207.82993 C 309.98836,207.82993 310.20436,207.72193 310.31236,207.61393 L 310.31236,207.61393 L 310.42036,209.55793 L 310.42036,209.55793 C 309.77236,208.90993 308.47636,209.01793 307.07236,209.34193 L 307.07236,209.34193 L 307.28836,212.04193 L 308.47636,211.93393 L 308.47636,211.93393 C 309.12436,211.82593 309.34036,211.82593 309.77236,211.50193 L 309.77236,211.50193 L 309.88036,213.22993 L 309.88036,213.22993 C 309.44836,212.90593 309.01636,212.79793 308.36836,212.90593 L 308.36836,212.90593 L 307.28836,213.01393 L 307.39636,216.57793 L 307.39636,216.57793 C 309.12436,216.57793 310.96036,216.79393 312.25636,215.28193 L 312.25636,215.28193 L 311.50036,217.33393 L 305.45236,218.08993 L 305.45236,218.08993 C 305.99236,217.65793 306.10036,217.22593 305.99236,216.68593 L 305.99236,216.68593 z M 313.66036,210.09793 C 313.87636,207.93793 315.92836,207.18193 317.65636,207.61393 C 318.19636,207.61393 319.49236,207.82993 319.81636,208.04593 L 319.81636,208.04593 L 319.70836,209.77393 L 319.70836,209.77393 C 318.73636,208.80193 316.46836,207.93793 315.60436,209.44993 C 315.06436,210.09793 315.82036,211.06993 316.90036,211.71793 L 316.90036,211.71793 L 318.19636,212.68993 L 318.19636,212.68993 C 318.95236,213.12193 320.14036,213.98593 319.92436,215.28193 C 319.81636,217.98193 316.14436,218.84593 313.12036,217.44193 L 313.12036,217.44193 L 313.01236,215.38993 L 313.01236,215.38993 C 314.84836,217.44193 317.65636,217.33393 318.08836,215.92993 C 318.41236,214.95793 317.98036,214.52593 316.90036,213.66193 L 316.90036,213.66193 L 315.28036,212.68993 L 315.28036,212.68993 C 314.63236,212.14993 313.66036,211.28593 313.66036,210.09793 L 313.66036,210.09793 z "
     style="fill:#001886;stroke:#ffffff;stroke-width:0.0000000;fill-opacity:1.0000000;stroke-miterlimit:4.0000000;stroke-dasharray:none" />
  <path
     id="path106"
     d="M 286.76836,250.70593 L 283.52836,244.00993 L 283.52836,244.00993 C 283.31236,243.46993 283.09636,242.92993 282.23236,242.82193 L 282.23236,242.82193 L 286.98436,240.55393 L 286.98436,240.55393 C 287.20036,240.55393 287.41636,240.44593 287.74036,240.12193 L 287.74036,240.12193 L 288.60436,242.06593 L 288.60436,242.06593 C 287.74036,241.52593 286.33636,242.06593 284.93236,242.92993 L 284.93236,242.92993 L 286.12036,245.52193 L 287.63236,244.87393 L 287.63236,244.87393 C 288.06436,244.65793 288.28036,244.44193 288.49636,244.33393 L 288.49636,244.33393 L 289.14436,245.84593 L 289.14436,245.84593 C 288.92836,245.62993 288.17236,245.84593 287.74036,246.06193 L 287.74036,246.06193 L 286.66036,246.60193 L 288.17236,250.05793 L 288.17236,250.05793 C 289.90036,249.51793 291.84436,249.08593 292.70836,247.14193 L 292.70836,247.14193 L 292.81636,249.40993 L 286.87636,252.21793 L 286.87636,252.21793 C 287.09236,251.56993 286.98436,251.24593 286.76836,250.70593 L 286.76836,250.70593 z M 274.45636,255.67393 L 269.59636,250.27393 L 269.59636,250.27393 C 268.94836,249.84193 268.40836,249.51793 267.86836,249.19393 L 267.86836,249.19393 L 270.24436,248.11393 L 270.24436,248.11393 C 270.02836,248.54593 270.46036,248.86993 270.67636,249.40993 L 270.67636,249.40993 L 276.18436,255.02593 L 274.99636,247.78993 L 274.99636,247.78993 C 274.78036,247.03393 274.45636,246.49393 273.70036,246.38593 L 273.70036,246.38593 L 275.96836,245.41393 L 275.96836,245.41393 C 276.07636,245.95393 276.29236,246.38593 276.72436,246.81793 L 276.72436,246.81793 L 281.80036,252.32593 L 280.82836,245.30593 L 280.82836,245.30593 C 280.39636,243.90193 279.85636,243.90193 279.42436,243.79393 L 279.42436,243.79393 L 281.80036,242.71393 L 283.42036,254.26993 L 283.42036,254.26993 C 282.77236,254.37793 281.47636,254.16193 281.04436,253.72993 L 281.04436,253.72993 L 276.40036,248.86993 L 277.48036,257.07793 L 277.48036,257.07793 C 276.29236,257.07793 275.42836,256.75393 274.45636,255.67393 L 274.45636,255.67393 z "
     style="fill:#001886;stroke:#ffffff;stroke-width:0.0000000;fill-opacity:1.0000000;stroke-miterlimit:4.0000000;stroke-dasharray:none" />
  <path
     id="path108"
     d="M 336.77236,245.08993 C 337.85236,245.08993 340.66036,243.79393 340.12036,241.30993 C 339.04036,237.52993 336.01636,238.93393 335.26036,239.47393 L 335.26036,239.47393 L 336.77236,245.08993 L 336.77236,245.08993 z M 335.58436,245.19793 L 334.07236,239.90593 L 334.07236,239.90593 C 333.96436,239.14993 333.42436,239.04193 333.20836,238.93393 L 333.20836,238.93393 L 336.12436,238.06993 L 336.12436,238.06993 C 338.93236,237.09793 341.09236,238.60993 341.63236,240.44593 C 342.06436,242.17393 341.74036,244.76593 338.17636,245.52193 L 338.17636,245.52193 L 335.47636,246.38593 L 335.47636,246.38593 C 335.80036,246.06193 335.80036,245.73793 335.58436,245.19793 L 335.58436,245.19793 z M 326.62036,250.70593 L 324.89236,245.41393 L 324.89236,245.41393 C 324.67636,244.33393 324.35236,244.33393 323.92036,244.11793 C 324.46036,244.00993 324.78436,244.00993 325.64836,243.46993 L 325.64836,243.46993 L 332.23636,248.11393 L 330.72436,243.57793 L 330.72436,243.57793 C 330.50836,242.71393 330.18436,242.49793 329.53636,242.38993 L 329.53636,242.38993 L 331.91236,241.74193 L 331.91236,241.74193 C 331.58836,242.17393 331.37236,242.17393 331.48036,243.25393 L 331.48036,243.25393 L 333.85636,249.94993 L 333.85636,249.94993 C 333.53236,250.05793 332.34436,249.73393 332.02036,249.62593 L 332.02036,249.62593 L 325.86436,245.41393 L 327.59236,250.05793 L 327.59236,250.05793 C 327.70036,250.81393 327.91636,250.92193 328.56436,251.13793 L 328.56436,251.13793 L 326.40436,251.89393 L 326.40436,251.89393 C 326.51236,251.46193 326.83636,251.13793 326.62036,250.70593 L 326.62036,250.70593 z M 317.98036,249.62593 L 319.92436,248.97793 L 318.08836,246.49393 L 317.98036,249.62593 L 317.98036,249.62593 z M 316.14436,252.10993 L 317.76436,246.06193 L 317.76436,246.06193 C 317.87236,245.62993 317.65636,245.41393 317.11636,245.19793 L 317.11636,245.19793 L 318.95236,244.98193 L 322.94836,251.24593 L 322.94836,251.24593 C 323.48836,251.67793 323.70436,251.78593 324.24436,252.10993 L 324.24436,252.10993 L 321.65236,252.43393 L 321.65236,252.43393 C 322.08436,252.10993 321.76036,251.78593 321.54436,251.56993 L 321.54436,251.56993 L 320.57236,249.62593 L 317.87236,250.16593 L 317.22436,252.32593 L 317.22436,252.32593 C 317.11636,252.86593 317.54836,253.08193 317.87236,253.18993 L 317.87236,253.18993 L 315.60436,253.62193 L 315.60436,253.62193 C 315.92836,253.08193 316.14436,252.64993 316.14436,252.10993 L 316.14436,252.10993 z M 361.07236,220.68193 L 356.53636,217.11793 L 356.53636,217.11793 C 355.45636,216.68593 355.34836,217.00993 355.13236,217.00993 L 355.13236,217.00993 L 356.53636,214.84993 L 356.53636,214.84993 C 357.50836,213.55393 358.69636,212.68993 360.10036,213.55393 C 360.64036,214.41793 360.85636,215.71393 360.42436,216.36193 C 362.36836,216.36193 364.09636,216.57793 365.71636,215.82193 L 365.71636,215.82193 L 364.85236,216.79393 L 364.85236,216.79393 C 364.52836,217.22593 364.20436,217.54993 363.23236,217.76593 L 363.23236,217.76593 L 359.66836,217.54993 L 359.66836,217.54993 C 360.10036,215.92993 360.20836,215.28193 359.23636,214.63393 C 358.48036,213.98593 357.50836,214.52593 356.96836,215.92993 L 356.96836,215.92993 L 361.82836,219.49393 L 361.82836,219.49393 C 362.26036,219.70993 362.58436,219.81793 362.90836,219.81793 L 362.90836,219.81793 L 361.61236,221.65393 L 361.61236,221.65393 C 361.61236,221.32993 361.39636,221.00593 361.07236,220.68193 L 361.07236,220.68193 z M 355.13236,226.51393 L 351.56836,223.92193 L 351.56836,223.92193 C 351.24436,223.70593 350.81236,223.70593 350.48836,223.81393 L 350.48836,223.81393 L 351.67636,221.97793 L 351.67636,221.97793 C 351.67636,222.19393 351.78436,222.51793 352.32436,222.73393 L 352.32436,222.73393 L 355.67236,225.21793 L 355.67236,225.21793 C 357.18436,226.18993 357.94036,225.54193 358.37236,225.00193 C 359.34436,223.92193 359.12836,222.94993 358.26436,222.30193 L 358.26436,222.30193 L 354.80836,219.81793 L 354.80836,219.81793 C 354.16036,219.27793 353.72836,219.27793 353.51236,219.49393 L 353.51236,219.49393 L 354.59236,217.54993 L 354.59236,217.54993 C 354.70036,218.19793 354.91636,218.62993 355.56436,218.73793 L 355.56436,218.73793 L 360.20836,221.97793 L 360.20836,221.97793 C 360.64036,222.40993 361.07236,222.40993 361.28836,222.19393 L 361.28836,222.19393 L 360.42436,223.59793 L 359.56036,223.27393 L 359.56036,223.27393 C 359.66836,223.59793 360.31636,224.24593 359.23636,225.43393 C 357.94036,227.37793 356.21236,227.16193 355.13236,226.51393 L 355.13236,226.51393 z M 349.08436,232.77793 C 350.70436,233.85793 352.64836,233.31793 353.62036,232.12993 C 354.59236,230.72593 353.94436,228.56593 352.64836,227.70193 C 351.24436,226.94593 349.08436,226.94593 347.89636,228.56593 C 347.46436,229.64593 347.46436,231.58993 349.08436,232.77793 L 349.08436,232.77793 z M 348.43636,234.07393 C 346.92436,233.10193 345.52036,230.61793 347.46436,227.91793 C 348.76036,225.97393 351.02836,225.21793 353.40436,226.51393 C 354.80836,227.59393 356.21236,229.96993 354.48436,232.56193 C 352.64836,234.82993 350.27236,235.26193 348.43636,234.07393 L 348.43636,234.07393 z "
     style="fill:#000086;stroke:#ffffff;stroke-width:0.0000000;fill-opacity:1.0000000;stroke-miterlimit:4.0000000;stroke-dasharray:none" />
  <path
     id="path110"
     d="M 434.18836,198.54193 C 434.18836,196.38193 436.13236,195.51793 437.96836,195.51793 C 438.50836,195.51793 439.69636,195.62593 440.34436,195.84193 L 440.34436,195.84193 L 440.34436,197.46193 L 440.34436,197.46193 C 439.26436,196.59793 436.78036,196.05793 435.91636,197.67793 C 435.59236,198.54193 436.56436,199.18993 437.53636,199.72993 L 437.53636,199.72993 L 439.26436,200.37793 L 439.26436,200.37793 C 439.91236,200.70193 441.20836,201.56593 441.20836,202.64593 C 441.20836,205.34593 437.64436,206.64193 434.40436,205.66993 L 434.40436,205.66993 L 433.97236,203.83393 L 433.97236,203.83393 C 435.91636,205.45393 439.04836,205.02193 439.26436,203.61793 C 439.48036,202.64593 439.04836,202.21393 437.64436,201.56593 L 437.64436,201.56593 L 436.13236,200.80993 L 436.13236,200.80993 C 435.26836,200.48593 434.29636,199.72993 434.18836,198.54193 L 434.18836,198.54193 z "
     style="fill:#001886;stroke:#ffffff;stroke-width:0.0000000;stroke-miterlimit:4.0000000;stroke-dasharray:none;fill-opacity:1.0000000" />
  <path
     id="path112"
     d="M 429.00436,205.23793 L 429.00436,198.10993 L 427.92436,198.21793 L 427.92436,198.21793 C 427.38436,198.21793 426.73636,198.43393 426.19636,198.86593 L 426.19636,198.86593 L 426.73636,197.02993 L 426.73636,197.02993 C 426.84436,197.24593 427.06036,197.13793 427.38436,197.13793 L 427.38436,197.13793 L 432.67636,196.92193 L 432.67636,196.92193 C 433.00036,196.92193 433.21636,196.81393 433.54036,196.70593 L 433.54036,196.70593 L 432.89236,198.43393 L 432.89236,198.43393 C 432.78436,198.10993 432.35236,198.00193 431.70436,198.00193 L 431.70436,198.00193 L 430.51636,198.00193 L 430.51636,205.12993 L 430.51636,205.12993 C 430.51636,205.56193 430.84036,205.77793 431.27236,205.99393 L 431.27236,205.99393 L 428.46436,206.10193 L 428.46436,206.10193 C 428.89636,205.88593 429.00436,205.56193 429.00436,205.23793 L 429.00436,205.23793 z "
     style="fill:#001886;stroke:#ffffff;stroke-width:0.0000000;stroke-miterlimit:4.0000000;stroke-dasharray:none;fill-opacity:1.0000000" />
  <path
     id="path114"
     d="M 417.34036,205.45393 L 417.34036,199.83793 L 417.34036,199.83793 C 417.34036,199.40593 417.34036,198.75793 417.01636,198.43393 L 417.01636,198.43393 L 419.28436,198.32593 L 419.28436,198.32593 C 418.96036,198.54193 418.74436,199.08193 418.74436,199.72993 L 418.74436,199.72993 L 418.74436,201.67393 L 423.17236,201.45793 L 423.17236,199.40593 L 423.17236,199.40593 C 423.17236,198.86593 423.06436,198.32593 422.63236,198.10993 L 422.63236,198.10993 L 425.11636,198.00193 L 425.11636,198.00193 C 425.00836,198.32593 424.57636,198.43393 424.57636,199.29793 L 424.57636,199.29793 L 424.57636,205.12993 L 424.57636,205.12993 C 424.57636,205.66993 424.68436,205.99393 425.11636,206.20993 L 425.11636,206.20993 L 422.74036,206.42593 L 422.74036,206.42593 C 423.06436,206.20993 423.17236,205.66993 423.17236,205.34593 L 423.17236,205.34593 L 423.17236,202.42993 L 418.74436,202.64593 L 418.74436,205.45393 L 418.74436,205.45393 C 418.74436,205.99393 418.96036,206.31793 419.28436,206.53393 L 419.28436,206.53393 L 416.90836,206.64193 L 416.90836,206.64193 C 417.23236,206.42593 417.34036,205.99393 417.34036,205.45393 L 417.34036,205.45393 z "
     style="fill:#001886;stroke:#ffffff;stroke-width:0.0000000;fill-opacity:1.0000000;stroke-miterlimit:4.0000000;stroke-dasharray:none" />
  <path
     id="path116"
     d="M 406.64836,203.07793 C 406.97236,198.86593 410.64436,197.89393 414.20836,198.32593 L 414.20836,198.32593 L 414.20836,199.94593 L 414.20836,199.94593 C 412.04836,198.21793 407.94436,199.83793 408.26836,203.07793 C 408.59236,206.85793 412.48036,206.53393 413.66836,205.99393 L 413.66836,205.99393 L 413.66836,204.04993 L 413.66836,204.04993 C 413.66836,203.29393 413.56036,202.86193 413.12836,202.53793 L 413.12836,202.53793 L 415.18036,202.42993 L 415.18036,202.42993 C 415.18036,202.64593 415.18036,202.75393 415.18036,203.40193 L 415.18036,203.40193 L 415.18036,206.10193 L 415.18036,206.10193 C 415.18036,206.31793 415.18036,206.53393 415.18036,206.74993 C 411.61636,207.93793 406.64836,207.50593 406.64836,203.07793 L 406.64836,203.07793 z "
     style="fill:#001886;stroke:#ffffff;stroke-width:0.0000000;stroke-miterlimit:4.0000000;stroke-dasharray:none;fill-opacity:1.0000000" />
  <path
     id="path118"
     d="M 403.51636,206.42593 L 403.51636,200.80993 L 403.51636,200.80993 C 403.51636,200.26993 403.40836,199.94593 402.86836,199.62193 L 402.86836,199.62193 L 405.24436,199.51393 L 405.24436,199.51393 C 404.81236,199.83793 404.70436,200.16193 404.70436,200.80993 L 404.70436,200.80993 L 404.70436,206.42593 L 404.70436,206.42593 C 404.70436,206.74993 405.02836,207.28993 405.46036,207.39793 L 405.46036,207.39793 L 402.86836,207.50593 L 402.86836,207.50593 C 403.08436,207.39793 403.51636,207.07393 403.51636,206.42593 L 403.51636,206.42593 z "
     style="fill:#001886;stroke:#ffffff;stroke-width:0.0000000;stroke-miterlimit:4.0000000;stroke-dasharray:none;fill-opacity:1.0000000" />
  <path
     id="path120"
     d="M 393.90436,206.64193 L 393.90436,200.70193 L 393.90436,200.70193 C 393.90436,199.62193 393.47236,199.62193 393.25636,199.40593 L 393.25636,199.40593 L 396.06436,199.29793 L 396.06436,199.29793 C 397.68436,199.18993 398.98036,199.72993 398.98036,201.13393 C 398.98036,202.42993 397.90036,203.29393 397.03636,203.50993 C 398.22436,204.91393 399.19636,206.53393 400.81636,207.28993 L 400.81636,207.28993 L 399.41236,207.28993 L 399.41236,207.28993 C 398.98036,207.39793 398.54836,207.28993 398.00836,206.64193 L 398.00836,206.64193 L 395.30836,203.40193 L 395.30836,203.40193 C 397.03636,202.75393 397.68436,202.42993 397.57636,201.34993 C 397.57636,200.37793 396.71236,199.83793 395.20036,200.26993 L 395.20036,200.26993 L 395.20036,206.53393 L 395.20036,206.53393 C 395.20036,206.96593 395.30836,207.28993 395.84836,207.50593 L 395.84836,207.50593 L 393.25636,207.61393 L 393.25636,207.61393 C 393.68836,207.50593 393.90436,207.18193 393.90436,206.64193 L 393.90436,206.64193 z "
     style="fill:#001886;stroke:#ffffff;stroke-width:0.0000000;stroke-miterlimit:4.0000000;stroke-dasharray:none;fill-opacity:1.0000000" />
  <path
     id="path122"
     d="M 447.14836,220.35793 L 445.31236,214.09393 L 445.31236,214.09393 C 445.09636,213.33793 444.88036,213.44593 444.44836,213.12193 L 444.44836,213.12193 L 446.93236,212.25793 L 446.93236,212.25793 C 446.93236,212.58193 446.39236,212.90593 446.82436,213.76993 L 446.82436,213.76993 L 448.76836,220.35793 L 448.76836,220.35793 C 450.82036,219.92593 451.79236,219.70993 452.87236,218.30593 L 452.87236,218.30593 L 452.76436,220.24993 L 446.93236,222.08593 L 446.93236,222.08593 C 447.47236,221.32993 447.25636,220.78993 447.14836,220.35793 L 447.14836,220.35793 z M 440.12836,222.51793 L 438.40036,216.14593 L 438.40036,216.14593 C 438.07636,215.28193 437.75236,215.49793 437.32036,215.06593 L 437.32036,215.06593 L 440.02036,214.30993 L 440.02036,214.30993 C 439.69636,214.63393 439.48036,214.84993 439.69636,215.92993 L 439.69636,215.92993 L 441.64036,222.40993 L 441.64036,222.40993 C 443.58436,222.08593 444.88036,221.76193 445.96036,220.46593 L 445.96036,220.46593 L 445.74436,222.40993 L 440.12836,224.24593 L 440.12836,224.24593 C 440.45236,223.48993 440.45236,222.94993 440.12836,222.51793 L 440.12836,222.51793 z M 436.67236,223.92193 L 434.72836,217.33393 L 434.72836,217.33393 C 434.62036,216.79393 434.51236,216.36193 433.64836,216.25393 L 433.64836,216.25393 L 436.45636,215.38993 L 436.45636,215.38993 C 436.13236,215.82193 436.13236,216.14593 436.34836,217.00993 L 436.34836,217.00993 L 438.18436,223.48993 L 438.18436,223.48993 C 438.50836,223.92193 438.94036,224.46193 439.48036,224.35393 L 439.48036,224.35393 L 436.56436,225.10993 L 436.56436,225.10993 C 436.67236,225.10993 436.99636,224.46193 436.67236,223.92193 L 436.67236,223.92193 z M 425.44036,226.51393 L 421.87636,221.11393 L 421.87636,221.11393 C 421.44436,220.68193 421.01236,220.46593 420.47236,220.03393 L 420.47236,220.03393 L 422.30836,219.38593 L 422.30836,219.38593 C 422.41636,219.70993 422.74036,220.14193 422.95636,220.68193 L 422.95636,220.68193 L 426.95236,226.29793 L 426.95236,219.81793 L 426.95236,219.81793 C 426.95236,219.06193 426.52036,218.62993 425.87236,218.41393 L 425.87236,218.41393 L 428.03236,217.87393 L 428.03236,217.87393 C 427.92436,218.41393 428.35636,218.73793 428.46436,219.16993 L 428.46436,219.16993 L 432.35236,224.56993 L 432.35236,218.41393 L 432.35236,218.41393 C 432.24436,217.00993 431.70436,217.00993 430.94836,216.90193 L 430.94836,216.90193 L 433.43236,216.25393 L 433.54036,226.62193 L 433.54036,226.62193 C 432.78436,226.51393 431.59636,226.18993 431.48836,225.75793 L 431.48836,225.75793 L 427.92436,220.78993 L 427.92436,228.24193 L 427.92436,228.24193 C 426.84436,228.13393 425.98036,227.59393 425.44036,226.51393 L 425.44036,226.51393 z "
     style="fill:#001886;stroke:#ffffff;stroke-width:0.0000000;fill-opacity:1.0000000;stroke-miterlimit:4.0000000;stroke-dasharray:none" />
  <path
     id="path124"
     d="M 411.50836,232.23793 L 409.67236,225.21793 L 409.67236,225.21793 C 409.56436,224.56993 409.45636,224.02993 408.70036,223.81393 L 408.70036,223.81393 L 413.56036,222.40993 L 413.56036,222.40993 C 413.88436,222.40993 414.10036,222.30193 414.20836,222.08593 L 414.20836,222.08593 L 414.64036,224.02993 L 414.64036,224.02993 C 413.99236,223.38193 412.58836,223.70593 411.18436,224.35393 L 411.18436,224.35393 L 411.94036,227.05393 L 413.45236,226.72993 L 413.45236,226.72993 C 413.99236,226.51393 414.31636,226.51393 414.42436,226.29793 L 414.42436,226.29793 L 414.96436,228.02593 L 414.96436,228.02593 C 414.53236,227.70193 413.88436,227.70193 413.34436,227.80993 L 413.34436,227.80993 L 412.15636,228.13393 L 413.12836,231.80593 L 413.12836,231.80593 C 414.85636,231.58993 416.80036,231.48193 417.98836,229.75393 L 417.98836,229.75393 L 417.55636,231.91393 L 411.50836,233.64193 L 411.50836,233.64193 C 411.61636,232.99393 411.72436,232.66993 411.50836,232.23793 L 411.50836,232.23793 z M 398.98036,234.82993 L 395.09236,228.78193 L 395.09236,228.78193 C 394.76836,228.24193 394.12036,227.91793 393.47236,227.48593 L 393.47236,227.48593 L 395.95636,226.83793 L 395.95636,226.83793 C 395.95636,227.16193 396.06436,227.59393 396.28036,228.13393 L 396.28036,228.13393 L 400.60036,234.50593 L 400.70836,227.37793 L 400.70836,227.37793 C 400.92436,226.62193 400.38436,225.97393 399.73636,225.86593 L 399.73636,225.86593 L 401.89636,225.21793 L 401.89636,225.21793 C 402.00436,225.75793 402.32836,226.18993 402.65236,226.83793 L 402.65236,226.83793 L 406.64836,232.77793 L 406.75636,225.97393 L 406.75636,225.97393 C 406.64836,224.56993 406.21636,224.46193 405.56836,224.24593 L 405.56836,224.24593 L 408.16036,223.59793 L 407.83636,235.04593 L 407.83636,235.04593 C 407.18836,234.93793 405.78436,234.61393 405.56836,234.07393 L 405.56836,234.07393 L 401.89636,228.56593 L 401.78836,236.66593 L 401.78836,236.66593 C 400.38436,236.55793 399.62836,236.01793 398.98036,234.82993 L 398.98036,234.82993 z "
     style="fill:#001886;stroke:#ffffff;stroke-width:0.0000000;stroke-miterlimit:4.0000000;stroke-dasharray:none;fill-opacity:1.0000000" />
  <path
     id="path126"
     d="M 373.06036,247.78993 L 374.68036,237.42193 L 376.08436,237.63793 L 378.46036,247.35793 L 383.42836,238.93393 L 385.04836,239.14993 L 383.53636,249.62593 L 382.45636,249.40993 L 383.64436,240.22993 L 378.67636,248.76193 L 377.70436,248.54593 L 375.54436,238.82593 L 374.14036,248.00593 L 373.06036,247.78993 L 373.06036,247.78993 z M 385.04836,249.84193 L 383.96836,249.62593 L 389.47636,240.01393 L 390.77236,240.22993 L 393.14836,251.35393 L 392.17636,251.13793 L 391.31236,247.57393 L 386.66836,246.81793 L 385.04836,249.84193 L 385.04836,249.84193 z M 391.20436,246.60193 L 389.90836,241.09393 L 387.31636,245.95393 L 391.20436,246.60193 L 391.20436,246.60193 z M 395.09236,251.56993 L 394.01236,251.46193 L 395.41636,241.09393 L 396.60436,241.20193 L 395.09236,251.56993 L 395.09236,251.56993 z M 403.94836,252.00193 L 405.35236,242.82193 L 406.43236,242.92993 L 404.81236,253.29793 L 403.73236,253.08193 L 399.19636,242.92993 L 398.00836,252.10993 L 397.03636,252.00193 L 398.44036,241.52593 L 399.62836,241.74193 L 403.94836,252.00193 L 403.94836,252.00193 z M 408.91636,254.05393 L 407.94436,253.83793 L 409.34836,244.54993 L 407.29636,244.22593 L 407.51236,243.14593 L 412.48036,244.00993 L 412.48036,245.08993 L 410.32036,244.76593 L 408.91636,254.05393 L 408.91636,254.05393 z M 411.40036,254.48593 L 410.32036,254.26993 L 415.82836,244.65793 L 417.12436,244.87393 L 419.50036,255.88993 L 418.42036,255.78193 L 417.77236,252.21793 L 413.12836,251.35393 L 411.40036,254.48593 L 411.40036,254.48593 z M 417.44836,251.24593 L 416.26036,245.73793 L 413.56036,250.59793 L 417.44836,251.24593 L 417.44836,251.24593 z M 421.33636,256.21393 L 420.25636,255.99793 L 421.87636,245.62993 L 422.84836,245.84593 L 421.33636,256.21393 L 421.33636,256.21393 z M 430.40836,256.53793 L 431.70436,247.35793 L 432.67636,247.57393 L 431.27236,257.94193 L 429.97636,257.72593 L 425.65636,247.57393 L 424.25236,256.75393 L 423.17236,256.53793 L 424.79236,246.16993 L 425.98036,246.38593 L 430.40836,256.53793 L 430.40836,256.53793 z "
     style="fill:#001886;stroke:#ffffff;stroke-width:0.0000000;fill-opacity:1.0000000;stroke-miterlimit:4.0000000;stroke-dasharray:none" />
  <path
     id="path128"
     d="M 359.45236,201.34993 C 364.31236,206.31793 363.23236,206.64193 366.25636,205.12993 C 369.71236,204.69793 370.90036,207.18193 372.41236,207.18193 C 370.46836,201.13393 361.61236,192.81793 359.02036,193.35793 C 355.34836,194.11393 353.62036,195.51793 354.26836,197.24593 C 354.26836,199.94593 358.04836,200.91793 359.45236,201.34993 L 359.45236,201.34993 z "
     style="fill:#ffa35c;stroke:#000000;stroke-width:0.32400000" />
  <path
     id="path130"
     d="M 366.25636,204.91393 C 362.36836,203.61793 360.31636,198.10993 355.45636,196.70593"
     style="fill:none;stroke:#000000;stroke-width:1.5120001" />
  <path
     id="path132"
     d="M 359.99236,193.35793 C 358.15636,186.98593 357.50836,184.28593 352.54036,182.12593 C 348.65236,180.50593 339.14836,178.77793 335.80036,182.23393 C 338.17636,182.55793 339.25636,182.98993 339.68836,184.60993 C 338.17636,192.70993 342.17236,192.38593 344.11636,196.16593 C 346.06036,199.94593 349.84036,198.32593 352.21636,199.72993 C 353.40436,200.48593 354.26836,200.70193 355.56436,199.94593 C 350.70436,194.11393 358.48036,193.46593 359.99236,193.35793 L 359.99236,193.35793 z "
     style="fill:#e5ba18;stroke:#000000;stroke-width:0.32400000" />
  <path
     id="path134"
     d="M 339.36436,189.36193 C 331.37236,192.16993 317.98036,191.73793 311.71636,185.47393 C 317.00836,196.59793 333.42436,199.29793 346.92436,198.64993 C 344.65636,197.78593 343.90036,195.08593 342.06436,193.68193 C 341.09236,192.81793 339.79636,190.54993 339.36436,189.36193 L 339.36436,189.36193 z M 357.72436,186.66193 C 358.48036,189.14593 359.12836,190.54993 359.66836,193.35793 C 361.18036,194.11393 363.55636,195.62593 364.96036,196.81393 C 367.76836,196.05793 370.14436,195.30193 373.06036,194.65393 C 368.41636,193.89793 362.36836,191.84593 357.72436,186.66193 L 357.72436,186.66193 z "
     style="fill:#e5ba18;stroke:#000000;stroke-width:0.32400000" />
  <path
     id="path136"
     d="M 352.21636,191.08993 C 348.54436,189.25393 348.43636,190.22593 347.68036,186.66193 C 349.30036,186.44593 353.29636,189.03793 352.21636,191.08993 L 352.21636,191.08993 z "
     style="fill:#97b3ba;stroke:none" />
  <path
     id="path138"
     d="M 349.84036,187.41793 C 350.38036,187.41793 350.70436,187.95793 350.70436,188.82193 C 350.70436,189.68593 350.38036,190.22593 349.84036,190.22593 C 349.51636,190.22593 349.08436,189.68593 349.08436,188.82193 C 349.08436,187.95793 349.51636,187.41793 349.84036,187.41793 L 349.84036,187.41793 z M 336.01636,182.34193 C 331.48036,182.34193 326.29636,186.44593 322.51636,186.44593 C 321.11236,185.68993 321.86836,184.60993 323.48836,184.39393 C 329.53636,184.17793 336.88036,176.94193 338.39236,174.56593 C 339.47236,173.05393 340.76836,173.91793 340.76836,175.21393 C 340.01236,177.26593 334.61236,179.96593 332.56036,181.36993 C 332.56036,182.12593 334.18036,181.80193 336.01636,182.34193 L 336.01636,182.34193 z "
     style="fill:#000000;stroke:#000000;stroke-width:0.32400000" />
  <path
     id="path140"
     d="M 271.97236,226.83793 C 273.91636,226.18993 275.53636,225.54193 274.67236,223.59793 C 274.34836,222.62593 273.16036,222.19393 270.67636,223.48993 L 270.67636,223.48993 L 271.97236,226.83793 L 271.97236,226.83793 z M 270.35236,222.62593 C 271.43236,222.19393 272.94436,221.22193 272.29636,220.03393 C 271.54036,218.84593 270.67636,219.27793 269.05636,219.92593 L 269.05636,219.92593 L 270.35236,222.62593 L 270.35236,222.62593 z "
     style="fill:#deffff;stroke:none;fill-opacity:1.0000000" />
</svg>
