<?xml version="1.0" encoding="UTF-8" standalone="no"?>
<svg
   xmlns:dc="http://purl.org/dc/elements/1.1/"
   xmlns:cc="http://web.resource.org/cc/"
   xmlns:rdf="http://www.w3.org/1999/02/22-rdf-syntax-ns#"
   xmlns:svg="http://www.w3.org/2000/svg"
   xmlns="http://www.w3.org/2000/svg"
   xmlns:sodipodi="http://inkscape.sourceforge.net/DTD/sodipodi-0.dtd"
   xmlns:inkscape="http://www.inkscape.org/namespaces/inkscape"
   width="667"
   height="397"
   id="svg2"
   sodipodi:version="0.32"
   inkscape:version="0.42"
   sodipodi:docname="usa_delaware.svg"
   sodipodi:docbase="/home/demailly/nnew/gis_data/flags/newsvg">
  <metadata
     id="metadata233">
    <rdf:RDF>
      <cc:Work
         rdf:about="">
        <dc:format>image/svg+xml</dc:format>
        <dc:type
           rdf:resource="http://purl.org/dc/dcmitype/StillImage" />
      </cc:Work>
    </rdf:RDF>
  </metadata>
  <sodipodi:namedview
     inkscape:cy="248.77362"
     inkscape:cx="331.03727"
     inkscape:zoom="2.0000000"
     inkscape:window-height="1104"
     inkscape:window-width="1670"
     inkscape:pageshadow="2"
     inkscape:pageopacity="0.0"
     borderopacity="1.0"
     bordercolor="#666666"
     pagecolor="#ffffff"
     id="base"
     inkscape:window-x="186"
     inkscape:window-y="-19"
     inkscape:current-layer="svg2" />
  <defs
     id="defs4">
    <marker
       id="ArrowEnd"
       viewBox="0 0 10 10"
       refX="0"
       refY="5"
       markerUnits="strokeWidth"
       markerWidth="4"
       markerHeight="3"
       orient="auto">
      <path
         d="M 0 0 L 10 5 L 0 10 z"
         id="path7" />
    </marker>
    <marker
       id="ArrowStart"
       viewBox="0 0 10 10"
       refX="10"
       refY="5"
       markerUnits="strokeWidth"
       markerWidth="4"
       markerHeight="3"
       orient="auto">
      <path
         d="M 10 0 L 0 5 L 10 10 z"
         id="path10" />
    </marker>
  </defs>
  <g
     id="g4477">
    <path
       style="fill:#0000ff;stroke:none"
       d="M 0.16932000,0.15092000 L 667.28520,0.15092000 L 667.28520,396.51080 L 0.16932000,396.51080 L 0.16932000,0.15092000 L 0.16932000,0.15092000 z "
       id="path14" />
    <path
       style="fill:#ffffff;stroke:#ffffff;stroke-width:0.32400000"
       d="M 236.25720,363.46280 L 236.25720,348.12680 L 240.36120,348.12680 L 240.36120,348.12680 C 242.30520,348.12680 243.92520,348.45080 245.32950,349.09880 C 246.62520,349.85480 247.70520,350.93480 248.24520,352.01480 C 248.89320,353.31080 249.32550,354.71480 249.32550,356.11880 C 249.32550,357.52280 248.89320,358.92680 248.13720,360.00680 C 247.38120,361.19480 246.40920,362.05880 245.22120,362.70680 C 243.81720,363.24680 242.52120,363.46280 241.22520,363.46280 L 241.22520,363.46280 L 236.25720,363.46280 L 236.25720,363.46280 z M 237.76920,349.53080 L 237.76920,362.16680 L 240.14520,362.16680 L 240.14520,362.16680 C 242.30520,362.16680 244.03320,361.62680 245.43720,360.65480 C 246.84150,359.68280 247.59720,358.06280 247.81320,356.11880 C 247.81320,354.39080 247.38120,352.77080 245.97720,351.47480 C 244.78920,350.17880 242.95320,349.53080 240.36120,349.53080 L 240.36120,349.53080 L 237.76920,349.53080 L 237.76920,349.53080 z M 251.80920,363.46280 L 251.80920,348.12680 L 260.34150,348.12680 L 260.34150,349.53080 L 253.32120,349.53080 L 253.32120,355.03880 L 260.01750,355.03880 L 260.01750,356.44280 L 253.32120,356.44280 L 253.32120,362.16680 L 260.34150,362.16680 L 260.34150,363.46280 L 251.80920,363.46280 L 251.80920,363.46280 z M 262.71720,354.82280 C 262.82550,353.41880 263.25720,352.12280 264.01350,351.15080 C 264.87720,350.07080 265.84950,349.20680 267.03720,348.77480 C 268.22520,348.12680 269.41320,347.80280 270.60120,347.80280 C 272.00550,347.80280 273.40920,348.23480 274.70520,348.88280 C 275.89320,349.63880 276.97320,350.71880 277.72920,352.12280 L 277.72920,352.12280 L 276.10920,352.12280 L 276.10920,352.12280 C 274.70520,350.28680 272.86920,349.31480 270.70920,349.31480 C 269.73720,349.31480 268.44120,349.63880 267.57720,350.17880 C 266.49750,350.71880 265.63320,351.58280 265.09320,352.55480 C 264.55320,353.41880 264.12120,354.71480 264.12120,355.90280 C 264.12120,357.09080 264.55320,358.38680 265.09320,359.25080 C 265.74120,360.11480 266.60520,360.97880 267.57720,361.41080 C 268.44120,362.05880 269.73720,362.27480 270.70920,362.27480 C 272.86920,362.27480 274.81320,361.41080 276.10920,359.57480 L 276.10920,359.57480 L 277.83750,359.57480 L 277.83750,359.57480 C 277.29720,360.54680 276.64920,361.41080 275.89320,361.95080 C 275.13720,362.59880 274.27320,363.13880 273.40920,363.46280 C 272.65320,363.46280 271.68150,363.67880 270.70920,363.67880 C 269.30520,363.67880 267.79320,363.46280 266.60520,362.81480 C 265.30920,362.05880 264.12120,360.97880 263.47320,359.57480 C 262.71720,358.17080 262.50150,356.55080 262.71720,354.82280 L 262.71720,354.82280 z M 279.99750,363.46280 L 279.99750,348.12680 L 288.42120,348.12680 L 288.42120,349.53080 L 281.50950,349.53080 L 281.50950,355.03880 L 288.20520,355.03880 L 288.20520,356.44280 L 281.50950,356.44280 L 281.50950,362.16680 L 288.42120,362.16680 L 288.42120,363.46280 L 279.99750,363.46280 L 279.99750,363.46280 z M 291.22920,363.46280 L 291.22920,348.12680 L 293.49720,348.12680 L 299.22120,361.30280 L 304.94520,348.12680 L 307.21320,348.12680 L 307.21320,363.46280 L 305.70120,363.46280 L 305.70120,349.85480 L 299.86920,363.46280 L 298.46520,363.46280 L 292.74120,349.85480 L 292.74120,363.46280 L 291.22920,363.46280 L 291.22920,363.46280 z M 314.44920,348.12680 C 315.96120,348.12680 317.25720,348.45080 318.01320,349.09880 C 318.87720,349.96280 319.41720,350.93480 319.41720,352.01480 C 319.41720,353.41880 318.87720,354.49880 317.90520,355.36280 C 318.66120,355.68680 319.41720,356.33480 319.74120,356.98280 C 320.06520,357.52280 320.28120,358.49480 320.28120,359.46680 C 320.28120,360.54680 319.84920,361.51880 318.87720,362.27480 C 318.01320,363.13880 316.71720,363.46280 315.31320,363.46280 L 315.31320,363.46280 L 310.45320,363.46280 L 310.45320,348.12680 L 314.44920,348.12680 L 314.44920,348.12680 z M 311.96520,349.53080 L 311.96520,354.82280 L 314.55720,354.82280 L 314.55720,354.82280 C 315.42120,354.82280 316.28520,354.49880 316.93320,354.17480 C 317.58120,353.63480 317.90520,352.98680 317.90520,352.01480 C 317.90520,351.25880 317.58120,350.50280 316.93320,350.07080 C 316.28520,349.74680 315.42120,349.53080 314.55720,349.53080 L 314.55720,349.53080 L 311.96520,349.53080 L 311.96520,349.53080 z M 311.96520,356.22680 L 311.96520,362.16680 L 314.88120,362.16680 L 314.88120,362.16680 C 317.47320,362.16680 318.76920,361.19480 318.76920,359.25080 C 318.76920,358.27880 318.44520,357.41480 317.68920,356.98280 C 316.93320,356.44280 315.85320,356.22680 314.55720,356.22680 L 314.55720,356.22680 L 311.96520,356.22680 L 311.96520,356.22680 z M 322.44120,363.46280 L 322.44120,348.12680 L 330.86520,348.12680 L 330.86520,349.53080 L 323.95320,349.53080 L 323.95320,355.03880 L 330.64920,355.03880 L 330.64920,356.44280 L 323.95320,356.44280 L 323.95320,362.16680 L 330.86520,362.16680 L 330.86520,363.46280 L 322.44120,363.46280 L 322.44120,363.46280 z M 333.67320,363.46280 L 333.67320,348.12680 L 337.66920,348.12680 L 337.66920,348.12680 C 340.04520,348.12680 341.66520,348.55880 342.42120,349.53080 C 343.28520,350.50280 343.82520,351.58280 343.93320,352.98680 C 344.04120,353.74280 343.82520,354.49880 343.60920,355.25480 C 343.17720,356.11880 342.52920,356.65880 341.88120,357.09080 C 341.12520,357.63080 340.26120,357.84680 339.39720,357.84680 L 339.39720,357.84680 L 343.71720,363.46280 L 341.88120,363.46280 L 336.48120,356.55080 L 337.88520,356.55080 L 337.88520,356.55080 C 339.28920,356.55080 340.36920,356.33480 341.12520,355.68680 C 341.98920,355.03880 342.42120,354.17480 342.42120,353.09480 C 342.42120,352.01480 341.98920,351.15080 341.12520,350.50280 C 340.36920,349.85480 339.39720,349.53080 338.10120,349.53080 L 338.10120,349.53080 L 335.07720,349.53080 L 335.07720,363.46280 L 333.67320,363.46280 L 333.67320,363.46280 z M 359.59320,363.46280 L 366.07320,349.53080 L 358.72920,349.53080 L 358.72920,348.12680 L 367.69320,348.12680 L 367.69320,349.53080 L 361.21320,363.46280 L 359.59320,363.46280 L 359.59320,363.46280 z M 372.55320,360.97880 L 374.17320,360.97880 L 372.33720,364.75880 L 370.82520,364.75880 L 372.55320,360.97880 L 372.55320,360.97880 z M 393.39720,349.53080 L 390.69720,349.53080 L 390.69720,348.12680 L 394.80120,348.12680 L 394.80120,363.46280 L 393.39720,363.46280 L 393.39720,349.53080 L 393.39720,349.53080 z M 401.38920,363.46280 L 407.76120,349.53080 L 400.52520,349.53080 L 400.52520,348.12680 L 409.48920,348.12680 L 409.48920,349.53080 L 403.00920,363.46280 L 401.38920,363.46280 L 401.38920,363.46280 z M 416.61720,363.67880 C 415.21320,363.67880 414.02520,363.35480 413.05320,362.38280 C 412.08120,361.41080 411.75720,360.22280 411.75720,359.14280 C 411.75720,358.27880 412.08120,357.41480 412.51320,356.55080 C 412.94520,355.79480 413.48520,355.25480 414.24120,354.93080 C 413.80920,354.71480 413.37720,354.17480 413.05320,353.63480 C 412.72920,353.09480 412.51320,352.44680 412.51320,351.79880 C 412.51320,350.71880 412.94520,349.85480 413.59320,349.09880 C 414.24120,348.34280 415.42920,347.80280 416.72520,347.80280 C 417.48120,347.80280 418.12920,348.01880 418.77720,348.34280 C 419.42520,348.77480 419.96520,349.20680 420.28920,349.85480 C 420.61320,350.50280 420.72120,351.25880 420.72120,351.79880 C 420.72120,352.44680 420.72120,353.09480 420.39720,353.52680 C 419.96520,354.17480 419.53320,354.71480 418.99320,354.93080 C 419.85720,355.25480 420.50520,355.90280 420.82920,356.55080 C 421.36920,357.41480 421.69320,358.17080 421.69320,358.92680 C 421.69320,359.79080 421.36920,360.65480 421.04520,361.41080 C 420.61320,362.16680 419.96520,362.81480 419.20920,363.13880 C 418.45320,363.46280 417.58920,363.67880 416.61720,363.67880 L 416.61720,363.67880 z M 414.13320,351.90680 C 414.13320,352.66280 414.45720,353.31080 414.88920,353.63480 C 415.53720,354.17480 416.07720,354.28280 416.72520,354.28280 C 417.26520,354.28280 418.02120,354.06680 418.56120,353.52680 C 418.99320,353.09480 419.20920,352.55480 419.20920,351.90680 C 419.20920,351.25880 418.99320,350.61080 418.56120,350.07080 C 417.91320,349.63880 417.26520,349.31480 416.61720,349.31480 C 415.96920,349.31480 415.32120,349.63880 414.88920,350.07080 C 414.24120,350.61080 414.13320,351.25880 414.13320,351.90680 L 414.13320,351.90680 z M 414.24120,356.87480 C 413.59320,357.41480 413.26920,358.38680 413.26920,359.25080 C 413.26920,360.00680 413.59320,360.76280 414.24120,361.41080 C 414.88920,362.05880 415.64520,362.27480 416.61720,362.27480 C 417.58920,362.27480 418.45320,362.05880 419.10120,361.41080 C 419.64120,360.76280 419.96520,359.89880 419.96520,359.14280 C 419.96520,358.17080 419.64120,357.41480 419.10120,356.76680 C 418.34520,356.22680 417.48120,355.79480 416.50920,355.79480 C 415.64520,355.79480 414.78120,356.22680 414.24120,356.87480 L 414.24120,356.87480 z M 424.71720,363.46280 L 431.08920,349.53080 L 423.74520,349.53080 L 423.74520,348.12680 L 432.81720,348.12680 L 432.81720,349.53080 L 426.33720,363.46280 L 424.71720,363.46280 L 424.71720,363.46280 z "
       id="path16" />
    <path
       style="fill:#f49835;stroke:#000000;stroke-width:1.0800000;fill-opacity:1.0000000"
       d="M 336.15720,80.610800 L 137.54520,194.87510 L 331.18920,315.72680 L 529.90920,205.45880 L 336.15720,80.610800 L 336.15720,80.610800 z "
       id="path20" />
    <path
       style="fill:#ffffff;stroke:#000000;stroke-width:0.75600004"
       d="M 404.73720,243.04310 C 400.09320,249.84710 398.36520,251.14280 393.50520,255.13880 C 393.39720,259.24310 393.18120,264.31880 392.96520,271.77080 C 395.44920,268.74710 397.17720,264.96680 398.79720,261.51110 C 400.52520,264.64280 403.44120,267.55910 405.06120,270.90710 C 406.46520,261.61880 404.19720,252.43880 404.73720,243.04310 L 404.73720,243.04310 z "
       id="path22" />
    <path
       style="fill:#ffe425;stroke:#000000;stroke-width:0.75600004;fill-opacity:1.0000000"
       d="M 404.62920,243.25880 L 404.73720,249.95480 L 411.75720,249.95480 L 411.75720,249.95480 C 412.62120,250.27880 413.26920,251.57510 413.16120,252.22310 C 411.54120,252.43880 410.35320,254.16710 410.35320,255.57110 C 410.35320,257.29880 413.59320,257.73110 415.53720,257.62280 C 418.66920,257.51510 420.18120,252.54710 420.07320,250.27880 C 420.07320,248.87510 417.91320,245.74310 413.80920,245.31080 C 415.10520,243.36710 415.86120,240.99080 415.86120,238.50710 C 415.75320,236.56310 414.24120,233.21510 411.00120,233.21510 C 408.40920,233.10680 406.68120,235.59080 406.68120,237.31880 C 406.68120,238.93880 409.38120,241.31480 411.00120,240.34310 C 411.43320,241.85510 411.75720,242.82680 410.78520,243.25880 L 410.78520,243.25880 L 404.62920,243.25880 L 404.62920,243.25880 z "
       id="path24" />
    <path
       style="fill:#000000;stroke:#000000;stroke-width:0.75600004"
       d="M 389.50920,240.77480 C 389.72520,243.36710 390.15720,244.66310 387.78120,245.95880 C 387.24120,246.28280 386.37720,248.44280 387.24120,248.87510 C 391.12920,249.63080 396.63720,252.65480 401.28120,253.73510 C 403.33320,253.95080 403.76520,251.89910 402.57720,251.46680 C 399.55320,249.84710 397.50120,247.25480 395.88120,246.28280 C 396.42120,244.87910 397.28520,244.23110 398.14920,243.25880 C 395.01720,242.93480 392.42520,242.39510 389.50920,240.77480 L 389.50920,240.77480 z "
       id="path26" />
    <path
       style="fill:#512503;stroke:#000000;stroke-width:0.32400000;fill-opacity:1.0000000"
       d="M 311.74920,132.12680 C 321.90120,135.36710 337.45320,137.63480 350.73720,135.58310 C 350.08920,137.09480 348.90120,139.25480 346.95720,139.79480 C 344.36520,140.33510 322.76520,141.19910 318.55320,139.25480 C 316.28520,138.17510 313.90920,134.50310 311.74920,132.12680 L 311.74920,132.12680 z "
       id="path28" />
    <path
       style="fill:#007eff;stroke:none"
       d="M 315.63720,142.81880 C 317.47320,141.84710 319.30920,139.90310 321.36120,139.68710 C 323.30520,139.36310 325.14120,141.09080 327.08520,141.09080 C 329.35320,141.09080 331.94520,139.79480 334.32120,139.79480 C 336.58920,139.90310 338.42520,141.41510 340.69320,141.30680 C 342.85320,141.19910 344.90520,139.47080 347.06520,139.79480 C 349.00920,140.01110 350.30520,141.52310 352.03320,142.71110 C 350.19720,142.27880 348.36120,141.41510 346.52520,141.41510 C 344.36520,141.52310 342.63720,142.92680 340.58520,142.81880 C 338.31720,142.71110 336.58920,141.19910 334.32120,141.19910 C 331.94520,141.19910 329.46120,142.49510 327.19320,142.60280 C 325.14120,142.60280 323.41320,141.41510 321.36120,141.41510 C 319.41720,141.41510 317.58120,142.38710 315.63720,142.81880 L 315.63720,142.81880 z "
       id="path30" />
    <path
       style="fill:#ff0000;stroke:#000000;stroke-width:0.32400000"
       d="M 339.50520,113.11880 C 341.55720,112.90310 343.28520,115.81880 345.66120,116.57510 C 343.93320,117.65480 341.01720,114.84710 339.50520,117.33110 L 339.50520,117.33110 L 339.50520,113.11880 L 339.50520,113.11880 z M 333.34920,110.41910 C 334.53720,111.82280 337.88520,110.31080 338.10120,112.25480 C 336.48120,111.39110 335.40120,114.63080 333.34920,114.84710 L 333.34920,114.84710 L 333.34920,110.41910 L 333.34920,110.41910 z M 325.68120,115.38710 C 327.19320,113.01110 328.70520,114.84710 330.97320,113.76680 C 328.38120,112.90310 328.38120,110.52710 325.68120,111.49910 L 325.68120,111.49910 L 325.68120,115.38710 L 325.68120,115.38710 z "
       id="path32" />
    <path
       style="fill:#e4e4e4;stroke:#000000;stroke-width:1.0800000"
       d="M 324.06120,153.07910 C 319.63320,153.07910 321.79320,145.95080 318.33720,145.95080 L 318.33720,145.95080 L 315.85320,145.95080 L 315.85320,145.95080 C 319.30920,145.95080 317.14920,153.07910 321.57720,153.07910 L 321.57720,153.07910 L 324.06120,153.07910 L 324.06120,153.07910 z M 331.51320,153.07910 C 327.08520,153.07910 329.24520,145.95080 325.89720,145.95080 L 325.89720,145.95080 L 323.30520,145.95080 L 323.30520,145.95080 C 326.76120,145.95080 324.60120,153.07910 329.02920,153.07910 L 329.02920,153.07910 L 331.51320,153.07910 L 331.51320,153.07910 z M 338.96520,153.07910 C 334.42920,153.07910 336.69720,145.95080 333.24120,145.95080 L 333.24120,145.95080 L 330.75720,145.95080 L 330.75720,145.95080 C 334.10520,145.95080 331.94520,153.07910 336.48120,153.07910 L 336.48120,153.07910 L 338.96520,153.07910 L 338.96520,153.07910 z M 346.52520,153.07910 C 341.98920,153.07910 344.14920,145.95080 340.80120,145.95080 L 340.80120,145.95080 L 338.31720,145.95080 L 338.31720,145.95080 C 341.66520,145.95080 339.50520,153.07910 344.04120,153.07910 L 344.04120,153.07910 L 346.52520,153.07910 L 346.52520,153.07910 z M 353.86920,153.07910 C 349.44120,153.07910 351.60120,145.95080 348.25320,145.95080 L 348.25320,145.95080 L 345.66120,145.95080 L 345.66120,145.95080 C 349.11720,145.95080 346.95720,153.07910 351.38520,153.07910 L 351.38520,153.07910 L 353.86920,153.07910 L 353.86920,153.07910 z "
       id="path34" />
    <path
       style="fill:#ffffff;stroke:#000000;stroke-width:1.0800000"
       d="M 313.36920,145.95080 C 310.77720,145.95080 312.82920,153.51110 318.76920,152.97080 C 314.98920,152.75480 316.50120,145.95080 313.36920,145.95080 L 313.36920,145.95080 z M 356.46120,153.07910 C 351.92520,153.07910 354.08520,145.95080 350.73720,145.95080 L 350.73720,145.95080 L 348.25320,145.95080 L 348.25320,145.95080 C 351.60120,145.95080 349.44120,153.07910 353.97720,153.07910 L 353.97720,153.07910 L 356.46120,153.07910 L 356.46120,153.07910 z M 349.00920,153.07910 C 344.47320,153.07910 346.63320,145.95080 343.28520,145.95080 L 343.28520,145.95080 L 340.80120,145.95080 L 340.80120,145.95080 C 344.14920,145.95080 341.98920,153.07910 346.41720,153.07910 L 346.41720,153.07910 L 349.00920,153.07910 L 349.00920,153.07910 z M 341.44920,153.07910 C 337.02120,153.07910 339.18120,145.95080 335.72520,145.95080 L 335.72520,145.95080 L 333.24120,145.95080 L 333.24120,145.95080 C 336.69720,145.95080 334.42920,153.07910 338.96520,153.07910 L 338.96520,153.07910 L 341.44920,153.07910 L 341.44920,153.07910 z M 333.99720,153.07910 C 329.56920,153.07910 331.72920,145.95080 328.27320,145.95080 L 328.27320,145.95080 L 325.78920,145.95080 L 325.78920,145.95080 C 329.24520,145.95080 327.08520,153.07910 331.51320,153.07910 L 331.51320,153.07910 L 333.99720,153.07910 L 333.99720,153.07910 z M 326.54520,153.07910 C 322.00920,153.07910 324.27720,145.95080 320.82120,145.95080 L 320.82120,145.95080 L 318.33720,145.95080 L 318.33720,145.95080 C 321.79320,145.95080 319.52520,153.07910 324.06120,153.07910 L 324.06120,153.07910 L 326.54520,153.07910 L 326.54520,153.07910 z "
       id="path36" />
    <path
       style="fill:#00ffff;stroke:#000000;stroke-width:1.0800000;stroke-miterlimit:4.0000000;stroke-dasharray:none"
       d="M 355.59720,153.07910 C 358.18920,153.07910 356.13720,145.51910 350.19720,145.95080 C 353.97720,146.27480 352.46520,153.07910 355.59720,153.07910 L 355.59720,153.07910 z M 351.38520,153.07910 C 346.95720,153.07910 349.11720,145.95080 345.66120,145.95080 L 345.66120,145.95080 L 343.17720,145.95080 L 343.17720,145.95080 C 346.63320,145.95080 344.47320,153.07910 348.90120,153.07910 L 348.90120,153.07910 L 351.38520,153.07910 L 351.38520,153.07910 z M 343.93320,153.07910 C 339.50520,153.07910 341.66520,145.95080 338.20920,145.95080 L 338.20920,145.95080 L 335.72520,145.95080 L 335.72520,145.95080 C 339.18120,145.95080 337.02120,153.07910 341.44920,153.07910 L 341.44920,153.07910 L 343.93320,153.07910 L 343.93320,153.07910 z M 336.48120,153.07910 C 332.05320,153.07910 334.21320,145.95080 330.75720,145.95080 L 330.75720,145.95080 L 328.27320,145.95080 L 328.27320,145.95080 C 331.72920,145.95080 329.56920,153.07910 333.99720,153.07910 L 333.99720,153.07910 L 336.48120,153.07910 L 336.48120,153.07910 z M 329.02920,153.07910 C 324.60120,153.07910 326.76120,145.95080 323.30520,145.95080 L 323.30520,145.95080 L 320.82120,145.95080 L 320.82120,145.95080 C 324.27720,145.95080 322.11720,153.07910 326.54520,153.07910 L 326.54520,153.07910 L 329.02920,153.07910 L 329.02920,153.07910 z M 321.57720,153.07910 C 317.14920,153.07910 319.30920,145.95080 315.85320,145.95080 L 315.85320,145.95080 L 313.36920,145.95080 L 313.36920,145.95080 C 316.82520,145.95080 314.66520,153.07910 319.09320,153.07910 L 319.09320,153.07910 L 321.57720,153.07910 L 321.57720,153.07910 z "
       id="path38" />
    <path
       style="fill:#ffffff;stroke:#000000;stroke-width:0.75600004"
       d="M 284.85720,258.37910 C 284.10120,262.59080 283.56120,266.69510 283.77720,271.33910 C 281.29320,268.96280 279.78120,266.04710 277.51350,264.31880 C 275.67750,266.26280 273.51750,267.66710 271.68150,269.39510 C 272.11320,262.05110 273.08520,254.92280 272.86920,247.57910 C 276.43320,251.57510 279.78120,254.70710 284.85720,258.37910 L 284.85720,258.37910 z "
       id="path40" />
    <path
       style="fill:#ffe425;stroke:#000000;stroke-width:0.75600004;fill-opacity:1.0000000"
       d="M 272.86920,247.90310 L 272.86920,252.43880 L 272.86920,252.43880 C 270.49350,250.92680 265.84950,249.09080 263.04120,250.27880 C 262.17750,250.60280 261.52920,251.14280 261.63720,251.79080 C 263.25720,252.11480 264.87720,255.57110 264.87720,256.86710 C 264.87720,259.02710 260.98950,259.56710 259.15320,259.56710 C 255.91320,259.45880 254.50950,254.16710 254.50950,251.89910 C 254.61720,250.38710 256.77720,247.14680 260.88120,246.82280 C 259.58520,244.87910 258.72120,240.55910 258.82950,238.07510 C 258.82950,236.02310 260.34150,232.67510 263.58120,232.67510 C 266.28120,232.56710 268.00950,235.05110 268.00950,236.77880 C 268.00950,238.50710 265.20120,240.99080 263.58120,240.01910 C 263.14920,241.42280 263.14920,243.04310 264.12120,243.47480 C 265.74120,244.01510 271.03320,248.11880 272.86920,247.90310 L 272.86920,247.90310 z "
       id="path42" />
    <path
       style="fill:#e55e00;stroke:#000000;stroke-width:0.75600004;fill-opacity:1.0000000"
       d="M 310.02120,189.15080 C 309.58920,186.45080 307.21320,185.37110 305.37720,184.29080 C 305.70120,183.31880 306.13320,182.45480 306.45720,181.48280 C 299.86920,171.33110 309.04920,162.25880 318.87720,162.90710 C 325.89720,158.37110 341.44920,158.26280 347.60520,162.90710 C 359.05320,162.15080 366.28920,169.60280 360.34920,180.40310 C 360.13320,182.02310 360.02520,183.75110 359.80920,185.37110 C 357.32520,186.23510 355.27320,188.17910 353.54520,190.12280 C 340.04520,191.41910 325.78920,192.06710 310.02120,189.15080 L 310.02120,189.15080 z "
       id="path44" />
    <path
       style="fill:#ffffff;stroke:#000000;stroke-width:0.75600004"
       d="M 319.30920,160.74710 C 318.33720,159.77480 319.52520,156.96680 321.03720,157.93880 C 320.06520,156.42680 323.19720,154.80680 324.38520,155.99510 C 323.62920,154.26680 327.94920,153.07910 328.38120,154.91510 C 328.48920,153.18710 331.83720,152.97080 332.16120,154.59080 C 332.37720,152.97080 336.37320,152.86310 336.37320,154.59080 C 336.69720,153.18710 340.15320,153.51110 339.82920,155.45480 C 340.80120,153.72710 343.39320,155.34710 342.63720,156.85910 C 343.93320,155.56310 345.55320,157.18310 345.01320,158.47880 C 346.20120,157.18310 348.14520,159.12680 346.84920,160.42280 C 343.17720,163.98680 339.82920,167.55110 336.26520,171.22310 C 335.07720,172.51910 331.08120,172.51910 330.00120,171.22310 C 326.65320,167.55110 322.98120,164.20310 319.30920,160.74710 L 319.30920,160.74710 z "
       id="path46" />
    <path
       style="fill:#000000;stroke:#000000;stroke-width:0.75600004"
       d="M 285.93720,237.42680 C 288.74520,237.75110 292.09320,238.18310 294.68520,237.21110 C 293.60520,240.23510 297.38520,243.25880 297.92520,246.93080 C 297.92520,250.60280 294.03720,250.60280 291.76920,247.47080 C 286.90920,243.79880 290.14920,244.23110 286.69320,242.71910 C 284.42520,241.63880 287.12520,240.23510 285.93720,237.42680 L 285.93720,237.42680 z M 279.45720,235.48280 C 279.34950,238.07510 278.91720,239.15480 281.07720,240.45080 C 281.72520,240.77480 282.58920,242.82680 281.72520,243.25880 C 277.83750,243.90710 272.43720,246.93080 267.79320,247.90310 C 265.74120,248.01110 265.20120,246.06710 266.38920,245.63480 C 269.52120,244.12280 271.46520,241.74710 273.08520,240.77480 C 272.65320,239.37110 271.78920,238.83110 270.81720,237.96680 C 274.05720,237.53510 276.64920,237.10280 279.45720,235.48280 L 279.45720,235.48280 z "
       id="path48" />
    <path
       style="fill:#ffb98e;stroke:#000000;stroke-width:0.75600004"
       d="M 295.22520,186.99080 C 296.19720,187.20710 297.06120,187.42280 298.03320,187.63880 C 297.60120,189.47480 297.16920,191.31080 296.73720,193.25480 C 295.44120,194.33510 293.71320,194.55110 291.98520,194.33510 C 292.30920,192.06710 292.63320,189.90710 292.95720,187.74710 C 293.71320,187.53110 294.03720,186.55910 295.22520,186.99080 L 295.22520,186.99080 z "
       id="path50" />
    <path
       style="fill:#a44700;stroke:#000000;stroke-width:0.77999997;stroke-miterlimit:4.0000000;stroke-dasharray:none;fill-opacity:1.0000000"
       d="M 270.60120,191.09480 C 268.00950,203.19110 265.20120,210.42680 267.03720,214.20710 C 264.98520,217.55510 270.27720,234.18710 270.81720,237.96680 C 273.73320,238.18310 277.51350,237.21110 279.34950,235.59080 C 280.86120,233.21510 278.26920,225.54710 275.35350,218.41910 C 277.51350,212.26280 279.88920,204.59480 282.26520,201.57110 C 283.56120,206.97080 283.88520,231.16310 285.72120,237.53510 C 288.31320,237.85910 292.20120,238.50710 294.79320,237.21110 C 295.33320,221.98280 296.08920,193.57910 294.14520,190.01510 C 291.44520,189.79880 280.21320,194.01110 270.60120,191.09480 L 270.60120,191.09480 z "
       id="path52" />
    <path
       style="fill:#840616;stroke:#000000;stroke-width:0.77999997;stroke-miterlimit:4.0000000;stroke-dasharray:none;fill-opacity:1.0000000"
       d="M 265.09320,178.02710 C 263.79720,179.64680 261.52920,182.88710 259.80120,182.23910 C 255.15750,179.43080 257.64120,170.79080 257.64120,165.82280 C 258.72120,167.65880 260.23320,167.11880 261.09720,167.01110 L 261.09720,167.01110 L 262.06920,174.46280 L 262.06920,174.46280 C 262.82550,172.30280 265.63320,168.63080 265.84950,165.60680 C 266.60520,160.53110 267.46920,158.91110 270.81720,157.39910 C 273.94920,155.99510 276.97320,155.99510 277.72920,155.77880 C 276.97320,159.55910 280.21320,166.36310 281.50950,166.25480 C 282.69720,166.14680 285.93720,159.23510 286.26120,155.77880 L 294.25320,157.72310 C 296.73720,158.37110 299.11320,159.55910 299.86920,163.66310 C 300.84120,167.55110 303.97320,172.08680 304.29720,176.19110 C 304.29720,179.97080 299.32920,189.79880 296.73720,193.14680 C 294.79320,190.01510 297.38520,187.85510 295.22520,186.88310 C 296.73720,182.34710 297.06120,176.94680 298.03320,174.89510 C 296.30520,173.92280 295.44120,173.49080 294.46920,172.19510 C 294.25320,178.24310 293.17350,180.83510 293.82120,186.34310 C 293.92920,187.96280 295.87320,189.36710 294.68520,189.79880 C 283.02120,194.11880 268.87320,191.74310 269.52120,190.01510 L 269.52120,190.01510 L 270.16950,188.39510 L 270.16950,188.39510 C 271.35720,183.85910 269.52120,179.53910 269.62920,172.19510 C 268.11720,174.67910 267.36120,175.54310 265.09320,178.02710 L 265.09320,178.02710 z "
       id="path54" />
    <path
       style="fill:#2f0808;stroke:#000000;stroke-width:0.55599999;stroke-miterlimit:4.0000000;stroke-dasharray:none;fill-opacity:1.0000000"
       d="M 258.07320,155.56310 C 262.82550,166.14680 267.25320,176.83910 271.46520,188.93480 C 272.43720,190.77080 275.56920,189.15080 274.38120,187.74710 C 268.76520,176.94680 264.66150,165.71510 260.66550,154.26680 L 260.66550,154.26680 L 258.07320,155.56310 L 258.07320,155.56310 z "
       id="path56" />
    <path
       style="fill:#e4e4e4;stroke:#000000;stroke-width:0.75599998;stroke-miterlimit:4.0000000;stroke-dasharray:none"
       d="M 254.07720,160.09880 L 259.69320,155.23910 L 266.17350,153.72710 L 266.17350,153.72710 C 268.22520,151.89110 265.30920,145.51910 262.50150,146.70710 L 262.50150,146.70710 L 257.20920,150.16310 L 249.97320,150.81080 L 249.97320,150.81080 C 247.70520,156.53510 251.91720,159.77480 254.07720,160.09880 L 254.07720,160.09880 z "
       id="path58" />
    <path
       style="fill:#000000;stroke:#000000;stroke-width:0.75600004"
       d="M 381.84120,242.07110 C 378.92520,242.07110 378.92520,241.96280 376.11720,241.20710 C 377.30520,244.77080 374.06520,247.79480 371.04120,250.81880 C 369.52920,253.73510 371.58120,254.27480 375.25320,253.62680 C 378.60120,251.68310 378.27720,250.06310 381.19320,249.30680 C 383.67720,248.11880 380.54520,245.20310 381.84120,242.07110 L 381.84120,242.07110 z "
       id="path60" />
    <path
       style="fill:#f4a7ad;stroke:#000000;stroke-width:0.68000001;stroke-miterlimit:4.0000000;stroke-dasharray:none;fill-opacity:1.0000000"
       d="M 398.68920,198.97880 C 401.28120,211.72310 404.73720,213.45080 403.44120,218.85110 C 404.30520,220.25480 404.52120,220.47080 402.57720,221.65880 C 396.09720,222.30680 392.96520,224.79080 393.93720,222.95480 C 391.77720,216.47480 390.91320,212.58680 388.64520,209.45480 C 387.34920,215.07110 386.16120,216.69110 384.32520,223.27880 C 381.73320,223.60280 377.19720,223.17110 374.60520,221.76680 C 373.20120,214.63880 376.87320,209.56310 376.33320,198.76280 C 378.92520,198.43880 389.29320,199.84310 398.68920,198.97880 L 398.68920,198.97880 z "
       id="path62" />
    <path
       style="fill:#197800;stroke:#000000;stroke-width:0.68000001;stroke-miterlimit:4.0000000;stroke-dasharray:none;fill-opacity:1.0000000"
       d="M 404.95320,191.74310 L 405.81720,187.42280 L 405.81720,187.42280 C 406.57320,185.04710 407.11320,183.64280 406.46520,179.86310 C 405.70920,177.48680 404.41320,169.17110 403.54920,165.71510 C 403.00920,163.01510 397.60920,159.88310 394.47720,158.69510 C 391.88520,157.07510 391.45320,157.61480 390.69720,157.39910 C 390.58920,161.28680 391.34520,164.20310 386.80920,164.52710 C 382.48920,163.23110 382.81320,161.07110 381.73320,157.29080 L 377.84520,159.01910 C 375.36120,161.07110 372.98520,159.23510 369.31320,165.28280 C 367.58520,170.14280 363.69720,174.57110 363.48120,178.78280 C 363.48120,182.77880 370.06920,188.39510 372.66120,191.85110 C 374.60520,188.61080 372.01320,186.34310 374.17320,185.37110 C 372.66120,180.51110 370.71720,178.78280 369.74520,176.51510 C 371.47320,175.65080 373.63320,172.19510 374.60520,170.89910 C 373.95720,175.54310 374.71320,191.85110 374.38920,198.00710 C 374.28120,199.73510 374.92920,201.24710 376.00920,201.67910 C 380.54520,203.40710 386.05320,202.32680 388.53720,199.95080 C 390.26520,201.67910 391.34520,202.11080 395.66520,202.11080 C 398.25720,202.21910 399.01320,201.24710 399.87720,199.73510 C 399.55320,189.04310 399.98520,181.37510 400.30920,180.07910 C 400.63320,186.88310 402.36120,184.29080 404.95320,191.74310 L 404.95320,191.74310 z "
       id="path64" />
    <path
       style="fill:#ffd531;stroke:#000000;stroke-width:0.55599999;stroke-miterlimit:4.0000000;stroke-dasharray:none"
       d="M 316.39320,166.79480 C 318.01320,169.27880 319.95720,171.76280 320.92920,175.00310 C 321.46920,175.65080 322.11720,176.29880 322.76520,176.94680 C 325.46520,176.83910 327.73320,178.24310 329.56920,179.86310 C 329.13720,184.07510 328.70520,186.12680 325.03320,187.42280 C 322.54920,186.66710 320.17320,184.61480 318.66120,182.45480 C 317.79720,181.59080 317.47320,181.05110 316.60920,180.29480 C 313.58520,180.07910 310.45320,178.56710 307.53720,177.81080 C 306.56520,178.24310 306.02520,176.83910 306.24120,176.08310 C 305.37720,175.43480 305.48520,174.13880 306.34920,173.59880 C 305.91720,172.84310 305.37720,171.43880 306.78120,171.00710 C 306.56520,170.14280 307.21320,168.73910 307.96920,168.95480 C 307.75320,167.87510 308.83320,167.11880 309.91320,167.11880 C 310.12920,166.14680 311.20920,165.39110 312.72120,165.49910 C 313.36920,164.95880 314.23320,165.28280 314.66520,166.25480 C 315.20520,165.71510 316.17720,165.93080 316.39320,166.79480 L 316.39320,166.79480 z "
       id="path66" />
    <path
       style="fill:#000000;stroke:#000000;stroke-width:0.75600004"
       d="M 311.53320,172.73510 C 311.96520,174.03110 312.18120,175.32680 311.74920,176.83910 C 312.93720,178.13480 315.20520,178.99910 317.68920,179.21510 C 317.36520,179.64680 317.14920,179.97080 316.50120,180.07910 C 313.36920,179.64680 310.56120,178.56710 307.53720,177.59480 C 307.86120,177.48680 308.07720,177.37910 308.50920,177.16310 C 308.50920,176.94680 308.50920,176.62280 308.40120,176.40710 C 308.72520,176.51510 308.94120,176.51510 309.26520,176.51510 C 309.58920,176.08310 309.48120,175.86710 309.48120,175.43480 C 309.80520,175.75880 310.23720,175.65080 310.66920,175.65080 C 311.10120,174.67910 311.42520,173.81480 311.53320,172.73510 L 311.53320,172.73510 z "
       id="path68" />
    <path
       style="fill:#ffffff;stroke:#000000;stroke-width:0.75600004"
       d="M 320.92920,174.89510 C 319.84920,177.05510 318.76920,179.21510 316.60920,180.29480 L 316.60920,180.29480 L 318.55320,182.34710 L 318.55320,182.34710 C 320.60520,180.83510 321.79320,179.21510 322.65720,176.94680 L 322.65720,176.94680 L 320.92920,174.89510 L 320.92920,174.89510 z "
       id="path70" />
    <path
       style="fill:#ffff00;stroke:#000000;stroke-width:0.32400000"
       d="M 350.52120,179.43080 L 355.27320,171.97880 L 355.27320,171.97880 C 357.21720,168.41510 355.48920,166.79480 352.03320,168.63080 L 352.03320,168.63080 L 344.58120,173.49080 L 344.79720,179.21510 L 350.52120,179.43080 L 350.52120,179.43080 z "
       id="path72" />
    <path
       style="fill:#00be00;stroke:#000000;stroke-width:0.32400000"
       d="M 344.79720,179.10680 C 349.65720,179.53910 353.22120,177.48680 357.43320,175.97480 L 357.43320,175.97480 L 358.08120,178.02710 L 356.46120,176.83910 L 350.73720,179.43080 L 353.00520,180.51110 L 353.00520,180.51110 C 353.76120,181.15880 352.35720,182.99510 351.38520,182.88710 L 351.38520,182.88710 L 345.66120,183.21110 L 344.68920,184.29080 L 346.95720,184.83110 L 346.95720,184.83110 C 347.71320,184.93880 347.82120,186.01910 346.95720,186.23510 L 346.95720,186.23510 L 339.07320,187.42280 L 339.07320,187.42280 C 338.10120,187.85510 337.23720,187.20710 337.23720,185.47880 L 337.23720,185.47880 L 338.42520,177.70310 L 338.42520,177.70310 C 338.53320,176.83910 339.39720,176.73110 339.82920,177.70310 L 339.82920,177.70310 L 340.36920,180.07910 L 341.23320,179.10680 L 340.69320,174.57110 L 340.69320,174.57110 C 340.26120,173.38310 340.80120,172.73510 341.55720,172.95080 L 341.55720,172.95080 L 344.47320,173.59880 L 347.82120,168.09080 L 346.52520,166.47080 L 348.68520,167.22710 L 348.68520,167.22710 C 346.52520,171.22310 345.22920,174.46280 344.79720,179.10680 L 344.79720,179.10680 z "
       id="path74" />
    <path
       style="fill:#ffffff;stroke:#000000;stroke-width:0.75600004"
       d="M 308.40120,198.87110 C 297.38520,204.27080 300.08520,218.52710 306.67320,225.76280 C 322.11720,234.51110 339.50520,233.32280 357.21720,228.35510 C 366.39720,217.44680 369.09720,202.11080 357.97320,199.08680 C 341.44920,196.81880 324.92520,196.06310 308.40120,198.87110 L 308.40120,198.87110 z "
       id="path76" />
    <path
       style="fill:#09d405;stroke:#000000;stroke-width:0.75600004;fill-opacity:1.0000000"
       d="M 306.67320,222.63080 C 324.27720,221.87510 341.44920,222.19910 358.29720,223.49510 C 358.51320,229.54310 341.98920,232.89110 333.02520,232.78280 C 320.92920,232.56710 310.56120,229.32680 306.67320,222.63080 L 306.67320,222.63080 z "
       id="path78" />
    <path
       style="fill:#000000;stroke:#000000;stroke-width:0.75600004"
       d="M 309.58920,188.50310 C 309.69720,192.17510 306.67320,194.44280 304.18920,196.71110 C 304.40520,197.89910 304.51320,199.08680 304.62120,200.27480 C 306.34920,199.73510 308.61720,200.49080 309.37320,202.00310 C 312.50520,201.13880 314.88120,199.08680 318.66120,199.19510 C 322.44120,199.30280 326.65320,202.11080 331.08120,202.11080 C 335.50920,202.11080 340.04520,199.08680 344.68920,199.30280 C 349.33320,199.41110 353.76120,202.00310 358.29720,203.40710 C 358.18920,201.24710 360.24120,200.27480 361.86120,199.84310 C 361.75320,198.54710 361.75320,197.14280 361.75320,195.84710 C 358.08120,195.30680 355.81320,192.06710 354.94920,188.93480 C 351.27720,189.47480 348.90120,187.42280 344.79720,187.53110 C 340.69320,187.53110 335.72520,190.77080 331.18920,190.66310 C 326.54520,190.66310 321.90120,186.77480 318.22920,186.77480 C 314.44920,186.66710 312.82920,188.71910 309.58920,188.50310 L 309.58920,188.50310 z "
       id="path80" />
    <path
       style="fill:#71aaff;stroke:#000000;stroke-width:0.75600004"
       d="M 310.56120,188.50310 C 312.82920,187.96280 315.09720,186.88310 317.36520,186.77480 C 322.87320,186.45080 325.89720,190.55510 331.40520,190.66310 C 335.94120,190.77080 341.12520,187.20710 344.68920,187.42280 C 348.25320,187.63880 351.92520,189.36710 355.16520,188.93480 C 355.48920,189.69110 355.70520,190.44680 356.02920,191.20310 C 352.35720,190.77080 348.79320,189.69110 345.22920,190.01510 C 340.69320,190.33910 336.26520,193.14680 331.72920,192.93080 C 326.86920,192.71510 322.54920,189.25880 317.68920,188.71910 C 315.20520,188.50310 312.93720,190.01510 310.56120,190.66310 C 310.56120,189.90710 310.56120,189.15080 310.56120,188.50310 L 310.56120,188.50310 z "
       id="path82" />
    <path
       style="fill:#ffe425;stroke:#000000;stroke-width:0.65600002;stroke-miterlimit:4.0000000;stroke-dasharray:none"
       d="M 363.58920,204.27080 C 362.94120,205.24310 361.64520,206.21510 360.02520,205.99910 C 358.29720,205.89110 357.00120,204.05510 357.10920,202.54310 C 357.10920,200.59880 358.51320,198.65480 361.64520,198.65480 C 365.74920,198.65480 366.50520,202.75880 366.93720,205.89110 C 368.23320,205.45880 369.63720,204.70310 370.50120,203.40710 C 370.17720,207.61880 367.80120,210.85910 366.93720,214.74710 C 368.01720,214.63880 368.66520,214.53110 369.31320,213.99080 C 369.20520,216.90710 367.36920,219.39110 365.10120,221.22710 C 366.28920,221.55110 367.47720,221.44280 368.44920,220.90310 C 366.93720,223.81880 363.58920,226.19510 359.48520,226.84310 C 362.18520,227.05910 363.91320,228.35510 363.69720,230.08310 C 363.58920,231.81080 361.86120,232.56710 360.34920,232.56710 C 358.29720,232.56710 356.56920,231.05510 357.64920,229.11080 C 356.56920,229.65080 344.04120,232.02710 340.90920,231.81080 L 340.90920,231.81080 L 340.80120,229.75880 L 340.80120,229.75880 C 361.32120,227.16710 365.20920,218.85110 363.58920,204.27080 L 363.58920,204.27080 z M 303.86520,205.13480 C 304.51320,206.10680 305.80920,207.07910 307.42920,206.86310 C 309.04920,206.75480 310.34520,204.91910 310.23720,203.40710 C 310.23720,201.46280 308.94120,199.51910 305.80920,199.51910 C 301.59720,199.51910 300.84120,203.62280 300.51720,206.75480 C 299.11320,206.32280 297.70920,205.56710 296.84520,204.27080 C 297.16920,208.48280 299.54520,211.72310 300.51720,215.61080 C 299.43720,215.50310 298.78920,215.39510 298.14120,214.85510 C 298.24920,217.77080 300.08520,220.25480 302.24520,222.09080 C 301.05720,222.30680 299.97720,222.30680 298.89720,221.76680 C 300.51720,224.68310 303.75720,227.05910 307.86120,227.70710 C 305.16120,227.92280 303.54120,229.21910 303.64920,230.94680 C 303.86520,232.67510 305.48520,233.43080 306.99720,233.43080 C 308.18520,233.43080 309.26520,232.78280 309.69720,232.13480 C 310.02120,231.37910 310.12920,230.62280 309.80520,229.97480 C 314.44920,232.35110 318.12120,232.99910 325.35720,233.21510 C 325.89720,232.35110 326.54520,231.37910 326.54520,230.62280 C 306.02520,228.03110 302.13720,219.71510 303.86520,205.13480 L 303.86520,205.13480 z M 305.80920,186.55910 C 306.13320,186.99080 305.37720,187.74710 304.72920,187.74710 C 304.08120,187.74710 302.89320,187.20710 302.89320,185.58680 C 302.78520,183.64280 304.83720,183.21110 306.02520,183.75110 C 311.64120,185.91110 311.42520,190.55510 309.37320,193.90310 C 308.18520,195.84710 303.86520,197.79080 302.46120,196.71110 C 301.70520,196.06310 301.38120,195.09080 302.02920,194.55110 C 302.67720,194.01110 303.43320,193.90310 303.86520,194.11880 C 304.29720,194.33510 304.72920,194.87510 304.18920,195.19910 C 307.96920,194.33510 310.45320,189.15080 305.80920,186.55910 L 305.80920,186.55910 z M 359.48520,186.55910 C 359.05320,186.99080 359.80920,187.74710 360.45720,187.74710 C 361.21320,187.74710 362.29320,187.20710 362.29320,185.58680 C 362.40120,183.64280 360.34920,183.21110 359.16120,183.75110 C 353.54520,185.91110 353.76120,190.55510 355.81320,193.90310 C 357.10920,195.84710 361.32120,197.79080 362.72520,196.71110 C 363.48120,196.06310 363.80520,195.09080 363.26520,194.55110 C 362.61720,194.01110 361.86120,193.90310 361.32120,194.11880 C 360.88920,194.33510 360.45720,194.87510 360.99720,195.19910 C 357.32520,194.33510 354.73320,189.15080 359.48520,186.55910 L 359.48520,186.55910 z M 348.79320,164.31080 C 349.87320,164.52710 349.87320,166.36310 349.00920,167.01110 C 348.14520,167.65880 346.74120,167.87510 346.20120,167.01110 C 345.44520,165.60680 346.30920,162.47480 347.28120,162.15080 C 356.67720,159.01910 362.50920,165.82280 364.12920,172.19510 C 364.99320,176.19110 362.07720,183.21110 359.05320,183.21110 C 357.43320,183.21110 355.81320,182.23910 355.81320,180.83510 C 355.81320,179.43080 356.56920,178.45880 357.43320,178.35110 C 358.29720,178.13480 359.48520,178.45880 359.16120,179.32280 C 360.99720,178.13480 362.07720,176.29880 361.86120,174.03110 C 361.53720,169.49510 357.43320,163.23110 348.79320,164.31080 L 348.79320,164.31080 z M 318.01320,164.31080 C 316.93320,164.52710 317.04120,166.36310 317.79720,167.01110 C 318.66120,167.65880 320.06520,167.87510 320.60520,167.01110 C 321.46920,165.60680 320.49720,162.47480 319.52520,162.15080 C 310.12920,159.01910 304.29720,165.82280 302.78520,172.19510 C 301.81320,176.19110 304.72920,183.21110 307.86120,183.21110 C 309.48120,183.21110 310.99320,182.23910 310.99320,180.83510 C 310.99320,179.43080 310.23720,178.45880 309.37320,178.35110 C 308.61720,178.13480 307.32120,178.45880 307.64520,179.32280 C 305.80920,178.13480 304.83720,176.29880 304.94520,174.03110 C 305.26920,169.49510 309.37320,163.23110 318.01320,164.31080 L 318.01320,164.31080 z M 326.32920,231.59480 C 326.76120,231.48680 326.97720,231.70310 326.97720,231.27080 L 326.97720,231.27080 L 326.65320,227.49080 L 329.56920,231.59480 L 330.10920,227.05910 L 332.48520,231.59480 L 334.32120,226.41110 L 335.29320,231.59480 L 337.77720,227.05910 L 338.20920,231.27080 L 341.01720,227.05910 L 340.90920,232.02710 L 340.90920,232.02710 C 340.90920,232.99910 342.20520,232.02710 344.47320,231.70310 C 346.95720,231.81080 348.46920,235.15880 345.76920,236.56310 C 343.17720,237.85910 342.74520,231.91910 339.72120,236.45480 C 337.99320,239.80280 338.74920,240.55910 336.04920,243.15080 C 334.21320,244.66310 330.00120,244.44680 329.78520,241.96280 C 330.10920,239.04710 333.88920,241.53110 333.13320,237.75110 C 333.34920,236.13080 332.05320,234.72710 330.43320,234.72710 C 328.81320,234.61880 328.48920,235.91510 327.51720,237.10280 C 324.16920,237.31880 323.30520,232.89110 326.32920,231.59480 L 326.32920,231.59480 z M 309.91320,233.43080 C 311.96520,237.10280 312.61320,242.17910 309.91320,246.71510 C 313.80120,246.93080 316.71720,244.98680 319.41720,240.99080 C 319.84920,242.61080 320.28120,244.12280 320.60520,245.74310 C 322.44120,245.20310 323.73720,242.93480 325.35720,240.77480 C 325.57320,242.39510 325.68120,243.90710 325.89720,245.52710 C 327.08520,245.74310 327.94920,246.49910 328.70520,248.11880 C 326.76120,249.09080 326.11320,249.41510 324.16920,249.84710 C 324.70920,251.57510 325.24920,253.41110 325.78920,255.13880 C 323.62920,254.92280 322.00920,254.59880 320.82120,252.97880 C 320.60520,254.70710 319.63320,255.89510 318.33720,257.08310 C 317.90520,254.70710 317.90520,252.54710 316.71720,250.17110 C 315.31320,251.46680 313.80120,253.73510 311.42520,254.16710 C 311.85720,252.54710 311.85720,251.25110 311.64120,249.84710 C 309.48120,250.38710 309.15720,250.06310 307.96920,248.65880 C 307.75320,251.35910 306.56520,252.76280 302.46120,252.54710 C 303.00120,250.38710 303.21720,249.09080 301.81320,247.68710 C 301.05720,248.11880 300.30120,248.65880 299.54520,249.09080 C 300.08520,247.79480 300.73320,246.60680 301.27320,245.31080 C 297.92520,245.95880 297.38520,242.61080 300.73320,240.66710 C 300.08520,237.53510 299.86920,237.96680 302.24520,236.56310 C 301.27320,235.37510 301.59720,233.97080 301.81320,232.56710 C 303.64920,233.43080 304.83720,234.18710 305.91720,235.59080 C 306.78120,234.18710 308.07720,233.75480 309.91320,233.43080 L 309.91320,233.43080 z M 371.14920,249.41510 C 372.76920,247.36310 374.28120,244.55510 373.09320,241.85510 C 371.79720,237.53510 372.12120,233.21510 375.68520,229.65080 C 372.12120,230.29880 370.39320,231.59480 368.44920,233.53910 C 366.82920,232.24310 366.07320,231.27080 363.69720,231.05510 C 364.02120,232.89110 363.37320,234.94280 364.45320,236.56310 C 361.75320,236.56310 360.78120,237.53510 360.78120,239.04710 C 364.12920,239.91110 367.04520,240.23510 369.63720,243.58310 C 361.75320,245.20310 355.16520,242.82680 351.38520,235.37510 C 350.19720,237.85910 349.65720,240.23510 350.95320,242.82680 C 348.68520,241.20710 346.52520,240.66710 343.93320,240.23510 C 344.58120,242.82680 345.55320,245.31080 347.82120,247.14680 C 346.30920,246.93080 345.12120,246.93080 344.36520,247.68710 C 344.36520,249.84710 345.87720,251.03510 348.03720,250.38710 C 345.87720,253.41110 348.46920,256.11080 349.98120,258.81080 C 350.62920,254.92280 350.84520,251.03510 353.76120,248.87510 C 354.73320,251.25110 354.94920,253.51910 357.21720,254.92280 C 357.21720,252.00710 359.26920,250.17110 361.96920,248.44280 C 362.18520,251.35910 363.37320,252.97880 365.31720,255.35510 C 365.10120,252.54710 368.01720,249.84710 371.14920,249.41510 L 371.14920,249.41510 z "
       id="path84" />
    <path
       style="fill:#a44800;stroke:#000000;stroke-width:0.61199999;stroke-miterlimit:4.0000000;stroke-dasharray:none;fill-opacity:1.0000000"
       d="M 320.92920,204.59480 C 321.36120,203.94680 321.90120,204.05510 322.22520,204.91910 C 322.87320,204.91910 322.98120,205.24310 323.30520,205.45880 C 325.24920,206.86310 328.05720,205.89110 330.43320,206.43080 C 331.94520,206.86310 333.02520,206.75480 334.10520,206.43080 C 336.37320,205.89110 339.28920,207.07910 341.34120,206.21510 C 342.63720,205.67510 343.71720,205.99910 344.68920,206.53910 C 345.22920,206.86310 345.44520,207.18710 345.55320,207.72710 C 346.20120,209.77880 346.20120,212.26280 346.52520,214.63880 C 346.52520,214.74710 346.84920,215.07110 346.95720,215.61080 C 347.28120,216.79880 347.28120,216.90710 347.38920,217.87910 C 347.38920,217.87910 348.46920,219.39110 348.36120,220.47080 C 348.25320,220.25480 348.14520,220.03910 347.92920,220.14680 C 347.82120,220.47080 347.82120,221.01110 348.03720,221.33510 C 347.82120,221.44280 347.60520,221.11880 347.49720,220.90310 C 347.49720,221.11880 347.49720,221.44280 347.38920,221.55110 C 347.28120,221.22710 347.38920,221.11880 347.17320,221.01110 C 347.06520,221.22710 347.06520,221.55110 347.06520,221.98280 C 347.06520,221.76680 346.74120,221.22710 346.95720,220.79480 C 346.95720,219.93080 346.52520,219.28280 346.63320,218.20310 C 346.63320,217.55510 346.30920,215.71910 345.98520,215.28680 C 345.87720,215.07110 346.20120,216.79880 346.20120,217.33910 C 346.20120,217.98680 346.30920,221.65880 346.20120,222.30680 C 346.20120,222.73910 346.20120,223.27880 346.30920,223.49510 C 346.52520,223.71110 346.52520,223.71110 346.52520,224.03510 C 346.52520,224.14280 346.52520,224.25110 346.30920,224.25110 C 346.20120,224.35910 346.30920,224.68310 346.20120,224.89910 C 345.98520,225.00710 345.98520,224.68310 345.87720,224.68310 C 345.76920,224.79080 345.87720,225.11480 345.76920,225.33110 C 345.44520,225.65480 344.58120,225.76280 344.25720,225.54710 C 344.25720,224.89910 344.58120,224.68310 345.01320,224.14280 C 345.33720,223.49510 345.12120,222.52310 345.12120,221.65880 C 345.01320,220.36310 344.25720,219.49910 344.25720,218.52710 C 344.14920,218.52710 343.93320,218.74310 343.71720,218.63480 C 343.60920,219.28280 343.93320,219.82280 343.71720,220.25480 C 343.39320,221.22710 342.85320,224.14280 343.06920,225.22310 C 343.17720,225.54710 342.96120,225.65480 342.85320,225.65480 C 342.85320,225.65480 342.85320,225.65480 342.74520,225.65480 C 342.74520,225.65480 342.85320,225.87110 342.74520,225.97880 C 342.52920,225.97880 342.52920,225.87110 342.31320,225.76280 C 342.20520,225.97880 342.31320,226.08680 342.20520,226.30280 C 341.77320,226.30280 341.12520,226.62680 340.69320,226.30280 C 340.58520,225.54710 341.34120,225.33110 341.66520,224.79080 C 341.88120,224.14280 342.20520,222.30680 341.77320,221.01110 C 341.77320,220.90310 341.44920,219.71510 341.12520,219.39110 C 340.80120,219.49910 340.58520,219.71510 340.15320,219.60680 C 340.04520,219.82280 340.15320,220.14680 340.04520,220.36310 C 340.04520,220.47080 339.72120,220.57910 339.72120,220.25480 C 339.72120,220.03910 339.61320,219.60680 339.61320,219.60680 C 339.07320,219.60680 337.88520,219.60680 337.66920,218.74310 C 336.37320,218.95880 335.94120,219.06710 334.86120,218.85110 C 333.67320,219.28280 332.16120,217.33910 331.18920,217.87910 C 330.97320,218.52710 330.97320,219.71510 330.86520,220.25480 C 330.54120,221.01110 330.75720,221.87510 330.75720,223.06310 C 330.75720,223.17110 330.64920,223.27880 330.54120,223.27880 C 330.54120,223.38710 330.54120,223.71110 330.54120,223.81880 C 330.32520,224.03510 330.21720,223.60280 330.10920,224.35910 C 329.89320,224.46680 329.24520,224.68310 329.02920,224.35910 C 329.02920,223.92680 329.35320,223.60280 329.56920,223.38710 C 329.67720,222.95480 329.67720,222.84710 329.56920,222.41510 C 329.67720,222.09080 329.67720,221.65880 329.78520,221.44280 C 329.78520,221.11880 329.78520,220.47080 329.67720,220.25480 L 329.67720,220.25480 L 329.46120,220.03910 L 329.46120,220.03910 C 329.24520,219.49910 329.35320,218.74310 329.24520,218.09480 C 329.02920,217.98680 329.02920,217.98680 328.81320,218.31080 C 328.81320,218.74310 328.81320,219.60680 328.70520,219.93080 C 328.38120,220.36310 328.48920,222.63080 328.59720,223.92680 C 328.59720,224.14280 328.38120,224.03510 328.38120,224.35910 C 328.38120,224.57510 328.16520,224.46680 327.94920,224.35910 C 327.84120,224.35910 327.94920,224.89910 327.84120,225.00710 C 327.51720,225.00710 326.86920,225.11480 326.65320,224.79080 C 326.65320,224.35910 326.97720,224.03510 327.30120,223.71110 C 327.62520,223.17110 327.30120,221.98280 327.30120,220.79480 L 327.30120,220.79480 L 327.08520,220.57910 L 327.08520,220.57910 C 326.65320,220.03910 327.19320,218.41910 326.86920,217.33910 C 324.92520,216.36710 325.24920,215.93480 324.81720,213.77480 C 324.38520,211.50710 321.90120,210.31880 320.28120,210.31880 C 319.63320,210.85910 318.87720,210.85910 318.01320,210.31880 C 317.68920,210.21110 317.47320,209.77880 317.47320,209.34710 C 317.25720,208.91510 317.58120,208.69910 318.12120,208.59080 C 318.44520,208.05110 319.09320,207.29480 319.20120,206.97080 C 319.30920,206.43080 319.95720,205.78280 320.17320,205.56710 C 319.95720,205.24310 319.84920,204.91910 320.06520,204.59480 C 320.38920,204.37910 320.60520,204.81080 320.92920,204.59480 L 320.92920,204.59480 z "
       id="path86" />
    <path
       style="stroke:#000000;stroke-width:0.10800000;fill-opacity:1.0000000;fill:#a44800"
       d="M 394.80120,223.27880 C 390.58920,227.59880 393.82920,235.15880 391.34520,241.53110 C 393.07320,242.28680 393.50520,242.17910 395.34120,242.93480 C 397.93320,235.37510 399.76920,229.11080 402.36120,221.65880 C 398.79720,221.87510 397.82520,222.41510 394.80120,223.27880 L 394.80120,223.27880 z M 374.92920,221.87510 C 374.49720,228.46280 376.22520,233.86310 376.00920,241.53110 C 378.06120,242.28680 378.70920,242.28680 381.08520,242.17910 C 379.68120,232.89110 384.97320,230.62280 383.46120,223.17110 C 380.32920,223.27880 376.87320,222.73910 374.92920,221.87510 L 374.92920,221.87510 z "
       id="path88" />
    <path
       style="fill:#000000;stroke:none"
       d="M 393.72120,158.69510 C 390.69720,173.16710 383.78520,177.37910 374.49720,186.34310 L 374.49720,186.34310 L 375.36120,189.90710 L 375.36120,189.90710 C 387.67320,179.53910 393.07320,173.38310 397.60920,160.31480 C 397.28520,158.69510 395.44920,157.83110 393.72120,158.69510 L 393.72120,158.69510 z "
       id="path90" />
    <path
       style="fill:#000000;stroke:none"
       d="M 374.82120,160.20710 C 381.94920,172.51910 388.42920,181.80680 399.55320,190.12280 L 399.55320,190.12280 L 399.55320,185.04710 L 399.55320,185.04710 C 387.34920,177.27080 384.43320,168.52310 378.49320,158.91110 C 376.98120,157.61480 375.36120,158.47880 374.82120,160.20710 L 374.82120,160.20710 z "
       id="path92" />
    <path
       style="fill:#000000;stroke:none"
       d="M 397.71720,165.49910 C 398.25720,166.90310 398.79720,168.30680 399.44520,169.81880 C 400.30920,174.46280 399.55320,175.86710 399.76920,181.48280 C 400.30920,175.54310 400.09320,170.68310 401.28120,164.31080 C 400.20120,165.17510 400.41720,165.60680 400.30920,169.49510 C 399.22920,167.98280 398.68920,167.01110 397.71720,165.49910 L 397.71720,165.49910 z "
       id="path94" />
    <path
       style="fill:#000000;stroke:none"
       d="M 388.32120,199.84310 C 388.21320,193.68710 388.10520,187.42280 387.88920,181.26680 C 387.67320,181.05110 387.45720,180.83510 387.13320,180.51110 C 386.91720,181.05110 387.45720,181.59080 387.13320,181.91510 C 388.10520,185.47880 387.34920,194.33510 387.45720,200.70710 C 387.99720,200.27480 387.78120,200.27480 388.32120,199.84310 L 388.32120,199.84310 z "
       id="path96" />
    <path
       style="fill:#000000;stroke:#000000;stroke-width:0.75600004"
       d="M 393.72120,222.52310 C 393.61320,216.47480 391.02120,212.04710 388.75320,206.97080 C 388.75320,207.83510 388.42920,208.69910 388.42920,209.56310 C 391.66920,213.66710 391.56120,218.31080 393.72120,222.52310 L 393.72120,222.52310 z "
       id="path98" />
    <path
       style="fill:#481e00;stroke:#000000;stroke-width:0.57999998;stroke-miterlimit:4.0000000;stroke-dasharray:none;fill-opacity:1.0000000"
       d="M 379.78920,147.67910 C 378.92520,147.46280 376.76520,147.03110 376.11720,146.92280 C 375.68520,146.81480 375.03720,146.59880 374.60520,146.49080 L 374.60520,146.49080 L 374.38920,146.05910 L 374.38920,146.05910 C 374.71320,145.62680 375.90120,145.62680 376.44120,145.51910 C 377.41320,145.30280 379.03320,145.19510 380.00520,144.76280 C 379.89720,144.97880 379.46520,141.30680 380.32920,140.11880 C 381.73320,138.28280 389.61720,137.85110 391.66920,140.01110 C 392.20920,141.19910 391.99320,142.71110 391.88520,144.65480 C 392.85720,145.08680 395.98920,145.41110 396.96120,146.05910 C 397.06920,146.16710 396.96120,146.38310 396.85320,146.38310 C 395.77320,146.81480 392.31720,147.67910 391.12920,147.67910 C 390.26520,147.67910 380.76120,147.89510 379.78920,147.67910 L 379.78920,147.67910 z "
       id="path100" />
    <path
       style="fill:#481e00;stroke:#000000;stroke-width:0.57999998;stroke-miterlimit:4.0000000;stroke-dasharray:none;fill-opacity:1.0000000"
       d="M 287.98950,144.11480 C 288.85350,143.89910 291.01350,143.35910 291.66150,143.14280 C 292.09320,143.03510 292.74120,142.71110 293.17350,142.49510 L 293.17350,142.49510 L 293.38920,142.06310 L 293.38920,142.06310 C 293.06520,141.73910 291.87720,141.84710 291.33750,141.73910 C 290.36520,141.63080 288.74520,141.63080 287.77320,141.19910 C 287.88120,141.52310 288.31320,137.85110 287.44920,136.66310 C 286.04520,134.93480 278.16150,135.15080 276.10920,137.52710 C 275.56920,138.82280 275.78520,140.22710 275.89320,142.27880 C 274.92120,142.71110 271.78920,143.25110 270.81720,144.00710 C 270.70920,144.11480 270.81720,144.43880 270.92520,144.43880 C 272.00550,144.76280 275.46120,145.19510 276.64920,145.08680 C 277.51350,145.08680 287.01750,144.43880 287.98950,144.11480 L 287.98950,144.11480 z "
       id="path102" />
    <path
       style="fill:#ffb98e;stroke:#000000;stroke-width:0.21599999"
       d="M 379.35720,145.41110 C 379.03320,146.16710 379.14120,146.27480 379.03320,147.24710 C 379.03320,147.67910 378.81720,147.57110 379.14120,148.21910 C 379.68120,149.40710 378.49320,151.02710 379.03320,152.97080 C 380.00520,154.69910 378.60120,153.72710 379.35720,155.56310 C 381.40920,156.75110 381.84120,155.02310 381.84120,157.29080 C 382.48920,158.47880 381.84120,163.55510 386.70120,164.52710 C 392.53320,164.63480 389.83320,158.47880 390.69720,157.83110 C 389.40120,153.51110 395.98920,147.24710 391.34520,145.41110 C 387.34920,144.65480 383.89320,145.08680 379.35720,145.41110 L 379.35720,145.41110 z "
       id="path104" />
    <path
       style="fill:#ffb98e;stroke:#000000;stroke-width:0.21599999"
       d="M 289.06920,141.95480 C 289.39320,142.71110 289.28520,142.81880 289.39320,143.79080 C 289.39320,144.22310 289.60920,144.11480 289.28520,144.76280 C 288.74520,145.95080 289.93320,147.57110 289.39320,149.51510 C 288.42120,151.24310 289.82550,150.27080 289.06920,152.10680 C 287.01750,153.29480 286.36920,151.67510 286.36920,153.94280 C 286.26120,155.34710 285.72120,162.69110 281.40120,166.25480 C 276.32550,161.39510 278.05320,155.67110 277.62120,154.37510 C 278.91720,150.05510 272.43720,143.79080 277.08120,141.95480 C 281.07720,141.19910 284.53320,141.63080 289.06920,141.95480 L 289.06920,141.95480 z "
       id="path106" />
    <path
       style="fill:#000000;stroke:#000000;stroke-width:0.21599999"
       d="M 381.08520,148.54310 C 381.30120,148.00310 381.84120,147.89510 382.48920,147.67910 C 383.46120,147.89510 383.89320,148.11080 384.75720,148.32680 C 384.00120,148.21910 383.13720,148.11080 382.48920,148.00310 C 382.05720,148.21910 381.51720,148.21910 381.08520,148.54310 L 381.08520,148.54310 z M 381.62520,149.29880 C 381.84120,149.19110 381.73320,149.19110 382.05720,149.08310 C 382.48920,149.08310 382.70520,148.97480 383.24520,149.08310 C 383.46120,149.29880 383.78520,149.40710 384.10920,149.62280 C 383.78520,149.51510 383.24520,149.29880 382.92120,149.29880 C 382.70520,149.94680 382.16520,149.83910 382.16520,149.19110 C 381.84120,149.19110 381.84120,149.29880 381.62520,149.29880 L 381.62520,149.29880 z M 379.46520,147.57110 C 379.78920,147.78680 380.11320,148.00310 380.22120,148.32680 C 380.00520,148.32680 379.24920,147.67910 379.14120,148.21910 C 378.92520,147.89510 378.92520,147.57110 378.92520,147.46280 C 379.14120,147.46280 379.24920,147.57110 379.46520,147.57110 L 379.46520,147.57110 z M 379.35720,148.86710 C 379.46520,148.86710 379.46520,148.86710 379.57320,148.86710 C 379.68120,148.86710 379.78920,148.86710 379.78920,148.86710 C 380.11320,148.86710 380.43720,148.86710 380.22120,149.19110 C 380.11320,149.19110 379.89720,149.19110 379.78920,149.08310 C 379.78920,149.40710 379.89720,149.51510 379.46520,149.51510 C 379.35720,149.51510 379.35720,148.97480 379.35720,148.86710 L 379.35720,148.86710 z "
       id="path108" />
    <path
       style="fill:#000000;stroke:#000000;stroke-width:0.21599999"
       d="M 390.91320,155.02310 C 390.26520,154.80680 389.94120,154.26680 389.18520,153.94280 C 389.29320,151.99910 388.86120,152.97080 388.96920,150.91910 C 389.50920,148.54310 387.78120,148.43480 386.80920,149.62280 C 384.10920,149.08310 385.08120,146.49080 383.13720,145.84310 C 383.46120,145.30280 379.35720,146.05910 379.57320,145.41110 C 383.35320,145.19510 387.67320,144.43880 391.34520,145.41110 C 392.31720,145.51910 392.85720,146.38310 393.07320,148.21910 C 392.20920,151.35110 391.99320,154.48280 390.91320,155.02310 L 390.91320,155.02310 z "
       id="path110" />
    <path
       style="fill:#000000;stroke:#000000;stroke-width:0.21599999"
       d="M 277.51350,151.56710 C 278.16150,151.35110 278.48520,150.81080 279.24120,150.48680 C 279.13320,148.54310 279.56520,149.51510 279.45720,147.46280 C 278.91720,145.08680 280.64520,144.97880 281.61720,146.16710 C 284.31720,145.62680 283.34550,143.03510 285.28920,142.38710 C 284.96520,141.84710 289.06920,142.60280 288.85350,141.95480 C 285.07320,141.73910 280.75320,140.98280 277.08120,141.95480 C 276.10920,142.06310 275.56920,142.92680 275.35350,144.76280 C 276.21720,147.89510 276.43320,151.02710 277.51350,151.56710 L 277.51350,151.56710 z "
       id="path112" />
    <path
       style="fill:#ffc8b1;stroke:none"
       d="M 380.76120,148.43480 C 380.43720,149.51510 379.57320,150.16310 379.03320,151.45880 C 378.92520,151.78280 379.46520,151.99910 379.57320,152.21510 C 379.57320,151.89110 379.14120,151.67510 379.57320,151.78280 C 379.89720,151.78280 380.76120,151.99910 381.19320,152.10680 C 381.19320,151.67510 381.08520,151.24310 380.54520,151.24310 C 380.00520,151.13480 380.22120,151.35110 380.00520,151.24310 C 380.11320,150.27080 380.76120,149.29880 380.76120,148.43480 L 380.76120,148.43480 z "
       id="path114" />
    <path
       style="fill:#b16c42;stroke:none"
       d="M 387.13320,152.86310 C 386.59320,153.72710 386.59320,153.94280 385.94520,154.69910 C 384.64920,155.23910 380.22120,156.10280 379.24920,154.91510 C 379.46520,155.67110 380.54520,155.88710 381.94920,155.99510 C 383.46120,155.77880 385.51320,155.67110 386.16120,154.91510 C 386.91720,154.05110 386.70120,153.83510 387.13320,152.86310 L 387.13320,152.86310 z "
       id="path116" />
    <path
       style="fill:#b16c42;stroke:none"
       d="M 281.40120,149.51510 C 281.94120,150.37910 281.94120,150.59480 282.58920,151.35110 C 283.88520,151.89110 288.31320,152.75480 289.28520,151.56710 C 289.06920,152.32280 287.98950,152.53910 286.58520,152.64680 C 285.07320,152.43080 283.02120,152.32280 282.37320,151.56710 C 281.61720,150.70310 281.83350,150.48680 281.40120,149.51510 L 281.40120,149.51510 z "
       id="path118" />
    <path
       style="fill:#b16c42;stroke:#000000;stroke-width:0.21599999"
       d="M 379.14120,153.94280 C 379.14120,153.61880 379.14120,153.40310 379.57320,153.51110 C 380.32920,153.40310 380.97720,153.61880 382.16520,153.61880 C 381.40920,153.72710 381.19320,153.61880 380.54520,153.94280 C 380.32920,154.15880 379.35720,154.15880 379.14120,153.94280 L 379.14120,153.94280 z "
       id="path120" />
    <path
       style="fill:#b16c42;stroke:none"
       d="M 289.28520,150.59480 C 289.28520,150.27080 289.28520,150.05510 288.85350,150.16310 C 288.09720,150.05510 287.44920,150.27080 286.26120,150.27080 C 287.01750,150.37910 287.23320,150.27080 287.88120,150.59480 C 288.09720,150.81080 289.06920,150.81080 289.28520,150.59480 L 289.28520,150.59480 z "
       id="path122" />
    <path
       style="fill:#b16c42;stroke:#000000;stroke-width:0.21599999"
       d="M 378.92520,153.07910 C 379.14120,152.86310 379.03320,152.97080 379.14120,152.86310 C 379.35720,152.86310 379.57320,152.97080 379.68120,153.07910 C 379.68120,152.97080 380.00520,152.97080 380.11320,152.86310 C 380.76120,152.97080 380.86920,153.40310 382.16520,153.61880 C 381.51720,153.61880 380.86920,153.51110 380.22120,153.51110 C 380.00520,153.51110 379.89720,153.40310 379.68120,153.51110 C 379.24920,153.51110 379.03320,153.40310 378.92520,153.07910 L 378.92520,153.07910 z "
       id="path124" />
    <path
       style="fill:#b16c42;stroke:#000000;stroke-width:0.21599999"
       d="M 289.50150,149.73110 C 289.28520,149.51510 289.39320,149.62280 289.28520,149.51510 C 289.06920,149.51510 288.85350,149.62280 288.74520,149.73110 C 288.74520,149.62280 288.42120,149.62280 288.31320,149.51510 C 287.66550,149.62280 287.55720,150.05510 286.26120,150.27080 C 286.90920,150.27080 287.55720,150.16310 288.20520,150.16310 C 288.42120,150.16310 288.52920,150.05510 288.74520,150.16310 C 289.17750,150.16310 289.39320,150.05510 289.50150,149.73110 L 289.50150,149.73110 z "
       id="path126" />
    <path
       style="fill:#000000;stroke:#000000;stroke-width:0.21599999"
       d="M 380.76120,152.10680 C 380.32920,151.89110 380.00520,151.78280 379.46520,151.78280 C 379.24920,151.78280 379.24920,151.78280 379.46520,151.99910 C 379.68120,151.78280 380.43720,152.10680 380.76120,152.10680 L 380.76120,152.10680 z "
       id="path128" />
    <path
       style="fill:#000000;stroke:#000000;stroke-width:0.21599999"
       d="M 287.77320,148.75880 C 288.20520,148.75880 288.63720,148.54310 289.06920,148.54310 C 289.28520,148.65080 289.39320,148.65080 289.06920,148.75880 C 288.85350,148.65080 288.20520,148.75880 287.77320,148.75880 L 287.77320,148.75880 z M 287.34150,145.19510 C 287.12520,144.76280 286.47720,144.54710 285.93720,144.43880 C 284.96520,144.54710 284.53320,144.87110 283.66950,145.08680 C 284.42520,144.97880 285.18150,144.87110 285.82950,144.76280 C 286.36920,144.97880 286.80120,144.97880 287.34150,145.19510 L 287.34150,145.19510 z M 286.80120,146.05910 C 286.58520,145.95080 286.58520,145.95080 286.36920,145.84310 C 285.93720,145.84310 285.61320,145.73510 285.18150,145.84310 C 284.96520,145.95080 284.53320,146.05910 284.31720,146.27480 C 284.53320,146.16710 285.18150,145.95080 285.50550,145.95080 C 285.61320,146.70710 286.26120,146.49080 286.26120,145.95080 C 286.58520,145.95080 286.58520,145.95080 286.80120,146.05910 L 286.80120,146.05910 z M 288.96120,144.33110 C 288.63720,144.54710 288.31320,144.76280 288.09720,144.97880 C 288.31320,144.97880 289.06920,144.43880 289.28520,144.87110 C 289.50150,144.54710 289.50150,144.22310 289.39320,144.11480 C 289.28520,144.22310 289.06920,144.22310 288.96120,144.33110 L 288.96120,144.33110 z M 288.96120,145.51910 C 288.85350,145.51910 288.85350,145.51910 288.74520,145.51910 C 288.74520,145.51910 288.63720,145.51910 288.52920,145.51910 C 288.31320,145.51910 287.88120,145.62680 288.09720,145.95080 C 288.31320,145.84310 288.42120,145.84310 288.52920,145.84310 C 288.52920,146.05910 288.52920,146.16710 288.85350,146.27480 C 288.96120,146.16710 288.96120,145.73510 288.96120,145.51910 L 288.96120,145.51910 z "
       id="path130" />
    <path
       style="fill:#cc9966;stroke:#000000;stroke-width:0.48800001;stroke-miterlimit:4.0000000;stroke-dasharray:none"
       d="M 396.96120,145.95080 C 396.20520,145.62680 392.53320,144.87110 391.88520,144.65480 C 388.53720,143.89910 384.97320,143.14280 380.00520,144.76280 C 378.16920,145.30280 377.30520,145.51910 374.60520,145.95080 C 375.14520,145.95080 380.32920,145.51910 380.76120,145.51910 C 384.43320,145.19510 385.83720,144.87110 390.58920,145.51910 C 392.64120,145.30280 396.09720,145.73510 396.96120,145.95080 L 396.96120,145.95080 z "
       id="path132" />
    <path
       style="fill:#cc9966;stroke:#000000;stroke-width:0.68800002;stroke-miterlimit:4.0000000;stroke-dasharray:none"
       d="M 270.92520,144.00710 C 271.68150,143.57510 275.78520,142.27880 276.43320,141.95480 C 279.78120,140.87510 281.40120,140.87510 287.88120,141.30680 C 289.71720,141.41510 290.58120,141.84710 293.28120,142.06310 C 292.74120,142.06310 287.55720,142.17110 287.12520,142.17110 C 283.45320,142.06310 282.04920,141.95480 277.29720,143.03510 C 275.24520,142.92680 271.78920,143.68310 270.92520,144.00710 L 270.92520,144.00710 z "
       id="path134" />
    <path
       style="fill:#ffffff;stroke:#000000;stroke-width:0.75600004"
       d="M 272.86920,247.68710 L 283.66950,245.09480 L 283.66950,245.09480 C 297.49320,258.70310 320.06520,264.42680 335.50920,264.42680 C 350.95320,264.42680 377.41320,256.65080 393.72120,243.15080 L 393.72120,243.15080 L 404.62920,243.15080 L 404.62920,243.15080 C 393.50520,261.07910 366.39720,271.98680 340.26120,273.28280 C 314.12520,274.47080 288.85350,266.04710 272.86920,247.68710 L 272.86920,247.68710 z "
       id="path136" />
    <path
       style="fill:#000000;stroke:#000000;stroke-width:0.10800000"
       d="M 284.10120,255.35510 L 286.15320,256.86710 L 285.82950,257.29880 L 283.23720,255.46280 L 287.23320,250.81880 L 287.77320,251.25110 L 284.10120,255.35510 L 284.10120,255.35510 z M 286.90920,258.05510 L 286.36920,257.73110 L 289.93320,252.97880 L 290.47320,253.30280 L 286.90920,258.05510 L 286.90920,258.05510 z M 292.84950,254.81480 C 293.38920,255.03110 293.71320,255.35510 293.82120,255.78680 C 293.92920,256.21910 293.92920,256.65080 293.71320,256.97480 C 293.38920,257.40710 292.84950,257.73110 292.30920,257.73110 C 292.52520,258.05510 292.63320,258.27080 292.63320,258.59480 C 292.52520,258.91910 292.41720,259.24310 292.20120,259.45880 C 291.87720,259.89110 291.55320,260.10680 291.01350,260.10680 C 290.58120,260.10680 290.04120,259.99910 289.60920,259.67510 L 289.60920,259.67510 L 287.98950,258.59480 L 291.55320,253.95080 L 292.84950,254.81480 L 292.84950,254.81480 z M 291.76920,254.70710 L 290.58120,256.32680 L 291.33750,256.86710 L 291.33750,256.86710 C 291.66150,257.08310 291.98520,257.19110 292.30920,257.19110 C 292.63320,257.19110 292.95720,257.08310 293.17350,256.75880 C 293.38920,256.43480 293.38920,256.11080 293.28120,255.89510 C 293.06520,255.67910 292.84950,255.46280 292.52520,255.24710 L 292.52520,255.24710 L 291.76920,254.70710 L 291.76920,254.70710 z M 290.14920,256.75880 L 288.74520,258.59480 L 289.71720,259.13480 L 289.71720,259.13480 C 290.58120,259.78280 291.22920,259.67510 291.76920,259.13480 C 291.98520,258.81080 292.09320,258.48680 291.87720,258.16310 C 291.76920,257.83910 291.44520,257.62280 291.01350,257.29880 L 291.01350,257.29880 L 290.14920,256.75880 L 290.14920,256.75880 z M 291.98520,261.07910 L 295.22520,256.11080 L 298.24920,257.73110 L 297.92520,258.16310 L 295.54920,256.86710 L 294.36120,258.59480 L 296.62920,259.89110 L 296.41320,260.32280 L 294.03720,259.02710 L 292.84950,260.97080 L 295.22520,262.15880 L 295.00920,262.59080 L 291.98520,261.07910 L 291.98520,261.07910 z M 296.08920,263.13080 L 299.00520,258.05510 L 300.40920,258.59480 L 300.40920,258.59480 C 301.38120,259.02710 301.81320,259.45880 301.92120,259.99910 C 302.02920,260.43080 302.02920,260.86310 301.81320,261.29480 C 301.70520,261.61880 301.48920,261.83510 301.27320,262.05110 C 300.94920,262.26680 300.62520,262.26680 300.30120,262.37510 C 299.86920,262.37510 299.54520,262.26680 299.22120,262.26680 L 299.22120,262.26680 L 299.76120,264.75110 L 299.00520,264.53510 L 298.46520,261.29480 L 298.89720,261.51110 L 298.89720,261.51110 C 299.43720,261.83510 299.86920,261.83510 300.30120,261.72710 C 300.73320,261.72710 300.94920,261.51110 301.16520,261.18710 C 301.38120,260.75480 301.48920,260.43080 301.27320,260.10680 C 301.05720,259.67510 300.84120,259.35110 300.40920,259.24310 L 300.40920,259.24310 L 299.32920,258.81080 L 296.62920,263.34710 L 296.08920,263.13080 L 296.08920,263.13080 z M 301.59720,265.39910 L 303.97320,260.64680 L 302.67720,260.10680 L 302.89320,259.67510 L 306.13320,260.86310 L 305.80920,261.40310 L 304.62120,260.97080 L 302.13720,265.61480 L 301.59720,265.39910 L 301.59720,265.39910 z M 305.91720,267.01910 L 306.67320,265.18310 L 306.24120,260.86310 L 306.78120,261.07910 L 307.21320,264.75110 L 310.23720,262.37510 L 310.88520,262.59080 L 307.21320,265.39910 L 306.45720,267.12680 L 305.91720,267.01910 L 305.91720,267.01910 z M 317.36520,263.99510 L 318.12120,264.21110 L 319.09320,270.25880 L 318.44520,270.15080 L 318.01320,268.09880 L 315.20520,267.45080 L 313.80120,269.07110 L 313.15320,268.96280 L 317.36520,263.99510 L 317.36520,263.99510 z M 317.58120,264.75110 L 315.63720,267.01910 L 318.01320,267.55910 L 317.58120,264.75110 L 317.58120,264.75110 z M 320.38920,270.36710 L 319.74120,270.25880 L 320.60520,264.64280 L 321.46920,264.75110 L 324.27720,269.93480 L 325.03320,265.07510 L 325.57320,265.18310 L 324.70920,270.79880 L 324.06120,270.90710 L 321.14520,265.39910 L 320.38920,270.36710 L 320.38920,270.36710 z M 326.00520,270.90710 L 326.54520,265.18310 L 328.16520,265.29080 L 328.16520,265.29080 C 328.92120,265.39910 329.67720,265.61480 330.10920,265.93880 C 330.64920,266.04710 331.08120,266.47880 331.29720,266.91110 C 331.51320,267.45080 331.62120,267.99080 331.51320,268.53110 C 331.51320,269.07110 331.29720,269.50310 330.97320,269.93480 C 330.54120,270.36710 330.10920,270.79880 329.56920,270.90710 C 329.13720,271.12280 328.59720,271.12280 328.05720,271.12280 L 328.05720,271.12280 L 326.00520,270.90710 L 326.00520,270.90710 z M 327.08520,265.72310 L 326.65320,270.47480 L 327.62520,270.58310 L 327.62520,270.58310 C 328.48920,270.58310 329.24520,270.47480 329.78520,270.15080 C 330.43320,269.82680 330.75720,269.17910 330.97320,268.42280 C 330.97320,267.77480 330.86520,267.12680 330.43320,266.80280 C 329.89320,266.26280 329.13720,265.93880 328.16520,265.83110 L 328.16520,265.83110 L 327.08520,265.72310 L 327.08520,265.72310 z M 337.56120,271.33910 L 336.91320,271.33910 L 336.91320,265.50710 L 337.56120,265.50710 L 337.56120,271.33910 L 337.56120,271.33910 z M 339.50520,271.33910 L 338.85720,271.33910 L 338.53320,265.61480 L 339.39720,265.61480 L 343.17720,270.04310 L 342.96120,265.39910 L 343.60920,265.29080 L 343.93320,271.01510 L 343.28520,271.01510 L 339.18120,266.26280 L 339.50520,271.33910 L 339.50520,271.33910 z M 345.12120,270.90710 L 344.47320,265.18310 L 346.20120,265.07510 L 346.20120,265.07510 C 346.95720,264.96680 347.71320,265.07510 348.25320,265.29080 C 348.79320,265.39910 349.22520,265.72310 349.54920,266.04710 C 349.87320,266.47880 350.08920,267.01910 350.19720,267.45080 C 350.19720,268.09880 350.08920,268.63880 349.87320,269.07110 C 349.54920,269.50310 349.22520,269.93480 348.68520,270.25880 C 348.25320,270.47480 347.71320,270.69110 347.17320,270.69110 L 347.17320,270.69110 L 345.12120,270.90710 L 345.12120,270.90710 z M 345.22920,265.61480 L 345.76920,270.36710 L 346.63320,270.25880 L 346.63320,270.25880 C 347.60520,270.15080 348.25320,269.93480 348.79320,269.50310 C 349.22520,268.96280 349.54920,268.31480 349.54920,267.55910 C 349.44120,266.91110 349.22520,266.47880 348.68520,266.04710 C 348.03720,265.61480 347.28120,265.39910 346.20120,265.50710 L 346.20120,265.50710 L 345.22920,265.61480 L 345.22920,265.61480 z M 351.49320,270.15080 L 350.52120,264.42680 L 353.97720,263.99510 L 354.08520,264.42680 L 351.27720,264.85910 L 351.60120,266.91110 L 354.30120,266.47880 L 354.40920,267.01910 L 351.70920,267.45080 L 352.03320,269.50310 L 354.84120,269.17910 L 354.94920,269.61080 L 351.49320,270.15080 L 351.49320,270.15080 z M 356.02920,269.39510 L 354.73320,263.88710 L 356.35320,263.45480 L 356.35320,263.45480 C 357.10920,263.34710 357.64920,263.34710 358.18920,263.45480 C 358.62120,263.56310 358.94520,263.99510 359.16120,264.53510 C 359.26920,264.85910 359.26920,265.29080 359.16120,265.50710 C 359.05320,265.83110 358.83720,266.15480 358.51320,266.26280 C 358.29720,266.47880 357.86520,266.69510 357.43320,266.80280 L 357.43320,266.80280 L 356.13720,267.01910 L 356.67720,269.28680 L 356.02920,269.39510 L 356.02920,269.39510 z M 355.48920,264.21110 L 356.02920,266.47880 L 357.32520,266.26280 L 357.32520,266.26280 C 357.86520,266.15480 358.18920,265.93880 358.40520,265.72310 C 358.62120,265.39910 358.62120,265.07510 358.51320,264.64280 C 358.51320,264.31880 358.18920,263.99510 357.86520,263.99510 C 357.54120,263.77880 357.00120,263.77880 356.46120,263.99510 L 356.46120,263.99510 L 355.48920,264.21110 L 355.48920,264.21110 z M 360.99720,268.31480 L 359.37720,262.80680 L 362.72520,261.83510 L 362.83320,262.37510 L 360.13320,263.13080 L 360.67320,265.07510 L 363.26520,264.42680 L 363.48120,264.85910 L 360.88920,265.61480 L 361.42920,267.66710 L 364.12920,266.91110 L 364.34520,267.45080 L 360.99720,268.31480 L 360.99720,268.31480 z M 365.96520,266.91110 L 365.42520,267.12680 L 363.48120,261.61880 L 364.23720,261.40310 L 369.31320,264.85910 L 367.69320,260.43080 L 368.23320,260.10680 L 370.17720,265.50710 L 369.63720,265.72310 L 364.34520,262.05110 L 365.96520,266.91110 L 365.96520,266.91110 z M 371.36520,265.18310 L 368.77320,259.89110 L 370.28520,259.24310 L 370.28520,259.24310 C 371.04120,259.02710 371.68920,258.81080 372.33720,258.91910 C 372.87720,258.91910 373.52520,259.13480 373.95720,259.35110 C 374.38920,259.67510 374.71320,259.99910 374.92920,260.53910 C 375.25320,260.97080 375.36120,261.51110 375.14520,262.05110 C 375.03720,262.59080 374.92920,263.02310 374.49720,263.34710 C 374.17320,263.77880 373.74120,264.21110 373.20120,264.31880 L 373.20120,264.31880 L 371.36520,265.18310 L 371.36520,265.18310 z M 369.63720,260.10680 L 371.68920,264.42680 L 372.55320,264.10280 L 372.55320,264.10280 C 373.41720,263.77880 373.95720,263.34710 374.28120,262.69910 C 374.60520,262.15880 374.71320,261.40310 374.38920,260.75480 C 374.17320,260.10680 373.63320,259.78280 372.98520,259.56710 C 372.33720,259.24310 371.47320,259.35110 370.60920,259.78280 L 370.60920,259.78280 L 369.63720,260.10680 L 369.63720,260.10680 z M 377.19720,262.69910 L 374.28120,257.51510 L 377.41320,256.11080 L 377.62920,256.54310 L 375.14520,257.73110 L 376.11720,259.56710 L 378.60120,258.48680 L 378.81720,258.91910 L 376.44120,259.99910 L 377.52120,261.94280 L 380.00520,260.75480 L 380.22120,261.18710 L 377.19720,262.69910 L 377.19720,262.69910 z M 381.84120,260.32280 L 381.19320,260.64680 L 377.95320,255.78680 L 378.70920,255.35510 L 384.43320,257.73110 L 381.73320,253.62680 L 382.27320,253.30280 L 385.62120,258.27080 L 385.08120,258.59480 L 378.92520,256.11080 L 381.84120,260.32280 L 381.84120,260.32280 z M 384.54120,254.92280 C 384.32520,254.49080 384.21720,254.05910 384.21720,253.51910 C 384.21720,253.08680 384.43320,252.54710 384.75720,252.22310 C 384.97320,251.79080 385.29720,251.46680 385.72920,251.14280 C 386.16120,250.92680 386.80920,250.60280 387.34920,250.60280 C 387.88920,250.60280 388.53720,250.71110 389.18520,251.03510 L 389.18520,251.03510 L 388.53720,251.35910 L 388.53720,251.35910 C 387.67320,251.03510 386.80920,251.14280 386.05320,251.68310 C 385.72920,251.89910 385.40520,252.22310 385.18920,252.54710 C 384.97320,252.97880 384.86520,253.41110 384.86520,253.84310 C 384.86520,254.16710 385.08120,254.59880 385.29720,255.03110 C 385.62120,255.46280 385.94520,255.78680 386.37720,255.89510 C 386.80920,255.89510 387.24120,256.00310 387.67320,256.00310 C 388.10520,256.00310 388.64520,255.89510 388.96920,255.57110 C 389.72520,255.13880 390.15720,254.49080 390.15720,253.62680 L 390.15720,253.62680 L 390.80520,253.30280 L 390.80520,253.30280 C 390.80520,253.73510 390.80520,254.05910 390.69720,254.49080 C 390.58920,254.81480 390.37320,255.13880 390.15720,255.35510 C 389.94120,255.67910 389.61720,255.89510 389.40120,256.00310 C 388.86120,256.32680 388.21320,256.54310 387.67320,256.54310 C 387.02520,256.65080 386.48520,256.65080 385.83720,256.32680 C 385.29720,256.00310 384.86520,255.57110 384.54120,254.92280 L 384.54120,254.92280 z M 392.31720,253.95080 L 388.21320,249.63080 L 390.80520,247.47080 L 391.12920,247.90310 L 388.96920,249.52310 L 390.48120,251.14280 L 392.53320,249.52310 L 392.96520,249.73910 L 390.91320,251.46680 L 392.42520,253.08680 L 394.58520,251.35910 L 394.90920,251.68310 L 392.31720,253.95080 L 392.31720,253.95080 z "
       id="path138" />
    <path
       style="fill:#ffffff;stroke:none"
       d="M 250.40520,150.81080 L 251.59320,150.91910 L 251.59320,150.91910 C 250.08120,155.23910 252.78120,157.83110 254.94120,159.34310 L 254.94120,159.34310 L 253.96920,160.20710 L 253.96920,160.20710 C 251.37720,159.88310 247.70520,155.23910 250.40520,150.81080 L 250.40520,150.81080 z M 262.60920,146.59880 C 266.38920,147.03110 267.57720,152.10680 266.17350,153.83510 L 266.17350,153.83510 L 265.30920,154.15880 L 265.30920,154.15880 C 266.17350,151.45880 265.30920,148.00310 262.06920,147.03110 L 262.06920,147.03110 L 262.60920,146.59880 L 262.60920,146.59880 z "
       id="path140" />
    <path
       style="fill:#ffb98e;stroke:#000000;stroke-width:0.32400000"
       d="M 257.42520,165.82280 C 258.07320,164.20310 258.18150,162.15080 259.58520,160.74710 C 260.98950,159.34310 262.06920,158.80280 262.82550,158.80280 C 262.71720,159.77480 263.47320,159.01910 263.68920,159.23510 C 263.14920,160.20710 264.12120,159.88310 264.22920,160.31480 C 263.14920,160.85510 264.33750,161.07110 264.22920,161.50310 C 264.22920,161.93480 263.47320,161.82680 263.79720,163.01510 C 264.22920,164.20310 262.17750,165.93080 260.88120,167.01110 C 259.26120,167.87510 258.28920,167.11880 257.42520,165.82280 L 257.42520,165.82280 z "
       id="path142" />
    <path
       style="fill:none;stroke:#000000;stroke-width:0.75600004"
       d="M 325.35720,110.52710 L 325.35720,116.35910"
       id="path144" />
    <path
       style="fill:none;stroke:#000000;stroke-width:0.75600004"
       d="M 332.80920,109.77080 L 332.80920,116.57510"
       id="path146" />
    <path
       style="fill:none;stroke:#000000;stroke-width:0.75600004"
       d="M 339.07320,112.14680 L 339.07320,118.30280"
       id="path148" />
    <path
       style="fill:#ffffff;stroke:#000000;stroke-width:0.32400000"
       d="M 321.36120,116.57510 C 323.41320,115.81880 325.57320,115.81880 327.51720,116.57510 C 326.97720,118.19510 326.65320,120.67910 327.30120,121.97480 C 325.35720,122.29880 322.98120,122.51510 321.14520,121.97480 C 320.82120,120.35510 320.82120,118.08680 321.36120,116.57510 L 321.36120,116.57510 z M 321.14520,122.40710 C 323.08920,122.19110 325.35720,122.08310 327.30120,122.40710 C 326.65320,124.13480 326.54520,126.51110 327.30120,128.34710 C 325.24920,128.56310 323.30520,128.67110 321.14520,128.34710 C 320.60520,126.72710 320.60520,123.91910 321.14520,122.40710 L 321.14520,122.40710 z M 321.14520,128.67110 C 323.30520,128.56310 325.24920,128.34710 327.30120,128.67110 C 326.76120,129.96680 327.08520,133.09880 327.30120,134.17910 C 325.35720,134.71910 323.52120,134.71910 321.14520,134.17910 C 320.60520,132.88310 320.60520,129.85910 321.14520,128.67110 L 321.14520,128.67110 z M 329.89320,117.22310 C 331.94520,116.35910 334.10520,116.46680 336.04920,117.22310 C 335.50920,118.84310 334.96920,121.32680 335.61720,122.62280 C 333.67320,122.94680 331.29720,123.16310 329.35320,122.62280 C 328.92120,121.00310 329.35320,118.73510 329.89320,117.22310 L 329.89320,117.22310 z M 329.35320,123.05510 C 331.40520,122.73110 333.67320,122.73110 335.61720,123.05510 C 334.96920,124.78280 334.64520,127.48280 335.40120,129.21110 C 333.34920,129.42680 331.40520,129.53510 329.24520,129.21110 C 328.70520,127.69910 328.92120,124.56710 329.35320,123.05510 L 329.35320,123.05510 z M 329.24520,129.53510 C 331.40520,129.42680 333.34920,129.21110 335.40120,129.53510 C 334.86120,130.83110 335.29320,134.07110 335.50920,135.15080 C 333.67320,135.69110 331.83720,135.69110 329.35320,135.15080 C 328.81320,133.85510 328.70520,130.72310 329.24520,129.53510 L 329.24520,129.53510 z M 320.28120,121.54310 C 320.82120,123.70310 320.82120,131.04710 320.28120,133.53110 C 318.12120,133.42280 315.74520,132.77480 313.58520,132.23510 C 316.50120,130.50710 318.33720,123.91910 320.28120,121.54310 L 320.28120,121.54310 z M 343.60920,123.81080 C 344.79720,125.43080 345.66120,126.18710 347.28120,125.75480 C 346.74120,129.53510 349.44120,131.58680 351.16920,133.74710 C 350.08920,134.61080 345.33720,136.33910 343.39320,135.90710 C 343.39320,133.31480 343.60920,126.40310 343.60920,123.81080 L 343.60920,123.81080 z M 337.45320,118.51910 C 339.61320,117.76280 341.77320,117.76280 343.71720,118.51910 C 343.17720,120.13880 342.31320,123.05510 342.96120,124.45880 C 341.01720,124.78280 338.64120,124.99910 336.80520,124.45880 C 336.26520,122.83910 337.02120,120.03110 337.45320,118.51910 L 337.45320,118.51910 z M 336.80520,124.89110 C 338.74920,124.56710 341.01720,124.56710 342.96120,124.89110 C 342.31320,126.61880 342.42120,128.34710 343.17720,130.07510 C 341.12520,130.39910 339.18120,130.50710 337.02120,130.07510 C 336.48120,128.56310 336.26520,126.40310 336.80520,124.89110 L 336.80520,124.89110 z M 337.02120,130.50710 C 339.18120,130.29080 341.12520,130.18310 343.17720,130.50710 C 342.74520,131.69510 342.85320,134.07110 343.06920,135.15080 C 341.23320,135.69110 339.50520,136.23110 337.02120,135.69110 C 336.48120,134.39510 336.48120,131.58680 337.02120,130.50710 L 337.02120,130.50710 z "
       id="path150" />
    <path
       style="fill:none;stroke:#000000;stroke-width:0.32400000"
       d="M 344.79720,158.58680 L 339.18120,165.39110"
       id="path152" />
    <path
       style="fill:none;stroke:#000000;stroke-width:0.32400000"
       d="M 321.36120,158.47880 L 326.97720,165.28280"
       id="path154" />
    <path
       style="fill:none;stroke:#000000;stroke-width:0.32400000"
       d="M 342.31320,157.18310 L 337.66920,164.74310"
       id="path156" />
    <path
       style="fill:none;stroke:#000000;stroke-width:0.32400000"
       d="M 324.38520,156.42680 L 328.48920,164.31080"
       id="path158" />
    <path
       style="fill:none;stroke:#000000;stroke-width:0.32400000"
       d="M 339.61320,155.67110 L 336.37320,163.87910"
       id="path160" />
    <path
       style="fill:none;stroke:#000000;stroke-width:0.32400000"
       d="M 328.48920,155.45480 L 330.54120,163.77080"
       id="path162" />
    <path
       style="fill:none;stroke:#000000;stroke-width:0.32400000"
       d="M 336.26520,154.69910 L 334.75320,163.33910"
       id="path164" />
    <path
       style="fill:none;stroke:#000000;stroke-width:0.32400000"
       d="M 332.26920,155.02310 L 332.59320,163.55510"
       id="path166" />
    <path
       style="fill:none;stroke:#000000;stroke-width:0.32400000"
       d="M 345.87720,174.57110 L 354.30120,168.63080"
       id="path168" />
    <path
       style="fill:none;stroke:#000000;stroke-width:0.32400000"
       d="M 345.44520,178.45880 L 355.27320,168.73910 L 348.79320,178.78280"
       id="path170" />
    <path
       style="fill:none;stroke:#000000;stroke-width:0.32400000"
       d="M 355.48920,169.49510 L 350.41320,178.56710"
       id="path172" />
    <path
       style="fill:none;stroke:#000000;stroke-width:0.32400000"
       d="M 349.76520,177.48680 L 351.38520,177.48680"
       id="path174" />
    <path
       style="fill:none;stroke:#000000;stroke-width:0.32400000"
       d="M 350.73720,176.08310 L 352.24920,176.19110"
       id="path176" />
    <path
       style="fill:none;stroke:#000000;stroke-width:0.32400000"
       d="M 351.92520,174.89510 L 353.11320,174.78680"
       id="path178" />
    <path
       style="fill:none;stroke:#000000;stroke-width:0.32400000"
       d="M 352.57320,173.38310 L 353.97720,173.49080"
       id="path180" />
    <path
       style="fill:none;stroke:#000000;stroke-width:0.32400000"
       d="M 353.43720,172.19510 L 354.84120,172.30280"
       id="path182" />
    <path
       style="fill:none;stroke:#000000;stroke-width:0.32400000"
       d="M 351.06120,173.27480 L 352.03320,173.81480"
       id="path184" />
    <path
       style="fill:none;stroke:#000000;stroke-width:0.32400000"
       d="M 349.54920,174.46280 L 351.06120,175.32680"
       id="path186" />
    <path
       style="fill:none;stroke:#000000;stroke-width:0.32400000"
       d="M 348.68520,175.75880 L 350.19720,176.29880"
       id="path188" />
    <path
       style="fill:none;stroke:#000000;stroke-width:0.32400000"
       d="M 347.17320,176.94680 L 349.33320,177.70310"
       id="path190" />
    <path
       style="fill:none;stroke:#000000;stroke-width:0.32400000"
       d="M 346.63320,174.13880 L 347.92920,176.19110"
       id="path192" />
    <path
       style="fill:none;stroke:#000000;stroke-width:0.32400000"
       d="M 348.03720,173.38310 L 349.33320,175.00310"
       id="path194" />
    <path
       style="fill:none;stroke:#000000;stroke-width:0.32400000"
       d="M 349.22520,172.62680 L 350.19720,173.81480"
       id="path196" />
    <path
       style="fill:none;stroke:#000000;stroke-width:0.32400000"
       d="M 350.73720,171.54710 L 351.70920,172.51910"
       id="path198" />
    <path
       style="fill:none;stroke:#000000;stroke-width:0.32400000"
       d="M 351.70920,170.79080 L 352.68120,171.54710"
       id="path200" />
    <path
       style="fill:none;stroke:#000000;stroke-width:0.32400000"
       d="M 353.00520,169.81880 L 353.76120,170.46680"
       id="path202" />
    <path
       style="fill:none;stroke:#000000;stroke-width:0.32400000"
       d="M 353.86920,169.17110 L 354.73320,169.60280"
       id="path204" />
    <path
       style="fill:none;stroke:#000000;stroke-width:0.32400000"
       d="M 353.11320,169.38710 L 353.11320,168.52310"
       id="path206" />
    <path
       style="fill:none;stroke:#000000;stroke-width:0.32400000"
       d="M 352.14120,170.14280 L 352.24920,169.06310"
       id="path208" />
    <path
       style="fill:none;stroke:#000000;stroke-width:0.32400000"
       d="M 350.95320,170.79080 L 350.95320,169.81880"
       id="path210" />
    <path
       style="fill:none;stroke:#000000;stroke-width:0.32400000"
       d="M 349.65720,171.87110 L 349.65720,170.57510"
       id="path212" />
    <path
       style="fill:none;stroke:#000000;stroke-width:0.32400000"
       d="M 348.57720,172.62680 L 348.46920,171.33110"
       id="path214" />
    <path
       style="fill:none;stroke:#000000;stroke-width:0.32400000"
       d="M 353.86920,171.22310 L 355.27320,171.22310"
       id="path216" />
    <path
       style="fill:none;stroke:#000000;stroke-width:0.32400000"
       d="M 347.28120,173.49080 L 347.17320,172.08680"
       id="path218" />
    <path
       style="fill:#ffe425;stroke:#000000;stroke-width:0.21599999"
       d="M 328.59720,243.79880 C 333.56520,247.25480 333.24120,245.20310 335.61720,243.79880 C 338.10120,245.95880 337.66920,247.57910 343.28520,244.12280 C 340.80120,250.06310 341.23320,255.35510 344.04120,260.97080 C 339.39720,257.94680 338.42520,257.73110 335.72520,260.97080 C 332.80920,258.16310 331.62120,258.91910 327.19320,261.18710 C 330.43320,254.81480 330.43320,250.71110 328.59720,243.79880 L 328.59720,243.79880 z "
       id="path220" />
    <path
       style="fill:#000000;stroke:#000000;stroke-width:0.75600004"
       d="M 335.72520,250.60280 C 336.69720,250.60280 337.45320,251.35910 337.45320,252.43880 C 337.45320,253.41110 336.69720,254.16710 335.72520,254.16710 C 334.64520,254.16710 333.88920,253.41110 333.88920,252.43880 C 333.88920,251.35910 334.64520,250.60280 335.72520,250.60280 L 335.72520,250.60280 z "
       id="path222" />
    <path
       style="fill:#ffb98e;stroke:#000000;stroke-width:0.32400000"
       d="M 407.65320,192.39110 C 408.40920,192.39110 409.27320,193.03910 410.13720,193.03910 C 411.21720,192.82280 411.43320,192.06710 411.32520,191.63480 C 411.86520,190.98680 412.40520,190.55510 412.08120,190.01510 C 412.29720,189.69110 411.75720,189.47480 412.08120,189.04310 C 411.97320,188.50310 412.29720,188.07110 411.86520,187.42280 C 410.56920,187.20710 409.38120,186.99080 408.19320,186.77480 C 407.97720,188.71910 407.76120,190.55510 407.65320,192.39110 L 407.65320,192.39110 z M 373.95720,185.37110 C 372.22920,186.45080 374.38920,189.69110 372.44520,191.85110 C 373.84920,192.93080 374.38920,193.03910 376.11720,192.82280 L 376.11720,192.82280 L 374.28120,185.80280 L 374.28120,185.80280 C 373.52520,185.58680 375.14520,184.93880 373.95720,185.37110 L 373.95720,185.37110 z "
       id="path224" />
    <path
       style="fill:#4c0a0b;stroke:#000000;stroke-width:0.75600004;fill-opacity:1.0000000"
       d="M 410.13720,180.94280 L 399.66120,229.86710 L 399.66120,229.86710 C 397.39320,236.45480 401.71320,242.61080 399.98520,248.22710 C 397.17720,245.74310 395.55720,245.74310 392.20920,246.06710 C 392.42520,244.44680 394.26120,241.42280 395.12520,240.12680 L 395.12520,240.12680 L 407.97720,180.61880 L 410.13720,180.94280 L 410.13720,180.94280 z "
       id="path226" />
    <path
       style="fill:#ffb98e;stroke:#000000;stroke-width:0.32400000"
       d="M 406.57320,184.50710 C 407.97720,183.85910 408.19320,184.50710 409.27320,184.93880 C 410.46120,185.04710 411.75720,185.04710 412.72920,186.23510 C 412.72920,187.20710 412.29720,187.74710 411.64920,187.85510 C 410.56920,187.53110 409.81320,187.85510 408.84120,187.20710 C 408.40920,189.15080 407.65320,191.85110 406.35720,192.28280 C 405.92520,192.06710 405.49320,191.85110 405.06120,191.74310 L 405.06120,191.74310 L 406.57320,184.50710 L 406.57320,184.50710 z "
       id="path228" />
    <path
       style="fill:#ffffff;stroke:none"
       d="M 388.96920,144.97880 C 391.77720,140.65880 393.72120,141.09080 396.96120,140.44280 C 393.50520,144.65480 392.74920,144.97880 388.96920,144.97880 L 388.96920,144.97880 z "
       id="path230" />
  </g>
</svg>
