<?xml version="1.0" encoding="UTF-8" standalone="no"?>
<!-- Created with Sodipodi ("http://www.sodipodi.com/") -->
<svg
   xmlns:dc="http://purl.org/dc/elements/1.1/"
   xmlns:cc="http://web.resource.org/cc/"
   xmlns:rdf="http://www.w3.org/1999/02/22-rdf-syntax-ns#"
   xmlns:svg="http://www.w3.org/2000/svg"
   xmlns="http://www.w3.org/2000/svg"
   xmlns:sodipodi="http://inkscape.sourceforge.net/DTD/sodipodi-0.dtd"
   xmlns:inkscape="http://www.inkscape.org/namespaces/inkscape"
   height="432"
   id="svg1358"
   sodipodi:docbase="/usr/share/rmap/flags/flags_svg-1.0"
   sodipodi:docname="aruba.svg"
   sodipodi:version="0.32"
   width="648"
   inkscape:version="0.42">
  <defs
     id="defs1558" />
  <sodipodi:namedview
     gridspacingx="1mm"
     gridspacingy="1mm"
     gridtolerance="0.5px"
     id="base"
     showgrid="true"
     snaptogrid="true"
     inkscape:zoom="3.1851852"
     inkscape:cx="113.96090"
     inkscape:cy="172.86002"
     inkscape:window-width="950"
     inkscape:window-height="530"
     inkscape:window-x="0"
     inkscape:window-y="640"
     inkscape:current-layer="svg1358" />
  <g
     id="g1509"
     transform="matrix(2.000000,0.000000,0.000000,2.000000,0.425197,0.141732)">
    <path
       style="fill:#3399cc;stroke:none"
       id="path1359"
       d="M 0.0000000,-6.4185300e-05 L 0.0000000,216.00000 L 324.00000,216.00000 L 324.00000,-6.4185300e-05 L 0.0000000,-6.4185300e-05 z " />
    <path
       style="fill:#99cccc;stroke:none"
       id="path1360"
       d="M 48.000000,12.000000 L 49.000000,13.000000 L 48.000000,12.000000 z " />
    <path
       style="fill:#99cccc;stroke:none"
       id="path1362"
       d="M 47.000000,14.000000 L 48.000000,15.000000 L 47.000000,14.000000 M 49.000000,14.000000 L 50.000000,15.000000 L 49.000000,14.000000 z " />
    <path
       style="fill:#ccccff;stroke:none"
       id="path1363"
       d="M 47.000000,15.000000 L 48.000000,16.000000 L 47.000000,15.000000 M 49.000000,15.000000 L 50.000000,16.000000 L 49.000000,15.000000 z " />
    <path
       style="fill:#66cccc;stroke:none"
       id="path1364"
       d="M 46.000000,17.000000 L 47.000000,18.000000 L 46.000000,17.000000 z " />
    <path
       style="fill:#cc6666;stroke:none"
       id="path1365"
       d="M 48.000000,17.000000 L 49.000000,18.000000 L 48.000000,17.000000 z " />
    <path
       style="fill:#66cccc;stroke:none"
       id="path1366"
       d="M 50.000000,17.000000 L 51.000000,18.000000 L 50.000000,17.000000 z " />
    <path
       style="fill:#ccccff;stroke:none"
       id="path1367"
       d="M 46.000000,18.000000 L 47.000000,19.000000 L 46.000000,18.000000 z " />
    <path
       style="fill:#ccccff;stroke:none"
       id="path1369"
       d="M 50.000000,18.000000 L 51.000000,19.000000 L 50.000000,18.000000 z " />
    <path
       style="fill:#ffcccc;stroke:none"
       id="path1370"
       d="M 47.000000,19.000000 L 48.000000,20.000000 L 47.000000,19.000000 M 49.000000,19.000000 L 50.000000,20.000000 L 49.000000,19.000000 z " />
    <path
       style="fill:#66cccc;stroke:none"
       id="path1371"
       d="M 45.000000,20.000000 L 46.000000,21.000000 L 45.000000,20.000000 z " />
    <path
       style="fill:#cc0000;stroke:#ffffff;stroke-width:1.2500000;stroke-dasharray:none;stroke-opacity:1.0000000"
       sodipodi:nodetypes="ccccccccc"
       id="path1372"
       d="M 47.834600,14.031500 L 40.825000,40.606300 L 14.173200,47.843700 L 40.748000,54.779500 L 47.834600,81.354300 L 54.921300,54.779500 L 81.496100,47.692900 L 54.921300,40.606300 L 47.834600,14.031500 z " />
    <path
       style="fill:#66cccc;stroke:none"
       id="path1373"
       d="M 51.000000,20.000000 L 52.000000,21.000000 L 51.000000,20.000000 z " />
    <path
       style="fill:#99ccff;stroke:none"
       id="path1374"
       d="M 45.000000,21.000000 L 46.000000,22.000000 L 45.000000,21.000000 M 51.000000,21.000000 L 52.000000,22.000000 L 51.000000,21.000000 z " />
    <path
       style="fill:#ffcccc;stroke:none"
       id="path1375"
       d="M 46.000000,22.000000 L 47.000000,23.000000 L 46.000000,22.000000 M 50.000000,22.000000 L 51.000000,23.000000 L 50.000000,22.000000 z " />
    <path
       style="fill:#6699cc;stroke:none"
       id="path1376"
       d="M 44.000000,23.000000 L 45.000000,24.000000 L 44.000000,23.000000 z " />
    <path
       style="fill:#cc3333;stroke:none"
       id="path1377"
       d="M 46.333300,23.666700 L 46.666700,24.333300 L 46.333300,23.666700 M 50.333300,23.666700 L 50.666700,24.333300 L 50.333300,23.666700 z " />
    <path
       style="fill:#6699cc;stroke:none"
       id="path1378"
       d="M 52.000000,23.000000 L 53.000000,24.000000 L 52.000000,23.000000 z " />
    <path
       style="fill:#99ccff;stroke:none"
       id="path1379"
       d="M 44.000000,24.000000 L 45.000000,25.000000 L 44.000000,24.000000 M 52.000000,24.000000 L 53.000000,25.000000 L 52.000000,24.000000 z " />
    <path
       style="fill:#ffcccc;stroke:none"
       id="path1380"
       d="M 45.000000,25.000000 L 46.000000,26.000000 L 45.000000,25.000000 M 51.000000,25.000000 L 52.000000,26.000000 L 51.000000,25.000000 z " />
    <path
       style="fill:#6699cc;stroke:none"
       id="path1381"
       d="M 43.000000,26.000000 L 44.000000,27.000000 L 43.000000,26.000000 z " />
    <path
       style="fill:#6699cc;stroke:none"
       id="path1383"
       d="M 53.000000,26.000000 L 54.000000,27.000000 L 53.000000,26.000000 z " />
    <path
       style="fill:#99cccc;stroke:none"
       id="path1384"
       d="M 43.000000,27.000000 L 44.000000,28.000000 L 43.000000,27.000000 M 53.000000,27.000000 L 54.000000,28.000000 L 53.000000,27.000000 z " />
    <path
       style="fill:#ccffff;stroke:none"
       id="path1385"
       d="M 43.000000,28.000000 L 44.000000,29.000000 L 43.000000,28.000000 M 53.000000,28.000000 L 54.000000,29.000000 L 53.000000,28.000000 z " />
    <path
       style="fill:#6699cc;stroke:none"
       id="path1386"
       d="M 42.000000,29.000000 L 43.000000,30.000000 L 42.000000,29.000000 z " />
    <path
       style="fill:#ffcccc;stroke:none"
       id="path1387"
       d="M 44.000000,29.000000 L 45.000000,30.000000 L 44.000000,29.000000 M 52.000000,29.000000 L 53.000000,30.000000 L 52.000000,29.000000 z " />
    <path
       style="fill:#6699cc;stroke:none"
       id="path1388"
       d="M 54.000000,29.000000 L 55.000000,30.000000 L 54.000000,29.000000 z " />
    <path
       style="fill:#99cccc;stroke:none"
       id="path1389"
       d="M 42.000000,30.000000 L 43.000000,31.000000 L 42.000000,30.000000 z " />
    <path
       style="fill:#cc3333;stroke:none"
       id="path1390"
       d="M 44.333300,30.666700 L 44.666700,31.333300 L 44.333300,30.666700 M 52.333300,30.666700 L 52.666700,31.333300 L 52.333300,30.666700 z " />
    <path
       style="fill:#99cccc;stroke:none"
       id="path1391"
       d="M 54.000000,30.000000 L 55.000000,31.000000 L 54.000000,30.000000 z " />
    <path
       style="fill:#ccffff;stroke:none"
       id="path1392"
       d="M 42.000000,31.000000 L 43.000000,32.000000 L 42.000000,31.000000 M 54.000000,31.000000 L 55.000000,32.000000 L 54.000000,31.000000 z " />
    <path
       style="fill:#ffcccc;stroke:none"
       id="path1393"
       d="M 43.000000,32.000000 L 44.000000,33.000000 L 43.000000,32.000000 M 53.000000,32.000000 L 54.000000,33.000000 L 53.000000,32.000000 z " />
    <path
       style="fill:#99cccc;stroke:none"
       id="path1394"
       d="M 41.000000,33.000000 L 42.000000,34.000000 L 41.000000,33.000000 z " />
    <path
       style="fill:#cc3333;stroke:none"
       id="path1395"
       d="M 43.333300,33.666700 L 43.666700,34.333300 L 43.333300,33.666700 M 53.333300,33.666700 L 53.666700,34.333300 L 53.333300,33.666700 z " />
    <path
       style="fill:#99cccc;stroke:none"
       id="path1396"
       d="M 55.000000,33.000000 L 56.000000,34.000000 L 55.000000,33.000000 z " />
    <path
       style="fill:#ccccff;stroke:none"
       id="path1397"
       d="M 41.000000,34.000000 L 42.000000,35.000000 L 41.000000,34.000000 M 55.000000,34.000000 L 56.000000,35.000000 L 55.000000,34.000000 z " />
    <path
       style="fill:#ffcccc;stroke:none"
       id="path1398"
       d="M 42.000000,35.000000 L 43.000000,36.000000 L 42.000000,35.000000 M 54.000000,35.000000 L 55.000000,36.000000 L 54.000000,35.000000 z " />
    <path
       style="fill:#99cccc;stroke:none"
       id="path1399"
       d="M 40.000000,36.000000 L 41.000000,37.000000 L 40.000000,36.000000 z " />
    <path
       style="fill:#cc3333;stroke:none"
       id="path1400"
       d="M 42.333300,36.666700 L 42.666700,37.333300 L 42.333300,36.666700 M 54.333300,36.666700 L 54.666700,37.333300 L 54.333300,36.666700 z " />
    <path
       style="fill:#99cccc;stroke:none"
       id="path1401"
       d="M 56.000000,36.000000 L 57.000000,37.000000 L 56.000000,36.000000 z " />
    <path
       style="fill:#ccccff;stroke:none"
       id="path1402"
       d="M 40.000000,37.000000 L 41.000000,38.000000 L 40.000000,37.000000 M 56.000000,37.000000 L 57.000000,38.000000 L 56.000000,37.000000 z " />
    <path
       style="fill:#ffcccc;stroke:none"
       id="path1403"
       d="M 41.000000,38.000000 L 42.000000,39.000000 L 41.000000,38.000000 M 55.000000,38.000000 L 56.000000,39.000000 L 55.000000,38.000000 z " />
    <path
       style="fill:#99cccc;stroke:none"
       id="path1404"
       d="M 39.000000,39.000000 L 40.000000,40.000000 L 39.000000,39.000000 z " />
    <path
       style="fill:#cc3333;stroke:none"
       id="path1405"
       d="M 41.000000,39.000000 L 42.000000,40.000000 L 41.000000,39.000000 M 55.000000,39.000000 L 56.000000,40.000000 L 55.000000,39.000000 z " />
    <path
       style="fill:#99cccc;stroke:none"
       id="path1406"
       d="M 57.000000,39.000000 L 58.000000,40.000000 L 57.000000,39.000000 M 36.000000,40.000000 L 37.000000,41.000000 L 36.000000,40.000000 z " />
    <path
       style="fill:#ccccff;stroke:none"
       id="path1407"
       d="M 37.000000,40.000000 L 38.000000,41.000000 L 37.000000,40.000000 M 59.000000,40.000000 L 60.000000,41.000000 L 59.000000,40.000000 z " />
    <path
       style="fill:#99cccc;stroke:none"
       id="path1408"
       d="M 60.000000,40.000000 L 61.000000,41.000000 L 60.000000,40.000000 M 33.000000,41.000000 L 34.000000,42.000000 L 33.000000,41.000000 z " />
    <path
       style="fill:#ccccff;stroke:none"
       id="path1409"
       d="M 34.000000,41.000000 L 35.000000,42.000000 L 34.000000,41.000000 z " />
    <path
       style="fill:#ffcccc;stroke:none"
       id="path1410"
       d="M 38.000000,41.000000 L 39.000000,42.000000 L 38.000000,41.000000 z " />
    <path
       style="fill:#cc3333;stroke:none"
       id="path1411"
       d="M 39.000000,41.000000 L 40.000000,42.000000 L 39.000000,41.000000 M 57.000000,41.000000 L 58.000000,42.000000 L 57.000000,41.000000 z " />
    <path
       style="fill:#ffcccc;stroke:none"
       id="path1412"
       d="M 58.000000,41.000000 L 59.000000,42.000000 L 58.000000,41.000000 z " />
    <path
       style="fill:#ccccff;stroke:none"
       id="path1413"
       d="M 62.000000,41.000000 L 63.000000,42.000000 L 62.000000,41.000000 z " />
    <path
       style="fill:#99cccc;stroke:none"
       id="path1414"
       d="M 63.000000,41.000000 L 64.000000,42.000000 L 63.000000,41.000000 z " />
    <path
       style="fill:#6699cc;stroke:none"
       id="path1415"
       d="M 29.000000,42.000000 L 30.000000,43.000000 L 29.000000,42.000000 z " />
    <path
       style="fill:#99cccc;stroke:none"
       id="path1416"
       d="M 30.000000,42.000000 L 31.000000,43.000000 L 30.000000,42.000000 z " />
    <path
       style="fill:#ccffff;stroke:none"
       id="path1417"
       d="M 31.000000,42.000000 L 32.000000,43.000000 L 31.000000,42.000000 z " />
    <path
       style="fill:#ffcccc;stroke:none"
       id="path1418"
       d="M 35.000000,42.000000 L 36.000000,43.000000 L 35.000000,42.000000 z " />
    <path
       style="fill:#cc3333;stroke:none"
       id="path1419"
       d="M 36.666700,42.333300 L 37.333300,42.666700 L 36.666700,42.333300 M 59.666700,42.333300 L 60.333300,42.666700 L 59.666700,42.333300 z " />
    <path
       style="fill:#ffcccc;stroke:none"
       id="path1420"
       d="M 61.000000,42.000000 L 62.000000,43.000000 L 61.000000,42.000000 z " />
    <path
       style="fill:#ccffff;stroke:none"
       id="path1421"
       d="M 65.000000,42.000000 L 66.000000,43.000000 L 65.000000,42.000000 z " />
    <path
       style="fill:#99cccc;stroke:none"
       id="path1422"
       d="M 66.000000,42.000000 L 67.000000,43.000000 L 66.000000,42.000000 z " />
    <path
       style="fill:#6699cc;stroke:none"
       id="path1423"
       d="M 67.000000,42.000000 L 68.000000,43.000000 L 67.000000,42.000000 M 26.000000,43.000000 L 27.000000,44.000000 L 26.000000,43.000000 z " />
    <path
       style="fill:#99cccc;stroke:none"
       id="path1424"
       d="M 27.000000,43.000000 L 28.000000,44.000000 L 27.000000,43.000000 z " />
    <path
       style="fill:#ccffff;stroke:none"
       id="path1425"
       d="M 28.000000,43.000000 L 29.000000,44.000000 L 28.000000,43.000000 z " />
    <path
       style="fill:#ffcccc;stroke:none"
       id="path1426"
       d="M 32.000000,43.000000 L 33.000000,44.000000 L 32.000000,43.000000 z " />
    <path
       style="fill:#cc3333;stroke:none"
       id="path1427"
       d="M 33.666700,43.333300 L 34.333300,43.666700 L 33.666700,43.333300 M 62.666700,43.333300 L 63.333300,43.666700 L 62.666700,43.333300 z " />
    <path
       style="fill:#ffcccc;stroke:none"
       id="path1428"
       d="M 64.000000,43.000000 L 65.000000,44.000000 L 64.000000,43.000000 z " />
    <path
       style="fill:#ccffff;stroke:none"
       id="path1429"
       d="M 68.000000,43.000000 L 69.000000,44.000000 L 68.000000,43.000000 z " />
    <path
       style="fill:#99cccc;stroke:none"
       id="path1430"
       d="M 69.000000,43.000000 L 70.000000,44.000000 L 69.000000,43.000000 z " />
    <path
       style="fill:#6699cc;stroke:none"
       id="path1431"
       d="M 70.000000,43.000000 L 71.000000,44.000000 L 70.000000,43.000000 M 23.000000,44.000000 L 24.000000,45.000000 L 23.000000,44.000000 z " />
    <path
       style="fill:#99ccff;stroke:none"
       id="path1432"
       d="M 24.000000,44.000000 L 25.000000,45.000000 L 24.000000,44.000000 z " />
    <path
       style="fill:#ffcccc;stroke:none"
       id="path1433"
       d="M 29.000000,44.000000 L 30.000000,45.000000 L 29.000000,44.000000 z " />
    <path
       style="fill:#cc3333;stroke:none"
       id="path1434"
       d="M 30.666700,44.333300 L 31.333300,44.666700 L 30.666700,44.333300 M 65.666700,44.333300 L 66.333300,44.666700 L 65.666700,44.333300 z " />
    <path
       style="fill:#ffcccc;stroke:none"
       id="path1435"
       d="M 67.000000,44.000000 L 68.000000,45.000000 L 67.000000,44.000000 z " />
    <path
       style="fill:#99ccff;stroke:none"
       id="path1436"
       d="M 72.000000,44.000000 L 73.000000,45.000000 L 72.000000,44.000000 z " />
    <path
       style="fill:#6699cc;stroke:none"
       id="path1437"
       d="M 73.000000,44.000000 L 74.000000,45.000000 L 73.000000,44.000000 z " />
    <path
       style="fill:#66cccc;stroke:none"
       id="path1438"
       d="M 20.000000,45.000000 L 21.000000,46.000000 L 20.000000,45.000000 z " />
    <path
       style="fill:#99ccff;stroke:none"
       id="path1439"
       d="M 21.000000,45.000000 L 22.000000,46.000000 L 21.000000,45.000000 z " />
    <path
       style="fill:#ffcccc;stroke:none"
       id="path1440"
       d="M 25.000000,45.000000 L 26.000000,46.000000 L 25.000000,45.000000 z " />
    <path
       style="fill:#ffcccc;stroke:none"
       id="path1442"
       d="M 71.000000,45.000000 L 72.000000,46.000000 L 71.000000,45.000000 z " />
    <path
       style="fill:#99ccff;stroke:none"
       id="path1443"
       d="M 75.000000,45.000000 L 76.000000,46.000000 L 75.000000,45.000000 z " />
    <path
       style="fill:#66cccc;stroke:none"
       id="path1444"
       d="M 76.000000,45.000000 L 77.000000,46.000000 L 76.000000,45.000000 M 17.000000,46.000000 L 18.000000,47.000000 L 17.000000,46.000000 z " />
    <path
       style="fill:#ccccff;stroke:none"
       id="path1445"
       d="M 18.000000,46.000000 L 19.000000,47.000000 L 18.000000,46.000000 z " />
    <path
       style="fill:#ffcccc;stroke:none"
       id="path1446"
       d="M 22.000000,46.000000 L 23.000000,47.000000 L 22.000000,46.000000 z " />
    <path
       style="fill:#cc3333;stroke:none"
       id="path1447"
       d="M 23.666700,46.333300 L 24.333300,46.666700 L 23.666700,46.333300 M 72.666700,46.333300 L 73.333300,46.666700 L 72.666700,46.333300 z " />
    <path
       style="fill:#ffcccc;stroke:none"
       id="path1448"
       d="M 74.000000,46.000000 L 75.000000,47.000000 L 74.000000,46.000000 z " />
    <path
       style="fill:#ccccff;stroke:none"
       id="path1449"
       d="M 78.000000,46.000000 L 79.000000,47.000000 L 78.000000,46.000000 z " />
    <path
       style="fill:#66cccc;stroke:none"
       id="path1450"
       d="M 79.000000,46.000000 L 80.000000,47.000000 L 79.000000,46.000000 z " />
    <path
       style="fill:#99cccc;stroke:none"
       id="path1451"
       d="M 14.000000,47.000000 L 15.000000,48.000000 L 14.000000,47.000000 z " />
    <path
       style="fill:#ccccff;stroke:none"
       id="path1452"
       d="M 15.000000,47.000000 L 16.000000,48.000000 L 15.000000,47.000000 z " />
    <path
       style="fill:#ffcccc;stroke:none"
       id="path1453"
       d="M 19.000000,47.000000 L 20.000000,48.000000 L 19.000000,47.000000 z " />
    <path
       style="fill:#ffcccc;stroke:none"
       id="path1455"
       d="M 77.000000,47.000000 L 78.000000,48.000000 L 77.000000,47.000000 z " />
    <path
       style="fill:#ccccff;stroke:none"
       id="path1456"
       d="M 81.000000,47.000000 L 82.000000,48.000000 L 81.000000,47.000000 z " />
    <path
       style="fill:#99cccc;stroke:none"
       id="path1457"
       d="M 82.000000,47.000000 L 83.000000,48.000000 L 82.000000,47.000000 M 12.000000,48.000000 L 13.000000,49.000000 L 12.000000,48.000000 z " />
    <path
       style="fill:#cc6666;stroke:none"
       id="path1458"
       d="M 17.000000,48.000000 L 18.000000,49.000000 L 17.000000,48.000000 z " />
    <path
       style="fill:#cc6666;stroke:none"
       id="path1460"
       d="M 79.000000,48.000000 L 80.000000,49.000000 L 79.000000,48.000000 z " />
    <path
       style="fill:#99cccc;stroke:none"
       id="path1461"
       d="M 84.000000,48.000000 L 85.000000,49.000000 L 84.000000,48.000000 M 14.000000,49.000000 L 15.000000,50.000000 L 14.000000,49.000000 z " />
    <path
       style="fill:#ccccff;stroke:none"
       id="path1462"
       d="M 15.000000,49.000000 L 16.000000,50.000000 L 15.000000,49.000000 z " />
    <path
       style="fill:#ffcccc;stroke:none"
       id="path1463"
       d="M 19.000000,49.000000 L 20.000000,50.000000 L 19.000000,49.000000 M 77.000000,49.000000 L 78.000000,50.000000 L 77.000000,49.000000 z " />
    <path
       style="fill:#ccccff;stroke:none"
       id="path1464"
       d="M 81.000000,49.000000 L 82.000000,50.000000 L 81.000000,49.000000 z " />
    <path
       style="fill:#99cccc;stroke:none"
       id="path1465"
       d="M 82.000000,49.000000 L 83.000000,50.000000 L 82.000000,49.000000 z " />
    <path
       style="fill:#66cccc;stroke:none"
       id="path1466"
       d="M 17.000000,50.000000 L 18.000000,51.000000 L 17.000000,50.000000 z " />
    <path
       style="fill:#ccccff;stroke:none"
       id="path1467"
       d="M 18.000000,50.000000 L 19.000000,51.000000 L 18.000000,50.000000 z " />
    <path
       style="fill:#ffcccc;stroke:none"
       id="path1468"
       d="M 22.000000,50.000000 L 23.000000,51.000000 L 22.000000,50.000000 z " />
    <path
       style="fill:#cc3333;stroke:none"
       id="path1469"
       d="M 23.666700,50.333300 L 24.333300,50.666700 L 23.666700,50.333300 M 72.666700,50.333300 L 73.333300,50.666700 L 72.666700,50.333300 z " />
    <path
       style="fill:#ffcccc;stroke:none"
       id="path1470"
       d="M 74.000000,50.000000 L 75.000000,51.000000 L 74.000000,50.000000 z " />
    <path
       style="fill:#ccccff;stroke:none"
       id="path1471"
       d="M 78.000000,50.000000 L 79.000000,51.000000 L 78.000000,50.000000 z " />
    <path
       style="fill:#66cccc;stroke:none"
       id="path1472"
       d="M 79.000000,50.000000 L 80.000000,51.000000 L 79.000000,50.000000 M 20.000000,51.000000 L 21.000000,52.000000 L 20.000000,51.000000 z " />
    <path
       style="fill:#99ccff;stroke:none"
       id="path1473"
       d="M 21.000000,51.000000 L 22.000000,52.000000 L 21.000000,51.000000 z " />
    <path
       style="fill:#ffcccc;stroke:none"
       id="path1474"
       d="M 25.000000,51.000000 L 26.000000,52.000000 L 25.000000,51.000000 z " />
    <path
       style="fill:#ffcccc;stroke:none"
       id="path1476"
       d="M 71.000000,51.000000 L 72.000000,52.000000 L 71.000000,51.000000 z " />
    <path
       style="fill:#99ccff;stroke:none"
       id="path1477"
       d="M 75.000000,51.000000 L 76.000000,52.000000 L 75.000000,51.000000 z " />
    <path
       style="fill:#66cccc;stroke:none"
       id="path1478"
       d="M 76.000000,51.000000 L 77.000000,52.000000 L 76.000000,51.000000 z " />
    <path
       style="fill:#6699cc;stroke:none"
       id="path1479"
       d="M 23.000000,52.000000 L 24.000000,53.000000 L 23.000000,52.000000 z " />
    <path
       style="fill:#99ccff;stroke:none"
       id="path1480"
       d="M 24.000000,52.000000 L 25.000000,53.000000 L 24.000000,52.000000 z " />
    <path
       style="fill:#ffcccc;stroke:none"
       id="path1481"
       d="M 29.000000,52.000000 L 30.000000,53.000000 L 29.000000,52.000000 z " />
    <path
       style="fill:#cc3333;stroke:none"
       id="path1482"
       d="M 30.666700,52.333300 L 31.333300,52.666700 L 30.666700,52.333300 M 65.666700,52.333300 L 66.333300,52.666700 L 65.666700,52.333300 z " />
    <path
       style="fill:#ffcccc;stroke:none"
       id="path1483"
       d="M 67.000000,52.000000 L 68.000000,53.000000 L 67.000000,52.000000 z " />
    <path
       style="fill:#99ccff;stroke:none"
       id="path1484"
       d="M 72.000000,52.000000 L 73.000000,53.000000 L 72.000000,52.000000 z " />
    <path
       style="fill:#6699cc;stroke:none"
       id="path1485"
       d="M 73.000000,52.000000 L 74.000000,53.000000 L 73.000000,52.000000 M 26.000000,53.000000 L 27.000000,54.000000 L 26.000000,53.000000 z " />
    <path
       style="fill:#99cccc;stroke:none"
       id="path1486"
       d="M 27.000000,53.000000 L 28.000000,54.000000 L 27.000000,53.000000 z " />
    <path
       style="fill:#ccffff;stroke:none"
       id="path1487"
       d="M 28.000000,53.000000 L 29.000000,54.000000 L 28.000000,53.000000 z " />
    <path
       style="fill:#ffcccc;stroke:none"
       id="path1488"
       d="M 32.000000,53.000000 L 33.000000,54.000000 L 32.000000,53.000000 z " />
    <path
       style="fill:#cc3333;stroke:none"
       id="path1489"
       d="M 33.666700,53.333300 L 34.333300,53.666700 L 33.666700,53.333300 M 62.666700,53.333300 L 63.333300,53.666700 L 62.666700,53.333300 z " />
    <path
       style="fill:#ffcccc;stroke:none"
       id="path1490"
       d="M 64.000000,53.000000 L 65.000000,54.000000 L 64.000000,53.000000 z " />
    <path
       style="fill:#ccffff;stroke:none"
       id="path1491"
       d="M 68.000000,53.000000 L 69.000000,54.000000 L 68.000000,53.000000 z " />
    <path
       style="fill:#99cccc;stroke:none"
       id="path1492"
       d="M 69.000000,53.000000 L 70.000000,54.000000 L 69.000000,53.000000 z " />
    <path
       style="fill:#6699cc;stroke:none"
       id="path1493"
       d="M 70.000000,53.000000 L 71.000000,54.000000 L 70.000000,53.000000 M 29.000000,54.000000 L 30.000000,55.000000 L 29.000000,54.000000 z " />
    <path
       style="fill:#99cccc;stroke:none"
       id="path1494"
       d="M 30.000000,54.000000 L 31.000000,55.000000 L 30.000000,54.000000 z " />
    <path
       style="fill:#ccffff;stroke:none"
       id="path1495"
       d="M 31.000000,54.000000 L 32.000000,55.000000 L 31.000000,54.000000 z " />
    <path
       style="fill:#ffcccc;stroke:none"
       id="path1496"
       d="M 35.000000,54.000000 L 36.000000,55.000000 L 35.000000,54.000000 z " />
    <path
       style="fill:#cc3333;stroke:none"
       id="path1497"
       d="M 36.666700,54.333300 L 37.333300,54.666700 L 36.666700,54.333300 M 59.666700,54.333300 L 60.333300,54.666700 L 59.666700,54.333300 z " />
    <path
       style="fill:#ffcccc;stroke:none"
       id="path1498"
       d="M 61.000000,54.000000 L 62.000000,55.000000 L 61.000000,54.000000 z " />
    <path
       style="fill:#ccffff;stroke:none"
       id="path1499"
       d="M 65.000000,54.000000 L 66.000000,55.000000 L 65.000000,54.000000 z " />
    <path
       style="fill:#99cccc;stroke:none"
       id="path1500"
       d="M 66.000000,54.000000 L 67.000000,55.000000 L 66.000000,54.000000 z " />
    <path
       style="fill:#6699cc;stroke:none"
       id="path1501"
       d="M 67.000000,54.000000 L 68.000000,55.000000 L 67.000000,54.000000 z " />
    <path
       style="fill:#99cccc;stroke:none"
       id="path1502"
       d="M 33.000000,55.000000 L 34.000000,56.000000 L 33.000000,55.000000 z " />
    <path
       style="fill:#ccccff;stroke:none"
       id="path1503"
       d="M 34.000000,55.000000 L 35.000000,56.000000 L 34.000000,55.000000 z " />
    <path
       style="fill:#ffcccc;stroke:none"
       id="path1504"
       d="M 38.000000,55.000000 L 39.000000,56.000000 L 38.000000,55.000000 z " />
    <path
       style="fill:#cc3333;stroke:none"
       id="path1505"
       d="M 39.000000,55.000000 L 40.000000,56.000000 L 39.000000,55.000000 M 57.000000,55.000000 L 58.000000,56.000000 L 57.000000,55.000000 z " />
    <path
       style="fill:#ffcccc;stroke:none"
       id="path1506"
       d="M 58.000000,55.000000 L 59.000000,56.000000 L 58.000000,55.000000 z " />
    <path
       style="fill:#ccccff;stroke:none"
       id="path1507"
       d="M 62.000000,55.000000 L 63.000000,56.000000 L 62.000000,55.000000 z " />
    <path
       style="fill:#99cccc;stroke:none"
       id="path1508"
       d="M 63.000000,55.000000 L 64.000000,56.000000 L 63.000000,55.000000 M 36.000000,56.000000 L 37.000000,57.000000 L 36.000000,56.000000 z " />
    <path
       style="fill:#ccccff;stroke:none"
       id="path1509"
       d="M 37.000000,56.000000 L 38.000000,57.000000 L 37.000000,56.000000 M 59.000000,56.000000 L 60.000000,57.000000 L 59.000000,56.000000 z " />
    <path
       style="fill:#99cccc;stroke:none"
       id="path1510"
       d="M 60.000000,56.000000 L 61.000000,57.000000 L 60.000000,56.000000 M 39.000000,57.000000 L 40.000000,58.000000 L 39.000000,57.000000 z " />
    <path
       style="fill:#cc3333;stroke:none"
       id="path1511"
       d="M 41.000000,57.000000 L 42.000000,58.000000 L 41.000000,57.000000 M 55.000000,57.000000 L 56.000000,58.000000 L 55.000000,57.000000 z " />
    <path
       style="fill:#99cccc;stroke:none"
       id="path1512"
       d="M 57.000000,57.000000 L 58.000000,58.000000 L 57.000000,57.000000 z " />
    <path
       style="fill:#ffcccc;stroke:none"
       id="path1513"
       d="M 41.000000,58.000000 L 42.000000,59.000000 L 41.000000,58.000000 M 55.000000,58.000000 L 56.000000,59.000000 L 55.000000,58.000000 z " />
    <path
       style="fill:#ccccff;stroke:none"
       id="path1514"
       d="M 40.000000,59.000000 L 41.000000,60.000000 L 40.000000,59.000000 z " />
    <path
       style="fill:#cc3333;stroke:none"
       id="path1515"
       d="M 42.333300,59.666700 L 42.666700,60.333300 L 42.333300,59.666700 M 54.333300,59.666700 L 54.666700,60.333300 L 54.333300,59.666700 z " />
    <path
       style="fill:#ccccff;stroke:none"
       id="path1516"
       d="M 56.000000,59.000000 L 57.000000,60.000000 L 56.000000,59.000000 z " />
    <path
       style="fill:#99cccc;stroke:none"
       id="path1517"
       d="M 40.000000,60.000000 L 41.000000,61.000000 L 40.000000,60.000000 M 56.000000,60.000000 L 57.000000,61.000000 L 56.000000,60.000000 z " />
    <path
       style="fill:#ffcccc;stroke:none"
       id="path1518"
       d="M 42.000000,61.000000 L 43.000000,62.000000 L 42.000000,61.000000 M 54.000000,61.000000 L 55.000000,62.000000 L 54.000000,61.000000 z " />
    <path
       style="fill:#ccccff;stroke:none"
       id="path1519"
       d="M 41.000000,62.000000 L 42.000000,63.000000 L 41.000000,62.000000 z " />
    <path
       style="fill:#cc3333;stroke:none"
       id="path1520"
       d="M 43.333300,62.666700 L 43.666700,63.333300 L 43.333300,62.666700 M 53.333300,62.666700 L 53.666700,63.333300 L 53.333300,62.666700 z " />
    <path
       style="fill:#ccccff;stroke:none"
       id="path1521"
       d="M 55.000000,62.000000 L 56.000000,63.000000 L 55.000000,62.000000 z " />
    <path
       style="fill:#99cccc;stroke:none"
       id="path1522"
       d="M 41.000000,63.000000 L 42.000000,64.000000 L 41.000000,63.000000 M 55.000000,63.000000 L 56.000000,64.000000 L 55.000000,63.000000 z " />
    <path
       style="fill:#ffcccc;stroke:none"
       id="path1523"
       d="M 43.000000,64.000000 L 44.000000,65.000000 L 43.000000,64.000000 M 53.000000,64.000000 L 54.000000,65.000000 L 53.000000,64.000000 z " />
    <path
       style="fill:#ccffff;stroke:none"
       id="path1524"
       d="M 42.000000,65.000000 L 43.000000,66.000000 L 42.000000,65.000000 z " />
    <path
       style="fill:#cc3333;stroke:none"
       id="path1525"
       d="M 44.333300,65.666700 L 44.666700,66.333300 L 44.333300,65.666700 M 52.333300,65.666700 L 52.666700,66.333300 L 52.333300,65.666700 z " />
    <path
       style="fill:#ccffff;stroke:none"
       id="path1526"
       d="M 54.000000,65.000000 L 55.000000,66.000000 L 54.000000,65.000000 z " />
    <path
       style="fill:#99cccc;stroke:none"
       id="path1527"
       d="M 42.000000,66.000000 L 43.000000,67.000000 L 42.000000,66.000000 M 54.000000,66.000000 L 55.000000,67.000000 L 54.000000,66.000000 z " />
    <path
       style="fill:#6699cc;stroke:none"
       id="path1528"
       d="M 42.000000,67.000000 L 43.000000,68.000000 L 42.000000,67.000000 z " />
    <path
       style="fill:#ffcccc;stroke:none"
       id="path1529"
       d="M 44.000000,67.000000 L 45.000000,68.000000 L 44.000000,67.000000 M 52.000000,67.000000 L 53.000000,68.000000 L 52.000000,67.000000 z " />
    <path
       style="fill:#6699cc;stroke:none"
       id="path1530"
       d="M 54.000000,67.000000 L 55.000000,68.000000 L 54.000000,67.000000 z " />
    <path
       style="fill:#ccffff;stroke:none"
       id="path1531"
       d="M 43.000000,68.000000 L 44.000000,69.000000 L 43.000000,68.000000 z " />
    <path
       style="fill:#ccffff;stroke:none"
       id="path1533"
       d="M 53.000000,68.000000 L 54.000000,69.000000 L 53.000000,68.000000 z " />
    <path
       style="fill:#99cccc;stroke:none"
       id="path1534"
       d="M 43.000000,69.000000 L 44.000000,70.000000 L 43.000000,69.000000 M 53.000000,69.000000 L 54.000000,70.000000 L 53.000000,69.000000 z " />
    <path
       style="fill:#6699cc;stroke:none"
       id="path1535"
       d="M 43.000000,70.000000 L 44.000000,71.000000 L 43.000000,70.000000 M 53.000000,70.000000 L 54.000000,71.000000 L 53.000000,70.000000 z " />
    <path
       style="fill:#ffcccc;stroke:none"
       id="path1536"
       d="M 45.000000,71.000000 L 46.000000,72.000000 L 45.000000,71.000000 M 51.000000,71.000000 L 52.000000,72.000000 L 51.000000,71.000000 z " />
    <path
       style="fill:#99ccff;stroke:none"
       id="path1537"
       d="M 44.000000,72.000000 L 45.000000,73.000000 L 44.000000,72.000000 z " />
    <path
       style="fill:#cc3333;stroke:none"
       id="path1538"
       d="M 46.333300,72.666700 L 46.666700,73.333300 L 46.333300,72.666700 M 50.333300,72.666700 L 50.666700,73.333300 L 50.333300,72.666700 z " />
    <path
       style="fill:#99ccff;stroke:none"
       id="path1539"
       d="M 52.000000,72.000000 L 53.000000,73.000000 L 52.000000,72.000000 z " />
    <path
       style="fill:#6699cc;stroke:none"
       id="path1540"
       d="M 44.000000,73.000000 L 45.000000,74.000000 L 44.000000,73.000000 M 52.000000,73.000000 L 53.000000,74.000000 L 52.000000,73.000000 z " />
    <path
       style="fill:#ffcccc;stroke:none"
       id="path1541"
       d="M 46.000000,74.000000 L 47.000000,75.000000 L 46.000000,74.000000 M 50.000000,74.000000 L 51.000000,75.000000 L 50.000000,74.000000 z " />
    <path
       style="fill:#99ccff;stroke:none"
       id="path1542"
       d="M 45.000000,75.000000 L 46.000000,76.000000 L 45.000000,75.000000 z " />
    <path
       style="fill:#99ccff;stroke:none"
       id="path1544"
       d="M 51.000000,75.000000 L 52.000000,76.000000 L 51.000000,75.000000 z " />
    <path
       style="fill:#66cccc;stroke:none"
       id="path1545"
       d="M 45.000000,76.000000 L 46.000000,77.000000 L 45.000000,76.000000 M 51.000000,76.000000 L 52.000000,77.000000 L 51.000000,76.000000 z " />
    <path
       style="fill:#ffcccc;stroke:none"
       id="path1546"
       d="M 47.000000,77.000000 L 48.000000,78.000000 L 47.000000,77.000000 M 49.000000,77.000000 L 50.000000,78.000000 L 49.000000,77.000000 z " />
    <path
       style="fill:#ccccff;stroke:none"
       id="path1547"
       d="M 46.000000,78.000000 L 47.000000,79.000000 L 46.000000,78.000000 M 50.000000,78.000000 L 51.000000,79.000000 L 50.000000,78.000000 z " />
    <path
       style="fill:#66cccc;stroke:none"
       id="path1548"
       d="M 46.000000,79.000000 L 47.000000,80.000000 L 46.000000,79.000000 z " />
    <path
       style="fill:#cc6666;stroke:none"
       id="path1549"
       d="M 48.000000,79.000000 L 49.000000,80.000000 L 48.000000,79.000000 z " />
    <path
       style="fill:#66cccc;stroke:none"
       id="path1550"
       d="M 50.000000,79.000000 L 51.000000,80.000000 L 50.000000,79.000000 z " />
    <path
       style="fill:#ccccff;stroke:none"
       id="path1551"
       d="M 47.000000,81.000000 L 48.000000,82.000000 L 47.000000,81.000000 M 49.000000,81.000000 L 50.000000,82.000000 L 49.000000,81.000000 z " />
    <path
       style="fill:#99cccc;stroke:none"
       id="path1552"
       d="M 47.000000,82.000000 L 48.000000,83.000000 L 47.000000,82.000000 M 49.000000,82.000000 L 50.000000,83.000000 L 49.000000,82.000000 M 48.000000,84.000000 L 49.000000,85.000000 L 48.000000,84.000000 z " />
    <path
       style="fill:#ffff00;stroke:none"
       id="path1553"
       d="M 0.0000000,144.00000 L 0.0000000,156.00000 L 324.00000,156.00000 L 324.00000,144.00000 L 0.0000000,144.00000 z " />
    <path
       style="fill:#ffff00;stroke:none"
       id="path1555"
       d="M 0.0000000,168.00000 L 0.0000000,180.00000 L 324.00000,180.00000 L 324.00000,168.00000 L 0.0000000,168.00000 z " />
  </g>
  <metadata
     id="metadata192">
    <rdf:RDF>
      <cc:Work
         rdf:about="">
        <dc:title>Aruba</dc:title>
        <dc:description />
        <dc:subject>
          <rdf:Bag>
            <rdf:li>flags</rdf:li>
            <rdf:li>caribbean</rdf:li>
            <rdf:li>sign</rdf:li>
            <rdf:li>signs_and_symbols</rdf:li>
            <rdf:li />
            <rdf:li>america</rdf:li>
          </rdf:Bag>
        </dc:subject>
        <dc:publisher>
          <cc:Agent
             rdf:about="http://www.openclipart.org">
            <dc:title>John C Meuser</dc:title>
          </cc:Agent>
        </dc:publisher>
        <dc:creator>
          <cc:Agent
             rdf:about="">
            <dc:title>John C Meuser</dc:title>
          </cc:Agent>
        </dc:creator>
        <dc:rights>
          <cc:Agent
             rdf:about="">
            <dc:title>John C Meuser</dc:title>
          </cc:Agent>
        </dc:rights>
        <dc:date />
        <dc:format>image/svg+xml</dc:format>
        <dc:type
           rdf:resource="http://purl.org/dc/dcmitype/StillImage" />
        <cc:license
           rdf:resource="http://web.resource.org/cc/PublicDomain">
          <dc:date />
        </cc:license>
        <dc:language>en</dc:language>
      </cc:Work>
      <cc:License
         rdf:about="http://web.resource.org/cc/PublicDomain">
        <cc:permits
           rdf:resource="http://web.resource.org/cc/Reproduction" />
        <cc:permits
           rdf:resource="http://web.resource.org/cc/Distribution" />
        <cc:permits
           rdf:resource="http://web.resource.org/cc/DerivativeWorks" />
      </cc:License>
    </rdf:RDF>
  </metadata>
</svg>
