<?xml version="1.0" encoding="UTF-8" standalone="no"?>
<svg
   xmlns:dc="http://purl.org/dc/elements/1.1/"
   xmlns:cc="http://web.resource.org/cc/"
   xmlns:rdf="http://www.w3.org/1999/02/22-rdf-syntax-ns#"
   xmlns:svg="http://www.w3.org/2000/svg"
   xmlns="http://www.w3.org/2000/svg"
   xmlns:sodipodi="http://inkscape.sourceforge.net/DTD/sodipodi-0.dtd"
   xmlns:inkscape="http://www.inkscape.org/namespaces/inkscape"
   viewBox="0 200 432.0 216.0"
   id="svg2"
   sodipodi:version="0.32"
   inkscape:version="0.42"
   width="210mm"
   height="105mm"
   sodipodi:docname="australia_lord_howe_island.svg"
   sodipodi:docbase="/home/demailly/nnew/gis_data/flags/svg_new">
  <metadata
     id="metadata25">
    <rdf:RDF>
      <cc:Work
         rdf:about="">
        <dc:format>image/svg+xml</dc:format>
        <dc:type
           rdf:resource="http://purl.org/dc/dcmitype/StillImage" />
      </cc:Work>
    </rdf:RDF>
  </metadata>
  <defs
     id="defs23" />
  <sodipodi:namedview
     inkscape:cy="128.00693"
     inkscape:cx="465.81029"
     inkscape:zoom="1.7366334"
     inkscape:window-height="1139"
     inkscape:window-width="1838"
     inkscape:pageshadow="2"
     inkscape:pageopacity="0.0"
     borderopacity="1.0"
     bordercolor="#666666"
     pagecolor="#ffffff"
     id="base"
     inkscape:window-x="72"
     inkscape:window-y="11"
     inkscape:current-layer="svg2" />
  <g
     id="g2856"
     transform="translate(0.334309,197.9106)">
    <g
       style="fill:#081873;fill-opacity:1.0000000;stroke:none"
       id="g4"
       transform="matrix(0.100000,0.000000,0.000000,-0.100000,0.000000,216.0000)">
      <path
         style="fill:#081873;fill-opacity:1.0000000"
         id="path6"
         d="M 375.00000,2099.0000 C 563.00000,2006.0000 1452.0000,1570.0000 1454.0000,1570.0000 C 1456.0000,1570.0000 1484.0000,1606.0000 1518.0000,1649.0000 C 1609.0000,1766.0000 1795.0000,1897.0000 1913.0000,1925.0000 L 1940.0000,1932.0000 L 1940.0000,2046.0000 L 1940.0000,2160.0000 L 1098.0000,2159.0000 L 255.00000,2159.0000 L 375.00000,2099.0000 z " />
      <path
         style="fill:#081873;fill-opacity:1.0000000"
         id="path8"
         d="M 2380.0000,2052.0000 L 2380.0000,1944.0000 L 2429.0000,1931.0000 C 2585.0000,1891.0000 2772.0000,1759.0000 2872.0000,1618.0000 L 2912.0000,1562.0000 L 3403.0000,1804.0000 C 3674.0000,1938.0000 3945.0000,2072.0000 4005.0000,2103.0000 L 4115.0000,2159.0000 L 3248.0000,2159.0000 L 2380.0000,2160.0000 L 2380.0000,2052.0000 z " />
      <path
         style="fill:#081873;fill-opacity:1.0000000"
         id="path10"
         d="M 0.0000000,1640.0000 L 0.0000000,1290.0000 L 675.00000,1290.0000 C 1274.0000,1290.0000 1350.0000,1292.0000 1350.0000,1305.0000 C 1350.0000,1316.0000 1171.0000,1409.0000 807.00000,1589.0000 C 509.00000,1737.0000 205.00000,1887.0000 133.00000,1924.0000 L 0.0000000,1990.0000 L 0.0000000,1640.0000 z " />
      <path
         style="fill:#081873;fill-opacity:1.0000000"
         id="path12"
         d="M 3668.0000,1637.0000 C 3298.0000,1454.0000 3020.0000,1311.0000 3020.0000,1303.0000 C 3020.0000,1292.0000 3137.0000,1290.0000 3670.0000,1290.0000 L 4320.0000,1290.0000 L 4320.0000,1625.0000 C 4320.0000,1809.0000 4319.0000,1960.0000 4318.0000,1959.0000 C 4316.0000,1959.0000 4024.0000,1814.0000 3668.0000,1637.0000 z " />
      <path
         style="fill:#081873;fill-opacity:1.0000000"
         id="path14"
         d="M 0.0000000,505.00000 L 0.0000000,160.00000 L 683.00000,501.00000 C 1058.0000,689.00000 1367.0000,844.00000 1369.0000,846.00000 C 1371.0000,848.00000 1064.0000,850.00000 687.00000,850.00000 L 0.0000000,850.00000 L 0.0000000,505.00000 z " />
      <path
         style="fill:#081873;fill-opacity:1.0000000"
         id="path16"
         d="M 2991.0000,846.00000 C 2993.0000,844.00000 3293.0000,693.00000 3658.0000,511.00000 L 4320.0000,180.00000 L 4320.0000,515.00000 L 4320.0000,850.00000 L 3653.0000,850.00000 C 3287.0000,850.00000 2989.0000,848.00000 2991.0000,846.00000 z " />
      <path
         style="fill:#081873;fill-opacity:1.0000000"
         id="path18"
         d="M 885.00000,304.00000 L 285.00000,1.0000000 L 1113.0000,1.0000000 L 1940.0000,0.0000000 L 1940.0000,148.00000 L 1940.0000,296.00000 L 1861.0000,328.00000 C 1748.0000,375.00000 1667.0000,430.00000 1573.0000,526.00000 C 1528.0000,572.00000 1489.0000,609.00000 1488.0000,608.00000 C 1486.0000,608.00000 1215.0000,470.00000 885.00000,304.00000 z " />
      <path
         style="fill:#081873;fill-opacity:1.0000000"
         id="path20"
         d="M 2850.0000,591.00000 C 2850.0000,574.00000 2716.0000,449.00000 2651.0000,407.00000 C 2574.0000,357.00000 2517.0000,329.00000 2438.0000,304.00000 L 2380.0000,286.00000 L 2380.0000,143.00000 L 2380.0000,0.0000000 L 3228.0000,1.0000000 L 4075.0000,1.0000000 L 3477.0000,301.00000 C 3148.0000,465.00000 2873.0000,600.00000 2865.0000,600.00000 C 2857.0000,600.00000 2850.0000,596.00000 2850.0000,591.00000 z " />
    </g>
    <path
       transform="matrix(1.208109,0.000000,0.000000,1.208109,47.86566,77.62457)"
       d="M 211.95164 22.177534 A 70.873421 70.873421 0 1 1  70.204796,22.177534 A 70.873421 70.873421 0 1 1  211.95164 22.177534 z"
       sodipodi:ry="70.873421"
       sodipodi:rx="70.873421"
       sodipodi:cy="22.177534"
       sodipodi:cx="141.07822"
       id="path2109"
       style="opacity:1.0000000;fill:#ffff00;fill-opacity:1.0000000;stroke:#081873;stroke-width:1.7454212;stroke-linecap:butt;stroke-linejoin:miter;stroke-miterlimit:4.0000000;stroke-dasharray:none;stroke-opacity:1.0000000"
       sodipodi:type="arc" />
    <g
       style="fill:#081873;fill-opacity:1.0000000;stroke:none"
       transform="matrix(0.100000,0.000000,0.000000,-0.100000,0.192231,218.5910)"
       id="g2086">
      <path
         style="fill:#081873;fill-opacity:1.0000000"
         d="M 2043.0000,1858.0000 C 2025.0000,1852.0000 2010.0000,1843.0000 2010.0000,1838.0000 C 2010.0000,1833.0000 2019.0000,1834.0000 2030.0000,1840.0000 C 2052.0000,1852.0000 2095.0000,1836.0000 2085.0000,1819.0000 C 2081.0000,1814.0000 2086.0000,1810.0000 2095.0000,1810.0000 C 2107.0000,1810.0000 2109.0000,1804.0000 2104.0000,1783.0000 C 2099.0000,1760.0000 2100.0000,1757.0000 2111.0000,1768.0000 C 2132.0000,1788.0000 2141.0000,1782.0000 2135.0000,1753.0000 C 2130.0000,1729.0000 2131.0000,1728.0000 2140.0000,1743.0000 C 2158.0000,1772.0000 2170.0000,1752.0000 2155.0000,1717.0000 C 2144.0000,1690.0000 2144.0000,1683.0000 2156.0000,1668.0000 C 2188.0000,1633.0000 2151.0000,1644.0000 2081.0000,1690.0000 L 2008.0000,1739.0000 L 1967.0000,1723.0000 C 1911.0000,1702.0000 1896.0000,1687.0000 1864.0000,1626.0000 C 1841.0000,1582.0000 1840.0000,1578.0000 1858.0000,1593.0000 C 1873.0000,1607.0000 1879.0000,1608.0000 1883.0000,1598.0000 C 1886.0000,1590.0000 1892.0000,1596.0000 1899.0000,1613.0000 C 1905.0000,1628.0000 1917.0000,1640.0000 1925.0000,1640.0000 C 1935.0000,1640.0000 1938.0000,1635.0000 1934.0000,1628.0000 C 1930.0000,1621.0000 1931.0000,1620.0000 1938.0000,1624.0000 C 1945.0000,1628.0000 1950.0000,1640.0000 1950.0000,1651.0000 C 1950.0000,1661.0000 1955.0000,1670.0000 1961.0000,1670.0000 C 1967.0000,1670.0000 1970.0000,1661.0000 1967.0000,1650.0000 C 1964.0000,1639.0000 1966.0000,1630.0000 1970.0000,1630.0000 C 1975.0000,1630.0000 1982.0000,1639.0000 1985.0000,1650.0000 C 1996.0000,1683.0000 2012.0000,1673.0000 2005.0000,1638.0000 C 1999.0000,1607.0000 2000.0000,1606.0000 2015.0000,1624.0000 C 2023.0000,1635.0000 2030.0000,1647.0000 2030.0000,1652.0000 C 2030.0000,1656.0000 2035.0000,1660.0000 2040.0000,1660.0000 C 2046.0000,1660.0000 2050.0000,1649.0000 2050.0000,1635.0000 C 2050.0000,1612.0000 2054.0000,1610.0000 2096.0000,1610.0000 C 2134.0000,1610.0000 2141.0000,1607.0000 2138.0000,1593.0000 C 2135.0000,1579.0000 2126.0000,1576.0000 2096.0000,1578.0000 C 2061.0000,1581.0000 2052.0000,1576.0000 2008.0000,1533.0000 L 1960.0000,1486.0000 L 1960.0000,1414.0000 C 1960.0000,1339.0000 1966.0000,1310.0000 1981.0000,1310.0000 C 1986.0000,1310.0000 1985.0000,1322.0000 1980.0000,1336.0000 C 1974.0000,1350.0000 1970.0000,1368.0000 1970.0000,1376.0000 C 1970.0000,1398.0000 1990.0000,1393.0000 2000.0000,1368.0000 C 2007.0000,1349.0000 2009.0000,1352.0000 2009.0000,1388.0000 C 2010.0000,1443.0000 2027.0000,1442.0000 2042.0000,1385.0000 C 2049.0000,1360.0000 2058.0000,1340.0000 2062.0000,1340.0000 C 2072.0000,1340.0000 2072.0000,1355.0000 2059.0000,1409.0000 C 2051.0000,1445.0000 2052.0000,1456.0000 2064.0000,1469.0000 C 2078.0000,1482.0000 2080.0000,1481.0000 2090.0000,1459.0000 C 2099.0000,1439.0000 2100.0000,1442.0000 2095.0000,1478.0000 C 2089.0000,1524.0000 2100.0000,1533.0000 2118.0000,1498.0000 C 2129.0000,1477.0000 2130.0000,1478.0000 2124.0000,1507.0000 C 2118.0000,1542.0000 2135.0000,1562.0000 2143.0000,1529.0000 C 2148.0000,1512.0000 2152.0000,1510.0000 2170.0000,1520.0000 C 2188.0000,1530.0000 2195.0000,1527.0000 2220.0000,1500.0000 C 2236.0000,1483.0000 2252.0000,1460.0000 2255.0000,1449.0000 C 2260.0000,1435.0000 2267.0000,1431.0000 2281.0000,1435.0000 C 2301.0000,1442.0000 2308.0000,1426.0000 2290.0000,1415.0000 C 2274.0000,1405.0000 2278.0000,1360.0000 2295.0000,1360.0000 C 2303.0000,1360.0000 2310.0000,1358.0000 2310.0000,1355.0000 C 2310.0000,1352.0000 2303.0000,1333.0000 2295.0000,1313.0000 C 2276.0000,1268.0000 2276.0000,1254.0000 2295.0000,1270.0000 C 2323.0000,1293.0000 2323.0000,1272.0000 2295.0000,1225.0000 C 2280.0000,1199.0000 2271.0000,1176.0000 2275.0000,1172.0000 C 2278.0000,1168.0000 2285.0000,1172.0000 2290.0000,1180.0000 C 2295.0000,1188.0000 2302.0000,1191.0000 2306.0000,1188.0000 C 2310.0000,1184.0000 2305.0000,1169.0000 2296.0000,1156.0000 C 2288.0000,1142.0000 2284.0000,1129.0000 2289.0000,1126.0000 C 2300.0000,1119.0000 2398.0000,1235.0000 2406.0000,1264.0000 C 2408.0000,1275.0000 2407.0000,1321.0000 2403.0000,1365.0000 L 2395.0000,1445.0000 L 2340.0000,1473.0000 C 2270.0000,1508.0000 2266.0000,1513.0000 2282.0000,1539.0000 C 2299.0000,1567.0000 2320.0000,1566.0000 2320.0000,1538.0000 C 2321.0000,1517.0000 2322.0000,1516.0000 2334.0000,1533.0000 C 2351.0000,1555.0000 2360.0000,1555.0000 2360.0000,1530.0000 C 2360.0000,1519.0000 2365.0000,1510.0000 2370.0000,1510.0000 C 2376.0000,1510.0000 2380.0000,1519.0000 2380.0000,1530.0000 C 2380.0000,1541.0000 2385.0000,1550.0000 2390.0000,1550.0000 C 2396.0000,1550.0000 2400.0000,1533.0000 2400.0000,1513.0000 C 2401.0000,1481.0000 2402.0000,1478.0000 2411.0000,1493.0000 C 2417.0000,1503.0000 2420.0000,1520.0000 2417.0000,1531.0000 C 2414.0000,1541.0000 2416.0000,1550.0000 2421.0000,1550.0000 C 2426.0000,1550.0000 2432.0000,1540.0000 2434.0000,1528.0000 C 2437.0000,1515.0000 2441.0000,1496.0000 2443.0000,1485.0000 C 2446.0000,1474.0000 2448.0000,1482.0000 2449.0000,1504.0000 C 2450.0000,1537.0000 2452.0000,1541.0000 2465.0000,1530.0000 C 2473.0000,1523.0000 2481.0000,1506.0000 2481.0000,1491.0000 C 2483.0000,1467.0000 2483.0000,1467.0000 2487.0000,1488.0000 C 2495.0000,1528.0000 2515.0000,1506.0000 2512.0000,1462.0000 C 2509.0000,1435.0000 2512.0000,1420.0000 2520.0000,1420.0000 C 2527.0000,1420.0000 2529.0000,1428.0000 2525.0000,1441.0000 C 2520.0000,1456.0000 2522.0000,1461.0000 2531.0000,1458.0000 C 2539.0000,1455.0000 2548.0000,1440.0000 2551.0000,1424.0000 C 2555.0000,1408.0000 2559.0000,1400.0000 2560.0000,1405.0000 C 2561.0000,1411.0000 2566.0000,1402.0000 2571.0000,1385.0000 C 2576.0000,1364.0000 2578.0000,1377.0000 2577.0000,1432.0000 L 2575.0000,1510.0000 L 2521.0000,1564.0000 C 2492.0000,1594.0000 2456.0000,1620.0000 2442.0000,1623.0000 C 2427.0000,1626.0000 2389.0000,1620.0000 2358.0000,1610.0000 C 2301.0000,1592.0000 2299.0000,1592.0000 2289.0000,1611.0000 C 2281.0000,1627.0000 2283.0000,1632.0000 2302.0000,1640.0000 C 2315.0000,1645.0000 2319.0000,1649.0000 2313.0000,1649.0000 C 2306.0000,1650.0000 2300.0000,1655.0000 2300.0000,1661.0000 C 2300.0000,1668.0000 2310.0000,1670.0000 2325.0000,1666.0000 C 2350.0000,1660.0000 2360.0000,1673.0000 2340.0000,1685.0000 C 2334.0000,1689.0000 2332.0000,1696.0000 2336.0000,1701.0000 C 2340.0000,1707.0000 2347.0000,1707.0000 2356.0000,1699.0000 C 2378.0000,1681.0000 2385.0000,1697.0000 2365.0000,1720.0000 C 2347.0000,1739.0000 2348.0000,1740.0000 2368.0000,1740.0000 C 2379.0000,1740.0000 2396.0000,1730.0000 2404.0000,1718.0000 C 2417.0000,1700.0000 2420.0000,1699.0000 2420.0000,1712.0000 C 2420.0000,1721.0000 2411.0000,1735.0000 2399.0000,1743.0000 C 2385.0000,1753.0000 2382.0000,1760.0000 2390.0000,1765.0000 C 2397.0000,1769.0000 2416.0000,1758.0000 2436.0000,1739.0000 C 2454.0000,1721.0000 2472.0000,1709.0000 2475.0000,1712.0000 C 2478.0000,1715.0000 2462.0000,1734.0000 2440.0000,1754.0000 C 2407.0000,1784.0000 2392.0000,1790.0000 2357.0000,1790.0000 C 2306.0000,1790.0000 2295.0000,1780.0000 2256.0000,1702.0000 C 2241.0000,1673.0000 2225.0000,1652.0000 2219.0000,1655.0000 C 2214.0000,1659.0000 2210.0000,1688.0000 2211.0000,1720.0000 C 2213.0000,1778.0000 2193.0000,1823.0000 2152.0000,1858.0000 C 2133.0000,1872.0000 2088.0000,1872.0000 2043.0000,1858.0000 z "
         id="path2088" />
      <path
         style="fill:#081873;fill-opacity:1.0000000"
         d="M 2182.0000,1503.0000 C 2166.0000,1497.0000 2110.0000,1415.0000 2110.0000,1398.0000 C 2110.0000,1391.0000 2119.0000,1396.0000 2129.0000,1409.0000 C 2139.0000,1423.0000 2150.0000,1428.0000 2153.0000,1423.0000 C 2157.0000,1417.0000 2150.0000,1400.0000 2139.0000,1386.0000 C 2127.0000,1371.0000 2121.0000,1356.0000 2124.0000,1353.0000 C 2127.0000,1349.0000 2137.0000,1355.0000 2145.0000,1366.0000 C 2171.0000,1401.0000 2162.0000,1358.0000 2135.0000,1317.0000 C 2110.0000,1282.0000 2112.0000,1266.0000 2138.0000,1292.0000 C 2147.0000,1301.0000 2150.0000,1299.0000 2150.0000,1283.0000 C 2150.0000,1272.0000 2143.0000,1257.0000 2135.0000,1250.0000 C 2117.0000,1235.0000 2115.0000,1219.0000 2133.0000,1226.0000 C 2146.0000,1231.0000 2148.0000,1201.0000 2137.0000,1170.0000 C 2134.0000,1162.0000 2129.0000,1137.0000 2126.0000,1115.0000 C 2118.0000,1059.0000 2075.0000,927.00000 2039.0000,852.00000 C 2023.0000,817.00000 2010.0000,784.00000 2010.0000,777.00000 C 2010.0000,755.00000 1943.0000,665.00000 1917.0000,651.00000 C 1893.0000,638.00000 1887.0000,639.00000 1849.0000,665.00000 C 1827.0000,681.00000 1782.0000,722.00000 1750.0000,757.00000 L 1693.0000,820.00000 L 1616.0000,820.00000 C 1569.0000,820.00000 1540.0000,816.00000 1540.0000,809.00000 C 1540.0000,786.00000 1621.0000,681.00000 1688.0000,618.00000 C 1806.0000,507.00000 1983.0000,433.00000 2145.0000,427.00000 L 2205.0000,425.00000 L 2203.0000,473.00000 C 2201.0000,508.00000 2204.0000,522.00000 2215.0000,526.00000 C 2223.0000,530.00000 2230.0000,538.00000 2230.0000,545.00000 C 2230.0000,553.00000 2203.0000,559.00000 2147.0000,564.00000 C 2102.0000,568.00000 2045.0000,577.00000 2020.0000,584.00000 C 1978.0000,597.00000 1975.0000,600.00000 1977.0000,630.00000 C 1978.0000,648.00000 1982.0000,665.00000 1987.0000,669.00000 C 1995.0000,674.00000 2007.0000,695.00000 2015.0000,720.00000 C 2024.0000,746.00000 2036.0000,768.00000 2048.0000,783.00000 C 2056.0000,792.00000 2060.0000,800.00000 2055.0000,800.00000 C 2051.0000,800.00000 2053.0000,807.00000 2060.0000,815.00000 C 2067.0000,823.00000 2070.0000,836.00000 2067.0000,844.00000 C 2064.0000,852.00000 2068.0000,864.00000 2076.0000,870.00000 C 2084.0000,877.00000 2090.0000,893.00000 2090.0000,906.00000 C 2090.0000,918.00000 2095.0000,932.00000 2100.0000,935.00000 C 2106.0000,938.00000 2110.0000,952.00000 2110.0000,965.00000 C 2110.0000,978.00000 2114.0000,991.00000 2119.0000,994.00000 C 2124.0000,997.00000 2131.0000,1020.0000 2135.0000,1046.0000 C 2150.0000,1151.0000 2155.0000,1163.0000 2191.0000,1203.0000 C 2267.0000,1286.0000 2281.0000,1384.0000 2229.0000,1463.0000 C 2212.0000,1489.0000 2197.0000,1510.0000 2197.0000,1509.0000 C 2196.0000,1509.0000 2189.0000,1506.0000 2182.0000,1503.0000 z M 2171.0000,1227.0000 C 2161.0000,1218.0000 2160.0000,1219.0000 2166.0000,1233.0000 C 2169.0000,1243.0000 2175.0000,1248.0000 2178.0000,1245.0000 C 2181.0000,1242.0000 2178.0000,1234.0000 2171.0000,1227.0000 z "
         id="path2090" />
      <path
         style="fill:#081873;fill-opacity:1.0000000"
         d="M 1902.0000,1210.0000 C 1868.0000,1194.0000 1809.0000,1161.0000 1770.0000,1136.0000 C 1732.0000,1111.0000 1688.0000,1084.0000 1672.0000,1076.0000 C 1645.0000,1062.0000 1549.0000,1035.0000 1499.0000,1027.0000 C 1479.0000,1023.0000 1475.0000,1017.0000 1477.0000,990.00000 C 1477.0000,972.00000 1486.0000,938.00000 1495.0000,914.00000 L 1512.0000,870.00000 L 1766.0000,870.00000 L 2021.0000,870.00000 L 2044.0000,923.00000 C 2057.0000,951.00000 2075.0000,1009.0000 2085.0000,1051.0000 L 2103.0000,1127.0000 L 2061.0000,1183.0000 C 2012.0000,1251.0000 1996.0000,1253.0000 1902.0000,1210.0000 z "
         id="path2092" />
      <path
         style="fill:#081873;fill-opacity:1.0000000"
         d="M 2540.0000,1128.0000 C 2521.0000,1123.0000 2480.0000,1099.0000 2449.0000,1075.0000 C 2358.0000,1006.0000 2306.0000,984.00000 2265.0000,1000.0000 C 2236.0000,1011.0000 2229.0000,1003.0000 2241.0000,973.00000 C 2248.0000,954.00000 2257.0000,950.00000 2293.0000,950.00000 C 2340.0000,950.00000 2400.0000,933.00000 2400.0000,920.00000 C 2400.0000,915.00000 2403.0000,905.00000 2406.0000,896.00000 C 2410.0000,885.00000 2406.0000,880.00000 2392.0000,880.00000 C 2380.0000,880.00000 2369.0000,884.00000 2365.0000,889.00000 C 2362.0000,894.00000 2334.0000,902.00000 2302.0000,905.00000 C 2218.0000,915.00000 2200.0000,930.00000 2200.0000,989.00000 C 2200.0000,1020.0000 2195.0000,1042.0000 2185.0000,1050.0000 C 2176.0000,1057.0000 2168.0000,1061.0000 2166.0000,1059.0000 C 2163.0000,1056.0000 2130.0000,937.00000 2119.0000,890.00000 C 2115.0000,877.00000 2161.0000,875.00000 2484.0000,875.00000 L 2853.0000,875.00000 L 2866.0000,913.00000 L 2879.0000,951.00000 L 2824.0000,986.00000 C 2793.0000,1006.0000 2751.0000,1037.0000 2731.0000,1055.0000 C 2675.0000,1105.0000 2619.0000,1140.0000 2596.0000,1139.0000 C 2584.0000,1139.0000 2559.0000,1134.0000 2540.0000,1128.0000 z "
         id="path2094" />
      <path
         style="fill:#081873;fill-opacity:1.0000000"
         d="M 2287.0000,804.00000 C 2268.0000,793.00000 2261.0000,783.00000 2265.0000,771.00000 C 2268.0000,760.00000 2261.0000,745.00000 2245.0000,730.00000 C 2231.0000,717.00000 2220.0000,699.00000 2220.0000,689.00000 C 2220.0000,670.00000 2258.0000,635.00000 2309.0000,608.00000 C 2343.0000,589.00000 2347.0000,569.00000 2325.0000,530.00000 C 2317.0000,516.00000 2311.0000,490.00000 2310.0000,473.00000 C 2310.0000,435.00000 2320.0000,433.00000 2390.0000,454.00000 C 2506.0000,489.00000 2620.0000,561.00000 2707.0000,653.00000 C 2756.0000,705.00000 2820.0000,795.00000 2820.0000,812.00000 C 2820.0000,816.00000 2706.0000,820.00000 2568.0000,820.00000 C 2361.0000,819.00000 2310.0000,816.00000 2287.0000,804.00000 z M 2374.0000,782.00000 C 2346.0000,760.00000 2336.0000,706.00000 2356.0000,689.00000 C 2364.0000,682.00000 2376.0000,668.00000 2381.0000,658.00000 C 2396.0000,630.00000 2368.0000,635.00000 2335.0000,666.00000 C 2311.0000,688.00000 2308.0000,696.00000 2314.0000,733.00000 C 2321.0000,778.00000 2341.0000,800.00000 2374.0000,800.00000 C 2395.0000,800.00000 2395.0000,800.00000 2374.0000,782.00000 z M 2472.0000,740.00000 C 2448.0000,708.00000 2445.0000,689.00000 2461.0000,673.00000 C 2468.0000,666.00000 2468.0000,660.00000 2462.0000,656.00000 C 2446.0000,646.00000 2427.0000,678.00000 2434.0000,703.00000 C 2441.0000,731.00000 2480.0000,783.00000 2488.0000,775.00000 C 2491.0000,772.00000 2484.0000,756.00000 2472.0000,740.00000 z "
         id="path2096" />
    </g>
  </g>
</svg>
