<?xml version="1.0" encoding="UTF-8" standalone="no"?>
<svg
   xmlns:dc="http://purl.org/dc/elements/1.1/"
   xmlns:cc="http://web.resource.org/cc/"
   xmlns:rdf="http://www.w3.org/1999/02/22-rdf-syntax-ns#"
   xmlns:svg="http://www.w3.org/2000/svg"
   xmlns="http://www.w3.org/2000/svg"
   xmlns:sodipodi="http://inkscape.sourceforge.net/DTD/sodipodi-0.dtd"
   xmlns:inkscape="http://www.inkscape.org/namespaces/inkscape"
   width="848pt"
   height="486pt"
   id="svg2"
   sodipodi:version="0.32"
   inkscape:version="0.43"
   sodipodi:docname="bosnia_livno.svg"
   sodipodi:docbase="/home/demailly/eps"
   version="1.0">
  <metadata
     id="metadata119">
    <rdf:RDF>
      <cc:Work
         rdf:about="">
        <dc:format>image/svg+xml</dc:format>
        <dc:type
           rdf:resource="http://purl.org/dc/dcmitype/StillImage" />
      </cc:Work>
    </rdf:RDF>
  </metadata>
  <sodipodi:namedview
     inkscape:cy="248.0782"
     inkscape:cx="683.75421"
     inkscape:zoom="0.86831672"
     inkscape:window-height="1085"
     inkscape:window-width="1762"
     inkscape:pageshadow="2"
     inkscape:pageopacity="0.0"
     borderopacity="1.0"
     bordercolor="#666666"
     pagecolor="#ffffff"
     id="base"
     inkscape:window-x="540"
     inkscape:window-y="45"
     inkscape:current-layer="svg2" />
  <defs
     id="defs4">
    <marker
       id="ArrowEnd"
       viewBox="0 0 10 10"
       refX="0"
       refY="5"
       markerUnits="strokeWidth"
       markerWidth="4"
       markerHeight="3"
       orient="auto">
      <path
         d="M 0,0 L 10,5 L 0,10 L 0,0 z "
         id="path7" />
    </marker>
    <marker
       id="ArrowStart"
       viewBox="0 0 10 10"
       refX="10"
       refY="5"
       markerUnits="strokeWidth"
       markerWidth="4"
       markerHeight="3"
       orient="auto">
      <path
         d="M 10,0 L 0,5 L 10,10 L 10,0 z "
         id="path10" />
    </marker>
  </defs>
  <g
     id="g2358"
     transform="matrix(6,0,0,6,-51.27031,-277.3628)">
    <rect
       y="46.376022"
       x="8.6523838"
       height="99.960487"
       width="175.49071"
       id="rect1471"
       style="opacity:1;fill:#ffffff;fill-opacity:1;stroke:#000000;stroke-width:0.2;stroke-linecap:butt;stroke-linejoin:bevel;stroke-miterlimit:4;stroke-dasharray:none;stroke-opacity:1" />
    <path
       style="fill:#ff0000;stroke:none"
       d="M 111.035,81.031 L 184.004,81.031 L 184.004,46.418 L 111.035,46.418 L 111.035,81.031 z "
       id="path22" />
    <path
       style="fill:#ff0000;stroke:none"
       d="M 8.75,81.031 L 81.7188,81.031 L 81.7188,46.418 L 8.75,46.418 L 8.75,81.031 z "
       id="path24" />
    <path
       style="fill:#007e00;stroke:none"
       d="M 71.5312,64.016 L 120.375,64.016 L 120.375,110.703 C 109.105,133.707 82.1758,133.098 71.5312,110.789 L 71.5312,64.012"
       id="path26" />
    <path
       style="fill:#99ffff;stroke:none"
       d="M 65.5117,115.102 C 65.0469,114.867 64.4844,114.684 63.875,114.559 C 63.2109,114.422 62.4844,114.352 61.7539,114.352 C 60.9648,114.352 60.2188,114.43 59.5508,114.574 C 58.8711,114.719 58.2812,114.934 57.8242,115.191 L 57.6289,115.301 L 57.4219,115.227 C 57.418,115.227 57.3672,115.207 57.3086,115.184 L 57.3086,115.184 C 57.2031,115.148 57.375,115.207 57.2539,115.164 L 56.2578,114.801 L 57.1836,114.281 C 57.7422,113.969 58.4531,113.707 59.2617,113.531 C 60.0234,113.367 60.875,113.273 61.7656,113.273 C 62.6211,113.273 63.4844,113.359 64.2773,113.531 C 65.0508,113.699 65.7656,113.949 66.3477,114.277 L 66.3828,114.297 C 66.8359,114.523 67.3945,114.711 68.0234,114.84 C 68.6641,114.969 69.3789,115.043 70.1406,115.043 C 70.8711,115.043 71.5938,114.977 72.2617,114.836 C 72.8594,114.715 73.4141,114.535 73.8789,114.305 L 73.9297,114.277 C 73.9727,114.254 74.0156,114.231 74.0625,114.207 C 74.0508,114.207 74.0508,114.207 74.0625,114.207 C 74.5977,113.926 75.2617,113.695 76.0039,113.531 C 76.7656,113.367 77.6172,113.273 78.5117,113.273 C 79.3672,113.273 80.2305,113.359 81.0234,113.531 C 81.7969,113.699 82.5117,113.949 83.0938,114.277 L 83.1289,114.297 C 83.582,114.523 84.1406,114.711 84.7695,114.84 C 85.4102,114.969 86.125,115.043 86.8867,115.043 C 87.6172,115.043 88.3398,114.977 89.0078,114.836 C 89.5977,114.715 90.1445,114.539 90.6055,114.313 L 90.6719,114.273 C 91.2305,113.961 91.9414,113.699 92.75,113.523 C 93.5117,113.359 94.3633,113.266 95.2578,113.266 C 96.1133,113.266 96.9766,113.352 97.7695,113.523 C 98.543,113.691 99.2578,113.941 99.8398,114.27 L 99.8789,114.289 C 100.328,114.516 100.891,114.699 101.516,114.832 C 102.156,114.961 102.871,115.035 103.633,115.035 C 104.363,115.035 105.086,114.969 105.75,114.828 C 106.348,114.707 106.902,114.527 107.363,114.297 L 107.418,114.27 C 107.977,113.957 108.688,113.695 109.496,113.52 C 110.258,113.356 111.109,113.262 112.004,113.262 C 112.859,113.262 113.723,113.348 114.516,113.52 C 115.289,113.688 116.004,113.938 116.586,114.266 L 116.621,114.285 C 117.074,114.512 117.633,114.699 118.266,114.828 C 118.906,114.957 119.621,115.031 120.383,115.031 C 121.141,115.031 121.898,114.957 122.594,114.805 C 123.246,114.664 123.84,114.457 124.316,114.191 L 124.512,114.082 L 124.688,114.145 C 124.688,114.145 124.688,114.145 124.691,114.145 L 124.695,114.145 C 124.695,114.145 124.699,114.145 124.703,114.145 L 124.711,114.148 C 124.711,114.148 124.715,114.148 124.715,114.148 L 124.711,114.148 C 124.707,114.148 124.707,114.148 124.703,114.145 L 124.695,114.145 C 124.695,114.145 124.691,114.145 124.691,114.145 L 124.688,114.145 L 65.4609,115.086 L 65.5117,115.102 z M 124.645,115.168 C 124.645,115.168 124.645,115.168 124.645,115.168 C 124.77,115.211 124.859,115.246 124.645,115.168 z M 124.777,114.172 L 124.777,114.172 C 124.789,114.176 124.812,114.184 124.84,114.191 C 124.832,114.188 124.82,114.184 124.809,114.18 C 124.801,114.18 124.789,114.176 124.781,114.172 L 124.777,114.172 z M 124.777,114.168 C 124.777,114.168 124.781,114.168 124.781,114.168 C 124.781,114.168 124.777,114.168 124.777,114.168 z M 124.785,114.172 C 124.785,114.172 124.785,114.172 124.785,114.172 C 124.785,114.172 124.789,114.172 124.789,114.172 C 124.789,114.172 124.793,114.172 124.793,114.172 C 124.793,114.172 124.793,114.172 124.797,114.172 C 124.797,114.172 124.797,114.172 124.797,114.172 C 124.828,114.184 124.875,114.199 124.941,114.223 L 125.934,114.59 L 125.012,115.109 C 124.43,115.438 123.719,115.688 122.941,115.856 C 122.148,116.027 121.289,116.113 120.43,116.113 C 119.539,116.113 118.688,116.02 117.922,115.856 C 117.117,115.684 116.406,115.422 115.844,115.106 L 115.809,115.086 C 115.344,114.852 114.781,114.668 114.172,114.543 C 113.508,114.406 112.781,114.34 112.051,114.34 C 111.293,114.34 110.578,114.41 109.938,114.543 C 109.312,114.672 108.758,114.856 108.305,115.082 L 108.262,115.106 C 107.68,115.434 106.969,115.684 106.191,115.852 C 105.398,116.023 104.539,116.109 103.68,116.109 C 102.789,116.109 101.938,116.016 101.172,115.852 C 100.367,115.68 99.6562,115.418 99.0938,115.102 L 99.0625,115.082 C 98.5938,114.848 98.0352,114.664 97.4258,114.539 C 96.7617,114.402 96.0352,114.332 95.3047,114.332 C 94.5469,114.332 93.832,114.402 93.1914,114.535 C 92.5781,114.66 92.0312,114.84 91.5859,115.063 L 91.5195,115.098 C 90.9375,115.426 90.2227,115.676 89.4492,115.844 C 88.6562,116.016 87.7969,116.102 86.9375,116.102 C 86.0469,116.102 85.1953,116.008 84.4297,115.844 C 83.625,115.672 82.9141,115.41 82.3516,115.094 L 82.3164,115.074 C 81.8516,114.84 81.2891,114.656 80.6836,114.531 C 80.0195,114.395 79.293,114.324 78.5625,114.324 C 77.8047,114.324 77.0859,114.395 76.4492,114.527 C 75.8281,114.656 75.2695,114.84 74.8203,115.066 L 74.7734,115.09 C 74.1914,115.418 73.4766,115.668 72.7031,115.836 C 71.9102,116.008 71.0508,116.094 70.1914,116.094 C 69.3008,116.094 68.4492,116 67.6836,115.836 C 66.8789,115.664 66.168,115.402 65.6055,115.086 L 65.5703,115.066 L 124.84,114.141 L 124.785,114.172 z M 124.785,114.172 C 124.785,114.172 124.789,114.172 124.789,114.172 C 124.789,114.172 124.793,114.172 124.793,114.172 C 124.793,114.172 124.793,114.172 124.797,114.172 C 124.797,114.172 124.797,114.172 124.797,114.172 L 124.781,114.168 L 124.785,114.172 z M 124.777,114.172 C 124.746,114.16 124.711,114.148 124.777,114.172 L 124.777,114.172 M 124.84,114.195 C 124.844,114.195 124.852,114.199 124.859,114.203 C 124.855,114.203 124.848,114.199 124.84,114.195 z M 124.906,114.219 L 124.906,114.219 C 124.918,114.223 124.934,114.227 124.945,114.231 C 125.223,114.332 125.059,114.27 124.906,114.215 L 124.906,114.219 z M 82.5547,114.688 L 82.5547,114.688 L 82.5547,114.688"
       id="path28" />
    <path
       style="fill:#99ffff;stroke:none"
       d="M 65.5117,119.086 C 65.0469,118.852 64.4844,118.668 63.875,118.543 C 63.2109,118.406 62.4844,118.336 61.7539,118.336 C 60.9648,118.336 60.2188,118.414 59.5508,118.563 C 58.8711,118.707 58.2812,118.922 57.8242,119.18 L 57.6289,119.289 L 57.4219,119.215 C 57.418,119.215 57.3672,119.195 57.3086,119.172 L 57.3086,119.172 C 57.2031,119.133 57.375,119.195 57.2539,119.152 L 56.2578,118.789 L 57.1836,118.27 C 57.7422,117.957 58.4531,117.699 59.2617,117.52 C 60.0234,117.356 60.875,117.262 61.7656,117.262 C 62.6211,117.262 63.4844,117.348 64.2773,117.52 C 65.0508,117.688 65.7656,117.938 66.3477,118.266 L 66.3828,118.285 C 66.8359,118.512 67.3945,118.699 68.0234,118.828 C 68.6641,118.957 69.3789,119.031 70.1406,119.031 C 70.8711,119.031 71.5938,118.965 72.2617,118.824 C 72.8594,118.703 73.4141,118.523 73.8789,118.293 L 73.9297,118.266 C 73.9727,118.242 74.0156,118.219 74.0625,118.195 C 74.0508,118.195 74.0508,118.195 74.0625,118.195 C 74.5977,117.914 75.2617,117.684 76.0039,117.52 C 76.7656,117.356 77.6172,117.262 78.5117,117.262 C 79.3672,117.262 80.2305,117.348 81.0234,117.52 C 81.7969,117.688 82.5117,117.938 83.0938,118.266 L 83.1289,118.285 C 83.582,118.512 84.1406,118.699 84.7695,118.828 C 85.4102,118.957 86.125,119.031 86.8867,119.031 C 87.6172,119.031 88.3398,118.965 89.0078,118.824 C 89.5977,118.703 90.1445,118.527 90.6055,118.301 L 90.6719,118.262 C 91.2305,117.949 91.9414,117.688 92.75,117.512 C 93.5117,117.348 94.3633,117.254 95.2578,117.254 C 96.1133,117.254 96.9766,117.34 97.7695,117.512 C 98.543,117.68 99.2578,117.93 99.8398,118.258 L 99.8789,118.277 C 100.328,118.504 100.891,118.688 101.516,118.82 C 102.156,118.949 102.871,119.023 103.633,119.023 C 104.363,119.023 105.086,118.957 105.75,118.816 C 106.348,118.695 106.902,118.516 107.363,118.285 L 107.418,118.258 C 107.977,117.945 108.688,117.684 109.496,117.508 C 110.258,117.344 111.109,117.25 112.004,117.25 C 112.859,117.25 113.723,117.336 114.516,117.508 C 115.289,117.676 116.004,117.926 116.586,118.254 L 116.621,118.273 C 117.074,118.5 117.633,118.688 118.266,118.816 C 118.906,118.945 119.621,119.02 120.383,119.02 C 121.141,119.02 121.898,118.945 122.594,118.793 C 123.246,118.652 123.84,118.445 124.316,118.18 L 124.512,118.07 L 124.688,118.133 C 124.688,118.133 124.688,118.133 124.691,118.133 L 124.695,118.133 C 124.695,118.133 124.699,118.133 124.703,118.133 L 124.711,118.137 C 124.711,118.137 124.715,118.137 124.715,118.137 L 124.711,118.137 C 124.707,118.137 124.707,118.137 124.703,118.133 L 124.695,118.133 C 124.695,118.133 124.691,118.133 124.691,118.133 L 124.688,118.133 L 65.4609,119.074 L 65.5117,119.086 z M 124.645,119.152 C 124.645,119.152 124.645,119.152 124.645,119.152 C 124.77,119.195 124.859,119.231 124.645,119.152 z M 124.777,118.156 L 124.777,118.156 C 124.789,118.16 124.812,118.168 124.84,118.176 C 124.832,118.172 124.82,118.168 124.809,118.164 C 124.801,118.164 124.789,118.16 124.781,118.156 L 124.777,118.156 z M 124.777,118.156 C 124.777,118.156 124.781,118.156 124.781,118.156 C 124.781,118.156 124.777,118.156 124.777,118.156 z M 124.785,118.16 C 124.785,118.16 124.785,118.16 124.785,118.16 C 124.785,118.16 124.789,118.16 124.789,118.16 C 124.789,118.16 124.793,118.16 124.793,118.16 C 124.793,118.16 124.793,118.16 124.797,118.16 C 124.797,118.16 124.797,118.16 124.797,118.16 C 124.828,118.172 124.875,118.188 124.941,118.211 L 125.934,118.578 L 125.012,119.098 C 124.43,119.426 123.719,119.676 122.941,119.844 C 122.148,120.016 121.289,120.102 120.43,120.102 C 119.539,120.102 118.688,120.008 117.922,119.844 C 117.117,119.672 116.406,119.414 115.844,119.098 L 115.809,119.078 C 115.344,118.844 114.781,118.66 114.172,118.535 C 113.508,118.398 112.781,118.328 112.051,118.328 C 111.293,118.328 110.578,118.398 109.938,118.531 C 109.312,118.66 108.758,118.844 108.305,119.07 L 108.262,119.094 C 107.68,119.422 106.969,119.672 106.191,119.84 C 105.398,120.012 104.539,120.098 103.68,120.098 C 102.789,120.098 101.938,120.004 101.172,119.84 C 100.367,119.668 99.6562,119.41 99.0938,119.094 L 99.0625,119.074 C 98.5938,118.84 98.0352,118.656 97.4258,118.531 C 96.7617,118.395 96.0352,118.324 95.3047,118.324 C 94.5469,118.324 93.832,118.395 93.1914,118.527 C 92.5781,118.652 92.0312,118.832 91.5859,119.055 L 91.5195,119.09 C 90.9375,119.418 90.2227,119.668 89.4492,119.836 C 88.6562,120.008 87.7969,120.094 86.9375,120.094 C 86.0469,120.094 85.1953,120 84.4297,119.836 C 83.625,119.664 82.9141,119.406 82.3516,119.09 L 82.3164,119.07 C 81.8516,118.836 81.2891,118.652 80.6836,118.527 C 80.0195,118.391 79.293,118.32 78.5625,118.32 C 77.8047,118.32 77.0859,118.391 76.4492,118.523 C 75.8281,118.652 75.2695,118.836 74.8203,119.063 L 74.7734,119.086 C 74.1914,119.414 73.4766,119.664 72.7031,119.832 C 71.9102,120.004 71.0508,120.09 70.1914,120.09 C 69.3008,120.09 68.4492,119.996 67.6836,119.832 C 66.8789,119.66 66.168,119.402 65.6055,119.086 L 65.5703,119.066 L 124.84,118.141 L 124.785,118.16 z M 124.785,118.16 C 124.785,118.16 124.789,118.16 124.789,118.16 C 124.789,118.16 124.793,118.16 124.793,118.16 C 124.793,118.16 124.793,118.16 124.797,118.16 C 124.797,118.16 124.797,118.16 124.797,118.16 L 124.781,118.156 L 124.785,118.16 z M 124.777,118.156 C 124.746,118.145 124.711,118.133 124.777,118.156 L 124.777,118.156 M 124.84,118.18 C 124.844,118.18 124.852,118.184 124.859,118.188 C 124.855,118.188 124.848,118.184 124.84,118.18 z M 124.906,118.203 L 124.906,118.203 C 124.918,118.207 124.934,118.211 124.945,118.215 C 125.223,118.316 125.059,118.254 124.906,118.199 L 124.906,118.203 z M 82.5547,118.676 L 82.5547,118.676 L 82.5547,118.676"
       id="path30" />
    <path
       style="fill:#99ffff;stroke:none"
       d="M 65.5117,123.074 C 65.0469,122.84 64.4844,122.656 63.875,122.531 C 63.2109,122.395 62.4844,122.324 61.7539,122.324 C 60.9648,122.324 60.2188,122.402 59.5508,122.551 C 58.8711,122.695 58.2812,122.91 57.8242,123.168 L 57.6289,123.277 L 57.4219,123.203 C 57.418,123.203 57.3672,123.184 57.3086,123.16 L 57.3086,123.16 C 57.2031,123.121 57.375,123.184 57.2539,123.141 L 56.2578,122.777 L 57.1836,122.258 C 57.7422,121.945 58.4531,121.684 59.2617,121.508 C 60.0234,121.344 60.875,121.25 61.7656,121.25 C 62.6211,121.25 63.4844,121.336 64.2773,121.508 C 65.0508,121.676 65.7656,121.926 66.3477,122.254 L 66.3828,122.273 C 66.8359,122.5 67.3945,122.688 68.0234,122.816 C 68.6641,122.945 69.3789,123.02 70.1406,123.02 C 70.8711,123.02 71.5938,122.953 72.2617,122.816 C 72.8594,122.695 73.4141,122.516 73.8789,122.281 L 73.9297,122.254 C 73.9727,122.231 74.0156,122.207 74.0625,122.184 C 74.0508,122.184 74.0508,122.184 74.0625,122.184 C 74.5977,121.902 75.2617,121.672 76.0039,121.508 C 76.7656,121.344 77.6172,121.25 78.5117,121.25 C 79.3672,121.25 80.2305,121.336 81.0234,121.508 C 81.7969,121.676 82.5117,121.926 83.0938,122.254 L 83.1289,122.273 C 83.582,122.5 84.1406,122.688 84.7695,122.816 C 85.4102,122.945 86.125,123.02 86.8867,123.02 C 87.6172,123.02 88.3398,122.953 89.0078,122.816 C 89.5977,122.695 90.1445,122.52 90.6055,122.293 L 90.6719,122.258 C 91.2305,121.945 91.9414,121.684 92.75,121.508 C 93.5117,121.344 94.3633,121.25 95.2578,121.25 C 96.1133,121.25 96.9766,121.336 97.7695,121.508 C 98.543,121.676 99.2578,121.926 99.8398,122.254 L 99.8789,122.273 C 100.328,122.5 100.891,122.684 101.516,122.816 C 102.156,122.945 102.871,123.02 103.633,123.02 C 104.363,123.02 105.086,122.953 105.75,122.816 C 106.348,122.695 106.902,122.516 107.363,122.285 L 107.418,122.258 C 107.977,121.945 108.688,121.684 109.496,121.508 C 110.258,121.344 111.109,121.25 112.004,121.25 C 112.859,121.25 113.723,121.336 114.516,121.508 C 115.289,121.676 116.004,121.926 116.586,122.254 L 116.621,122.273 C 117.074,122.5 117.633,122.688 118.266,122.816 C 118.906,122.945 119.621,123.02 120.383,123.02 C 121.141,123.02 121.898,122.945 122.594,122.793 C 123.246,122.652 123.84,122.445 124.316,122.18 L 124.512,122.07 L 124.688,122.133 C 124.688,122.133 124.688,122.133 124.691,122.133 L 124.695,122.133 C 124.695,122.133 124.699,122.133 124.703,122.137 L 124.711,122.141 C 124.711,122.141 124.715,122.141 124.715,122.141 L 124.711,122.141 C 124.707,122.141 124.707,122.141 124.703,122.137 L 124.695,122.133 C 124.695,122.133 124.691,122.133 124.691,122.133 L 124.688,122.133 L 65.4609,123.074 L 65.5117,123.074 z M 124.645,123.141 C 124.645,123.141 124.645,123.141 124.645,123.141 C 124.77,123.184 124.859,123.219 124.645,123.141 z M 124.777,122.145 L 124.777,122.145 C 124.789,122.148 124.812,122.156 124.84,122.164 C 124.832,122.16 124.82,122.156 124.809,122.152 C 124.801,122.152 124.789,122.148 124.781,122.145 L 124.777,122.145 z M 124.777,122.141 C 124.777,122.141 124.781,122.141 124.781,122.141 C 124.781,122.141 124.777,122.141 124.777,122.141 z M 124.785,122.145 C 124.785,122.145 124.785,122.145 124.785,122.145 C 124.785,122.145 124.789,122.145 124.789,122.145 C 124.789,122.145 124.793,122.145 124.793,122.145 C 124.793,122.145 124.793,122.145 124.797,122.145 C 124.797,122.145 124.797,122.145 124.797,122.145 C 124.828,122.156 124.875,122.172 124.941,122.195 L 125.934,122.563 L 125.012,123.082 C 124.43,123.41 123.719,123.66 122.941,123.828 C 122.148,124 121.289,124.086 120.43,124.086 C 119.539,124.086 118.688,123.996 117.922,123.828 C 117.117,123.656 116.406,123.398 115.844,123.078 L 115.809,123.059 C 115.344,122.824 114.781,122.641 114.172,122.516 C 113.508,122.379 112.781,122.309 112.051,122.309 C 111.293,122.309 110.578,122.379 109.938,122.512 C 109.312,122.641 108.758,122.824 108.305,123.051 L 108.262,123.074 C 107.68,123.402 106.969,123.652 106.191,123.82 C 105.398,123.992 104.539,124.078 103.68,124.078 C 102.789,124.078 101.938,123.988 101.172,123.82 C 100.367,123.648 99.6562,123.391 99.0938,123.07 L 99.0625,123.055 C 98.5938,122.82 98.0352,122.637 97.4258,122.512 C 96.7617,122.375 96.0352,122.305 95.3047,122.305 C 94.5469,122.305 93.832,122.375 93.1914,122.508 C 92.5781,122.633 92.0312,122.813 91.5859,123.035 L 91.5195,123.07 C 90.9375,123.398 90.2227,123.648 89.4492,123.816 C 88.6562,123.988 87.7969,124.074 86.9375,124.074 C 86.0469,124.074 85.1953,123.984 84.4297,123.816 C 83.625,123.645 82.9141,123.387 82.3516,123.066 L 82.3164,123.047 C 81.8516,122.813 81.2891,122.629 80.6836,122.504 C 80.0195,122.367 79.293,122.297 78.5625,122.297 C 77.8047,122.297 77.0859,122.367 76.4492,122.5 C 75.8281,122.629 75.2695,122.813 74.8203,123.039 L 74.7734,123.063 C 74.1914,123.391 73.4766,123.641 72.7031,123.809 C 71.9102,123.981 71.0508,124.066 70.1914,124.066 C 69.3008,124.066 68.4492,123.977 67.6836,123.809 C 66.8789,123.637 66.168,123.379 65.6055,123.059 L 65.5703,123.039 L 124.84,122.113 L 124.785,122.145 z M 124.785,122.145 C 124.785,122.145 124.789,122.145 124.789,122.145 C 124.789,122.145 124.793,122.145 124.793,122.145 C 124.793,122.145 124.793,122.145 124.797,122.145 C 124.797,122.145 124.797,122.145 124.797,122.145 L 124.781,122.141 L 124.785,122.145 z M 124.777,122.145 C 124.746,122.133 124.711,122.121 124.777,122.145 L 124.777,122.145 M 124.84,122.168 C 124.844,122.168 124.852,122.172 124.859,122.176 C 124.855,122.176 124.848,122.172 124.84,122.168 z M 124.906,122.191 L 124.906,122.191 C 124.918,122.195 124.934,122.199 124.945,122.203 C 125.223,122.305 125.059,122.242 124.906,122.188 L 124.906,122.191 z M 82.5547,122.66 L 82.5547,122.66 L 82.5547,122.66"
       id="path32" />
    <path
       style="fill:#99ffff;stroke:none"
       d="M 71.5312,63.949 L 120.375,63.949 L 120.375,105.137 C 119.613,105.137 118.891,105.063 118.242,104.926 C 117.59,104.793 117.008,104.598 116.539,104.359 L 116.496,104.336 C 115.938,104.023 115.246,103.777 114.492,103.613 C 113.719,103.445 112.875,103.359 112.031,103.359 C 111.156,103.359 110.324,103.449 109.578,103.613 C 108.797,103.781 108.109,104.031 107.57,104.336 L 107.508,104.371 C 107.027,104.609 106.453,104.797 105.828,104.926 C 105.148,105.066 104.402,105.137 103.66,105.137 C 102.891,105.137 102.156,105.063 101.496,104.926 C 100.848,104.793 100.27,104.602 99.7969,104.363 L 99.75,104.336 C 99.1914,104.023 98.5,103.777 97.7461,103.613 C 96.9727,103.445 96.1289,103.359 95.2852,103.359 C 94.4102,103.359 93.5781,103.449 92.832,103.613 C 92.0508,103.781 91.3633,104.031 90.8242,104.336 L 90.7461,104.379 C 90.2695,104.613 89.6992,104.797 89.0859,104.922 C 88.4062,105.063 87.6602,105.133 86.918,105.133 C 86.1484,105.133 85.4102,105.059 84.7539,104.922 C 84.1016,104.789 83.5234,104.594 83.0508,104.356 L 83.0078,104.332 C 82.4492,104.02 81.7578,103.773 81.0039,103.609 C 80.2305,103.441 79.3867,103.356 78.543,103.356 C 77.668,103.356 76.8359,103.445 76.0898,103.609 C 75.3398,103.77 74.6797,104.008 74.1484,104.297 C 74.1445,104.297 74.1445,104.297 74.1484,104.297 C 74.1289,104.309 74.1055,104.316 74.0859,104.332 L 74.0273,104.363 C 73.5469,104.602 72.9688,104.789 72.3477,104.918 C 72.1055,104.965 71.8555,105.008 71.5977,105.039 L 71.5977,63.938"
       id="path34" />
    <path
       sodipodi:nodetypes="cccccc"
       style="fill:#ff0000;stroke:none"
       d="M 111.035,146.34 L 184.004,146.34 L 184.004,111.727 C 184.004,111.727 139.09205,111.80291 120.34084,111.82879 C 117.67288,116.23176 115.80449,118.57342 111.035,123.23131 C 111.15157,132.0627 111.035,146.34 111.035,146.34 z "
       id="path18" />
    <path
       sodipodi:nodetypes="cccccc"
       style="fill:#ff0000;stroke:none"
       d="M 8.75,146.34 L 81.7188,146.34 C 81.7188,146.34 81.500415,133.46235 81.311629,123.4349 C 76.523421,119.38336 75.117727,117.18141 71.496929,111.8288 C 54.37445,111.87925 8.75,111.727 8.75,111.727 L 8.75,146.34 z "
       id="path20" />
    <path
       style="fill:#cc3300;stroke:none"
       d="M 71.5312,63.524 L 120.867,63.524 L 120.867,110.816 L 120.82,110.918 C 117.273,118.156 112.191,123.098 106.543,125.793 C 103.078,127.445 99.3984,128.254 95.7305,128.231 C 92.0625,128.207 88.4062,127.352 84.9844,125.676 C 79.4062,122.945 74.457,118.035 71.1055,111.008 L 71.0586,110.91 L 71.0586,63.531 L 71.5469,63.531 L 71.5312,63.524 z M 119.883,64.504 L 72.0234,64.504 L 72.0234,110.676 C 75.2734,117.434 80.0391,122.156 85.3984,124.781 C 88.6836,126.391 92.1953,127.215 95.7188,127.238 C 99.2422,127.258 102.777,126.488 106.105,124.898 C 111.535,122.309 116.434,117.555 119.875,110.582 L 119.875,64.5"
       id="path36" />
    <path
       style="fill:#ffffff;stroke:none"
       d="M 93.6055,73.324 L 95.9883,70.871 L 98.3711,73.324 L 98.3711,83.07 L 98.7188,87.418 L 98.7188,105.16 L 93.1797,105.16 L 93.1797,87.488 L 93.668,83.352 L 93.6016,73.324"
       id="path38" />
    <path
       style="fill:#7e7e7e;stroke:none"
       d="M 92.9297,73.578 L 98.9766,73.578 L 98.9766,74.066 L 96.1992,74.066 L 96.1992,75.617 L 99.2539,75.617 L 99.2539,76.106 L 92.6523,76.106 L 92.6523,75.617 L 95.707,75.617 L 95.707,74.066 L 92.9297,74.066 L 92.9297,73.578"
       id="path40" />
    <path
       style="fill:#7e7e7e;stroke:none"
       d="M 92.9297,77.57 L 98.9766,77.57 L 98.9766,78.059 L 96.1992,78.059 L 96.1992,79.609 L 99.2539,79.609 L 99.2539,80.098 L 92.6523,80.098 L 92.6523,79.609 L 95.707,79.609 L 95.707,78.059 L 92.9297,78.059 L 92.9297,77.57"
       id="path42" />
    <path
       style="fill:#7e7e7e;stroke:none"
       d="M 92.9297,81.559 L 98.9766,81.559 L 98.9766,82.047 L 96.1992,82.047 L 96.1992,83.598 L 99.2539,83.598 L 99.2539,84.086 L 92.6523,84.086 L 92.6523,83.598 L 95.707,83.598 L 95.707,82.047 L 92.9297,82.047 L 92.9297,81.559"
       id="path44" />
    <path
       style="fill:#7e7e7e;stroke:none"
       d="M 92.9297,85.551 L 98.9766,85.551 L 98.9766,86.039 L 96.1992,86.039 L 96.1992,87.59 L 99.2539,87.59 L 99.2539,88.078 L 92.6523,88.078 L 92.6523,87.59 L 95.707,87.59 L 95.707,86.039 L 92.9297,86.039 L 92.9297,85.551"
       id="path46" />
    <path
       style="fill:#7e7e7e;stroke:none"
       d="M 92.9297,89.539 L 98.9766,89.539 L 98.9766,90.027 L 96.1992,90.027 L 96.1992,91.578 L 99.2539,91.578 L 99.2539,92.066 L 92.6523,92.066 L 92.6523,91.578 L 95.707,91.578 L 95.707,90.027 L 92.9297,90.027 L 92.9297,89.539"
       id="path48" />
    <path
       style="fill:#7e7e7e;stroke:none"
       d="M 92.9297,93.5313 L 98.9766,93.5313 L 98.9766,94.0196 L 96.1992,94.0196 L 96.1992,95.5704 L 99.2539,95.5704 L 99.2539,96.0587 L 92.6523,96.0587 L 92.6523,95.5704 L 95.707,95.5704 L 95.707,94.0196 L 92.9297,94.0196 L 92.9297,93.5313"
       id="path50" />
    <path
       style="fill:#7e7e7e;stroke:none"
       d="M 92.9297,97.5196 L 98.9766,97.5196 L 98.9766,98.0079 L 96.1992,98.0079 L 96.1992,99.5587 L 99.2539,99.5587 L 99.2539,100.047 L 92.6523,100.047 L 92.6523,99.5587 L 95.707,99.5587 L 95.707,98.0079 L 92.9297,98.0079 L 92.9297,97.5196"
       id="path52" />
    <path
       style="fill:#7e7e7e;stroke:none"
       d="M 92.9297,101.512 L 98.9766,101.512 L 98.9766,102 L 96.1992,102 L 96.1992,103.551 L 99.2539,103.551 L 99.2539,104.039 L 92.6523,104.039 L 92.6523,103.551 L 95.707,103.551 L 95.707,102 L 92.9297,102 L 92.9297,101.512"
       id="path54" />
    <path
       style="fill:#ffffff;stroke:none"
       d="M 95.9531,89.063 C 96.9375,89.063 97.7383,90.695 97.7383,92.707 C 97.7383,94.7188 96.9375,96.3517 95.9531,96.3517 C 94.9688,96.3517 94.168,94.7188 94.168,92.707 C 94.168,90.695 94.9688,89.063 95.9531,89.063"
       id="path56" />
    <path
       style="fill:#7e7e7e;stroke:none"
       d="M 95.9531,88.816 C 96.5469,88.816 97.0703,89.277 97.4336,90.024 C 97.7695,90.715 97.9805,91.664 97.9805,92.707 C 97.9805,93.7462 97.7734,94.6954 97.4336,95.3907 C 97.0703,96.1329 96.5469,96.5978 95.9531,96.5978 C 95.3594,96.5978 94.8359,96.1368 94.4727,95.3907 C 94.1367,94.6993 93.9258,93.7501 93.9258,92.707 C 93.9258,91.668 94.1328,90.719 94.4727,90.024 C 94.8359,89.281 95.3594,88.816 95.9531,88.816 z M 96.9961,90.242 C 96.7148,89.668 96.3477,89.313 95.9531,89.313 C 95.5664,89.313 95.1953,89.668 94.9102,90.242 C 94.6016,90.871 94.4102,91.742 94.4102,92.711 C 94.4102,93.6759 94.5977,94.5509 94.9102,95.1798 C 95.1914,95.754 95.5586,96.1095 95.9531,96.1095 C 96.3398,96.1095 96.7109,95.754 96.9961,95.1798 C 97.3047,94.5509 97.4961,93.6798 97.4961,92.711 C 97.4961,91.746 97.3086,90.875 96.9961,90.242"
       id="path58" />
    <path
       style="fill:none;stroke:#7e7e7e;stroke-width:0.19700301"
       d="M 93.6055,73.324 L 95.9883,70.871 L 98.3711,73.324 L 98.3711,83.07 L 98.7188,87.418 L 98.7188,105.16 L 93.1797,105.16 L 93.1797,87.488 L 93.668,83.352 L 93.6016,73.324 L 93.6055,73.324 z "
       id="path60" />
    <path
       style="fill:#ffffff;stroke:none"
       d="M 86.8359,109.93 L 105.066,109.93 L 105.066,108.039 L 86.8359,108.039 L 86.8359,109.93 z "
       id="path62" />
    <path
       style="fill:#7e7e7e;stroke:none"
       d="M 92.3008,111.879 L 92.7891,111.879 L 92.7891,106.09 L 92.3008,106.09 L 92.3008,111.879 z "
       id="path64" />
    <path
       style="fill:#7e7e7e;stroke:none"
       d="M 99.1172,111.879 L 99.6055,111.879 L 99.6055,106.09 L 99.1172,106.09 L 99.1172,111.879 z "
       id="path66" />
    <path
       style="fill:none;stroke:#7e7e7e;stroke-width:0.19700301"
       d="M 86.8359,109.93 L 105.066,109.93 L 105.066,108.039 L 86.8359,108.039 L 86.8359,109.93 z "
       id="path68" />
    <path
       style="fill:#ffffff;stroke:none"
       d="M 89.3281,108.035 L 102.578,108.035 L 102.578,106.984 L 89.3281,106.984 L 89.3281,108.035 z "
       id="path70" />
    <path
       style="fill:#7e7e7e;stroke:none"
       d="M 90.668,110.406 L 91.1602,110.406 L 91.1602,104.617 L 90.668,104.617 L 90.668,110.406 z "
       id="path72" />
    <path
       style="fill:#7e7e7e;stroke:none"
       d="M 95.7148,110.406 L 96.2031,110.406 L 96.2031,104.617 L 95.7148,104.617 L 95.7148,110.406 z "
       id="path74" />
    <path
       style="fill:#7e7e7e;stroke:none"
       d="M 100.75,110.406 L 101.238,110.406 L 101.238,104.617 L 100.75,104.617 L 100.75,110.406 z "
       id="path76" />
    <path
       style="fill:none;stroke:#7e7e7e;stroke-width:0.19700301"
       d="M 89.3281,108.035 L 102.578,108.035 L 102.578,106.984 L 89.3281,106.984 L 89.3281,108.035 z "
       id="path78" />
    <path
       style="fill:#ffffff;stroke:none"
       d="M 90.7656,106.984 L 101.141,106.984 L 101.141,106.074 L 90.7656,106.074 L 90.7656,106.984 z "
       id="path80" />
    <path
       style="fill:#7e7e7e;stroke:none"
       d="M 93.1875,109.426 L 93.6758,109.426 L 93.6758,103.637 L 93.1875,103.637 L 93.1875,109.426 z "
       id="path82" />
    <path
       style="fill:#7e7e7e;stroke:none"
       d="M 98.2305,109.426 L 98.7188,109.426 L 98.7188,103.637 L 98.2305,103.637 L 98.2305,109.426 z "
       id="path84" />
    <path
       style="fill:none;stroke:#7e7e7e;stroke-width:0.19700301"
       d="M 90.7656,106.984 L 101.141,106.984 L 101.141,106.074 L 90.7656,106.074 L 90.7656,106.984 z "
       id="path86" />
    <path
       style="fill:#ffffff;stroke:none"
       d="M 92.5898,106.074 L 99.3203,106.074 L 99.3203,105.164 L 92.5898,105.164 L 92.5898,106.074 z "
       id="path88" />
    <path
       style="fill:#7e7e7e;stroke:none"
       d="M 95.707,108.512 L 96.1953,108.512 L 96.1953,102.723 L 95.707,102.723 L 95.707,108.512 z "
       id="path90" />
    <path
       style="fill:none;stroke:#7e7e7e;stroke-width:0.19700301"
       d="M 92.5898,106.074 L 99.3203,106.074 L 99.3203,105.164 L 92.5898,105.164 L 92.5898,106.074 z "
       id="path92" />
    <path
       style="fill:#000000;stroke:none"
       d="M 93.5664,73.285 L 95.9492,70.832 L 95.9844,70.797 L 96.0195,70.832 L 98.4023,73.285 L 98.4141,73.301 L 98.4141,83.063 L 98.7617,87.41 L 98.7617,105.207 L 93.1172,105.207 L 93.1172,87.481 L 93.1172,87.477 L 93.6055,83.344 L 93.5391,73.32 L 93.5391,73.301 L 93.5508,73.285 L 93.5664,73.285 z M 95.9883,70.945 L 93.6602,73.344 L 93.7266,83.348 L 93.7266,83.348 L 93.7266,83.352 L 93.2383,87.484 L 93.2383,105.098 L 98.6719,105.098 L 98.6719,87.414 L 98.3242,83.066 L 98.3242,73.336 L 95.9961,70.938"
       id="path94" />
    <path
       style="fill:none;stroke:#7e7e7e;stroke-width:0.19700301"
       d="M 93.5664,73.285 L 95.9492,70.832 L 95.9844,70.797 L 96.0195,70.832 L 98.4023,73.285 L 98.4141,73.301 L 98.4141,73.32 L 98.4141,83.063 L 98.7617,87.41 L 98.7617,87.414 L 98.7617,105.156 L 98.7617,105.207 L 98.7109,105.207 L 93.1719,105.207 L 93.1211,105.207 L 93.1211,105.156 L 93.1211,87.484 L 93.1211,87.484 L 93.1211,87.481 L 93.6094,83.348 L 93.543,73.324 L 93.543,73.305 L 93.5547,73.289 L 93.5664,73.285 z M 95.9883,70.945 L 93.6602,73.344 L 93.7266,83.348 L 93.7266,83.348 L 93.7266,83.352 L 93.2383,87.484 L 93.2383,105.098 L 98.6719,105.098 L 98.6719,87.414 L 98.3242,83.066 L 98.3242,83.063 L 98.3242,73.336 L 95.9961,70.938 L 95.9883,70.945 z "
       id="path96" />
    <path
       style="fill:#000000;stroke:none"
       d="M 86.8359,107.984 L 105.121,107.984 L 105.121,109.984 L 86.7812,109.984 L 86.7812,107.984 L 86.832,107.984 L 86.8359,107.984 z M 105.02,108.09 L 86.8945,108.09 L 86.8945,109.875 L 105.02,109.875 L 105.02,108.09"
       id="path98" />
    <path
       style="fill:none;stroke:#7e7e7e;stroke-width:0.19700301"
       d="M 86.8359,107.984 L 105.066,107.984 L 105.117,107.984 L 105.117,108.035 L 105.117,109.926 L 105.117,109.977 L 105.066,109.977 L 86.8359,109.977 L 86.7852,109.977 L 86.7852,109.926 L 86.7852,108.035 L 86.7852,107.984 L 86.8359,107.984 M 105.02,108.09 L 86.8945,108.09 L 86.8945,109.875 L 105.02,109.875 L 105.02,108.09"
       id="path100" />
    <path
       style="fill:#000000;stroke:none"
       d="M 89.3281,106.934 L 102.633,106.934 L 102.633,108.09 L 89.2734,108.09 L 89.2734,106.934 L 89.3242,106.934 L 89.3281,106.934 z M 102.527,107.039 L 89.3828,107.039 L 89.3828,107.984 L 102.527,107.984 L 102.527,107.039"
       id="path102" />
    <path
       style="fill:none;stroke:#7e7e7e;stroke-width:0.19700301"
       d="M 89.3281,106.934 L 102.582,106.934 L 102.633,106.934 L 102.633,106.984 L 102.633,108.035 L 102.633,108.086 L 102.582,108.086 L 89.3281,108.086 L 89.2773,108.086 L 89.2773,108.035 L 89.2773,106.984 L 89.2773,106.934 L 89.3281,106.934 M 102.527,107.039 L 89.3828,107.039 L 89.3828,107.984 L 102.527,107.984 L 102.527,107.039"
       id="path104" />
    <path
       style="fill:#000000;stroke:none"
       d="M 101.145,107.039 L 90.7148,107.039 L 90.7148,106.023 L 101.199,106.023 L 101.199,107.039 L 101.148,107.039 L 101.145,107.039 z M 90.8164,106.934 L 101.086,106.934 L 101.086,106.129 L 90.8164,106.129 L 90.8164,106.934"
       id="path106" />
    <path
       style="fill:none;stroke:#7e7e7e;stroke-width:0.19700301"
       d="M 101.145,107.039 L 90.7656,107.039 L 90.7148,107.039 L 90.7148,106.988 L 90.7148,106.078 L 90.7148,106.027 L 90.7656,106.027 L 101.145,106.027 L 101.195,106.027 L 101.195,106.078 L 101.195,106.988 L 101.195,107.039 L 101.145,107.039 M 90.8164,106.934 L 101.086,106.934 L 101.086,106.129 L 90.8164,106.129 L 90.8164,106.934"
       id="path108" />
    <path
       style="fill:#000000;stroke:none"
       d="M 92.6406,106.02 L 99.2656,106.02 L 99.2656,105.215 L 92.6406,105.215 L 92.6406,106.02 M 99.3203,106.125 L 92.5352,106.125 L 92.5352,105.109 L 99.3711,105.109 L 99.3711,106.125 L 99.3203,106.125"
       id="path110" />
    <path
       style="fill:none;stroke:#7e7e7e;stroke-width:0.19700301"
       d="M 92.6406,106.02 L 99.2656,106.02 L 99.2656,105.215 L 92.6406,105.215 L 92.6406,106.02 M 99.3203,106.125 L 92.5898,106.125 L 92.5391,106.125 L 92.5391,106.074 L 92.5391,105.164 L 92.5391,105.113 L 92.5898,105.113 L 99.3203,105.113 L 99.3711,105.113 L 99.3711,105.164 L 99.3711,106.074 L 99.3711,106.125 L 99.3203,106.125"
       id="path112" />
    <path
       style="fill:#ff6600;stroke:none"
       d="M 76.4609,77.824 L 79.6914,71.625 L 81.0156,73.641 L 83.3477,69.27 L 85.8867,73.676 L 87.0977,71.699 L 90.2734,77.824 C 85.5547,76.449 81.2695,76.414 76.4492,77.824"
       id="path114" />
    <path
       style="fill:#000000;stroke:none"
       d="M 76.2422,77.711 L 79.4727,71.512 L 79.6641,71.141 L 79.8906,71.488 L 80.9883,73.16 L 83.125,69.156 L 83.332,68.766 L 83.5508,69.149 L 85.8828,73.199 L 86.8789,71.574 L 87.1055,71.207 L 87.3047,71.594 L 90.4805,77.719 L 90.7422,78.227 L 90.1953,78.066 C 87.8594,77.387 85.6328,77.039 83.3906,77.035 C 81.1523,77.031 78.8984,77.371 76.5117,78.066 L 75.9609,78.227 L 76.2266,77.715 L 76.2422,77.711 z M 79.7188,72.109 L 76.9453,77.434 C 79.1758,76.828 81.3008,76.531 83.4141,76.535 C 85.5234,76.539 87.625,76.844 89.8086,77.438 L 87.0938,72.199 L 86.1094,73.809 L 85.8945,74.16 L 85.6914,73.805 L 83.375,69.781 L 81.25,73.762 L 81.0586,74.125 L 80.832,73.781 L 79.7383,72.113"
       id="path116" />
  </g>
</svg>
