<?xml version="1.0" encoding="UTF-8" standalone="no"?>
<!DOCTYPE svg PUBLIC "-//W3C//DTD SVG 1.0//EN"
"http://www.w3.org/TR/2001/REC-SVG-20010904/DTD/svg10.dtd">
<!-- Created with Sodipodi ("http://www.sodipodi.com/") --><svg height="140mm" id="svg559" sodipodi:docbase="/home/tobias/Desktop/Flags" sodipodi:docname="/home/tobias/Desktop/Flags/British_Virgin_Islands.svg" sodipodi:version="0.33" width="280mm" xmlns="http://www.w3.org/2000/svg" xmlns:sodipodi="http://sodipodi.sourceforge.net/DTD/sodipodi-0.dtd" xmlns:xlink="http://www.w3.org/1999/xlink">
  <defs id="defs561">
    <linearGradient id="linearGradient570">
      <stop id="stop571" offset="0" style="stop-color:#ff0000;stop-opacity:1.0000;"/>
      <stop id="stop572" offset="1" style="stop-color:#ffff00;stop-opacity:1.0000;"/>
    </linearGradient>
    <linearGradient id="linearGradient573" x1="0.968992" x2="2.325582e-2" xlink:href="#linearGradient570" y1="0.640625" y2="0.632812"/>
    <linearGradient id="linearGradient574" x1="0.963708" x2="-9.090708e-2" xlink:href="#linearGradient570" y1="0.765734" y2="0.414065"/>
  </defs>
  <sodipodi:namedview id="base"/>
  <rect height="496.062958" id="rect877" style="font-size:12;fill:#000066;stroke-width:1pt;" width="992.125977" x="0.000000" y="0.000039"/>
  <g id="g826" transform="matrix(1.248293,0,0,1.248293,583.4077,106.3681)">
    <path d="M 46.76923 10.20844 L 212.6154 9.593048 L 212.3077 157.2853 C 212.3077 157.2853 218.1538 179.7469 142.7692 213.9007 C 169.8461 211.1315 199.3846 182.2084 199.3846 182.2084 C 199.3846 182.2084 211.3846 166.8239 217.2308 175.4392 C 223.0769 184.0545 228.6154 188.3622 232.9231 191.7469 C 237.2308 195.1315 240.6153 204.3623 234.1538 211.1315 C 227.6923 217.9007 217.5384 218.8238 214.7692 210.5161 C 210.4615 212.6700 183.9999 244.6700 129.8461 246.2084 C 74.76923 245.2853 44.61538 210.2084 44.61538 210.2084 C 44.61538 210.2084 37.23076 221.9008 26.76923 212.6700 C 16.61538 200.6699 24.30769 192.9776 24.30769 192.9776 C 24.30769 192.9776 32.92307 188.0546 35.38461 184.6699 C 39.38462 180.0545 40.61539 173.9007 47.38461 173.9007 C 55.38461 174.5161 58.46153 180.9776 58.46153 180.9776 C 58.46153 180.9776 86.15384 210.2085 116.0000 213.9007 C 48.61533 181.5930 46.15384 161.5930 46.46153 156.6699 L 46.76923 10.20844 z " id="path824" sodipodi:nodetypes="ccccccccccccccccccc" style="fill:#ffffff;fill-rule:evenodd;stroke:none;stroke-opacity:1;stroke-width:1pt;stroke-linejoin:miter;stroke-linecap:butt;fill-opacity:1.0000;"/>
    <path d="M 50.76923 14.20845 L 208.9231 13.28537 L 208.9231 155.4392 C 209.2308 173.9008 178.1539 192.6700 129.5385 216.6699 C 79.38461 190.8237 50.46153 175.1315 50.15384 155.1315 L 50.76923 14.20845 z " id="path779" sodipodi:nodetypes="cccccc" style="fill:#006129;fill-rule:evenodd;stroke:black;stroke-opacity:1;stroke-width:1pt;stroke-linejoin:miter;stroke-linecap:butt;fill-opacity:1.0000;"/>
    <g id="g584" transform="translate(0,0.314758)">
      <path d="M 69.78628 170.5296 L 79.12167 156.8187 L 88.50256 170.5583 " id="path585" sodipodi:nodetypes="ccc" style="fill:none;fill-rule:evenodd;stroke:#f7c600;stroke-opacity:1.0000;stroke-width:1pt;stroke-linejoin:miter;stroke-linecap:butt;fill-opacity:1;"/>
      <path d="M 80.92204 156.7239 A 1.705620 1.705551 0 1 " id="path586" sodipodi:cx="79.21642" sodipodi:cy="156.7239" sodipodi:rx="1.705620" sodipodi:ry="1.705551" sodipodi:type="arc" style="fill-rule:evenodd;stroke:#000000;fill:#f7c600;fill-opacity:1.0000;stroke-opacity:1.0000;stroke-width:0.5750;stroke-linejoin:miter;stroke-linecap:butt;stroke-dasharray:none;" transform="matrix(1.086991,0,0,1.087005,-6.965268,-4.956314)"/>
      <path d="M 71.54115 180.6562 L 86.01395 180.6974 C 86.01395 180.6974 86.24088 178.8191 84.50222 177.6775 C 92.08276 176.6351 90.11343 169.9486 96.46210 169.5696 C 97.69394 169.7591 93.14563 172.4123 93.14563 172.4123 C 93.14563 172.4123 89.31789 175.1135 91.06098 176.4868 C 92.44485 177.5771 93.05087 175.8236 93.24039 174.4970 C 93.42990 173.1704 99.39954 172.3176 98.54675 168.5274 C 97.12540 165.4004 88.78683 170.6119 88.78683 170.6119 L 82.83775 170.5789 C 82.46682 169.9112 80.82729 167.2337 79.13412 167.2213 C 77.12537 167.2946 75.71043 170.6119 75.71043 170.6119 L 67.08759 170.6119 L 62.25501 170.6119 C 62.25501 170.6119 61.79369 174.0643 68.61617 174.7276 C 70.15221 176.7337 71.34292 177.2942 72.67823 177.8135 C 71.78802 178.5554 71.53741 179.4529 71.54115 180.6562 z " id="path587" sodipodi:nodetypes="ccccssccccscccccc" style="fill:#f7c600;fill-rule:evenodd;stroke:black;stroke-opacity:1;stroke-width:0.6250;stroke-linejoin:miter;stroke-linecap:butt;fill-opacity:1.0000;stroke-dasharray:none;"/>
      <path d="M 72.58347 177.7187 L 84.63811 177.6776 " id="path588" sodipodi:nodetypes="cc" style="fill:none;fill-rule:evenodd;stroke:black;stroke-opacity:1;stroke-width:0.6250;stroke-linejoin:miter;stroke-linecap:butt;fill-opacity:1;stroke-dasharray:none;"/>
      <path d="M 67.06232 170.6113 C 67.06232 170.6113 68.02671 176.2494 72.47775 177.5847 " id="path589" style="fill:none;fill-rule:evenodd;stroke:black;stroke-opacity:1;stroke-width:0.6250;stroke-linejoin:miter;stroke-linecap:butt;fill-opacity:1;stroke-dasharray:none;"/>
      <path d="M 66.32047 170.5373 C 66.76557 168.3860 67.58160 168.0150 68.47181 165.2702 C 68.62018 162.5996 66.32047 162.8963 66.98813 161.1901 C 68.17507 159.3355 67.58160 157.5551 65.35608 156.1456 C 65.80119 158.5937 62.46291 160.8934 62.46291 162.8963 C 62.46291 164.8993 64.16914 164.4542 63.94659 167.4958 C 64.09496 169.2761 63.50149 168.8311 63.35312 170.5373 L 66.32047 170.5373 z " id="path590" sodipodi:nodetypes="cccccccc" style="fill:url(#linearGradient574);fill-rule:evenodd;stroke:black;stroke-opacity:1;stroke-width:0.6250;stroke-linejoin:miter;stroke-linecap:butt;fill-opacity:1;stroke-dasharray:none;"/>
      <path d="M 80.92204 156.7239 A 1.705620 1.705551 0 1 " id="path591" sodipodi:cx="79.21642" sodipodi:cy="156.7239" sodipodi:rx="1.705620" sodipodi:ry="1.705551" sodipodi:type="arc" style="fill-rule:evenodd;stroke:#000000;fill:#f7c600;fill-opacity:1.0000;stroke-opacity:1.0000;stroke-width:0.6250;stroke-linejoin:miter;stroke-linecap:butt;stroke-dasharray:none;" transform="translate(-7.418633e-2,0.445068)"/>
    </g>
    <g id="g592" transform="translate(-0.524559,-27.90660)">
      <path d="M 69.78628 170.5296 L 79.12167 156.8187 L 88.50256 170.5583 " id="path593" sodipodi:nodetypes="ccc" style="fill:none;fill-rule:evenodd;stroke:#f7c600;stroke-opacity:1.0000;stroke-width:1pt;stroke-linejoin:miter;stroke-linecap:butt;fill-opacity:1;"/>
      <path d="M 80.92204 156.7239 A 1.705620 1.705551 0 1 " id="path594" sodipodi:cx="79.21642" sodipodi:cy="156.7239" sodipodi:rx="1.705620" sodipodi:ry="1.705551" sodipodi:type="arc" style="fill-rule:evenodd;stroke:#000000;fill:#f7c600;fill-opacity:1.0000;stroke-opacity:1.0000;stroke-width:0.5750;stroke-linejoin:miter;stroke-linecap:butt;stroke-dasharray:none;" transform="matrix(1.086991,0,0,1.087005,-6.965268,-4.956314)"/>
      <path d="M 71.54115 180.6562 L 86.01395 180.6974 C 86.01395 180.6974 86.24088 178.8191 84.50222 177.6775 C 92.08276 176.6351 90.11343 169.9486 96.46210 169.5696 C 97.69394 169.7591 93.14563 172.4123 93.14563 172.4123 C 93.14563 172.4123 89.31789 175.1135 91.06098 176.4868 C 92.44485 177.5771 93.05087 175.8236 93.24039 174.4970 C 93.42990 173.1704 99.39954 172.3176 98.54675 168.5274 C 97.12540 165.4004 88.78683 170.6119 88.78683 170.6119 L 82.83775 170.5789 C 82.46682 169.9112 80.82729 167.2337 79.13412 167.2213 C 77.12537 167.2946 75.71043 170.6119 75.71043 170.6119 L 67.08759 170.6119 L 62.25501 170.6119 C 62.25501 170.6119 61.79369 174.0643 68.61617 174.7276 C 70.15221 176.7337 71.34292 177.2942 72.67823 177.8135 C 71.78802 178.5554 71.53741 179.4529 71.54115 180.6562 z " id="path595" sodipodi:nodetypes="ccccssccccscccccc" style="fill:#f7c600;fill-rule:evenodd;stroke:black;stroke-opacity:1;stroke-width:0.6250;stroke-linejoin:miter;stroke-linecap:butt;fill-opacity:1.0000;stroke-dasharray:none;"/>
      <path d="M 72.58347 177.7187 L 84.63811 177.6776 " id="path596" sodipodi:nodetypes="cc" style="fill:none;fill-rule:evenodd;stroke:black;stroke-opacity:1;stroke-width:0.6250;stroke-linejoin:miter;stroke-linecap:butt;fill-opacity:1;stroke-dasharray:none;"/>
      <path d="M 67.06232 170.6113 C 67.06232 170.6113 68.02671 176.2494 72.47775 177.5847 " id="path597" style="fill:none;fill-rule:evenodd;stroke:black;stroke-opacity:1;stroke-width:0.6250;stroke-linejoin:miter;stroke-linecap:butt;fill-opacity:1;stroke-dasharray:none;"/>
      <path d="M 66.32047 170.5373 C 66.76557 168.3860 67.58160 168.0150 68.47181 165.2702 C 68.62018 162.5996 66.32047 162.8963 66.98813 161.1901 C 68.17507 159.3355 67.58160 157.5551 65.35608 156.1456 C 65.80119 158.5937 62.46291 160.8934 62.46291 162.8963 C 62.46291 164.8993 64.16914 164.4542 63.94659 167.4958 C 64.09496 169.2761 63.50149 168.8311 63.35312 170.5373 L 66.32047 170.5373 z " id="path598" sodipodi:nodetypes="cccccccc" style="fill:url(#linearGradient574);fill-rule:evenodd;stroke:black;stroke-opacity:1;stroke-width:0.6250;stroke-linejoin:miter;stroke-linecap:butt;fill-opacity:1;stroke-dasharray:none;"/>
      <path d="M 80.92204 156.7239 A 1.705620 1.705551 0 1 " id="path599" sodipodi:cx="79.21642" sodipodi:cy="156.7239" sodipodi:rx="1.705620" sodipodi:ry="1.705551" sodipodi:type="arc" style="fill-rule:evenodd;stroke:#000000;fill:#f7c600;fill-opacity:1.0000;stroke-opacity:1.0000;stroke-width:0.6250;stroke-linejoin:miter;stroke-linecap:butt;stroke-dasharray:none;" transform="translate(-7.418633e-2,0.445068)"/>
    </g>
    <g id="g600" transform="translate(98.64761,-53.56006)">
      <path d="M 69.78628 170.5296 L 79.12167 156.8187 L 88.50256 170.5583 " id="path601" sodipodi:nodetypes="ccc" style="fill:none;fill-rule:evenodd;stroke:#f7c600;stroke-opacity:1.0000;stroke-width:1pt;stroke-linejoin:miter;stroke-linecap:butt;fill-opacity:1;"/>
      <path d="M 80.92204 156.7239 A 1.705620 1.705551 0 1 " id="path602" sodipodi:cx="79.21642" sodipodi:cy="156.7239" sodipodi:rx="1.705620" sodipodi:ry="1.705551" sodipodi:type="arc" style="fill-rule:evenodd;stroke:#000000;fill:#f7c600;fill-opacity:1.0000;stroke-opacity:1.0000;stroke-width:0.5750;stroke-linejoin:miter;stroke-linecap:butt;stroke-dasharray:none;" transform="matrix(1.086991,0,0,1.087005,-6.965268,-4.956314)"/>
      <path d="M 71.54115 180.6562 L 86.01395 180.6974 C 86.01395 180.6974 86.24088 178.8191 84.50222 177.6775 C 92.08276 176.6351 90.11343 169.9486 96.46210 169.5696 C 97.69394 169.7591 93.14563 172.4123 93.14563 172.4123 C 93.14563 172.4123 89.31789 175.1135 91.06098 176.4868 C 92.44485 177.5771 93.05087 175.8236 93.24039 174.4970 C 93.42990 173.1704 99.39954 172.3176 98.54675 168.5274 C 97.12540 165.4004 88.78683 170.6119 88.78683 170.6119 L 82.83775 170.5789 C 82.46682 169.9112 80.82729 167.2337 79.13412 167.2213 C 77.12537 167.2946 75.71043 170.6119 75.71043 170.6119 L 67.08759 170.6119 L 62.25501 170.6119 C 62.25501 170.6119 61.79369 174.0643 68.61617 174.7276 C 70.15221 176.7337 71.34292 177.2942 72.67823 177.8135 C 71.78802 178.5554 71.53741 179.4529 71.54115 180.6562 z " id="path603" sodipodi:nodetypes="ccccssccccscccccc" style="fill:#f7c600;fill-rule:evenodd;stroke:black;stroke-opacity:1;stroke-width:0.6250;stroke-linejoin:miter;stroke-linecap:butt;fill-opacity:1.0000;stroke-dasharray:none;"/>
      <path d="M 72.58347 177.7187 L 84.63811 177.6776 " id="path604" sodipodi:nodetypes="cc" style="fill:none;fill-rule:evenodd;stroke:black;stroke-opacity:1;stroke-width:0.6250;stroke-linejoin:miter;stroke-linecap:butt;fill-opacity:1;stroke-dasharray:none;"/>
      <path d="M 67.06232 170.6113 C 67.06232 170.6113 68.02671 176.2494 72.47775 177.5847 " id="path605" style="fill:none;fill-rule:evenodd;stroke:black;stroke-opacity:1;stroke-width:0.6250;stroke-linejoin:miter;stroke-linecap:butt;fill-opacity:1;stroke-dasharray:none;"/>
      <path d="M 66.32047 170.5373 C 66.76557 168.3860 67.58160 168.0150 68.47181 165.2702 C 68.62018 162.5996 66.32047 162.8963 66.98813 161.1901 C 68.17507 159.3355 67.58160 157.5551 65.35608 156.1456 C 65.80119 158.5937 62.46291 160.8934 62.46291 162.8963 C 62.46291 164.8993 64.16914 164.4542 63.94659 167.4958 C 64.09496 169.2761 63.50149 168.8311 63.35312 170.5373 L 66.32047 170.5373 z " id="path606" sodipodi:nodetypes="cccccccc" style="fill:url(#linearGradient574);fill-rule:evenodd;stroke:black;stroke-opacity:1;stroke-width:0.6250;stroke-linejoin:miter;stroke-linecap:butt;fill-opacity:1;stroke-dasharray:none;"/>
      <path d="M 80.92204 156.7239 A 1.705620 1.705551 0 1 " id="path607" sodipodi:cx="79.21642" sodipodi:cy="156.7239" sodipodi:rx="1.705620" sodipodi:ry="1.705551" sodipodi:type="arc" style="fill-rule:evenodd;stroke:#000000;fill:#f7c600;fill-opacity:1.0000;stroke-opacity:1.0000;stroke-width:0.6250;stroke-linejoin:miter;stroke-linecap:butt;stroke-dasharray:none;" transform="translate(-7.418633e-2,0.445068)"/>
    </g>
    <g id="g608" transform="translate(1.783512,-80.99216)">
      <path d="M 69.78628 170.5296 L 79.12167 156.8187 L 88.50256 170.5583 " id="path609" sodipodi:nodetypes="ccc" style="fill:none;fill-rule:evenodd;stroke:#f7c600;stroke-opacity:1.0000;stroke-width:1pt;stroke-linejoin:miter;stroke-linecap:butt;fill-opacity:1;"/>
      <path d="M 80.92204 156.7239 A 1.705620 1.705551 0 1 " id="path610" sodipodi:cx="79.21642" sodipodi:cy="156.7239" sodipodi:rx="1.705620" sodipodi:ry="1.705551" sodipodi:type="arc" style="fill-rule:evenodd;stroke:#000000;fill:#f7c600;fill-opacity:1.0000;stroke-opacity:1.0000;stroke-width:0.5750;stroke-linejoin:miter;stroke-linecap:butt;stroke-dasharray:none;" transform="matrix(1.086991,0,0,1.087005,-6.965268,-4.956314)"/>
      <path d="M 71.54115 180.6562 L 86.01395 180.6974 C 86.01395 180.6974 86.24088 178.8191 84.50222 177.6775 C 92.08276 176.6351 90.11343 169.9486 96.46210 169.5696 C 97.69394 169.7591 93.14563 172.4123 93.14563 172.4123 C 93.14563 172.4123 89.31789 175.1135 91.06098 176.4868 C 92.44485 177.5771 93.05087 175.8236 93.24039 174.4970 C 93.42990 173.1704 99.39954 172.3176 98.54675 168.5274 C 97.12540 165.4004 88.78683 170.6119 88.78683 170.6119 L 82.83775 170.5789 C 82.46682 169.9112 80.82729 167.2337 79.13412 167.2213 C 77.12537 167.2946 75.71043 170.6119 75.71043 170.6119 L 67.08759 170.6119 L 62.25501 170.6119 C 62.25501 170.6119 61.79369 174.0643 68.61617 174.7276 C 70.15221 176.7337 71.34292 177.2942 72.67823 177.8135 C 71.78802 178.5554 71.53741 179.4529 71.54115 180.6562 z " id="path611" sodipodi:nodetypes="ccccssccccscccccc" style="fill:#f7c600;fill-rule:evenodd;stroke:black;stroke-opacity:1;stroke-width:0.6250;stroke-linejoin:miter;stroke-linecap:butt;fill-opacity:1.0000;stroke-dasharray:none;"/>
      <path d="M 72.58347 177.7187 L 84.63811 177.6776 " id="path612" sodipodi:nodetypes="cc" style="fill:none;fill-rule:evenodd;stroke:black;stroke-opacity:1;stroke-width:0.6250;stroke-linejoin:miter;stroke-linecap:butt;fill-opacity:1;stroke-dasharray:none;"/>
      <path d="M 67.06232 170.6113 C 67.06232 170.6113 68.02671 176.2494 72.47775 177.5847 " id="path613" style="fill:none;fill-rule:evenodd;stroke:black;stroke-opacity:1;stroke-width:0.6250;stroke-linejoin:miter;stroke-linecap:butt;fill-opacity:1;stroke-dasharray:none;"/>
      <path d="M 66.32047 170.5373 C 66.76557 168.3860 67.58160 168.0150 68.47181 165.2702 C 68.62018 162.5996 66.32047 162.8963 66.98813 161.1901 C 68.17507 159.3355 67.58160 157.5551 65.35608 156.1456 C 65.80119 158.5937 62.46291 160.8934 62.46291 162.8963 C 62.46291 164.8993 64.16914 164.4542 63.94659 167.4958 C 64.09496 169.2761 63.50149 168.8311 63.35312 170.5373 L 66.32047 170.5373 z " id="path614" sodipodi:nodetypes="cccccccc" style="fill:url(#linearGradient574);fill-rule:evenodd;stroke:black;stroke-opacity:1;stroke-width:0.6250;stroke-linejoin:miter;stroke-linecap:butt;fill-opacity:1;stroke-dasharray:none;"/>
      <path d="M 80.92204 156.7239 A 1.705620 1.705551 0 1 " id="path615" sodipodi:cx="79.21642" sodipodi:cy="156.7239" sodipodi:rx="1.705620" sodipodi:ry="1.705551" sodipodi:type="arc" style="fill-rule:evenodd;stroke:#000000;fill:#f7c600;fill-opacity:1.0000;stroke-opacity:1.0000;stroke-width:0.6250;stroke-linejoin:miter;stroke-linecap:butt;stroke-dasharray:none;" transform="translate(-7.418633e-2,0.445068)"/>
    </g>
    <g id="g616" transform="translate(1.993339,-107.9546)">
      <path d="M 69.78628 170.5296 L 79.12167 156.8187 L 88.50256 170.5583 " id="path617" sodipodi:nodetypes="ccc" style="fill:none;fill-rule:evenodd;stroke:#f7c600;stroke-opacity:1.0000;stroke-width:1pt;stroke-linejoin:miter;stroke-linecap:butt;fill-opacity:1;"/>
      <path d="M 80.92204 156.7239 A 1.705620 1.705551 0 1 " id="path618" sodipodi:cx="79.21642" sodipodi:cy="156.7239" sodipodi:rx="1.705620" sodipodi:ry="1.705551" sodipodi:type="arc" style="fill-rule:evenodd;stroke:#000000;fill:#f7c600;fill-opacity:1.0000;stroke-opacity:1.0000;stroke-width:0.5750;stroke-linejoin:miter;stroke-linecap:butt;stroke-dasharray:none;" transform="matrix(1.086991,0,0,1.087005,-6.965268,-4.956314)"/>
      <path d="M 71.54115 180.6562 L 86.01395 180.6974 C 86.01395 180.6974 86.24088 178.8191 84.50222 177.6775 C 92.08276 176.6351 90.11343 169.9486 96.46210 169.5696 C 97.69394 169.7591 93.14563 172.4123 93.14563 172.4123 C 93.14563 172.4123 89.31789 175.1135 91.06098 176.4868 C 92.44485 177.5771 93.05087 175.8236 93.24039 174.4970 C 93.42990 173.1704 99.39954 172.3176 98.54675 168.5274 C 97.12540 165.4004 88.78683 170.6119 88.78683 170.6119 L 82.83775 170.5789 C 82.46682 169.9112 80.82729 167.2337 79.13412 167.2213 C 77.12537 167.2946 75.71043 170.6119 75.71043 170.6119 L 67.08759 170.6119 L 62.25501 170.6119 C 62.25501 170.6119 61.79369 174.0643 68.61617 174.7276 C 70.15221 176.7337 71.34292 177.2942 72.67823 177.8135 C 71.78802 178.5554 71.53741 179.4529 71.54115 180.6562 z " id="path619" sodipodi:nodetypes="ccccssccccscccccc" style="fill:#f7c600;fill-rule:evenodd;stroke:black;stroke-opacity:1;stroke-width:0.6250;stroke-linejoin:miter;stroke-linecap:butt;fill-opacity:1.0000;stroke-dasharray:none;"/>
      <path d="M 72.58347 177.7187 L 84.63811 177.6776 " id="path620" sodipodi:nodetypes="cc" style="fill:none;fill-rule:evenodd;stroke:black;stroke-opacity:1;stroke-width:0.6250;stroke-linejoin:miter;stroke-linecap:butt;fill-opacity:1;stroke-dasharray:none;"/>
      <path d="M 67.06232 170.6113 C 67.06232 170.6113 68.02671 176.2494 72.47775 177.5847 " id="path621" style="fill:none;fill-rule:evenodd;stroke:black;stroke-opacity:1;stroke-width:0.6250;stroke-linejoin:miter;stroke-linecap:butt;fill-opacity:1;stroke-dasharray:none;"/>
      <path d="M 66.32047 170.5373 C 66.76557 168.3860 67.58160 168.0150 68.47181 165.2702 C 68.62018 162.5996 66.32047 162.8963 66.98813 161.1901 C 68.17507 159.3355 67.58160 157.5551 65.35608 156.1456 C 65.80119 158.5937 62.46291 160.8934 62.46291 162.8963 C 62.46291 164.8993 64.16914 164.4542 63.94659 167.4958 C 64.09496 169.2761 63.50149 168.8311 63.35312 170.5373 L 66.32047 170.5373 z " id="path622" sodipodi:nodetypes="cccccccc" style="fill:url(#linearGradient574);fill-rule:evenodd;stroke:black;stroke-opacity:1;stroke-width:0.6250;stroke-linejoin:miter;stroke-linecap:butt;fill-opacity:1;stroke-dasharray:none;"/>
      <path d="M 80.92204 156.7239 A 1.705620 1.705551 0 1 " id="path623" sodipodi:cx="79.21642" sodipodi:cy="156.7239" sodipodi:rx="1.705620" sodipodi:ry="1.705551" sodipodi:type="arc" style="fill-rule:evenodd;stroke:#000000;fill:#f7c600;fill-opacity:1.0000;stroke-opacity:1.0000;stroke-width:0.6250;stroke-linejoin:miter;stroke-linecap:butt;stroke-dasharray:none;" transform="translate(-7.418633e-2,0.445068)"/>
    </g>
    <g id="g624" transform="translate(2.505107,-135.3109)">
      <path d="M 69.78628 170.5296 L 79.12167 156.8187 L 88.50256 170.5583 " id="path625" sodipodi:nodetypes="ccc" style="fill:none;fill-rule:evenodd;stroke:#f7c600;stroke-opacity:1.0000;stroke-width:1pt;stroke-linejoin:miter;stroke-linecap:butt;fill-opacity:1;"/>
      <path d="M 80.92204 156.7239 A 1.705620 1.705551 0 1 " id="path626" sodipodi:cx="79.21642" sodipodi:cy="156.7239" sodipodi:rx="1.705620" sodipodi:ry="1.705551" sodipodi:type="arc" style="fill-rule:evenodd;stroke:#000000;fill:#f7c600;fill-opacity:1.0000;stroke-opacity:1.0000;stroke-width:0.5750;stroke-linejoin:miter;stroke-linecap:butt;stroke-dasharray:none;" transform="matrix(1.086991,0,0,1.087005,-6.965268,-4.956314)"/>
      <path d="M 71.54115 180.6562 L 86.01395 180.6974 C 86.01395 180.6974 86.24088 178.8191 84.50222 177.6775 C 92.08276 176.6351 90.11343 169.9486 96.46210 169.5696 C 97.69394 169.7591 93.14563 172.4123 93.14563 172.4123 C 93.14563 172.4123 89.31789 175.1135 91.06098 176.4868 C 92.44485 177.5771 93.05087 175.8236 93.24039 174.4970 C 93.42990 173.1704 99.39954 172.3176 98.54675 168.5274 C 97.12540 165.4004 88.78683 170.6119 88.78683 170.6119 L 82.83775 170.5789 C 82.46682 169.9112 80.82729 167.2337 79.13412 167.2213 C 77.12537 167.2946 75.71043 170.6119 75.71043 170.6119 L 67.08759 170.6119 L 62.25501 170.6119 C 62.25501 170.6119 61.79369 174.0643 68.61617 174.7276 C 70.15221 176.7337 71.34292 177.2942 72.67823 177.8135 C 71.78802 178.5554 71.53741 179.4529 71.54115 180.6562 z " id="path627" sodipodi:nodetypes="ccccssccccscccccc" style="fill:#f7c600;fill-rule:evenodd;stroke:black;stroke-opacity:1;stroke-width:0.6250;stroke-linejoin:miter;stroke-linecap:butt;fill-opacity:1.0000;stroke-dasharray:none;"/>
      <path d="M 72.58347 177.7187 L 84.63811 177.6776 " id="path628" sodipodi:nodetypes="cc" style="fill:none;fill-rule:evenodd;stroke:black;stroke-opacity:1;stroke-width:0.6250;stroke-linejoin:miter;stroke-linecap:butt;fill-opacity:1;stroke-dasharray:none;"/>
      <path d="M 67.06232 170.6113 C 67.06232 170.6113 68.02671 176.2494 72.47775 177.5847 " id="path629" style="fill:none;fill-rule:evenodd;stroke:black;stroke-opacity:1;stroke-width:0.6250;stroke-linejoin:miter;stroke-linecap:butt;fill-opacity:1;stroke-dasharray:none;"/>
      <path d="M 66.32047 170.5373 C 66.76557 168.3860 67.58160 168.0150 68.47181 165.2702 C 68.62018 162.5996 66.32047 162.8963 66.98813 161.1901 C 68.17507 159.3355 67.58160 157.5551 65.35608 156.1456 C 65.80119 158.5937 62.46291 160.8934 62.46291 162.8963 C 62.46291 164.8993 64.16914 164.4542 63.94659 167.4958 C 64.09496 169.2761 63.50149 168.8311 63.35312 170.5373 L 66.32047 170.5373 z " id="path630" sodipodi:nodetypes="cccccccc" style="fill:url(#linearGradient574);fill-rule:evenodd;stroke:black;stroke-opacity:1;stroke-width:0.6250;stroke-linejoin:miter;stroke-linecap:butt;fill-opacity:1;stroke-dasharray:none;"/>
      <path d="M 80.92204 156.7239 A 1.705620 1.705551 0 1 " id="path631" sodipodi:cx="79.21642" sodipodi:cy="156.7239" sodipodi:rx="1.705620" sodipodi:ry="1.705551" sodipodi:type="arc" style="fill-rule:evenodd;stroke:#000000;fill:#f7c600;fill-opacity:1.0000;stroke-opacity:1.0000;stroke-width:0.6250;stroke-linejoin:miter;stroke-linecap:butt;stroke-dasharray:none;" transform="translate(-7.418633e-2,0.445068)"/>
    </g>
    <g id="g632" transform="translate(99.38946,-134.8658)">
      <path d="M 69.78628 170.5296 L 79.12167 156.8187 L 88.50256 170.5583 " id="path633" sodipodi:nodetypes="ccc" style="fill:none;fill-rule:evenodd;stroke:#f7c600;stroke-opacity:1.0000;stroke-width:1pt;stroke-linejoin:miter;stroke-linecap:butt;fill-opacity:1;"/>
      <path d="M 80.92204 156.7239 A 1.705620 1.705551 0 1 " id="path634" sodipodi:cx="79.21642" sodipodi:cy="156.7239" sodipodi:rx="1.705620" sodipodi:ry="1.705551" sodipodi:type="arc" style="fill-rule:evenodd;stroke:#000000;fill:#f7c600;fill-opacity:1.0000;stroke-opacity:1.0000;stroke-width:0.5750;stroke-linejoin:miter;stroke-linecap:butt;stroke-dasharray:none;" transform="matrix(1.086991,0,0,1.087005,-6.965268,-4.956314)"/>
      <path d="M 71.54115 180.6562 L 86.01395 180.6974 C 86.01395 180.6974 86.24088 178.8191 84.50222 177.6775 C 92.08276 176.6351 90.11343 169.9486 96.46210 169.5696 C 97.69394 169.7591 93.14563 172.4123 93.14563 172.4123 C 93.14563 172.4123 89.31789 175.1135 91.06098 176.4868 C 92.44485 177.5771 93.05087 175.8236 93.24039 174.4970 C 93.42990 173.1704 99.39954 172.3176 98.54675 168.5274 C 97.12540 165.4004 88.78683 170.6119 88.78683 170.6119 L 82.83775 170.5789 C 82.46682 169.9112 80.82729 167.2337 79.13412 167.2213 C 77.12537 167.2946 75.71043 170.6119 75.71043 170.6119 L 67.08759 170.6119 L 62.25501 170.6119 C 62.25501 170.6119 61.79369 174.0643 68.61617 174.7276 C 70.15221 176.7337 71.34292 177.2942 72.67823 177.8135 C 71.78802 178.5554 71.53741 179.4529 71.54115 180.6562 z " id="path635" sodipodi:nodetypes="ccccssccccscccccc" style="fill:#f7c600;fill-rule:evenodd;stroke:black;stroke-opacity:1;stroke-width:0.6250;stroke-linejoin:miter;stroke-linecap:butt;fill-opacity:1.0000;stroke-dasharray:none;"/>
      <path d="M 72.58347 177.7187 L 84.63811 177.6776 " id="path636" sodipodi:nodetypes="cc" style="fill:none;fill-rule:evenodd;stroke:black;stroke-opacity:1;stroke-width:0.6250;stroke-linejoin:miter;stroke-linecap:butt;fill-opacity:1;stroke-dasharray:none;"/>
      <path d="M 67.06232 170.6113 C 67.06232 170.6113 68.02671 176.2494 72.47775 177.5847 " id="path637" style="fill:none;fill-rule:evenodd;stroke:black;stroke-opacity:1;stroke-width:0.6250;stroke-linejoin:miter;stroke-linecap:butt;fill-opacity:1;stroke-dasharray:none;"/>
      <path d="M 66.32047 170.5373 C 66.76557 168.3860 67.58160 168.0150 68.47181 165.2702 C 68.62018 162.5996 66.32047 162.8963 66.98813 161.1901 C 68.17507 159.3355 67.58160 157.5551 65.35608 156.1456 C 65.80119 158.5937 62.46291 160.8934 62.46291 162.8963 C 62.46291 164.8993 64.16914 164.4542 63.94659 167.4958 C 64.09496 169.2761 63.50149 168.8311 63.35312 170.5373 L 66.32047 170.5373 z " id="path638" sodipodi:nodetypes="cccccccc" style="fill:url(#linearGradient574);fill-rule:evenodd;stroke:black;stroke-opacity:1;stroke-width:0.6250;stroke-linejoin:miter;stroke-linecap:butt;fill-opacity:1;stroke-dasharray:none;"/>
      <path d="M 80.92204 156.7239 A 1.705620 1.705551 0 1 " id="path639" sodipodi:cx="79.21642" sodipodi:cy="156.7239" sodipodi:rx="1.705620" sodipodi:ry="1.705551" sodipodi:type="arc" style="fill-rule:evenodd;stroke:#000000;fill:#f7c600;fill-opacity:1.0000;stroke-opacity:1.0000;stroke-width:0.6250;stroke-linejoin:miter;stroke-linecap:butt;stroke-dasharray:none;" transform="translate(-7.418633e-2,0.445068)"/>
    </g>
    <g id="g640" transform="translate(98.49924,-108.0111)">
      <path d="M 69.78628 170.5296 L 79.12167 156.8187 L 88.50256 170.5583 " id="path641" sodipodi:nodetypes="ccc" style="fill:none;fill-rule:evenodd;stroke:#f7c600;stroke-opacity:1.0000;stroke-width:1pt;stroke-linejoin:miter;stroke-linecap:butt;fill-opacity:1;"/>
      <path d="M 80.92204 156.7239 A 1.705620 1.705551 0 1 " id="path642" sodipodi:cx="79.21642" sodipodi:cy="156.7239" sodipodi:rx="1.705620" sodipodi:ry="1.705551" sodipodi:type="arc" style="fill-rule:evenodd;stroke:#000000;fill:#f7c600;fill-opacity:1.0000;stroke-opacity:1.0000;stroke-width:0.5750;stroke-linejoin:miter;stroke-linecap:butt;stroke-dasharray:none;" transform="matrix(1.086991,0,0,1.087005,-6.965268,-4.956314)"/>
      <path d="M 71.54115 180.6562 L 86.01395 180.6974 C 86.01395 180.6974 86.24088 178.8191 84.50222 177.6775 C 92.08276 176.6351 90.11343 169.9486 96.46210 169.5696 C 97.69394 169.7591 93.14563 172.4123 93.14563 172.4123 C 93.14563 172.4123 89.31789 175.1135 91.06098 176.4868 C 92.44485 177.5771 93.05087 175.8236 93.24039 174.4970 C 93.42990 173.1704 99.39954 172.3176 98.54675 168.5274 C 97.12540 165.4004 88.78683 170.6119 88.78683 170.6119 L 82.83775 170.5789 C 82.46682 169.9112 80.82729 167.2337 79.13412 167.2213 C 77.12537 167.2946 75.71043 170.6119 75.71043 170.6119 L 67.08759 170.6119 L 62.25501 170.6119 C 62.25501 170.6119 61.79369 174.0643 68.61617 174.7276 C 70.15221 176.7337 71.34292 177.2942 72.67823 177.8135 C 71.78802 178.5554 71.53741 179.4529 71.54115 180.6562 z " id="path643" sodipodi:nodetypes="ccccssccccscccccc" style="fill:#f7c600;fill-rule:evenodd;stroke:black;stroke-opacity:1;stroke-width:0.6250;stroke-linejoin:miter;stroke-linecap:butt;fill-opacity:1.0000;stroke-dasharray:none;"/>
      <path d="M 72.58347 177.7187 L 84.63811 177.6776 " id="path644" sodipodi:nodetypes="cc" style="fill:none;fill-rule:evenodd;stroke:black;stroke-opacity:1;stroke-width:0.6250;stroke-linejoin:miter;stroke-linecap:butt;fill-opacity:1;stroke-dasharray:none;"/>
      <path d="M 67.06232 170.6113 C 67.06232 170.6113 68.02671 176.2494 72.47775 177.5847 " id="path645" style="fill:none;fill-rule:evenodd;stroke:black;stroke-opacity:1;stroke-width:0.6250;stroke-linejoin:miter;stroke-linecap:butt;fill-opacity:1;stroke-dasharray:none;"/>
      <path d="M 66.32047 170.5373 C 66.76557 168.3860 67.58160 168.0150 68.47181 165.2702 C 68.62018 162.5996 66.32047 162.8963 66.98813 161.1901 C 68.17507 159.3355 67.58160 157.5551 65.35608 156.1456 C 65.80119 158.5937 62.46291 160.8934 62.46291 162.8963 C 62.46291 164.8993 64.16914 164.4542 63.94659 167.4958 C 64.09496 169.2761 63.50149 168.8311 63.35312 170.5373 L 66.32047 170.5373 z " id="path646" sodipodi:nodetypes="cccccccc" style="fill:url(#linearGradient574);fill-rule:evenodd;stroke:black;stroke-opacity:1;stroke-width:0.6250;stroke-linejoin:miter;stroke-linecap:butt;fill-opacity:1;stroke-dasharray:none;"/>
      <path d="M 80.92204 156.7239 A 1.705620 1.705551 0 1 " id="path647" sodipodi:cx="79.21642" sodipodi:cy="156.7239" sodipodi:rx="1.705620" sodipodi:ry="1.705551" sodipodi:type="arc" style="fill-rule:evenodd;stroke:#000000;fill:#f7c600;fill-opacity:1.0000;stroke-opacity:1.0000;stroke-width:0.6250;stroke-linejoin:miter;stroke-linecap:butt;stroke-dasharray:none;" transform="translate(-7.418633e-2,0.445068)"/>
    </g>
    <g id="g648" transform="translate(97.31230,-80.56300)">
      <path d="M 69.78628 170.5296 L 79.12167 156.8187 L 88.50256 170.5583 " id="path649" sodipodi:nodetypes="ccc" style="fill:none;fill-rule:evenodd;stroke:#f7c600;stroke-opacity:1.0000;stroke-width:1pt;stroke-linejoin:miter;stroke-linecap:butt;fill-opacity:1;"/>
      <path d="M 80.92204 156.7239 A 1.705620 1.705551 0 1 " id="path650" sodipodi:cx="79.21642" sodipodi:cy="156.7239" sodipodi:rx="1.705620" sodipodi:ry="1.705551" sodipodi:type="arc" style="fill-rule:evenodd;stroke:#000000;fill:#f7c600;fill-opacity:1.0000;stroke-opacity:1.0000;stroke-width:0.5750;stroke-linejoin:miter;stroke-linecap:butt;stroke-dasharray:none;" transform="matrix(1.086991,0,0,1.087005,-6.965268,-4.956314)"/>
      <path d="M 71.54115 180.6562 L 86.01395 180.6974 C 86.01395 180.6974 86.24088 178.8191 84.50222 177.6775 C 92.08276 176.6351 90.11343 169.9486 96.46210 169.5696 C 97.69394 169.7591 93.14563 172.4123 93.14563 172.4123 C 93.14563 172.4123 89.31789 175.1135 91.06098 176.4868 C 92.44485 177.5771 93.05087 175.8236 93.24039 174.4970 C 93.42990 173.1704 99.39954 172.3176 98.54675 168.5274 C 97.12540 165.4004 88.78683 170.6119 88.78683 170.6119 L 82.83775 170.5789 C 82.46682 169.9112 80.82729 167.2337 79.13412 167.2213 C 77.12537 167.2946 75.71043 170.6119 75.71043 170.6119 L 67.08759 170.6119 L 62.25501 170.6119 C 62.25501 170.6119 61.79369 174.0643 68.61617 174.7276 C 70.15221 176.7337 71.34292 177.2942 72.67823 177.8135 C 71.78802 178.5554 71.53741 179.4529 71.54115 180.6562 z " id="path651" sodipodi:nodetypes="ccccssccccscccccc" style="fill:#f7c600;fill-rule:evenodd;stroke:black;stroke-opacity:1;stroke-width:0.6250;stroke-linejoin:miter;stroke-linecap:butt;fill-opacity:1.0000;stroke-dasharray:none;"/>
      <path d="M 72.58347 177.7187 L 84.63811 177.6776 " id="path652" sodipodi:nodetypes="cc" style="fill:none;fill-rule:evenodd;stroke:black;stroke-opacity:1;stroke-width:0.6250;stroke-linejoin:miter;stroke-linecap:butt;fill-opacity:1;stroke-dasharray:none;"/>
      <path d="M 67.06232 170.6113 C 67.06232 170.6113 68.02671 176.2494 72.47775 177.5847 " id="path653" style="fill:none;fill-rule:evenodd;stroke:black;stroke-opacity:1;stroke-width:0.6250;stroke-linejoin:miter;stroke-linecap:butt;fill-opacity:1;stroke-dasharray:none;"/>
      <path d="M 66.32047 170.5373 C 66.76557 168.3860 67.58160 168.0150 68.47181 165.2702 C 68.62018 162.5996 66.32047 162.8963 66.98813 161.1901 C 68.17507 159.3355 67.58160 157.5551 65.35608 156.1456 C 65.80119 158.5937 62.46291 160.8934 62.46291 162.8963 C 62.46291 164.8993 64.16914 164.4542 63.94659 167.4958 C 64.09496 169.2761 63.50149 168.8311 63.35312 170.5373 L 66.32047 170.5373 z " id="path654" sodipodi:nodetypes="cccccccc" style="fill:url(#linearGradient574);fill-rule:evenodd;stroke:black;stroke-opacity:1;stroke-width:0.6250;stroke-linejoin:miter;stroke-linecap:butt;fill-opacity:1;stroke-dasharray:none;"/>
      <path d="M 80.92204 156.7239 A 1.705620 1.705551 0 1 " id="path655" sodipodi:cx="79.21642" sodipodi:cy="156.7239" sodipodi:rx="1.705620" sodipodi:ry="1.705551" sodipodi:type="arc" style="fill-rule:evenodd;stroke:#000000;fill:#f7c600;fill-opacity:1.0000;stroke-opacity:1.0000;stroke-width:0.6250;stroke-linejoin:miter;stroke-linecap:butt;stroke-dasharray:none;" transform="translate(-7.418633e-2,0.445068)"/>
    </g>
    <path d="M 69.78628 170.5296 L 79.12167 156.8187 L 88.50256 170.5583 " id="path657" sodipodi:nodetypes="ccc" style="font-size:12.000;fill:none;fill-rule:evenodd;stroke:#f7c600;stroke-width:1;" transform="translate(98.49926,0.594299)"/>
    <path d="M 80.92204 156.7239 A 1.705620 1.705551 0 1 " id="path658" sodipodi:cx="79.21642" sodipodi:cy="156.7239" sodipodi:rx="1.705620" sodipodi:ry="1.705551" sodipodi:type="arc" style="font-size:12.000;fill:#f7c600;fill-rule:evenodd;stroke:#000000;stroke-width:0.575000;" transform="matrix(1.086991,0,0,1.087005,91.53399,-4.362015)"/>
    <path d="M 71.54115 180.6562 L 86.01395 180.6974 C 86.01395 180.6974 86.24088 178.8191 84.50222 177.6775 C 92.08276 176.6351 90.11343 169.9486 96.46210 169.5696 C 97.69394 169.7591 93.14563 172.4123 93.14563 172.4123 C 93.14563 172.4123 89.31789 175.1135 91.06098 176.4868 C 92.44485 177.5771 93.05087 175.8236 93.24039 174.4970 C 93.42990 173.1704 99.39954 172.3176 98.54675 168.5274 C 97.12540 165.4004 88.78683 170.6119 88.78683 170.6119 L 82.83775 170.5789 C 82.46682 169.9112 80.82729 167.2337 79.13412 167.2213 C 77.12537 167.2946 75.71043 170.6119 75.71043 170.6119 L 67.08759 170.6119 L 62.25501 170.6119 C 62.25501 170.6119 61.79369 174.0643 68.61617 174.7276 C 70.15221 176.7337 71.34292 177.2942 72.67823 177.8135 C 71.78802 178.5554 71.53741 179.4529 71.54115 180.6562 z " id="path659" sodipodi:nodetypes="ccccssccccscccccc" style="font-size:12.000;fill:#f7c600;fill-rule:evenodd;stroke:#000000;stroke-width:0.625000;" transform="translate(98.49926,0.594299)"/>
    <path d="M 72.58347 177.7187 L 84.63811 177.6776 " id="path660" sodipodi:nodetypes="cc" style="font-size:12.000;fill:none;fill-rule:evenodd;stroke:#000000;stroke-width:0.625000;" transform="translate(98.49926,0.594299)"/>
    <path d="M 67.06232 170.6113 C 67.06232 170.6113 68.02671 176.2494 72.47775 177.5847 " id="path661" style="font-size:12.000;fill:none;fill-rule:evenodd;stroke:#000000;stroke-width:0.625000;" transform="translate(98.49926,0.594299)"/>
    <path d="M 66.32047 170.5373 C 66.76557 168.3860 67.58160 168.0150 68.47181 165.2702 C 68.62018 162.5996 66.32047 162.8963 66.98813 161.1901 C 68.17507 159.3355 67.58160 157.5551 65.35608 156.1456 C 65.80119 158.5937 62.46291 160.8934 62.46291 162.8963 C 62.46291 164.8993 64.16914 164.4542 63.94659 167.4958 C 64.09496 169.2761 63.50149 168.8311 63.35312 170.5373 L 66.32047 170.5373 z " id="path662" sodipodi:nodetypes="cccccccc" style="font-size:12.000;fill:url(#linearGradient574);fill-rule:evenodd;stroke:#000000;stroke-width:0.6250;stroke-dasharray:none;" transform="translate(98.49926,0.594299)"/>
    <path d="M 80.92204 156.7239 A 1.705620 1.705551 0 1 " id="path663" sodipodi:cx="79.21642" sodipodi:cy="156.7239" sodipodi:rx="1.705620" sodipodi:ry="1.705551" sodipodi:type="arc" style="font-size:12.000;fill:#f7c600;fill-rule:evenodd;stroke:#000000;stroke-width:0.625000;" transform="translate(98.42507,1.039367)"/>
    <g id="g664" transform="translate(98.35089,-26.55704)">
      <path d="M 69.78628 170.5296 L 79.12167 156.8187 L 88.50256 170.5583 " id="path665" sodipodi:nodetypes="ccc" style="fill:none;fill-rule:evenodd;stroke:#f7c600;stroke-opacity:1.0000;stroke-width:1pt;stroke-linejoin:miter;stroke-linecap:butt;fill-opacity:1;"/>
      <path d="M 80.92204 156.7239 A 1.705620 1.705551 0 1 " id="path666" sodipodi:cx="79.21642" sodipodi:cy="156.7239" sodipodi:rx="1.705620" sodipodi:ry="1.705551" sodipodi:type="arc" style="fill-rule:evenodd;stroke:#000000;fill:#f7c600;fill-opacity:1.0000;stroke-opacity:1.0000;stroke-width:0.5750;stroke-linejoin:miter;stroke-linecap:butt;stroke-dasharray:none;" transform="matrix(1.086991,0,0,1.087005,-6.965268,-4.956314)"/>
      <path d="M 71.54115 180.6562 L 86.01395 180.6974 C 86.01395 180.6974 86.24088 178.8191 84.50222 177.6775 C 92.08276 176.6351 90.11343 169.9486 96.46210 169.5696 C 97.69394 169.7591 93.14563 172.4123 93.14563 172.4123 C 93.14563 172.4123 89.31789 175.1135 91.06098 176.4868 C 92.44485 177.5771 93.05087 175.8236 93.24039 174.4970 C 93.42990 173.1704 99.39954 172.3176 98.54675 168.5274 C 97.12540 165.4004 88.78683 170.6119 88.78683 170.6119 L 82.83775 170.5789 C 82.46682 169.9112 80.82729 167.2337 79.13412 167.2213 C 77.12537 167.2946 75.71043 170.6119 75.71043 170.6119 L 67.08759 170.6119 L 62.25501 170.6119 C 62.25501 170.6119 61.79369 174.0643 68.61617 174.7276 C 70.15221 176.7337 71.34292 177.2942 72.67823 177.8135 C 71.78802 178.5554 71.53741 179.4529 71.54115 180.6562 z " id="path667" sodipodi:nodetypes="ccccssccccscccccc" style="fill:#f7c600;fill-rule:evenodd;stroke:black;stroke-opacity:1;stroke-width:0.6250;stroke-linejoin:miter;stroke-linecap:butt;fill-opacity:1.0000;stroke-dasharray:none;"/>
      <path d="M 72.58347 177.7187 L 84.63811 177.6776 " id="path668" sodipodi:nodetypes="cc" style="fill:none;fill-rule:evenodd;stroke:black;stroke-opacity:1;stroke-width:0.6250;stroke-linejoin:miter;stroke-linecap:butt;fill-opacity:1;stroke-dasharray:none;"/>
      <path d="M 67.06232 170.6113 C 67.06232 170.6113 68.02671 176.2494 72.47775 177.5847 " id="path669" style="fill:none;fill-rule:evenodd;stroke:black;stroke-opacity:1;stroke-width:0.6250;stroke-linejoin:miter;stroke-linecap:butt;fill-opacity:1;stroke-dasharray:none;"/>
      <path d="M 66.32047 170.5373 C 66.76557 168.3860 67.58160 168.0150 68.47181 165.2702 C 68.62018 162.5996 66.32047 162.8963 66.98813 161.1901 C 68.17507 159.3355 67.58160 157.5551 65.35608 156.1456 C 65.80119 158.5937 62.46291 160.8934 62.46291 162.8963 C 62.46291 164.8993 64.16914 164.4542 63.94659 167.4958 C 64.09496 169.2761 63.50149 168.8311 63.35312 170.5373 L 66.32047 170.5373 z " id="path670" sodipodi:nodetypes="cccccccc" style="fill:url(#linearGradient574);fill-rule:evenodd;stroke:black;stroke-opacity:1;stroke-width:0.6250;stroke-linejoin:miter;stroke-linecap:butt;fill-opacity:1;stroke-dasharray:none;"/>
      <path d="M 80.92204 156.7239 A 1.705620 1.705551 0 1 " id="path671" sodipodi:cx="79.21642" sodipodi:cy="156.7239" sodipodi:rx="1.705620" sodipodi:ry="1.705551" sodipodi:type="arc" style="fill-rule:evenodd;stroke:#000000;fill:#f7c600;fill-opacity:1.0000;stroke-opacity:1.0000;stroke-width:0.6250;stroke-linejoin:miter;stroke-linecap:butt;stroke-dasharray:none;" transform="translate(-7.418633e-2,0.445068)"/>
    </g>
    <g id="g576" transform="translate(19.47813,-51.79271)">
      <path d="M 69.78628 170.5296 L 79.12167 156.8187 L 88.50256 170.5583 " id="path563" sodipodi:nodetypes="ccc" style="fill:none;fill-rule:evenodd;stroke:#f7c600;stroke-opacity:1.0000;stroke-width:1pt;stroke-linejoin:miter;stroke-linecap:butt;fill-opacity:1;"/>
      <path d="M 80.92204 156.7239 A 1.705620 1.705551 0 1 " id="path564" sodipodi:cx="79.21642" sodipodi:cy="156.7239" sodipodi:rx="1.705620" sodipodi:ry="1.705551" sodipodi:type="arc" style="fill-rule:evenodd;stroke:#000000;fill:#f7c600;fill-opacity:1.0000;stroke-opacity:1.0000;stroke-width:0.5750;stroke-linejoin:miter;stroke-linecap:butt;stroke-dasharray:none;" transform="matrix(1.086991,0,0,1.087005,-6.965268,-4.956314)"/>
      <path d="M 71.54115 180.6562 L 86.01395 180.6974 C 86.01395 180.6974 86.24088 178.8191 84.50222 177.6775 C 92.08276 176.6351 90.11343 169.9486 96.46210 169.5696 C 97.69394 169.7591 93.14563 172.4123 93.14563 172.4123 C 93.14563 172.4123 89.31789 175.1135 91.06098 176.4868 C 92.44485 177.5771 93.05087 175.8236 93.24039 174.4970 C 93.42990 173.1704 99.39954 172.3176 98.54675 168.5274 C 97.12540 165.4004 88.78683 170.6119 88.78683 170.6119 L 82.83775 170.5789 C 82.46682 169.9112 80.82729 167.2337 79.13412 167.2213 C 77.12537 167.2946 75.71043 170.6119 75.71043 170.6119 L 67.08759 170.6119 L 62.25501 170.6119 C 62.25501 170.6119 61.79369 174.0643 68.61617 174.7276 C 70.15221 176.7337 71.34292 177.2942 72.67823 177.8135 C 71.78802 178.5554 71.53741 179.4529 71.54115 180.6562 z " id="path565" sodipodi:nodetypes="ccccssccccscccccc" style="fill:#f7c600;fill-rule:evenodd;stroke:black;stroke-opacity:1;stroke-width:0.6250;stroke-linejoin:miter;stroke-linecap:butt;fill-opacity:1.0000;stroke-dasharray:none;"/>
      <path d="M 72.58347 177.7187 L 84.63811 177.6776 " id="path566" sodipodi:nodetypes="cc" style="fill:none;fill-rule:evenodd;stroke:black;stroke-opacity:1;stroke-width:0.6250;stroke-linejoin:miter;stroke-linecap:butt;fill-opacity:1;stroke-dasharray:none;"/>
      <path d="M 67.06232 170.6113 C 67.06232 170.6113 68.02671 176.2494 72.47775 177.5847 " id="path568" style="fill:none;fill-rule:evenodd;stroke:black;stroke-opacity:1;stroke-width:0.6250;stroke-linejoin:miter;stroke-linecap:butt;fill-opacity:1;stroke-dasharray:none;"/>
      <path d="M 66.32047 170.5373 C 66.76557 168.3860 67.58160 168.0150 68.47181 165.2702 C 68.62018 162.5996 66.32047 162.8963 66.98813 161.1901 C 68.17507 159.3355 67.58160 157.5551 65.35608 156.1456 C 65.80119 158.5937 62.46291 160.8934 62.46291 162.8963 C 62.46291 164.8993 64.16914 164.4542 63.94659 167.4958 C 64.09496 169.2761 63.50149 168.8311 63.35312 170.5373 L 66.32047 170.5373 z " id="path569" sodipodi:nodetypes="cccccccc" style="fill:url(#linearGradient574);fill-rule:evenodd;stroke:black;stroke-opacity:1;stroke-width:0.6250;stroke-linejoin:miter;stroke-linecap:butt;fill-opacity:1;stroke-dasharray:none;"/>
      <path d="M 80.92204 156.7239 A 1.705620 1.705551 0 1 " id="path575" sodipodi:cx="79.21642" sodipodi:cy="156.7239" sodipodi:rx="1.705620" sodipodi:ry="1.705551" sodipodi:type="arc" style="fill-rule:evenodd;stroke:#000000;fill:#f7c600;fill-opacity:1.0000;stroke-opacity:1.0000;stroke-width:0.6250;stroke-linejoin:miter;stroke-linecap:butt;stroke-dasharray:none;" transform="translate(-7.418633e-2,0.445068)"/>
    </g>
    <g id="g729">
      <path d="M 139.2183 183.9001 C 139.2183 183.9001 142.9951 192.6078 147.2965 187.2573 C 151.5979 181.9068 150.0243 179.5987 150.0243 179.5987 L 140.3723 174.3531 L 137.5397 180.3331 L 139.2183 183.9001 z " id="path718" style="fill:#f7c600;fill-rule:evenodd;stroke:black;stroke-opacity:1;stroke-width:0.6250;stroke-linejoin:miter;stroke-linecap:butt;fill-opacity:1.0000;stroke-dasharray:none;"/>
      <path d="M 147.5064 182.7460 C 147.5064 182.7460 148.1358 182.8510 148.6604 181.9068 C 149.1850 180.9626 147.5064 180.5428 146.7720 179.4937 L 145.9327 181.1724 L 147.5064 182.7460 z " id="path678" sodipodi:nodetypes="ccccc" style="fill:#ffc6b5;fill-rule:evenodd;stroke:black;stroke-opacity:1;stroke-width:0.6250;stroke-linejoin:miter;stroke-linecap:butt;fill-opacity:1.0000;stroke-dasharray:none;"/>
      <path d="M 125.6847 180.4380 L 117.1868 185.0541 C 117.1868 185.0541 112.9903 185.8933 112.6756 185.0541 C 112.3608 184.2148 112.7805 183.4804 114.9836 183.3755 C 117.1868 183.2706 123.1668 177.8151 123.1668 177.8151 L 125.6847 180.4380 z " id="path675" style="fill:#ffc6b5;fill-rule:evenodd;stroke:black;stroke-opacity:1;stroke-width:0.6250;stroke-linejoin:miter;stroke-linecap:butt;fill-opacity:1.0000;stroke-dasharray:none;"/>
      <path d="M 125.7896 29.46950 C 125.7896 29.46950 125.9994 31.46283 126.1043 32.51195 C 126.2092 33.56107 124.4257 35.76421 124.3208 35.65930 C 124.2159 35.55440 123.3766 35.76421 123.4815 36.39371 C 123.5864 37.02321 124.8454 37.23302 124.8454 37.23302 C 124.8454 37.23302 124.3208 39.43616 124.8454 39.54106 C 125.3699 39.64597 123.4815 42.37378 124.8454 43.10811 C 126.2092 43.84244 128.5173 44.78665 129.5664 44.57684 C 130.6155 44.36703 129.5664 48.66841 129.5664 48.66841 L 126.6289 54.96312 L 142.7853 53.28458 L 139.4281 47.93401 C 139.4281 47.93401 137.8545 46.88489 138.2741 43.84244 C 138.6938 40.79999 138.0643 27.05655 138.0643 27.05655 L 126.5240 25.48283 L 125.7896 29.46950 z " id="path674" style="fill:#ffc6b5;fill-rule:evenodd;stroke:black;stroke-opacity:1;stroke-width:0.6250;stroke-linejoin:miter;stroke-linecap:butt;fill-opacity:1.0000;stroke-dasharray:none;"/>
      <path d="M 122.8520 53.38951 C 122.8520 53.38951 117.6064 55.80254 117.8162 62.30705 C 116.4524 68.60176 115.7180 74.89647 115.7180 74.89647 C 115.7180 74.89647 109.5282 81.92551 107.6398 84.44344 C 105.7514 86.96136 102.9187 92.10197 101.8696 93.46588 C 100.8205 94.82979 96.72894 99.34105 96.83384 101.0196 C 96.93875 102.6981 95.88963 110.1470 99.98119 110.9862 C 101.0303 111.4058 104.3875 102.3834 104.3875 102.3834 C 104.3875 102.3834 104.5973 98.50174 103.4433 97.76733 C 102.2893 97.03293 105.9612 94.51500 105.9612 94.51500 C 105.9612 94.51500 112.9903 89.37431 114.5640 88.11539 C 116.1377 86.85646 120.4391 82.03049 120.4391 82.03049 L 122.8520 53.38951 z " id="path672" sodipodi:nodetypes="ccccccccccccc" style="fill:#ffc6b5;fill-rule:evenodd;stroke:black;stroke-opacity:1;stroke-width:0.6250;stroke-linejoin:miter;stroke-linecap:butt;fill-opacity:1.0000;stroke-dasharray:none;"/>
      <path d="M 128.8320 48.45863 C 128.8320 48.45863 130.1959 52.13058 133.2383 51.50108 C 136.2808 50.87158 139.8478 48.03902 139.8478 48.03902 C 139.8478 48.03902 142.6804 47.93411 143.1001 48.35373 C 143.5197 48.77335 150.7586 55.80238 150.5488 58.00560 C 150.3390 60.20882 147.1916 59.57924 146.0376 61.04805 C 144.8836 62.51686 142.9951 66.18874 143.5197 68.91647 C 144.0443 71.64421 145.6179 75.21126 145.4081 76.57509 C 145.1983 77.93892 144.0443 78.35854 144.0443 79.09294 C 144.0443 79.82735 144.9885 81.08635 144.9885 82.45018 C 144.9885 83.81401 143.7295 85.80727 143.9394 87.17117 C 144.1492 88.53508 144.2541 92.52167 144.2541 92.52167 L 143.9394 110.9862 C 143.9394 110.9862 144.9885 111.6156 145.0934 112.6648 C 145.1983 113.7139 152.2274 144.2433 152.2274 144.2433 C 152.2274 144.2433 151.9127 145.1875 151.1783 145.0826 C 150.4439 144.9777 154.0109 149.8036 154.1158 151.1675 C 154.2207 152.5314 157.7878 163.2325 157.6828 164.7012 C 157.5779 166.1699 157.0534 169.4222 156.7386 169.5271 C 156.4239 169.6320 159.0467 176.2415 158.6270 177.2906 C 158.2074 178.3397 153.9060 178.2348 153.9060 178.2348 L 152.7520 178.0250 C 152.7520 178.0250 152.8569 179.3889 152.0176 179.4938 C 151.1783 179.5987 144.9885 179.1790 144.9885 179.1790 C 144.9885 179.1790 143.2050 181.9067 142.1559 181.8018 C 141.1067 181.6969 139.7429 179.8085 139.4281 180.1233 C 139.1134 180.4380 140.3724 182.2214 140.0576 182.7460 C 139.7429 183.2706 134.3924 184.4247 133.3432 181.9068 C 132.2941 179.3889 133.9727 180.0183 133.6580 179.4938 C 133.3432 178.9692 130.9303 177.6054 130.1959 178.0250 C 129.4615 178.4446 132.0843 179.0741 131.9794 180.1233 C 131.8745 181.1724 129.6713 182.7460 128.8320 182.7460 C 127.9927 182.7460 125.9994 178.8643 123.0619 179.2840 C 120.1243 179.7036 118.2359 180.4380 118.2359 180.4380 C 118.2359 180.4380 114.7738 181.9067 113.3050 181.5920 C 111.8363 181.2773 111.2068 180.1232 111.2068 179.4938 C 111.2068 178.8643 112.2559 176.1366 112.1510 175.2973 C 112.0461 174.4580 111.2068 173.6187 111.2068 172.3597 C 111.2068 171.1008 113.6198 166.7994 113.6198 166.7994 L 113.5149 147.4956 C 113.5149 147.4956 111.3117 147.4955 111.2068 146.1317 C 111.1019 144.7679 114.5640 115.6023 115.0885 113.7139 C 115.6131 111.8255 116.9770 105.1111 116.9770 105.1111 C 116.9770 105.1111 115.4033 105.8455 115.2984 105.1111 C 115.1935 104.3767 120.0194 87.69577 120.0194 87.69577 C 120.0194 87.69577 120.8587 79.40765 120.8587 77.20451 C 120.8587 75.00137 120.4391 71.95892 120.4391 71.95892 C 120.4391 71.95892 116.1319 70.13557 116.0327 67.34283 C 115.6388 62.89948 120.1243 60.41855 120.6489 58.94981 C 121.1734 57.48108 122.7471 53.07480 122.7471 53.07480 C 122.7471 53.07480 125.0552 49.08813 128.8320 48.45863 z " id="path679" sodipodi:nodetypes="cccccccccccccccccccccccccccccccccccccccccccccccsccc" style="fill:#ffffff;fill-rule:evenodd;stroke:black;stroke-opacity:1;stroke-width:0.6250;stroke-linejoin:miter;stroke-linecap:butt;fill-opacity:1.0000;stroke-dasharray:none;"/>
      <path d="M 127.2583 181.6969 C 127.2583 181.6969 117.0819 187.0475 115.6131 187.4671 C 114.1443 187.8867 113.2001 185.6836 114.6689 185.2639 C 116.1377 184.8443 118.4457 184.6344 118.4457 184.6344 C 118.4457 184.6344 114.9836 181.9067 115.0885 181.8018 C 115.1935 181.6969 119.8096 180.0184 119.9145 180.0184 C 120.0194 180.0184 121.3833 182.7460 122.3275 182.5362 C 123.2717 182.3264 125.9994 180.2282 125.9994 180.2282 C 125.9994 180.2282 127.4682 181.9068 127.2583 181.6969 z " id="path717" style="fill:#f7c600;fill-rule:evenodd;stroke:black;stroke-opacity:1;stroke-width:0.6250;stroke-linejoin:miter;stroke-linecap:butt;fill-opacity:1.0000;stroke-dasharray:none;"/>
      <path d="M 141.5953 184.6344 C 142.5575 185.8753 142.9337 188.0276 145.1369 186.7687 C 147.3400 185.5098 144.0083 183.1731 144.0083 183.1731 L 141.5953 184.6344 z " id="path676" sodipodi:nodetypes="cccc" style="fill:#ffc6b5;fill-rule:evenodd;stroke:black;stroke-opacity:1;stroke-width:0.6250;stroke-linejoin:miter;stroke-linecap:butt;fill-opacity:1.0000;stroke-dasharray:none;"/>
      <path d="M 145.6180 184.4246 C 145.6180 184.4246 146.6671 185.2639 147.6113 184.3197 C 148.5555 183.3755 145.7228 181.3822 145.7228 181.3822 L 144.3590 182.9559 L 145.6180 184.4246 z " id="path677" sodipodi:nodetypes="ccccc" style="fill:#ffc6b5;fill-rule:evenodd;stroke:black;stroke-opacity:1;stroke-width:0.6250;stroke-linejoin:miter;stroke-linecap:butt;fill-opacity:1.0000;stroke-dasharray:none;"/>
      <path d="M 142.4706 52.55017 C 142.4706 52.55017 133.1334 58.53017 133.3432 60.62840 " id="path680" style="fill:none;fill-rule:evenodd;stroke:black;stroke-opacity:1;stroke-width:0.6250;stroke-linejoin:miter;stroke-linecap:butt;fill-opacity:1;stroke-dasharray:none;"/>
      <path d="M 144.5688 53.59929 C 144.5688 53.59929 142.4706 55.90733 142.3657 55.90733 " id="path681" style="fill:none;fill-rule:evenodd;stroke:black;stroke-opacity:1;stroke-width:0.6250;stroke-linejoin:miter;stroke-linecap:butt;fill-opacity:1;stroke-dasharray:none;"/>
      <path d="M 147.4015 56.11722 C 147.4015 56.11722 142.7853 59.89407 143.5197 62.30702 " id="path682" style="fill:none;fill-rule:evenodd;stroke:black;stroke-opacity:1;stroke-width:0.6250;stroke-linejoin:miter;stroke-linecap:butt;fill-opacity:1;stroke-dasharray:none;"/>
      <path d="M 125.5797 52.02565 C 125.5797 52.02565 124.2159 54.85822 124.5306 55.80243 C 124.8454 56.74664 127.1534 60.31369 127.4682 62.51683 C 127.7829 64.71997 127.4682 66.29369 127.4682 66.29369 " id="path683" style="fill:none;fill-rule:evenodd;stroke:black;stroke-opacity:1;stroke-width:0.6250;stroke-linejoin:miter;stroke-linecap:butt;fill-opacity:1;stroke-dasharray:none;"/>
      <path d="M 123.1668 57.27124 C 123.1668 57.27124 123.5864 60.62848 124.2159 61.25790 C 124.8454 61.88733 126.5240 64.71997 126.7338 65.87399 " id="path684" style="fill:none;fill-rule:evenodd;stroke:black;stroke-opacity:1;stroke-width:0.6250;stroke-linejoin:miter;stroke-linecap:butt;fill-opacity:1;stroke-dasharray:none;"/>
      <path d="M 122.3275 71.22449 C 122.3275 71.22449 125.0552 72.58847 127.5731 67.34280 " id="path685" style="fill:none;fill-rule:evenodd;stroke:black;stroke-opacity:1;stroke-width:0.6250;stroke-linejoin:miter;stroke-linecap:butt;fill-opacity:1;stroke-dasharray:none;"/>
      <path d="M 131.6646 63.67085 C 131.5597 63.67085 129.6713 68.81154 133.0285 70.69997 C 136.3857 72.58839 138.9036 72.37851 140.3723 71.85399 C 141.8411 71.32947 143.4148 70.38525 143.4148 70.38525 " id="path686" style="fill:none;fill-rule:evenodd;stroke:black;stroke-opacity:1;stroke-width:0.6250;stroke-linejoin:miter;stroke-linecap:butt;fill-opacity:1;stroke-dasharray:none;"/>
      <path d="M 130.1959 69.96556 C 130.1959 69.96556 130.4057 76.88985 140.5822 83.70908 " id="path687" style="fill:none;fill-rule:evenodd;stroke:black;stroke-opacity:1;stroke-width:0.6250;stroke-linejoin:miter;stroke-linecap:butt;fill-opacity:1;stroke-dasharray:none;"/>
      <path d="M 130.6155 76.47015 C 130.6155 76.47015 130.5106 82.55498 134.4973 85.28271 " id="path688" style="fill:none;fill-rule:evenodd;stroke:black;stroke-opacity:1;stroke-width:0.6250;stroke-linejoin:miter;stroke-linecap:butt;fill-opacity:1;stroke-dasharray:none;"/>
      <path d="M 128.5173 69.33614 C 128.5173 69.33614 125.4748 78.35851 123.0619 79.30272 " id="path689" style="fill:none;fill-rule:evenodd;stroke:black;stroke-opacity:1;stroke-width:0.6250;stroke-linejoin:miter;stroke-linecap:butt;fill-opacity:1;stroke-dasharray:none;"/>
      <path d="M 127.5731 75.94556 C 127.5731 75.94556 127.4682 82.45015 126.6289 84.75819 " id="path690" style="fill:none;fill-rule:evenodd;stroke:black;stroke-opacity:1;stroke-width:0.6250;stroke-linejoin:miter;stroke-linecap:butt;fill-opacity:1;stroke-dasharray:none;"/>
      <path d="M 125.7896 86.33183 C 125.7896 86.33183 127.8878 88.95467 130.1959 88.74486 C 132.5039 88.53505 133.4481 85.80724 135.0218 86.22693 C 136.5955 86.64662 138.0643 87.90562 141.7362 87.59084 " id="path691" style="fill:none;fill-rule:evenodd;stroke:black;stroke-opacity:1;stroke-width:0.6250;stroke-linejoin:miter;stroke-linecap:butt;fill-opacity:1;stroke-dasharray:none;"/>
      <path d="M 136.4906 90.31850 C 136.4906 90.31850 136.4906 95.66899 137.4348 96.19359 C 138.3790 96.71819 137.9594 101.6490 137.9594 101.6490 " id="path692" style="fill:none;fill-rule:evenodd;stroke:black;stroke-opacity:1;stroke-width:0.6250;stroke-linejoin:miter;stroke-linecap:butt;fill-opacity:1;stroke-dasharray:none;"/>
      <path d="M 123.6913 87.80064 C 123.6913 87.80064 123.5864 92.83650 122.9569 94.61995 C 122.3275 96.40340 121.0685 99.44592 121.2784 102.0687 " id="path693" style="fill:none;fill-rule:evenodd;stroke:black;stroke-opacity:1;stroke-width:0.6250;stroke-linejoin:miter;stroke-linecap:butt;fill-opacity:1;stroke-dasharray:none;"/>
      <path d="M 117.2917 105.0061 C 117.8162 104.7963 119.5998 103.2227 119.5998 103.2227 " id="path694" sodipodi:nodetypes="cc" style="fill:none;fill-rule:evenodd;stroke:black;stroke-opacity:1;stroke-width:0.6250;stroke-linejoin:miter;stroke-linecap:butt;fill-opacity:1;stroke-dasharray:none;"/>
      <path d="M 120.5440 104.3767 C 120.5440 104.3767 116.0327 123.6806 117.2917 135.2209 " id="path695" style="fill:none;fill-rule:evenodd;stroke:black;stroke-opacity:1;stroke-width:0.6250;stroke-linejoin:miter;stroke-linecap:butt;fill-opacity:1;stroke-dasharray:none;"/>
      <path d="M 121.5931 105.3209 C 121.5931 105.3209 119.2850 119.7988 120.3341 122.5265 " id="path696" style="fill:none;fill-rule:evenodd;stroke:black;stroke-opacity:1;stroke-width:0.6250;stroke-linejoin:miter;stroke-linecap:butt;fill-opacity:1;stroke-dasharray:none;"/>
      <path d="M 120.4391 104.9013 C 120.5440 104.9013 129.2517 105.5307 129.2517 105.5307 " id="path697" style="fill:none;fill-rule:evenodd;stroke:black;stroke-opacity:1;stroke-width:0.6250;stroke-linejoin:miter;stroke-linecap:butt;fill-opacity:1;stroke-dasharray:none;"/>
      <path d="M 130.5106 104.3767 C 130.5106 104.3767 132.9236 105.6357 136.2808 105.4258 " id="path698" style="fill:none;fill-rule:evenodd;stroke:black;stroke-opacity:1;stroke-width:0.6250;stroke-linejoin:miter;stroke-linecap:butt;fill-opacity:1;stroke-dasharray:none;"/>
      <path d="M 129.4615 111.4058 C 129.4615 111.4058 129.0418 136.1651 128.4124 141.6205 " id="path699" style="fill:none;fill-rule:evenodd;stroke:black;stroke-opacity:1;stroke-width:0.6250;stroke-linejoin:miter;stroke-linecap:butt;fill-opacity:1;stroke-dasharray:none;"/>
      <path d="M 142.3657 117.0711 C 142.3657 117.0711 145.0934 138.7879 146.6671 140.7812 " id="path700" style="fill:none;fill-rule:evenodd;stroke:black;stroke-opacity:1;stroke-width:0.6250;stroke-linejoin:miter;stroke-linecap:butt;fill-opacity:1;stroke-dasharray:none;"/>
      <path d="M 137.1201 119.7988 C 137.1201 119.7988 138.7987 138.9977 139.7429 140.6763 " id="path701" style="fill:none;fill-rule:evenodd;stroke:black;stroke-opacity:1;stroke-width:0.6250;stroke-linejoin:miter;stroke-linecap:butt;fill-opacity:1;stroke-dasharray:none;"/>
      <path d="M 113.3051 147.3907 C 113.3051 147.3907 116.5573 146.3415 119.4948 143.1942 C 122.8521 147.7054 127.9927 143.4041 127.9927 143.4041 C 127.9927 143.4041 135.9660 148.8595 139.5331 142.7746 C 144.9885 146.3416 147.7162 142.2500 147.7162 142.2500 C 147.7162 142.2500 149.7096 145.2924 151.1783 144.9777 " id="path702" sodipodi:nodetypes="cccccc" style="fill:none;fill-rule:evenodd;stroke:black;stroke-opacity:1;stroke-width:0.6250;stroke-linejoin:miter;stroke-linecap:butt;fill-opacity:1.0000;stroke-dasharray:none;"/>
      <path d="M 142.4706 147.0759 C 142.4706 147.0759 146.5622 166.2749 152.6471 171.7303 " id="path703" style="fill:none;fill-rule:evenodd;stroke:black;stroke-opacity:1;stroke-width:0.6250;stroke-linejoin:miter;stroke-linecap:butt;fill-opacity:1;stroke-dasharray:none;"/>
      <path d="M 121.3833 145.0826 C 121.3833 145.0826 121.9078 161.1342 122.8520 172.4646 " id="path704" style="fill:none;fill-rule:evenodd;stroke:black;stroke-opacity:1;stroke-width:0.6250;stroke-linejoin:miter;stroke-linecap:butt;fill-opacity:1;stroke-dasharray:none;"/>
      <path d="M 120.6489 163.2324 C 120.6489 163.2324 120.1243 173.7236 119.4948 174.4580 " id="path705" style="fill:none;fill-rule:evenodd;stroke:black;stroke-opacity:1;stroke-width:0.6250;stroke-linejoin:miter;stroke-linecap:butt;fill-opacity:1;stroke-dasharray:none;"/>
      <path d="M 114.4591 175.5071 C 114.4591 175.5071 115.6131 180.0184 121.3833 175.8219 C 127.1534 171.6253 127.2583 177.3956 127.4682 178.0250 C 127.6780 178.6544 128.6222 183.1657 130.8253 179.3889 " id="path707" style="fill:none;fill-rule:evenodd;stroke:black;stroke-opacity:1;stroke-width:0.6250;stroke-linejoin:miter;stroke-linecap:butt;fill-opacity:1;stroke-dasharray:none;"/>
      <path d="M 135.4415 173.1991 C 135.4415 173.1991 134.4973 182.5361 142.7853 175.7169 C 151.0734 168.8977 152.4372 175.6121 152.6470 177.7103 " id="path708" sodipodi:nodetypes="ccc" style="fill:none;fill-rule:evenodd;stroke:black;stroke-opacity:1;stroke-width:0.6250;stroke-linejoin:miter;stroke-linecap:butt;fill-opacity:1;stroke-dasharray:none;"/>
      <path d="M 125.4748 28.84010 C 125.4748 28.84010 127.7829 29.15474 129.0418 28.42041 C 130.3008 27.68608 131.7696 27.37137 132.8187 28.84010 C 133.8678 30.30884 134.6022 30.20393 134.6022 30.20393 C 134.6022 30.20393 133.0285 34.08562 134.6022 34.50531 C 136.1759 34.92500 136.9102 34.92493 137.0152 35.44952 C 137.1201 35.97412 135.6513 37.12807 136.0709 37.65266 C 136.4906 38.17726 137.2250 38.80676 137.3299 39.22638 C 137.4348 39.64600 136.3857 41.42944 136.7004 41.84914 C 137.0152 42.26883 137.9594 43.94745 138.5888 43.94745 C 139.2183 43.94745 138.7987 46.57028 140.6871 45.94078 C 142.5755 45.31128 142.4706 43.63266 142.4706 43.63266 C 142.4706 43.63266 144.4639 43.31795 144.9885 41.53442 C 145.5130 39.75090 146.7720 39.33128 146.7720 39.33128 C 146.7720 39.33128 149.2899 37.96745 145.9327 35.86922 C 145.9327 21.18149 136.2808 22.75520 136.2808 22.75520 C 136.2808 22.75520 135.1267 20.13229 133.2383 20.44708 C 131.3499 20.76187 131.2450 22.96509 129.8811 22.75520 C 128.5173 22.54532 128.2026 21.60118 128.0976 21.70609 C 127.9927 21.81099 126.8387 23.90915 126.8387 24.43375 C 126.8387 24.95834 123.1668 23.69934 123.4815 26.42708 C 123.7962 29.15482 125.5797 29.04991 125.4748 28.84010 z " id="path709" sodipodi:nodetypes="cccccccccccccccccccccc" style="fill:#9c5100;fill-rule:evenodd;stroke:black;stroke-opacity:1;stroke-width:0.6250;stroke-linejoin:miter;stroke-linecap:butt;fill-opacity:1.0000;stroke-dasharray:none;"/>
      <path d="M 135.5464 25.27306 C 135.5464 25.27306 134.8120 29.88914 139.7429 29.46953 C 139.1134 31.98746 141.0018 32.82677 141.0018 32.82677 " id="path710" sodipodi:nodetypes="ccc" style="fill:none;fill-rule:evenodd;stroke:black;stroke-opacity:1;stroke-width:0.6250;stroke-linejoin:miter;stroke-linecap:butt;fill-opacity:1;stroke-dasharray:none;"/>
      <path d="M 144.6737 35.65930 C 144.7787 35.65930 146.8769 37.02313 144.5688 38.70175 " id="path711" style="fill:none;fill-rule:evenodd;stroke:black;stroke-opacity:1;stroke-width:0.6250;stroke-linejoin:miter;stroke-linecap:butt;fill-opacity:1;stroke-dasharray:none;"/>
      <path d="M 137.5398 39.33121 C 137.5398 39.33121 138.5888 40.59021 139.7429 40.27550 C 140.8969 39.96078 142.7853 41.42952 142.7853 41.42952 C 142.7853 41.42952 144.3590 41.95404 144.5688 41.63933 " id="path712" sodipodi:nodetypes="cccc" style="fill:none;fill-rule:evenodd;stroke:black;stroke-opacity:1;stroke-width:0.6250;stroke-linejoin:miter;stroke-linecap:butt;fill-opacity:1;stroke-dasharray:none;"/>
      <path d="M 131.1401 43.31792 C 131.1401 43.31792 134.7071 44.68182 137.0152 39.01654 " id="path713" style="fill:none;fill-rule:evenodd;stroke:black;stroke-opacity:1;stroke-width:0.6250;stroke-linejoin:miter;stroke-linecap:butt;fill-opacity:1;stroke-dasharray:none;"/>
      <path d="M 124.5306 37.33792 L 126.6289 37.44283 " id="path714" style="fill:none;fill-rule:evenodd;stroke:black;stroke-opacity:1;stroke-width:0.6250;stroke-linejoin:miter;stroke-linecap:butt;fill-opacity:1;stroke-dasharray:none;"/>
      <path d="M 124.8454 39.43616 L 126.7338 39.43616 L 125.0552 40.17056 " id="path715" style="fill:none;fill-rule:evenodd;stroke:black;stroke-opacity:1;stroke-width:0.6250;stroke-linejoin:round;stroke-linecap:butt;fill-opacity:1;stroke-dasharray:none;"/>
      <path d="M 127.4682 33.56107 C 127.7829 33.56107 128.9369 33.14137 129.1468 33.45616 C 129.3566 33.77095 127.8878 33.98076 127.4682 33.56107 z " id="path716" style="fill:none;fill-rule:evenodd;stroke:black;stroke-opacity:1;stroke-width:1.1250;stroke-linejoin:round;stroke-linecap:butt;fill-opacity:1;stroke-dasharray:none;"/>
      <path d="M 150.1292 58.48671 C 150.2341 58.48671 153.5913 68.87306 154.0109 71.49582 C 154.4306 74.11858 155.7944 84.60976 155.2699 86.07857 C 154.7453 87.54738 149.3948 94.57642 148.7653 96.35994 C 148.1358 98.14346 144.3590 104.9628 144.3590 104.9628 C 144.3590 104.9628 143.4148 111.6772 142.9951 111.9919 C 142.5755 112.3067 144.0782 113.9547 143.9394 114.5098 C 143.7312 115.1343 140.8969 118.0768 139.6380 117.7621 C 138.3790 117.4473 136.3857 115.9785 136.2808 114.6147 C 136.1759 113.2509 136.3857 108.7396 137.3299 107.5856 C 138.2741 106.4316 143.2050 94.78630 143.5197 94.05190 C 143.8344 93.31749 148.0309 84.19022 148.1358 82.61650 C 148.2408 81.04279 146.8304 77.40379 145.3467 76.06850 C 142.0447 66.35033 143.3421 60.48973 150.1292 58.48671 z " id="path673" sodipodi:nodetypes="cccccccccccccc" style="fill:#ffc6b5;fill-rule:evenodd;stroke:black;stroke-opacity:1;stroke-width:0.6250;stroke-linejoin:miter;stroke-linecap:butt;fill-opacity:1.0000;stroke-dasharray:none;"/>
      <path d="M 101.2544 103.5006 L 101.4186 108.0983 " id="path726" style="fill:none;fill-rule:evenodd;stroke:black;stroke-opacity:1;stroke-width:0.6250;stroke-linejoin:miter;stroke-linecap:butt;fill-opacity:1;stroke-dasharray:none;"/>
      <path d="M 96.94218 103.1597 C 96.94218 103.1597 99.88990 108.0895 99.64359 110.7167 " id="path727" sodipodi:nodetypes="cc" style="fill:none;fill-rule:evenodd;stroke:black;stroke-opacity:1;stroke-width:0.6250;stroke-linejoin:miter;stroke-linecap:butt;fill-opacity:1;stroke-dasharray:none;"/>
      <path d="M 136.4511 113.4604 C 136.4511 113.4604 138.6551 113.2288 138.5857 116.9085 C 139.9931 112.3374 142.8549 112.2288 142.8549 112.2288 " id="path728" sodipodi:nodetypes="ccc" style="fill:none;fill-rule:evenodd;stroke:black;stroke-opacity:1;stroke-width:0.6250;stroke-linejoin:round;stroke-linecap:butt;fill-opacity:1;stroke-dasharray:none;"/>
    </g>
    <path d="M 128.9231 218.5161 C 173.2308 217.2853 201.8461 185.2853 201.5384 184.9776 C 201.2308 184.6699 207.3846 176.0545 212.3077 177.2853 C 217.2308 178.5161 224.3077 192.9776 232.9231 196.0545 C 237.2307 202.8237 231.6923 208.9776 229.8461 210.2084 C 228.0000 211.4392 219.6923 214.8238 218.4615 209.9007 C 217.2308 204.9776 214.7692 205.9007 214.7692 205.9007 C 214.7692 205.9007 175.3846 244.3622 129.8461 242.8238 C 82.76922 243.1315 44.00000 205.9007 44.00000 205.9007 L 40.61538 209.5930 C 40.61538 209.5930 36.92307 213.5930 35.07692 213.2853 C 33.23077 212.9776 25.23077 207.7469 24.61538 202.5161 C 24 197.2853 29.53846 193.9007 29.53846 193.9007 C 29.53846 193.9007 43.07693 183.4391 44.61538 177.9007 C 47.69230 174.8238 53.53846 180.0545 53.53846 180.0545 C 53.53846 180.0545 89.23077 220.9776 128.9231 218.5161 z " id="path780" sodipodi:nodetypes="cccccccccccccccc" style="fill:#f7c600;fill-rule:evenodd;stroke:black;stroke-opacity:1;stroke-width:1pt;stroke-linejoin:miter;stroke-linecap:butt;fill-opacity:1.0000;"/>
    <path d="M 28.61869 194.7167 C 28.61869 194.7167 32.27993 193.7403 33.62239 195.2659 C 34.96484 196.7914 44.17896 205.8225 44.17896 205.8225 " id="path782" style="fill:none;fill-rule:evenodd;stroke:black;stroke-opacity:1;stroke-width:1pt;stroke-linejoin:miter;stroke-linecap:butt;fill-opacity:1;"/>
    <path d="M 36.97852 198.9882 L 33.31728 201.7341 C 33.31728 201.7341 42.53141 203.5645 40.45671 209.6057 " id="path783" sodipodi:nodetypes="ccc" style="fill:none;fill-rule:evenodd;stroke:black;stroke-opacity:1;stroke-width:1pt;stroke-linejoin:miter;stroke-linecap:butt;fill-opacity:1;"/>
    <path d="M 229.6208 194.4116 C 229.6208 194.4116 227.7901 193.4352 224.9222 195.5710 C 222.0542 197.7067 214.7927 205.8225 214.7927 205.8225 " id="path784" style="fill:none;fill-rule:evenodd;stroke:black;stroke-opacity:1;stroke-width:1pt;stroke-linejoin:miter;stroke-linecap:butt;fill-opacity:1;"/>
    <path d="M 221.3830 198.7441 L 225.3493 201.7951 C 225.3493 201.7951 217.0505 202.3443 218.8811 210.2160 " id="path785" style="fill:none;fill-rule:evenodd;stroke:black;stroke-opacity:1;stroke-width:1pt;stroke-linejoin:miter;stroke-linecap:butt;fill-opacity:1;"/>
    <text id="text786" sodipodi:linespacing="100%" style="fill:black;stroke:none;font-family:Times New Roman;font-style:normal;font-weight:bold;font-size:22;fill-opacity:1;stroke-opacity:1;stroke-width:1pt;stroke-linejoin:miter;stroke-linecap:butt;text-anchor:start;writing-mode:lr;" transform="matrix(0.756654,0.653816,-0.653816,0.756654,0,0)" x="177.260509" y="120.607453">
      <tspan id="tspan815" sodipodi:role="line" x="177.260513" y="120.607452">V</tspan>
    </text>
    <text id="text789" sodipodi:linespacing="100%" style="fill:black;stroke:none;font-family:Times New Roman;font-style:normal;font-weight:bold;font-size:22;fill-opacity:1;stroke-opacity:1;stroke-width:1pt;stroke-linejoin:miter;stroke-linecap:butt;text-anchor:start;writing-mode:lr;" transform="matrix(0.873377,0.487045,-0.487045,0.873377,0,0)" x="172.522004" y="157.609320">
      <tspan id="tspan819" sodipodi:role="line" x="172.522003" y="157.609314">I</tspan>
    </text>
    <text id="text792" sodipodi:linespacing="100%" style="fill:black;stroke:none;font-family:Times New Roman;font-style:normal;font-weight:bold;font-size:22;fill-opacity:1;stroke-opacity:1;stroke-width:1pt;stroke-linejoin:miter;stroke-linecap:butt;text-anchor:start;writing-mode:lr;" transform="matrix(0.892446,0.451154,-0.451154,0.892446,0,0)" x="181.046613" y="163.470521">
      <tspan id="tspan793">G</tspan>
    </text>
    <text id="text795" sodipodi:linespacing="100%" style="fill:black;stroke:none;font-family:Times New Roman;font-style:normal;font-weight:bold;font-size:22;fill-opacity:1;stroke-opacity:1;stroke-width:1pt;stroke-linejoin:miter;stroke-linecap:butt;text-anchor:start;writing-mode:lr;" transform="matrix(0.999028,-4.408645e-2,4.408645e-2,0.999028,0,0)" x="118.022480" y="243.340788">
      <tspan id="tspan796">L</tspan>
    </text>
    <text id="text798" sodipodi:linespacing="100%" style="fill:black;stroke:none;font-family:Times New Roman;font-style:normal;font-weight:bold;font-size:22;fill-opacity:1;stroke-opacity:1;stroke-width:1pt;stroke-linejoin:miter;stroke-linecap:butt;text-anchor:start;writing-mode:lr;" transform="matrix(0.964353,-0.264621,0.264621,0.964353,0,0)" x="83.9857713" y="267.104343">
      <tspan id="tspan799">A</tspan>
    </text>
    <text id="text801" sodipodi:linespacing="100%" style="fill:black;stroke:none;font-family:Times New Roman;font-style:normal;font-weight:bold;font-size:22;fill-opacity:1;stroke-opacity:1;stroke-width:1pt;stroke-linejoin:miter;stroke-linecap:butt;text-anchor:start;writing-mode:lr;" transform="matrix(0.873361,-0.487073,0.487073,0.873361,0,0)" x="41.6644656" y="285.000222">
      <tspan id="tspan802">T</tspan>
    </text>
    <text id="text804" sodipodi:linespacing="100%" style="fill:black;stroke:none;font-family:Times New Roman;font-style:normal;font-weight:bold;font-size:22;fill-opacity:1;stroke-opacity:1;stroke-width:1pt;stroke-linejoin:miter;stroke-linecap:butt;text-anchor:start;writing-mode:lr;" transform="matrix(0.749285,-0.662248,0.662248,0.749285,0,0)" x="2.92775328" y="291.455554">
      <tspan id="tspan805">E</tspan>
    </text>
    <text id="text821" sodipodi:linespacing="100%" style="fill:black;stroke:none;font-family:Times New Roman;font-style:normal;font-weight:bold;font-size:22;fill-opacity:1;stroke-opacity:1;stroke-width:1pt;stroke-linejoin:miter;stroke-linecap:butt;text-anchor:start;writing-mode:lr;" transform="matrix(0.997332,7.300235e-2,-7.300235e-2,0.997332,0,0)" x="129.992496" y="227.765688">
      <tspan id="tspan822" sodipodi:role="line" x="129.992493" y="227.765686">I</tspan>
    </text>
  </g>
  <g id="g878" style="font-size:12;" transform="matrix(8.267717,0.000000,0.000000,8.267722,0.000000,2.288818e-5)">
    <path d="M 0 0 L 0 3.3541 L 53.2918 30 L 60 30 L 60 26.6459 L 6.7082 0 L 0 0 z M 60 0 L 60 3.35405 L 6.7082 30 L 0 30 L 0 26.6458 L 53.2918 0 L 60 0 z " id="path879" style="font-size:12;fill:#ffffff;stroke-width:1pt;"/>
    <path d="M 25 0 L 25 30 L 35 30 L 35 0 L 25 0 z M 0 10 L 0 20 L 60 20 L 60 10 L 0 10 z " id="path880" style="font-size:12;fill:#ffffff;stroke-width:1pt;"/>
    <path d="M 0 12 L 0 18 L 60 18 L 60 12 L 0 12 z M 27 0 L 27 30 L 33 30 L 33 0 L 27 0 z " id="path881" style="font-size:12;fill:#cc0000;stroke-width:1pt;"/>
    <path d="M 0 30 L 20 20 L 24.4721 20 L 4.47214 30 L 0 30 z M 0 0 L 20 10 L 15.5279 10 L 0 2.23607 L 0 0 z M 35.5279 10 L 55.5279 0 L 60 0 L 40 10 L 35.5279 10 z M 60 30 L 40 20 L 44.4721 20 L 60 27.7639 L 60 30 z " id="path882" style="font-size:12;fill:#cc0000;stroke-width:1pt;"/>
  </g>
  <metadata>
    <rdf:RDF xmlns="http://web.resource.org/cc/" xmlns:dc="http://purl.org/dc/elements/1.1/" xmlns:rdf="http://www.w3.org/1999/02/22-rdf-syntax-ns#">
      <Work rdf:about="">
        <dc:title>British Virgin Islands</dc:title>
        <dc:description></dc:description>
        <dc:subject>
          <rdf:Bag>
            <rdf:li>united_kingdom</rdf:li>
            <rdf:li>flags</rdf:li>
            <rdf:li>caribbean</rdf:li>
            <rdf:li>sign</rdf:li>
            <rdf:li>signs_and_symbols</rdf:li>
            <rdf:li></rdf:li>
            <rdf:li>america</rdf:li>
          </rdf:Bag>
        </dc:subject>
        <dc:publisher>
          <Agent rdf:about="http://www.openclipart.org">
            <dc:title>Tobias Jakobs</dc:title>
          </Agent>
        </dc:publisher>
        <dc:creator>
          <Agent rdf:about="">
            <dc:title>Tobias Jakobs</dc:title>
          </Agent>
        </dc:creator>
        <dc:rights>
          <Agent rdf:about="">
            <dc:title>Tobias Jakobs</dc:title>
          </Agent>
        </dc:rights>
        <dc:date></dc:date>
        <dc:format>image/svg+xml</dc:format>
        <dc:type rdf:resource="http://purl.org/dc/dcmitype/StillImage"/>
        <license rdf:resource="http://web.resource.org/cc/PublicDomain">
          <dc:date></dc:date>
        </license>
        <dc:language>en</dc:language>
      </Work>
      <License rdf:about="http://web.resource.org/cc/PublicDomain">
        <permits rdf:resource="http://web.resource.org/cc/Reproduction"/>
        <permits rdf:resource="http://web.resource.org/cc/Distribution"/>
        <permits rdf:resource="http://web.resource.org/cc/DerivativeWorks"/>
      </License>
    </rdf:RDF>
  </metadata>
</svg>
