<?xml version="1.0" encoding="UTF-8" standalone="no"?>
<!DOCTYPE svg PUBLIC "-//W3C//DTD SVG 20010904//EN"
"http://www.w3.org/TR/2001/REC-SVG-20010904/DTD/svg10.dtd">
<!-- Created with Sodipodi ("http://www.sodipodi.com/") -->
<svg
   version="1"
   x="0.00000000"
   y="0.00000000"
   width="1000.00000"
   height="500.000000"
   id="svg1"
   xmlns="http://www.w3.org/2000/svg"
   xmlns:sodipodi="http://sodipodi.sourceforge.net/DTD/sodipodi-0.dtd"
   xmlns:xlink="http://www.w3.org/1999/xlink"
   sodipodi:version="0.32"
   sodipodi:docname="/home/scarlet/cayman islands.svg"
   sodipodi:docbase="/home/scarlet">
  <sodipodi:namedview
     id="base" />
  <defs
     id="defs3" />
  <rect
     width="120.000000"
     height="60.0000000"
     x="0.00000000"
     y="0.00000000"
     style="font-size:12;fill:#000066;stroke-width:1pt;"
     id="rect124"
     transform="scale(8.333333,8.333333)" />
  <g
     id="g584"
     transform="scale(8.333333,8.333333)"
     style="font-size:12;">
    <path
       d="M 0 0 L 0 3.3541 L 53.2918 30 L 60 30 L 60 26.6459 L 6.7082 0 L 0 0 z M 60 0 L 60 3.35405 L 6.7082 30 L 0 30 L 0 26.6458 L 53.2918 0 L 60 0 z "
       style="fill:#ffffff;stroke-width:1pt;"
       id="path146" />
    <path
       d="M 25 0 L 25 30 L 35 30 L 35 0 L 25 0 z M 0 10 L 0 20 L 60 20 L 60 10 L 0 10 z "
       style="fill:#ffffff;stroke-width:1pt;"
       id="path136" />
    <path
       d="M 0 12 L 0 18 L 60 18 L 60 12 L 0 12 z M 27 0 L 27 30 L 33 30 L 33 0 L 27 0 z "
       style="fill:#cc0000;stroke-width:1pt;"
       id="path141" />
    <path
       d="M 0 30 L 20 20 L 24.4721 20 L 4.47214 30 L 0 30 z M 0 0 L 20 10 L 15.5279 10 L 0 2.23607 L 0 0 z M 35.5279 10 L 55.5279 0 L 60 0 L 40 10 L 35.5279 10 z M 60 30 L 40 20 L 44.4721 20 L 60 27.7639 L 60 30 z "
       style="fill:#cc0000;stroke-width:1pt;"
       id="path150" />
  </g>
  <g
     id="g1812">
    <path
       style="font-size:12;fill:#ffffff;fill-rule:evenodd;stroke-width:1pt;"
       d="M 335.45 828.729 C 332.161 830.373 325.584 835.306 319.006 833.662 C 312.429 832.018 297.63 810.641 281.186 813.93 C 264.742 817.218 254.876 822.152 248.299 822.152 C 241.721 822.152 223.633 827.085 223.633 840.239 C 223.633 853.394 225.278 863.261 228.566 863.261 C 231.855 863.261 236.788 855.039 236.788 855.039 C 236.788 855.039 238.432 871.482 249.943 871.482 C 261.454 871.482 286.119 873.127 287.763 878.06 C 289.408 882.993 276.253 894.503 279.542 904.37 C 282.83 914.236 297.63 930.679 297.63 930.679 C 297.63 930.679 276.253 943.834 276.253 952.056 C 276.253 960.278 279.542 968.5 279.542 968.5 L 184.169 971.788 C 184.169 971.788 177.591 1205.29 180.88 1223.38 C 184.169 1241.46 192.39 1285.86 192.39 1285.86 C 192.39 1285.86 171.013 1280.11 152.925 1294.91 C 134.837 1309.71 71.5297 1335.19 69.8854 1346.7 C 68.2409 1358.21 62.4857 1368.08 69.0632 1376.3 C 75.6406 1384.52 98.7845 1406.86 92.0844 1405.9 C 70.0081 1402.75 61.7942 1376.8 46.8643 1367.26 C 32.1958 1357.89 3.28871 1359.86 6.9722e-14 1369.72 C -3.28871 1379.59 -1.64442 1396.03 6.9722e-14 1399.32 C 1.64442 1402.61 19.7323 1455.23 24.6654 1466.74 C 29.5985 1478.25 81.3959 1495.51 104.417 1493.87 C 147.992 1494.69 167.725 1478.25 169.369 1479.9 C 171.014 1481.54 263.115 1560.12 452.199 1560.47 C 599.39 1560.74 710.364 1481.54 710.364 1483.19 C 710.364 1484.83 771.206 1499.63 792.582 1494.7 C 813.959 1489.76 845.202 1478.25 851.779 1466.74 C 858.357 1455.23 876.445 1396.03 878.089 1386.17 C 879.734 1376.3 878.089 1364.79 863.29 1361.5 C 848.491 1358.21 840.269 1359.03 832.047 1362.32 C 823.825 1365.61 821.358 1374.66 809.026 1391.1 C 802.449 1396.04 785.183 1409.19 790.116 1405.9 C 795.049 1402.61 805.737 1377.95 807.382 1369.72 C 809.026 1361.5 813.959 1346.7 802.449 1338.48 C 790.938 1330.26 773.307 1326.9 753.117 1314.64 C 733.944 1303.77 718.587 1285.86 707.076 1285.86 C 695.565 1285.86 682.41 1280.93 684.055 1280.93 C 685.699 1280.93 698.881 1257.04 695.592 1232.38 C 692.304 1207.71 697.209 971.788 695.565 971.788 C 693.921 971.788 613.347 976.722 613.347 973.433 C 613.347 970.144 619.924 947.123 613.347 932.324 C 606.77 917.525 578.815 907.658 587.037 904.37 C 595.259 901.081 631.435 892.859 629.791 879.704 C 628.146 866.549 605.125 868.194 595.259 863.261 C 585.393 858.327 555.794 835.306 552.506 835.306 C 549.217 835.306 638.012 790.908 631.435 790.908 C 624.858 790.908 590.325 782.687 578.815 787.62 C 578.815 779.398 626.502 754.733 618.281 751.444 C 610.059 748.155 572.238 744.866 582.104 743.222 C 591.97 741.578 595.259 721.845 593.615 721.845 C 591.97 721.845 550.861 726.779 550.861 726.779 C 550.861 726.779 540.995 715.268 537.706 715.268 C 534.418 715.268 519.618 721.845 519.618 721.845 L 511.397 703.757 L 493.309 713.624 L 485.087 705.402 C 485.087 705.402 470.288 708.691 470.288 705.402 C 470.91 705.284 468.584 697.145 466.259 697.145 C 463.933 697.145 447.655 707.61 447.073 707.028 C 446.492 706.447 428.47 685.518 428.47 686.099 C 428.47 686.681 415.679 725.632 415.098 725.632 C 414.517 725.632 402.308 726.795 401.727 727.376 C 401.145 727.958 336.613 696.564 337.195 697.145 C 337.776 697.727 354.054 727.376 354.054 727.376 C 354.054 727.376 340.101 733.772 340.101 734.353 C 340.101 734.934 342.427 747.724 342.427 747.724 L 299.405 735.516 C 299.405 735.516 315.684 762.84 314.521 762.84 C 313.358 762.84 282.546 764.003 283.127 764.003 C 283.708 764.003 297.661 786.676 297.661 786.676 L 292.429 800.048 C 292.429 800.048 338.739 827.085 335.45 828.729 z M 610.059 1400.97 C 614.17 1405.9 636.368 1428.92 633.08 1428.92 C 629.791 1428.92 574.705 1459.34 552.506 1465.1 C 530.307 1470.85 457.955 1481.54 462.066 1480.72 C 466.177 1479.9 527.039 1452.33 551.704 1439.18 C 576.37 1426.03 610.059 1402.61 610.059 1400.97 z M 266.387 1400.14 C 263.098 1403.43 247.477 1428.92 247.477 1428.92 C 247.477 1428.92 292.697 1455.23 326.406 1465.1 C 360.115 1474.96 417.668 1478.25 414.379 1477.43 C 411.091 1476.61 342.027 1451.12 322.295 1437.97 C 302.563 1424.81 267.209 1400.14 266.387 1400.14 z "
       id="path852"
       transform="matrix(0.299809,0.000000,0.000000,0.362384,613.6340,-170.0146)"
       sodipodi:nodetypes="ccccccccccccccccccccccccccccccccccccccccccccccccccccccccccccccccccccccccccccccccccccccc" />
    <g
       id="g820"
       transform="matrix(0.299809,0.000000,0.000000,0.362384,585.9998,193.8939)"
       style="font-size:12;">
      <path
         style="fill:#fec500;fill-rule:evenodd;stroke:#6d6666;stroke-opacity:1;stroke-width:1.25;stroke-linejoin:miter;stroke-linecap:butt;fill-opacity:1;stroke-dasharray:none;"
         d="M 394.646 -212.972 C 394.646 -212.972 423.423 -195.707 430 -191.596 C 436.577 -187.485 457.954 -169.397 459.598 -170.219 C 461.243 -171.041 472.753 -180.085 472.753 -180.085 C 472.753 -180.085 448.91 -198.995 434.111 -203.106 C 419.312 -207.217 394.646 -211.328 394.646 -212.972 z "
         id="path793" />
      <path
         style="fill:#fec500;fill-rule:evenodd;stroke:#6d6666;stroke-opacity:1;stroke-width:1.25;stroke-linejoin:miter;stroke-linecap:butt;fill-opacity:1;stroke-dasharray:none;"
         d="M 390.535 -231.883 C 393.002 -231.883 438.222 -208.861 452.199 -197.351 C 466.176 -185.841 471.931 -171.041 473.576 -171.041 C 475.22 -171.041 496.597 -174.33 495.774 -174.33 C 494.952 -174.33 485.908 -203.928 465.354 -212.972 C 444.799 -222.016 391.358 -231.883 390.535 -231.883 z "
         id="path795" />
      <path
         style="fill:#fec500;fill-rule:evenodd;stroke:#6d6666;stroke-opacity:1;stroke-width:1.25;stroke-linejoin:miter;stroke-linecap:butt;fill-opacity:1;stroke-dasharray:none;"
         d="M 603.48 -296.013 C 602.658 -296.013 594.436 -271.347 591.969 -263.948 C 589.503 -256.548 585.392 -240.927 585.392 -240.927 C 585.392 -240.927 549.216 -237.638 550.86 -241.749 C 552.505 -245.86 605.946 -296.013 603.48 -296.013 z "
         id="path803"
         transform="translate(0.000000,4.650925)" />
      <path
         style="fill:#fec500;fill-rule:evenodd;stroke:#6d6666;stroke-opacity:1;stroke-width:1.25;stroke-linejoin:miter;stroke-linecap:butt;fill-opacity:1;stroke-dasharray:none;"
         d="M 398.757 -261.481 C 398.757 -261.481 441.511 -232.705 456.31 -216.261 C 471.109 -199.818 485.908 -171.041 486.73 -171.041 C 487.553 -171.041 527.017 -179.263 527.017 -178.441 C 527.017 -177.619 480.975 -224.483 458.776 -238.46 C 436.577 -252.437 399.579 -259.837 398.757 -261.481 z "
         id="path796" />
      <path
         style="fill:#fec500;fill-rule:evenodd;stroke:#6d6666;stroke-opacity:1;stroke-width:1.25;stroke-linejoin:miter;stroke-linecap:butt;fill-opacity:1;stroke-dasharray:none;"
         d="M 443.155 -273.814 C 443.155 -273.814 464.532 -240.927 468.642 -229.416 C 472.753 -217.906 485.086 -188.307 485.086 -188.307 L 518.795 -188.307 C 518.795 -188.307 502.352 -225.305 484.264 -243.393 C 466.176 -261.481 443.977 -272.169 443.155 -273.814 z "
         id="path797"
         transform="translate(0.000000,4.650925)" />
      <path
         style="fill:#fec500;fill-rule:evenodd;stroke:#6d6666;stroke-opacity:1;stroke-width:1.25;stroke-linejoin:miter;stroke-linecap:butt;fill-opacity:1;stroke-dasharray:none;"
         d="M 454.665 -291.902 C 455.488 -289.435 485.908 -260.659 493.308 -241.749 C 500.707 -222.839 506.463 -198.995 506.463 -198.995 L 536.061 -206.395 C 536.061 -206.395 509.751 -254.904 493.308 -268.059 C 476.864 -281.213 456.31 -290.257 454.665 -291.902 z "
         id="path798"
         transform="translate(0.000000,4.650925)" />
      <path
         style="fill:#fec500;fill-rule:evenodd;stroke:#6d6666;stroke-opacity:1;stroke-width:1.25;stroke-linejoin:miter;stroke-linecap:butt;fill-opacity:1;stroke-dasharray:none;"
         d="M 700.497 -209.684 C 700.497 -209.684 638.834 -203.106 616.635 -197.351 C 594.436 -191.596 582.103 -170.219 582.103 -170.219 C 582.103 -170.219 610.88 -159.531 612.524 -161.175 C 614.168 -162.819 631.434 -180.085 650.344 -186.663 C 669.254 -193.24 702.141 -208.862 700.497 -209.684 z "
         id="path799" />
      <path
         style="fill:#fec500;fill-rule:evenodd;stroke:#6d6666;stroke-opacity:1;stroke-width:1.25;stroke-linejoin:miter;stroke-linecap:butt;fill-opacity:1;stroke-dasharray:none;"
         d="M 698.031 -249.971 C 696.386 -249.148 647.056 -208.861 631.434 -195.707 C 615.813 -182.552 601.013 -168.575 599.369 -167.753 C 597.725 -166.93 567.304 -171.863 568.948 -173.508 C 570.593 -175.152 614.168 -210.506 642.945 -226.127 C 671.721 -241.749 695.564 -248.326 698.031 -249.971 z "
         id="path800" />
      <path
         style="fill:#fec500;fill-rule:evenodd;stroke:#6d6666;stroke-opacity:1;stroke-width:1.25;stroke-linejoin:miter;stroke-linecap:butt;fill-opacity:1;stroke-dasharray:none;"
         d="M 685.698 -278.747 C 680.765 -272.992 632.256 -233.527 619.101 -219.55 C 605.946 -205.573 584.57 -180.907 584.57 -180.907 C 584.57 -180.907 559.082 -192.418 560.727 -197.351 C 562.371 -202.284 596.902 -231.06 621.568 -247.504 C 646.233 -263.948 688.164 -277.103 685.698 -278.747 z "
         id="path801" />
      <path
         style="fill:#fec500;fill-rule:evenodd;stroke:#6d6666;stroke-opacity:1;stroke-width:1.25;stroke-linejoin:miter;stroke-linecap:butt;fill-opacity:1;stroke-dasharray:none;"
         d="M 636.367 -282.036 C 635.545 -281.213 606.769 -250.793 601.013 -242.571 C 595.258 -234.349 577.992 -198.173 577.992 -198.173 C 577.992 -198.173 552.505 -220.372 552.505 -221.194 C 552.505 -222.016 584.57 -255.726 603.48 -268.881 C 622.39 -282.036 637.189 -279.569 636.367 -282.036 z "
         id="path802" />
      <path
         sodipodi:type="arc"
         style="fill-rule:evenodd;stroke:#6d6666;fill:#fec500;fill-opacity:1;stroke-opacity:1;stroke-width:1pt;stroke-linejoin:miter;stroke-linecap:butt;"
         id="path818"
         d="M 565.090820 -241.765625 A 10.464661 10.464630 0 1 0 544.161499,-241.765625 A 10.4647 10.4646 0 1 0 565.091 -241.766 L 554.626160 -241.765625 z"
         sodipodi:cx="554.626160"
         sodipodi:cy="-241.765625"
         sodipodi:rx="10.464661"
         sodipodi:ry="10.464630"
         transform="translate(0.000000,4.650925)" />
      <path
         sodipodi:type="arc"
         style="fill-rule:evenodd;stroke:#6d6666;fill:#fec500;fill-opacity:1;stroke-opacity:1;stroke-width:1pt;stroke-linejoin:miter;stroke-linecap:butt;"
         id="path819"
         d="M 586.020142 -227.812714 A 10.464661 9.301872 0 1 0 565.090820,-227.812714 A 10.4647 9.30187 0 1 0 586.02 -227.813 L 575.555481 -227.812714 z"
         sodipodi:cx="575.555481"
         sodipodi:cy="-227.812714"
         sodipodi:rx="10.464661"
         sodipodi:ry="9.301872"
         transform="translate(0.000000,4.650925)" />
      <path
         sodipodi:type="arc"
         style="fill-rule:evenodd;stroke:#6d6666;fill:#fec500;fill-opacity:1;stroke-opacity:1;stroke-width:1pt;stroke-linejoin:miter;stroke-linecap:butt;"
         id="path817"
         d="M 539.510559 -238.277313 A 12.790100 9.301910 0 1 0 513.930359,-238.277313 A 12.7901 9.30191 0 1 0 539.511 -238.277 L 526.720459 -238.277313 z"
         sodipodi:cx="526.720459"
         sodipodi:cy="-238.277313"
         sodipodi:rx="12.790100"
         sodipodi:ry="9.301910"
         transform="translate(0.000000,4.650925)" />
      <path
         sodipodi:type="arc"
         style="fill-rule:evenodd;stroke:#6d6666;fill:#fec500;fill-opacity:1;stroke-opacity:1;stroke-width:1pt;stroke-linejoin:miter;stroke-linecap:butt;"
         id="path815"
         d="M 573.229980 -219.092163 A 14.534241 18.022423 0 1 0 544.161499,-219.092163 A 14.5342 18.0224 0 1 0 573.23 -219.092 L 558.695740 -219.092163 z"
         sodipodi:cx="558.695740"
         sodipodi:cy="-219.092163"
         sodipodi:rx="14.534241"
         sodipodi:ry="18.022423"
         transform="translate(0.000000,4.650925)" />
      <path
         sodipodi:type="arc"
         style="fill-rule:evenodd;stroke:#6d6666;fill:#fec500;fill-opacity:1;stroke-opacity:1;stroke-width:1pt;stroke-linejoin:miter;stroke-linecap:butt;"
         id="path805"
         d="M 533.696899 -218.510849 A 14.534225 13.952866 0 1 0 504.628418,-218.510849 A 14.5342 13.9529 0 1 0 533.697 -218.511 L 519.162659 -218.510849 z"
         sodipodi:cx="519.162659"
         sodipodi:cy="-218.510849"
         sodipodi:rx="14.534225"
         sodipodi:ry="13.952866"
         transform="translate(0.000000,4.650925)" />
      <path
         sodipodi:type="arc"
         style="fill-rule:evenodd;stroke:#6d6666;fill:#fec500;fill-opacity:1;stroke-opacity:1;stroke-width:1pt;stroke-linejoin:miter;stroke-linecap:butt;"
         id="path810"
         d="M 513.930359 -207.464813 A 11.046021 12.208748 0 1 0 491.838318,-207.464813 A 11.046 12.2087 0 1 0 513.93 -207.465 L 502.884338 -207.464813 z"
         sodipodi:cx="502.884338"
         sodipodi:cy="-207.464813"
         sodipodi:rx="11.046021"
         sodipodi:ry="12.208748"
         transform="translate(0.000000,4.650925)" />
      <path
         sodipodi:type="arc"
         style="fill-rule:evenodd;stroke:#6d6666;fill:#fec500;fill-opacity:1;stroke-opacity:1;stroke-width:1pt;stroke-linejoin:miter;stroke-linecap:butt;"
         id="path813"
         d="M 595.322021 -208.627502 A 16.859680 14.534225 0 1 0 561.602661,-208.627502 A 16.8597 14.5342 0 1 0 595.322 -208.628 L 578.462341 -208.627502 z"
         sodipodi:cx="578.462341"
         sodipodi:cy="-208.627502"
         sodipodi:rx="16.859680"
         sodipodi:ry="14.534225"
         transform="translate(0.000000,4.650925)" />
      <path
         sodipodi:type="arc"
         style="fill-rule:evenodd;stroke:#6d6666;fill:#fec500;fill-opacity:1;stroke-opacity:1;stroke-width:1pt;stroke-linejoin:miter;stroke-linecap:butt;"
         id="path806"
         d="M 554.626221 -229.556793 A 13.371521 8.720512 0 1 0 527.883179,-229.556793 A 13.3715 8.72051 0 1 0 554.626 -229.557 L 541.254700 -229.556793 z"
         sodipodi:cx="541.254700"
         sodipodi:cy="-229.556793"
         sodipodi:rx="13.371521"
         sodipodi:ry="8.720512"
         transform="translate(0.000000,4.650925)" />
      <path
         sodipodi:type="arc"
         style="fill-rule:evenodd;stroke:#6d6666;fill:#fec500;fill-opacity:1;stroke-opacity:1;stroke-width:1pt;stroke-linejoin:miter;stroke-linecap:butt;"
         id="path807"
         d="M 556.951660 -210.371613 A 18.603821 12.790108 0 1 0 519.744019,-210.371613 A 18.6038 12.7901 0 1 0 556.952 -210.372 L 538.347839 -210.371613 z"
         sodipodi:cx="538.347839"
         sodipodi:cy="-210.371613"
         sodipodi:rx="18.603821"
         sodipodi:ry="12.790108"
         transform="translate(0.000000,4.650925)" />
      <path
         sodipodi:type="arc"
         style="fill-rule:evenodd;stroke:#6d6666;fill:#fec500;fill-opacity:1;stroke-opacity:1;stroke-width:1pt;stroke-linejoin:miter;stroke-linecap:butt;"
         id="path814"
         d="M 604.623962 -187.698242 A 17.441101 15.696945 0 1 0 569.741760,-187.698242 A 17.4411 15.6969 0 1 0 604.624 -187.698 L 587.182861 -187.698242 z"
         sodipodi:cx="587.182861"
         sodipodi:cy="-187.698242"
         sodipodi:rx="17.441101"
         sodipodi:ry="15.696945"
         transform="translate(0.000000,4.650925)" />
      <path
         sodipodi:type="arc"
         style="fill-rule:evenodd;stroke:#6d6666;fill:#fec500;fill-opacity:1;stroke-opacity:1;stroke-width:1pt;stroke-linejoin:miter;stroke-linecap:butt;"
         id="path809"
         d="M 509.279419 -191.767838 A 9.883301 10.464630 0 1 0 489.512817,-191.767838 A 9.8833 10.4646 0 1 0 509.279 -191.768 L 499.396118 -191.767838 z"
         sodipodi:cx="499.396118"
         sodipodi:cy="-191.767838"
         sodipodi:rx="9.883301"
         sodipodi:ry="10.464630"
         transform="translate(0.000000,4.650925)" />
      <path
         sodipodi:type="arc"
         style="fill-rule:evenodd;stroke:#6d6666;fill:#fec500;fill-opacity:1;stroke-opacity:1;stroke-width:1pt;stroke-linejoin:miter;stroke-linecap:butt;"
         id="path812"
         d="M 579.043701 -193.511917 A 15.115601 13.371506 0 1 0 548.812500,-193.511917 A 15.1156 13.3715 0 1 0 579.044 -193.512 L 563.928101 -193.511917 z"
         sodipodi:cx="563.928101"
         sodipodi:cy="-193.511917"
         sodipodi:rx="15.115601"
         sodipodi:ry="13.371506"
         transform="translate(0.000000,4.650925)" />
      <path
         sodipodi:type="arc"
         style="fill-rule:evenodd;stroke:#6d6666;fill:#fec500;fill-opacity:1;stroke-opacity:1;stroke-width:1pt;stroke-linejoin:miter;stroke-linecap:butt;"
         id="path808"
         d="M 531.371399 -194.093323 A 13.371475 11.627388 0 1 0 504.628479,-194.093323 A 13.3715 11.6274 0 1 0 531.371 -194.093 L 517.999939 -194.093323 z"
         sodipodi:cx="517.999939"
         sodipodi:cy="-194.093323"
         sodipodi:rx="13.371475"
         sodipodi:ry="11.627388"
         transform="translate(0.000000,4.650925)" />
      <path
         sodipodi:type="arc"
         style="fill-rule:evenodd;stroke:#6d6666;fill:#fec500;fill-opacity:1;stroke-opacity:1;stroke-width:1pt;stroke-linejoin:miter;stroke-linecap:butt;"
         id="path811"
         d="M 554.626221 -190.605072 A 13.952881 12.790108 0 1 0 526.720459,-190.605072 A 13.9529 12.7901 0 1 0 554.626 -190.605 L 540.673340 -190.605072 z"
         sodipodi:cx="540.673340"
         sodipodi:cy="-190.605072"
         sodipodi:rx="13.952881"
         sodipodi:ry="12.790108"
         transform="translate(0.000000,4.650925)" />
      <path
         style="fill:#fec500;fill-rule:evenodd;stroke:#6d6666;stroke-opacity:1;stroke-width:1pt;stroke-linejoin:miter;stroke-linecap:butt;fill-opacity:1;"
         d="M 494.164 -267.346 C 497.652 -267.346 522.07 -259.207 522.07 -259.207 C 522.07 -259.207 491.838 -247.579 496.489 -248.742 C 501.14 -249.905 530.209 -253.393 527.883 -253.393 C 525.558 -253.393 502.303 -231.301 509.279 -232.464 C 516.256 -233.626 530.209 -247.579 531.371 -247.579 C 532.534 -247.579 546.487 -225.487 547.65 -226.65 C 548.812 -227.813 547.65 -248.742 548.812 -248.742 C 549.975 -248.742 577.881 -234.789 575.555 -235.952 C 573.23 -237.115 556.952 -253.393 558.114 -253.393 C 559.277 -253.393 596.485 -249.905 594.159 -251.068 C 591.834 -252.23 569.742 -262.695 569.742 -262.695 C 569.742 -262.695 586.02 -277.81 582.532 -277.81 C 579.044 -277.81 552.301 -262.695 554.626 -263.858 C 556.952 -265.02 583.695 -295.251 583.695 -295.251 L 556.952 -282.461 C 556.952 -282.461 561.603 -301.065 559.277 -299.903 C 556.952 -298.74 538.348 -275.485 537.185 -275.485 C 536.022 -275.485 531.371 -298.74 531.371 -298.74 C 531.371 -298.74 532.534 -273.16 525.558 -271.997 C 518.581 -270.834 494.164 -266.183 494.164 -267.346 z "
         id="path804"
         transform="translate(0.000000,4.650925)" />
    </g>
    <g
       id="g775"
       transform="matrix(0.299809,0.000000,0.000000,0.362384,618.8878,139.6106)"
       style="font-size:12;">
      <path
         style="fill:#00389b;fill-rule:evenodd;stroke:none;stroke-opacity:1;stroke-width:1pt;stroke-linejoin:miter;stroke-linecap:butt;fill-opacity:1;"
         d="M 308.707 75.0819 C 309.288 77.4074 327.892 119.266 356.379 118.103 C 384.866 116.94 396.493 109.964 395.331 109.383 C 394.168 108.801 381.959 101.825 374.983 86.7093 C 368.006 71.5937 366.843 65.1986 366.843 65.1986 L 308.707 75.0819 z "
         id="path772" />
      <path
         style="fill:#00389b;fill-rule:evenodd;stroke:none;stroke-opacity:1;stroke-width:1pt;stroke-linejoin:miter;stroke-linecap:butt;fill-opacity:1;"
         d="M 410.446 58.8036 C 410.446 58.8036 431.375 100.081 440.677 105.894 C 449.979 111.708 471.49 116.359 480.792 115.778 C 490.094 115.196 501.14 115.778 501.14 115.778 C 501.14 115.778 491.838 111.708 484.28 89.0348 C 476.722 66.3614 474.397 58.8036 474.397 58.8036 L 410.446 58.8036 z "
         id="path773" />
      <path
         style="fill:#00389b;fill-rule:evenodd;stroke:none;stroke-opacity:1;stroke-width:1pt;stroke-linejoin:miter;stroke-linecap:butt;fill-opacity:1;"
         d="M 538.347 73.9192 C 538.347 73.9192 534.278 104.15 538.347 111.708 C 542.417 119.266 562.765 133.219 562.765 133.219 C 562.765 133.219 587.182 130.312 587.763 111.708 C 588.345 93.1044 579.624 75.6633 579.624 75.6633 L 538.347 73.9192 z "
         id="path774" />
      <path
         style="fill:#005120;fill-rule:evenodd;stroke:black;stroke-opacity:1;stroke-width:1pt;stroke-linejoin:miter;stroke-linecap:butt;fill-opacity:1;"
         d="M 288.94 21.0147 C 288.94 21.0147 290.103 25.6656 288.94 29.1538 C 287.777 32.642 277.894 41.9439 277.894 49.5017 C 277.894 57.0595 289.521 80.3142 324.985 80.8956 C 360.448 81.4769 405.214 61.7104 404.632 61.129 C 404.051 60.5477 319.753 4.15501 318.59 4.73637 C 317.427 5.31773 288.94 22.1774 288.94 21.0147 z "
         id="path767" />
      <path
         style="fill:#005120;fill-rule:evenodd;stroke:black;stroke-opacity:1;stroke-width:1pt;stroke-linejoin:miter;stroke-linecap:butt;fill-opacity:1;"
         d="M 523.232 61.129 C 523.232 61.129 530.789 81.477 533.696 83.8025 C 536.603 86.1279 537.766 90.7789 538.347 90.7789 C 538.928 90.7789 587.182 101.243 587.182 101.243 C 587.182 101.243 591.833 87.8721 584.857 77.4074 C 577.88 66.9428 551.719 39.6184 551.719 39.6184 L 523.232 61.129 z "
         id="path768" />
      <path
         style="fill:#005120;fill-rule:evenodd;stroke:black;stroke-opacity:1;stroke-width:1pt;stroke-linejoin:miter;stroke-linecap:butt;fill-opacity:1;"
         d="M 556.37 36.1303 C 557.532 36.1303 569.16 46.0135 578.462 40.7812 C 587.763 35.5489 602.879 21.596 602.879 21.596 C 602.879 21.596 590.089 25.6657 580.787 25.0843 C 571.485 24.5028 556.951 36.7116 556.37 36.1303 z "
         id="path769" />
      <path
         style="fill:#005120;fill-rule:evenodd;stroke:black;stroke-opacity:1;stroke-width:1pt;stroke-linejoin:miter;stroke-linecap:butt;fill-opacity:1;"
         d="M 287.196 23.3401 C 287.196 23.3401 283.708 13.4568 274.406 12.8755 C 265.104 12.2941 248.244 14.0381 242.431 9.38725 C 236.617 4.73637 234.873 -6.30962 231.966 -5.72826 C 229.059 -5.1469 221.501 -5.72826 220.92 -5.72826 C 220.339 -5.72826 217.432 -15.0302 225.571 -19.6811 C 233.71 -24.3321 240.687 -20.2625 245.337 -23.7507 C 249.988 -27.239 256.965 -29.5644 266.267 -30.1458 C 275.569 -30.7271 290.684 -18.5183 297.661 -15.6115 C 304.637 -12.7047 319.753 -9.21657 325.566 -12.1234 C 331.38 -15.0302 363.937 -27.8203 375.564 -28.4017 C 387.191 -28.983 411.609 -29.5644 420.911 -28.983 C 430.213 -28.4017 466.839 -23.7507 477.885 -18.5184 C 488.931 -13.2861 547.649 7.06181 555.788 11.7128 C 563.927 16.3637 581.95 23.3401 581.95 23.3401 C 581.95 23.3401 549.974 54.734 534.278 59.9663 C 518.581 65.1986 468.583 73.3378 438.933 71.5937 C 409.283 69.8496 386.029 66.9427 363.355 55.3154 C 340.682 43.688 316.264 32.642 315.102 26.8284 C 313.939 21.0147 314.52 13.4568 314.52 13.4568 L 287.196 23.3401 z "
         id="path766" />
      <path
         style="fill:#005120;fill-rule:evenodd;stroke:black;stroke-opacity:1;stroke-width:1pt;stroke-linejoin:miter;stroke-linecap:butt;fill-opacity:1;"
         d="M 251.151 -14.4488 C 249.988 -13.8674 244.175 -11.5419 245.337 -10.3792 C 246.5 -9.21649 248.826 -5.72833 255.802 -6.30969 C 262.779 -6.89105 270.336 -10.9606 270.336 -10.9606 C 270.336 -10.9606 261.616 -15.0302 251.151 -14.4488 z "
         id="path770" />
      <path
         style="fill:#000000;fill-rule:evenodd;stroke:black;stroke-opacity:1;stroke-width:1pt;stroke-linejoin:miter;stroke-linecap:butt;fill-opacity:1;"
         d="M 250.57 -13.2861 L 250.57 -6.89105 C 250.57 -6.89105 258.709 -4.56561 258.709 -6.30969 C 258.709 -8.05377 259.29 -12.1234 257.546 -12.1234 C 255.802 -12.1234 251.151 -12.7047 250.57 -13.2861 z "
         id="path771" />
      <path
         style="fill:#001707;fill-rule:evenodd;stroke:#000007;stroke-opacity:1;stroke-width:1pt;stroke-linejoin:miter;stroke-linecap:butt;fill-opacity:1;"
         d="M 331.954 -8.45271 C 334.01 -12.1525 331.954 -17.0854 343.876 -22.8408 C 355.797 -28.5961 376.557 -26.9517 376.557 -26.9517 C 376.557 -26.9517 370.597 -22.4298 370.391 -17.7022 C 370.186 -12.9747 370.802 -10.9192 370.802 -10.9192 C 370.802 -10.9192 359.497 -14.619 350.864 -12.358 C 342.231 -10.0971 332.16 -7.83603 331.954 -8.45271 z "
         id="path757" />
      <path
         style="fill:#001707;fill-rule:evenodd;stroke:#000007;stroke-opacity:1;stroke-width:1pt;stroke-linejoin:miter;stroke-linecap:butt;fill-opacity:1;"
         d="M 385.396 -28.5961 C 384.163 -27.9794 375.119 -17.9077 376.146 -14.8246 C 377.174 -11.7414 389.301 -4.34184 393.207 -4.95845 C 397.112 -5.57506 414.994 -14.2079 416.022 -18.5244 C 417.05 -22.8408 417.872 -28.596 416.433 -29.8293 C 414.994 -31.0626 385.601 -28.1849 385.396 -28.5961 z "
         id="path758" />
      <path
         style="fill:#001707;fill-rule:evenodd;stroke:#000007;stroke-opacity:1;stroke-width:1pt;stroke-linejoin:miter;stroke-linecap:butt;fill-opacity:1;"
         d="M 424.655 -30.2404 C 422.394 -27.9794 423.216 -17.0856 424.038 -15.8523 C 424.86 -14.619 439.043 -0.436508 442.126 0.385712 C 445.209 1.20793 468.025 -1.05312 469.875 -3.51962 C 471.725 -5.98613 477.274 -16.4688 475.63 -18.9354 C 473.985 -21.402 469.052 -24.6907 453.842 -27.9794 C 438.632 -31.2681 429.588 -30.857 424.655 -30.2404 z "
         id="path760" />
      <path
         style="fill:#001707;fill-rule:evenodd;stroke:#000007;stroke-opacity:1;stroke-width:1pt;stroke-linejoin:miter;stroke-linecap:butt;fill-opacity:1;"
         d="M 482.824 -16.4689 C 486.524 -14.619 508.106 -4.13631 520.85 4.29105 C 533.593 12.7184 538.732 22.379 542.432 23.2012 C 546.132 24.0233 561.136 14.9794 561.753 12.5129 C 562.37 10.0463 543.46 -3.10855 530.716 -9.06932 C 517.972 -15.0301 482.824 -15.8523 482.824 -16.4689 z "
         id="path761" />
      <path
         style="fill:#001707;fill-rule:evenodd;stroke:#000007;stroke-opacity:1;stroke-width:1pt;stroke-linejoin:miter;stroke-linecap:butt;fill-opacity:1;"
         d="M 478.302 -7.63049 C 476.452 -5.98613 501.323 37.3837 506.05 38.8225 C 510.778 40.2614 539.143 30.3952 538.732 27.1065 C 538.321 23.8178 530.921 17.2403 513.45 7.57977 C 495.979 -2.0808 481.796 -8.45271 478.302 -7.63049 z "
         id="path762" />
      <path
         style="fill:#001707;fill-rule:evenodd;stroke:#000007;stroke-opacity:1;stroke-width:1pt;stroke-linejoin:miter;stroke-linecap:butt;fill-opacity:1;"
         d="M 447.47 8.19638 C 443.565 10.4574 437.399 49.3053 441.304 51.1552 C 445.209 53.0051 493.307 46.4277 495.157 42.1113 C 497.006 37.7948 475.424 3.4689 469.052 3.4689 C 462.681 3.4689 451.17 5.11327 447.47 8.19638 z "
         id="path763" />
      <path
         style="fill:#001707;fill-rule:evenodd;stroke:#000007;stroke-opacity:1;stroke-width:1pt;stroke-linejoin:miter;stroke-linecap:butt;fill-opacity:1;"
         d="M 397.729 -0.0253601 C 392.59 4.70219 393.618 40.878 395.879 43.139 C 398.14 45.4 426.71 52.7995 429.793 50.1275 C 432.877 47.4554 436.988 6.75763 434.11 3.67444 C 431.232 0.591248 423.216 -6.80835 417.05 -7.42496 C 410.883 -8.04156 400.606 -1.46426 397.729 -0.0253601 z "
         id="path764" />
      <path
         style="fill:#001707;fill-rule:evenodd;stroke:#000007;stroke-opacity:1;stroke-width:1pt;stroke-linejoin:miter;stroke-linecap:butt;fill-opacity:1;"
         d="M 333.188 -0.641968 C 328.46 3.05783 328.255 12.7184 333.393 14.3628 C 338.532 16.0071 351.275 21.5569 363.197 26.6954 C 375.119 31.834 381.902 38.0005 385.396 37.7948 C 388.89 37.5892 392.179 1.41347 388.479 -0.641968 C 384.779 -2.6974 373.885 -4.34177 363.608 -3.93069 C 353.331 -3.51962 338.326 -2.49187 333.188 -0.641968 z "
         id="path765" />
    </g>
    <g
       id="g1269"
       style="font-size:12;">
      <path
         style="font-size:12;fill:#d40f0f;fill-opacity:0.996078;fill-rule:evenodd;stroke-width:1pt;"
         d="M 63.5129 177.98 C 65.3628 176.13 68.2405 171.608 72.1458 171.403 C 76.0511 171.197 80.162 174.897 80.162 174.897 C 80.162 174.897 84.2728 192.163 84.0673 192.163 C 83.8618 192.163 77.2844 197.096 77.0788 197.096 C 76.8733 197.096 74.2012 190.313 71.7347 190.929 C 69.2682 191.546 69.4737 200.795 69.0626 200.179 C 68.6515 199.562 58.1688 186.818 58.5799 186.407 C 58.991 185.996 63.7185 178.597 63.5129 177.98 z "
         id="path643"
         transform="matrix(1.366673,0.000000,0.000000,1.330700,568.4628,69.30318)" />
      <path
         style="font-size:12;fill:#d40f0f;fill-opacity:0.996078;fill-rule:evenodd;stroke-width:1pt;"
         d="M 172.04 175.719 C 173.273 175.514 178.823 171.197 182.728 171.403 C 186.634 171.608 188.895 173.458 190.95 175.308 C 193.005 177.158 195.472 181.885 195.472 181.885 C 195.472 181.885 190.539 195.862 190.128 195.862 C 189.717 195.862 187.661 197.096 187.25 196.068 C 186.839 195.04 185.606 191.751 183.139 191.34 C 180.673 190.929 180.056 195.862 180.056 195.862 L 172.04 175.719 z "
         id="path642"
         transform="matrix(1.366673,0.000000,0.000000,1.330700,568.4628,69.30318)" />
      <path
         style="font-size:12;fill:#fddc59;fill-opacity:0.996078;fill-rule:evenodd;stroke-width:1pt;"
         d="M 174.712 180.035 C 174.712 181.269 182.317 200.59 194.65 204.289 C 206.982 207.989 210.888 200.795 212.326 198.329 C 213.765 195.862 218.904 196.068 218.904 196.068 C 218.904 196.068 217.671 214.156 215.615 216.417 C 213.56 218.678 211.915 223.611 200.405 223.816 C 188.895 224.022 178.412 212.717 174.918 209.428 C 171.423 206.139 166.901 197.507 165.051 193.601 C 163.202 189.696 174.917 180.447 174.712 180.035 z "
         id="path640"
         sodipodi:nodetypes="ccccccccc"
         transform="matrix(1.366673,0.000000,0.000000,1.330700,568.4628,69.30318)" />
      <path
         style="font-size:12;fill:#fddc59;fill-opacity:0.996081;fill-rule:evenodd;stroke-width:1pt;"
         d="M 40.6976 218.472 C 40.9032 218.472 46.2473 224.433 54.0579 223.816 C 61.8686 223.2 75.2289 218.472 81.3952 210.25 C 87.5615 202.029 90.6447 193.19 90.6447 193.19 C 90.6447 193.19 81.6008 176.747 81.3952 176.747 C 81.1897 176.747 80.3675 182.091 78.7232 185.585 C 77.0788 189.079 72.5569 198.945 64.9518 202.029 C 57.3466 205.112 57.3466 206.345 54.2635 205.934 C 51.1803 205.523 43.1641 200.59 43.1641 200.384 C 43.1641 200.179 39.2588 210.045 39.2588 210.045 C 39.2588 210.045 38.4366 216.417 40.6976 218.472 z "
         id="path641"
         transform="matrix(1.366673,0.000000,0.000000,1.330700,568.4628,69.30318)" />
      <path
         style="font-size:12;fill:#fddc59;fill-opacity:0.996078;fill-rule:evenodd;stroke-width:1pt;"
         d="M 63.3687 177.409 C 62.7873 177.409 48.2532 185.548 48.8346 189.037 C 49.4159 192.525 73.8333 241.941 126.156 242.522 C 178.478 243.104 210.454 197.757 208.128 190.199 C 205.803 182.642 189.525 173.921 189.525 173.921 C 189.525 173.921 193.594 177.409 193.013 182.06 C 192.431 186.711 174.409 226.825 129.063 225.663 C 83.7164 224.5 62.2059 189.037 62.2059 184.967 C 62.2059 180.898 64.5314 178.572 63.3687 177.409 z "
         id="path637"
         sodipodi:nodetypes="ccccccccc"
         transform="matrix(1.366673,0.000000,0.000000,1.330700,568.4628,69.30318)" />
      <path
         style="font-size:12;fill:#d40f0f;fill-opacity:0.996078;fill-rule:evenodd;stroke-width:1pt;"
         d="M 205.132 213.334 C 206.366 212.306 213.971 190.929 218.287 191.546 C 222.604 192.163 221.165 198.534 220.754 200.179 C 220.343 201.823 216.026 216.622 216.026 216.622 C 216.026 216.622 216.232 213.128 213.354 212.306 C 210.477 211.484 205.749 213.745 205.132 213.334 z "
         id="path639"
         transform="matrix(1.366673,0.000000,0.000000,1.330700,568.4628,69.30318)" />
      <path
         style="font-size:12;fill:#d40f0f;fill-opacity:0.996081;fill-rule:evenodd;stroke-width:1pt;"
         d="M 40.6955 218.686 C 40.6955 217.524 37.2073 213.454 41.2768 212.291 C 45.3464 211.129 50.5787 213.454 50.5787 213.454 C 50.5787 213.454 47.6718 204.733 44.1837 197.757 C 40.6955 190.781 39.5327 191.944 36.6259 193.106 C 33.7191 194.269 33.7897 197.346 35.5338 201.997 C 37.2779 206.648 40.6955 219.849 40.6955 218.686 z "
         id="path638"
         sodipodi:nodetypes="ccccccc"
         transform="matrix(1.366673,0.000000,0.000000,1.330700,568.4628,69.30318)" />
      <path
         style="font-size:12;font-weight:bold;stroke-width:1pt;font-family:Bitstream Charter;"
         d="M 271.898 135.866 C 272.642 136.13 273.446 136.262 274.214 136.262 C 276.182 136.262 277.394 135.23 277.394 133.802 C 277.394 133.094 277.01 132.446 276.314 132.002 C 275.606 131.546 274.97 131.366 274.598 131.138 C 273.962 130.754 273.626 130.394 273.626 129.842 C 273.626 129.182 274.166 128.702 275.042 128.702 C 275.426 128.702 275.702 128.762 275.918 128.87 L 276.086 129.038 L 276.29 130.286 L 277.154 130.286 L 277.154 128.342 C 276.398 128.078 275.642 127.934 274.898 127.934 C 273.182 127.934 272.066 128.966 272.066 130.298 C 272.066 130.886 272.354 131.474 272.906 131.942 C 273.434 132.386 273.998 132.59 274.478 132.83 C 275.33 133.262 275.762 133.694 275.762 134.342 C 275.762 135.002 275.186 135.482 274.214 135.482 C 273.842 135.482 273.494 135.422 273.158 135.314 L 273.002 135.134 L 272.81 133.694 L 271.898 133.694 L 271.898 135.866 z "
         id="path651"
         transform="matrix(0.581169,-0.931644,1.168087,0.690810,529.9910,485.1982)" />
      <path
         style="font-size:12;font-weight:bold;stroke-width:1pt;font-family:Bitstream Charter;"
         d="M 256.574 136.13 L 263.018 136.13 L 263.018 133.982 L 262.202 133.982 L 261.998 135.254 L 261.842 135.446 L 259.058 135.446 L 259.058 132.326 L 260.618 132.326 L 260.786 132.494 L 260.906 133.358 L 261.614 133.358 L 261.614 130.574 L 260.906 130.574 L 260.786 131.438 L 260.618 131.606 L 259.058 131.606 L 259.058 128.75 L 261.446 128.75 L 261.602 128.906 L 261.782 129.962 L 262.622 129.962 L 262.622 128.078 L 256.574 128.078 L 256.574 128.666 L 257.306 128.726 L 257.498 128.894 L 257.498 135.29 L 257.306 135.482 L 256.574 135.542 L 256.574 136.13 z "
         id="path654"
         transform="matrix(0.581169,-0.931644,1.168087,0.690810,529.9910,485.1982)" />
      <path
         style="font-size:12;font-weight:bold;stroke-width:1pt;font-family:Bitstream Charter;"
         d="M 250.118 135.866 C 250.862 136.13 251.666 136.262 252.434 136.262 C 254.402 136.262 255.614 135.23 255.614 133.802 C 255.614 133.094 255.23 132.446 254.534 132.002 C 253.826 131.546 253.19 131.366 252.818 131.138 C 252.182 130.754 251.846 130.394 251.846 129.842 C 251.846 129.182 252.386 128.702 253.262 128.702 C 253.646 128.702 253.922 128.762 254.138 128.87 L 254.306 129.038 L 254.51 130.286 L 255.374 130.286 L 255.374 128.342 C 254.618 128.078 253.862 127.934 253.118 127.934 C 251.402 127.934 250.286 128.966 250.286 130.298 C 250.286 130.886 250.574 131.474 251.126 131.942 C 251.654 132.386 252.218 132.59 252.698 132.83 C 253.55 133.262 253.982 133.694 253.982 134.342 C 253.982 135.002 253.406 135.482 252.434 135.482 C 252.062 135.482 251.714 135.422 251.378 135.314 L 251.222 135.134 L 251.03 133.694 L 250.118 133.694 L 250.118 135.866 z "
         id="path655"
         transform="matrix(0.581169,-0.931644,1.168087,0.690810,529.9910,485.1982)" />
      <path
         style="font-size:12;font-weight:bold;stroke-width:1pt;font-family:Bitstream Charter;"
         d="M 239.114 136.13 L 245.558 136.13 L 245.558 133.982 L 244.742 133.982 L 244.538 135.254 L 244.382 135.446 L 241.598 135.446 L 241.598 132.326 L 243.158 132.326 L 243.326 132.494 L 243.446 133.358 L 244.154 133.358 L 244.154 130.574 L 243.446 130.574 L 243.326 131.438 L 243.158 131.606 L 241.598 131.606 L 241.598 128.75 L 243.986 128.75 L 244.142 128.906 L 244.322 129.962 L 245.162 129.962 L 245.162 128.078 L 239.114 128.078 L 239.114 128.666 L 239.846 128.726 L 240.038 128.894 L 240.038 135.29 L 239.846 135.482 L 239.114 135.542 L 239.114 136.13 z "
         id="path656"
         transform="matrix(0.845947,-0.753344,0.922365,0.981938,495.9760,401.4282)" />
      <path
         style="font-size:12;font-weight:bold;stroke-width:1pt;font-family:Bitstream Charter;"
         d="M 230.006 128.078 L 230.006 128.666 L 230.702 128.726 L 230.894 128.918 L 230.894 135.29 L 230.702 135.482 L 230.006 135.542 L 230.006 136.13 L 233.402 136.13 L 233.402 135.542 L 232.682 135.482 L 232.49 135.29 L 232.49 132.266 L 235.958 132.266 L 235.958 135.29 L 235.778 135.482 L 235.058 135.542 L 235.058 136.13 L 238.442 136.13 L 238.442 135.542 L 237.746 135.482 L 237.554 135.29 L 237.554 128.918 L 237.746 128.726 L 238.442 128.666 L 238.442 128.078 L 235.058 128.078 L 235.058 128.666 L 235.778 128.726 L 235.958 128.918 L 235.958 131.546 L 232.49 131.546 L 232.49 128.918 L 232.682 128.726 L 233.402 128.666 L 233.402 128.078 L 230.006 128.078 z "
         id="path657"
         transform="matrix(0.845947,-0.753344,0.922365,0.981938,495.9760,401.4282)" />
      <path
         style="font-size:12;font-weight:bold;stroke-width:1pt;font-family:Bitstream Charter;"
         d="M 222.602 128.078 L 222.602 130.202 L 223.43 130.202 L 223.622 128.918 L 223.814 128.762 L 225.254 128.762 L 225.254 135.29 L 225.05 135.482 L 224.27 135.542 L 224.27 136.13 L 227.858 136.13 L 227.858 135.542 L 227.078 135.482 L 226.874 135.29 L 226.874 128.762 L 228.314 128.762 L 228.494 128.918 L 228.698 130.202 L 229.526 130.202 L 229.526 128.078 L 222.602 128.078 z "
         id="path658"
         transform="matrix(0.992785,-0.545465,0.679859,1.163078,494.6593,329.9091)" />
      <path
         style="font-size:12;font-weight:bold;stroke-width:1pt;font-family:Bitstream Charter;"
         d="M 210.506 136.13 L 213.242 136.13 L 213.242 135.554 L 212.498 135.458 L 212.306 135.242 L 212.306 129.686 L 216.458 136.13 L 217.802 136.13 L 217.802 128.966 L 218.006 128.738 L 218.714 128.642 L 218.714 128.078 L 215.978 128.078 L 215.978 128.642 L 216.71 128.738 L 216.926 128.966 L 216.926 134.102 L 213.254 128.402 L 213.254 128.078 L 210.494 128.078 L 210.494 128.666 L 211.262 128.726 L 211.43 128.894 L 211.43 135.242 L 211.214 135.458 L 210.506 135.554 L 210.506 136.13 z "
         id="path659"
         transform="matrix(0.898932,-0.569146,0.749449,1.117653,507.3068,340.6622)" />
      <path
         style="font-size:12;font-weight:bold;stroke-width:1pt;font-family:Bitstream Charter;"
         d="M 185.906 128.078 L 185.906 128.666 L 186.662 128.726 L 186.83 128.894 L 186.83 133.046 C 186.83 133.97 186.89 134.678 187.358 135.29 C 187.85 135.914 188.738 136.274 189.926 136.274 C 192.182 136.274 193.094 135.302 193.094 133.106 L 193.094 128.942 L 193.262 128.738 L 193.994 128.666 L 193.994 128.078 L 191.27 128.078 L 191.27 128.666 L 192.038 128.738 L 192.218 128.942 L 192.218 132.986 C 192.218 134.582 191.726 135.326 190.394 135.326 C 188.954 135.326 188.438 134.642 188.438 133.094 L 188.438 128.894 L 188.606 128.726 L 189.35 128.666 L 189.35 128.078 L 185.906 128.078 z "
         id="path664"
         transform="matrix(1.035691,-0.282474,0.368634,1.281379,529.3954,261.6406)" />
      <path
         style="font-size:12;font-weight:bold;stroke-width:1pt;font-family:Bitstream Charter;"
         d="M 175.13 128.078 L 175.13 130.202 L 175.958 130.202 L 176.15 128.918 L 176.342 128.762 L 177.782 128.762 L 177.782 135.29 L 177.578 135.482 L 176.798 135.542 L 176.798 136.13 L 180.386 136.13 L 180.386 135.542 L 179.606 135.482 L 179.402 135.29 L 179.402 128.762 L 180.842 128.762 L 181.022 128.918 L 181.226 130.202 L 182.054 130.202 L 182.054 128.078 L 175.13 128.078 z "
         id="path665"
         transform="matrix(1.143009,-0.206124,0.248888,1.308448,525.2958,244.0546)" />
      <path
         style="font-size:12;font-weight:bold;stroke-width:1pt;font-family:Bitstream Charter;"
         d="M 171.05 136.13 L 174.638 136.13 L 174.638 135.542 L 173.834 135.482 L 173.642 135.29 L 173.642 128.894 L 173.834 128.726 L 174.638 128.666 L 174.638 128.078 L 171.05 128.078 L 171.05 128.666 L 171.842 128.726 L 172.034 128.894 L 172.034 135.29 L 171.842 135.482 L 171.05 135.542 L 171.05 136.13 z "
         id="path666"
         transform="matrix(1.143009,-0.206124,0.248888,1.308448,525.2958,244.0546)" />
      <path
         style="font-size:12;font-weight:bold;stroke-width:1pt;font-family:Bitstream Charter;"
         d="M 151.802 136.13 L 158.246 136.13 L 158.246 133.982 L 157.43 133.982 L 157.226 135.254 L 157.07 135.446 L 154.286 135.446 L 154.286 132.326 L 155.846 132.326 L 156.014 132.494 L 156.134 133.358 L 156.842 133.358 L 156.842 130.574 L 156.134 130.574 L 156.014 131.438 L 155.846 131.606 L 154.286 131.606 L 154.286 128.75 L 156.674 128.75 L 156.83 128.906 L 157.01 129.962 L 157.85 129.962 L 157.85 128.078 L 151.802 128.078 L 151.802 128.666 L 152.534 128.726 L 152.726 128.894 L 152.726 135.29 L 152.534 135.482 L 151.802 135.542 L 151.802 136.13 z "
         id="path669"
         transform="matrix(1.007559,3.734867e-2,-5.199308e-2,1.329738,585.7075,198.3393)" />
      <path
         style="font-size:12;font-weight:bold;stroke-width:1pt;font-family:Bitstream Charter;"
         d="M 134.45 136.13 L 137.186 136.13 L 137.186 135.554 L 136.442 135.458 L 136.25 135.242 L 136.25 129.686 L 140.402 136.13 L 141.746 136.13 L 141.746 128.966 L 141.95 128.738 L 142.658 128.642 L 142.658 128.078 L 139.922 128.078 L 139.922 128.642 L 140.654 128.738 L 140.87 128.966 L 140.87 134.102 L 137.198 128.402 L 137.198 128.078 L 134.438 128.078 L 134.438 128.666 L 135.206 128.726 L 135.374 128.894 L 135.374 135.242 L 135.158 135.458 L 134.45 135.554 L 134.45 136.13 z "
         id="path672"
         transform="matrix(0.994447,0.162115,-0.225679,1.312432,609.0961,180.8414)" />
      <path
         style="font-size:12;font-weight:bold;stroke-width:1pt;font-family:Bitstream Charter;"
         d="M 125.918 128.078 L 125.918 128.666 L 126.674 128.726 L 126.842 128.894 L 126.842 133.046 C 126.842 133.97 126.902 134.678 127.37 135.29 C 127.862 135.914 128.75 136.274 129.938 136.274 C 132.194 136.274 133.106 135.302 133.106 133.106 L 133.106 128.942 L 133.274 128.738 L 134.006 128.666 L 134.006 128.078 L 131.282 128.078 L 131.282 128.666 L 132.05 128.738 L 132.23 128.942 L 132.23 132.986 C 132.23 134.582 131.738 135.326 130.406 135.326 C 128.966 135.326 128.45 134.642 128.45 133.094 L 128.45 128.894 L 128.618 128.726 L 129.362 128.666 L 129.362 128.078 L 125.918 128.078 z "
         id="path673"
         transform="matrix(0.962760,0.291685,-0.406049,1.270611,637.4409,169.1694)" />
      <path
         style="font-size:12;font-weight:bold;stroke-width:1pt;font-family:Bitstream Charter;"
         d="M 110.39 136.13 L 113.93 136.13 L 113.93 135.542 L 113.09 135.482 L 112.886 135.29 L 112.886 132.494 L 114.494 132.494 L 114.662 132.65 L 114.782 133.526 L 115.49 133.526 L 115.49 130.73 L 114.782 130.73 L 114.662 131.606 L 114.494 131.762 L 112.886 131.762 L 112.886 128.774 L 115.202 128.774 L 115.358 128.93 L 115.538 130.094 L 116.366 130.094 L 116.366 128.078 L 110.342 128.078 L 110.342 128.666 L 111.11 128.726 L 111.302 128.894 L 111.302 135.29 L 111.11 135.482 L 110.39 135.542 L 110.39 136.13 z "
         id="path676"
         transform="matrix(0.947404,0.335988,-0.467723,1.250346,647.5602,164.9552)" />
      <path
         style="font-size:12;font-weight:bold;stroke-width:1pt;font-family:Bitstream Charter;"
         d="M 97.7776 128.078 L 97.7776 128.666 L 98.4736 128.726 L 98.6656 128.918 L 98.6656 135.29 L 98.4736 135.482 L 97.7776 135.542 L 97.7776 136.13 L 101.174 136.13 L 101.174 135.542 L 100.454 135.482 L 100.262 135.29 L 100.262 132.266 L 103.73 132.266 L 103.73 135.29 L 103.55 135.482 L 102.83 135.542 L 102.83 136.13 L 106.214 136.13 L 106.214 135.542 L 105.518 135.482 L 105.326 135.29 L 105.326 128.918 L 105.518 128.726 L 106.214 128.666 L 106.214 128.078 L 102.83 128.078 L 102.83 128.666 L 103.55 128.726 L 103.73 128.918 L 103.73 131.546 L 100.262 131.546 L 100.262 128.918 L 100.454 128.726 L 101.174 128.666 L 101.174 128.078 L 97.7776 128.078 z "
         id="path677"
         transform="matrix(0.942926,0.598226,-0.746097,1.114908,683.5499,152.2670)" />
      <path
         style="font-size:12;font-weight:bold;stroke-width:1pt;font-family:Bitstream Charter;"
         d="M 90.3736 128.078 L 90.3736 130.202 L 91.2016 130.202 L 91.3936 128.918 L 91.5856 128.762 L 93.0256 128.762 L 93.0256 135.29 L 92.8216 135.482 L 92.0416 135.542 L 92.0416 136.13 L 95.6296 136.13 L 95.6296 135.542 L 94.8496 135.482 L 94.6456 135.29 L 94.6456 128.762 L 96.0856 128.762 L 96.2656 128.918 L 96.4696 130.202 L 97.2976 130.202 L 97.2976 128.078 L 90.3736 128.078 z "
         id="path678"
         transform="matrix(0.954251,0.573421,-0.723175,1.134846,680.0348,151.7383)" />
      <path
         style="font-size:12;font-weight:bold;stroke-width:1pt;font-family:Bitstream Charter;"
         d="M 73.6096 128.078 L 73.6096 128.666 L 74.3056 128.726 L 74.4976 128.918 L 74.4976 135.29 L 74.3056 135.482 L 73.6096 135.542 L 73.6096 136.13 L 77.0056 136.13 L 77.0056 135.542 L 76.2856 135.482 L 76.0936 135.29 L 76.0936 132.266 L 79.5616 132.266 L 79.5616 135.29 L 79.3816 135.482 L 78.6616 135.542 L 78.6616 136.13 L 82.0456 136.13 L 82.0456 135.542 L 81.3496 135.482 L 81.1576 135.29 L 81.1576 128.918 L 81.3496 128.726 L 82.0456 128.666 L 82.0456 128.078 L 78.6616 128.078 L 78.6616 128.666 L 79.3816 128.726 L 79.5616 128.918 L 79.5616 131.546 L 76.0936 131.546 L 76.0936 128.918 L 76.2856 128.726 L 77.0056 128.666 L 77.0056 128.078 L 73.6096 128.078 z "
         id="path681"
         transform="matrix(0.729992,0.834022,-1.040178,0.863135,742.0485,165.1564)" />
      <path
         style="font-size:12;font-weight:bold;stroke-width:1pt;font-family:Bitstream Charter;"
         d="M 62.9536 136.13 L 69.3976 136.13 L 69.3976 133.982 L 68.5816 133.982 L 68.3776 135.254 L 68.2216 135.446 L 65.4376 135.446 L 65.4376 132.326 L 66.9976 132.326 L 67.1656 132.494 L 67.2856 133.358 L 67.9936 133.358 L 67.9936 130.574 L 67.2856 130.574 L 67.1656 131.438 L 66.9976 131.606 L 65.4376 131.606 L 65.4376 128.75 L 67.8256 128.75 L 67.9816 128.906 L 68.1616 129.962 L 69.0016 129.962 L 69.0016 128.078 L 62.9536 128.078 L 62.9536 128.666 L 63.6856 128.726 L 63.8776 128.894 L 63.8776 135.29 L 63.6856 135.482 L 62.9536 135.542 L 62.9536 136.13 z "
         id="path682"
         transform="matrix(0.622618,1.184588,-1.216611,0.606230,773.5721,174.9172)" />
      <path
         style="font-size:12;font-weight:bold;stroke-width:1pt;font-family:Bitstream Charter;"
         d="M 53.8456 128.078 L 53.8456 128.666 L 54.5416 128.726 L 54.7336 128.918 L 54.7336 135.29 L 54.5416 135.482 L 53.8456 135.542 L 53.8456 136.13 L 57.2416 136.13 L 57.2416 135.542 L 56.5216 135.482 L 56.3296 135.29 L 56.3296 132.266 L 59.7976 132.266 L 59.7976 135.29 L 59.6176 135.482 L 58.8976 135.542 L 58.8976 136.13 L 62.2816 136.13 L 62.2816 135.542 L 61.5856 135.482 L 61.3936 135.29 L 61.3936 128.918 L 61.5856 128.726 L 62.2816 128.666 L 62.2816 128.078 L 58.8976 128.078 L 58.8976 128.666 L 59.6176 128.726 L 59.7976 128.918 L 59.7976 131.546 L 56.3296 131.546 L 56.3296 128.918 L 56.5216 128.726 L 57.2416 128.666 L 57.2416 128.078 L 53.8456 128.078 z "
         id="path683"
         transform="matrix(0.622618,1.184588,-1.216611,0.606230,773.5721,174.9172)" />
      <path
         style="font-size:12;font-weight:bold;stroke-width:1pt;font-family:Bitstream Charter;"
         d="M 85.6697 127.994 L 82.9577 135.434 L 82.2377 135.542 L 82.2377 136.13 L 84.8177 136.13 L 84.8177 135.542 L 84.0617 135.458 L 83.9417 135.302 L 84.6617 133.274 L 87.2777 133.274 L 87.9977 135.314 L 87.9137 135.47 L 87.1577 135.542 L 87.1577 136.13 L 90.3977 136.13 L 90.3977 135.542 L 89.6897 135.422 L 86.9297 127.994 L 85.6697 127.994 z M 85.9337 129.638 L 87.0017 132.602 L 84.8897 132.602 L 85.9337 129.638 z "
         id="path686"
         transform="matrix(0.862095,0.704414,-0.878533,1.019332,709.8514,154.0622)" />
      <path
         style="font-size:12;font-weight:bold;stroke-width:1pt;font-family:Bitstream Charter;"
         d="M 117.146 132.062 C 117.146 134.618 118.79 136.322 121.274 136.322 C 122.282 136.322 123.242 135.95 123.974 135.266 C 124.814 134.486 125.258 133.406 125.258 132.134 C 125.258 130.778 124.754 129.626 123.83 128.834 C 123.098 128.21 122.222 127.898 121.19 127.898 C 120.074 127.898 119.138 128.246 118.382 128.942 C 117.566 129.698 117.146 130.754 117.146 132.062 z M 121.214 128.666 C 122.522 128.666 123.458 129.95 123.458 132.17 C 123.458 134.294 122.51 135.59 121.19 135.59 C 119.906 135.59 118.934 134.294 118.934 132.086 C 118.934 129.938 119.882 128.666 121.214 128.666 z "
         id="path689"
         transform="matrix(1.003290,6.221739e-2,-0.105473,1.330791,592.9312,188.9810)" />
      <path
         style="font-size:12;font-weight:bold;stroke-width:1pt;font-family:Bitstream Charter;"
         d="M 146.714 128.078 L 143.21 128.078 L 143.21 128.666 L 143.942 128.726 L 144.134 128.918 L 144.134 135.29 L 143.942 135.482 L 143.21 135.542 L 143.21 136.13 L 146.714 136.13 C 147.914 136.13 148.814 135.95 149.558 135.374 C 150.53 134.63 151.034 133.526 151.034 132.11 C 151.034 129.59 149.498 128.078 146.714 128.078 z M 145.718 128.75 L 146.414 128.75 C 148.322 128.75 149.246 129.842 149.246 132.098 C 149.246 134.354 148.322 135.458 146.414 135.458 L 145.718 135.458 L 145.718 128.75 z "
         id="path692"
         transform="matrix(1.007559,3.734867e-2,-5.199308e-2,1.329738,585.7075,197.7923)" />
      <path
         style="font-size:12;font-weight:bold;stroke-width:1pt;font-family:Bitstream Charter;"
         d="M 162.458 128.078 L 158.954 128.078 L 158.954 128.666 L 159.686 128.726 L 159.878 128.918 L 159.878 135.29 L 159.686 135.482 L 158.954 135.542 L 158.954 136.13 L 162.458 136.13 C 163.658 136.13 164.558 135.95 165.302 135.374 C 166.274 134.63 166.778 133.526 166.778 132.11 C 166.778 129.59 165.242 128.078 162.458 128.078 z M 161.462 128.75 L 162.158 128.75 C 164.066 128.75 164.99 129.842 164.99 132.098 C 164.99 134.354 164.066 135.458 162.158 135.458 L 161.462 135.458 L 161.462 128.75 z "
         id="path695"
         transform="matrix(1.007559,3.734867e-2,-5.199308e-2,1.329738,585.7075,198.3393)" />
      <path
         style="font-size:12;font-weight:bold;stroke-width:1pt;font-family:Bitstream Charter;"
         d="M 194.474 136.13 L 198.014 136.13 L 198.014 135.542 L 197.162 135.482 L 196.982 135.29 L 196.982 133.13 C 197.342 133.154 197.618 133.166 197.798 133.166 C 199.814 133.166 200.942 132.158 200.942 130.502 C 200.942 128.774 199.886 128.078 197.666 128.078 L 194.426 128.078 L 194.426 128.666 L 195.218 128.726 L 195.398 128.894 L 195.398 135.29 L 195.182 135.482 L 194.474 135.542 L 194.474 136.13 z M 196.982 132.446 L 196.982 128.774 L 197.606 128.774 C 198.698 128.774 199.286 129.41 199.286 130.55 C 199.286 131.822 198.662 132.47 197.414 132.47 C 197.282 132.47 197.138 132.458 196.982 132.446 z "
         id="path698"
         transform="matrix(0.990580,-0.407981,0.532423,1.225567,517.4709,292.6033)" />
      <path
         style="font-size:12;font-weight:bold;stroke-width:1pt;font-family:Bitstream Charter;"
         d="M 201.662 132.062 C 201.662 134.618 203.306 136.322 205.79 136.322 C 206.798 136.322 207.758 135.95 208.49 135.266 C 209.33 134.486 209.774 133.406 209.774 132.134 C 209.774 130.778 209.27 129.626 208.346 128.834 C 207.614 128.21 206.738 127.898 205.706 127.898 C 204.59 127.898 203.654 128.246 202.898 128.942 C 202.082 129.698 201.662 130.754 201.662 132.062 z M 205.73 128.666 C 207.038 128.666 207.974 129.95 207.974 132.17 C 207.974 134.294 207.026 135.59 205.706 135.59 C 204.422 135.59 203.45 134.294 203.45 132.086 C 203.45 129.938 204.398 128.666 205.73 128.666 z "
         id="path701"
         transform="matrix(1.055360,-0.433983,0.610620,1.211061,493.7000,299.5753)" />
      <path
         style="font-size:12;font-weight:bold;stroke-width:1pt;font-family:Bitstream Charter;"
         d="M 266.678 127.994 L 263.966 135.434 L 263.246 135.542 L 263.246 136.13 L 265.826 136.13 L 265.826 135.542 L 265.07 135.458 L 264.95 135.302 L 265.67 133.274 L 268.286 133.274 L 269.006 135.314 L 268.922 135.47 L 268.166 135.542 L 268.166 136.13 L 271.406 136.13 L 271.406 135.542 L 270.698 135.422 L 267.938 127.994 L 266.678 127.994 z M 266.942 129.638 L 268.01 132.602 L 265.898 132.602 L 266.942 129.638 z "
         id="path704"
         transform="matrix(0.581169,-0.931644,1.168087,0.690810,529.9910,485.1982)" />
    </g>
    <g
       id="g1773"
       transform="">
      <polygon
         sodipodi:type="star"
         style="font-size:12;fill:#fdc400;fill-rule:evenodd;stroke-width:1pt;"
         id="polygon744"
         sodipodi:sides="5"
         sodipodi:cx="301.181091"
         sodipodi:cy="609.448792"
         sodipodi:r1="87.4499969"
         sodipodi:r2="34.9799995"
         sodipodi:arg1="2.19682312"
         sodipodi:arg2="2.82514167"
         points="249.942,680.315 267.938,620.334 217.949,582.616 280.556,581.197 300.981,521.999 321.677,581.102 384.289,582.235 334.474,620.182 352.745,680.079 301.261,644.429 249.942,680.315 "
         transform="matrix(0.383187,0.000000,0.000000,0.389442,593.8577,42.31528)" />
      <path
         style="font-size:12;fill:#ffffff;fill-rule:evenodd;stroke-width:1pt;"
         d="M 673.228 325.984 L 673.227 582.875 C 673.816 708.423 524.407 818.357 425.196 839.764 C 325.985 818.357 176.576 708.423 177.166 582.875 L 177.166 325.984 L 673.228 325.984 z "
         id="path740"
         transform="matrix(0.299809,0.000000,0.000000,0.349888,617.1502,71.60608)" />
      <path
         style="font-size:12;fill:#d40f0f;fill-opacity:0.996081;fill-rule:evenodd;stroke:#000000;stroke-width:1pt;"
         d="M 177.165 325.984 L 177.586 486.717 C 177.586 486.717 179.972 483.429 212.598 485.433 C 245.225 487.437 248.031 520.866 283.465 520.866 C 318.898 520.866 318.898 485.433 354.331 485.433 C 389.764 485.433 389.764 520.866 425.197 520.866 C 460.63 520.866 460.63 485.433 496.063 485.433 C 531.496 485.433 531.496 520.866 568.933 522.892 C 602.362 520.866 602.362 485.433 637.995 483.429 L 673.228 485.433 L 673.228 325.984 L 177.165 325.984 z "
         id="path556"
         sodipodi:nodetypes="cccccccccccc"
         transform="matrix(0.299809,0.000000,0.000000,0.349888,617.1502,71.60608)" />
      <path
         style="font-size:12;fill:#0062bb;fill-opacity:0.996081;fill-rule:evenodd;stroke-width:1pt;"
         d="M 177.165 432.283 L 177.165 485.433 C 177.165 485.433 177.165 485.433 212.598 485.433 C 245.225 487.437 248.03 520.866 283.464 520.866 C 318.897 520.866 318.897 485.433 354.33 485.433 C 389.763 485.433 389.763 520.866 425.196 520.866 C 460.629 520.866 460.63 485.433 496.063 485.433 C 531.496 485.433 529.492 518.84 566.929 520.866 C 600.358 518.84 602.162 487.437 637.795 485.433 L 673.228 485.433 L 673.228 432.283 L 637.795 432.283 C 602.362 432.283 602.362 467.716 566.929 467.717 C 531.496 467.716 531.496 432.283 496.063 432.283 C 460.63 432.283 460.63 467.716 425.196 467.716 C 389.763 467.716 389.763 432.283 354.33 432.283 C 318.897 432.283 318.897 467.716 283.464 467.716 C 248.031 467.716 248.031 432.283 212.598 432.283 L 177.165 432.283 z "
         id="path557"
         sodipodi:nodetypes="ccccccccccccccccccc"
         transform="matrix(0.299809,0.000000,0.000000,0.349888,617.1503,108.7990)" />
      <path
         style="font-size:12;fill:#0062bb;fill-opacity:0.996081;fill-rule:evenodd;stroke-width:1pt;"
         d="M 187.853 432.283 L 212.598 485.433 C 245.225 487.437 248.03 520.866 283.464 520.866 C 318.897 520.866 318.897 485.433 354.33 485.433 C 389.763 485.433 389.763 520.866 425.196 520.866 C 460.629 520.866 460.63 485.433 496.063 485.433 C 531.496 485.433 529.492 518.84 566.929 520.866 C 600.358 518.84 601.34 487.437 636.973 485.433 L 662.54 431.461 L 637.795 432.283 C 602.362 432.283 602.362 467.716 566.929 467.717 C 531.496 467.716 531.496 432.283 496.063 432.283 C 460.63 432.283 460.63 467.716 425.196 467.716 C 389.763 467.716 389.763 432.283 354.33 432.283 C 318.897 432.283 318.897 467.716 283.464 467.716 C 248.031 467.716 248.031 432.283 212.598 432.283 L 187.853 432.283 z "
         id="path558"
         sodipodi:nodetypes="ccccccccccccccccc"
         transform="matrix(0.299809,0.000000,0.000000,0.349888,617.1503,145.9918)" />
      <path
         style="font-size:12;fill:#0062bb;fill-opacity:0.996081;fill-rule:evenodd;stroke-width:1pt;"
         d="M 425.196 520.866 C 460.63 520.866 541.813 467.716 540.99 467.716 C 541.813 467.716 531.496 432.283 496.063 432.283 C 460.63 432.283 460.63 467.716 425.196 467.716 C 389.763 467.716 389.763 432.283 354.33 432.283 C 318.897 432.283 309.853 467.716 309.774 467.716 C 308.129 467.716 389.763 520.866 425.196 520.866 z "
         id="path559"
         sodipodi:nodetypes="ccccccc"
         transform="matrix(0.299809,0.000000,0.000000,0.349888,617.1503,183.1847)" />
      <g
         id="g611"
         transform="matrix(1.465326,0.000000,0.000000,1.274800,556.7898,30.77422)"
         style="font-size:12;">
        <path
           style="fill:#fdc400;fill-rule:evenodd;stroke:black;stroke-opacity:1;stroke-width:0.625;stroke-linejoin:miter;stroke-linecap:butt;fill-opacity:0.996081;stroke-dasharray:none;"
           d="M 90.8486 117.568 C 91.6707 117.568 99.0701 118.801 104.414 118.39 C 109.758 117.979 111.814 115.923 111.814 115.512 C 111.814 115.101 111.814 114.279 111.814 114.279 L 118.802 114.279 C 118.802 114.279 120.035 120.034 119.213 120.445 C 118.391 120.856 116.335 122.501 115.924 122.501 C 115.513 122.501 115.924 119.623 115.102 120.445 C 114.28 121.267 113.869 122.501 113.869 122.501 C 113.869 122.501 113.047 121.267 112.636 121.267 C 112.225 121.267 111.403 122.501 111.403 122.501 C 111.403 122.501 111.403 121.267 110.991 121.267 C 110.58 121.267 108.525 123.323 108.525 123.323 L 106.47 121.678 C 106.47 121.678 105.236 123.734 104.825 123.734 C 104.414 123.734 101.948 122.09 101.948 122.09 L 97.8369 124.556 C 97.8369 124.556 97.8369 120.856 97.0147 121.267 C 96.1926 121.678 91.6707 121.678 91.6707 121.678 C 91.6707 121.678 90.4375 124.145 90.0264 124.145 C 89.6153 124.145 87.971 122.09 88.3821 122.09 C 88.7932 122.09 89.6153 120.856 89.2042 120.445 C 88.7932 120.034 86.7378 120.445 86.7378 120.034 C 86.7378 119.623 85.9156 117.156 86.3267 117.156 C 86.7378 117.156 88.3821 117.568 88.3821 117.568 L 88.3821 115.101 L 90.4375 115.101 L 90.8486 117.568 z "
           id="path577"
           transform="translate(-0.138988,37.59389)" />
        <path
           style="fill:#fdc400;fill-rule:evenodd;stroke:black;stroke-opacity:1;stroke-width:0.625;stroke-linejoin:miter;stroke-linecap:butt;fill-opacity:0.996081;stroke-dasharray:none;"
           d="M 98.248 94.1361 C 97.8369 94.1361 94.9594 97.4248 95.3704 101.124 C 95.7815 104.824 102.77 110.168 102.77 110.168 C 102.77 110.168 106.47 108.524 107.703 110.168 C 108.936 111.812 108.936 116.745 108.525 116.745 C 108.114 116.745 103.181 117.979 103.181 117.156 C 103.181 116.334 103.181 115.512 102.77 115.512 C 102.359 115.512 97.8369 115.923 97.8369 115.923 L 98.248 114.279 L 94.1372 113.457 L 95.7815 111.812 C 95.7815 111.812 89.2042 108.935 89.6153 108.935 C 90.0264 108.935 92.4929 107.291 92.4929 107.291 L 87.5599 104.002 L 90.4375 104.002 C 90.4375 104.002 86.3267 100.713 86.7378 100.713 C 87.1488 100.713 89.2042 101.124 89.2042 101.124 L 87.971 97.8358 L 89.2042 97.8358 L 87.971 95.3693 L 90.0264 94.5472 L 91.2596 96.6025 L 90.8486 91.6696 L 93.7261 92.0807 L 93.7261 96.1915 C 93.7261 96.1915 94.9593 93.725 94.9593 93.3139 C 94.9593 92.9029 98.6591 94.9582 98.248 94.1361 z "
           id="path578"
           transform="translate(-0.138988,37.59389)" />
        <path
           style="fill:#000000;fill-rule:evenodd;stroke:none;stroke-opacity:1;stroke-width:0.625;stroke-linejoin:miter;stroke-linecap:butt;fill-opacity:0.996081;stroke-dasharray:none;"
           d="M 161.966 119.62 C 161.452 120.134 159.91 121.264 159.91 121.264 C 159.91 121.264 163.405 120.956 163.302 120.956 C 163.199 120.956 162.069 119.928 161.966 119.62 z "
           id="path580"
           transform="translate(-0.138988,37.59389)" />
        <path
           style="fill:#000000;fill-rule:evenodd;stroke:none;stroke-opacity:1;stroke-width:0.625;stroke-linejoin:miter;stroke-linecap:butt;fill-opacity:0.996081;stroke-dasharray:none;"
           d="M 164.946 121.573 C 164.741 121.881 164.124 125.067 164.535 124.861 C 164.946 124.656 166.59 122.292 166.59 122.292 L 164.946 121.573 z "
           id="path581"
           transform="translate(-0.138988,37.59389)" />
        <path
           style="fill:#000000;fill-rule:evenodd;stroke:none;stroke-opacity:1;stroke-width:0.625;stroke-linejoin:miter;stroke-linecap:butt;fill-opacity:0.996081;stroke-dasharray:none;"
           d="M 169.674 121.984 C 170.187 122.498 172.551 124.861 172.243 124.347 C 171.935 123.834 171.626 121.675 171.421 121.573 C 171.215 121.47 169.879 122.189 169.674 121.984 z "
           id="path582"
           transform="translate(-0.138988,37.59389)" />
        <path
           style="fill:#000000;fill-rule:evenodd;stroke:none;stroke-opacity:1;stroke-width:0.625;stroke-linejoin:miter;stroke-linecap:butt;fill-opacity:0.996081;stroke-dasharray:none;"
           d="M 128.257 118.592 C 127.949 118.695 125.38 120.648 125.38 120.648 C 125.38 120.648 129.696 119.825 129.49 119.825 C 129.285 119.825 128.154 118.901 128.257 118.592 z "
           id="path583"
           transform="translate(-0.138988,37.59389)" />
        <path
           style="fill:#000000;fill-rule:evenodd;stroke:none;stroke-opacity:1;stroke-width:0.625;stroke-linejoin:miter;stroke-linecap:butt;fill-opacity:0.996081;stroke-dasharray:none;"
           d="M 130.929 121.059 C 130.518 121.47 129.182 124.347 129.696 124.245 C 130.21 124.142 132.471 122.292 132.471 122.292 L 130.929 121.059 z "
           id="path584"
           transform="translate(-0.138988,37.59389)" />
        <path
           style="fill:#000000;fill-rule:evenodd;stroke:none;stroke-opacity:1;stroke-width:0.625;stroke-linejoin:miter;stroke-linecap:butt;fill-opacity:0.996081;stroke-dasharray:none;"
           d="M 129.285 117.051 C 128.977 116.948 126.818 115.92 126.921 115.92 C 127.024 115.92 129.799 115.201 129.799 115.201 L 129.285 117.051 z "
           id="path585"
           transform="translate(-0.138988,37.59389)" />
        <path
           style="fill:#000000;fill-rule:evenodd;stroke:none;stroke-opacity:1;stroke-width:0.625;stroke-linejoin:miter;stroke-linecap:butt;fill-opacity:0.996081;stroke-dasharray:none;"
           d="M 88.5879 115.715 L 85.5048 113.248 L 89.4101 114.481 L 88.5879 115.715 z "
           id="path586"
           transform="translate(-0.138988,37.59389)" />
        <path
           style="fill:#000000;fill-rule:evenodd;stroke:none;stroke-opacity:1;stroke-width:0.625;stroke-linejoin:miter;stroke-linecap:butt;fill-opacity:0.996081;stroke-dasharray:none;"
           d="M 85.9159 117.359 C 85.5048 117.359 81.5995 119.825 81.7023 119.825 C 81.8051 119.825 87.1491 119.928 87.0463 119.825 C 86.9436 119.723 86.1214 117.565 85.9159 117.359 z "
           id="path587"
           transform="translate(-0.138988,37.59389)" />
        <path
           style="fill:#000000;fill-rule:evenodd;stroke:none;stroke-opacity:1;stroke-width:0.625;stroke-linejoin:miter;stroke-linecap:butt;fill-opacity:0.996081;stroke-dasharray:none;"
           d="M 88.3824 120.956 C 87.9713 121.162 84.8882 123.525 85.0937 123.525 C 85.2993 123.525 89.7184 123.628 89.7184 123.525 C 89.7184 123.422 88.4851 121.059 88.3824 120.956 z "
           id="path588"
           transform="translate(-0.138988,37.59389)" />
        <path
           style="fill:#000000;fill-rule:evenodd;stroke:none;stroke-opacity:1;stroke-width:0.625;stroke-linejoin:miter;stroke-linecap:butt;fill-opacity:0.996078;stroke-dasharray:none;"
           d="M 87.9713 95.3662 C 87.9713 95.3662 86.8408 92.4886 86.9436 92.4886 C 87.0463 92.4886 89.8211 94.7496 89.8211 94.7496 L 87.9713 95.3662 z "
           id="path589"
           transform="translate(-0.138988,37.59389)" />
        <path
           style="fill:#000000;fill-rule:evenodd;stroke:none;stroke-opacity:1;stroke-width:0.625;stroke-linejoin:miter;stroke-linecap:butt;fill-opacity:0.996078;stroke-dasharray:none;"
           d="M 91.0544 91.7692 C 91.0544 91.6665 91.3627 89.9194 91.3627 89.9194 C 91.3627 89.9194 94.1375 92.0775 94.0347 92.0775 C 93.932 92.0775 91.2599 92.0775 91.0544 91.7692 z "
           id="path590"
           transform="translate(-0.138988,37.59389)" />
        <path
           style="fill:#000000;fill-rule:evenodd;stroke:none;stroke-opacity:1;stroke-width:0.625;stroke-linejoin:miter;stroke-linecap:butt;fill-opacity:0.996078;stroke-dasharray:none;"
           d="M 95.3707 93.1052 C 95.3707 93.0024 95.679 90.4332 95.679 90.4332 C 95.679 90.4332 98.2483 93.9274 98.0428 94.0302 C 97.8372 94.133 95.5763 93.5164 95.3707 93.1052 z "
           id="path591"
           transform="translate(-0.138988,37.59389)" />
        <path
           style="fill:#fdc400;fill-rule:evenodd;stroke:black;stroke-opacity:1;stroke-width:0.625;stroke-linejoin:miter;stroke-linecap:butt;fill-opacity:0.996081;stroke-dasharray:none;"
           d="M 137.265 110.864 C 137.265 111.07 141.581 114.564 141.684 115.386 C 141.786 116.208 133.873 116.414 133.873 116.414 C 133.873 116.414 131.612 114.667 130.893 114.769 C 130.173 114.872 129.865 116.619 129.865 116.619 L 131.715 117.647 L 128.221 117.852 L 129.249 119.805 L 131.921 119.599 L 131.304 121.449 C 131.304 121.449 132.948 122.683 133.257 122.477 C 133.565 122.272 134.593 120.422 135.415 120.113 C 136.237 119.805 137.984 119.805 137.984 119.805 C 137.984 119.805 136.648 122.066 137.265 122.066 C 137.881 122.066 140.656 119.702 140.656 119.702 C 140.656 119.702 141.273 121.86 141.375 121.86 C 141.478 121.86 143.431 119.394 143.431 119.394 C 143.431 119.394 143.431 121.347 143.739 121.347 C 144.047 121.347 146.925 118.88 146.925 118.88 C 146.925 118.88 149.186 121.758 149.494 121.552 C 149.803 121.347 150.111 118.469 150.419 118.469 C 150.727 118.469 152.68 118.161 152.68 118.058 C 152.68 117.955 151.447 116.927 151.241 115.489 C 151.036 114.05 151.447 110.659 151.344 110.659 C 151.241 110.659 137.47 111.172 137.265 110.864 z "
           id="path599"
           transform="translate(-0.822172,37.81964)" />
        <path
           style="fill:#fdc400;fill-rule:evenodd;stroke:black;stroke-opacity:1;stroke-width:0.625;stroke-linejoin:miter;stroke-linecap:butt;fill-opacity:0.996081;stroke-dasharray:none;"
           d="M 115.374 104.598 C 116.607 104.598 151.549 104.598 155.66 104.598 C 159.771 104.598 163.47 102.954 163.47 100.487 C 163.47 98.0211 156.893 97.61 154.427 98.4322 C 151.96 99.2543 141.272 104.187 136.75 103.776 C 132.228 103.365 128.118 100.487 127.707 97.61 C 127.295 94.7324 129.762 92.2659 134.284 92.2659 C 138.806 92.2659 144.561 93.9103 145.794 93.4992 C 147.027 93.0881 149.905 89.7995 151.138 89.3884 C 152.371 88.9774 156.071 88.5663 156.071 88.5663 L 154.427 89.7995 L 159.771 88.5663 C 159.771 88.5663 155.66 93.0881 151.549 94.3214 C 147.438 95.5546 138.806 95.1435 135.517 95.1435 C 132.228 95.1435 130.584 94.7325 130.995 97.1989 C 131.406 99.6654 133.873 101.31 135.928 100.898 C 137.984 100.487 144.15 98.4322 144.15 98.4322 L 142.505 97.1989 L 149.905 96.7879 C 149.905 96.7879 149.494 95.5546 149.905 95.5546 C 150.316 95.5546 154.016 95.9657 154.016 95.9657 C 154.016 95.9657 151.549 94.7324 151.96 94.7324 C 152.371 94.7324 154.016 94.7324 157.304 95.1435 C 160.593 95.5546 167.581 96.7878 167.17 100.076 C 166.759 103.365 164.293 106.242 161.415 106.242 C 158.537 106.242 156.071 105.42 156.071 106.654 C 156.071 107.887 159.36 108.709 161.415 108.709 C 163.47 108.709 165.937 107.065 166.348 107.065 C 166.759 107.065 167.581 109.531 167.992 109.531 C 168.403 109.531 170.87 108.709 170.87 108.709 L 169.226 113.231 L 172.103 114.053 C 172.103 114.053 170.459 115.697 170.87 115.697 C 171.281 115.697 173.747 115.697 173.747 116.108 C 173.747 116.519 170.459 118.986 170.459 119.397 C 170.459 119.808 172.925 121.041 172.925 121.041 C 172.925 121.041 171.281 123.508 170.87 123.097 C 170.459 122.686 168.814 120.63 168.814 120.63 C 168.814 120.63 168.403 122.275 167.581 122.275 C 166.759 122.275 165.115 121.864 165.115 121.864 C 165.115 121.864 166.348 119.397 165.937 119.397 C 165.526 119.397 163.47 121.041 163.47 120.63 L 162.238 119.394 C 162.238 119.394 165.526 118.058 165.526 116.105 C 165.526 114.153 164.19 112.2 158.23 111.892 C 152.269 111.583 152.166 113.33 147.747 113.125 C 143.328 112.919 143.328 111.172 140.039 111.172 C 136.751 111.172 126.576 115.283 121.849 115.18 C 117.122 115.078 111.161 114.769 111.366 114.564 C 111.572 114.358 115.272 104.903 115.374 104.598 z "
           id="path598"
           sodipodi:nodetypes="cccccccccccccccccccccccccccccccccccccccccccccccccc"
           transform="translate(-0.822172,37.81964)" />
        <path
           style="fill:#fdc400;fill-rule:evenodd;stroke:black;stroke-opacity:1;stroke-width:0.625;stroke-linejoin:miter;stroke-linecap:butt;fill-opacity:0.996081;stroke-dasharray:none;"
           d="M 106.881 102.457 C 106.47 102.663 102.873 103.177 102.667 106.979 C 102.462 110.782 102.976 110.782 103.387 110.576 C 103.798 110.371 104.62 107.082 104.62 107.082 C 104.62 107.082 103.387 111.604 104.723 112.632 C 106.059 113.659 107.498 114.07 107.498 114.07 L 108.011 110.473 C 108.011 110.473 106.984 113.968 109.45 115.201 C 111.917 116.434 112.842 115.509 112.636 114.584 C 112.431 113.659 111.711 111.296 111.711 111.296 C 111.711 111.296 113.664 113.454 113.767 113.659 C 113.869 113.865 114.794 115.509 117.261 114.79 C 119.727 114.07 117.98 112.426 117.98 112.426 L 115 109.96 C 115 109.96 118.083 113.145 119.419 112.015 C 120.755 110.885 118.391 108.418 118.494 108.521 C 118.597 108.624 120.447 112.015 121.166 109.857 C 121.885 107.699 120.036 107.082 119.419 105.027 C 118.802 102.971 118.288 102.766 118.905 101.532 C 119.522 100.299 119.625 97.9355 119.625 97.9355 C 119.625 97.9355 122.194 98.552 121.988 96.3939 C 121.783 94.2357 119.213 93.7219 118.7 93.6191 C 118.186 93.5164 118.288 91.3582 118.083 91.4609 C 117.877 91.5637 116.233 92.7969 116.233 92.7969 C 116.233 92.7969 114.794 89.4054 114.486 89.611 C 114.178 89.8166 112.533 91.5637 111.3 91.6665 C 110.067 91.7692 109.347 93.5164 109.347 93.5164 C 109.347 93.5164 105.031 91.4609 105.134 94.8523 C 105.237 98.2438 107.703 97.4216 107.703 97.5244 C 107.703 97.6272 107.292 102.252 106.881 102.457 z "
           id="path592"
           sodipodi:nodetypes="cccccccccccccccccccccccccccccc"
           transform="translate(-0.138988,37.59389)" />
        <path
           style="fill:#000000;fill-rule:evenodd;stroke:none;stroke-opacity:1;stroke-width:1.25;stroke-linejoin:miter;stroke-linecap:butt;fill-opacity:0.996078;stroke-dasharray:none;"
           d="M 109.246 96.3855 C 109.76 96.2828 110.582 95.6662 111.404 95.8717 C 112.226 96.0772 113.459 97.0022 112.74 97.3105 C 112.02 97.6188 111.507 97.7215 110.787 97.4132 C 110.068 97.1049 109.554 96.5911 109.246 96.3855 z "
           id="path600"
           transform="matrix(0.990101,-0.140356,0.140356,0.990101,-12.57748,54.75072)" />
        <path
           style="fill:#000000;fill-rule:evenodd;stroke:none;stroke-opacity:1;stroke-width:1.25;stroke-linejoin:miter;stroke-linecap:butt;fill-opacity:0.996078;stroke-dasharray:none;"
           d="M 109.246 96.3855 C 109.76 96.2828 110.582 95.6662 111.404 95.8717 C 112.226 96.0772 113.459 97.0022 112.74 97.3105 C 112.02 97.6188 111.507 97.7215 110.787 97.4132 C 110.068 97.1049 109.554 96.5911 109.246 96.3855 z "
           id="path601"
           transform="matrix(-0.990101,-0.140356,-0.140356,0.990101,239.2020,54.64795)" />
        <path
           style="fill:#000039;fill-rule:evenodd;stroke:#000000;stroke-opacity:1;stroke-width:0.375;stroke-linejoin:miter;stroke-linecap:butt;fill-opacity:0.996078;stroke-dasharray:none;"
           d="M 110.993 103.168 C 111.096 103.682 111.404 107.999 111.609 107.69 C 111.815 107.382 113.357 103.271 113.254 103.271 C 113.151 103.271 111.096 103.374 110.993 103.168 z "
           id="path602"
           transform="translate(-5.960464e-7,37.64325)" />
        <path
           style="fill:none;fill-rule:evenodd;stroke:black;stroke-opacity:1;stroke-width:0.75;stroke-linejoin:miter;stroke-linecap:butt;fill-opacity:1;stroke-dasharray:none;"
           d="M 109.965 103.168 C 110.014 101.953 110.787 102.038 112.432 102.243 C 114.076 102.449 114.898 103.271 114.795 103.477 C 114.693 103.682 113.357 104.196 112.226 104.093 C 110.89 103.682 109.928 104.182 109.965 103.168 z "
           id="path603"
           sodipodi:nodetypes="ccccs"
           transform="translate(-5.960464e-7,37.78859)" />
        <path
           style="fill:none;fill-rule:evenodd;stroke:black;stroke-opacity:1;stroke-width:1pt;stroke-linejoin:miter;stroke-linecap:butt;fill-opacity:1;"
           d="M 112.432 100.085 L 112.226 102.038 "
           id="path607"
           transform="translate(-5.960464e-7,37.78859)" />
        <path
           style="fill:none;fill-rule:evenodd;stroke:black;stroke-opacity:1;stroke-width:1pt;stroke-linejoin:miter;stroke-linecap:butt;fill-opacity:1;"
           d="M 119.317 94.8439 C 119.317 94.8439 120.653 95.4606 120.448 96.0772 C 120.242 96.6938 119.317 97.0022 119.317 97.0022 "
           id="path608"
           transform="translate(-5.960464e-7,37.78859)" />
        <path
           style="fill:none;fill-rule:evenodd;stroke:black;stroke-opacity:1;stroke-width:1pt;stroke-linejoin:miter;stroke-linecap:butt;fill-opacity:1;"
           d="M 108.115 94.3301 C 107.807 94.4329 107.396 94.6385 107.19 95.4606 C 106.985 96.2828 108.115 96.7966 108.115 96.7966 "
           id="path609"
           transform="translate(-5.960464e-7,37.78859)" />
        <path
           style="fill:none;fill-rule:evenodd;stroke:black;stroke-opacity:1;stroke-width:1pt;stroke-linejoin:miter;stroke-linecap:butt;fill-opacity:1;"
           d="M 111.186 136.133 C 111.186 136.133 109.732 137.587 112.203 137.587 C 114.674 137.587 112.93 136.279 112.93 136.279 "
           id="path610"
           transform="translate(0.145340,0.290649)" />
      </g>
      <polygon
         sodipodi:type="star"
         style="font-size:12;fill:#fdc400;fill-rule:evenodd;stroke-width:1pt;"
         id="polygon749"
         sodipodi:sides="5"
         sodipodi:cx="301.181091"
         sodipodi:cy="609.448792"
         sodipodi:r1="87.4499969"
         sodipodi:r2="34.9799995"
         sodipodi:arg1="2.19682312"
         sodipodi:arg2="2.82514167"
         points="249.942,680.315 267.938,620.334 217.949,582.616 280.556,581.197 300.981,521.999 321.677,581.102 384.289,582.235 334.474,620.182 352.745,680.079 301.261,644.429 249.942,680.315 "
         transform="matrix(0.347719,0.000000,0.000000,0.342860,640.9813,116.3998)" />
      <polygon
         sodipodi:type="star"
         style="font-size:12;fill:#003017;fill-opacity:0.996081;fill-rule:evenodd;stroke-width:1pt;"
         id="polygon750"
         sodipodi:sides="5"
         sodipodi:cx="301.181091"
         sodipodi:cy="609.448792"
         sodipodi:r1="87.4499969"
         sodipodi:r2="34.9799995"
         sodipodi:arg1="2.19682312"
         sodipodi:arg2="2.82514167"
         points="249.942,680.315 267.938,620.334 217.949,582.616 280.556,581.197 300.981,521.999 321.677,581.102 384.289,582.235 334.474,620.182 352.745,680.079 301.261,644.429 249.942,680.315 "
         transform="matrix(0.289765,0.000000,0.000000,0.272364,658.4320,158.8507)" />
      <polygon
         sodipodi:type="star"
         style="font-size:12;fill:#fdc400;fill-rule:evenodd;stroke-width:1pt;"
         id="polygon751"
         sodipodi:sides="5"
         sodipodi:cx="301.181091"
         sodipodi:cy="609.448792"
         sodipodi:r1="87.4499969"
         sodipodi:r2="34.9799995"
         sodipodi:arg1="2.19682312"
         sodipodi:arg2="2.82514167"
         points="249.942,680.315 267.938,620.334 217.949,582.616 280.556,581.197 300.981,521.999 321.677,581.102 384.289,582.235 334.474,620.182 352.745,680.079 301.261,644.429 249.942,680.315 "
         transform="matrix(0.343967,0.000000,0.000000,0.324227,606.0928,87.41905)" />
      <polygon
         sodipodi:type="star"
         style="font-size:12;fill:#003017;fill-opacity:0.996081;fill-rule:evenodd;stroke-width:1pt;"
         id="polygon752"
         sodipodi:sides="5"
         sodipodi:cx="301.181091"
         sodipodi:cy="609.448792"
         sodipodi:r1="87.4499969"
         sodipodi:r2="34.9799995"
         sodipodi:arg1="2.19682312"
         sodipodi:arg2="2.82514167"
         points="249.942,680.315 267.938,620.334 217.949,582.616 280.556,581.197 300.981,521.999 321.677,581.102 384.289,582.235 334.474,620.182 352.745,680.079 301.261,644.429 249.942,680.315 "
         transform="matrix(0.286639,0.000000,0.000000,0.257562,623.3553,127.5630)" />
      <polygon
         sodipodi:type="star"
         style="font-size:12;fill:#fdc400;fill-rule:evenodd;stroke-width:1pt;"
         id="polygon753"
         sodipodi:sides="5"
         sodipodi:cx="301.181091"
         sodipodi:cy="609.448792"
         sodipodi:r1="87.4499969"
         sodipodi:r2="34.9799995"
         sodipodi:arg1="2.19682312"
         sodipodi:arg2="2.82514167"
         points="249.942,680.315 267.938,620.334 217.949,582.616 280.556,581.197 300.981,521.999 321.677,581.102 384.289,582.235 334.474,620.182 352.745,680.079 301.261,644.429 249.942,680.315 "
         transform="matrix(0.348401,0.000000,0.000000,0.324227,677.1626,87.41905)" />
      <polygon
         sodipodi:type="star"
         style="font-size:12;fill:#003017;fill-opacity:0.996081;fill-rule:evenodd;stroke-width:1pt;"
         id="polygon754"
         sodipodi:sides="5"
         sodipodi:cx="301.181091"
         sodipodi:cy="609.448792"
         sodipodi:r1="87.4499969"
         sodipodi:r2="34.9799995"
         sodipodi:arg1="2.19682312"
         sodipodi:arg2="2.82514167"
         points="249.942,680.315 267.938,620.334 217.949,582.616 280.556,581.197 300.981,521.999 321.677,581.102 384.289,582.235 334.474,620.182 352.745,680.079 301.261,644.429 249.942,680.315 "
         transform="matrix(0.290334,0.000000,0.000000,0.257562,694.6478,127.5630)" />
    </g>
  </g>
</svg>
