<?xml version="1.0" encoding="UTF-8" standalone="no"?>
<!-- Created with Inkscape (http://www.inkscape.org/) -->
<svg
   xmlns:dc="http://purl.org/dc/elements/1.1/"
   xmlns:cc="http://web.resource.org/cc/"
   xmlns:rdf="http://www.w3.org/1999/02/22-rdf-syntax-ns#"
   xmlns:svg="http://www.w3.org/2000/svg"
   xmlns="http://www.w3.org/2000/svg"
   xmlns:sodipodi="http://inkscape.sourceforge.net/DTD/sodipodi-0.dtd"
   xmlns:inkscape="http://www.inkscape.org/namespaces/inkscape"
   id="svg1339"
   sodipodi:version="0.32"
   inkscape:version="0.32"
   width="900.00000"
   height="600.00000"
   sodipodi:docbase="C:\Documents and Settings\Bimbito\Escritorio\Messenger"
   sodipodi:docname="Flag of Magallanes, Chile.svg"
   version="1.0"
   x="0.00000000"
   y="0.00000000">
  <metadata
     id="metadata1344">
    <rdf:RDF>
      <cc:Work
         rdf:about="">
        <dc:format>image/svg+xml</dc:format>
        <dc:type
           rdf:resource="http://purl.org/dc/dcmitype/StillImage" />
        <dc:title>Bandera de Magallanes, Chile</dc:title>
        <dc:date>12 de diciembre de 2005</dc:date>
        <dc:creator>
          <cc:Agent>
            <dc:title>Osmar Valdebenito Gaete</dc:title>
          </cc:Agent>
        </dc:creator>
        <dc:rights>
          <cc:Agent>
            <dc:title>Osmar Valdebenito Gaete</dc:title>
          </cc:Agent>
        </dc:rights>
        <cc:license
           rdf:resource="http://creativecommons.org/licenses/by-sa/2.0/" />
      </cc:Work>
      <cc:License
         rdf:about="http://creativecommons.org/licenses/by-sa/2.0/">
        <cc:permits
           rdf:resource="http://web.resource.org/cc/Reproduction" />
        <cc:permits
           rdf:resource="http://web.resource.org/cc/Distribution" />
        <cc:requires
           rdf:resource="http://web.resource.org/cc/Notice" />
        <cc:requires
           rdf:resource="http://web.resource.org/cc/Attribution" />
        <cc:permits
           rdf:resource="http://web.resource.org/cc/DerivativeWorks" />
        <cc:requires
           rdf:resource="http://web.resource.org/cc/ShareAlike" />
      </cc:License>
    </rdf:RDF>
  </metadata>
  <defs
     id="defs1342" />
  <sodipodi:namedview
     inkscape:window-height="512"
     inkscape:window-width="784"
     inkscape:pageshadow="2"
     inkscape:pageopacity="0.0"
     borderopacity="1.0"
     bordercolor="#666666"
     pagecolor="#ffffff"
     id="base"
     showgrid="false"
     inkscape:zoom="0.57166667"
     inkscape:cx="450.00000"
     inkscape:cy="300.00000"
     inkscape:window-x="383"
     inkscape:window-y="177"
     inkscape:current-layer="svg1339" />
  <rect
     style="fill:#0000cc;fill-opacity:1.0000000;stroke-opacity:1.0000000"
     id="rect1348"
     width="900.00000"
     height="600.00000"
     x="0.00000000"
     y="0.00000000" />
  <path
     id="path1358"
     d="M 0.034130850,545.35972 L 0.034130850,478.75694 C 0.034130850,478.75694 72.458112,408.79756 74.356349,408.49176 C 76.568759,408.13534 150.67178,452.60094 149.20202,473.26299 C 147.61310,495.60010 228.90350,390.02827 228.97529,406.45270 C 229.06042,424.03419 294.34203,452.23708 295.99005,471.66794 C 298.32360,499.18158 378.99652,390.57299 375.96577,404.06011 C 372.10150,421.25653 453.36557,453.39307 447.96740,474.06053 C 444.11473,488.81082 523.08015,402.46504 524.75348,402.46504 C 526.42681,402.46504 598.35231,472.18196 599.94475,471.66794 C 602.41548,470.87039 660.39324,388.13958 674.93358,404.06011 C 686.15586,416.34764 747.45167,467.68025 749.12500,467.68025 C 750.79833,467.68025 824.87811,400.42975 826.36707,402.11150 L 899.90005,485.16500 L 899.90005,547.36745 L 899.90005,599.99951 L 449.96710,599.99951 L 0.034130850,599.99951 L 0.034130850,545.35972 z "
     style="fill:#fdcb00"
     sodipodi:nodetypes="ccssssssssssscccccc" />
  <path
     style="fill:#ffffff;fill-opacity:1.0000000;fill-rule:evenodd;stroke-width:0.00000000;stroke-linecap:butt;stroke-linejoin:miter;stroke-miterlimit:4.0000000;stroke-dasharray:none;stroke-opacity:1.0000000"
     d="M 0.034130850,459.99431 L 75.022956,379.99383 L 150.01178,459.99431 L 225.00061,379.99383 L 299.98943,459.99431 L 374.97826,379.99383 L 449.96708,459.99431 L 524.95591,379.99383 L 599.94473,459.99431 L 674.93356,379.99383 L 749.92238,459.99431 L 824.91121,379.99383 L 899.90003,459.99431 L 899.90003,489.99449 L 824.91121,409.99401 L 749.92238,489.99449 L 674.93356,409.99401 L 599.94473,489.99449 L 524.95591,409.99401 L 449.96708,489.99449 L 374.97826,409.99401 L 299.98943,489.99449 L 225.00061,409.99401 L 150.01178,489.99449 L 75.022956,409.99401 L 0.034130850,489.99449 L 0.034130850,459.99431 z "
     id="path1376"
     sodipodi:nodetypes="ccccccccccccccccccccccccccc" />
  <path
     sodipodi:type="star"
     style="fill:#ffffff;fill-opacity:1.0000000;stroke-width:0.00000000;stroke-miterlimit:4.0000000;stroke-dasharray:none;stroke-opacity:1.0000000"
     id="path2929"
     sodipodi:sides="5"
     sodipodi:cx="101.55183"
     sodipodi:cy="43.960686"
     sodipodi:r1="22.000000"
     sodipodi:r2="8.8000002"
     sodipodi:arg1="-2.0000000"
     sodipodi:arg2="-1.4000000"
     inkscape:flatsided="false"
     inkscape:rounded="0.00000000"
     inkscape:randomized="0.00000000"
     d="M 92.396596,23.956142 L 103.04754,35.288728 L 117.74816,29.071800 L 110.26155,42.703409 L 120.71694,54.763392 L 105.43902,51.855604 L 97.200188,65.526011 L 95.244522,50.097290 L 79.697253,46.486083 L 93.766505,39.858398 L 92.396596,23.956142 z "
     transform="matrix(1.999702,0.000000,0.000000,2.000012,3.413085e-2,-8.453774e-3)" />
  <path
     sodipodi:type="star"
     style="fill:#ffffff;fill-opacity:1.0000000;stroke-width:0.00000000;stroke-miterlimit:4.0000000;stroke-dasharray:none;stroke-opacity:1.0000000"
     id="path2931"
     sodipodi:sides="5"
     sodipodi:cx="55.839821"
     sodipodi:cy="129.36276"
     sodipodi:r1="22.000000"
     sodipodi:r2="8.8000002"
     sodipodi:arg1="-2.0000000"
     sodipodi:arg2="-1.4000000"
     inkscape:flatsided="false"
     inkscape:rounded="0.00000000"
     inkscape:randomized="0.00000000"
     d="M 46.684590,109.35822 L 57.335532,120.69080 L 72.036150,114.47388 L 64.549543,128.10549 L 75.004933,140.16547 L 59.727014,137.25768 L 51.488182,150.92809 L 49.532516,135.49937 L 33.985248,131.88816 L 48.054499,125.26047 L 46.684590,109.35822 z "
     transform="matrix(1.999702,0.000000,0.000000,2.000012,3.413085e-2,-8.453774e-3)" />
  <path
     sodipodi:type="star"
     style="fill:#ffffff;fill-opacity:1.0000000;stroke-width:0.00000000;stroke-miterlimit:4.0000000;stroke-dasharray:none;stroke-opacity:1.0000000"
     id="path2933"
     sodipodi:sides="5"
     sodipodi:cx="152.73834"
     sodipodi:cy="152.35564"
     sodipodi:r1="22.000000"
     sodipodi:r2="8.8000002"
     sodipodi:arg1="-2.0000000"
     sodipodi:arg2="-1.4000000"
     inkscape:flatsided="false"
     inkscape:rounded="0.00000000"
     inkscape:randomized="0.00000000"
     d="M 143.58311,132.35109 L 154.23405,143.68368 L 168.93467,137.46675 L 161.44806,151.09836 L 171.90345,163.15834 L 156.62554,160.25055 L 148.38670,173.92096 L 146.43104,158.49224 L 130.88377,154.88103 L 144.95302,148.25335 L 143.58311,132.35109 z "
     transform="matrix(1.999702,0.000000,0.000000,2.000012,3.413085e-2,-8.453774e-3)" />
  <path
     sodipodi:type="star"
     style="fill:#ffffff;fill-opacity:1.0000000;stroke-width:0.00000000;stroke-miterlimit:4.0000000;stroke-dasharray:none;stroke-opacity:1.0000000"
     id="path2935"
     sodipodi:sides="5"
     sodipodi:cx="175.45747"
     sodipodi:cy="64.763756"
     sodipodi:r1="11.000000"
     sodipodi:r2="4.4000001"
     sodipodi:arg1="-2.0000000"
     sodipodi:arg2="-1.4000000"
     inkscape:flatsided="false"
     inkscape:rounded="0.00000000"
     inkscape:randomized="0.00000000"
     d="M 170.87986,54.761484 L 176.20533,60.427777 L 183.55564,57.319313 L 179.81233,64.135117 L 185.04003,70.165109 L 177.40107,68.711215 L 173.28165,75.546418 L 172.30382,67.832058 L 164.53019,66.026455 L 171.56481,62.712612 L 170.87986,54.761484 z "
     transform="matrix(1.999702,0.000000,0.000000,2.000012,3.413085e-2,-8.453774e-3)" />
  <path
     sodipodi:type="star"
     style="fill:#ffffff;fill-opacity:1.0000000;stroke-width:0.00000000;stroke-miterlimit:4.0000000;stroke-dasharray:none;stroke-opacity:1.0000000"
     id="path2937"
     sodipodi:sides="5"
     sodipodi:cx="256.47998"
     sodipodi:cy="36.570122"
     sodipodi:r1="22.000000"
     sodipodi:r2="8.8000002"
     sodipodi:arg1="-2.0000000"
     sodipodi:arg2="-1.4000000"
     inkscape:flatsided="false"
     inkscape:rounded="0.00000000"
     inkscape:randomized="0.00000000"
     d="M 247.32475,16.565578 L 257.97569,27.898164 L 272.67631,21.681236 L 265.18970,35.312845 L 275.64509,47.372828 L 260.36717,44.465040 L 252.12834,58.135447 L 250.17268,42.706726 L 234.62541,39.095519 L 248.69466,32.467834 L 247.32475,16.565578 z "
     transform="matrix(1.999702,0.000000,0.000000,2.000012,3.413085e-2,-8.453774e-3)" />
</svg>
