<?xml version="1.0" encoding="UTF-8" standalone="no"?>
<svg
   xmlns:dc="http://purl.org/dc/elements/1.1/"
   xmlns:cc="http://web.resource.org/cc/"
   xmlns:rdf="http://www.w3.org/1999/02/22-rdf-syntax-ns#"
   xmlns:svg="http://www.w3.org/2000/svg"
   xmlns="http://www.w3.org/2000/svg"
   xmlns:sodipodi="http://inkscape.sourceforge.net/DTD/sodipodi-0.dtd"
   xmlns:inkscape="http://www.inkscape.org/namespaces/inkscape"
   width="771pt"
   height="771pt"
   id="svg2"
   sodipodi:version="0.32"
   inkscape:version="0.43"
   sodipodi:docname="finland_gott_fran.svg"
   sodipodi:docbase="/home/demailly/ajour/flags"
   version="1.0">
  <metadata
     id="metadata93">
    <rdf:RDF>
      <cc:Work
         rdf:about="">
        <dc:format>image/svg+xml</dc:format>
        <dc:type
           rdf:resource="http://purl.org/dc/dcmitype/StillImage" />
      </cc:Work>
    </rdf:RDF>
  </metadata>
  <sodipodi:namedview
     inkscape:cy="430.39161"
     inkscape:cx="579.94551"
     inkscape:zoom="0.61399264"
     inkscape:window-height="890"
     inkscape:window-width="1299"
     inkscape:pageshadow="2"
     inkscape:pageopacity="0.0"
     borderopacity="1.0"
     bordercolor="#666666"
     pagecolor="#ffffff"
     id="base"
     inkscape:window-x="239"
     inkscape:window-y="35"
     inkscape:current-layer="svg2" />
  <defs
     id="defs4">
    <marker
       id="ArrowEnd"
       viewBox="0 0 10 10"
       refX="0"
       refY="5"
       markerUnits="strokeWidth"
       markerWidth="4"
       markerHeight="3"
       orient="auto">
      <path
         d="M 0,0 L 10,5 L 0,10 L 0,0 z "
         id="path7" />
    </marker>
    <marker
       id="ArrowStart"
       viewBox="0 0 10 10"
       refX="10"
       refY="5"
       markerUnits="strokeWidth"
       markerWidth="4"
       markerHeight="3"
       orient="auto">
      <path
         d="M 10,0 L 0,5 L 10,10 L 10,0 z "
         id="path10" />
    </marker>
  </defs>
  <g
     id="g12"
     transform="matrix(5,0,0,5,3.74748,2.40564)">
    <path
       style="fill:#ffffff;stroke:none"
       d="M 0,192.754 L 192.754,192.754 L 192.754,0 L 0,0 L 0,192.754 z "
       id="path14" />
    <path
       style="fill:#337eff;stroke:none"
       d="M 182.441,96.375 C 182.441,143.906 143.914,182.437 96.379,182.437 C 72.617,182.437 51.097,172.804 35.523,157.23 C 19.953,141.66 10.32,120.14 10.32,96.375 C 10.32,48.847 48.851,10.312 96.383,10.312 C 120.148,10.312 141.664,19.945 157.238,35.515 C 172.808,51.086 182.441,72.605 182.441,96.371 L 182.441,96.375 z M 181.347,96.375 C 181.347,72.914 171.836,51.672 156.461,36.293 C 141.086,20.918 119.844,11.406 96.379,11.406 C 49.453,11.406 11.41,49.449 11.41,96.375 C 11.41,119.836 20.918,141.078 36.297,156.457 C 51.672,171.832 72.914,181.343 96.379,181.343 C 143.304,181.343 181.347,143.3 181.347,96.375"
       id="path16" />
    <path
       style="fill:#337eff;stroke:none"
       d="M 28.734,70.57 L 24.808,69.242 C 24.16,69.023 24.058,69.254 23.922,69.664 L 23.656,70.449 L 22.937,70.207 L 24.824,64.632 L 25.543,64.875 L 25.277,65.66 C 25.14,66.07 25.074,66.316 25.722,66.539 L 34.949,69.664 C 35.597,69.882 35.695,69.652 35.836,69.242 L 36.101,68.453 L 36.82,68.695 L 34.933,74.269 L 34.215,74.027 L 34.48,73.242 C 34.621,72.832 34.68,72.586 34.035,72.363 L 29.457,70.812 L 27.785,75.75 L 32.363,77.3 C 33.012,77.519 33.113,77.289 33.25,76.879 L 33.515,76.093 L 34.234,76.336 L 32.347,81.91 L 31.629,81.668 L 31.894,80.882 C 32.031,80.472 32.097,80.226 31.449,80.008 L 22.222,76.882 C 21.574,76.664 21.472,76.894 21.336,77.304 L 21.07,78.093 L 20.351,77.851 L 22.238,72.281 L 22.957,72.523 L 22.691,73.308 C 22.554,73.718 22.488,73.965 23.137,74.187 L 27.062,75.515 L 28.734,70.578"
       id="path18" />
    <path
       style="fill:#337eff;stroke:none"
       d="M 29.277,56.695 L 29.926,57.086 L 29.547,57.718 C 29.512,57.777 29.047,58.554 29.988,58.597 L 35.781,58.863 L 34.926,57.336 C 34.449,56.48 33.246,54.578 32.422,54.082 C 31.91,53.777 31.715,54.097 31.652,54.207 L 31.105,55.121 L 30.453,54.73 L 32.836,50.758 L 33.488,51.148 L 33.34,51.398 C 33.043,51.89 33.297,52.699 34.609,55.05 L 36.804,58.988 L 39.863,60.824 C 40.449,61.175 40.597,60.968 40.82,60.597 L 41.25,59.882 L 41.898,60.273 L 38.871,65.32 L 38.222,64.929 L 38.648,64.218 C 38.871,63.847 38.984,63.621 38.398,63.265 L 35.308,61.414 L 28.332,61.285 C 27.496,61.269 27.195,61.632 27,61.961 L 26.89,62.144 L 26.238,61.754 L 29.273,56.691"
       id="path20" />
    <path
       style="fill:#337eff;stroke:none"
       d="M 38.613,44.039 L 39.172,44.55 L 38.644,45.121 C 38.5,45.281 38.144,45.715 38.859,46.008 L 46.547,49.156 L 44.906,45.597 C 44.472,44.656 43.375,42.508 42.652,41.843 C 42.125,41.355 41.789,41.715 41.668,41.843 L 41.156,42.402 L 40.597,41.886 L 43.629,38.601 L 44.187,39.117 L 43.93,39.394 C 43.39,39.98 43.832,41.101 45.863,45.711 L 48.699,52.168 L 48.086,52.832 L 37.105,48.394 C 36.39,48.105 35.937,48.058 35.535,48.496 L 35.195,48.867 L 34.637,48.351 L 38.625,44.027"
       id="path22" />
    <path
       style="fill:#337eff;stroke:none"
       d="M 50.828,43.258 L 50.996,43.789 C 51.531,45.488 51.789,46.16 52.082,46.531 C 52.316,46.828 52.531,46.863 52.828,46.629 L 53.535,46.07 L 54.008,46.664 L 50.746,49.25 L 50.277,48.656 L 50.672,48.343 C 51.012,48.074 51.164,47.652 50.207,43.793 L 47.996,34.941 L 48.703,34.379 L 58.668,40.597 C 59.172,40.91 59.648,41.226 60.074,40.886 L 60.64,40.437 L 61.109,41.031 L 56.992,44.293 L 56.519,43.699 L 57.043,43.285 C 57.183,43.175 57.453,42.961 57.308,42.777 C 57.277,42.734 57.23,42.679 57.004,42.539 L 54.105,40.656 L 50.812,43.265 L 50.828,43.258 z M 53.422,40.23 L 49.461,37.711 L 50.652,42.425 L 53.418,40.234"
       id="path24" />
    <path
       style="fill:#337eff;stroke:none"
       d="M 62.164,35.324 L 62.222,35.882 C 62.414,37.652 62.535,38.363 62.75,38.785 C 62.922,39.121 63.125,39.203 63.465,39.027 L 64.269,38.617 L 64.613,39.293 L 60.906,41.187 L 60.562,40.511 L 61.012,40.285 C 61.398,40.09 61.629,39.707 61.449,35.73 L 61.023,26.617 L 61.828,26.207 L 70.375,34.261 C 70.804,34.668 71.215,35.07 71.699,34.824 L 72.344,34.496 L 72.687,35.172 L 68.012,37.558 L 67.668,36.882 L 68.262,36.578 C 68.422,36.5 68.726,36.343 68.621,36.132 C 68.597,36.086 68.566,36.023 68.371,35.836 L 65.898,33.422 L 62.16,35.332 L 62.164,35.324 z M 65.301,32.867 L 61.914,29.617 L 62.156,34.472 L 65.301,32.867"
       id="path26" />
    <path
       style="fill:#337eff;stroke:none"
       d="M 87.996,18.758 L 88.531,22.043 L 87.711,22.175 L 87.683,22 C 87.472,20.715 85.183,19.73 83.773,19.965 C 82.808,20.121 81.89,20.785 82.074,21.894 C 82.234,22.894 83.062,23.125 83.914,23.39 L 87.437,24.519 C 88.539,24.867 89.906,25.707 90.195,27.48 C 90.594,29.925 88.39,31.793 85.976,32.191 C 84.797,32.382 83.324,32.441 81.91,32 L 82.004,32.59 L 81.183,32.722 L 80.359,29.261 L 81.18,29.129 L 81.301,29.547 C 81.711,30.945 83.953,31.75 85.812,31.449 C 87.207,31.222 88.043,30.183 87.859,29.058 C 87.664,27.847 86.609,27.488 85.699,27.175 L 82.711,26.183 C 81.18,25.683 80.035,24.957 79.777,23.382 C 79.472,21.508 80.785,19.695 83.824,19.195 C 85.34,18.949 86.492,19.144 87.242,19.347 L 87.172,18.902 L 87.992,18.769"
       id="path28" />
    <path
       style="fill:#337eff;stroke:none"
       d="M 98.015,18.445 L 97.992,19.203 L 97.16,19.179 C 96.73,19.168 96.476,19.179 96.453,19.863 L 96.285,25.418 C 96.23,27.316 96.211,30.34 99.5,30.441 C 102.648,30.535 102.992,27.543 103.035,26.129 L 103.097,24.05 C 103.203,20.468 102.883,19.351 102.082,19.328 L 101.613,19.316 L 101.633,18.554 L 105.703,18.679 L 105.683,19.437 L 105.269,19.425 C 104.043,19.39 104.023,22.375 103.969,24.074 L 103.906,26.211 C 103.851,28.035 103.492,31.543 98.566,31.39 C 93.316,31.23 93.394,27.031 93.437,25.547 L 93.613,19.773 C 93.633,19.086 93.383,19.062 92.949,19.047 L 92.117,19.023 L 92.14,18.265 L 98.023,18.445"
       id="path30" />
    <path
       style="fill:#337eff;stroke:none"
       d="M 107.773,25.379 C 108.523,22.414 111.199,19.449 115.711,20.593 C 120.222,21.734 121.16,25.617 120.41,28.582 C 119.66,31.547 116.984,34.511 112.472,33.367 C 107.961,32.226 107.023,28.343 107.773,25.375 L 107.773,25.379 z M 110.93,26.179 C 109.558,31.601 111.867,32.433 112.656,32.632 C 113.445,32.832 115.875,33.203 117.246,27.781 C 118.617,22.359 116.312,21.527 115.519,21.328 C 114.73,21.129 112.304,20.758 110.93,26.179"
       id="path32" />
    <path
       style="fill:#337eff;stroke:none"
       d="M 129.867,25.906 L 129.015,35.179 L 135.957,29.113 L 139.816,31.144 L 139.465,31.816 L 138.73,31.429 C 138.347,31.23 138.117,31.129 137.793,31.734 L 133.254,40.351 C 132.933,40.957 133.148,41.093 133.531,41.293 L 134.269,41.679 L 133.918,42.351 L 128.715,39.609 L 129.066,38.937 L 129.801,39.324 C 130.183,39.523 130.414,39.629 130.738,39.019 L 135.015,30.898 L 126.465,38.429 L 125.84,38.101 L 126.926,26.64 L 124.672,30.918 C 123.043,34.008 122.574,35.519 123.344,35.925 L 123.695,36.109 L 123.344,36.781 L 119.82,34.925 L 120.172,34.254 L 120.523,34.437 C 121.34,34.863 122.492,33.183 123.902,30.508 L 126.414,25.734 C 126.734,25.125 126.515,24.992 126.137,24.789 L 125.402,24.402 L 125.758,23.73 L 129.875,25.898"
       id="path34" />
    <path
       style="fill:#337eff;stroke:none"
       d="M 150.265,39.836 L 148.488,42.332 L 147.851,41.8 L 148.18,41.347 C 148.695,40.648 148.195,39.097 146.047,37.297 C 145.453,36.8 145.133,36.957 144.98,37.136 L 142.226,40.425 L 142.461,40.621 C 144.222,42.097 144.933,42.121 145.422,41.539 L 145.769,41.125 L 146.406,41.656 L 143.64,44.961 L 143.004,44.429 L 143.398,43.957 C 143.883,43.375 143.734,42.683 141.972,41.207 L 141.738,41.011 L 138.535,44.843 C 138.281,45.148 138.199,45.269 138.992,45.933 C 140.293,47.023 142.457,48.05 143.609,47.129 L 144.039,46.785 L 144.621,47.414 L 142.086,49.515 L 134.351,43.043 L 134.836,42.465 L 135.472,42.996 C 135.804,43.273 136.008,43.422 136.449,42.898 L 142.699,35.425 C 143.14,34.898 142.957,34.722 142.629,34.445 L 141.992,33.914 L 142.476,33.332 L 150.265,39.851"
       id="path36" />
    <path
       style="fill:#337eff;stroke:none"
       d="M 158.57,49.191 L 156.035,51.351 L 155.496,50.718 L 155.633,50.605 C 156.621,49.761 156.281,47.293 155.359,46.203 C 154.726,45.461 153.683,45.015 152.828,45.746 C 152.058,46.402 152.285,47.23 152.504,48.097 L 153.355,51.695 C 153.621,52.82 153.609,54.425 152.25,55.586 C 150.363,57.191 147.621,56.265 146.039,54.406 C 145.265,53.5 144.453,52.265 144.105,50.82 L 143.652,51.207 L 143.113,50.574 L 145.648,48.082 L 146.183,48.715 L 145.89,49.035 C 144.906,50.109 145.375,52.445 146.594,53.882 C 147.504,54.957 148.828,55.14 149.695,54.402 C 150.629,53.605 150.394,52.519 150.187,51.578 L 149.5,48.504 C 149.14,46.933 149.172,45.574 150.379,44.543 C 151.824,43.312 154.058,43.504 156.054,45.843 C 157.051,47.015 157.476,48.101 157.687,48.851 L 158.031,48.562 L 158.57,49.195"
       id="path38" />
    <path
       style="fill:#337eff;stroke:none"
       d="M 166.43,61.675 L 163.66,63.316 L 163.238,62.601 L 163.531,62.429 C 164.543,61.832 164.281,59.543 163.808,58.75 C 163.664,58.5 163.406,58.531 163.281,58.605 L 154.625,63.742 C 154.035,64.093 154.148,64.32 154.371,64.691 L 154.793,65.406 L 154.14,65.793 L 151.137,60.734 L 151.789,60.347 L 152.211,61.062 C 152.433,61.433 152.574,61.644 153.168,61.293 L 161.824,56.152 C 161.945,56.082 162.094,55.867 161.945,55.617 C 161.472,54.824 159.594,53.5 158.582,54.101 L 158.285,54.273 L 157.863,53.558 L 160.633,51.914 L 166.426,61.679"
       id="path40" />
    <path
       style="fill:#337eff;stroke:none"
       d="M 161.015,69.527 L 160.453,69.523 C 158.672,69.508 157.949,69.543 157.512,69.703 C 157.156,69.832 157.054,70.027 157.183,70.382 L 157.496,71.23 L 156.781,71.496 L 155.34,67.59 L 156.051,67.328 L 156.226,67.804 C 156.375,68.207 156.726,68.484 160.699,68.773 L 169.801,69.418 L 170.113,70.265 L 161.109,77.808 C 160.656,78.187 160.207,78.547 160.394,79.058 L 160.644,79.738 L 159.933,80 L 158.113,75.074 L 158.828,74.812 L 159.058,75.441 C 159.121,75.609 159.238,75.929 159.457,75.851 C 159.508,75.836 159.574,75.808 159.781,75.636 L 162.469,73.465 L 161.012,69.527 L 161.015,69.527 z M 163.086,72.929 L 166.715,69.949 L 161.863,69.621 L 163.086,72.933"
       id="path42" />
    <path
       style="fill:#337eff;stroke:none"
       d="M 25.012,109.949 L 24.258,110.015 L 24.222,109.621 C 24.183,109.191 24.144,108.937 23.457,109.004 L 20.43,109.285 C 19.367,107.457 18.648,105.976 18.469,104.031 C 18.097,100.027 20.402,97.285 24.336,96.918 C 28.5,96.531 31.258,99.16 31.633,103.218 C 31.785,104.894 31.574,106.058 31.222,107 L 31.726,106.937 L 31.801,107.765 L 28,108.316 L 27.922,107.488 L 28.457,107.422 C 29.965,107.226 31.054,105.254 30.871,103.285 C 30.68,101.195 28.637,99.785 24.597,100.16 C 20.398,100.55 19.086,102.472 19.258,104.312 C 19.367,105.5 20.148,106.449 21.301,106.34 L 23.191,106.164 C 23.875,106.101 23.871,105.847 23.828,105.414 L 23.73,104.371 L 24.484,104.3 L 25.008,109.945"
       id="path44" />
    <path
       style="fill:#337eff;stroke:none"
       d="M 26.129,112.179 C 29.043,111.246 32.976,111.945 34.398,116.371 C 35.82,120.8 33.031,123.656 30.117,124.59 C 27.203,125.523 23.269,124.828 21.847,120.398 C 20.426,115.968 23.215,113.113 26.129,112.175 L 26.129,112.179 z M 27.125,115.285 C 21.797,116.996 22.32,119.394 22.57,120.168 C 22.816,120.941 23.789,123.199 29.117,121.488 C 34.445,119.781 33.918,117.379 33.672,116.601 C 33.426,115.828 32.453,113.57 27.125,115.281"
       id="path46" />
    <path
       style="fill:#337eff;stroke:none"
       d="M 42.16,133.355 L 39.347,134.925 L 38.941,134.199 L 39.238,134.031 C 40.262,133.457 40.058,131.168 39.609,130.359 C 39.469,130.109 39.211,130.129 39.086,130.199 L 30.301,135.117 C 29.703,135.449 29.808,135.679 30.023,136.058 L 30.43,136.785 L 29.769,137.156 L 26.894,132.019 L 27.558,131.652 L 27.965,132.379 C 28.176,132.758 28.316,132.968 28.914,132.632 L 37.699,127.718 C 37.824,127.648 37.976,127.441 37.836,127.187 C 37.387,126.382 35.539,125.008 34.512,125.586 L 34.215,125.75 L 33.808,125.023 L 36.621,123.453 L 42.164,133.359"
       id="path48" />
    <path
       style="fill:#337eff;stroke:none"
       d="M 49.543,142.336 L 47.054,144.382 L 46.527,143.738 L 46.793,143.519 C 47.699,142.777 47.094,140.554 46.515,139.84 C 46.332,139.617 46.082,139.683 45.969,139.777 L 38.187,146.164 C 37.656,146.601 37.804,146.808 38.082,147.14 L 38.609,147.781 L 38.023,148.261 L 34.293,143.715 L 34.879,143.234 L 35.406,143.879 C 35.68,144.215 35.855,144.398 36.387,143.961 L 44.168,137.574 C 44.277,137.484 44.39,137.25 44.207,137.023 C 43.625,136.312 41.562,135.285 40.652,136.031 L 40.387,136.246 L 39.863,135.605 L 42.355,133.562 L 49.558,142.336"
       id="path50" />
    <path
       style="fill:#337eff;stroke:none"
       d="M 65.129,154.039 L 63.656,156.726 L 62.961,156.273 L 63.234,155.785 C 63.746,154.867 62.551,153.261 60.547,151.953 C 59.898,151.531 59.597,151.726 59.469,151.922 L 57.125,155.511 L 57.472,155.738 C 59.398,156.996 60.101,156.937 60.519,156.3 L 60.812,155.847 L 61.508,156.3 L 59.152,159.91 L 58.453,159.457 L 58.789,158.941 C 59.203,158.304 58.969,157.632 57.051,156.375 L 56.703,156.148 L 54.062,160.195 C 53.687,160.769 53.89,160.922 54.25,161.16 L 55.097,161.711 L 54.683,162.347 L 49.605,159.031 L 50.019,158.394 L 50.715,158.847 C 51.078,159.082 51.301,159.203 51.676,158.632 L 57,150.476 C 57.375,149.902 57.172,149.75 56.812,149.511 L 56.117,149.058 L 56.531,148.422 L 65.129,154.035"
       id="path52" />
    <path
       style="fill:#337eff;stroke:none"
       d="M 61.551,165.668 L 62.32,165.976 C 62.722,166.136 62.965,166.218 63.222,165.582 L 66.875,156.55 C 67.133,155.914 66.902,155.804 66.504,155.64 L 65.734,155.332 L 66.019,154.625 L 71.758,156.949 C 73.316,157.578 76.226,158.933 75.129,161.652 C 74.117,164.152 71.359,163.679 69.781,163.043 L 69.734,163.156 C 71.894,164.09 72.125,165.84 72.144,167.668 C 72.152,168.273 71.996,169.578 72.582,169.82 C 72.918,169.953 73.156,169.703 73.418,169.34 L 73.961,169.734 C 73.363,170.683 72.207,171.074 71.066,170.613 C 69.59,170.015 69.441,168.55 69.367,167.191 C 69.254,165.211 69.351,162.988 67.562,162.437 L 65.859,166.648 C 65.605,167.285 65.832,167.398 66.23,167.558 L 67,167.867 L 66.719,168.57 L 61.265,166.367 L 61.547,165.664 L 61.551,165.668 z M 67.851,161.73 C 68.043,161.824 68.262,161.914 68.465,161.996 C 69.437,162.39 71.301,162.906 72.211,160.66 C 72.574,159.758 72.883,158.222 70.922,157.425 C 70.554,157.277 70.187,157.172 69.707,157.152 L 67.855,161.734"
       id="path54" />
    <path
       style="fill:#337eff;stroke:none"
       d="M 80.75,168.14 L 80.465,168.621 C 79.551,170.148 79.215,170.789 79.133,171.254 C 79.07,171.625 79.18,171.812 79.554,171.879 L 80.445,172.035 L 80.316,172.781 L 76.215,172.054 L 76.347,171.308 L 76.844,171.394 C 77.269,171.468 77.683,171.304 79.941,168.027 L 85.101,160.504 L 85.992,160.66 L 87.941,172.242 C 88.039,172.828 88.121,173.394 88.656,173.492 L 89.367,173.617 L 89.234,174.363 L 84.062,173.445 L 84.195,172.695 L 84.851,172.812 C 85.027,172.84 85.367,172.902 85.406,172.672 C 85.414,172.621 85.426,172.55 85.387,172.285 L 84.875,168.867 L 80.742,168.132 L 80.75,168.14 z M 84.734,168.078 L 83.996,163.441 L 81.262,167.461 L 84.738,168.078"
       id="path56" />
    <path
       style="fill:#337eff;stroke:none"
       d="M 95.82,161.785 L 103.086,170.062 L 102.984,167.008 C 102.871,163.422 102.472,162.332 101.676,162.359 L 101.265,162.371 L 101.242,161.613 L 105.222,161.484 L 105.246,162.242 L 104.867,162.254 C 103.98,162.277 103.762,163.773 103.863,166.976 L 104.105,174.449 L 103.273,174.476 L 94.773,164.914 L 94.894,168.679 C 95.008,172.172 95.347,173.718 96.215,173.687 L 96.609,173.675 L 96.633,174.433 L 92.562,174.566 L 92.539,173.808 L 93.027,173.797 C 93.949,173.769 94.117,171.73 94.019,168.711 L 93.871,164.023 L 93.422,163.496 C 92.933,162.918 92.562,162.601 91.82,162.679 L 91.797,161.922 L 95.832,161.793"
       id="path58" />
    <path
       style="fill:#337eff;stroke:none"
       d="M 124.238,155.758 L 125.531,158.539 L 124.75,158.832 L 124.523,158.316 C 124.09,157.359 122.086,157.375 119.847,158.215 C 119.121,158.484 119.097,158.843 119.18,159.062 L 120.683,163.082 L 121.07,162.941 C 123.222,162.132 123.597,161.531 123.328,160.816 L 123.14,160.312 L 123.918,160.019 L 125.426,164.054 L 124.648,164.347 L 124.433,163.773 C 124.168,163.062 123.492,162.851 121.336,163.656 L 120.945,163.8 L 122.637,168.328 C 122.879,168.972 123.121,168.898 123.527,168.746 L 124.472,168.39 L 124.738,169.101 L 119.058,171.226 L 118.793,170.515 L 119.57,170.222 C 119.972,170.074 120.207,169.965 119.965,169.324 L 116.551,160.203 C 116.312,159.558 116.066,159.632 115.66,159.785 L 114.883,160.078 L 114.621,159.367 L 124.234,155.769"
       id="path60" />
    <path
       style="fill:#337eff;stroke:none"
       d="M 130.472,152.238 L 130.836,152.902 L 130.109,153.3 C 129.73,153.508 129.515,153.644 129.847,154.25 L 134.535,162.789 C 134.863,163.39 135.094,163.285 135.476,163.074 L 136.203,162.675 L 136.566,163.34 L 131.41,166.172 L 131.047,165.511 L 131.773,165.113 C 132.152,164.902 132.367,164.765 132.035,164.164 L 127.347,155.621 C 127.019,155.023 126.789,155.129 126.406,155.336 L 125.68,155.734 L 125.316,155.07 L 130.472,152.238"
       id="path62" />
    <path
       style="fill:#337eff;stroke:none"
       d="M 134.558,149.5 L 145.312,151.875 L 143.426,149.468 C 141.215,146.652 140.246,146.008 139.621,146.5 L 139.293,146.754 L 138.824,146.16 L 141.957,143.699 L 142.426,144.293 L 142.129,144.527 C 141.433,145.074 142.133,146.41 144.113,148.933 L 148.73,154.812 L 148.078,155.328 L 135.566,152.652 L 137.89,155.613 C 140.047,158.359 141.234,159.406 141.922,158.871 L 142.234,158.629 L 142.703,159.226 L 139.5,161.742 L 139.031,161.144 L 139.414,160.847 C 140.137,160.277 139.074,158.535 137.207,156.16 L 134.312,152.472 L 133.637,152.316 C 132.902,152.14 132.414,152.105 131.863,152.601 L 131.398,152.008 L 134.57,149.511"
       id="path64" />
    <path
       style="fill:#337eff;stroke:none"
       d="M 146.465,138.371 L 147.039,138.867 L 146.496,139.496 C 146.215,139.824 146.062,140.027 146.582,140.476 L 153.961,146.808 C 154.437,147.218 154.59,147.183 154.957,146.758 C 155.629,145.976 156.508,144.703 156.832,143.906 C 157.066,143.324 157.285,142.461 156.57,141.605 L 156.289,141.269 L 156.937,140.707 L 159.027,143.191 L 152.246,151.093 L 151.672,150.601 L 152.211,149.972 C 152.492,149.644 152.644,149.437 152.125,148.992 L 144.73,142.648 C 144.211,142.203 144.031,142.382 143.746,142.707 L 143.207,143.336 L 142.633,142.843 L 146.465,138.379"
       id="path66" />
    <path
       style="fill:#337eff;stroke:none"
       d="M 158.789,135.093 L 159.144,135.523 C 160.273,136.898 160.765,137.429 161.172,137.66 C 161.5,137.847 161.715,137.8 161.902,137.476 L 162.351,136.695 L 163.008,137.07 L 160.945,140.687 L 160.285,140.312 L 160.535,139.875 C 160.746,139.496 160.734,139.05 158.406,135.824 L 153.054,128.433 L 153.5,127.648 L 165.066,129.703 C 165.652,129.808 166.215,129.918 166.484,129.449 L 166.84,128.82 L 167.5,129.199 L 164.898,133.758 L 164.242,133.382 L 164.57,132.8 C 164.66,132.644 164.828,132.347 164.625,132.23 C 164.582,132.203 164.519,132.168 164.254,132.121 L 160.859,131.457 L 158.777,135.105 L 158.789,135.093 z M 160.066,131.316 L 155.453,130.453 L 158.316,134.382 L 160.066,131.316"
       id="path68" />
    <path
       style="fill:#337eff;stroke:none"
       d="M 157.816,118.898 L 168.051,114.832 L 165.137,113.902 C 161.722,112.812 160.558,112.824 160.316,113.582 L 160.191,113.976 L 159.469,113.746 L 160.68,109.953 L 161.402,110.183 L 161.289,110.543 C 161.019,111.386 162.347,112.097 165.402,113.07 L 172.527,115.343 L 172.273,116.136 L 160.414,120.941 L 164,122.086 C 167.328,123.148 168.898,123.343 169.164,122.515 L 169.285,122.14 L 170.008,122.371 L 168.769,126.25 L 168.047,126.019 L 168.195,125.558 C 168.472,124.679 166.617,123.84 163.738,122.918 L 159.269,121.492 L 158.625,121.738 C 157.914,122.004 157.492,122.25 157.316,122.972 L 156.597,122.746 L 157.824,118.898"
       id="path70" />
    <path
       style="fill:#337eff;stroke:none"
       d="M 161.488,102.054 C 161.957,96.695 165.316,95.722 168.168,95.972 C 170.566,96.183 174.597,97.644 174.148,102.769 L 173.504,110.074 L 172.746,110.008 L 172.816,109.179 C 172.851,108.746 172.859,108.492 172.176,108.433 L 162.472,107.582 C 161.789,107.523 161.75,107.769 161.711,108.203 L 161.64,109.031 L 160.883,108.968 L 161.488,102.058 L 161.488,102.054 z M 172.808,105.632 C 173.039,105.039 173.258,104.254 173.308,103.644 C 173.59,100.398 170.426,99.449 167.902,99.226 C 162.89,98.785 162.324,101.277 162.219,102.488 C 162.16,103.172 162.16,103.992 162.258,104.707 L 172.808,105.632"
       id="path72" />
    <path
       style="fill:#337eff;stroke:none"
       d="M 153.039,86.828 C 151.238,90.125 149.34,92.328 147.687,95.07 C 142.594,101.832 136.066,105.578 116.894,103.562 C 115.746,103.445 114.676,103.394 113.574,103.32 L 121.765,90.675 C 144.129,90.836 150.844,87.632 152.836,85.789 C 147.867,59.125 124.484,38.933 96.375,38.933 C 64.648,38.933 38.926,64.652 38.926,96.382 C 38.926,128.109 64.644,153.832 96.375,153.832 C 128.101,153.832 153.824,128.113 153.824,96.382 C 153.824,92.836 153.652,90.207 153.039,86.832 L 153.039,86.828 z M 93.469,123.125 L 52.09,123.125 C 51.871,117.136 49.43,113.812 60.961,99.613 C 81.789,73.976 78.039,65.898 78.039,65.898 C 77.152,58.804 67.613,62.793 61.18,60.574 C 70.164,56.843 74.601,53.699 74.601,53.699 C 81.367,48.601 96.637,54.734 80.808,83.086 C 64.64,112.047 67.945,111.699 67.945,111.699 C 72.933,106.929 89.574,89.632 114.195,90.515 C 114.328,90.519 114.449,90.519 114.586,90.523 L 106.453,103.074 C 82.144,103.359 72.137,114.406 72.137,114.406 C 77.449,109.824 91.324,108.789 102.75,108.789 L 93.469,123.117 L 93.469,123.125 z M 119.297,123.125 L 100.738,123.125 L 109.941,108.922 C 115.762,109.117 119.847,109.484 119.847,109.484 C 130.644,110.066 137.109,107.871 140.902,105.492 C 126.316,126.047 119.293,123.125 119.293,123.125"
       id="path74" />
    <path
       style="fill:#337eff;stroke:none"
       d="M 26.492,87.929 C 26.492,88.98 25.64,89.836 24.586,89.836 C 23.535,89.836 22.68,88.984 22.68,87.929 C 22.68,86.875 23.531,86.023 24.586,86.023 C 25.64,86.023 26.492,86.875 26.492,87.929"
       id="path76" />
    <path
       style="fill:#337eff;stroke:none"
       d="M 169.785,87.929 C 169.785,88.98 168.933,89.836 167.879,89.836 C 166.824,89.836 165.972,88.984 165.972,87.929 C 165.972,86.875 166.824,86.023 167.879,86.023 C 168.93,86.023 169.785,86.875 169.785,87.929"
       id="path78" />
    <path
       style="fill:#337eff;stroke:none"
       d="M 46.605,36.031 C 46.605,36.394 46.312,36.687 45.949,36.687 C 45.586,36.687 45.293,36.394 45.293,36.031 C 45.293,35.668 45.586,35.375 45.949,35.375 C 46.312,35.375 46.605,35.668 46.605,36.031"
       id="path80" />
    <path
       style="fill:#337eff;stroke:none"
       d="M 50.617,32.859 C 50.617,33.222 50.324,33.515 49.961,33.515 C 49.597,33.515 49.304,33.222 49.304,32.859 C 49.304,32.496 49.597,32.203 49.961,32.203 C 50.324,32.203 50.617,32.496 50.617,32.859"
       id="path82" />
    <path
       style="fill:#337eff;stroke:none"
       d="M 59.652,26.933 C 59.652,27.297 59.359,27.59 58.996,27.59 C 58.633,27.59 58.34,27.297 58.34,26.933 C 58.34,26.57 58.633,26.277 58.996,26.277 C 59.355,26.277 59.652,26.57 59.652,26.933"
       id="path84" />
    <path
       style="fill:#337eff;stroke:none"
       d="M 63.722,24.539 C 63.722,24.902 63.43,25.195 63.066,25.195 C 62.703,25.195 62.41,24.902 62.41,24.539 C 62.41,24.175 62.703,23.882 63.066,23.882 C 63.43,23.882 63.722,24.175 63.722,24.539"
       id="path86" />
    <path
       style="fill:#337eff;stroke:none"
       d="M 86.949,156.593 C 86.949,156.593 86.949,156.593 86.949,156.593 L 86.949,156.593 C 86.949,156.593 86.949,156.593 86.949,156.593"
       id="path88" />
    <path
       style="fill:#337eff;stroke:none"
       d="M 87.234,157.289 C 87.234,157.019 87.129,156.773 86.949,156.597 C 86.773,156.422 86.527,156.316 86.258,156.316 C 85.988,156.316 85.742,156.422 85.566,156.597 C 85.566,156.597 85.566,156.597 85.566,156.597 L 85.566,156.597 C 85.566,156.597 85.566,156.597 85.566,156.597 C 85.39,156.773 85.285,157.019 85.285,157.289 C 85.285,157.558 85.394,157.804 85.57,157.98 C 85.746,158.156 85.992,158.261 86.262,158.261 C 86.531,158.261 86.777,158.156 86.953,157.98 C 86.953,157.98 86.953,157.98 86.953,157.98 L 86.953,157.98 C 86.953,157.98 86.953,157.98 86.953,157.98 C 87.129,157.804 87.234,157.558 87.234,157.289 z M 88.176,157.289 C 88.176,157.816 87.961,158.297 87.617,158.644 L 87.617,158.644 C 87.273,158.988 86.793,159.203 86.262,159.203 C 85.734,159.203 85.254,158.988 84.91,158.644 L 84.91,158.644 C 84.566,158.3 84.351,157.82 84.351,157.289 C 84.351,156.761 84.566,156.281 84.91,155.933 L 84.91,155.933 C 85.254,155.59 85.734,155.375 86.262,155.375 C 86.789,155.375 87.269,155.59 87.617,155.933 L 87.617,155.933 C 87.961,156.277 88.176,156.758 88.176,157.289"
       id="path90" />
  </g>
</svg>
