<?xml version="1.0" encoding="UTF-8" standalone="no"?>
<svg
   xmlns:dc="http://purl.org/dc/elements/1.1/"
   xmlns:cc="http://web.resource.org/cc/"
   xmlns:rdf="http://www.w3.org/1999/02/22-rdf-syntax-ns#"
   xmlns:svg="http://www.w3.org/2000/svg"
   xmlns="http://www.w3.org/2000/svg"
   xmlns:sodipodi="http://inkscape.sourceforge.net/DTD/sodipodi-0.dtd"
   xmlns:inkscape="http://www.inkscape.org/namespaces/inkscape"
   id="svg2"
   sodipodi:version="0.32"
   inkscape:version="0.42"
   width="210mm"
   height="175mm"
   sodipodi:docname="french_austral_territories.svg"
   sodipodi:docbase="/home/demailly/work">
  <metadata
     id="metadata15">
    <rdf:RDF>
      <cc:Work
         rdf:about="">
        <dc:format>image/svg+xml</dc:format>
        <dc:type
           rdf:resource="http://purl.org/dc/dcmitype/StillImage" />
      </cc:Work>
    </rdf:RDF>
  </metadata>
  <defs
     id="defs13" />
  <sodipodi:namedview
     inkscape:cy="585.05810"
     inkscape:cx="366.19018"
     inkscape:zoom="1.7366334"
     inkscape:window-height="1052"
     inkscape:window-width="1578"
     inkscape:pageshadow="2"
     inkscape:pageopacity="0.0"
     borderopacity="1.0"
     bordercolor="#666666"
     pagecolor="#ffffff"
     id="base"
     inkscape:window-x="79"
     inkscape:window-y="35"
     inkscape:current-layer="svg2" />
  <g
     id="g2091"
     transform="matrix(2.841689,0.000000,0.000000,2.853078,0.215998,-217.5829)">
    <path
       d="M 126.40396,129.34772 L 126.40396,182.34772 L 63.403956,182.34772 L 0.40395600,182.34772 L 0.40395600,237.84772 L 0.40395600,293.34772 L 130.90396,293.34772 L 261.40396,293.34772 L 261.40396,184.84772 L 261.40396,76.347720 L 193.90396,76.347720 L 126.40396,76.347720 L 126.40396,129.34772 z M 218.18906,201.75907 C 216.14781,204.93593 215.32650,206.01486 213.11810,209.33965 C 206.01810,209.33965 202.90213,209.31900 199.29081,209.34738 C 199.29081,211.74738 199.40698,213.43441 199.40612,214.45552 C 203.78584,214.32959 210.02958,214.33906 210.02958,214.33906 C 210.02958,214.33906 208.92427,215.99499 205.26590,221.42717 L 199.40396,221.43783 C 199.40396,221.43783 199.46094,234.27583 199.46547,236.18640 C 200.67056,234.38093 206.42169,225.99754 209.60396,221.34772 C 212.93397,226.20717 221.26628,238.59393 224.90383,243.89054 C 221.83320,243.90490 218.60821,243.90805 216.10821,243.90805 C 214.87545,242.11265 215.68650,243.31171 214.34951,241.38338 C 212.43467,241.44376 208.25945,241.44871 205.45945,241.44871 L 195.46088,257.11952 C 195.46088,257.11952 188.96156,248.64825 183.37211,241.46349 C 180.58647,241.42779 177.68791,241.38362 175.63118,241.36761 C 174.19263,243.29495 175.12963,242.04751 173.41599,244.36332 L 164.32543,244.31189 C 164.32543,244.31189 177.84061,223.82096 179.60396,221.34772 C 183.08413,226.39717 190.00364,236.54772 190.00396,236.34772 L 190.04691,209.27631 C 190.04691,209.27631 180.53373,209.45677 174.49550,209.34635 C 172.47298,206.34283 171.32785,204.57996 169.69012,202.03039 C 184.03057,202.03830 205.55700,201.84260 218.18906,201.75907 z "
       id="path6"
       sodipodi:nodetypes="ccccccccccccccccccccccccccccccccscccc"
       style="fill:#000099;fill-opacity:1.0000000;stroke:none" />
    <path
       d="M 207.81936,235.36793 C 209.50280,235.39119 210.38472,235.38465 211.93202,235.40605 C 211.06826,234.18011 210.63152,233.67283 209.87654,232.61333 C 209.08598,233.66975 208.61475,234.21567 207.81936,235.36793 z "
       id="path10"
       sodipodi:nodetypes="cccc"
       style="fill:#000099;fill-opacity:1.0000000;stroke:none" />
    <path
       d="M 177.69297,235.16392 C 179.44783,235.15147 180.22263,235.14493 181.76993,235.16633 C 180.90617,233.94039 180.46943,233.43311 179.71445,232.37361 C 178.92389,233.28721 178.55977,234.15448 177.69297,235.16392 z "
       id="path1327"
       sodipodi:nodetypes="cccc"
       style="fill:#000099;fill-opacity:1.0000000;stroke:none" />
    <rect
       ry="0.20918794"
       y="76.947723"
       x="0.80791217"
       height="105.83654"
       width="125.63037"
       id="rect2032"
       style="opacity:1.0000000;fill:#ffffff;fill-opacity:1.0000000;stroke:none;stroke-width:0.87085718;stroke-linecap:butt;stroke-linejoin:bevel;stroke-miterlimit:4.0000000;stroke-dasharray:none;stroke-opacity:1.0000000"
       rx="0.21002637" />
    <rect
       rx="0.21002637"
       ry="0.20918794"
       y="76.543770"
       x="84.426834"
       height="106.24047"
       width="41.607487"
       id="rect2040"
       style="opacity:1.0000000;fill:#ff0900;fill-opacity:1.0000000;stroke:none;stroke-width:0.87085718;stroke-linecap:butt;stroke-linejoin:bevel;stroke-miterlimit:4.0000000;stroke-dasharray:none;stroke-opacity:1.0000000" />
    <rect
       ry="0.20918794"
       y="77.351685"
       x="1.2118684"
       height="105.43256"
       width="41.607487"
       id="rect2034"
       style="opacity:1.0000000;fill:#000099;fill-opacity:1.0000000;stroke:none;stroke-width:0.87085718;stroke-linecap:butt;stroke-linejoin:bevel;stroke-miterlimit:4.0000000;stroke-dasharray:none;stroke-opacity:1.0000000"
       rx="0.21002637" />
    <rect
       ry="0.20918794"
       y="76.947739"
       x="0.80791217"
       height="105.83654"
       width="125.63037"
       id="rect2042"
       style="opacity:1.0000000;fill:none;fill-opacity:1.0000000;stroke:#000000;stroke-width:0.87085718;stroke-linecap:butt;stroke-linejoin:bevel;stroke-miterlimit:4.0000000;stroke-dasharray:none;stroke-opacity:1.0000000"
       rx="0.21002637" />
    <path
       transform="matrix(0.162000,0.000000,0.000000,0.162000,150.9413,225.4542)"
       d="M 206.01765,206.61766 L 178.69618,186.46602 L 150.81857,205.84101 L 161.54111,173.62955 L 134.49974,153.10356 L 168.44812,153.34742 L 179.61325,121.28667 L 189.87195,153.64885 L 223.81375,154.36020 L 196.20560,174.11727 L 206.01765,206.61766 z "
       inkscape:randomized="0.0000000"
       inkscape:rounded="0.0000000"
       inkscape:flatsided="false"
       sodipodi:arg2="1.5848653"
       sodipodi:arg1="0.95654677"
       sodipodi:r2="18.226002"
       sodipodi:r1="46.959797"
       sodipodi:cy="168.24182"
       sodipodi:cx="178.95259"
       sodipodi:sides="5"
       id="path2044"
       style="opacity:1.0000000;fill:#ffffff;fill-opacity:1.0000000;stroke:none;stroke-width:0.87085718;stroke-linecap:butt;stroke-linejoin:bevel;stroke-miterlimit:4.0000000;stroke-dasharray:none;stroke-opacity:1.0000000"
       sodipodi:type="star" />
    <path
       transform="matrix(0.162000,0.000000,0.000000,0.162000,166.4914,241.0548)"
       d="M 206.01765,206.61766 L 178.69618,186.46602 L 150.81857,205.84101 L 161.54111,173.62955 L 134.49974,153.10356 L 168.44812,153.34742 L 179.61325,121.28667 L 189.87195,153.64885 L 223.81375,154.36020 L 196.20560,174.11727 L 206.01765,206.61766 z "
       inkscape:randomized="0.0000000"
       inkscape:rounded="0.0000000"
       inkscape:flatsided="false"
       sodipodi:arg2="1.5848653"
       sodipodi:arg1="0.95654677"
       sodipodi:r2="18.226002"
       sodipodi:r1="46.959797"
       sodipodi:cy="168.24182"
       sodipodi:cx="178.95259"
       sodipodi:sides="5"
       id="path2065"
       style="opacity:1.0000000;fill:#ffffff;fill-opacity:1.0000000;stroke:none;stroke-width:0.87085718;stroke-linecap:butt;stroke-linejoin:bevel;stroke-miterlimit:4.0000000;stroke-dasharray:none;stroke-opacity:1.0000000"
       sodipodi:type="star" />
    <path
       transform="matrix(0.162000,0.000000,0.000000,0.162000,180.8319,226.1084)"
       d="M 206.01765,206.61766 L 178.69618,186.46602 L 150.81857,205.84101 L 161.54111,173.62955 L 134.49974,153.10356 L 168.44812,153.34742 L 179.61325,121.28667 L 189.87195,153.64885 L 223.81375,154.36020 L 196.20560,174.11727 L 206.01765,206.61766 z "
       inkscape:randomized="0.0000000"
       inkscape:rounded="0.0000000"
       inkscape:flatsided="false"
       sodipodi:arg2="1.5848653"
       sodipodi:arg1="0.95654677"
       sodipodi:r2="18.226002"
       sodipodi:r1="46.959797"
       sodipodi:cy="168.24182"
       sodipodi:cx="178.95259"
       sodipodi:sides="5"
       id="path2067"
       style="opacity:1.0000000;fill:#ffffff;fill-opacity:1.0000000;stroke:none;stroke-width:0.87085718;stroke-linecap:butt;stroke-linejoin:bevel;stroke-miterlimit:4.0000000;stroke-dasharray:none;stroke-opacity:1.0000000"
       sodipodi:type="star" />
  </g>
</svg>
