<?xml version="1.0" encoding="UTF-8" standalone="no"?>
<!-- Created with Inkscape (http://www.inkscape.org/) -->
<svg
   xmlns:svg="http://www.w3.org/2000/svg"
   xmlns="http://www.w3.org/2000/svg"
   xmlns:xlink="http://www.w3.org/1999/xlink"
   version="1.0"
   x="0.00000000"
   y="0.00000000"
   width="531.49603"
   height="354.33072"
   id="svg2237">
  <defs
     id="defs2240" />
  <g
     transform="matrix(1.000468,0.000000,0.000000,1.000000,0.000000,-697.7815)"
     id="g6619">
    <rect
       width="530.99896"
       height="354.25867"
       x="0.24850610"
       y="697.85352"
       style="opacity:1.0000000;fill:#0000ff;fill-opacity:1.0000000;fill-rule:nonzero;stroke:none;stroke-width:0.49999946;stroke-linecap:round;stroke-linejoin:bevel;stroke-miterlimit:4.0000000;stroke-dasharray:none;stroke-dashoffset:0.00000000;stroke-opacity:1.0000000"
       id="rect2255" />
    <rect
       width="530.99597"
       height="253.02013"
       x="0.24993934"
       y="748.47345"
       style="opacity:1.0000000;fill:#ffffff;fill-opacity:1.0000000;fill-rule:nonzero;stroke:none;stroke-width:0.49999928;stroke-linecap:round;stroke-linejoin:bevel;stroke-miterlimit:4.0000000;stroke-dasharray:none;stroke-dashoffset:0.00000000;stroke-opacity:1.0000000"
       id="rect2257" />
    <rect
       width="530.99597"
       height="151.78334"
       x="0.24993937"
       y="799.09161"
       style="opacity:1.0000000;fill:#0000ff;fill-opacity:1.0000000;fill-rule:nonzero;stroke:none;stroke-width:0.49999964;stroke-linecap:round;stroke-linejoin:bevel;stroke-miterlimit:4.0000000;stroke-dasharray:none;stroke-dashoffset:0.00000000;stroke-opacity:1.0000000"
       id="rect2259" />
    <rect
       width="530.99597"
       height="50.547165"
       x="0.24993935"
       y="849.70917"
       style="opacity:1.0000000;fill:#ffffff;fill-opacity:1.0000000;fill-rule:nonzero;stroke:none;stroke-width:0.49999934;stroke-linecap:round;stroke-linejoin:bevel;stroke-miterlimit:4.0000000;stroke-dasharray:none;stroke-dashoffset:0.00000000;stroke-opacity:1.0000000"
       id="rect2261" />
    <g
       transform="matrix(0.674916,0.000000,0.000000,0.674916,0.000000,697.7732)"
       id="g1501">
      <rect
         width="375.00000"
         height="250.00000"
         x="125.00000"
         y="427.36218"
         transform="matrix(1.200000,0.000000,0.000000,1.200000,-150.0000,-512.8346)"
         style="fill:#ffffff;fill-opacity:1.0000000;fill-rule:evenodd;stroke:none;stroke-width:1.0000000pt;stroke-linecap:butt;stroke-linejoin:miter;stroke-opacity:1.0000000"
         id="rect908" />
      <path
         d="M 195.00000,0.00000000 L 195.00000,120.00000 L 0.00000000,120.00000 L 0.00000000,180.00000 L 195.00000,180.00000 L 195.00000,300.00000 L 255.00000,300.00000 L 255.00000,180.00000 L 450.00000,180.00000 L 450.00000,120.00000 L 255.00000,120.00000 L 255.00000,0.00000000 L 195.00000,0.00000000 z "
         style="fill:#e8112d;fill-opacity:1.0000000;fill-rule:evenodd;stroke:none;stroke-width:1.0000000pt;stroke-linecap:butt;stroke-linejoin:miter;stroke-opacity:1.0000000"
         id="rect1530" />
      <g
         transform="matrix(1.200000,0.000000,0.000000,1.200000,-426.2250,-272.8312)"
         style="fill:#e8112d;fill-opacity:1.0000000"
         id="g8391">
        <path
           d="M 427.81250,253.00000 C 429.31817,260.90283 430.18750,269.03608 430.18750,277.37500 C 430.18750,285.70481 429.31506,293.82418 427.81250,301.71875 C 430.64147,301.36370 433.51277,301.12500 436.43750,301.12500 C 439.36471,301.12500 442.23122,301.36311 445.06250,301.71875 C 443.55991,293.82410 442.68750,285.70490 442.68750,277.37500 C 442.68750,269.03512 443.55652,260.90354 445.06250,253.00000 C 442.23122,253.35564 439.36471,253.62500 436.43750,253.62500 C 433.51029,253.62500 430.64378,253.35564 427.81250,253.00000 z "
           style="fill-rule:evenodd;stroke:none;stroke-width:1.0000000pt;stroke-linecap:butt;stroke-linejoin:miter;stroke-opacity:1.0000000"
           id="rect5259" />
        <path
           d="M 460.79687,268.73437 C 452.89404,270.24004 444.76079,271.10937 436.42187,271.10937 C 428.09206,271.10937 419.97269,270.23692 412.07812,268.73437 C 412.43317,271.56333 412.67187,274.43463 412.67187,277.35937 C 412.67187,280.28658 412.43376,283.15309 412.07812,285.98437 C 419.97277,284.48178 428.09197,283.60937 436.42187,283.60937 C 444.76175,283.60937 452.89332,284.47838 460.79687,285.98437 C 460.44123,283.15309 460.17187,280.28658 460.17187,277.35937 C 460.17187,274.43216 460.44123,271.56564 460.79687,268.73437 z "
           style="fill-rule:evenodd;stroke:none;stroke-width:1.0000000pt;stroke-linecap:butt;stroke-linejoin:miter;stroke-opacity:1.0000000"
           id="path8390" />
      </g>
      <use
         transform="translate(255.0013,0.000000)"
         id="use1494"
         x="0.00000000"
         y="0.00000000"
         width="450.00000"
         height="300.00000"
         xlink:href="#g8391" />
      <use
         transform="translate(9.995600e-2,179.9987)"
         id="use1496"
         x="0.00000000"
         y="0.00000000"
         width="450.00000"
         height="300.00000"
         xlink:href="#use1494" />
      <use
         transform="translate(-255.1000,0.000000)"
         id="use1498"
         x="0.00000000"
         y="0.00000000"
         width="450.00000"
         height="300.00000"
         xlink:href="#use1496" />
    </g>
  </g>
</svg>
