<?xml version="1.0" encoding="UTF-8" standalone="no"?>
<svg
   xmlns:dc="http://purl.org/dc/elements/1.1/"
   xmlns:cc="http://web.resource.org/cc/"
   xmlns:rdf="http://www.w3.org/1999/02/22-rdf-syntax-ns#"
   xmlns:svg="http://www.w3.org/2000/svg"
   xmlns="http://www.w3.org/2000/svg"
   xmlns:sodipodi="http://inkscape.sourceforge.net/DTD/sodipodi-0.dtd"
   xmlns:inkscape="http://www.inkscape.org/namespaces/inkscape"
   width="648"
   height="432"
   id="svg2"
   sodipodi:version="0.32"
   inkscape:version="0.42"
   sodipodi:docname="guadeloupe.svg"
   sodipodi:docbase="/home/demailly/gis_data/flags/svg/world">
  <metadata
     id="metadata11">
    <rdf:RDF>
      <cc:Work
         rdf:about="">
        <dc:format>image/svg+xml</dc:format>
        <dc:type
           rdf:resource="http://purl.org/dc/dcmitype/StillImage" />
      </cc:Work>
    </rdf:RDF>
  </metadata>
  <defs
     id="defs9">
    <marker
       orient="auto"
       markerHeight="3"
       markerWidth="4"
       markerUnits="strokeWidth"
       refY="5"
       refX="10"
       viewBox="0 0 10 10"
       id="ArrowStart">
      <path
         id="path2398"
         d="M 10 0 L 0 5 L 10 10 z" />
    </marker>
    <marker
       orient="auto"
       markerHeight="3"
       markerWidth="4"
       markerUnits="strokeWidth"
       refY="5"
       refX="0"
       viewBox="0 0 10 10"
       id="ArrowEnd">
      <path
         id="path2395"
         d="M 0 0 L 10 5 L 0 10 z" />
    </marker>
  </defs>
  <sodipodi:namedview
     inkscape:cy="219.34078"
     inkscape:cx="309.23878"
     inkscape:zoom="1.9441557"
     inkscape:window-height="1095"
     inkscape:window-width="1518"
     inkscape:pageshadow="2"
     inkscape:pageopacity="0.0"
     borderopacity="1.0"
     bordercolor="#666666"
     pagecolor="#ffffff"
     id="base"
     inkscape:window-x="61"
     inkscape:window-y="0"
     inkscape:current-layer="svg2" />
  <g
     id="g2191">
    <path
       id="path4"
       d="M 0.40982200,0.40182100 L 0.40982200,144.40182 L 648.40982,144.40182 L 648.40982,0.40182100 L 0.40982200,0.40182100 z "
       style="fill:#0000c0;stroke:none;fill-opacity:1.0000000" />
    <path
       style="fill:#008000;fill-opacity:1.0000000;stroke:#000000;stroke-width:0.75839221;stroke-miterlimit:4.0000000;stroke-dasharray:none;stroke-opacity:1.0000000"
       id="path2271"
       d="M 410.90537,328.28114 C 410.90537,329.28114 414.30537,331.48114 418.50537,333.28114 C 425.50537,336.28114 433.90537,339.28114 495.90537,361.48114 C 522.50537,371.08114 532.90537,373.88114 532.90537,371.28114 C 532.90537,370.28114 508.90537,361.48114 479.50537,351.88114 C 449.90537,342.08114 422.50537,332.48114 418.50537,330.28114 C 414.30537,328.28114 410.90537,327.48114 410.90537,328.28114 z " />
    <path
       style="fill:#008000;fill-opacity:1.0000000;stroke:#000000;stroke-width:0.75839221;stroke-miterlimit:4.0000000;stroke-dasharray:none;stroke-opacity:1.0000000"
       id="path2275"
       d="M 439.10590,345.62422 C 440.30590,347.62422 513.70590,377.62422 526.10590,381.22422 C 530.70590,382.62422 532.70590,378.82422 528.10590,377.22422 C 526.70590,376.82422 512.90590,371.82422 497.50590,366.22422 C 473.90590,357.62422 462.10590,353.22422 440.70590,344.62422 C 438.90590,344.02422 438.30590,344.42422 439.10590,345.62422 z " />
    <path
       id="path6"
       d="M 0.42418410,143.88746 L 0.42418410,431.88746 L 648.42418,431.88746 L 648.42418,143.88746 L 0.42418410,143.88746 z "
       style="fill:#000000;stroke:none;fill-opacity:1.0000000" />
    <path
       style="fill:#008000;fill-opacity:1.0000000;stroke:#000000;stroke-width:0.75839221;stroke-miterlimit:4.0000000;stroke-dasharray:none;stroke-opacity:1.0000000"
       id="path2245"
       d="M 214.98484,225.88363 C 217.23872,231.38636 225.23440,235.14789 235.96486,236.07376 C 243.22674,236.58852 239.89567,233.46058 229.74699,229.76677 C 224.98012,228.24460 219.42765,225.37233 217.07012,223.66291 C 212.91889,220.44931 212.91889,220.44931 214.98484,225.88363 z " />
    <g
       transform="matrix(2.000000,0.000000,0.000000,2.000000,0.309822,0.401821)"
       style="fill:#ffd600;fill-opacity:1.0000000"
       id="g1319">
      <path
         style="fill:#ffd600;fill-opacity:1.0000000;stroke:none"
         d="M 56.993300,8.0607000 C 53.037257,14.576635 52.565278,19.788722 55.265278,28.788722 C 56.565278,32.988722 57.993300,39.260700 58.593300,42.660700 C 59.393300,47.460700 59.309506,47.917014 59.421863,48.960700 C 60.421863,48.960700 62.694398,48.964549 63.745224,48.958235 C 63.896322,47.296419 64.018486,45.378295 64.373246,42.740646 C 64.786881,39.665262 66.013672,33.233145 67.333138,28.765632 C 69.969879,19.838025 69.793300,14.360700 65.693300,8.1607000 C 64.193300,5.8607000 62.193300,3.9607000 61.293300,3.9607000 C 60.393300,3.9607000 58.357311,5.7167433 56.993300,8.0607000 z "
         id="path1350"
         sodipodi:nodetypes="cccccsscsc" />
      <path
         style="fill:#ffd600;fill-opacity:1.0000000;stroke:none"
         d="M 76.421322,26.496689 C 70.821322,28.896689 67.453192,35.540646 65.613354,44.696689 C 65.273577,46.415964 65.190721,47.022880 65.020339,48.960637 C 66.232455,48.965516 66.708865,48.973815 67.890422,48.966743 C 68.149074,47.663166 68.335333,46.974982 68.905387,45.124711 C 71.165279,37.968667 77.821322,35.096689 77.521322,41.796689 C 77.421322,43.646689 76.640549,44.679657 75.771450,45.671418 C 76.845766,45.403559 79.127365,44.338721 80.977365,43.288721 C 91.277365,37.088721 87.221322,21.896689 76.421322,26.496689 z "
         id="path1354"
         sodipodi:nodetypes="ccccccccc" />
      <path
         style="fill:#ffd600;fill-opacity:1.0000000;stroke:none"
         d="M 53.538340,51.296157 C 58.057853,51.316211 65.868856,51.352200 69.620510,51.332146 C 69.624900,50.368406 69.638911,50.860235 69.648119,50.081454 C 66.886160,50.058446 56.309747,50.096427 53.559747,50.096427 C 53.566091,50.600276 53.553463,50.844233 53.538340,51.296157 z "
         id="path1356"
         sodipodi:nodetypes="ccccc" />
      <path
         style="fill:#ffd600;fill-opacity:1.0000000;stroke:none"
         d="M 54.867502,56.588290 C 53.238292,58.344299 50.693300,59.657114 50.693300,59.657114 C 50.693300,59.657114 52.944645,59.910251 55.044196,59.757114 C 57.143748,59.603977 58.308713,59.341974 59.549574,58.739186 C 59.212648,61.241078 59.193300,63.657114 59.193300,63.657114 C 59.498678,66.876834 59.844196,67.700840 60.542403,69.267871 C 61.489714,70.575042 62.040610,70.582213 62.737025,69.201933 C 63.489714,67.656414 63.985197,66.066883 64.142404,63.642073 C 64.087739,61.824731 63.986129,60.991974 63.555701,58.770412 C 65.008440,59.399047 65.925998,59.561977 68.093300,59.757114 C 70.311085,59.956796 72.349575,59.858907 72.349575,59.858907 C 72.349575,59.858907 69.353812,58.355476 68.035233,56.511596 C 66.733651,54.691486 67.011228,55.000938 66.064813,52.656168 C 64.914813,52.601735 59.084139,52.655321 57.234139,52.655321 C 56.220891,54.792969 56.119020,55.239369 54.867502,56.588290 z "
         id="path1358"
         sodipodi:nodetypes="cczcccccczczccs" />
      <path
         style="fill:#ffd600;fill-opacity:1.0000000;stroke:none"
         d="M 46.634851,26.493404 C 52.234851,28.893404 55.602981,35.537361 57.442819,44.693404 C 57.782596,46.412679 57.865452,47.019595 58.035834,48.957352 C 56.823718,48.962231 56.347308,48.970530 55.165751,48.963458 C 54.907099,47.659881 54.720840,46.971697 54.150786,45.121426 C 51.890894,37.965382 45.234851,35.093404 45.534851,41.793404 C 45.634851,43.643404 46.415624,44.676372 47.284723,45.668133 C 46.210407,45.400274 43.928808,44.335436 42.078808,43.285436 C 31.778808,37.085436 35.834851,21.893404 46.634851,26.493404 z "
         id="path1317"
         sodipodi:nodetypes="ccccccccc" />
    </g>
    <g
       style="fill:#ffd600;fill-opacity:1.0000000"
       transform="matrix(2.000000,0.000000,0.000000,2.000000,200.0324,0.402181)"
       id="g1326">
      <path
         style="fill:#ffd600;fill-opacity:1.0000000;stroke:none"
         d="M 56.993300,8.0607000 C 53.037257,14.576635 52.565278,19.788722 55.265278,28.788722 C 56.565278,32.988722 57.993300,39.260700 58.593300,42.660700 C 59.393300,47.460700 59.309506,47.917014 59.421863,48.960700 C 60.421863,48.960700 62.694398,48.964549 63.745224,48.958235 C 63.896322,47.296419 64.018486,45.378295 64.373246,42.740646 C 64.786881,39.665262 66.013672,33.233145 67.333138,28.765632 C 69.969879,19.838025 69.793300,14.360700 65.693300,8.1607000 C 64.193300,5.8607000 62.193300,3.9607000 61.293300,3.9607000 C 60.393300,3.9607000 58.357311,5.7167433 56.993300,8.0607000 z "
         id="path1328"
         sodipodi:nodetypes="cccccsscsc" />
      <path
         style="fill:#ffd600;fill-opacity:1.0000000;stroke:none"
         d="M 76.421322,26.496689 C 70.821322,28.896689 67.453192,35.540646 65.613354,44.696689 C 65.273577,46.415964 65.190721,47.022880 65.020339,48.960637 C 66.232455,48.965516 66.708865,48.973815 67.890422,48.966743 C 68.149074,47.663166 68.335333,46.974982 68.905387,45.124711 C 71.165279,37.968667 77.821322,35.096689 77.521322,41.796689 C 77.421322,43.646689 76.640549,44.679657 75.771450,45.671418 C 76.845766,45.403559 79.127365,44.338721 80.977365,43.288721 C 91.277365,37.088721 87.221322,21.896689 76.421322,26.496689 z "
         id="path1330"
         sodipodi:nodetypes="ccccccccc" />
      <path
         style="fill:#ffd600;fill-opacity:1.0000000;stroke:none"
         d="M 53.538340,51.296157 C 58.057853,51.316211 65.868856,51.352200 69.620510,51.332146 C 69.624900,50.368406 69.638911,50.860235 69.648119,50.081454 C 66.886160,50.058446 56.309747,50.096427 53.559747,50.096427 C 53.566091,50.600276 53.553463,50.844233 53.538340,51.296157 z "
         id="path1332"
         sodipodi:nodetypes="ccccc" />
      <path
         style="fill:#ffd600;fill-opacity:1.0000000;stroke:none"
         d="M 54.867502,56.588290 C 53.238292,58.344299 50.693300,59.657114 50.693300,59.657114 C 50.693300,59.657114 52.944645,59.910251 55.044196,59.757114 C 57.143748,59.603977 58.308713,59.341974 59.549574,58.739186 C 59.212648,61.241078 59.193300,63.657114 59.193300,63.657114 C 59.498678,66.876834 59.844196,67.700840 60.542403,69.267871 C 61.489714,70.575042 62.040610,70.582213 62.737025,69.201933 C 63.489714,67.656414 63.985197,66.066883 64.142404,63.642073 C 64.087739,61.824731 63.986129,60.991974 63.555701,58.770412 C 65.008440,59.399047 65.925998,59.561977 68.093300,59.757114 C 70.311085,59.956796 72.349575,59.858907 72.349575,59.858907 C 72.349575,59.858907 69.353812,58.355476 68.035233,56.511596 C 66.733651,54.691486 67.011228,55.000938 66.064813,52.656168 C 64.914813,52.601735 59.084139,52.655321 57.234139,52.655321 C 56.220891,54.792969 56.119020,55.239369 54.867502,56.588290 z "
         id="path1334"
         sodipodi:nodetypes="cczcccccczczccs" />
      <path
         style="fill:#ffd600;fill-opacity:1.0000000;stroke:none"
         d="M 46.634851,26.493404 C 52.234851,28.893404 55.602981,35.537361 57.442819,44.693404 C 57.782596,46.412679 57.865452,47.019595 58.035834,48.957352 C 56.823718,48.962231 56.347308,48.970530 55.165751,48.963458 C 54.907099,47.659881 54.720840,46.971697 54.150786,45.121426 C 51.890894,37.965382 45.234851,35.093404 45.534851,41.793404 C 45.634851,43.643404 46.415624,44.676372 47.284723,45.668133 C 46.210407,45.400274 43.928808,44.335436 42.078808,43.285436 C 31.778808,37.085436 35.834851,21.893404 46.634851,26.493404 z "
         id="path1336"
         sodipodi:nodetypes="ccccccccc" />
    </g>
    <g
       style="fill:#ffd600;fill-opacity:1.0000000"
       transform="matrix(2.000000,0.000000,0.000000,2.000000,406.4450,-0.299747)"
       id="g1338">
      <path
         style="fill:#ffd600;fill-opacity:1.0000000;stroke:none"
         d="M 56.993300,8.0607000 C 53.037257,14.576635 52.565278,19.788722 55.265278,28.788722 C 56.565278,32.988722 57.993300,39.260700 58.593300,42.660700 C 59.393300,47.460700 59.309506,47.917014 59.421863,48.960700 C 60.421863,48.960700 62.694398,48.964549 63.745224,48.958235 C 63.896322,47.296419 64.018486,45.378295 64.373246,42.740646 C 64.786881,39.665262 66.013672,33.233145 67.333138,28.765632 C 69.969879,19.838025 69.793300,14.360700 65.693300,8.1607000 C 64.193300,5.8607000 62.193300,3.9607000 61.293300,3.9607000 C 60.393300,3.9607000 58.357311,5.7167433 56.993300,8.0607000 z "
         id="path1340"
         sodipodi:nodetypes="cccccsscsc" />
      <path
         style="fill:#ffd600;fill-opacity:1.0000000;stroke:none"
         d="M 76.421322,26.496689 C 70.821322,28.896689 67.453192,35.540646 65.613354,44.696689 C 65.273577,46.415964 65.190721,47.022880 65.020339,48.960637 C 66.232455,48.965516 66.708865,48.973815 67.890422,48.966743 C 68.149074,47.663166 68.335333,46.974982 68.905387,45.124711 C 71.165279,37.968667 77.821322,35.096689 77.521322,41.796689 C 77.421322,43.646689 76.640549,44.679657 75.771450,45.671418 C 76.845766,45.403559 79.127365,44.338721 80.977365,43.288721 C 91.277365,37.088721 87.221322,21.896689 76.421322,26.496689 z "
         id="path1342"
         sodipodi:nodetypes="ccccccccc" />
      <path
         style="fill:#ffd600;fill-opacity:1.0000000;stroke:none"
         d="M 53.538340,51.296157 C 58.057853,51.316211 65.868856,51.352200 69.620510,51.332146 C 69.624900,50.368406 69.638911,50.860235 69.648119,50.081454 C 66.886160,50.058446 56.309747,50.096427 53.559747,50.096427 C 53.566091,50.600276 53.553463,50.844233 53.538340,51.296157 z "
         id="path1344"
         sodipodi:nodetypes="ccccc" />
      <path
         style="fill:#ffd600;fill-opacity:1.0000000;stroke:none"
         d="M 54.867502,56.588290 C 53.238292,58.344299 50.693300,59.657114 50.693300,59.657114 C 50.693300,59.657114 52.944645,59.910251 55.044196,59.757114 C 57.143748,59.603977 58.308713,59.341974 59.549574,58.739186 C 59.212648,61.241078 59.193300,63.657114 59.193300,63.657114 C 59.498678,66.876834 59.844196,67.700840 60.542403,69.267871 C 61.489714,70.575042 62.040610,70.582213 62.737025,69.201933 C 63.489714,67.656414 63.985197,66.066883 64.142404,63.642073 C 64.087739,61.824731 63.986129,60.991974 63.555701,58.770412 C 65.008440,59.399047 65.925998,59.561977 68.093300,59.757114 C 70.311085,59.956796 72.349575,59.858907 72.349575,59.858907 C 72.349575,59.858907 69.353812,58.355476 68.035233,56.511596 C 66.733651,54.691486 67.011228,55.000938 66.064813,52.656168 C 64.914813,52.601735 59.084139,52.655321 57.234139,52.655321 C 56.220891,54.792969 56.119020,55.239369 54.867502,56.588290 z "
         id="path1346"
         sodipodi:nodetypes="cczcccccczczccs" />
      <path
         style="fill:#ffd600;fill-opacity:1.0000000;stroke:none"
         d="M 46.634851,26.493404 C 52.234851,28.893404 55.602981,35.537361 57.442819,44.693404 C 57.782596,46.412679 57.865452,47.019595 58.035834,48.957352 C 56.823718,48.962231 56.347308,48.970530 55.165751,48.963458 C 54.907099,47.659881 54.720840,46.971697 54.150786,45.121426 C 51.890894,37.965382 45.234851,35.093404 45.534851,41.793404 C 45.634851,43.643404 46.415624,44.676372 47.284723,45.668133 C 46.210407,45.400274 43.928808,44.335436 42.078808,43.285436 C 31.778808,37.085436 35.834851,21.893404 46.634851,26.493404 z "
         id="path1348"
         sodipodi:nodetypes="ccccccccc" />
    </g>
    <path
       style="fill:#008000;fill-opacity:1.0000000;stroke:#000000;stroke-width:0.75839221;stroke-miterlimit:4.0000000;stroke-dasharray:none;stroke-opacity:1.0000000"
       id="path2217"
       d="M 113.90644,184.71039 C 119.70644,193.31039 126.30644,199.51039 139.10644,208.11040 C 148.50644,214.51040 156.70644,219.51040 157.10644,219.11040 C 157.90644,218.11040 111.10644,174.71039 107.90644,173.51039 C 106.70644,173.11039 109.30644,178.11039 113.90644,184.71039 z " />
    <path
       style="fill:#008000;fill-opacity:1.0000000;stroke:#000000;stroke-width:0.75638491;stroke-miterlimit:4.0000000;stroke-dasharray:none;stroke-opacity:1.0000000"
       id="path1415"
       d="M 234.31719,230.50253 C 238.65957,232.52703 244.20421,234.12243 247.00041,234.21659 C 250.30504,234.32782 249.42780,233.51568 243.26016,231.11670 C 238.43228,229.23239 232.65835,226.06408 230.09538,224.09950 C 225.50078,220.34481 225.50078,220.34481 225.98227,223.64799 C 226.25742,225.53550 229.72057,228.46953 234.31719,230.50253 z " />
    <path
       style="fill:#008000;fill-opacity:1.0000000;stroke:#000000;stroke-width:0.75839221;stroke-miterlimit:4.0000000;stroke-dasharray:none;stroke-opacity:1.0000000"
       id="path2221"
       d="M 207.30590,191.48167 C 210.10590,202.68166 221.70590,223.28166 225.70590,224.08166 C 229.30590,224.68166 229.30590,224.48166 226.30590,221.08166 C 221.30590,215.28166 210.50590,194.08167 210.50590,190.08167 C 210.50590,187.88167 209.50590,186.28167 208.30590,186.28167 C 206.90590,186.28167 206.50590,188.28167 207.30590,191.48167 z " />
    <path
       style="fill:#008000;fill-opacity:1.0000000;stroke:#000000;stroke-width:0.75839221;stroke-miterlimit:4.0000000;stroke-dasharray:none;stroke-opacity:1.0000000"
       id="path2495"
       d="M 87.091389,177.43814 C 87.021931,177.83206 90.776097,180.72796 95.480341,183.99447 C 100.18459,187.26098 105.66526,191.88290 107.48454,194.23454 C 110.60168,198.43972 128.25972,208.86438 129.91629,207.53180 C 131.53813,206.39618 108.79285,187.96650 99.175985,182.61526 C 87.728421,176.12887 87.334497,176.05940 87.091389,177.43814 z " />
    <path
       style="fill:#008000;fill-opacity:1.0000000;stroke:#000000;stroke-width:0.75839221;stroke-miterlimit:4.0000000;stroke-dasharray:none;stroke-opacity:1.0000000"
       id="path2223"
       d="M 93.534628,192.82475 C 93.534628,193.22475 97.734628,195.42475 102.93463,197.82475 C 108.13463,200.22475 114.33463,203.82476 116.53463,205.82476 C 120.33463,209.42476 139.53463,216.62476 140.93463,215.02476 C 142.33463,213.62476 116.73463,199.42475 106.33463,195.82475 C 93.934628,191.42475 93.534628,191.42475 93.534628,192.82475 z " />
    <path
       style="fill:#008000;fill-opacity:1.0000000;stroke:#000000;stroke-width:0.75839221;stroke-miterlimit:4.0000000;stroke-dasharray:none;stroke-opacity:1.0000000"
       id="path2225"
       d="M 182.73463,199.88167 C 190.33463,213.88166 198.13463,223.08166 201.33462,222.08166 C 202.93462,221.48166 199.33463,215.68166 191.53463,206.28166 C 184.53463,198.08167 178.53463,190.88167 177.93463,190.28167 C 177.33463,189.68167 179.53463,194.08167 182.73463,199.88167 z " />
    <path
       style="fill:#008000;fill-opacity:1.0000000;stroke:#000000;stroke-width:0.75839221;stroke-miterlimit:4.0000000;stroke-dasharray:none;stroke-opacity:1.0000000"
       id="path2227"
       d="M 192.56335,194.42475 C 192.56335,196.62475 200.36336,211.82476 204.96334,218.22476 C 207.56334,221.82476 210.56334,223.82476 213.96334,223.82476 C 218.96334,223.82476 218.96334,223.82476 211.36334,215.22476 C 206.96334,210.62476 201.16336,203.62476 198.16335,199.82475 C 195.16335,196.02475 192.56335,193.62475 192.56335,194.42475 z " />
    <path
       style="fill:#008000;fill-opacity:1.0000000;stroke:#000000;stroke-width:0.76952994;stroke-miterlimit:4.0000000;stroke-dasharray:none;stroke-opacity:1.0000000"
       id="path2229"
       d="M 174.17511,200.88220 C 174.17511,203.88220 188.79525,223.88220 191.06034,223.88220 C 192.08993,223.88220 189.61892,219.08220 185.29465,213.28220 C 175.61653,200.08220 174.17511,198.68220 174.17511,200.88220 z " />
    <path
       style="fill:#008000;fill-opacity:1.0000000;stroke:#000000;stroke-width:0.75839221;stroke-miterlimit:4.0000000;stroke-dasharray:none;stroke-opacity:1.0000000"
       id="path2249"
       d="M 160.36362,255.99524 C 147.16362,261.19524 144.36362,262.99524 144.36362,265.79524 C 144.36362,266.99524 145.76362,266.79524 147.96362,264.99524 C 149.76362,263.19524 156.36362,260.79524 162.36362,259.39524 C 168.36362,257.99524 175.56362,255.59524 178.36362,254.19524 L 183.36362,251.59524 L 177.36362,251.59524 C 174.16362,251.79524 166.36362,253.79524 160.36362,255.99524 z " />
    <path
       style="fill:#008000;fill-opacity:1.0000000;stroke:#000000;stroke-width:0.75839221;stroke-miterlimit:4.0000000;stroke-dasharray:none;stroke-opacity:1.0000000"
       id="path2474"
       d="M 122.88263,222.02078 C 132.74456,230.98862 165.72776,247.92936 182.44047,252.91388 C 186.96895,254.24534 194.31652,254.55074 198.46845,253.67808 L 206.20848,252.13796 L 198.56933,248.10762 C 186.24761,241.73776 166.01244,228.24488 158.74848,221.73682 C 150.83502,214.61380 151.09206,217.07428 159.14301,226.91410 C 162.28822,230.87740 171.58564,237.70950 179.73747,241.97890 C 187.95771,246.43622 193.70019,250.51834 192.76050,250.86038 C 190.31730,251.74962 167.75847,238.88966 150.59941,226.83118 C 131.95342,213.61122 131.18440,213.25262 138.12430,221.79416 C 141.52585,225.87698 147.81557,231.46264 152.37860,234.05852 C 156.82210,236.91078 159.86436,239.42168 158.92466,239.76370 C 157.04528,240.44776 145.35578,234.06060 130.09407,224.29124 C 125.83851,221.37058 120.04490,217.73274 117.53260,216.09312 C 114.76396,214.33396 117.24240,217.05008 122.88263,222.02078 z " />
    <path
       style="fill:#008000;fill-opacity:1.0000000;stroke:#000000;stroke-width:0.75839221;stroke-miterlimit:4.0000000;stroke-dasharray:none;stroke-opacity:1.0000000"
       id="path2237"
       d="M 124.33489,219.22396 L 116.33489,221.82396 L 122.33489,222.82396 C 125.53489,223.62396 129.73489,223.22396 131.73489,222.22396 C 133.53489,221.22396 137.13489,220.42396 139.73489,220.22396 C 144.13489,220.22396 144.13489,220.02396 140.33489,218.42396 C 135.33489,216.22396 134.13489,216.22396 124.33489,219.22396 z " />
    <path
       style="fill:#008000;fill-opacity:1.0000000;stroke:#000000;stroke-width:0.75839221;stroke-miterlimit:4.0000000;stroke-dasharray:none;stroke-opacity:1.0000000"
       id="path2241"
       d="M 134.19235,224.65242 C 130.79235,227.25242 130.99235,227.45242 138.39235,226.25242 C 142.79235,225.65242 149.19235,224.45242 152.39235,223.65242 C 157.59235,222.25242 157.19235,222.05242 148.19235,221.85242 C 142.19235,221.65242 136.59235,222.85242 134.19235,224.65242 z " />
    <path
       style="fill:#008000;fill-opacity:1.0000000;stroke:#000000;stroke-width:0.75839221;stroke-miterlimit:4.0000000;stroke-dasharray:none;stroke-opacity:1.0000000"
       id="path2231"
       d="M 84.505904,203.62422 C 117.50590,209.62422 183.70590,231.82422 179.70590,235.62422 C 178.70590,236.62422 160.10590,232.02422 157.50590,230.22422 C 156.50590,229.22422 146.70590,229.62422 135.90590,231.02422 C 115.70590,233.22422 112.30590,235.02422 112.70590,243.22422 C 112.90590,247.22422 112.90590,247.22422 113.90590,243.22422 C 115.70590,235.82422 118.70590,234.22422 130.10590,234.22422 C 142.50590,234.22422 176.50590,239.22422 191.50590,243.22422 C 211.50590,248.82422 212.10590,248.82422 205.50590,245.22422 C 196.90590,240.42422 183.90590,231.62422 181.50590,229.02422 C 177.10590,224.02422 97.305904,202.02422 85.705904,202.42422 C 80.305904,202.82422 80.105904,202.82422 84.505904,203.62422 z " />
    <path
       style="fill:#008000;fill-opacity:1.0000000;stroke:#000000;stroke-width:0.75839221;stroke-miterlimit:4.0000000;stroke-dasharray:none;stroke-opacity:1.0000000"
       id="path2235"
       d="M 99.677714,214.28114 C 97.277714,216.08114 94.677714,220.28114 94.077714,223.68114 C 92.877714,229.48114 92.877714,229.48114 96.077714,225.68114 C 104.47771,215.08114 105.07771,214.68114 115.47771,214.48114 C 123.87771,214.28114 125.07771,213.88114 121.07771,212.68114 C 112.67771,210.08114 104.27771,210.68114 99.677714,214.28114 z " />
    <path
       style="fill:#008000;fill-opacity:1.0000000;stroke:#000000;stroke-width:0.75839221;stroke-miterlimit:4.0000000;stroke-dasharray:none;stroke-opacity:1.0000000"
       id="path2243"
       d="M 201.62080,226.62370 C 203.22080,229.42370 218.82080,237.22370 220.02080,236.02370 C 220.62080,235.42370 218.82080,233.82370 216.42080,232.42370 C 213.82080,231.02370 210.42080,228.82370 209.02080,227.22370 C 205.82080,224.22370 199.82080,223.62370 201.62080,226.62370 z " />
    <path
       style="fill:#008000;fill-opacity:1.0000000;stroke:#000000;stroke-width:0.75839221;stroke-miterlimit:4.0000000;stroke-dasharray:none;stroke-opacity:1.0000000"
       id="path1533"
       d="M 202.82410,245.62538 C 204.42410,248.42538 220.02410,256.22538 221.22410,255.02538 C 221.82410,254.42538 220.02410,252.82538 217.62410,251.42538 C 215.02410,250.02538 211.62410,247.82538 210.22410,246.22538 C 207.02410,243.22538 201.02410,242.62538 202.82410,245.62538 z " />
    <path
       style="fill:#008000;fill-opacity:1.0000000;stroke:#000000;stroke-width:0.75839221;stroke-miterlimit:4.0000000;stroke-dasharray:none;stroke-opacity:1.0000000"
       id="path3304"
       d="M 180.46458,221.81205 C 180.75234,221.53421 185.25241,223.02722 190.59108,225.10062 C 195.92976,227.17402 202.82615,229.13314 205.79311,229.32635 C 211.02246,229.55905 229.53916,238.36884 229.36071,240.48733 C 229.32618,242.46696 201.32829,233.91597 191.51426,228.93568 C 179.73528,223.07231 179.45741,222.78464 180.46458,221.81205 z " />
    <path
       style="fill:#008000;fill-opacity:1.0000000;stroke:#000000;stroke-width:0.75839221;stroke-miterlimit:4.0000000;stroke-dasharray:none;stroke-opacity:1.0000000"
       id="path3302"
       d="M 213.59146,236.42872 C 209.86041,237.87066 206.10825,240.47862 204.94243,242.34432 C 203.56464,244.54924 204.73064,244.57033 209.54280,242.15309 C 213.31623,240.26593 218.76450,238.71785 221.75364,238.46316 C 227.35039,238.18704 227.35039,238.18704 223.78861,235.96137 C 221.75329,234.68956 217.42850,234.81717 213.59146,236.42872 z " />
    <path
       style="fill:#008000;fill-opacity:1.0000000;stroke:#000000;stroke-width:0.75839221;stroke-miterlimit:4.0000000;stroke-dasharray:none;stroke-opacity:1.0000000"
       id="path3300"
       d="M 190.55897,250.78195 C 179.16007,261.00471 176.63932,268.13256 180.29053,278.72256 L 183.44730,287.79091 L 182.56825,278.61336 C 181.20919,266.01684 184.60479,260.28709 198.40502,250.33554 C 204.89141,245.70448 210.04631,241.50602 209.92271,241.12560 C 209.24289,239.03328 196.35589,245.32341 190.55897,250.78195 z " />
    <path
       style="fill:#008000;fill-opacity:1.0000000;stroke:#000000;stroke-width:0.75839221;stroke-miterlimit:4.0000000;stroke-dasharray:none;stroke-opacity:1.0000000"
       id="path2215"
       d="M 119.99234,169.02448 C 126.19234,180.82448 151.39234,208.02448 165.39234,218.42448 C 169.19234,221.22448 175.99234,224.02448 180.19234,224.62448 L 187.99234,225.82448 L 182.19234,219.42448 C 172.79234,209.22448 158.39234,189.62448 153.79234,181.02448 C 148.79234,171.62448 148.19234,174.02448 152.39234,186.02448 C 153.99234,190.82448 160.39234,200.42448 166.59234,207.22448 C 172.79234,214.22448 176.79234,220.02448 175.79234,220.02448 C 173.19234,220.02448 156.39234,200.22448 144.39234,183.02448 C 131.39234,164.22448 130.79234,163.62448 134.39234,174.02448 C 136.19234,179.02448 140.19234,186.42448 143.59234,190.42448 C 146.79234,194.62448 148.79234,198.02448 147.79234,198.02448 C 145.79234,198.02448 136.99234,188.02448 125.99234,173.62448 C 122.99234,169.42448 118.79234,164.02448 116.99234,161.62448 C 114.99234,159.02448 116.39234,162.42448 119.99234,169.02448 z " />
    <path
       style="fill:#008000;fill-opacity:1.0000000;stroke:#000000;stroke-width:0.75839221;stroke-miterlimit:4.0000000;stroke-dasharray:none;stroke-opacity:1.0000000"
       id="path2239"
       d="M 184.50590,225.02422 C 184.50590,226.42422 187.50590,230.02422 191.10590,232.82422 C 201.70590,240.82422 229.90590,254.22422 233.50590,252.82422 C 235.70590,252.02422 232.30590,249.82422 222.70590,246.22422 C 205.90590,239.62422 190.50590,230.82422 190.50590,227.82422 C 190.50590,226.22422 197.10590,226.02422 213.50590,227.02422 C 238.10590,228.42422 245.50590,225.62422 223.10590,223.62422 C 199.50590,221.22422 184.50590,221.82422 184.50590,225.02422 z " />
    <path
       style="fill:#008000;fill-opacity:1.0000000;stroke:#000000;stroke-width:0.75839221;stroke-miterlimit:4.0000000;stroke-dasharray:none;stroke-opacity:1.0000000"
       id="path2247"
       d="M 131.70590,246.42422 C 123.10590,248.42422 118.50590,251.42422 118.50590,255.02422 C 118.50590,256.42422 119.30590,256.22422 120.30590,254.62422 C 121.90590,252.02422 138.30590,247.22422 139.90590,248.82422 C 140.30590,249.22422 139.70590,252.22422 138.50590,255.22422 C 137.30590,258.22422 136.90590,261.22422 137.50590,261.82422 C 138.10590,262.62422 139.10590,261.02422 139.70590,258.82422 C 142.10590,250.22422 149.50590,247.62422 167.30590,249.22422 C 176.30590,250.02422 186.30590,251.02422 189.50590,251.22422 C 192.90590,251.42422 197.50590,252.62422 199.90590,254.02422 C 205.10590,256.82422 225.30590,257.02422 223.50590,254.22422 C 222.90590,253.22422 219.10590,251.82422 214.90590,251.22422 C 210.90590,250.62422 202.50590,248.62422 196.30590,247.02422 C 183.90590,243.82422 144.30590,243.42422 131.70590,246.42422 z " />
    <path
       style="fill:#008000;fill-opacity:1.0000000;stroke:#000000;stroke-width:0.75839221;stroke-miterlimit:4.0000000;stroke-dasharray:none;stroke-opacity:1.0000000"
       id="path3298"
       d="M 204.73970,269.51022 C 189.66617,266.82155 182.49743,269.22348 176.40030,278.62055 L 171.19784,286.69115 L 177.88866,280.34819 C 186.97816,271.52205 193.58378,270.67024 209.92199,275.41816 C 217.56478,277.67835 224.04685,279.15565 224.27052,278.82403 C 225.50071,277.00015 212.61003,270.71771 204.73970,269.51022 z " />
    <path
       style="fill:#008000;fill-opacity:1.0000000;stroke:#000000;stroke-width:0.75839221;stroke-miterlimit:4.0000000;stroke-dasharray:none;stroke-opacity:1.0000000"
       id="path2253"
       d="M 185.22133,263.93832 C 157.42133,271.53832 154.22133,274.33832 158.22133,286.93832 C 159.82133,291.73832 159.82133,291.53832 160.02133,285.33832 C 160.22133,281.93832 162.02133,277.13832 164.02133,275.13832 C 167.62133,271.53832 183.82133,266.93832 203.62133,263.73832 C 208.42133,263.13832 211.62133,261.73832 211.02133,260.73832 C 209.42133,258.13832 203.02133,258.93832 185.22133,263.93832 z " />
    <path
       style="fill:#008000;fill-opacity:1.0000000;stroke:#000000;stroke-width:0.75839221;stroke-miterlimit:4.0000000;stroke-dasharray:none;stroke-opacity:1.0000000"
       id="path2257"
       d="M 208.84872,273.70986 C 194.84872,279.90986 190.24872,285.90986 190.44872,297.10986 L 190.64872,306.70986 L 192.64872,297.70986 C 195.24872,285.30986 200.24872,280.90986 216.44872,275.70986 C 224.04872,273.30986 230.24872,270.90986 230.24872,270.50986 C 230.24872,268.30986 216.04872,270.30986 208.84872,273.70986 z " />
    <path
       style="fill:#008000;fill-opacity:1.0000000;stroke:#000000;stroke-width:0.75839221;stroke-miterlimit:4.0000000;stroke-dasharray:none;stroke-opacity:1.0000000"
       id="path2263"
       d="M 206.19154,290.88060 C 203.79154,294.08060 201.99154,298.28060 201.99154,300.48060 C 201.99154,303.08060 202.99154,302.48060 205.79154,297.88060 C 207.99154,294.28060 211.79154,290.08060 214.19154,288.28060 C 218.79154,285.08060 218.79154,285.08060 214.59154,285.08060 C 212.19154,285.08060 208.59154,287.48060 206.19154,290.88060 z " />
    <path
       sodipodi:nodetypes="cscccsc"
       style="fill:#008000;fill-opacity:1.0000000;stroke:#000000;stroke-width:0.82090813;stroke-miterlimit:4.0000000;stroke-dasharray:none;stroke-opacity:1.0000000"
       id="path2267"
       d="M 422.42426,323.47354 C 428.91885,326.28787 462.61348,334.78537 486.45405,341.76706 C 510.29462,348.74874 538.16890,356.78643 544.33876,357.65238 C 553.15769,338.43051 537.10836,374.38380 546.26773,352.59345 C 534.36097,349.56264 487.42885,338.52018 468.59453,333.10802 C 452.35804,328.56180 429.32454,321.47022 423.42529,320.17130 C 417.52604,318.87238 417.44507,321.30868 422.42426,323.47354 z " />
    <path
       sodipodi:nodetypes="cscccsc"
       style="fill:#008000;fill-opacity:1.0000000;stroke:#000000;stroke-width:0.82090813;stroke-miterlimit:4.0000000;stroke-dasharray:none;stroke-opacity:1.0000000"
       id="path2162"
       d="M 426.54419,318.48361 C 433.13305,321.06958 467.10370,328.38597 491.17342,334.53138 C 515.24311,340.67678 543.38092,347.73678 549.57724,348.38688 C 557.71998,328.86895 542.93517,365.36045 551.32849,343.26371 C 539.32320,340.65028 492.03429,331.25246 473.02257,326.50090 C 456.63731,322.52410 433.37036,316.24070 427.42937,315.14845 C 421.48838,314.05620 421.49248,316.49384 426.54419,318.48361 z " />
    <path
       sodipodi:nodetypes="cscccsc"
       style="fill:#008000;fill-opacity:1.0000000;stroke:#000000;stroke-width:0.82090813;stroke-miterlimit:4.0000000;stroke-dasharray:none;stroke-opacity:1.0000000"
       id="path2183"
       d="M 417.21567,327.09956 C 423.55406,330.24994 456.75779,340.49923 480.20030,348.71907 C 503.64280,356.93889 531.05822,366.42440 537.17431,367.61207 C 546.98714,348.87809 529.07815,383.94214 539.36540,362.66102 C 527.63357,359.01122 481.34369,345.52766 462.81844,339.13720 C 446.84213,333.74745 424.21133,325.46011 418.38815,323.85424 C 412.56496,322.24835 412.35661,324.67708 417.21567,327.09956 z " />
    <path
       sodipodi:nodetypes="cscccsc"
       style="fill:#008000;fill-opacity:1.0000000;stroke:#000000;stroke-width:0.82090813;stroke-miterlimit:4.0000000;stroke-dasharray:none;stroke-opacity:1.0000000"
       id="path2185"
       d="M 413.17114,331.19503 C 419.33597,334.67282 451.95779,346.64581 474.93798,356.08127 C 497.91816,365.51670 524.79957,376.42403 530.84512,377.93016 C 541.62496,359.73542 521.90541,393.81414 533.29233,373.10057 C 521.76759,368.84177 476.24682,352.95407 458.08141,345.60283 C 442.40907,339.38434 420.24302,329.92395 414.51186,328.01551 C 408.78070,326.10707 408.44552,328.52156 413.17114,331.19503 z " />
    <path
       sodipodi:nodetypes="cscccsc"
       style="fill:#008000;fill-opacity:1.0000000;stroke:#000000;stroke-width:0.82090813;stroke-miterlimit:4.0000000;stroke-dasharray:none;stroke-opacity:1.0000000"
       id="path2187"
       d="M 409.36208,336.35412 C 415.40177,340.04494 447.58588,353.14912 470.22278,363.38084 C 492.85967,373.61252 519.34403,385.45134 525.33335,387.16754 C 536.74161,369.36011 515.84473,402.72985 527.94761,382.42631 C 516.57852,377.76789 471.63995,360.30122 453.74217,352.32049 C 438.29639,345.55882 416.47401,335.33061 410.81294,333.22332 C 405.15187,331.11603 404.73264,333.51735 409.36208,336.35412 z " />
    <path
       sodipodi:nodetypes="cscccsc"
       style="fill:#008000;fill-opacity:1.0000000;stroke:#000000;stroke-width:0.82090813;stroke-miterlimit:4.0000000;stroke-dasharray:none;stroke-opacity:1.0000000"
       id="path2189"
       d="M 405.06288,341.05545 C 410.90114,345.05731 442.35532,359.82790 464.42571,371.23032 C 486.49609,382.63271 512.32456,395.84140 518.21585,397.86871 C 530.54045,380.68273 507.92577,412.91309 521.07467,393.27078 C 509.96496,388.02373 466.00211,368.22911 448.54654,359.32261 C 433.47581,351.76185 412.21863,340.40556 406.67561,338.00487 C 401.13258,335.60420 400.58825,337.98028 405.06288,341.05545 z " />
    <g
       style="fill:#ffd700;fill-opacity:1.0000000;stroke:none;stroke-width:0.49853653;stroke-miterlimit:4.0000000;stroke-dasharray:none;stroke-opacity:1.0000000"
       transform="matrix(1.261212,0.000000,0.000000,1.261212,-84.14037,151.1654)"
       id="g2400">
      <path
         style="fill:#ffd700;fill-opacity:1.0000000;stroke:none;stroke-width:0.49853653;stroke-miterlimit:4.0000000;stroke-dasharray:none;stroke-opacity:1.0000000"
         d="M 0.0000000,642.09400 L 0.0000000,642.09400 L 0.0000000,642.09400 z "
         id="path2402" />
      <path
         style="fill:#ffd700;fill-opacity:1.0000000;stroke:none;stroke-width:0.49853653;stroke-miterlimit:4.0000000;stroke-dasharray:none;stroke-opacity:1.0000000"
         d="M 332.66200,184.27200 L 337.79800,187.94000 C 345.16100,193.06900 349.21000,200.19800 348.80900,207.55500 L 348.53700,213.63100 L 350.95400,207.65300 C 353.59800,201.39700 353.23400,191.92400 350.11100,184.90800 L 348.28900,180.81700 L 354.07500,183.33600 C 362.34300,186.82300 367.78700,192.95300 368.92400,200.23500 L 369.92100,206.23500 L 371.04200,199.88300 C 372.32700,193.21300 370.00300,184.02600 365.48800,177.81300 L 362.85500,174.18800 L 369.03900,175.44900 C 377.85100,177.14100 384.45000,182.00600 387.07700,188.89300 L 389.30000,194.55500 L 389.07500,188.10800 C 388.94600,181.31700 384.76100,172.81300 379.05400,167.67400 L 375.72500,164.67600 L 382.03600,164.62500 C 391.00700,164.44800 398.47400,167.83400 402.47500,174.02600 L 405.82500,179.10000 L 404.26600,172.84200 C 402.72800,166.22900 396.86700,158.78000 390.21600,154.94000 L 386.33600,152.69900 L 392.49900,151.33800 C 401.23700,149.29700 409.24500,151.05900 414.44500,156.28200 L 418.77700,160.54900 L 415.95000,154.75200 C 413.07100,148.60200 405.78900,142.53300 398.48500,140.16000 L 394.22400,138.77800 L 399.96900,136.16400 C 408.09100,132.35200 416.29000,132.41000 422.46300,136.43600 L 427.58900,139.71100 L 423.61900,134.62700 C 419.52300,129.20900 411.13900,124.78900 403.50100,123.98700 L 399.04700,123.52000 L 404.12300,119.76800 C 411.27500,114.35200 419.30700,112.70100 426.18200,115.35800 L 431.87700,117.49400 L 426.93700,113.34800 C 421.80400,108.90100 412.68400,106.31900 405.04600,107.12300 L 400.59200,107.59000 L 404.77600,102.86500 C 410.64600,96.080000 418.16000,92.797000 425.43700,93.967000 L 431.45100,94.871000 L 425.75600,91.844000 C 419.81100,88.561000 410.35400,87.932000 403.05000,90.305000 L 398.78900,91.688000 L 401.89900,86.198000 C 406.23000,78.340000 412.89700,73.567000 420.25800,73.196000 L 426.32900,72.832000 L 420.12900,71.055000 C 413.63100,69.080000 404.25000,70.432000 397.59900,74.270000 L 393.71900,76.510000 L 395.62100,70.492000 C 398.22400,61.906000 403.75200,55.852000 410.87600,53.959000 L 416.73900,52.340000 L 410.30500,51.891000 C 403.53800,51.309000 394.64300,54.580000 388.93600,59.719000 L 385.60700,62.717000 L 386.21600,56.436000 C 386.97600,47.494000 391.12500,40.424000 397.70000,37.090000 L 403.09800,34.289000 L 396.71100,35.186000 C 389.97100,36.024000 381.95100,41.074000 377.43700,47.287000 L 374.80400,50.912000 L 374.09400,44.641000 C 372.97900,35.739000 375.56600,27.957000 381.30400,23.332000 L 386.00100,19.469000 L 379.94000,21.674000 C 373.52200,23.895000 366.72800,30.502000 363.60400,37.518000 L 361.78200,41.612000 L 359.78300,35.625000 C 356.84100,27.149000 357.75500,19.000000 362.40600,13.283000 L 366.19800,8.5280200 L 360.72800,11.944000 C 354.91200,15.451000 349.63900,23.326000 348.04200,30.838000 L 347.11100,35.221000 L 343.91100,29.782000 C 339.27100,22.100000 338.47100,13.942000 341.83100,7.3809800 L 344.55100,1.9420200 L 339.91100,6.4199800 C 334.95100,11.061000 331.43100,19.862000 331.43100,27.541000 L 331.43100,32.020000 L 327.17000,27.365000 C 321.03600,20.819000 318.55700,13.002000 320.47900,5.8870200 L 322.00700,0.0000000 L 318.40000,5.3480200 C 314.51300,10.916000 312.90000,20.256000 314.49700,27.770000 L 315.42700,32.151000 L 310.29200,28.483000 C 302.92900,23.354000 298.88000,16.225000 299.28100,8.8649900 L 299.55200,2.7890000 L 297.13500,8.7700200 C 294.49200,15.026000 294.85600,24.496000 297.97800,31.512000 L 299.80000,35.606000 L 294.01400,33.086000 C 285.74600,29.600000 280.30200,23.469000 279.16500,16.188000 L 278.16800,10.188000 L 277.04800,16.539000 C 275.76300,23.207000 278.08600,32.397000 282.60200,38.610000 L 285.23400,42.233000 L 279.05100,40.971000 C 270.23900,39.280000 263.64000,34.416000 261.01300,27.528000 L 258.79000,21.867000 L 259.01500,28.313000 C 259.14400,35.104000 263.32900,43.608000 269.03600,48.746000 L 272.36500,51.744000 L 266.05400,51.795000 C 257.08300,51.973000 249.61600,48.586000 245.61500,42.397000 L 242.26400,37.321000 L 243.82400,43.578000 C 245.36200,50.194000 251.22300,57.643000 257.87400,61.483000 L 261.75300,63.723000 L 255.59100,65.084000 C 246.85300,67.123000 238.84500,65.364000 233.64500,60.141000 L 229.31200,55.873000 L 232.13900,61.670000 C 235.01900,67.821000 242.30100,73.887000 249.60500,76.260000 L 253.86600,77.645000 L 248.12100,80.258000 C 239.99800,84.071000 231.79900,84.012000 225.62600,79.985000 L 220.50000,76.711000 L 224.47000,81.793000 C 228.56600,87.211000 236.95000,91.631000 244.58800,92.434000 L 249.04300,92.903000 L 243.96700,96.653000 C 236.81400,102.07100 228.78200,103.71900 221.90700,101.06300 L 216.21200,98.928000 L 221.15200,103.07300 C 226.28500,107.52200 235.40500,110.10200 243.04300,109.29900 L 247.49800,108.83200 L 243.31300,113.55500 C 237.44300,120.34200 229.92900,123.62300 222.65200,122.45500 L 216.63800,121.54900 L 222.33300,124.57800 C 228.27900,127.86200 237.73600,128.49000 245.04000,126.11700 L 249.30100,124.73300 L 246.19000,130.22500 C 241.85900,138.08200 235.19200,142.85600 227.83100,143.22500 L 221.76000,143.58800 L 227.96000,145.36700 C 234.45800,147.34200 243.83900,145.99000 250.49000,142.15100 L 254.37000,139.91000 L 252.46900,145.92800 C 249.86600,154.51600 244.33800,160.57100 237.21400,162.46300 L 231.35100,164.08200 L 237.78500,164.53200 C 244.55200,165.11200 253.44700,161.84000 259.15400,156.70100 L 262.48300,153.70300 L 261.87400,159.98700 C 261.11400,168.92600 256.96500,175.99800 250.39000,179.33000 L 244.99200,182.13300 L 251.37900,181.23700 C 258.11900,180.39900 266.13900,175.34600 270.65300,169.13300 L 273.28600,165.51000 L 273.99700,171.78200 C 275.11200,180.68400 272.52400,188.46300 266.78600,193.09000 L 262.08800,196.95300 L 268.14900,194.74800 C 274.56700,192.52800 281.36200,185.91800 284.48600,178.90300 L 286.30700,174.81100 L 288.30600,180.79500 C 291.24800,189.27400 290.33400,197.42000 285.68300,203.13900 L 281.89100,207.89500 L 287.36100,204.47700 C 293.17700,200.97100 298.45000,193.09400 300.04700,185.58200 L 300.97800,181.20100 L 304.17800,186.64100 C 308.81800,194.32100 309.61800,202.48100 306.25800,209.04100 L 303.53800,214.48100 L 308.17800,210.00000 C 313.13800,205.36200 316.65800,196.56100 316.65800,188.88100 L 316.65800,184.40100 L 320.91900,189.05700 C 327.05300,195.60400 329.53200,203.42000 327.61100,210.53500 L 326.08100,216.42200 L 329.68800,211.07400 C 333.57500,205.50400 335.18800,196.16600 333.59200,188.65300 L 332.66100,184.27200"
         id="path2404" />
    </g>
  </g>
</svg>
