<?xml version="1.0" encoding="UTF-8" standalone="no"?>
<svg
   xmlns:dc="http://purl.org/dc/elements/1.1/"
   xmlns:cc="http://web.resource.org/cc/"
   xmlns:rdf="http://www.w3.org/1999/02/22-rdf-syntax-ns#"
   xmlns:svg="http://www.w3.org/2000/svg"
   xmlns="http://www.w3.org/2000/svg"
   xmlns:sodipodi="http://inkscape.sourceforge.net/DTD/sodipodi-0.dtd"
   xmlns:inkscape="http://www.inkscape.org/namespaces/inkscape"
   width="750"
   height="450"
   id="svg2"
   sodipodi:version="0.32"
   inkscape:version="0.42"
   sodipodi:docname="guam.svg"
   sodipodi:docbase="flags/src">
  <metadata
     id="metadata39209">
    <rdf:RDF>
      <cc:Work
         rdf:about="">
        <dc:format>image/svg+xml</dc:format>
        <dc:type
           rdf:resource="http://purl.org/dc/dcmitype/StillImage" />
      </cc:Work>
    </rdf:RDF>
  </metadata>
  <sodipodi:namedview
     inkscape:cy="211.82685"
     inkscape:cx="436.38435"
     inkscape:zoom="1.2279853"
     inkscape:window-height="914"
     inkscape:window-width="1421"
     inkscape:pageshadow="2"
     inkscape:pageopacity="0.0"
     borderopacity="1.0"
     bordercolor="#666666"
     pagecolor="#ffffff"
     id="base"
     inkscape:window-x="172"
     inkscape:window-y="-45"
     inkscape:current-layer="svg2" />
  <defs
     id="defs4">
    <marker
       id="ArrowEnd"
       viewBox="0 0 10 10"
       refX="0"
       refY="5"
       markerUnits="strokeWidth"
       markerWidth="4"
       markerHeight="3"
       orient="auto">
      <path
         d="M 0 0 L 10 5 L 0 10 z"
         id="path7" />
    </marker>
    <marker
       id="ArrowStart"
       viewBox="0 0 10 10"
       refX="10"
       refY="5"
       markerUnits="strokeWidth"
       markerWidth="4"
       markerHeight="3"
       orient="auto">
      <path
         d="M 10 0 L 0 5 L 10 10 z"
         id="path10" />
    </marker>
  </defs>
  <g
     id="g2073"
     transform="matrix(1.047490,0.000000,0.000000,1.000000,1.009084,0.000000)">
    <path
       style="fill:#000000;stroke:none"
       d="M -709.36797,2812.0156 L -709.36797,2812.0156 L -709.36797,2812.0156 L -709.36797,2812.0156"
       id="path14" />
    <path
       style="fill:#d53848;stroke:none"
       d="M 19.828832,427.93242 L 692.66403,427.93242 L 692.66403,20.198354 L 19.828832,20.198354 L 19.828832,427.93242 z "
       id="path18" />
    <path
       style="fill:none;stroke:#d53848;stroke-width:38.400002"
       d="M 19.828832,427.93242 L 692.66403,427.93242 L 692.66403,20.198354 L 19.828832,20.198354 L 19.828832,427.93242 z "
       id="path20" />
    <path
       style="fill:#0050c8;fill-opacity:1.0000000;stroke:none"
       d="M 35.112032,411.53562 L 677.83203,411.53562 L 677.83203,36.662354 L 35.112032,36.662354 L 35.112032,411.53562 z "
       id="path22" />
    <path
       style="fill:#d53848;stroke:none"
       d="M 356.13603,112.24122 C 356.13603,112.24122 290.27043,163.12602 290.27043,223.12602 C 290.27043,283.13562 356.13603,335.46042 356.13603,335.46042 C 356.13603,335.46042 421.57923,287.45082 421.57923,223.12602 C 421.57923,158.80602 356.13603,112.24122 356.13603,112.24122"
       id="path24" />
    <path
       style="fill:#66afeb;fill-opacity:1.0000000;stroke:none"
       d="M 411.66723,242.97402 C 413.11203,236.59002 413.93283,229.96122 413.93283,223.12602 C 413.93283,165.52602 356.13603,122.80602 356.13603,122.80602 C 356.13603,122.80602 297.49443,166.97082 297.49443,223.12602 C 297.49443,229.87002 298.32963,236.44122 299.80323,242.80602 L 411.66723,242.97402"
       id="path26" />
    <path
       style="fill:#013a76;stroke:none"
       d="M 355.65603,324.41562 C 355.65603,324.41562 400.98723,290.39322 411.64803,242.80602 L 299.76003,242.80602 C 310.58403,289.47642 355.65603,324.41562 355.65603,324.41562"
       id="path28" />
    <path
       style="fill:#e7dede;fill-opacity:1.0000000;stroke:none"
       d="M 413.64963,229.85082 C 403.73283,237.85722 347.92323,234.01242 347.92323,234.01242 L 344.80323,242.97402 L 411.66243,242.97402 C 411.94083,241.74522 412.19523,240.51642 412.42563,239.27322 L 413.64963,229.85082"
       id="path30" />
    <path
       style="fill:#fff100;stroke:none"
       d="M 352.70403,286.49562 C 351.85443,279.79002 325.75203,272.60922 311.89923,273.19962 C 316.22403,280.88922 321.12483,287.92602 326.05443,294.18042 C 333.09123,285.62202 352.98243,288.70842 352.70403,286.49562"
       id="path32" />
    <path
       style="fill:#fff100;stroke:none"
       d="M 405.53763,261.56442 C 402.22083,261.69882 396.20163,262.29882 392.07843,264.73242 C 386.13123,268.25082 372.81603,272.09562 366.86403,270.17082 C 360.91683,268.25082 351.56643,274.33242 352.70403,275.60922 C 354.59043,277.74522 368.28003,275.29242 368.28003,289.05402 C 368.28003,300.57402 352.42083,295.45722 346.18563,300.25722 C 342.42723,303.14202 339.80643,306.27642 338.31843,308.29242 C 348.05283,318.50202 355.67523,324.41562 355.67523,324.41562 C 355.67523,324.41562 373.74723,310.85082 389.75043,288.88602 L 397.27683,277.56762 C 400.31043,272.53242 403.12323,267.19002 405.53763,261.56442"
       id="path34" />
    <path
       style="fill:#000000;stroke:none"
       d="M 335.11203,258.41562 L 337.51203,258.41562 L 337.51203,229.13562 L 335.11203,229.13562 L 335.11203,258.41562 z "
       id="path36" />
    <path
       style="fill:#7b4800;stroke:none"
       d="M 342.90723,263.93562 C 342.90723,263.93562 341.92323,264.13242 340.35843,264.35802 L 340.35843,262.07322 L 338.76483,262.07322 L 338.76483,264.55482 C 337.13283,264.74202 335.15523,264.89562 333.08163,264.89562 C 330.87843,264.89562 328.65603,264.71322 326.82243,264.50202 L 326.82243,262.13562 L 325.06563,262.13562 L 325.06563,264.27642 C 323.54883,264.06042 322.56963,263.87322 322.56963,263.87322 C 322.56963,263.87322 322.08963,266.87322 332.92803,266.87322 C 343.76163,266.87322 342.91203,263.93562 342.91203,263.93562"
       id="path38" />
    <path
       style="fill:#009270;stroke:none"
       d="M 352.52643,172.85082 C 352.52643,172.85082 343.49283,166.85082 331.17123,169.72602 C 318.84963,172.60602 316.19043,181.36122 316.19043,181.36122 L 320.33283,179.20602 L 320.43843,181.12602 L 324.15843,178.48602 L 324.26403,180.40602 L 327.45123,177.05082 L 327.97443,179.20602 L 330.84483,176.32602 L 331.06083,177.88602 L 335.73123,174.52602 L 335.73123,176.68602 L 339.45123,174.76122 L 339.13443,176.80602 L 346.14723,175.37082 C 346.14723,175.37082 329.57283,181.60602 327.45123,196.60602 L 330.63363,192.29562 L 330.95523,194.32602 L 332.97123,189.77082 L 333.50403,191.57082 L 335.30883,187.37082 L 335.83683,189.88602 L 338.59683,185.32602 L 338.81283,187.97082 L 341.99523,183.05082 L 341.99523,185.44122 L 345.39843,181.24122 L 345.29283,184.37082 C 345.29283,184.37082 348.58563,181.24122 349.64163,181.24122 L 345.71523,187.00602 L 346.99203,187.48602 C 346.99203,187.48602 344.22723,190.00602 344.01603,190.48602 C 343.80483,190.96122 345.82563,190.48602 345.82563,190.48602 C 345.82563,190.48602 343.37763,193.36122 343.27203,194.20602 C 343.16643,195.05082 344.86563,194.20602 344.86563,194.20602 C 344.86563,194.20602 342.63363,197.44122 342.31683,198.65082 C 341.99523,199.85082 343.48323,198.88602 343.48323,198.88602 C 343.48323,198.88602 342.10563,202.72602 341.99523,203.80602 C 341.88963,204.87642 343.58883,203.56122 343.58883,203.56122 L 344.54883,210.16122 L 346.24803,202.25082 L 347.30883,204.05082 L 347.30883,198.40602 L 348.26403,199.36122 L 348.15843,195.65082 L 349.43043,197.08602 L 348.79683,192.52602 L 350.17443,194.31642 L 349.96323,190.48602 L 351.34083,192.05082 L 351.34083,187.00602 L 352.61763,188.31642 L 352.82883,184.85082 L 354.31683,185.68602 C 354.31683,185.68602 354.52803,181.48602 356.23203,181.60602 C 357.92643,181.71642 360.05283,183.76122 359.20323,184.71642 L 360.69123,184.25082 L 360.37443,188.31642 L 361.75203,187.36122 L 361.54083,190.36122 L 362.70723,189.76122 L 362.28483,193.59642 L 363.66723,192.65082 L 363.76803,197.31642 L 365.35683,196.00602 L 365.25123,201.51642 L 366.84483,200.08602 L 366.84483,204.64122 L 368.33283,203.45082 L 369.93123,207.88602 L 369.60963,201.28602 L 370.78083,202.36122 L 368.64963,197.68602 L 370.24803,197.44122 L 368.54403,194.31642 L 370.13763,194.45082 L 367.80483,191.32602 L 369.39363,190.97082 L 365.88483,188.08602 L 367.80003,187.25082 L 364.18563,184.60602 L 365.56803,184.00602 L 363.02403,181.00602 L 365.67843,182.20602 L 366.52323,180.28602 L 369.71043,183.17082 L 369.71043,180.28602 L 372.47043,184.60602 L 372.79203,181.96122 L 374.91843,185.32602 L 375.34083,183.77082 L 376.82883,187.12602 L 377.56803,184.61562 L 379.05603,188.21562 L 379.47843,185.68602 L 380.86083,189.65082 L 382.13763,188.08602 L 382.77603,192.17082 L 384.04323,190.60602 L 385.20963,194.20602 L 386.69763,192.88602 L 387.97443,196.97082 C 387.97443,196.97082 391.47843,175.12602 361.41603,174.76122 L 352.49283,172.85082"
       id="path40" />
    <path
       style="fill:#009270;stroke:none"
       d="M 338.71683,153.40602 L 340.41123,155.79642 L 339.56163,156.52602 L 342.43203,158.32602 L 341.79363,159.64122 L 344.66403,160.84122 L 343.59843,161.80602 L 346.15203,163.47642 L 344.45283,164.08602 L 347.52963,165.76122 L 347.10723,167.31642 L 349.76163,168.04122 L 348.59523,169.11642 L 351.67203,171.88602 L 355.18083,174.64122 L 357.62403,173.68602 L 356.66403,168.39642 C 356.66403,168.39642 346.57443,152.79642 338.71683,153.39642"
       id="path42" />
    <path
       style="fill:#009270;stroke:none"
       d="M 347.95683,138.28602 L 349.12803,141.39642 L 347.52963,141.76122 L 351.14403,145.84122 L 348.27363,145.96122 L 351.78243,149.07642 L 350.07843,149.68602 L 353.27043,153.28602 L 351.56643,154.24122 L 354.85923,157.96122 L 352.63203,158.91642 L 356.35203,162.76122 L 354.22563,162.88602 L 356.45283,166.11642 L 354.43683,166.84122 C 354.43683,166.84122 356.88003,171.99642 356.76963,174.16122 L 360.91203,174.39642 C 360.91203,174.39642 361.55043,160.47642 361.02243,158.67642 L 359.95683,159.51642 L 360.27363,154.47642 L 358.68003,155.56122 L 358.36803,149.56122 L 356.76963,151.47642 L 356.35203,145.59642 L 355.18083,147.64122 L 354.00963,141.87642 L 352.73763,143.67642 L 351.56643,139.96122 L 350.61123,141.39642 L 347.95683,138.27642"
       id="path44" />
    <path
       style="fill:#009270;stroke:none"
       d="M 358.68483,173.32602 C 359.85603,164.92602 367.61283,152.68602 382.16643,152.20602 L 378.86883,154.12602 L 380.78403,155.08602 L 376.95843,156.65082 L 378.86883,157.96122 L 374.30403,158.32602 L 376.63683,160.12602 L 373.24323,160.60602 L 370.58403,161.20602 L 372.49443,163.24122 L 368.66883,163.71642 L 371.11683,165.16122 C 371.11683,165.16122 365.05923,167.56122 364.63683,168.28602 C 364.63683,168.28602 385.03683,162.40602 390.02883,173.31642 L 386.09283,171.39642 L 386.41443,173.44122 L 383.65443,171.16122 L 384.07683,172.84122 L 381.21123,171.16122 L 381.63363,173.19642 L 378.65763,171.27642 L 379.29603,173.08602 L 375.47043,171.04122 L 376.10883,172.96122 L 372.81603,171.76122 L 373.13763,173.79642 L 369.84003,173.56122 L 370.16163,175.96122 L 359.96163,175.71642 L 358.68483,173.31642"
       id="path46" />
    <path
       style="fill:#7b4800;stroke:none"
       d="M 355.56963,180.56442 L 357.69603,180.40602 C 356.70243,203.29242 357.63363,236.10522 360.38403,248.25402 C 365.05443,268.88922 378.67203,276.83802 381.91203,278.81562 C 383.75043,279.92922 383.04483,284.57082 379.35843,284.25402 C 375.68163,283.93242 362.83203,273.20922 358.39683,254.00922 C 352.45443,228.24762 355.33923,183.24762 355.56963,180.56442"
       id="path48" />
    <path
       style="fill:#d53848;stroke:none"
       d="M 327.17763,215.62842 L 324.65763,215.62842 C 324.46083,214.39962 323.98563,213.53562 323.23203,213.06042 C 322.80963,212.78682 322.34403,212.65722 321.83043,212.65722 C 320.83683,212.65722 320.03043,213.19002 319.39683,214.28922 C 318.75843,215.37402 318.44163,217.02522 318.44163,219.20922 C 318.44163,221.42202 318.78723,222.97722 319.47363,223.90842 C 320.16003,224.81562 320.94243,225.27642 321.82083,225.27642 C 322.68003,225.27642 323.38083,224.91642 323.93283,224.18682 C 324.48003,223.46682 324.81603,222.51162 324.95043,221.32602 L 322.10883,221.32602 L 322.10883,218.33562 L 327.21603,218.33562 L 327.21603,227.96442 L 325.52163,227.96442 L 325.26243,225.72282 C 324.76803,226.57722 324.32643,227.17722 323.93283,227.53242 C 323.25603,228.14202 322.42563,228.44442 321.43683,228.44442 C 319.81443,228.44442 318.48003,227.61882 317.44803,225.96762 C 316.36803,224.31642 315.82563,222.05082 315.82563,219.18042 C 315.82563,216.27642 316.37283,213.93882 317.46723,212.18682 C 318.55203,210.43482 319.99683,209.56122 321.79683,209.56122 C 323.35203,209.56122 324.60483,210.14202 325.55043,211.29882 C 326.49123,212.45082 327.03843,213.89562 327.17763,215.62842"
       id="path50" />
    <path
       style="fill:#d53848;stroke:none"
       d="M 339.17283,221.05722 L 339.17283,210.02202 L 341.77443,210.02202 L 341.77443,221.05722 C 341.77443,222.28602 341.88003,223.18362 342.07683,223.75482 C 342.38883,224.75802 343.06083,225.26682 344.10723,225.26682 C 345.13923,225.26682 345.81603,224.75802 346.12803,223.75482 C 346.32963,223.18362 346.42083,222.28602 346.42083,221.05722 L 346.42083,210.02202 L 349.02723,210.02202 L 349.02723,221.05722 C 349.02723,222.95802 348.82563,224.44122 348.42243,225.51162 C 347.66403,227.45082 346.22883,228.42522 344.10243,228.42522 C 341.98083,228.42522 340.53603,227.46042 339.77763,225.51162 C 339.37443,224.45082 339.17283,222.95802 339.17283,221.05722"
       id="path52" />
    <path
       style="fill:#d53848;stroke:none"
       d="M 364.99683,227.96442 L 365.84643,224.28282 L 370.36323,224.28282 L 371.15043,227.96442 L 373.92483,227.96442 L 369.58083,210.02202 L 366.69603,210.02202 L 362.31843,227.96442 L 364.99683,227.96442"
       id="path54" />
    <path
       style="fill:#d53848;stroke:none"
       d="M 390.11043,224.12922 L 392.32323,210.02202 L 396.00483,210.02202 L 396.00483,227.96442 L 393.61923,227.96442 L 393.61923,215.83482 C 393.61923,215.47962 393.62403,214.99002 393.62883,214.36122 C 393.63363,213.73242 393.63843,213.24762 393.63843,212.91162 L 391.31523,227.96442 L 388.82883,227.96442 L 386.52483,212.91162 C 386.52483,213.24762 386.52963,213.73242 386.53443,214.36122 C 386.53923,214.99002 386.54403,215.47962 386.54403,215.83482 L 386.54403,227.96442 L 384.15843,227.96442 L 384.15843,210.02202 L 387.88323,210.02202 L 390.11043,224.12922"
       id="path56" />
    <path
       style="fill:#7b4800;stroke:none"
       d="M 332.62083,258.32922 C 341.40483,258.32922 348.77283,256.73562 348.77283,256.73562 C 348.77283,256.73562 349.90083,263.12922 332.62083,263.12922 C 315.34083,263.12922 316.75683,257.69562 316.75683,257.69562 C 316.75683,257.69562 323.84163,258.32922 332.62083,258.32922"
       id="path58" />
    <path
       style="fill:#ffffff;stroke:none"
       d="M 325.25283,230.80602 C 325.25283,230.80602 338.85123,236.57082 344.23683,256.73562 C 344.23683,256.73562 331.77123,253.86042 324.68643,257.05722 L 320.72163,257.05722 C 320.72163,257.04762 327.52323,245.85402 325.25283,230.80602"
       id="path60" />
    <path
       style="fill:#7b4800;stroke:none"
       d="M 359.00643,172.88922 C 360.33123,172.88922 361.41123,174.10842 361.41123,175.60602 C 361.41123,177.10842 360.33123,178.32282 359.00643,178.32282 C 357.67683,178.32282 356.60163,177.10842 356.60163,175.60602 C 356.60163,174.10842 357.67683,172.88922 359.00643,172.88922"
       id="path62" />
    <path
       style="fill:#7b4800;stroke:none"
       d="M 355.18083,172.10202 C 356.42403,172.10202 357.43203,173.23482 357.43203,174.64122 C 357.43203,176.04762 356.42403,177.19002 355.18083,177.19002 C 353.93763,177.19002 352.92963,176.04762 352.92963,174.64122 C 352.92963,173.23482 353.93763,172.10202 355.18083,172.10202"
       id="path64" />
    <path
       style="fill:#7b4800;stroke:none"
       d="M 355.18083,176.71482 C 356.34243,176.71482 357.28323,177.77082 357.28323,179.08602 C 357.28323,180.39642 356.34243,181.46682 355.18083,181.46682 C 354.01923,181.46682 353.07843,180.39642 353.07843,179.08602 C 353.07843,177.77082 354.01923,176.71482 355.18083,176.71482"
       id="path66" />
    <path
       style="fill:#7b4800;stroke:none"
       d="M 358.04643,175.34202 C 359.29443,175.34202 360.30243,176.47962 360.30243,177.88602 C 360.30243,179.29242 359.29443,180.42522 358.04643,180.42522 C 356.80323,180.42522 355.79523,179.29242 355.79523,177.88602 C 355.79523,176.47962 356.80323,175.34202 358.04643,175.34202"
       id="path68" />
    <path
       style="fill:#3796d2;stroke:none"
       d="M 369.64803,221.18682 L 366.53763,221.18682 L 368.11683,214.12602 L 369.64803,221.18682"
       id="path70" />
    <path
       sodipodi:nodetypes="ccccc"
       style="fill:none;fill-opacity:1.0000000;stroke:#041c68;stroke-width:2.4215381"
       d="M 1.0000000,446.00000 L 711.00000,446.00000 L 711.00000,2.0000000 L 1.0000000,2.0000000 L 1.0000000,446.00000 z "
       id="path72" />
  </g>
</svg>
