<?xml version="1.0" encoding="UTF-8" standalone="no"?>
<!-- Created with Inkscape (http://www.inkscape.org/) -->
<svg
   xmlns:dc="http://purl.org/dc/elements/1.1/"
   xmlns:cc="http://web.resource.org/cc/"
   xmlns:rdf="http://www.w3.org/1999/02/22-rdf-syntax-ns#"
   xmlns:svg="http://www.w3.org/2000/svg"
   xmlns="http://www.w3.org/2000/svg"
   xmlns:xlink="http://www.w3.org/1999/xlink"
   xmlns:sodipodi="http://inkscape.sourceforge.net/DTD/sodipodi-0.dtd"
   xmlns:inkscape="http://www.inkscape.org/namespaces/inkscape"
   height="600px"
   id="svg2097"
   inkscape:version="0.43"
   sodipodi:docbase="/home/demailly/florence"
   sodipodi:docname="florence.svg"
   sodipodi:version="0.32"
   width="800px">
  <metadata
     id="metadata3">
    <rdf:RDF>
      <cc:Work
         rdf:about="">
        <dc:title>Florence Flag</dc:title>
        <dc:description>Italy,Florence Flag</dc:description>
        <dc:subject>
          <rdf:Bag>
            <rdf:li>italia</rdf:li>
            <rdf:li>italy</rdf:li>
            <rdf:li>firenze</rdf:li>
            <rdf:li>flag</rdf:li>
            <rdf:li>florence</rdf:li>
          </rdf:Bag>
        </dc:subject>
        <dc:publisher>
          <cc:Agent
             rdf:about="http://www.openclipart.org">
            <dc:title>Open Clip Art Library</dc:title>
          </cc:Agent>
        </dc:publisher>
        <dc:creator>
          <cc:Agent>
            <dc:title>loz</dc:title>
          </cc:Agent>
        </dc:creator>
        <dc:rights>
          <cc:Agent>
            <dc:title>loz</dc:title>
          </cc:Agent>
        </dc:rights>
        <dc:date />
        <dc:format>image/svg+xml</dc:format>
        <dc:type
           rdf:resource="http://purl.org/dc/dcmitype/StillImage" />
        <cc:license
           rdf:resource="http://web.resource.org/cc/PublicDomain" />
        <dc:language>en</dc:language>
      </cc:Work>
      <cc:License
         rdf:about="http://web.resource.org/cc/PublicDomain">
        <cc:permits
           rdf:resource="http://web.resource.org/cc/Reproduction" />
        <cc:permits
           rdf:resource="http://web.resource.org/cc/Distribution" />
        <cc:permits
           rdf:resource="http://web.resource.org/cc/DerivativeWorks" />
      </cc:License>
    </rdf:RDF>
  </metadata>
  <defs
     id="defs3">
    <linearGradient
       id="linearGradient5236"
       inkscape:collect="always">
      <stop
         id="stop5238"
         offset="0"
         style="stop-color:#000000;stop-opacity:1;" />
      <stop
         id="stop5240"
         offset="1"
         style="stop-color:#000000;stop-opacity:0;" />
    </linearGradient>
    <linearGradient
       gradientTransform="scale(0.929178,1.076220)"
       gradientUnits="userSpaceOnUse"
       id="linearGradient5248"
       inkscape:collect="always"
       x1="425.33801"
       x2="744.97534"
       xlink:href="#linearGradient5236"
       y1="274.04654"
       y2="274.04654" />
    <linearGradient
       gradientTransform="scale(0.929178,1.076220)"
       gradientUnits="userSpaceOnUse"
       id="linearGradient5250"
       inkscape:collect="always"
       x1="425.33801"
       x2="744.97534"
       xlink:href="#linearGradient5236"
       y1="274.04654"
       y2="274.04654" />
    <linearGradient
       gradientTransform="scale(0.929178,1.076220)"
       gradientUnits="userSpaceOnUse"
       id="linearGradient5252"
       inkscape:collect="always"
       x1="425.33801"
       x2="744.97534"
       xlink:href="#linearGradient5236"
       y1="274.04654"
       y2="274.04654" />
    <linearGradient
       gradientTransform="scale(0.929178,1.076220)"
       gradientUnits="userSpaceOnUse"
       id="linearGradient5254"
       inkscape:collect="always"
       x1="425.33801"
       x2="744.97534"
       xlink:href="#linearGradient5236"
       y1="274.04654"
       y2="274.04654" />
    <linearGradient
       gradientTransform="scale(0.929178,1.076220)"
       gradientUnits="userSpaceOnUse"
       id="linearGradient5256"
       inkscape:collect="always"
       x1="425.33801"
       x2="744.97534"
       xlink:href="#linearGradient5236"
       y1="274.04654"
       y2="274.04654" />
    <linearGradient
       gradientTransform="scale(0.929178,1.076220)"
       gradientUnits="userSpaceOnUse"
       id="linearGradient5258"
       inkscape:collect="always"
       x1="425.33801"
       x2="744.97534"
       xlink:href="#linearGradient5236"
       y1="274.04654"
       y2="274.04654" />
    <linearGradient
       gradientTransform="scale(0.929178,1.076220)"
       gradientUnits="userSpaceOnUse"
       id="linearGradient5260"
       inkscape:collect="always"
       x1="425.33801"
       x2="744.97534"
       xlink:href="#linearGradient5236"
       y1="274.04654"
       y2="274.04654" />
    <linearGradient
       gradientTransform="scale(0.929178,1.076220)"
       gradientUnits="userSpaceOnUse"
       id="linearGradient5262"
       inkscape:collect="always"
       x1="425.33801"
       x2="744.97534"
       xlink:href="#linearGradient5236"
       y1="274.04654"
       y2="274.04654" />
    <linearGradient
       gradientTransform="scale(0.929178,1.076220)"
       gradientUnits="userSpaceOnUse"
       id="linearGradient5264"
       inkscape:collect="always"
       x1="425.33801"
       x2="744.97534"
       xlink:href="#linearGradient5236"
       y1="274.04654"
       y2="274.04654" />
    <linearGradient
       gradientTransform="scale(0.929178,1.076220)"
       gradientUnits="userSpaceOnUse"
       id="linearGradient5266"
       inkscape:collect="always"
       x1="425.33801"
       x2="744.97534"
       xlink:href="#linearGradient5236"
       y1="274.04654"
       y2="274.04654" />
    <linearGradient
       gradientTransform="scale(0.929178,1.076220)"
       gradientUnits="userSpaceOnUse"
       id="linearGradient5268"
       inkscape:collect="always"
       x1="425.33801"
       x2="744.97534"
       xlink:href="#linearGradient5236"
       y1="274.04654"
       y2="274.04654" />
    <linearGradient
       gradientTransform="scale(0.929178,1.076220)"
       gradientUnits="userSpaceOnUse"
       id="linearGradient5270"
       inkscape:collect="always"
       x1="425.33801"
       x2="744.97534"
       xlink:href="#linearGradient5236"
       y1="274.04654"
       y2="274.04654" />
    <linearGradient
       gradientTransform="scale(0.929178,1.076220)"
       gradientUnits="userSpaceOnUse"
       id="linearGradient5272"
       inkscape:collect="always"
       x1="425.33801"
       x2="744.97534"
       xlink:href="#linearGradient5236"
       y1="274.04654"
       y2="274.04654" />
    <linearGradient
       gradientTransform="scale(0.929178,1.076220)"
       gradientUnits="userSpaceOnUse"
       id="linearGradient5274"
       inkscape:collect="always"
       x1="425.33801"
       x2="744.97534"
       xlink:href="#linearGradient5236"
       y1="274.04654"
       y2="274.04654" />
    <linearGradient
       gradientTransform="scale(0.929178,1.076220)"
       gradientUnits="userSpaceOnUse"
       id="linearGradient5276"
       inkscape:collect="always"
       x1="425.33801"
       x2="744.97534"
       xlink:href="#linearGradient5236"
       y1="274.04654"
       y2="274.04654" />
    <linearGradient
       gradientTransform="scale(0.929178,1.076220)"
       gradientUnits="userSpaceOnUse"
       id="linearGradient5278"
       inkscape:collect="always"
       x1="425.33801"
       x2="744.97534"
       xlink:href="#linearGradient5236"
       y1="274.04654"
       y2="274.04654" />
    <linearGradient
       gradientTransform="scale(0.929178,1.076220)"
       gradientUnits="userSpaceOnUse"
       id="linearGradient5280"
       inkscape:collect="always"
       x1="425.33801"
       x2="744.97534"
       xlink:href="#linearGradient5236"
       y1="274.04654"
       y2="274.04654" />
    <linearGradient
       gradientTransform="scale(0.929178,1.076220)"
       gradientUnits="userSpaceOnUse"
       id="linearGradient5282"
       inkscape:collect="always"
       x1="425.33801"
       x2="744.97534"
       xlink:href="#linearGradient5236"
       y1="274.04654"
       y2="274.04654" />
    <linearGradient
       gradientTransform="scale(0.929178,1.076220)"
       gradientUnits="userSpaceOnUse"
       id="linearGradient5284"
       inkscape:collect="always"
       x1="425.33801"
       x2="744.97534"
       xlink:href="#linearGradient5236"
       y1="274.04654"
       y2="274.04654" />
    <linearGradient
       gradientTransform="scale(0.929178,1.076220)"
       gradientUnits="userSpaceOnUse"
       id="linearGradient5286"
       inkscape:collect="always"
       x1="425.33801"
       x2="744.97534"
       xlink:href="#linearGradient5236"
       y1="274.04654"
       y2="274.04654" />
    <linearGradient
       gradientTransform="scale(0.929178,1.076220)"
       gradientUnits="userSpaceOnUse"
       id="linearGradient5288"
       inkscape:collect="always"
       x1="425.33801"
       x2="744.97534"
       xlink:href="#linearGradient5236"
       y1="274.04654"
       y2="274.04654" />
    <linearGradient
       gradientTransform="scale(0.929178,1.076220)"
       gradientUnits="userSpaceOnUse"
       id="linearGradient5290"
       inkscape:collect="always"
       x1="425.33801"
       x2="744.97534"
       xlink:href="#linearGradient5236"
       y1="274.04654"
       y2="274.04654" />
    <linearGradient
       gradientTransform="scale(0.929178,1.076220)"
       gradientUnits="userSpaceOnUse"
       id="linearGradient5292"
       inkscape:collect="always"
       x1="425.33801"
       x2="744.97534"
       xlink:href="#linearGradient5236"
       y1="274.04654"
       y2="274.04654" />
    <linearGradient
       gradientTransform="scale(0.929178,1.076220)"
       gradientUnits="userSpaceOnUse"
       id="linearGradient5294"
       inkscape:collect="always"
       x1="425.33801"
       x2="744.97534"
       xlink:href="#linearGradient5236"
       y1="274.04654"
       y2="274.04654" />
    <linearGradient
       gradientTransform="scale(0.929178,1.076220)"
       gradientUnits="userSpaceOnUse"
       id="linearGradient5296"
       inkscape:collect="always"
       x1="425.33801"
       x2="744.97534"
       xlink:href="#linearGradient5236"
       y1="274.04654"
       y2="274.04654" />
    <linearGradient
       gradientTransform="scale(0.929178,1.076220)"
       gradientUnits="userSpaceOnUse"
       id="linearGradient5298"
       inkscape:collect="always"
       x1="425.33801"
       x2="744.97534"
       xlink:href="#linearGradient5236"
       y1="274.04654"
       y2="274.04654" />
    <linearGradient
       gradientTransform="scale(0.929178,1.076220)"
       gradientUnits="userSpaceOnUse"
       id="linearGradient5300"
       inkscape:collect="always"
       x1="425.33801"
       x2="744.97534"
       xlink:href="#linearGradient5236"
       y1="274.04654"
       y2="274.04654" />
    <linearGradient
       gradientTransform="scale(0.929178,1.076220)"
       gradientUnits="userSpaceOnUse"
       id="linearGradient5302"
       inkscape:collect="always"
       x1="425.33801"
       x2="744.97534"
       xlink:href="#linearGradient5236"
       y1="274.04654"
       y2="274.04654" />
    <linearGradient
       gradientTransform="scale(0.929178,1.076220)"
       gradientUnits="userSpaceOnUse"
       id="linearGradient5304"
       inkscape:collect="always"
       x1="425.33801"
       x2="744.97534"
       xlink:href="#linearGradient5236"
       y1="274.04654"
       y2="274.04654" />
    <linearGradient
       gradientTransform="scale(0.929178,1.076220)"
       gradientUnits="userSpaceOnUse"
       id="linearGradient5306"
       inkscape:collect="always"
       x1="425.33801"
       x2="744.97534"
       xlink:href="#linearGradient5236"
       y1="274.04654"
       y2="274.04654" />
    <linearGradient
       gradientTransform="scale(0.929178,1.076220)"
       gradientUnits="userSpaceOnUse"
       id="linearGradient5308"
       inkscape:collect="always"
       x1="425.33801"
       x2="744.97534"
       xlink:href="#linearGradient5236"
       y1="274.04654"
       y2="274.04654" />
    <linearGradient
       gradientTransform="scale(0.929178,1.076220)"
       gradientUnits="userSpaceOnUse"
       id="linearGradient5310"
       inkscape:collect="always"
       x1="425.33801"
       x2="744.97534"
       xlink:href="#linearGradient5236"
       y1="274.04654"
       y2="274.04654" />
    <linearGradient
       gradientTransform="scale(0.929178,1.076220)"
       gradientUnits="userSpaceOnUse"
       id="linearGradient5312"
       inkscape:collect="always"
       x1="425.33801"
       x2="744.97534"
       xlink:href="#linearGradient5236"
       y1="274.04654"
       y2="274.04654" />
    <linearGradient
       gradientTransform="scale(0.929178,1.076220)"
       gradientUnits="userSpaceOnUse"
       id="linearGradient5314"
       inkscape:collect="always"
       x1="425.33801"
       x2="744.97534"
       xlink:href="#linearGradient5236"
       y1="274.04654"
       y2="274.04654" />
    <linearGradient
       gradientTransform="scale(0.929178,1.076220)"
       gradientUnits="userSpaceOnUse"
       id="linearGradient5316"
       inkscape:collect="always"
       x1="425.33801"
       x2="744.97534"
       xlink:href="#linearGradient5236"
       y1="274.04654"
       y2="274.04654" />
    <linearGradient
       gradientTransform="scale(0.929178,1.076220)"
       gradientUnits="userSpaceOnUse"
       id="linearGradient5318"
       inkscape:collect="always"
       x1="425.33801"
       x2="744.97534"
       xlink:href="#linearGradient5236"
       y1="274.04654"
       y2="274.04654" />
    <linearGradient
       gradientTransform="scale(0.929178,1.076220)"
       gradientUnits="userSpaceOnUse"
       id="linearGradient5320"
       inkscape:collect="always"
       x1="425.33801"
       x2="744.97534"
       xlink:href="#linearGradient5236"
       y1="274.04654"
       y2="274.04654" />
    <linearGradient
       gradientTransform="scale(0.929178,1.076220)"
       gradientUnits="userSpaceOnUse"
       id="linearGradient5322"
       inkscape:collect="always"
       x1="425.33801"
       x2="744.97534"
       xlink:href="#linearGradient5236"
       y1="274.04654"
       y2="274.04654" />
    <linearGradient
       gradientTransform="scale(0.929178,1.076220)"
       gradientUnits="userSpaceOnUse"
       id="linearGradient5324"
       inkscape:collect="always"
       x1="425.33801"
       x2="744.97534"
       xlink:href="#linearGradient5236"
       y1="274.04654"
       y2="274.04654" />
    <linearGradient
       gradientTransform="scale(0.929178,1.076220)"
       gradientUnits="userSpaceOnUse"
       id="linearGradient5326"
       inkscape:collect="always"
       x1="425.33801"
       x2="744.97534"
       xlink:href="#linearGradient5236"
       y1="274.04654"
       y2="274.04654" />
    <linearGradient
       gradientTransform="scale(0.929178,1.076220)"
       gradientUnits="userSpaceOnUse"
       id="linearGradient5328"
       inkscape:collect="always"
       x1="425.33801"
       x2="744.97534"
       xlink:href="#linearGradient5236"
       y1="274.04654"
       y2="274.04654" />
    <linearGradient
       gradientTransform="scale(0.929178,1.076220)"
       gradientUnits="userSpaceOnUse"
       id="linearGradient5330"
       inkscape:collect="always"
       x1="425.33801"
       x2="744.97534"
       xlink:href="#linearGradient5236"
       y1="274.04654"
       y2="274.04654" />
    <linearGradient
       gradientTransform="scale(0.929178,1.076220)"
       gradientUnits="userSpaceOnUse"
       id="linearGradient5332"
       inkscape:collect="always"
       x1="425.33801"
       x2="744.97534"
       xlink:href="#linearGradient5236"
       y1="274.04654"
       y2="274.04654" />
    <linearGradient
       gradientTransform="scale(0.929178,1.076220)"
       gradientUnits="userSpaceOnUse"
       id="linearGradient5334"
       inkscape:collect="always"
       x1="425.33801"
       x2="744.97534"
       xlink:href="#linearGradient5236"
       y1="274.04654"
       y2="274.04654" />
    <linearGradient
       gradientTransform="scale(0.929178,1.076220)"
       gradientUnits="userSpaceOnUse"
       id="linearGradient5336"
       inkscape:collect="always"
       x1="425.33801"
       x2="744.97534"
       xlink:href="#linearGradient5236"
       y1="274.04654"
       y2="274.04654" />
    <linearGradient
       gradientTransform="scale(0.929178,1.076220)"
       gradientUnits="userSpaceOnUse"
       id="linearGradient5338"
       inkscape:collect="always"
       x1="425.33801"
       x2="744.97534"
       xlink:href="#linearGradient5236"
       y1="274.04654"
       y2="274.04654" />
    <linearGradient
       gradientTransform="scale(0.929178,1.076220)"
       gradientUnits="userSpaceOnUse"
       id="linearGradient5340"
       inkscape:collect="always"
       x1="425.33801"
       x2="744.97534"
       xlink:href="#linearGradient5236"
       y1="274.04654"
       y2="274.04654" />
    <linearGradient
       gradientTransform="scale(0.929178,1.076220)"
       gradientUnits="userSpaceOnUse"
       id="linearGradient5342"
       inkscape:collect="always"
       x1="425.33801"
       x2="744.97534"
       xlink:href="#linearGradient5236"
       y1="274.04654"
       y2="274.04654" />
    <linearGradient
       gradientTransform="scale(0.929178,1.076220)"
       gradientUnits="userSpaceOnUse"
       id="linearGradient5344"
       inkscape:collect="always"
       x1="425.33801"
       x2="744.97534"
       xlink:href="#linearGradient5236"
       y1="274.04654"
       y2="274.04654" />
    <linearGradient
       gradientTransform="scale(0.929178,1.076220)"
       gradientUnits="userSpaceOnUse"
       id="linearGradient5346"
       inkscape:collect="always"
       x1="425.33801"
       x2="744.97534"
       xlink:href="#linearGradient5236"
       y1="274.04654"
       y2="274.04654" />
    <linearGradient
       gradientTransform="scale(0.929178,1.076220)"
       gradientUnits="userSpaceOnUse"
       id="linearGradient5348"
       inkscape:collect="always"
       x1="425.33801"
       x2="744.97534"
       xlink:href="#linearGradient5236"
       y1="274.04654"
       y2="274.04654" />
    <linearGradient
       gradientTransform="scale(0.929178,1.076220)"
       gradientUnits="userSpaceOnUse"
       id="linearGradient5350"
       inkscape:collect="always"
       x1="425.33801"
       x2="744.97534"
       xlink:href="#linearGradient5236"
       y1="274.04654"
       y2="274.04654" />
    <linearGradient
       gradientTransform="scale(0.929178,1.076220)"
       gradientUnits="userSpaceOnUse"
       id="linearGradient5352"
       inkscape:collect="always"
       x1="425.33801"
       x2="744.97534"
       xlink:href="#linearGradient5236"
       y1="274.04654"
       y2="274.04654" />
    <linearGradient
       gradientTransform="scale(0.929178,1.076220)"
       gradientUnits="userSpaceOnUse"
       id="linearGradient5354"
       inkscape:collect="always"
       x1="425.33801"
       x2="744.97534"
       xlink:href="#linearGradient5236"
       y1="274.04654"
       y2="274.04654" />
    <linearGradient
       gradientTransform="scale(0.929178,1.076220)"
       gradientUnits="userSpaceOnUse"
       id="linearGradient5356"
       inkscape:collect="always"
       x1="425.33801"
       x2="744.97534"
       xlink:href="#linearGradient5236"
       y1="274.04654"
       y2="274.04654" />
    <linearGradient
       gradientTransform="scale(0.929178,1.076220)"
       gradientUnits="userSpaceOnUse"
       id="linearGradient5358"
       inkscape:collect="always"
       x1="425.33801"
       x2="744.97534"
       xlink:href="#linearGradient5236"
       y1="274.04654"
       y2="274.04654" />
    <linearGradient
       gradientTransform="scale(0.929178,1.076220)"
       gradientUnits="userSpaceOnUse"
       id="linearGradient5360"
       inkscape:collect="always"
       x1="425.33801"
       x2="744.97534"
       xlink:href="#linearGradient5236"
       y1="274.04654"
       y2="274.04654" />
    <linearGradient
       gradientTransform="scale(0.929178,1.076220)"
       gradientUnits="userSpaceOnUse"
       id="linearGradient5362"
       inkscape:collect="always"
       x1="425.33801"
       x2="744.97534"
       xlink:href="#linearGradient5236"
       y1="274.04654"
       y2="274.04654" />
    <linearGradient
       gradientTransform="scale(0.929178,1.076220)"
       gradientUnits="userSpaceOnUse"
       id="linearGradient5364"
       inkscape:collect="always"
       x1="425.33801"
       x2="744.97534"
       xlink:href="#linearGradient5236"
       y1="274.04654"
       y2="274.04654" />
    <linearGradient
       gradientTransform="scale(0.929178,1.076220)"
       gradientUnits="userSpaceOnUse"
       id="linearGradient5366"
       inkscape:collect="always"
       x1="425.33801"
       x2="744.97534"
       xlink:href="#linearGradient5236"
       y1="274.04654"
       y2="274.04654" />
    <linearGradient
       gradientTransform="scale(0.929178,1.076220)"
       gradientUnits="userSpaceOnUse"
       id="linearGradient5368"
       inkscape:collect="always"
       x1="425.33801"
       x2="744.97534"
       xlink:href="#linearGradient5236"
       y1="274.04654"
       y2="274.04654" />
    <linearGradient
       gradientTransform="scale(0.929178,1.076220)"
       gradientUnits="userSpaceOnUse"
       id="linearGradient5370"
       inkscape:collect="always"
       x1="425.33801"
       x2="744.97534"
       xlink:href="#linearGradient5236"
       y1="274.04654"
       y2="274.04654" />
    <linearGradient
       gradientTransform="scale(0.929178,1.076220)"
       gradientUnits="userSpaceOnUse"
       id="linearGradient5372"
       inkscape:collect="always"
       x1="425.33801"
       x2="744.97534"
       xlink:href="#linearGradient5236"
       y1="274.04654"
       y2="274.04654" />
    <linearGradient
       gradientTransform="scale(0.929178,1.076220)"
       gradientUnits="userSpaceOnUse"
       id="linearGradient5374"
       inkscape:collect="always"
       x1="425.33801"
       x2="744.97534"
       xlink:href="#linearGradient5236"
       y1="274.04654"
       y2="274.04654" />
  </defs>
  <sodipodi:namedview
     bordercolor="#666666"
     borderopacity="1.0"
     id="base"
     inkscape:current-layer="layer1"
     inkscape:cx="357.7044"
     inkscape:cy="524.3314"
     inkscape:document-units="px"
     inkscape:guide-bbox="true"
     inkscape:pageopacity="0.0"
     inkscape:pageshadow="2"
     inkscape:window-height="857"
     inkscape:window-width="1151"
     inkscape:window-x="163"
     inkscape:window-y="10"
     inkscape:zoom="2.5125861"
     pagecolor="#ffffff"
     showguides="true" />
  <g
     id="layer1"
     inkscape:groupmode="layer"
     inkscape:label="Layer 1">
    <path
       d=""
       id="path2773"
       style="fill:#000000" />
    <path
       d=""
       id="path2771"
       style="fill:#000000" />
    <path
       d=""
       id="path2769"
       style="fill:#000000" />
    <path
       d=""
       id="path2767"
       style="fill:#000000" />
    <path
       d=""
       id="path2765"
       style="fill:#000000" />
    <path
       d=""
       id="path2763"
       style="fill:#000000" />
    <path
       d=""
       id="path2761"
       style="fill:#000000" />
    <path
       d=""
       id="path2759"
       style="fill:#000000" />
    <path
       d=""
       id="path2757"
       style="fill:#000000" />
    <path
       d=""
       id="path2755"
       style="fill:#520300" />
    <path
       d=""
       id="path2753"
       style="fill:#03503c" />
    <path
       d=""
       id="path2751"
       style="fill:#f8d16b" />
    <path
       d=""
       id="path2749"
       style="fill:#000000" />
    <path
       d=""
       id="path2747"
       style="fill:#d20200" />
    <path
       d=""
       id="path2745"
       style="fill:#004081" />
    <path
       d=""
       id="path2743"
       style="fill:#000003" />
    <path
       d=""
       id="path2741"
       style="fill:#000000" />
    <path
       d=""
       id="path2739"
       style="fill:#000000" />
    <path
       d=""
       id="path2737"
       style="fill:#000000" />
    <path
       d=""
       id="path2735"
       style="fill:#000000" />
    <path
       d=""
       id="path2733"
       style="fill:#000000" />
    <path
       d=""
       id="path2731"
       style="fill:#000001" />
    <path
       d=""
       id="path2727"
       style="fill:#ffffff" />
    <path
       d=""
       id="path2723"
       style="fill:#0000ff" />
    <path
       d=""
       id="path2721"
       style="fill:#000000" />
    <path
       d=""
       id="path2719"
       style="fill:#000000" />
    <path
       d=""
       id="path2717"
       style="fill:#b43102" />
    <path
       d=""
       id="path2715"
       style="fill:#000020" />
    <path
       d=""
       id="path2713"
       style="fill:#000000" />
    <path
       d=""
       id="path2711"
       style="fill:#003e00" />
    <path
       d=""
       id="path2709"
       style="fill:#062000" />
    <path
       d=""
       id="path2707"
       style="fill:#e20210" />
    <path
       d=""
       id="path2705"
       style="fill:#00e895" />
    <path
       d=""
       id="path2703"
       style="fill:#010000" />
    <path
       d=""
       id="path2701"
       style="fill:#0d3202" />
    <path
       d=""
       id="path2699"
       style="fill:#0c0528" />
    <path
       d=""
       id="path2697"
       style="fill:#005701" />
    <path
       d=""
       id="path2695"
       style="fill:#150008" />
    <path
       d=""
       id="path2693"
       style="fill:#000000" />
    <path
       d=""
       id="path2691"
       style="fill:#000000" />
    <path
       d=""
       id="path2689"
       style="fill:#000100" />
    <path
       d=""
       id="path2687"
       style="fill:#000000" />
    <path
       d=""
       id="path2685"
       style="fill:#000000" />
    <path
       d=""
       id="path2683"
       style="fill:#bf0300" />
    <path
       d=""
       id="path2681"
       style="fill:#00105b" />
    <path
       d=""
       id="path2679"
       style="fill:#400000" />
    <path
       d=""
       id="path2677"
       style="fill:#000000" />
    <path
       d=""
       id="path2675"
       style="fill:#000010" />
    <path
       d=""
       id="path2673"
       style="fill:#001000" />
    <path
       d=""
       id="path2671"
       style="fill:#080000" />
    <path
       d=""
       id="path2669"
       style="fill:#000000" />
    <path
       d=""
       id="path2667"
       style="fill:#000004" />
    <path
       d=""
       id="path2665"
       style="fill:#000000" />
    <path
       d=""
       id="path2663"
       style="fill:#000000" />
    <path
       d=""
       id="path2661"
       style="fill:#000000" />
    <path
       d=""
       id="path2659"
       style="fill:#4e0201" />
    <path
       d=""
       id="path2657"
       style="fill:#054876" />
    <path
       d=""
       id="path2655"
       style="fill:#af010c" />
    <path
       d=""
       id="path2653"
       style="fill:#000200" />
    <path
       d=""
       id="path2651"
       style="fill:#cc0108" />
    <path
       d=""
       id="path2649"
       style="fill:#0001cc" />
    <path
       d=""
       id="path2647"
       style="fill:#000000" />
    <g
       transform="matrix(0.366419,0,0,-0.366419,-188.346,700.7986)"
       id="g1466"
       style="fill:#ce2222;fill-opacity:1;stroke:none">
      <path
         d="M 1572.1228,1810.8608 C 1550.9898,1787.8066 1512.5659,1739.7768 1488.551,1703.2742 C 1453.9696,1650.4413 1444.3636,1627.387 1444.3636,1596.648 C 1444.3636,1556.3029 1501.9994,1379.5533 1537.5414,1308.4692 C 1566.3594,1251.794 1586.5318,1142.286 1593.256,1003.9602 C 1598.059,902.13707 1597.0984,881.00396 1585.5712,881.00396 C 1575.0046,881.00396 1571.1622,907.90064 1566.3594,1003.9602 C 1561.5564,1102.9016 1555.7928,1141.3254 1534.6597,1198.9612 C 1501.9994,1290.2179 1477.0238,1345.9324 1447.2454,1393.9622 C 1428.9941,1421.8194 1416.5879,1432.4676 1420.4303,1455.5219 C 1423.3121,1472.8127 1437.6835,1507.5153 1433.3664,1525.3579 C 1419.2735,1518.2184 1409.3019,1495.3051 1398.255,1484.2583 C 1389.6096,1475.6129 1386.7278,1482.3371 1386.7278,1515.9579 C 1386.7278,1557.2635 1354.0676,1629.3082 1341.5799,1616.8204 C 1337.7375,1612.978 1340.6193,1605.2934 1346.3828,1599.5298 C 1358.8706,1587.042 1362.713,1505.3914 1350.2252,1505.3914 C 1341.5799,1505.3914 1276.7385,1569.5454 1257.8207,1598.0691 C 1252.8657,1605.5401 1260.5815,1610.5872 1267.4509,1618.616 C 1278.3127,1631.311 1253.8329,1635.4045 1229.818,1629.6409 C 1206.7637,1624.8379 1193.648,1633.1506 1185.0026,1649.4807 C 1176.3574,1665.8109 1177.318,1674.4563 1189.8056,1693.6682 C 1205.1752,1717.683 1237.8355,1724.4072 1245.5203,1705.1954 C 1247.4415,1698.4712 1252.2444,1695.5894 1256.0868,1698.4712 C 1266.6534,1709.0377 1222.4659,1745.5403 1199.4116,1745.5403 C 1187.8844,1745.5403 1168.6726,1734.9738 1156.1848,1721.5254 L 1134.0911,1698.4712 L 1106.2338,1721.5254 C 1069.7312,1752.2645 1021.7014,1754.1857 1021.7014,1725.3678 C 1021.7014,1713.8406 1035.1497,1692.7076 1050.5193,1678.2986 C 1085.1008,1646.5989 1085.1008,1645.6383 1059.1646,1619.7022 C 1018.8196,1579.3573 1064.9282,1504.4308 1121.6033,1518.8396 C 1154.2636,1526.5244 1154.2636,1542.8546 1121.6033,1540.9334 C 1085.1008,1538.0516 1069.7312,1565.9089 1092.7854,1590.8844 C 1116.8004,1616.8204 1138.8941,1623.5446 1169.6332,1612.0175 C 1187.8844,1604.3328 1194.6086,1594.7268 1194.6086,1577.4361 C 1194.6086,1553.4211 1208.057,1545.7364 1218.6235,1563.0271 C 1221.5053,1568.7907 1228.2295,1572.6331 1232.0719,1572.6331 C 1241.6779,1572.6331 1326.0032,1483.6678 1326.0032,1475.983 C 1326.0032,1466.377 1248.402,1466.9675 1218.6235,1466.9675 C 1205.1752,1466.9675 1194.6086,1463.1251 1194.6086,1457.3615 C 1194.6086,1442.9526 1229.1901,1428.5436 1265.6928,1428.5436 C 1299.3136,1428.5436 1310.8408,1417.0166 1290.6682,1404.5288 C 1285.8652,1401.647 1281.0622,1385.2728 1281.0622,1379.5092 C 1281.0622,1373.7457 1298.5982,1387.4569 1312.4733,1394.0878 C 1325.1622,1400.1517 1336.2371,1411.8699 1352.327,1411.5097 C 1368.417,1411.1494 1374.2401,1402.1273 1392.4914,1391.0804 C 1428.0335,1368.9867 1492.3934,1248.9122 1516.4083,1159.5768 C 1532.7385,1098.0987 1549.0686,880.04336 1536.5809,891.57051 C 1532.7385,895.4129 1521.2113,944.40329 1511.6053,1000.1179 C 1489.5116,1120.1924 1452.0484,1196.0794 1380.0036,1267.1635 C 1280.1017,1365.1443 1147.5395,1376.6715 1059.1646,1296.942 C 1014.0166,1255.6364 997.68648,1226.8185 988.08049,1173.0251 C 974.63215,1090.4139 1044.7557,988.59071 1129.2881,967.4576 C 1230.1507,942.48211 1265.6928,925.19137 1275.2988,897.33409 C 1283.944,873.31919 1282.0228,867.55561 1261.8504,851.22548 C 1227.2689,825.28939 1220.5447,828.17118 1199.4116,876.20098 C 1176.3574,928.07316 1160.9878,927.11256 1161.9484,872.35859 C 1162.909,832.01356 1158.106,825.28939 1139.8547,843.54071 C 1132.1699,851.22548 1118.7216,850.26488 1089.9036,836.81655 C 1068.7706,826.24999 1050.5193,815.68343 1050.5193,812.80164 C 1050.5193,807.99866 1078.5903,790.4017 1093.3594,787.03962 C 1108.1286,783.67753 1117.6561,775.02347 1138.9381,788.03324 C 1169.9491,806.99037 1161.9264,788.78674 1163.0346,761.13656 C 1164.0993,734.57078 1160.9878,734.03277 1169.6332,722.50562 C 1182.121,705.21489 1184.0421,706.17548 1198.451,740.75694 C 1207.0964,760.92946 1213.8206,783.02316 1213.8206,788.78674 C 1213.8206,794.55032 1235.9143,808.95926 1261.8504,821.447 C 1368.4766,870.4374 1359.8312,928.07316 1233.9931,1008.7632 C 1212.86,1022.2116 1196.5298,1044.0824 1187.8844,1068.0973 C 1182.121,1085.8683 1182.928,1094.9767 1184.3688,1104.1023 C 1185.8098,1113.228 1187.8844,1122.3709 1199.4116,1137.2602 C 1265.6928,1223.7138 1373.2796,1162.4586 1452.0484,993.39369 C 1495.2752,902.13707 1493.354,875.24039 1440.5212,856.98906 C 1425.1517,851.22548 1407.861,839.69833 1402.0974,830.09237 C 1385.7672,803.19568 1425.1517,775.3384 1478.945,775.3384 C 1501.9994,775.3384 1521.2113,773.4172 1521.2113,770.53542 C 1521.2113,767.65363 1513.5265,753.24469 1504.8811,739.79635 C 1489.5116,715.78144 1383.846,660.06688 1355.0282,660.06688 C 1319.4861,660.06688 1216.7023,539.03178 1235.9143,519.81986 C 1245.5203,509.2533 1302.1954,546.71655 1317.5649,574.57383 C 1327.1709,589.94336 1339.6587,602.43112 1346.3828,602.43112 C 1354.0676,602.43112 1349.2646,588.02218 1333.8951,564.00727 C 1320.4467,542.87416 1314.6831,525.58343 1320.4467,525.58343 C 1335.8163,525.58343 1386.7278,564.00727 1386.7278,574.57383 C 1386.7278,587.06158 1436.6789,652.38211 1441.4818,646.61853 C 1444.3636,644.69734 1438.6001,631.249 1428.9941,617.80065 C 1420.3487,603.39171 1415.5457,589.94336 1418.4275,587.06158 C 1428.9941,575.53443 1482.7874,626.44602 1488.551,653.34271 C 1495.2752,681.19999 1506.8023,686.96356 1514.4871,667.75164 C 1521.2113,648.53972 1552.911,671.59403 1564.4382,704.25429 C 1575.9652,741.71753 1578.847,743.63873 1588.453,727.3086 C 1605.7437,699.45131 1539.4626,620.68244 1453.9696,568.81025 C 1412.6639,543.83476 1368.4766,500.60794 1367.516,485.2384 C 1366.5554,466.02648 1430.9153,487.15959 1452.0484,512.13509 L 1475.1026,539.99238 L 1470.2998,494.84436 C 1468.3786,469.86887 1469.3392,451.61754 1474.142,454.49933 C 1478.945,457.38112 1482.7874,466.98708 1482.7874,475.63244 C 1482.7874,492.92317 1587.4924,596.66754 1596.1378,588.02218 C 1599.9802,585.14039 1597.0984,574.57383 1590.3742,565.92847 C 1569.241,537.11059 1532.7385,454.49933 1526.9749,421.83907 C 1522.1719,393.02119 1523.1325,391.09999 1541.3838,401.66655 C 1551.9504,407.43012 1562.517,410.31191 1563.4776,408.39072 C 1564.4382,406.46952 1574.044,385.33642 1586.5318,360.36092 C 1598.059,334.42483 1611.5073,314.25231 1617.2709,314.25231 C 1623.0345,314.25231 1636.4828,334.42483 1648.01,360.36092 C 1660.4978,385.33642 1670.1036,406.46952 1671.0642,408.39072 C 1672.0248,410.31191 1682.5914,407.43012 1693.158,401.66655 C 1711.4093,391.09999 1712.3699,393.02119 1707.5669,421.83907 C 1701.8033,454.49933 1665.3007,537.11059 1644.1676,565.92847 C 1637.4434,574.57383 1634.5616,585.14039 1638.404,588.02218 C 1647.0494,596.66754 1751.7544,492.92317 1751.7544,475.63244 C 1751.7544,466.98708 1755.5968,457.38112 1760.3998,454.49933 C 1765.2026,451.61754 1766.1632,469.86887 1764.242,494.84436 L 1759.4392,539.99238 L 1782.4934,512.13509 C 1803.6265,487.15959 1867.9864,466.02648 1867.0258,485.2384 C 1866.0652,500.60794 1821.8779,543.83476 1780.5722,568.81025 C 1695.0792,620.68244 1628.7981,699.45131 1646.0888,727.3086 C 1655.6948,743.63873 1658.5766,741.71753 1670.1036,704.25429 C 1681.6308,671.59403 1713.3305,648.53972 1720.0547,667.75164 C 1727.7395,686.96356 1739.2666,681.19999 1745.9908,653.34271 C 1751.7544,626.44602 1805.5477,575.53443 1816.1143,587.06158 C 1818.9961,589.94336 1814.1931,603.39171 1805.5477,617.80065 C 1795.9417,631.249 1790.1782,644.69734 1793.06,646.61853 C 1797.8629,652.38211 1847.814,587.06158 1847.814,574.57383 C 1847.814,564.00727 1898.7255,525.58343 1914.0951,525.58343 C 1919.8587,525.58343 1914.0951,542.87416 1900.6467,564.00727 C 1885.2772,588.02218 1880.4742,602.43112 1888.159,602.43112 C 1894.8831,602.43112 1907.3709,589.94336 1916.9769,574.57383 C 1932.3464,546.71655 1989.0215,509.2533 1998.6275,519.81986 C 2017.8395,539.03178 1915.0557,660.06688 1879.5136,660.06688 C 1850.6958,660.06688 1745.0302,715.78144 1729.6606,739.79635 C 1721.0153,753.24469 1713.3305,767.65363 1713.3305,770.53542 C 1713.3305,773.4172 1732.5424,775.3384 1755.5968,775.3384 C 1809.3901,775.3384 1848.7746,803.19568 1832.4444,830.09237 C 1826.6808,839.69833 1809.3901,851.22548 1794.0205,856.98906 C 1741.1878,875.24039 1739.2666,902.13707 1782.4934,993.39369 C 1861.2622,1162.4586 1968.849,1222.9762 2035.1302,1136.5224 C 2046.6574,1121.6333 2049.4698,1113.228 2050.9107,1104.1023 C 2052.3515,1094.9767 2052.4208,1085.1305 2046.6574,1067.3595 C 2038.012,1043.3446 2021.6818,1022.2116 2000.5487,1008.7632 C 1874.7106,928.07316 1866.0652,870.4374 1972.6914,821.447 C 1998.6275,808.95926 2020.7212,794.55032 2020.7212,788.78674 C 2020.7212,783.02316 2027.4454,760.92946 2036.0908,740.75694 C 2050.4997,706.17548 2052.4208,705.21489 2064.9086,722.50562 C 2073.554,734.03277 2075.3496,746.97879 2071.5072,763.30892 C 2065.618,787.07265 2072.0095,804.32592 2101.0346,788.03325 C 2119.044,777.92397 2130.7579,792.36695 2145.5271,795.72903 C 2160.2962,799.09112 2184.0225,807.99866 2184.0225,812.80164 C 2184.0225,815.68343 2165.7712,826.24999 2144.6382,836.81655 C 2115.8202,850.26488 2102.3719,851.22548 2094.6871,843.54071 C 2076.4358,825.28939 2071.6328,832.01356 2072.5934,872.35859 C 2073.554,927.11256 2058.1844,928.07316 2035.1302,876.20098 C 2013.9971,828.17118 2007.2729,825.28939 1972.6914,851.22548 C 1952.519,867.55561 1950.5978,873.31919 1959.243,897.33409 C 1968.849,925.19137 2004.3911,942.48211 2105.2537,967.4576 C 2189.7861,988.59071 2259.9096,1090.4139 2246.4612,1173.0251 C 2236.8554,1226.8185 2220.5252,1255.6364 2175.3772,1296.942 C 2087.0023,1376.6715 1954.4401,1365.1443 1854.5382,1267.1635 C 1782.4934,1196.0794 1745.0302,1120.1924 1722.9365,1000.1179 C 1713.3305,944.40329 1701.8033,895.4129 1697.9609,891.57051 C 1685.4732,880.04336 1701.8033,1098.0987 1718.1335,1159.5768 C 1742.1484,1248.9122 1806.5083,1370.0729 1842.0504,1392.1666 C 1860.3017,1403.2135 1871.5556,1408.977 1887.6456,1409.3373 C 1903.7356,1409.6975 1900.7657,1410.0853 1915.5515,1399.5187 C 1928.416,1393.0457 1953.4795,1382.4351 1953.4795,1388.1986 C 1953.4795,1393.9622 1949.6372,1401.647 1943.8736,1404.5288 C 1923.701,1417.0166 1935.2282,1428.5436 1968.849,1428.5436 C 2005.3517,1428.5436 2039.9332,1442.9526 2039.9332,1457.3615 C 2039.9332,1463.1251 2029.3666,1466.9675 2015.9183,1466.9675 C 1986.1398,1466.9675 1909.6248,1467.4632 1909.6248,1477.0692 C 1909.6248,1484.754 1992.8639,1572.6331 2002.4699,1572.6331 C 2006.3123,1572.6331 2013.0365,1568.7907 2015.9183,1563.0271 C 2026.4848,1545.7364 2039.9332,1553.4211 2039.9332,1577.4361 C 2039.9332,1594.7268 2046.6574,1604.3328 2064.9086,1612.0175 C 2095.6477,1623.5446 2117.7414,1616.8204 2141.7564,1590.8844 C 2164.8106,1565.9089 2149.441,1538.0516 2112.9385,1540.9334 C 2080.2782,1542.8546 2080.2782,1526.5244 2112.9385,1518.8396 C 2169.6136,1504.4308 2215.7222,1579.3573 2175.3772,1619.7022 C 2149.441,1645.6383 2149.441,1646.5989 2184.0225,1678.2986 C 2200.3527,1692.7076 2212.8404,1713.8406 2212.8404,1725.3678 C 2212.8404,1754.1857 2164.8106,1752.2645 2128.308,1721.5254 L 2100.4507,1698.4712 L 2078.357,1721.5254 C 2065.8692,1734.9738 2046.6574,1745.5403 2035.1302,1745.5403 C 2012.0759,1745.5403 1967.8884,1709.0377 1978.455,1698.4712 C 1982.2974,1695.5894 1987.1003,1698.4712 1989.0215,1705.1954 C 1996.7063,1724.4072 2029.3666,1717.683 2044.7362,1693.6682 C 2057.2238,1674.4563 2058.1844,1665.8109 2049.5391,1649.4807 C 2040.8938,1633.1506 2029.9505,1625.9241 2006.8962,1630.7271 C 1981.9207,1636.4907 1969.4071,1639.2952 1974.6942,1619.8278 C 1979.0389,1603.8304 1983.5769,1604.8196 1971.7132,1591.0717 C 1949.7658,1565.6384 1892.4816,1506.4776 1883.356,1506.4776 C 1871.8288,1506.4776 1875.6712,1587.042 1888.159,1599.5298 C 1893.9225,1605.2934 1896.8043,1612.978 1892.9619,1616.8204 C 1880.4742,1629.3082 1847.814,1557.2635 1847.814,1515.9579 C 1847.814,1482.3371 1844.9322,1475.6129 1836.2868,1484.2583 C 1825.24,1495.3051 1805.4927,1516.0461 1794.6584,1515.5823 C 1790.3412,1504.2568 1811.2297,1474.985 1814.1115,1457.6942 C 1817.9539,1434.6399 1805.5477,1421.8194 1787.2964,1393.9622 C 1757.518,1345.9324 1732.5424,1290.2179 1699.8821,1198.9612 C 1678.749,1141.3254 1672.9854,1102.9016 1668.1824,1003.9602 C 1663.3796,907.90064 1659.5372,881.00396 1648.9706,881.00396 C 1637.4434,881.00396 1636.4828,902.13707 1641.2858,1003.9602 C 1648.01,1142.286 1668.1824,1251.794 1697.0004,1308.4692 C 1732.5424,1379.5533 1790.1782,1556.3029 1790.1782,1596.648 C 1790.1782,1627.387 1780.5722,1650.4413 1745.9908,1703.2742 C 1704.6851,1764.7523 1629.7587,1851.2059 1617.2709,1851.2059 C 1614.3891,1851.2059 1594.2166,1832.9546 1572.1228,1810.8608 z "
         id="path1468"
         style="fill:#ce2222;fill-opacity:1"
         sodipodi:nodetypes="ccsccscccscssssssscscccscccscsccccscssssscsssccccccccccccscssszccscccsccccsscsccscssccccccccccccssccccscscsccccssccccccccccccsscsccscssccccscccscccssscsccccccccccccscscssssscsccccscscccscccscssssssscscccsccscsc" />
    </g>
  </g>
</svg>
