<?xml version="1.0" encoding="UTF-8" standalone="no"?>
<svg
   xmlns:dc="http://purl.org/dc/elements/1.1/"
   xmlns:cc="http://web.resource.org/cc/"
   xmlns:rdf="http://www.w3.org/1999/02/22-rdf-syntax-ns#"
   xmlns:svg="http://www.w3.org/2000/svg"
   xmlns="http://www.w3.org/2000/svg"
   xmlns:sodipodi="http://inkscape.sourceforge.net/DTD/sodipodi-0.dtd"
   xmlns:inkscape="http://www.inkscape.org/namespaces/inkscape"
   viewBox="0 0 326.0 217.0"
   id="svg2"
   sodipodi:version="0.32"
   inkscape:version="0.42"
   width="210mm"
   height="140mm"
   sodipodi:docname="martinique.svg"
   sodipodi:docbase="svg-source">
  <metadata
     id="metadata19">
    <rdf:RDF>
      <cc:Work
         rdf:about="">
        <dc:format>image/svg+xml</dc:format>
        <dc:type
           rdf:resource="http://purl.org/dc/dcmitype/StillImage" />
      </cc:Work>
    </rdf:RDF>
  </metadata>
  <defs
     id="defs17" />
  <sodipodi:namedview
     inkscape:cy="389.46210"
     inkscape:cx="494.01772"
     inkscape:zoom="0.86831672"
     inkscape:window-height="1012"
     inkscape:window-width="1412"
     inkscape:pageshadow="2"
     inkscape:pageopacity="0.0"
     borderopacity="1.0"
     bordercolor="#666666"
     pagecolor="#ffffff"
     id="base"
     inkscape:window-x="17"
     inkscape:window-y="52"
     inkscape:current-layer="svg2" />
  <g
     id="g2058"
     transform="translate(0.482917,-0.211666)">
    <rect
       y="0.32216886"
       x="0.25227910"
       height="216.25700"
       width="325.68494"
       id="rect2049"
       style="opacity:1.0000000;fill:#21428e;fill-opacity:1.0000000;stroke:none;stroke-width:0.37500000;stroke-linecap:butt;stroke-linejoin:bevel;stroke-miterlimit:4.0000000;stroke-dasharray:none;stroke-opacity:1.0000000" />
    <path
       sodipodi:nodetypes="ccccccccccccc"
       d="M 148.00000,93.000000 L 0.0000000,93.000000 L 0.0000000,124.00000 L 148.00000,124.00000 L 148.00000,217.00000 L 178.00000,217.00000 L 178.00000,124.00000 L 326.00000,124.00000 L 326.00000,93.000000 L 178.00000,93.000000 L 178.00000,-1.1368684e-13 L 148.00000,-1.1368684e-13 L 148.00000,93.000000 z "
       id="path6"
       style="fill:#ffffff;fill-opacity:1.0000000;stroke:#21428e;stroke-width:0.075626716;stroke-miterlimit:4.0000000;stroke-dasharray:none;stroke-opacity:1.0000000" />
    <path
       d="M 62.300000,11.900000 C 59.900000,13.000000 58.000000,14.600000 58.000000,15.400000 C 58.000000,16.300000 59.411791,16.318170 57.640524,16.885750 C 55.869257,17.453330 51.340651,18.349590 48.084651,18.151860 C 47.009953,18.156420 44.426501,17.454140 43.677627,17.548140 C 42.928754,17.642130 47.067628,19.331110 45.467628,18.931110 C 43.267628,18.331110 42.006232,18.110370 43.706232,19.210370 C 45.006232,20.010370 47.874279,20.047300 51.974279,19.547300 C 53.624279,19.347300 57.767144,18.353440 59.289396,18.226820 C 60.341373,18.139320 60.260372,18.950000 60.910372,19.000000 C 66.310372,19.300000 75.900000,19.100000 80.100000,18.500000 C 83.600000,18.000000 84.900000,18.200000 85.900000,19.400000 C 87.900000,21.700000 85.800000,23.700000 80.100000,24.900000 C 73.100000,26.400000 70.200000,27.700000 67.500000,30.600000 C 61.000000,37.600000 68.600000,45.500000 82.800000,46.600000 C 91.100000,47.300000 96.500000,48.900000 95.200000,50.200000 C 94.700000,50.700000 89.200000,51.500000 82.900000,52.000000 C 69.200000,53.100000 63.100000,55.000000 57.900000,60.000000 C 55.000000,62.800000 54.000000,64.500000 54.000000,66.800000 C 54.000000,70.000000 54.000000,70.000000 48.700000,70.000000 C 45.900000,70.000000 42.000000,69.600000 40.200000,69.000000 C 37.400000,68.300000 37.000000,68.300000 38.000000,69.500000 C 40.000000,71.900000 45.700000,74.000000 50.400000,74.000000 C 54.000000,74.000000 56.000000,74.700000 59.200000,77.000000 C 65.600000,81.700000 72.900000,83.500000 85.000000,83.400000 C 100.90000,83.300000 110.00000,79.100000 110.00000,72.000000 C 110.00000,66.700000 104.00000,63.600000 91.500000,62.500000 C 85.200000,61.900000 72.800000,62.900000 67.400000,64.500000 C 66.400000,64.800000 67.500000,64.100000 69.900000,62.900000 C 72.800000,61.500000 77.600000,60.500000 84.100000,59.900000 C 98.500000,58.700000 105.00000,55.500000 105.00000,49.500000 C 105.00000,43.700000 98.600000,40.400000 84.900000,39.100000 C 71.400000,37.900000 70.400000,35.500000 81.800000,32.000000 C 89.900000,29.600000 94.000000,26.000000 94.000000,21.100000 C 94.000000,13.600000 89.900000,11.100000 76.200000,10.400000 C 67.900000,10.000000 65.900000,10.200000 62.300000,11.900000 z M 69.500000,14.000000 C 69.200000,14.500000 68.400000,15.000000 67.900000,15.000000 C 67.300000,15.000000 67.200000,14.500000 67.500000,14.000000 C 67.800000,13.400000 68.600000,13.000000 69.100000,13.000000 C 69.700000,13.000000 69.800000,13.400000 69.500000,14.000000 z M 98.400000,70.000000 C 100.30000,70.700000 101.00000,71.400000 100.40000,72.000000 C 98.700000,73.700000 87.700000,75.200000 81.000000,74.700000 C 73.600000,74.000000 65.600000,71.600000 68.000000,70.600000 C 74.700000,68.000000 92.300000,67.700000 98.400000,70.000000 z "
       id="path8"
       sodipodi:nodetypes="cssczcccscsccccsccsscssccsccccsccscccscsccsccc"
       style="fill:#ffffff;fill-opacity:1.0000000;stroke:none" />
    <path
       d="M 241.08000,11.974930 C 238.68000,13.074930 236.78000,14.674930 236.78000,15.474930 C 236.78000,16.374930 238.19180,16.393100 236.42053,16.960680 C 234.64926,17.528260 230.12066,18.424520 226.86466,18.226790 C 225.78996,18.231350 223.20651,17.529070 222.45763,17.623070 C 221.70876,17.717060 225.84763,19.406040 224.24763,19.006040 C 222.04763,18.406040 220.78624,18.185300 222.48624,19.285300 C 223.78624,20.085300 226.65428,20.122230 230.75428,19.622230 C 232.40428,19.422230 236.54715,18.428370 238.06940,18.301750 C 239.12138,18.214250 239.04038,19.024930 239.69038,19.074930 C 245.09038,19.374930 254.68000,19.174930 258.88000,18.574930 C 262.38000,18.074930 263.68000,18.274930 264.68000,19.474930 C 266.68000,21.774930 264.58000,23.774930 258.88000,24.974930 C 251.88000,26.474930 248.98000,27.774930 246.28000,30.674930 C 239.78000,37.674930 247.38000,45.574930 261.58000,46.674930 C 269.88000,47.374930 275.28000,48.974930 273.98000,50.274930 C 273.48000,50.774930 267.98000,51.574930 261.68000,52.074930 C 247.98000,53.174930 241.88000,55.074930 236.68000,60.074930 C 233.78000,62.874930 232.78000,64.574930 232.78000,66.874930 C 232.78000,70.074930 232.78000,70.074930 227.48000,70.074930 C 224.68000,70.074930 220.78000,69.674930 218.98000,69.074930 C 216.18000,68.374930 215.78000,68.374930 216.78000,69.574930 C 218.78000,71.974930 224.48000,74.074930 229.18000,74.074930 C 232.78000,74.074930 234.78000,74.774930 237.98000,77.074930 C 244.38000,81.774930 251.68000,83.574930 263.78000,83.474930 C 279.68000,83.374930 288.78000,79.174930 288.78000,72.074930 C 288.78000,66.774930 282.78000,63.674930 270.28000,62.574930 C 263.98000,61.974930 251.58000,62.974930 246.18000,64.574930 C 245.18000,64.874930 246.28000,64.174930 248.68000,62.974930 C 251.58000,61.574930 256.38000,60.574930 262.88000,59.974930 C 277.28000,58.774930 283.78000,55.574930 283.78000,49.574930 C 283.78000,43.774930 277.38000,40.474930 263.68000,39.174930 C 250.18000,37.974930 249.18000,35.574930 260.58000,32.074930 C 268.68000,29.674930 272.78000,26.074930 272.78000,21.174930 C 272.78000,13.674930 268.68000,11.174930 254.98000,10.474930 C 246.68000,10.074930 244.68000,10.274930 241.08000,11.974930 z M 248.28000,14.074930 C 247.98000,14.574930 247.18000,15.074930 246.68000,15.074930 C 246.08000,15.074930 245.98000,14.574930 246.28000,14.074930 C 246.58000,13.474930 247.38000,13.074930 247.88000,13.074930 C 248.48000,13.074930 248.58000,13.474930 248.28000,14.074930 z M 277.18000,70.074930 C 279.08000,70.774930 279.78000,71.474930 279.18000,72.074930 C 277.48000,73.774930 266.48000,75.274930 259.78000,74.774930 C 252.38000,74.074930 244.38000,71.674930 246.78000,70.674930 C 253.48000,68.074930 271.08000,67.774930 277.18000,70.074930 z "
       id="path2051"
       sodipodi:nodetypes="cssczcccscsccccsccsscssccsccccsccscccscsccsccc"
       style="fill:#ffffff;fill-opacity:1.0000000;stroke:none" />
    <path
       d="M 62.718646,135.33943 C 60.318646,136.43943 58.418646,138.03943 58.418646,138.83943 C 58.418646,139.73943 59.830437,139.75760 58.059170,140.32518 C 56.287903,140.89276 51.759297,141.78902 48.503297,141.59129 C 47.428599,141.59585 44.845147,140.89357 44.096273,140.98757 C 43.347400,141.08156 47.486274,142.77054 45.886274,142.37054 C 43.686274,141.77054 42.424878,141.54980 44.124878,142.64980 C 45.424878,143.44980 48.292925,143.48673 52.392925,142.98673 C 54.042925,142.78673 58.185790,141.79287 59.708042,141.66625 C 60.760019,141.57875 60.679018,142.38943 61.329018,142.43943 C 66.729018,142.73943 76.318646,142.53943 80.518646,141.93943 C 84.018646,141.43943 85.318646,141.63943 86.318646,142.83943 C 88.318646,145.13943 86.218646,147.13943 80.518646,148.33943 C 73.518646,149.83943 70.618646,151.13943 67.918646,154.03943 C 61.418646,161.03943 69.018646,168.93943 83.218646,170.03943 C 91.518646,170.73943 96.918646,172.33943 95.618646,173.63943 C 95.118646,174.13943 89.618646,174.93943 83.318646,175.43943 C 69.618646,176.53943 63.518646,178.43943 58.318646,183.43943 C 55.418646,186.23943 54.418646,187.93943 54.418646,190.23943 C 54.418646,193.43943 54.418646,193.43943 49.118646,193.43943 C 46.318646,193.43943 42.418646,193.03943 40.618646,192.43943 C 37.818646,191.73943 37.418646,191.73943 38.418646,192.93943 C 40.418646,195.33943 46.118646,197.43943 50.818646,197.43943 C 54.418646,197.43943 56.418646,198.13943 59.618646,200.43943 C 66.018646,205.13943 73.318646,206.93943 85.418646,206.83943 C 101.31865,206.73943 110.41865,202.53943 110.41865,195.43943 C 110.41865,190.13943 104.41865,187.03943 91.918646,185.93943 C 85.618646,185.33943 73.218646,186.33943 67.818646,187.93943 C 66.818646,188.23943 67.918646,187.53943 70.318646,186.33943 C 73.218646,184.93943 78.018646,183.93943 84.518646,183.33943 C 98.918646,182.13943 105.41865,178.93943 105.41865,172.93943 C 105.41865,167.13943 99.018646,163.83943 85.318646,162.53943 C 71.818646,161.33943 70.818646,158.93943 82.218646,155.43943 C 90.318646,153.03943 94.418646,149.43943 94.418646,144.53943 C 94.418646,137.03943 90.318646,134.53943 76.618646,133.83943 C 68.318646,133.43943 66.318646,133.63943 62.718646,135.33943 z M 69.918646,137.43943 C 69.618646,137.93943 68.818646,138.43943 68.318646,138.43943 C 67.718646,138.43943 67.618646,137.93943 67.918646,137.43943 C 68.218646,136.83943 69.018646,136.43943 69.518646,136.43943 C 70.118646,136.43943 70.218646,136.83943 69.918646,137.43943 z M 98.818646,193.43943 C 100.71865,194.13943 101.41865,194.83943 100.81865,195.43943 C 99.118646,197.13943 88.118646,198.63943 81.418646,198.13943 C 74.018646,197.43943 66.018646,195.03943 68.418646,194.03943 C 75.118646,191.43943 92.718646,191.13943 98.818646,193.43943 z "
       id="path2053"
       sodipodi:nodetypes="cssczcccscsccccsccsscssccsccccsccscccscsccsccc"
       style="fill:#ffffff;fill-opacity:1.0000000;stroke:none" />
    <path
       d="M 241.08000,135.33943 C 238.68000,136.43943 236.78000,138.03943 236.78000,138.83943 C 236.78000,139.73943 238.19180,139.75760 236.42053,140.32518 C 234.64926,140.89276 230.12066,141.78902 226.86466,141.59129 C 225.78996,141.59585 223.20651,140.89357 222.45763,140.98757 C 221.70876,141.08156 225.84763,142.77054 224.24763,142.37054 C 222.04763,141.77054 220.78624,141.54980 222.48624,142.64980 C 223.78624,143.44980 226.65428,143.48673 230.75428,142.98673 C 232.40428,142.78673 236.54715,141.79287 238.06940,141.66625 C 239.12138,141.57875 239.04038,142.38943 239.69038,142.43943 C 245.09038,142.73943 254.68000,142.53943 258.88000,141.93943 C 262.38000,141.43943 263.68000,141.63943 264.68000,142.83943 C 266.68000,145.13943 264.58000,147.13943 258.88000,148.33943 C 251.88000,149.83943 248.98000,151.13943 246.28000,154.03943 C 239.78000,161.03943 247.38000,168.93943 261.58000,170.03943 C 269.88000,170.73943 275.28000,172.33943 273.98000,173.63943 C 273.48000,174.13943 267.98000,174.93943 261.68000,175.43943 C 247.98000,176.53943 241.88000,178.43943 236.68000,183.43943 C 233.78000,186.23943 232.78000,187.93943 232.78000,190.23943 C 232.78000,193.43943 232.78000,193.43943 227.48000,193.43943 C 224.68000,193.43943 220.78000,193.03943 218.98000,192.43943 C 216.18000,191.73943 215.78000,191.73943 216.78000,192.93943 C 218.78000,195.33943 224.48000,197.43943 229.18000,197.43943 C 232.78000,197.43943 234.78000,198.13943 237.98000,200.43943 C 244.38000,205.13943 251.68000,206.93943 263.78000,206.83943 C 279.68000,206.73943 288.78000,202.53943 288.78000,195.43943 C 288.78000,190.13943 282.78000,187.03943 270.28000,185.93943 C 263.98000,185.33943 251.58000,186.33943 246.18000,187.93943 C 245.18000,188.23943 246.28000,187.53943 248.68000,186.33943 C 251.58000,184.93943 256.38000,183.93943 262.88000,183.33943 C 277.28000,182.13943 283.78000,178.93943 283.78000,172.93943 C 283.78000,167.13943 277.38000,163.83943 263.68000,162.53943 C 250.18000,161.33943 249.18000,158.93943 260.58000,155.43943 C 268.68000,153.03943 272.78000,149.43943 272.78000,144.53943 C 272.78000,137.03943 268.68000,134.53943 254.98000,133.83943 C 246.68000,133.43943 244.68000,133.63943 241.08000,135.33943 z M 248.28000,137.43943 C 247.98000,137.93943 247.18000,138.43943 246.68000,138.43943 C 246.08000,138.43943 245.98000,137.93943 246.28000,137.43943 C 246.58000,136.83943 247.38000,136.43943 247.88000,136.43943 C 248.48000,136.43943 248.58000,136.83943 248.28000,137.43943 z M 277.18000,193.43943 C 279.08000,194.13943 279.78000,194.83943 279.18000,195.43943 C 277.48000,197.13943 266.48000,198.63943 259.78000,198.13943 C 252.38000,197.43943 244.38000,195.03943 246.78000,194.03943 C 253.48000,191.43943 271.08000,191.13943 277.18000,193.43943 z "
       id="path2055"
       sodipodi:nodetypes="cssczcccscsccccsccsscssccsccccsccscccscsccsccc"
       style="fill:#ffffff;fill-opacity:1.0000000;stroke:none" />
  </g>
</svg>
