<?xml version="1.0" encoding="UTF-8" standalone="no"?>
<!-- Created with Inkscape (http://www.inkscape.org/) -->
<svg
   xmlns:svg="http://www.w3.org/2000/svg"
   xmlns="http://www.w3.org/2000/svg"
   version="1.0"
   x="0.00000000"
   y="0.00000000"
   width="600.00000"
   height="300.00000"
   id="svg4474">
  <defs
     id="defs4477" />
  <g
     transform="translate(0.000000,-752.3622)"
     id="g13260">
    <rect
       width="600.00000"
       height="180.00000"
       x="0.00000000"
       y="752.36218"
       style="fill:#0000fd;fill-opacity:1.0000000;stroke:none;stroke-opacity:1.0000000"
       id="rect5983" />
    <path
       d="M 81.672030,802.52293 L 68.498490,794.24608 L 56.438515,803.81337 L 60.239425,788.72690 L 47.413652,780.21364 L 62.936284,779.16654 L 67.069495,764.33776 L 72.862099,778.77709 L 88.242337,778.12567 L 76.299732,788.09676 L 81.672030,802.52293 z "
       transform="matrix(1.057136,5.365900e-2,-5.365900e-2,1.057136,59.62205,49.80445)"
       style="opacity:1.0000000;fill:#fdfd00;fill-opacity:1.0000000;stroke:none;stroke-opacity:1.0000000"
       id="path10354" />
    <path
       d="M 81.672030,802.52293 L 68.498490,794.24608 L 56.438515,803.81337 L 60.239425,788.72690 L 47.413652,780.21364 L 62.936284,779.16654 L 67.069495,764.33776 L 72.862099,778.77709 L 88.242337,778.12567 L 76.299732,788.09676 L 81.672030,802.52293 z "
       transform="matrix(1.057136,5.365900e-2,-5.365900e-2,1.057136,136.0221,4.004451)"
       style="opacity:1.0000000;fill:#fdfd00;fill-opacity:1.0000000;stroke:none;stroke-opacity:1.0000000"
       id="path10352" />
    <path
       d="M 81.672030,802.52293 L 68.498490,794.24608 L 56.438515,803.81337 L 60.239425,788.72690 L 47.413652,780.21364 L 62.936284,779.16654 L 67.069495,764.33776 L 72.862099,778.77709 L 88.242337,778.12567 L 76.299732,788.09676 L 81.672030,802.52293 z "
       transform="matrix(1.057136,5.365900e-2,-5.365900e-2,1.057136,59.66205,-40.45555)"
       style="opacity:1.0000000;fill:#fdfd00;fill-opacity:1.0000000;stroke:none;stroke-opacity:1.0000000"
       id="path8170" />
    <rect
       width="600.00000"
       height="60.000000"
       x="0.00000000"
       y="992.36218"
       style="fill:#fe0000;fill-opacity:1.0000000;stroke:none;stroke-opacity:1.0000000"
       id="rect4520" />
    <rect
       width="600.00000"
       height="60.000000"
       x="0.00000000"
       y="932.36218"
       style="fill:#ffffff;fill-opacity:1.0000000;stroke:none;stroke-opacity:1.0000000"
       id="rect6711" />
  </g>
</svg>
