<?xml version="1.0" encoding="UTF-8" standalone="no"?>
<svg
   xmlns:dc="http://purl.org/dc/elements/1.1/"
   xmlns:cc="http://web.resource.org/cc/"
   xmlns:rdf="http://www.w3.org/1999/02/22-rdf-syntax-ns#"
   xmlns:svg="http://www.w3.org/2000/svg"
   xmlns="http://www.w3.org/2000/svg"
   xmlns:sodipodi="http://inkscape.sourceforge.net/DTD/sodipodi-0.dtd"
   xmlns:inkscape="http://www.inkscape.org/namespaces/inkscape"
   width="778pt"
   height="525pt"
   id="svg2"
   sodipodi:version="0.32"
   inkscape:version="0.43"
   sodipodi:docname="netherlands_zeeuwse.svg"
   sodipodi:docbase="/home/demailly/ajour/flags"
   version="1.0">
  <metadata
     id="metadata203">
    <rdf:RDF>
      <cc:Work
         rdf:about="">
        <dc:format>image/svg+xml</dc:format>
        <dc:type
           rdf:resource="http://purl.org/dc/dcmitype/StillImage" />
      </cc:Work>
    </rdf:RDF>
  </metadata>
  <sodipodi:namedview
     inkscape:cy="270.52508"
     inkscape:cx="500.0974"
     inkscape:zoom="0.61399264"
     inkscape:window-height="878"
     inkscape:window-width="1162"
     inkscape:pageshadow="2"
     inkscape:pageopacity="0.0"
     borderopacity="1.0"
     bordercolor="#666666"
     pagecolor="#ffffff"
     id="base"
     inkscape:window-x="39"
     inkscape:window-y="13"
     inkscape:current-layer="svg2" />
  <defs
     id="defs4">
    <marker
       id="ArrowEnd"
       viewBox="0 0 10 10"
       refX="0"
       refY="5"
       markerUnits="strokeWidth"
       markerWidth="4"
       markerHeight="3"
       orient="auto">
      <path
         d="M 0,0 L 10,5 L 0,10 L 0,0 z "
         id="path7" />
    </marker>
    <marker
       id="ArrowStart"
       viewBox="0 0 10 10"
       refX="10"
       refY="5"
       markerUnits="strokeWidth"
       markerWidth="4"
       markerHeight="3"
       orient="auto">
      <path
         d="M 10,0 L 0,5 L 10,10 L 10,0 z "
         id="path10" />
    </marker>
  </defs>
  <path
     id="path14"
     d="M 1.5261192,652.69566 L 969.26012,652.69566 L 969.26012,1.017658 L 1.5261192,1.017658 L 1.5261192,652.69566 z "
     style="fill:#002fff;stroke:none" />
  <path
     id="path16"
     d="M 972.27212,184.62666 C 972.27212,184.62666 946.68812,171.07866 835.31312,171.07866 C 723.93812,171.07866 633.64712,205.68366 483.14312,205.68366 C 332.63912,205.68366 258.89312,172.57866 126.44612,172.57866 C 46.667119,172.57866 0.0261192,186.12666 0.0261192,186.12666 L 0.0261192,83.787658 C 0.0261192,83.787658 46.667119,70.251658 126.44612,70.251658 C 258.88112,70.251658 332.62712,103.35666 483.14312,103.35666 C 633.64712,103.35666 723.93812,68.751658 835.31312,68.751658 C 946.68812,68.751658 972.27212,82.287658 972.27212,82.287658 L 972.27212,184.62666"
     style="fill:#ffffff;stroke:none" />
  <path
     id="path18"
     d="M 972.27212,375.75966 C 972.27212,375.75966 946.68812,362.21166 835.31312,362.21166 C 723.93812,362.21166 633.64712,396.81666 483.14312,396.81666 C 332.63912,396.81666 258.89312,363.71166 126.44612,363.71166 C 46.667119,363.71166 0.0261192,377.25966 0.0261192,377.25966 L 0.0261192,274.93266 C 0.0261192,274.93266 46.667119,261.38466 126.44612,261.38466 C 258.88112,261.38466 332.62712,294.48966 483.14312,294.48966 C 633.64712,294.48966 723.93812,259.88466 835.31312,259.88466 C 946.68812,259.88466 972.27212,273.43266 972.27212,273.43266 L 972.27212,375.75966"
     style="fill:#ffffff;stroke:none" />
  <path
     id="path22"
     d="M 359.28812,238.68366 L 600.77612,238.68366 C 600.77612,238.68366 603.77612,383.43366 603.77612,425.43366 C 603.77612,467.43366 571.52612,546.93366 483.77612,546.93366 C 396.03812,546.93366 360.03812,471.93366 360.03812,427.68366 C 360.03812,383.43366 359.28812,238.68366 359.28812,238.68366"
     style="fill:#ffffff;stroke:none" />
  <path
     id="path20"
     d="M 972.84795,566.90466 C 972.84795,566.90466 947.26395,553.36866 835.88895,553.36866 C 724.51395,553.36866 634.22295,587.97366 483.71895,587.97366 C 333.21495,587.97366 259.46895,554.88066 127.02195,554.88066 C 47.242946,554.88066 0.60194596,568.41666 0.60194596,568.41666 L 0.60194596,466.08666 C 0.60194596,466.08666 47.242946,452.54166 127.02195,452.54166 C 259.45695,452.54166 333.20295,485.64666 483.71895,485.64666 C 634.22295,485.64666 724.51395,451.04166 835.88895,451.04166 C 947.26395,451.04166 972.84795,464.58666 972.84795,464.58666 L 972.84795,566.91666"
     style="fill:#ffffff;stroke:none" />
  <path
     id="path184"
     d="M 596.74621,467.70833 C 574.86479,463.10173 583.83259,463.17983 561.59912,463.75566 C 527.85987,464.60742 506.84912,481.00566 482.84912,481.00566 C 458.84912,481.00566 427.34912,462.25566 401.09912,462.25566 C 387.97412,462.25566 379.08073,465.97901 368.86198,470.85401 C 363.82567,459.03003 364.97733,459.26806 361.95206,446.33149 C 372.17081,441.45649 387.39829,436.00566 400.52329,436.00566 C 426.77329,436.00566 458.84912,454.75566 482.84912,454.75566 C 506.84912,454.75566 527.84912,437.50566 561.59912,437.50566 C 595.34912,437.50566 602.50448,445.48912 602.50448,445.48912 C 602.50448,445.48912 601.35282,454.46431 596.74621,467.70833 z "
     style="fill:#002fff;stroke:none"
     sodipodi:nodetypes="csssccssscc" />
  <path
     id="path24"
     d="M 604.25612,409.75566 C 603.77612,355.55466 601.34912,238.75566 601.34912,238.75566 L 359.84912,238.75566 C 359.84912,238.75566 360.43712,353.30466 360.56312,409.74366 C 360.56312,409.74366 416.83712,400.00566 428.83712,404.50566 C 440.83712,409.00566 477.58712,420.25566 497.08712,416.50566 C 516.58712,412.75566 545.08712,400.75566 564.58712,400.75566 C 584.08712,400.75566 604.24412,409.75566 604.24412,409.75566"
     style="fill:#ffff00;stroke:none" />
  <path
     id="path26"
     d="M 604.25612,409.75566 C 603.77612,355.55466 601.34912,238.75566 601.34912,238.75566 L 359.84912,238.75566 C 359.84912,238.75566 360.43712,353.30466 360.56312,409.74366 C 360.56312,409.74366 416.83712,400.00566 428.83712,404.50566 C 440.83712,409.00566 477.58712,420.25566 497.08712,416.50566 C 516.58712,412.75566 545.08712,400.75566 564.58712,400.75566 C 584.08712,400.75566 604.24412,409.75566 604.24412,409.75566 L 604.25612,409.75566 z "
     style="fill:none;stroke:#000000;stroke-width:1.5" />
  <path
     id="path28"
     d="M 458.09912,268.75566 C 456.59912,271.75566 455.09912,276.25566 458.09912,278.50566 C 461.09912,280.75566 461.84912,283.00566 464.84912,283.00566 C 467.84912,283.00566 470.84912,283.00566 476.09912,283.00566 C 481.34912,283.00566 483.59912,280.75566 486.59912,283.75566 C 489.59912,286.75566 494.09912,287.50566 494.09912,287.50566 C 494.09912,287.50566 483.59912,285.25566 479.09912,286.75566 C 474.59912,288.25566 471.59912,290.50566 464.09912,291.25566 C 456.59912,292.00566 446.84912,287.50566 446.09912,280.75566 C 445.34912,274.00566 446.84912,271.75566 449.84912,269.50566 C 452.84912,267.25566 458.09912,268.75566 458.09912,268.75566"
     style="fill:#002fff;stroke:none" />
  <path
     id="path30"
     d="M 458.09912,268.75566 C 456.59912,271.75566 455.09912,276.25566 458.09912,278.50566 C 461.09912,280.75566 461.84912,283.00566 464.84912,283.00566 C 467.84912,283.00566 470.84912,283.00566 476.09912,283.00566 C 481.34912,283.00566 483.59912,280.75566 486.59912,283.75566 C 489.59912,286.75566 494.09912,287.50566 494.09912,287.50566 C 494.09912,287.50566 483.59912,285.25566 479.09912,286.75566 C 474.59912,288.25566 471.59912,290.50566 464.09912,291.25566 C 456.59912,292.00566 446.84912,287.50566 446.09912,280.75566 C 445.34912,274.00566 446.84912,271.75566 449.84912,269.50566 C 452.84912,267.25566 458.09912,268.75566 458.09912,268.75566 z "
     style="fill:none;stroke:#000000;stroke-width:1.5" />
  <path
     id="path32"
     d="M 416.09912,247.75566 C 416.09912,247.75566 419.84912,247.75566 421.34912,250.75566 C 422.84912,253.75566 423.59912,260.50566 423.59912,260.50566 L 416.84912,257.50566 C 416.84912,257.50566 418.44212,254.15466 417.59912,251.50566 C 416.95412,249.48966 416.09912,247.75566 416.09912,247.75566"
     style="fill:#002fff;stroke:none" />
  <path
     id="path34"
     d="M 416.09912,247.75566 C 416.09912,247.75566 419.84912,247.75566 421.34912,250.75566 C 422.84912,253.75566 423.59912,260.50566 423.59912,260.50566 L 416.84912,257.50566 C 416.84912,257.50566 418.44212,254.15466 417.59912,251.50566 C 416.95412,249.48966 416.09912,247.75566 416.09912,247.75566 z "
     style="fill:none;stroke:#000000;stroke-width:1.5" />
  <path
     id="path36"
     d="M 392.84912,256.00566 C 392.84912,256.00566 398.43812,253.88466 400.68812,254.63466 C 402.93812,255.38466 406.33712,259.75566 406.33712,259.75566 L 401.83712,261.25566 C 401.83712,261.25566 400.52612,259.15866 398.09912,257.85666 C 396.11912,256.80366 392.84912,256.01766 392.84912,256.01766"
     style="fill:#002fff;stroke:none" />
  <path
     id="path38"
     d="M 392.84912,256.00566 C 392.84912,256.00566 398.43812,253.88466 400.68812,254.63466 C 402.93812,255.38466 406.33712,259.75566 406.33712,259.75566 L 401.83712,261.25566 C 401.83712,261.25566 400.52612,259.15866 398.09912,257.85666 C 396.11912,256.80366 392.84912,256.01766 392.84912,256.01766 L 392.84912,256.00566 z "
     style="fill:none;stroke:#000000;stroke-width:1.5" />
  <path
     id="path40"
     d="M 381.59912,281.50566 C 381.59912,281.50566 383.84912,274.75566 386.84912,273.25566 C 389.84912,271.75566 396.59912,270.25566 396.59912,270.25566 L 395.84912,277.00566 C 395.84912,277.00566 394.22012,276.80466 389.72012,277.54566 C 385.22012,278.29566 381.61112,281.49366 381.61112,281.49366"
     style="fill:#002fff;stroke:none" />
  <path
     id="path42"
     d="M 381.59912,281.50566 C 381.59912,281.50566 383.84912,274.75566 386.84912,273.25566 C 389.84912,271.75566 396.59912,270.25566 396.59912,270.25566 L 395.84912,277.00566 C 395.84912,277.00566 394.22012,276.80466 389.72012,277.54566 C 385.22012,278.29566 381.61112,281.49366 381.61112,281.49366 L 381.59912,281.50566 z "
     style="fill:none;stroke:#000000;stroke-width:1.5" />
  <path
     id="path44"
     d="M 390.51812,303.37266 C 390.51812,303.37266 389.09912,294.25566 390.58712,291.25566 C 392.08712,288.25566 394.33712,286.00566 394.33712,286.00566 L 398.83712,292.00566 C 398.83712,292.00566 397.61912,292.71966 394.87712,295.46166 C 392.22812,298.11066 390.53012,303.37266 390.53012,303.37266"
     style="fill:#002fff;stroke:none" />
  <path
     id="path46"
     d="M 390.51812,303.37266 C 390.51812,303.37266 389.09912,294.25566 390.58712,291.25566 C 392.08712,288.25566 394.33712,286.00566 394.33712,286.00566 L 398.83712,292.00566 C 398.83712,292.00566 397.61912,292.71966 394.87712,295.46166 C 392.22812,298.11066 390.53012,303.37266 390.53012,303.37266 L 390.51812,303.37266 z "
     style="fill:none;stroke:#000000;stroke-width:1.5" />
  <path
     id="path48"
     d="M 410.52212,349.32066 L 417.27212,349.32066 C 417.27212,349.32066 415.97012,341.03766 412.97012,339.53766 C 409.97012,338.03766 403.78412,337.33266 403.78412,337.33266 C 403.78412,337.33266 406.52612,340.57866 408.77612,343.57866 C 411.02612,346.57866 410.52212,349.32066 410.52212,349.32066"
     style="fill:#002fff;stroke:none" />
  <path
     id="path50"
     d="M 410.52212,349.32066 L 417.27212,349.32066 C 417.27212,349.32066 415.97012,341.03766 412.97012,339.53766 C 409.97012,338.03766 403.78412,337.33266 403.78412,337.33266 C 403.78412,337.33266 406.52612,340.57866 408.77612,343.57866 C 411.02612,346.57866 410.52212,349.32066 410.52212,349.32066 z "
     style="fill:none;stroke:#000000;stroke-width:1.5" />
  <path
     id="path52"
     d="M 404.09912,353.50566 L 399.59912,358.00566 C 399.59912,358.00566 397.34912,356.50566 394.34912,355.00566 C 391.34912,353.50566 385.34912,354.25566 385.34912,354.25566 C 385.34912,354.25566 393.59912,348.25566 397.34912,349.00566 C 401.09912,349.75566 404.09912,353.50566 404.09912,353.50566"
     style="fill:#002fff;stroke:none" />
  <path
     id="path54"
     d="M 404.09912,353.50566 L 399.59912,358.00566 C 399.59912,358.00566 397.34912,356.50566 394.34912,355.00566 C 391.34912,353.50566 385.34912,354.25566 385.34912,354.25566 C 385.34912,354.25566 393.59912,348.25566 397.34912,349.00566 C 401.09912,349.75566 404.09912,353.50566 404.09912,353.50566 z "
     style="fill:none;stroke:#000000;stroke-width:1.5" />
  <path
     id="path56"
     d="M 386.46212,379.90866 C 386.46212,379.90866 386.46212,373.90866 388.71212,372.40866 C 390.96212,370.90866 394.71212,370.90866 394.71212,370.90866 L 396.96212,375.40866 C 396.96212,375.40866 395.56712,375.00966 391.81712,376.49766 C 388.06712,377.99766 386.47412,379.89666 386.47412,379.89666"
     style="fill:#002fff;stroke:none" />
  <path
     id="path58"
     d="M 386.46212,379.90866 C 386.46212,379.90866 386.46212,373.90866 388.71212,372.40866 C 390.96212,370.90866 394.71212,370.90866 394.71212,370.90866 L 396.96212,375.40866 C 396.96212,375.40866 395.56712,375.00966 391.81712,376.49766 C 388.06712,377.99766 386.47412,379.89666 386.47412,379.89666 L 386.46212,379.90866 z "
     style="fill:none;stroke:#000000;stroke-width:1.5" />
  <path
     id="path60"
     d="M 408.27212,376.50966 C 408.27212,376.50966 408.80912,380.17866 409.55912,383.92866 C 410.30912,387.67866 407.84912,391.74366 407.84912,391.74366 C 407.84912,391.74366 414.56312,389.03766 414.56312,386.03766 C 414.56312,383.03766 413.84912,378.25566 413.84912,378.25566 L 408.28412,376.52166"
     style="fill:#002fff;stroke:none" />
  <path
     id="path62"
     d="M 408.27212,376.50966 C 408.27212,376.50966 408.80912,380.17866 409.55912,383.92866 C 410.30912,387.67866 407.84912,391.74366 407.84912,391.74366 C 407.84912,391.74366 414.56312,389.03766 414.56312,386.03766 C 414.56312,383.03766 413.84912,378.25566 413.84912,378.25566 L 408.28412,376.52166 L 408.27212,376.50966 z "
     style="fill:none;stroke:#000000;stroke-width:1.5" />
  <path
     id="path64"
     d="M 567.59912,392.50566 C 567.59912,392.50566 567.59912,385.75566 569.09912,383.50566 C 570.59912,381.25566 573.59912,381.25566 575.09912,377.50566 C 576.59912,373.75566 575.84912,361.75566 573.59912,358.75566 C 571.34912,355.75566 569.09912,352.75566 571.34912,350.50566 C 573.59912,348.25566 577.34912,348.25566 577.34912,348.25566 C 577.34912,348.25566 581.09912,342.25566 575.84912,340.75566 C 570.59912,339.25566 564.59912,343.00566 564.59912,343.00566 C 564.59912,343.00566 563.09912,342.25566 561.59912,338.50566 C 560.09912,334.75566 556.34912,328.00566 554.09912,322.75566 C 551.84912,317.50566 548.84912,305.50566 551.09912,301.00566 C 553.34912,296.50566 557.84912,290.50566 560.09912,292.00566 C 562.34912,293.50566 561.59912,297.25566 560.84912,301.75566 C 560.09912,306.25566 560.09912,315.25566 562.34912,317.50566 C 564.59912,319.75566 572.09912,319.00566 572.84912,322.75566 C 573.59912,326.50566 575.84912,330.25566 575.84912,335.50566 C 575.84912,340.75566 579.59912,345.25566 582.59912,345.25566 C 585.59912,345.25566 582.59912,339.25566 584.09912,334.75566 C 585.11912,331.68366 585.44612,328.95366 584.82512,326.34066 C 584.54612,325.14666 584.05412,323.94966 583.34912,322.76766 C 581.09912,319.01766 579.59912,314.51766 579.59912,314.51766 C 579.59912,314.51766 585.59912,331.01766 587.84912,331.76766 C 590.09912,332.51766 592.34912,335.51766 592.34912,340.76766 C 592.34912,346.01766 598.34912,342.26766 596.84912,337.01766 C 595.34912,331.76766 595.34912,331.76766 595.34912,331.76766 C 595.34912,331.76766 594.59912,327.26766 590.84912,322.76766 C 587.09912,318.26766 582.59912,312.26766 582.59912,306.26766 C 582.59912,300.26766 576.59912,292.01766 572.84912,288.26766 C 569.09912,284.51766 562.34912,281.51766 557.09912,284.51766 C 551.84912,287.51766 543.59912,295.76766 543.59912,302.51766 C 543.59912,309.26766 545.84912,322.01766 548.84912,328.01766 C 551.84912,334.01766 556.34912,342.26766 556.34912,342.26766 C 556.34912,342.26766 551.84912,339.26766 548.09912,343.76766 C 544.34912,348.26766 541.34912,358.01766 541.34912,358.01766 L 542.84912,363.26766 C 542.84912,363.26766 545.84912,357.26766 548.84912,355.76766 C 551.84912,354.26766 554.09912,359.51766 554.09912,359.51766 C 554.09912,359.51766 554.09912,365.51766 554.09912,370.01766 C 554.09912,374.51766 554.09912,377.51766 557.09912,379.76766 C 560.09912,382.01766 560.09912,382.76766 559.34912,387.26766 C 558.59912,391.76766 555.59912,398.51766 559.34912,398.51766 C 563.09912,398.51766 567.59912,392.51766 567.59912,392.51766"
     style="fill:#fb0945;stroke:none" />
  <path
     id="path66"
     d="M 567.59912,392.50566 C 567.59912,392.50566 567.59912,385.75566 569.09912,383.50566 C 570.59912,381.25566 573.59912,381.25566 575.09912,377.50566 C 576.59912,373.75566 575.84912,361.75566 573.59912,358.75566 C 571.34912,355.75566 569.09912,352.75566 571.34912,350.50566 C 573.59912,348.25566 577.34912,348.25566 577.34912,348.25566 C 577.34912,348.25566 581.09912,342.25566 575.84912,340.75566 C 570.59912,339.25566 564.59912,343.00566 564.59912,343.00566 C 564.59912,343.00566 563.09912,342.25566 561.59912,338.50566 C 560.09912,334.75566 556.34912,328.00566 554.09912,322.75566 C 551.84912,317.50566 548.84912,305.50566 551.09912,301.00566 C 553.34912,296.50566 557.84912,290.50566 560.09912,292.00566 C 562.34912,293.50566 561.59912,297.25566 560.84912,301.75566 C 560.09912,306.25566 560.09912,315.25566 562.34912,317.50566 C 564.59912,319.75566 572.09912,319.00566 572.84912,322.75566 C 573.59912,326.50566 575.84912,330.25566 575.84912,335.50566 C 575.84912,340.75566 579.59912,345.25566 582.59912,345.25566 C 585.59912,345.25566 582.59912,339.25566 584.09912,334.75566 C 585.11912,331.68366 585.44612,328.95366 584.82512,326.34066 C 584.54612,325.14666 584.05412,323.94966 583.34912,322.76766 C 581.09912,319.01766 579.59912,314.51766 579.59912,314.51766 C 579.59912,314.51766 585.59912,331.01766 587.84912,331.76766 C 590.09912,332.51766 592.34912,335.51766 592.34912,340.76766 C 592.34912,346.01766 598.34912,342.26766 596.84912,337.01766 C 595.34912,331.76766 595.34912,331.76766 595.34912,331.76766 C 595.34912,331.76766 594.59912,327.26766 590.84912,322.76766 C 587.09912,318.26766 582.59912,312.26766 582.59912,306.26766 C 582.59912,300.26766 576.59912,292.01766 572.84912,288.26766 C 569.09912,284.51766 562.34912,281.51766 557.09912,284.51766 C 551.84912,287.51766 543.59912,295.76766 543.59912,302.51766 C 543.59912,309.26766 545.84912,322.01766 548.84912,328.01766 C 551.84912,334.01766 556.34912,342.26766 556.34912,342.26766 C 556.34912,342.26766 551.84912,339.26766 548.09912,343.76766 C 544.34912,348.26766 541.34912,358.01766 541.34912,358.01766 L 542.84912,363.26766 C 542.84912,363.26766 545.84912,357.26766 548.84912,355.76766 C 551.84912,354.26766 554.09912,359.51766 554.09912,359.51766 C 554.09912,359.51766 554.09912,365.51766 554.09912,370.01766 C 554.09912,374.51766 554.09912,377.51766 557.09912,379.76766 C 560.09912,382.01766 560.09912,382.76766 559.34912,387.26766 C 558.59912,391.76766 555.59912,398.51766 559.34912,398.51766 C 563.09912,398.51766 567.59912,392.51766 567.59912,392.51766 L 567.59912,392.50566 z "
     style="fill:none;stroke:#000000;stroke-width:1.5" />
  <path
     id="path68"
     d="M 595.63112,219.26766 L 369.38912,219.26766 L 357.03812,201.98166 L 609.00212,201.98166 L 595.64312,219.26766"
     style="fill:#ffff00;stroke:none" />
  <path
     id="path70"
     d="M 595.63112,219.26766 L 369.38912,219.26766 L 357.03812,201.98166 L 609.00212,201.98166 L 595.64312,219.26766 L 595.63112,219.26766 z "
     style="fill:none;stroke:#000000;stroke-width:1.5" />
  <path
     id="path72"
     d="M 357.01412,196.30866 L 608.24012,196.30866 C 608.24012,196.30866 613.42112,191.86866 618.59912,189.64266 C 623.78012,187.42866 635.63912,174.07866 635.63912,174.07866 C 635.63912,174.07866 641.56712,162.23166 645.27212,157.77966 C 648.96212,153.33666 656.38112,148.14666 659.34512,146.67066 C 662.30012,145.19166 665.27612,145.93266 665.27612,145.93266 C 665.27612,145.93266 659.34512,143.71566 655.64312,142.97766 C 651.93812,142.23966 646.74812,140.76366 643.04612,142.97766 C 639.34112,145.19166 631.19612,152.61066 631.19612,152.61066 C 631.19612,152.61066 634.90112,146.68266 630.45812,143.71566 C 626.01812,140.76366 621.57512,136.30866 614.90912,142.23966 C 608.24012,148.17066 607.50212,154.08666 604.53812,156.31266 C 601.58312,158.52966 600.83312,162.98166 603.05912,163.71966 C 605.27612,164.45766 598.61912,167.42466 601.58312,172.61466 C 604.53812,177.79566 613.43312,178.54566 613.43312,178.54566 C 613.43312,178.54566 611.21612,180.02166 606.77612,181.49766 C 602.33312,182.97366 604.55912,187.41666 602.33312,189.64266 C 600.11912,191.85666 594.18812,191.85666 591.96212,190.38066 C 589.74812,188.90466 588.27212,183.71166 589.01012,180.74766 C 589.74812,177.79566 588.28412,171.11466 586.05812,174.82866 C 583.84112,178.53366 583.84112,182.23566 579.38912,185.93766 C 574.94612,189.63066 571.23212,191.11866 566.05412,188.89266 C 560.87312,186.67866 560.87312,174.81666 563.83712,171.85266 C 566.79212,168.90066 565.31312,160.74366 565.31312,158.51766 C 565.31312,156.30366 568.26812,156.30366 571.24412,162.20766 C 574.19612,168.13866 578.65112,169.61466 582.35312,167.38866 C 586.05812,165.17466 587.92112,160.97766 590.88512,159.48966 C 593.83712,158.01366 592.87712,154.90866 592.87712,147.48966 C 592.87712,140.08266 591.97412,132.55866 588.28412,134.04966 C 584.57912,135.52566 583.09112,136.26366 584.57912,129.60666 C 586.05812,122.93766 581.12312,117.46566 578.89712,114.51366 C 576.68312,111.55866 574.57112,106.29966 567.89312,108.51366 C 561.22412,110.72766 551.97812,111.07866 550.49012,114.04566 C 549.01412,116.99766 551.22812,128.11866 551.22812,128.11866 C 551.22812,128.11866 548.27612,122.18766 543.08312,122.93766 C 537.90512,123.66666 537.90512,127.38066 534.93812,132.57066 C 531.98612,137.75166 526.04612,139.97766 526.04612,139.97766 C 526.04612,139.97766 529.74812,139.23966 531.22412,145.15866 C 532.70012,151.08666 533.43812,158.49366 536.40512,159.96966 C 539.36912,161.44566 543.80912,162.92466 547.51412,161.44566 C 551.21612,159.96966 552.69212,162.18366 549.72812,164.40066 C 546.76412,166.61466 540.83312,167.35266 540.83312,167.35266 C 540.83312,167.35266 545.27612,170.31666 545.27612,174.02166 C 545.27612,177.71166 543.80012,187.35666 536.38112,187.35666 C 528.97412,187.35666 523.79612,179.21166 523.79612,175.50966 C 523.79612,171.80466 520.09112,163.66266 520.09112,163.66266 C 520.09112,163.66266 518.61512,168.84066 516.40112,173.29566 C 514.17512,177.73566 508.99412,185.14266 503.06312,186.63066 C 497.14712,188.10666 484.55012,182.93766 487.51412,175.52166 C 490.46612,168.11466 493.44212,162.93366 493.44212,160.70766 C 493.44212,158.49366 489.74012,151.82466 489.74012,151.82466 C 489.74012,151.82466 493.44212,157.74366 500.84912,157.00566 C 508.25612,156.26766 508.99412,153.30366 511.95812,148.11066 C 514.91312,142.93266 517.88912,139.96566 517.88912,139.96566 C 517.88912,139.96566 514.93712,137.75166 512.70812,132.55866 C 510.49412,127.38066 507.53012,119.97366 502.33712,120.71166 C 497.15912,121.44966 491.96612,125.89266 491.96612,125.89266 C 491.96612,125.89266 497.88512,119.22366 497.14712,114.78366 C 496.42112,110.34066 494.93312,107.37666 490.47812,106.63866 C 486.03812,105.90066 481.59512,106.63866 480.10712,104.42466 C 478.63112,102.20766 477.89312,102.20766 475.66712,105.16266 C 473.45012,108.11466 471.22412,108.11466 467.52212,109.60266 C 463.81712,111.07866 462.34112,117.00966 463.07912,119.97366 C 463.81712,122.92866 464.55812,125.89266 464.55812,125.89266 C 464.55812,125.89266 462.34112,118.48566 457.15112,118.48566 C 451.97012,118.48566 449.74412,122.17866 448.26812,127.36866 C 446.79212,132.54966 443.82512,134.77566 442.33712,137.00166 C 440.86112,139.21566 443.81312,139.95366 446.78012,142.93266 C 449.73212,145.88466 448.25612,151.07466 450.48212,154.77966 C 452.69612,158.48166 457.88912,161.44566 461.59112,159.95766 C 465.29612,158.48166 468.99812,152.55366 468.99812,152.55366 C 468.99812,152.55366 465.29612,156.99366 466.04612,162.18366 C 466.78412,167.36466 471.96212,166.62666 471.96212,171.07866 C 471.96212,175.52166 472.70012,178.48566 469.01012,182.18766 C 465.30812,185.89266 464.56712,190.33266 460.12712,190.33266 C 455.68712,190.33266 450.49412,188.11866 447.53012,182.92866 C 444.56312,177.74766 444.56312,174.03366 443.82512,171.07866 C 443.08712,168.12666 437.90912,165.15066 437.90912,169.60266 C 437.90912,174.04566 438.64712,179.97366 436.43312,183.67866 C 434.21612,187.38066 426.05912,189.60666 423.83312,186.63066 C 421.61912,183.67866 418.65512,178.48566 419.39312,174.78366 C 420.13112,171.07866 423.83312,165.90066 421.60712,163.67466 C 419.39312,161.45766 411.97412,154.79166 411.97412,154.79166 C 411.97412,154.79166 417.15512,157.74366 422.34512,157.74366 C 427.52612,157.74366 431.22812,153.30366 431.97812,148.11066 C 432.71612,142.93266 435.68312,137.73966 435.68312,137.73966 C 435.68312,137.73966 435.68312,135.52566 432.72812,131.07066 C 429.77612,126.63066 426.05912,120.69966 423.09512,121.43766 C 420.14312,122.16666 414.21212,128.10666 414.21212,128.10666 C 414.21212,128.10666 418.65512,119.96166 415.68812,114.77166 C 412.73612,109.59066 406.05812,111.81666 400.87712,110.32866 C 395.69612,108.85266 392.73212,107.37666 390.50612,111.80466 C 388.29212,116.24766 382.36112,113.28366 381.62312,118.47366 C 380.88512,123.65466 389.76812,131.80866 389.76812,131.80866 C 389.76812,131.80866 387.55412,126.63066 381.62312,129.59466 C 375.70412,132.54966 374.21612,134.77566 372.74012,142.93266 C 371.26412,151.07466 372.00212,150.33666 377.18312,153.30366 C 382.36112,156.25566 383.11112,162.93366 386.81312,164.41266 C 390.51812,165.88866 392.74412,166.62666 396.44612,164.41266 C 400.15112,162.19566 401.62712,159.23166 401.62712,159.23166 C 401.62712,159.23166 401.62712,162.93366 399.41312,166.63866 C 397.19612,170.34066 396.45812,171.07866 400.15112,173.30466 C 403.85312,175.52166 405.32912,176.25966 402.36512,180.71166 C 399.41312,185.15466 396.43712,186.64266 390.51812,185.89266 C 384.59912,185.15466 381.62312,181.44966 379.40912,178.48566 C 377.19212,175.53366 378.68312,177.00966 376.45412,182.17866 C 374.24012,187.35666 370.52612,192.54966 363.85712,189.58266 C 357.18812,186.63066 357.93812,182.91666 357.18812,180.68766 C 356.45012,178.47366 351.26012,176.99766 351.26012,176.99766 C 351.26012,176.99766 351.99812,174.78366 356.43812,171.81666 C 360.88112,168.86466 360.88112,164.41266 357.17912,154.77966 C 353.47412,145.14666 354.22412,140.70366 346.80812,139.96566 C 339.40112,139.22766 334.95812,145.88466 334.95812,145.88466 C 334.95812,145.88466 336.43712,141.44166 326.81312,139.21566 C 317.18312,137.00166 315.68312,134.63466 308.45012,137.90466 C 299.82512,141.80466 298.04612,145.47366 298.04612,145.47366 C 298.04612,145.47366 306.23612,147.51366 313.17512,150.11466 C 321.16712,153.11466 334.22012,166.62666 334.95812,171.81666 C 335.69612,176.99766 337.17512,177.74766 343.84112,182.92866 C 350.51012,188.10666 357.17912,196.26366 357.17912,196.26366"
     style="fill:#ffff00;stroke:none" />
  <path
     id="path74"
     d="M 357.01412,196.30866 L 608.24012,196.30866 C 608.24012,196.30866 613.42112,191.86866 618.59912,189.64266 C 623.78012,187.42866 635.63912,174.07866 635.63912,174.07866 C 635.63912,174.07866 641.56712,162.23166 645.27212,157.77966 C 648.96212,153.33666 656.38112,148.14666 659.34512,146.67066 C 662.30012,145.19166 665.27612,145.93266 665.27612,145.93266 C 665.27612,145.93266 659.34512,143.71566 655.64312,142.97766 C 651.93812,142.23966 646.74812,140.76366 643.04612,142.97766 C 639.34112,145.19166 631.19612,152.61066 631.19612,152.61066 C 631.19612,152.61066 634.90112,146.68266 630.45812,143.71566 C 626.01812,140.76366 621.57512,136.30866 614.90912,142.23966 C 608.24012,148.17066 607.50212,154.08666 604.53812,156.31266 C 601.58312,158.52966 600.83312,162.98166 603.05912,163.71966 C 605.27612,164.45766 598.61912,167.42466 601.58312,172.61466 C 604.53812,177.79566 613.43312,178.54566 613.43312,178.54566 C 613.43312,178.54566 611.21612,180.02166 606.77612,181.49766 C 602.33312,182.97366 604.55912,187.41666 602.33312,189.64266 C 600.11912,191.85666 594.18812,191.85666 591.96212,190.38066 C 589.74812,188.90466 588.27212,183.71166 589.01012,180.74766 C 589.74812,177.79566 588.28412,171.11466 586.05812,174.82866 C 583.84112,178.53366 583.84112,182.23566 579.38912,185.93766 C 574.94612,189.63066 571.23212,191.11866 566.05412,188.89266 C 560.87312,186.67866 560.87312,174.81666 563.83712,171.85266 C 566.79212,168.90066 565.31312,160.74366 565.31312,158.51766 C 565.31312,156.30366 568.26812,156.30366 571.24412,162.20766 C 574.19612,168.13866 578.65112,169.61466 582.35312,167.38866 C 586.05812,165.17466 587.92112,160.97766 590.88512,159.48966 C 593.83712,158.01366 592.87712,154.90866 592.87712,147.48966 C 592.87712,140.08266 591.97412,132.55866 588.28412,134.04966 C 584.57912,135.52566 583.09112,136.26366 584.57912,129.60666 C 586.05812,122.93766 581.12312,117.46566 578.89712,114.51366 C 576.68312,111.55866 574.57112,106.29966 567.89312,108.51366 C 561.22412,110.72766 551.97812,111.07866 550.49012,114.04566 C 549.01412,116.99766 551.22812,128.11866 551.22812,128.11866 C 551.22812,128.11866 548.27612,122.18766 543.08312,122.93766 C 537.90512,123.66666 537.90512,127.38066 534.93812,132.57066 C 531.98612,137.75166 526.04612,139.97766 526.04612,139.97766 C 526.04612,139.97766 529.74812,139.23966 531.22412,145.15866 C 532.70012,151.08666 533.43812,158.49366 536.40512,159.96966 C 539.36912,161.44566 543.80912,162.92466 547.51412,161.44566 C 551.21612,159.96966 552.69212,162.18366 549.72812,164.40066 C 546.76412,166.61466 540.83312,167.35266 540.83312,167.35266 C 540.83312,167.35266 545.27612,170.31666 545.27612,174.02166 C 545.27612,177.71166 543.80012,187.35666 536.38112,187.35666 C 528.97412,187.35666 523.79612,179.21166 523.79612,175.50966 C 523.79612,171.80466 520.09112,163.66266 520.09112,163.66266 C 520.09112,163.66266 518.61512,168.84066 516.40112,173.29566 C 514.17512,177.73566 508.99412,185.14266 503.06312,186.63066 C 497.14712,188.10666 484.55012,182.93766 487.51412,175.52166 C 490.46612,168.11466 493.44212,162.93366 493.44212,160.70766 C 493.44212,158.49366 489.74012,151.82466 489.74012,151.82466 C 489.74012,151.82466 493.44212,157.74366 500.84912,157.00566 C 508.25612,156.26766 508.99412,153.30366 511.95812,148.11066 C 514.91312,142.93266 517.88912,139.96566 517.88912,139.96566 C 517.88912,139.96566 514.93712,137.75166 512.70812,132.55866 C 510.49412,127.38066 507.53012,119.97366 502.33712,120.71166 C 497.15912,121.44966 491.96612,125.89266 491.96612,125.89266 C 491.96612,125.89266 497.88512,119.22366 497.14712,114.78366 C 496.42112,110.34066 494.93312,107.37666 490.47812,106.63866 C 486.03812,105.90066 481.59512,106.63866 480.10712,104.42466 C 478.63112,102.20766 477.89312,102.20766 475.66712,105.16266 C 473.45012,108.11466 471.22412,108.11466 467.52212,109.60266 C 463.81712,111.07866 462.34112,117.00966 463.07912,119.97366 C 463.81712,122.92866 464.55812,125.89266 464.55812,125.89266 C 464.55812,125.89266 462.34112,118.48566 457.15112,118.48566 C 451.97012,118.48566 449.74412,122.17866 448.26812,127.36866 C 446.79212,132.54966 443.82512,134.77566 442.33712,137.00166 C 440.86112,139.21566 443.81312,139.95366 446.78012,142.93266 C 449.73212,145.88466 448.25612,151.07466 450.48212,154.77966 C 452.69612,158.48166 457.88912,161.44566 461.59112,159.95766 C 465.29612,158.48166 468.99812,152.55366 468.99812,152.55366 C 468.99812,152.55366 465.29612,156.99366 466.04612,162.18366 C 466.78412,167.36466 471.96212,166.62666 471.96212,171.07866 C 471.96212,175.52166 472.70012,178.48566 469.01012,182.18766 C 465.30812,185.89266 464.56712,190.33266 460.12712,190.33266 C 455.68712,190.33266 450.49412,188.11866 447.53012,182.92866 C 444.56312,177.74766 444.56312,174.03366 443.82512,171.07866 C 443.08712,168.12666 437.90912,165.15066 437.90912,169.60266 C 437.90912,174.04566 438.64712,179.97366 436.43312,183.67866 C 434.21612,187.38066 426.05912,189.60666 423.83312,186.63066 C 421.61912,183.67866 418.65512,178.48566 419.39312,174.78366 C 420.13112,171.07866 423.83312,165.90066 421.60712,163.67466 C 419.39312,161.45766 411.97412,154.79166 411.97412,154.79166 C 411.97412,154.79166 417.15512,157.74366 422.34512,157.74366 C 427.52612,157.74366 431.22812,153.30366 431.97812,148.11066 C 432.71612,142.93266 435.68312,137.73966 435.68312,137.73966 C 435.68312,137.73966 435.68312,135.52566 432.72812,131.07066 C 429.77612,126.63066 426.05912,120.69966 423.09512,121.43766 C 420.14312,122.16666 414.21212,128.10666 414.21212,128.10666 C 414.21212,128.10666 418.65512,119.96166 415.68812,114.77166 C 412.73612,109.59066 406.05812,111.81666 400.87712,110.32866 C 395.69612,108.85266 392.73212,107.37666 390.50612,111.80466 C 388.29212,116.24766 382.36112,113.28366 381.62312,118.47366 C 380.88512,123.65466 389.76812,131.80866 389.76812,131.80866 C 389.76812,131.80866 387.55412,126.63066 381.62312,129.59466 C 375.70412,132.54966 374.21612,134.77566 372.74012,142.93266 C 371.26412,151.07466 372.00212,150.33666 377.18312,153.30366 C 382.36112,156.25566 383.11112,162.93366 386.81312,164.41266 C 390.51812,165.88866 392.74412,166.62666 396.44612,164.41266 C 400.15112,162.19566 401.62712,159.23166 401.62712,159.23166 C 401.62712,159.23166 401.62712,162.93366 399.41312,166.63866 C 397.19612,170.34066 396.45812,171.07866 400.15112,173.30466 C 403.85312,175.52166 405.32912,176.25966 402.36512,180.71166 C 399.41312,185.15466 396.43712,186.64266 390.51812,185.89266 C 384.59912,185.15466 381.62312,181.44966 379.40912,178.48566 C 377.19212,175.53366 378.68312,177.00966 376.45412,182.17866 C 374.24012,187.35666 370.52612,192.54966 363.85712,189.58266 C 357.18812,186.63066 357.93812,182.91666 357.18812,180.68766 C 356.45012,178.47366 351.26012,176.99766 351.26012,176.99766 C 351.26012,176.99766 351.99812,174.78366 356.43812,171.81666 C 360.88112,168.86466 360.88112,164.41266 357.17912,154.77966 C 353.47412,145.14666 354.22412,140.70366 346.80812,139.96566 C 339.40112,139.22766 334.95812,145.88466 334.95812,145.88466 C 334.95812,145.88466 336.43712,141.44166 326.81312,139.21566 C 317.18312,137.00166 315.68312,134.63466 308.45012,137.90466 C 299.82512,141.80466 298.04612,145.47366 298.04612,145.47366 C 298.04612,145.47366 306.23612,147.51366 313.17512,150.11466 C 321.16712,153.11466 334.22012,166.62666 334.95812,171.81666 C 335.69612,176.99766 337.17512,177.74766 343.84112,182.92866 C 350.51012,188.10666 357.17912,196.26366 357.17912,196.26366 L 357.01412,196.30866 z "
     style="fill:none;stroke:#000000;stroke-width:1.5" />
  <path
     id="path76"
     d="M 336.26012,165.17466 C 336.26012,168.44166 333.61112,171.10266 330.34112,171.10266 C 327.07112,171.10266 324.42512,168.45366 324.42512,165.17466 C 324.42512,161.90466 327.07112,159.25566 330.34112,159.25566 C 333.61112,159.25566 336.26012,161.90466 336.26012,165.17466"
     style="fill:#fb0945;stroke:none" />
  <path
     id="path78"
     d="M 336.26012,165.17466 C 336.26012,168.44166 333.61112,171.10266 330.34112,171.10266 C 327.07112,171.10266 324.42512,168.45366 324.42512,165.17466 C 324.42512,161.90466 327.07112,159.25566 330.34112,159.25566 C 333.61112,159.25566 336.26012,161.90466 336.26012,165.17466 z "
     style="fill:none;stroke:#000000;stroke-width:1.5" />
  <path
     id="path80"
     d="M 411.10712,143.68266 C 411.10712,146.94966 408.45812,149.61066 405.18812,149.61066 C 401.92112,149.61066 399.27212,146.96166 399.27212,143.68266 C 399.27212,140.41266 401.92112,137.76366 405.18812,137.76366 C 408.45812,137.76366 411.10712,140.41266 411.10712,143.68266"
     style="fill:#fb0945;stroke:none" />
  <path
     id="path82"
     d="M 411.10712,143.68266 C 411.10712,146.94966 408.45812,149.61066 405.18812,149.61066 C 401.92112,149.61066 399.27212,146.96166 399.27212,143.68266 C 399.27212,140.41266 401.92112,137.76366 405.18812,137.76366 C 408.45812,137.76366 411.10712,140.41266 411.10712,143.68266 z "
     style="fill:none;stroke:#000000;stroke-width:1.5" />
  <path
     id="path84"
     d="M 381.47012,174.06666 C 381.47012,177.33666 378.82112,179.99766 375.55412,179.99766 C 372.28412,179.99766 369.63512,177.34866 369.63512,174.06666 C 369.63512,170.79966 372.28412,168.13866 375.55412,168.13866 C 378.82112,168.13866 381.47012,170.78766 381.47012,174.06666"
     style="fill:#ffffff;stroke:none" />
  <path
     id="path86"
     d="M 381.47012,174.06666 C 381.47012,177.33666 378.82112,179.99766 375.55412,179.99766 C 372.28412,179.99766 369.63512,177.34866 369.63512,174.06666 C 369.63512,170.79966 372.28412,168.13866 375.55412,168.13866 C 378.82112,168.13866 381.47012,170.78766 381.47012,174.06666 z "
     style="fill:none;stroke:#000000;stroke-width:1.5" />
  <path
     id="path88"
     d="M 380.73212,209.64666 C 380.73212,212.91666 378.08312,215.57466 374.81312,215.57466 C 371.54612,215.57466 368.89712,212.92866 368.89712,209.64666 C 368.89712,206.37666 371.54612,203.71566 374.81312,203.71566 C 378.08312,203.71566 380.73212,206.36466 380.73212,209.64666"
     style="fill:#00ff33;stroke:none" />
  <path
     id="path90"
     d="M 380.73212,209.64666 C 380.73212,212.91666 378.08312,215.57466 374.81312,215.57466 C 371.54612,215.57466 368.89712,212.92866 368.89712,209.64666 C 368.89712,206.37666 371.54612,203.71566 374.81312,203.71566 C 378.08312,203.71566 380.73212,206.36466 380.73212,209.64666 z "
     style="fill:none;stroke:#000000;stroke-width:1.5" />
  <path
     id="path92"
     d="M 451.13912,209.64666 C 451.13912,212.91666 448.49012,215.57466 445.22012,215.57466 C 441.95012,215.57466 439.30412,212.92866 439.30412,209.64666 C 439.30412,206.37666 441.95012,203.71566 445.22012,203.71566 C 448.49012,203.71566 451.13912,206.36466 451.13912,209.64666"
     style="fill:#00ff33;stroke:none" />
  <path
     id="path94"
     d="M 451.13912,209.64666 C 451.13912,212.91666 448.49012,215.57466 445.22012,215.57466 C 441.95012,215.57466 439.30412,212.92866 439.30412,209.64666 C 439.30412,206.37666 441.95012,203.71566 445.22012,203.71566 C 448.49012,203.71566 451.13912,206.36466 451.13912,209.64666 z "
     style="fill:none;stroke:#000000;stroke-width:1.5" />
  <path
     id="path96"
     d="M 521.53412,209.64666 C 521.53412,212.91666 518.88512,215.57466 515.61512,215.57466 C 512.34512,215.57466 509.69612,212.92866 509.69612,209.64666 C 509.69612,206.37666 512.34512,203.71566 515.61512,203.71566 C 518.88512,203.71566 521.53412,206.36466 521.53412,209.64666"
     style="fill:#00ff33;stroke:none" />
  <path
     id="path98"
     d="M 521.53412,209.64666 C 521.53412,212.91666 518.88512,215.57466 515.61512,215.57466 C 512.34512,215.57466 509.69612,212.92866 509.69612,209.64666 C 509.69612,206.37666 512.34512,203.71566 515.61512,203.71566 C 518.88512,203.71566 521.53412,206.36466 521.53412,209.64666 z "
     style="fill:none;stroke:#000000;stroke-width:1.5" />
  <path
     id="path100"
     d="M 591.93812,209.64666 C 591.93812,212.91666 589.29212,215.57466 586.01012,215.57466 C 582.74012,215.57466 580.07912,212.92866 580.07912,209.64666 C 580.07912,206.37666 582.72812,203.71566 586.01012,203.71566 C 589.28012,203.71566 591.93812,206.36466 591.93812,209.64666"
     style="fill:#00ff33;stroke:none" />
  <path
     id="path102"
     d="M 591.93812,209.64666 C 591.93812,212.91666 589.29212,215.57466 586.01012,215.57466 C 582.74012,215.57466 580.07912,212.92866 580.07912,209.64666 C 580.07912,206.37666 582.72812,203.71566 586.01012,203.71566 C 589.28012,203.71566 591.93812,206.36466 591.93812,209.64666 z "
     style="fill:none;stroke:#000000;stroke-width:1.5" />
  <path
     id="path104"
     d="M 446.68712,167.40066 C 446.68712,170.67066 444.03812,173.31666 440.76812,173.31666 C 437.49812,173.31666 434.84912,170.67066 434.84912,167.40066 C 434.84912,164.13066 437.49812,161.48166 440.76812,161.48166 C 444.03812,161.48166 446.68712,164.13066 446.68712,167.40066"
     style="fill:#ffffff;stroke:none" />
  <path
     id="path106"
     d="M 446.68712,167.40066 C 446.68712,170.67066 444.03812,173.31666 440.76812,173.31666 C 437.49812,173.31666 434.84912,170.67066 434.84912,167.40066 C 434.84912,164.13066 437.49812,161.48166 440.76812,161.48166 C 444.03812,161.48166 446.68712,164.13066 446.68712,167.40066 z "
     style="fill:none;stroke:#000000;stroke-width:1.5" />
  <path
     id="path108"
     d="M 525.98612,163.69566 C 525.98612,166.96566 523.33712,169.62666 520.06712,169.62666 C 516.80012,169.62666 514.15112,166.97766 514.15112,163.69566 C 514.15112,160.42866 516.80012,157.77966 520.06712,157.77966 C 523.33712,157.77966 525.98612,160.42866 525.98612,163.69566"
     style="fill:#ffffff;stroke:none" />
  <path
     id="path110"
     d="M 525.98612,163.69566 C 525.98612,166.96566 523.33712,169.62666 520.06712,169.62666 C 516.80012,169.62666 514.15112,166.97766 514.15112,163.69566 C 514.15112,160.42866 516.80012,157.77966 520.06712,157.77966 C 523.33712,157.77966 525.98612,160.42866 525.98612,163.69566 z "
     style="fill:none;stroke:#000000;stroke-width:1.5" />
  <path
     id="path112"
     d="M 594.91712,174.07866 C 594.91712,177.34866 592.26812,180.00966 588.98612,180.00966 C 585.71612,180.00966 583.05812,177.36066 583.05812,174.07866 C 583.05812,170.80866 585.70412,168.15066 588.98612,168.15066 C 592.25612,168.15066 594.91712,170.79966 594.91712,174.07866"
     style="fill:#ffffff;stroke:none" />
  <path
     id="path114"
     d="M 594.91712,174.07866 C 594.91712,177.34866 592.26812,180.00966 588.98612,180.00966 C 585.71612,180.00966 583.05812,177.36066 583.05812,174.07866 C 583.05812,170.80866 585.70412,168.15066 588.98612,168.15066 C 592.25612,168.15066 594.91712,170.79966 594.91712,174.07866 z "
     style="fill:none;stroke:#000000;stroke-width:1.5" />
  <path
     id="path116"
     d="M 485.96612,138.50166 C 485.96612,141.77166 483.31712,144.42066 480.03812,144.42066 C 476.76812,144.42066 474.11912,141.77166 474.11912,138.50166 C 474.11912,135.23166 476.76812,132.57066 480.03812,132.57066 C 483.30812,132.57066 485.96612,135.21966 485.96612,138.50166"
     style="fill:#fb0945;stroke:none" />
  <path
     id="path118"
     d="M 485.96612,138.50166 C 485.96612,141.77166 483.31712,144.42066 480.03812,144.42066 C 476.76812,144.42066 474.11912,141.77166 474.11912,138.50166 C 474.11912,135.23166 476.76812,132.57066 480.03812,132.57066 C 483.30812,132.57066 485.96612,135.21966 485.96612,138.50166 z "
     style="fill:none;stroke:#000000;stroke-width:1.5" />
  <path
     id="path120"
     d="M 566.75612,145.90866 C 566.75612,149.17866 564.10712,151.82466 560.83712,151.82466 C 557.56712,151.82466 554.90912,149.17866 554.90912,145.90866 C 554.90912,142.63866 557.55812,139.98966 560.83712,139.98966 C 564.10712,139.98966 566.75612,142.63866 566.75612,145.90866"
     style="fill:#fb0945;stroke:none" />
  <path
     id="path122"
     d="M 566.75612,145.90866 C 566.75612,149.17866 564.10712,151.82466 560.83712,151.82466 C 557.56712,151.82466 554.90912,149.17866 554.90912,145.90866 C 554.90912,142.63866 557.55812,139.98966 560.83712,139.98966 C 564.10712,139.98966 566.75612,142.63866 566.75612,145.90866 z "
     style="fill:none;stroke:#000000;stroke-width:1.5" />
  <path
     id="path124"
     d="M 642.34112,169.62666 C 642.34112,172.89666 639.69212,175.55466 636.41312,175.55466 C 633.14312,175.55466 630.49412,172.90866 630.49412,169.62666 C 630.49412,166.35666 633.14312,163.69566 636.41312,163.69566 C 639.68312,163.69566 642.34112,166.34466 642.34112,169.62666"
     style="fill:#fb0945;stroke:none" />
  <path
     id="path126"
     d="M 642.34112,169.62666 C 642.34112,172.89666 639.69212,175.55466 636.41312,175.55466 C 633.14312,175.55466 630.49412,172.90866 630.49412,169.62666 C 630.49412,166.35666 633.14312,163.69566 636.41312,163.69566 C 639.68312,163.69566 642.34112,166.34466 642.34112,169.62666 z "
     style="fill:none;stroke:#000000;stroke-width:1.5" />
  <path
     id="path128"
     d="M 357.01412,202.22766 L 608.97812,202.22766 L 608.97812,196.30866 L 357.01412,196.30866 L 357.01412,202.22766 z "
     style="fill:#ffff00;stroke:none" />
  <path
     id="path130"
     d="M 357.01412,202.22766 L 608.97812,202.22766 L 608.97812,196.30866 L 357.01412,196.30866 L 357.01412,202.22766 z "
     style="fill:none;stroke:#000000;stroke-width:1.5" />
  <path
     id="path132"
     d="M 391.42112,210.09066 L 408.37712,203.61066 L 426.32912,210.09066 L 407.87312,216.06666 L 391.42112,210.09066"
     style="fill:#fb0945;stroke:none" />
  <path
     id="path134"
     d="M 391.42112,210.09066 L 408.37712,203.61066 L 426.32912,210.09066 L 407.87312,216.06666 L 391.42112,210.09066"
     style="fill:none;stroke:#000000;stroke-width:1.5" />
  <path
     id="path136"
     d="M 463.76012,210.09066 L 480.71612,203.61066 L 498.67112,210.09066 L 480.21212,216.06666 L 463.76012,210.09066"
     style="fill:#fb0945;stroke:none" />
  <path
     id="path138"
     d="M 463.76012,210.09066 L 480.71612,203.61066 L 498.67112,210.09066 L 480.21212,216.06666 L 463.76012,210.09066"
     style="fill:none;stroke:#000000;stroke-width:1.5" />
  <path
     id="path140"
     d="M 536.09912,210.09066 L 553.05812,203.61066 L 571.01012,210.09066 L 552.55412,216.06666 L 536.09912,210.09066"
     style="fill:#fb0945;stroke:none" />
  <path
     id="path142"
     d="M 536.09912,210.09066 L 553.05812,203.61066 L 571.01012,210.09066 L 552.55412,216.06666 L 536.09912,210.09066"
     style="fill:none;stroke:#000000;stroke-width:1.5" />
  <path
     id="path144"
     d="M 493.06712,335.00166 C 493.06712,335.00166 488.84912,340.00566 483.59912,341.50566 C 478.34912,343.00566 475.34912,346.00566 471.59912,344.50566 C 467.84912,343.00566 458.84912,342.25566 456.59912,342.25566 C 454.34912,342.25566 450.59912,341.50566 451.34912,339.25566 C 452.09912,337.00566 456.59912,332.50566 456.59912,332.50566 C 456.59912,332.50566 447.59912,340.00566 444.59912,342.25566 C 441.59912,344.50566 437.84912,346.75566 433.34912,346.00566 C 428.84912,345.25566 425.84912,341.50566 425.84912,341.50566 C 425.84912,341.50566 431.84912,340.75566 435.59912,337.75566 C 439.34912,334.75566 441.59912,329.50566 441.59912,329.50566 C 441.59912,329.50566 443.09912,322.00566 443.09912,318.25566 C 443.09912,314.50566 443.09912,313.00566 444.59912,310.75566 C 446.09912,308.50566 449.84912,308.50566 452.09912,308.50566 C 454.34912,308.50566 455.84912,304.75566 456.59912,302.50566 C 457.34912,300.25566 459.59912,299.50566 461.09912,302.50566 C 462.59912,305.50566 465.59912,305.50566 470.09912,307.00566 C 474.59912,308.50566 475.34912,310.00566 479.09912,310.00566 C 482.84912,310.00566 488.09912,304.00566 489.59912,301.75566 C 491.09912,299.50566 485.84912,300.25566 482.84912,301.00566 C 479.84912,301.75566 475.34912,298.00566 475.34912,295.75566 C 475.34912,293.50566 478.34912,292.75566 481.34912,292.75566 C 484.34912,292.75566 488.09912,294.25566 491.09912,293.50566 C 494.09912,292.75566 493.34912,289.75566 494.09912,287.50566 C 494.84912,285.25566 495.59912,279.25566 492.59912,278.50566 C 489.59912,277.75566 485.09912,277.00566 482.84912,277.75566 C 480.59912,278.50566 476.84912,280.00566 476.84912,277.75566 C 476.84912,275.50566 477.59912,268.00566 477.59912,265.75566 C 477.59912,263.50566 479.84912,264.25566 482.84912,263.50566 C 485.84912,262.75566 489.59912,259.75566 493.34912,259.00566 C 497.09912,258.25566 503.09912,256.00566 506.09912,256.00566 C 509.09912,256.00566 513.59912,256.75566 516.59912,256.00566 C 519.59912,255.25566 524.84912,253.00566 527.84912,251.50566 C 530.84912,250.00566 533.84912,248.50566 535.34912,251.50566 C 536.84912,254.50566 536.84912,259.00566 534.59912,260.50566 C 532.34912,262.00566 527.84912,265.00566 527.84912,265.00566 L 524.09912,265.75566 C 524.09912,265.75566 531.59912,264.25566 531.59912,266.50566 C 531.59912,268.75566 530.84912,274.75566 533.09912,277.75566 C 535.34912,280.75566 541.34912,280.75566 541.34912,283.75566 C 541.34912,286.75566 537.59912,292.00566 534.59912,292.00566 C 531.59912,292.00566 526.34912,287.50566 526.34912,287.50566 C 526.34912,287.50566 533.09912,291.25566 533.09912,295.00566 C 533.09912,298.75566 534.59912,302.50566 533.09912,304.75566 C 531.59912,307.00566 526.34912,309.25566 528.59912,312.25566 C 530.84912,315.25566 530.84912,319.00566 533.84912,318.25566 C 536.84912,317.50566 530.84912,322.75566 527.09912,322.00566 C 523.34912,321.25566 519.59912,314.50566 519.59912,314.50566 C 519.59912,314.50566 521.09912,318.25566 519.59912,321.25566 C 518.09912,324.25566 515.84912,325.75566 515.09912,330.25566 C 514.34912,334.75566 517.34912,340.00566 515.84912,343.00566 C 514.34912,346.00566 513.59912,349.75566 509.09912,347.50566 C 504.59912,345.25566 501.59912,345.25566 499.34912,341.50566 C 497.09912,337.75566 493.07912,335.00166 493.07912,335.00166"
     style="fill:#fb0945;stroke:none" />
  <path
     id="path146"
     d="M 493.06712,335.00166 C 493.06712,335.00166 488.84912,340.00566 483.59912,341.50566 C 478.34912,343.00566 475.34912,346.00566 471.59912,344.50566 C 467.84912,343.00566 458.84912,342.25566 456.59912,342.25566 C 454.34912,342.25566 450.59912,341.50566 451.34912,339.25566 C 452.09912,337.00566 456.59912,332.50566 456.59912,332.50566 C 456.59912,332.50566 447.59912,340.00566 444.59912,342.25566 C 441.59912,344.50566 437.84912,346.75566 433.34912,346.00566 C 428.84912,345.25566 425.84912,341.50566 425.84912,341.50566 C 425.84912,341.50566 431.84912,340.75566 435.59912,337.75566 C 439.34912,334.75566 441.59912,329.50566 441.59912,329.50566 C 441.59912,329.50566 443.09912,322.00566 443.09912,318.25566 C 443.09912,314.50566 443.09912,313.00566 444.59912,310.75566 C 446.09912,308.50566 449.84912,308.50566 452.09912,308.50566 C 454.34912,308.50566 455.84912,304.75566 456.59912,302.50566 C 457.34912,300.25566 459.59912,299.50566 461.09912,302.50566 C 462.59912,305.50566 465.59912,305.50566 470.09912,307.00566 C 474.59912,308.50566 475.34912,310.00566 479.09912,310.00566 C 482.84912,310.00566 488.09912,304.00566 489.59912,301.75566 C 491.09912,299.50566 485.84912,300.25566 482.84912,301.00566 C 479.84912,301.75566 475.34912,298.00566 475.34912,295.75566 C 475.34912,293.50566 478.34912,292.75566 481.34912,292.75566 C 484.34912,292.75566 488.09912,294.25566 491.09912,293.50566 C 494.09912,292.75566 493.34912,289.75566 494.09912,287.50566 C 494.84912,285.25566 495.59912,279.25566 492.59912,278.50566 C 489.59912,277.75566 485.09912,277.00566 482.84912,277.75566 C 480.59912,278.50566 476.84912,280.00566 476.84912,277.75566 C 476.84912,275.50566 477.59912,268.00566 477.59912,265.75566 C 477.59912,263.50566 479.84912,264.25566 482.84912,263.50566 C 485.84912,262.75566 489.59912,259.75566 493.34912,259.00566 C 497.09912,258.25566 503.09912,256.00566 506.09912,256.00566 C 509.09912,256.00566 513.59912,256.75566 516.59912,256.00566 C 519.59912,255.25566 524.84912,253.00566 527.84912,251.50566 C 530.84912,250.00566 533.84912,248.50566 535.34912,251.50566 C 536.84912,254.50566 536.84912,259.00566 534.59912,260.50566 C 532.34912,262.00566 527.84912,265.00566 527.84912,265.00566 L 524.09912,265.75566 C 524.09912,265.75566 531.59912,264.25566 531.59912,266.50566 C 531.59912,268.75566 530.84912,274.75566 533.09912,277.75566 C 535.34912,280.75566 541.34912,280.75566 541.34912,283.75566 C 541.34912,286.75566 537.59912,292.00566 534.59912,292.00566 C 531.59912,292.00566 526.34912,287.50566 526.34912,287.50566 C 526.34912,287.50566 533.09912,291.25566 533.09912,295.00566 C 533.09912,298.75566 534.59912,302.50566 533.09912,304.75566 C 531.59912,307.00566 526.34912,309.25566 528.59912,312.25566 C 530.84912,315.25566 530.84912,319.00566 533.84912,318.25566 C 536.84912,317.50566 530.84912,322.75566 527.09912,322.00566 C 523.34912,321.25566 519.59912,314.50566 519.59912,314.50566 C 519.59912,314.50566 521.09912,318.25566 519.59912,321.25566 C 518.09912,324.25566 515.84912,325.75566 515.09912,330.25566 C 514.34912,334.75566 517.34912,340.00566 515.84912,343.00566 C 514.34912,346.00566 513.59912,349.75566 509.09912,347.50566 C 504.59912,345.25566 501.59912,345.25566 499.34912,341.50566 C 497.09912,337.75566 493.07912,335.00166 493.07912,335.00166 L 493.06712,335.00166 z "
     style="fill:none;stroke:#000000;stroke-width:1.5" />
  <path
     id="path148"
     d="M 515.84912,278.50566 C 515.84912,278.50566 512.84912,279.25566 511.34912,282.25566 C 509.84912,285.25566 512.09912,286.00566 513.59912,289.00566 C 515.09912,292.00566 514.34912,295.00566 512.09912,295.00566 C 509.84912,295.00566 512.84912,298.75566 512.84912,298.75566 C 512.84912,298.75566 509.84912,299.50566 511.34912,303.25566 C 512.84912,307.00566 518.09912,306.25566 518.09912,306.25566 C 518.09912,306.25566 516.59912,308.50566 518.09912,311.50566 C 519.59912,314.50566 519.59912,314.50566 519.59912,314.50566"
     style="fill:none;stroke:#000000;stroke-width:1.5" />
  <path
     id="path150"
     d="M 498.59912,262.75566 C 498.59912,262.75566 498.59912,267.25566 500.84912,267.25566 C 502.03412,267.25566 502.59512,267.25566 502.86512,267.25566 C 503.08712,267.25566 503.08712,267.25566 503.08712,267.25566"
     style="fill:none;stroke:#000000;stroke-width:1.5" />
  <path
     id="path152"
     d="M 501.59912,280.75566 C 501.59912,280.75566 498.59912,282.25566 498.59912,284.50566 C 498.59912,286.75566 499.34912,292.00566 499.34912,292.00566"
     style="fill:none;stroke:#000000;stroke-width:1.5" />
  <path
     id="path154"
     d="M 498.59912,284.50566 L 494.84912,284.50566"
     style="fill:none;stroke:#000000;stroke-width:1.5" />
  <path
     id="path156"
     d="M 470.09912,313.75566 C 472.34912,313.75566 476.09912,310.75566 476.09912,310.75566 L 479.09912,310.00566"
     style="fill:none;stroke:#000000;stroke-width:1.5" />
  <path
     id="path158"
     d="M 496.11512,335.59866 C 496.11512,335.59866 500.83712,344.49366 503.83712,345.24366 C 506.83712,345.99366 511.33712,348.24366 512.83712,351.24366 C 514.33712,354.24366 521.08712,367.74366 522.58712,374.49366 C 524.08712,381.24366 531.58712,390.99366 531.58712,390.99366 C 531.58712,390.99366 539.08712,393.24366 532.33712,397.74366 C 525.58712,402.24366 512.08712,404.49366 509.08712,405.24366 C 506.08712,405.99366 504.58712,406.74366 499.33712,402.24366 C 494.08712,397.74366 488.08712,395.49366 482.08712,390.24366 C 476.08712,384.99366 468.58712,379.74366 468.58712,376.74366 C 468.58712,373.74366 467.15912,370.98966 472.39712,370.23966 C 477.64712,369.48966 484.44212,366.05466 488.19212,359.30466 C 491.94212,352.55466 491.69612,347.11866 492.44612,344.11866 C 493.19612,341.11866 496.07912,335.61066 496.07912,335.61066"
     style="fill:#fb0945;stroke:none" />
  <path
     id="path160"
     d="M 496.11512,335.59866 C 496.11512,335.59866 500.83712,344.49366 503.83712,345.24366 C 506.83712,345.99366 511.33712,348.24366 512.83712,351.24366 C 514.33712,354.24366 521.08712,367.74366 522.58712,374.49366 C 524.08712,381.24366 531.58712,390.99366 531.58712,390.99366 C 531.58712,390.99366 539.08712,393.24366 532.33712,397.74366 C 525.58712,402.24366 512.08712,404.49366 509.08712,405.24366 C 506.08712,405.99366 504.58712,406.74366 499.33712,402.24366 C 494.08712,397.74366 488.08712,395.49366 482.08712,390.24366 C 476.08712,384.99366 468.58712,379.74366 468.58712,376.74366 C 468.58712,373.74366 467.15912,370.98966 472.39712,370.23966 C 477.64712,369.48966 484.44212,366.05466 488.19212,359.30466 C 491.94212,352.55466 491.69612,347.11866 492.44612,344.11866 C 493.19612,341.11866 496.07912,335.61066 496.07912,335.61066 L 496.11512,335.59866 z "
     style="fill:none;stroke:#000000;stroke-width:1.5" />
  <path
     id="path162"
     d="M 456.59912,342.25566 C 461.09912,341.50566 464.84912,340.75566 467.84912,341.50566 C 470.84912,342.25566 475.34912,345.25566 480.59912,342.25566 C 485.84912,339.25566 488.25212,334.68366 491.25212,333.18366 C 494.25212,331.68366 496.33712,334.00566 496.33712,337.75566 C 496.33712,341.50566 496.33712,345.25566 494.08712,349.75566 C 491.83712,354.25566 494.08712,361.75566 486.58712,364.75566 C 479.08712,367.75566 473.08712,370.75566 470.08712,370.75566 C 467.08712,370.75566 462.58712,373.75566 458.08712,373.75566 C 453.58712,373.75566 448.33712,374.50566 447.58712,377.50566 C 446.83712,380.50566 445.33712,386.50566 445.33712,386.50566 C 445.33712,386.50566 445.33712,380.50566 442.33712,379.00566 C 439.33712,377.50566 437.08712,378.25566 436.33712,381.25566 C 435.58712,384.25566 432.58712,389.50566 432.58712,389.50566 C 432.58712,389.50566 432.58712,379.75566 429.58712,379.75566 C 426.58712,379.75566 426.58712,385.75566 426.58712,385.75566 L 421.33712,384.25566 L 419.54612,380.67066 L 418.34912,378.26766 C 418.34912,378.26766 419.84912,383.51766 417.59912,383.51766 C 415.34912,383.51766 411.59912,381.26766 411.59912,381.26766 C 411.59912,381.26766 407.84912,379.76766 407.09912,377.51766 C 406.34912,375.26766 404.84912,377.51766 402.59912,378.26766 C 400.34912,379.01766 396.59912,380.51766 395.84912,377.51766 C 395.09912,374.51766 392.09912,371.51766 392.84912,367.76766 C 393.59912,364.01766 394.34912,363.26766 397.34912,364.01766 C 400.34912,364.76766 402.59912,365.51766 402.59912,365.51766 C 402.59912,365.51766 398.09912,363.26766 396.59912,361.01766 C 395.09912,358.76766 395.09912,355.01766 398.84912,353.51766 C 402.59912,352.01766 407.09912,351.26766 407.09912,353.51766 C 407.09912,355.76766 404.84912,348.26766 408.59912,347.51766 C 412.34912,346.76766 413.09912,345.26766 416.84912,346.01766 C 420.59912,346.76766 421.34912,348.26766 421.34912,351.26766 C 421.34912,354.26766 420.59912,362.51766 420.59912,362.51766 C 420.59912,362.51766 418.34912,358.76766 422.84912,358.76766 C 427.34912,358.76766 431.84912,355.76766 435.59912,354.26766 C 439.34912,352.76766 442.34912,351.26766 447.59912,348.26766 C 452.84912,345.26766 456.59912,342.26766 456.59912,342.26766"
     style="fill:#fb0945;stroke:none" />
  <path
     id="path164"
     d="M 456.59912,342.25566 C 461.09912,341.50566 464.84912,340.75566 467.84912,341.50566 C 470.84912,342.25566 475.34912,345.25566 480.59912,342.25566 C 485.84912,339.25566 488.25212,334.68366 491.25212,333.18366 C 494.25212,331.68366 496.33712,334.00566 496.33712,337.75566 C 496.33712,341.50566 496.33712,345.25566 494.08712,349.75566 C 491.83712,354.25566 494.08712,361.75566 486.58712,364.75566 C 479.08712,367.75566 473.08712,370.75566 470.08712,370.75566 C 467.08712,370.75566 462.58712,373.75566 458.08712,373.75566 C 453.58712,373.75566 448.33712,374.50566 447.58712,377.50566 C 446.83712,380.50566 445.33712,386.50566 445.33712,386.50566 C 445.33712,386.50566 445.33712,380.50566 442.33712,379.00566 C 439.33712,377.50566 437.08712,378.25566 436.33712,381.25566 C 435.58712,384.25566 432.58712,389.50566 432.58712,389.50566 C 432.58712,389.50566 432.58712,379.75566 429.58712,379.75566 C 426.58712,379.75566 426.58712,385.75566 426.58712,385.75566 L 421.33712,384.25566 L 419.54612,380.67066 L 418.34912,378.26766 C 418.34912,378.26766 419.84912,383.51766 417.59912,383.51766 C 415.34912,383.51766 411.59912,381.26766 411.59912,381.26766 C 411.59912,381.26766 407.84912,379.76766 407.09912,377.51766 C 406.34912,375.26766 404.84912,377.51766 402.59912,378.26766 C 400.34912,379.01766 396.59912,380.51766 395.84912,377.51766 C 395.09912,374.51766 392.09912,371.51766 392.84912,367.76766 C 393.59912,364.01766 394.34912,363.26766 397.34912,364.01766 C 400.34912,364.76766 402.59912,365.51766 402.59912,365.51766 C 402.59912,365.51766 398.09912,363.26766 396.59912,361.01766 C 395.09912,358.76766 395.09912,355.01766 398.84912,353.51766 C 402.59912,352.01766 407.09912,351.26766 407.09912,353.51766 C 407.09912,355.76766 404.84912,348.26766 408.59912,347.51766 C 412.34912,346.76766 413.09912,345.26766 416.84912,346.01766 C 420.59912,346.76766 421.34912,348.26766 421.34912,351.26766 C 421.34912,354.26766 420.59912,362.51766 420.59912,362.51766 C 420.59912,362.51766 418.34912,358.76766 422.84912,358.76766 C 427.34912,358.76766 431.84912,355.76766 435.59912,354.26766 C 439.34912,352.76766 442.34912,351.26766 447.59912,348.26766 C 452.84912,345.26766 456.59912,342.26766 456.59912,342.26766 L 456.59912,342.25566 z "
     style="fill:none;stroke:#000000;stroke-width:1.5" />
  <path
     id="path166"
     d="M 442.34912,316.00566 C 442.34912,316.00566 443.09912,320.50566 442.34912,325.00566 C 441.59912,329.50566 434.84912,332.50566 432.59912,334.00566 C 430.34912,335.50566 427.34912,335.50566 424.34912,334.00566 C 421.34912,332.50566 418.34912,330.25566 418.34912,327.25566 C 418.34912,324.25566 420.59912,323.50566 423.59912,325.00566 C 426.59912,326.50566 428.09912,328.75566 431.09912,326.50566 C 434.09912,324.25566 436.34912,319.00566 439.34912,317.50566 C 442.34912,316.00566 442.34912,316.00566 442.34912,316.00566"
     style="fill:#fb0945;stroke:none" />
  <path
     id="path168"
     d="M 442.34912,316.00566 C 442.34912,316.00566 443.09912,320.50566 442.34912,325.00566 C 441.59912,329.50566 434.84912,332.50566 432.59912,334.00566 C 430.34912,335.50566 427.34912,335.50566 424.34912,334.00566 C 421.34912,332.50566 418.34912,330.25566 418.34912,327.25566 C 418.34912,324.25566 420.59912,323.50566 423.59912,325.00566 C 426.59912,326.50566 428.09912,328.75566 431.09912,326.50566 C 434.09912,324.25566 436.34912,319.00566 439.34912,317.50566 C 442.34912,316.00566 442.34912,316.00566 442.34912,316.00566 z "
     style="fill:none;stroke:#000000;stroke-width:1.5" />
  <path
     id="path170"
     d="M 431.84912,362.50566 C 434.09912,362.50566 441.59912,362.50566 441.59912,362.50566 L 446.84912,361.00566"
     style="fill:none;stroke:#000000;stroke-width:1.5" />
  <path
     id="path172"
     d="M 483.59912,374.50566 C 483.59912,377.50566 482.84912,381.25566 485.09912,382.00566 C 487.34912,382.75566 490.34912,382.00566 490.34912,385.00566 C 490.34912,388.00566 490.34912,390.25566 490.34912,390.25566"
     style="fill:none;stroke:#000000;stroke-width:1.5" />
  <path
     id="path174"
     d="M 437.84912,320.50566 C 437.84912,320.50566 440.09912,321.25566 442.34912,316.00566 C 444.59912,310.75566 447.59912,308.50566 449.84912,308.50566 C 452.09912,308.50566 456.59912,302.50566 456.59912,302.50566 C 456.59912,302.50566 455.09912,301.75566 448.34912,299.50566 C 441.59912,297.25566 433.34912,287.50566 431.84912,283.75566 C 430.34912,280.00566 427.34912,271.00566 427.34912,267.25566 C 427.34912,263.50566 425.84912,262.75566 423.59912,260.50566 C 421.34912,258.25566 420.59912,256.00566 416.84912,257.50566 C 413.09912,259.00566 412.34912,263.50566 412.34912,263.50566 C 412.34912,263.50566 411.59912,261.25566 408.59912,260.50566 C 405.59912,259.75566 403.34912,258.25566 401.84912,261.25566 C 400.34912,264.25566 400.34912,266.50566 401.84912,268.75566 C 403.34912,271.00566 406.34912,273.25566 406.34912,273.25566 C 406.34912,273.25566 398.84912,268.00566 396.59912,270.25566 C 394.34912,272.50566 391.34912,273.25566 393.59912,277.00566 C 395.84912,280.75566 399.59912,283.75566 399.59912,283.75566 C 399.59912,283.75566 395.84912,282.25566 394.34912,286.00566 C 392.84912,289.75566 390.59912,291.25566 393.59912,292.75566 C 396.59912,294.25566 397.34912,295.75566 401.09912,295.00566 C 404.84912,294.25566 406.34912,292.00566 409.34912,293.50566 C 412.34912,295.00566 414.59912,292.75566 414.59912,296.50566 C 414.59912,300.25566 413.09912,302.50566 416.09912,305.50566 C 419.09912,308.50566 417.59912,310.00566 422.84912,313.00566 C 428.09912,316.00566 429.59912,319.00566 432.59912,319.75566 C 435.59912,320.50566 437.84912,320.50566 437.84912,320.50566"
     style="fill:#fb0945;stroke:none" />
  <path
     id="path176"
     d="M 437.84912,320.50566 C 437.84912,320.50566 440.09912,321.25566 442.34912,316.00566 C 444.59912,310.75566 447.59912,308.50566 449.84912,308.50566 C 452.09912,308.50566 456.59912,302.50566 456.59912,302.50566 C 456.59912,302.50566 455.09912,301.75566 448.34912,299.50566 C 441.59912,297.25566 433.34912,287.50566 431.84912,283.75566 C 430.34912,280.00566 427.34912,271.00566 427.34912,267.25566 C 427.34912,263.50566 425.84912,262.75566 423.59912,260.50566 C 421.34912,258.25566 420.59912,256.00566 416.84912,257.50566 C 413.09912,259.00566 412.34912,263.50566 412.34912,263.50566 C 412.34912,263.50566 411.59912,261.25566 408.59912,260.50566 C 405.59912,259.75566 403.34912,258.25566 401.84912,261.25566 C 400.34912,264.25566 400.34912,266.50566 401.84912,268.75566 C 403.34912,271.00566 406.34912,273.25566 406.34912,273.25566 C 406.34912,273.25566 398.84912,268.00566 396.59912,270.25566 C 394.34912,272.50566 391.34912,273.25566 393.59912,277.00566 C 395.84912,280.75566 399.59912,283.75566 399.59912,283.75566 C 399.59912,283.75566 395.84912,282.25566 394.34912,286.00566 C 392.84912,289.75566 390.59912,291.25566 393.59912,292.75566 C 396.59912,294.25566 397.34912,295.75566 401.09912,295.00566 C 404.84912,294.25566 406.34912,292.00566 409.34912,293.50566 C 412.34912,295.00566 414.59912,292.75566 414.59912,296.50566 C 414.59912,300.25566 413.09912,302.50566 416.09912,305.50566 C 419.09912,308.50566 417.59912,310.00566 422.84912,313.00566 C 428.09912,316.00566 429.59912,319.00566 432.59912,319.75566 C 435.59912,320.50566 437.84912,320.50566 437.84912,320.50566 z "
     style="fill:none;stroke:#000000;stroke-width:1.5" />
  <path
     id="path178"
     d="M 421.34912,298.75566 C 422.84912,301.00566 424.34912,303.25566 425.84912,305.50566"
     style="fill:none;stroke:#000000;stroke-width:1.5" />
  <path
     id="path180"
     d="M 407.84912,289.00566 C 407.84912,291.25566 409.34912,293.50566 409.34912,293.50566"
     style="fill:none;stroke:#000000;stroke-width:1.5" />
  <path
     id="path182"
     d="M 633.59912,435.25566 C 633.59912,435.25566 595.34912,415.75566 561.59912,415.75566 C 527.84912,415.75566 506.84912,433.00566 482.84912,433.00566 C 458.84912,433.00566 427.34912,414.25566 401.09912,414.25566 C 374.84912,414.25566 347.09912,433.75566 347.09912,433.75566 L 347.09912,407.50566 C 347.09912,407.50566 374.84912,388.00566 401.09912,388.00566 C 427.34912,388.00566 458.84912,406.75566 482.84912,406.75566 C 506.84912,406.75566 527.84912,389.50566 561.59912,389.50566 C 595.34912,389.50566 633.59912,409.00566 633.59912,409.00566 L 633.59912,435.25566"
     style="fill:#002fff;stroke:none" />
  <path
     id="path186"
     d="M 568.22002,511.71661 C 554.43877,506.84161 578.47412,511.75566 561.59912,511.75566 C 527.84912,511.75566 506.84912,529.00566 482.84912,529.00566 C 458.84912,529.00566 427.34912,510.25566 401.09912,510.25566 C 387.97412,510.25566 416.94135,504.04599 394.48627,511.08034 C 382.97191,499.11241 387.14666,502.66145 378.86698,488.57322 C 389.01375,483.69822 387.97412,484.00566 401.09912,484.00566 C 427.34912,484.00566 458.84912,502.75566 482.84912,502.75566 C 506.84912,502.75566 527.84912,485.50566 561.59912,485.50566 C 578.47412,485.50566 565.95531,484.04657 586.07065,488.34574"
     style="fill:#002fff;stroke:none"
     sodipodi:nodetypes="csssccsssc" />
  <path
     id="path188"
     d="M 547.34912,361.00566 C 547.34912,365.50566 548.84912,369.25566 546.59912,373.00566 C 544.34912,376.75566 554.09912,370.00566 554.09912,370.00566 C 554.09912,370.00566 557.84912,370.75566 558.59912,366.25566 C 559.34912,361.75566 563.09912,350.50566 557.84912,349.75566 C 552.59912,349.00566 547.34912,361.00566 547.34912,361.00566"
     style="fill:#fb0945;stroke:none" />
  <path
     id="path190"
     d="M 547.34912,361.00566 C 547.34912,365.50566 548.84912,369.25566 546.59912,373.00566 C 544.34912,376.75566 554.09912,370.00566 554.09912,370.00566 C 554.09912,370.00566 557.84912,370.75566 558.59912,366.25566 C 559.34912,361.75566 563.09912,350.50566 557.84912,349.75566 C 552.59912,349.00566 547.34912,361.00566 547.34912,361.00566 z "
     style="fill:none;stroke:#000000;stroke-width:1.5" />
  <path
     id="path192"
     d="M 359.28812,238.68366 L 600.77612,238.68366 C 600.77612,238.68366 603.77612,383.43366 603.77612,425.43366 C 603.77612,467.43366 571.52612,546.93366 483.77612,546.93366 C 396.03812,546.93366 360.03812,471.93366 360.03812,427.68366 C 360.03812,383.43366 359.28812,238.68366 359.28812,238.68366 z "
     style="fill:none;stroke:#000000;stroke-width:1.5" />
  <path
     id="path194"
     d="M 502.67912,267.16266 C 502.67912,267.16266 503.24012,267.40866 503.36912,266.72766 C 503.49812,266.04966 503.80412,264.59466 502.86512,264.71166 C 501.92912,264.82866 500.97812,266.72766 500.97812,266.72766 L 501.91712,266.78766 L 503.04212,267.09066"
     style="fill:#000000;stroke:none" />
  <path
     id="path196"
     d="M 502.67912,267.16266 C 502.67912,267.16266 503.24012,267.40866 503.36912,266.72766 C 503.49812,266.04966 503.80412,264.59466 502.86512,264.71166 C 501.92912,264.82866 500.97812,266.72766 500.97812,266.72766 L 501.91712,266.78766 L 503.04212,267.09066"
     style="fill:none;stroke:#000000;stroke-width:1.5" />
  <path
     id="path198"
     d="M 603.50612,223.20366 C 603.50612,225.73566 601.45412,227.79966 598.91312,227.79966 L 364.79612,227.79966 C 362.26412,227.79966 360.20012,225.74766 360.20012,223.20366 C 360.20012,220.67466 362.25212,218.61066 364.79612,218.61066 L 598.91312,218.61066 C 601.44212,218.61066 603.50612,220.66266 603.50612,223.20366"
     style="fill:#ffff00;stroke:none" />
  <path
     id="path200"
     d="M 603.50612,223.20366 C 603.50612,225.73566 601.45412,227.79966 598.91312,227.79966 L 364.79612,227.79966 C 362.26412,227.79966 360.20012,225.74766 360.20012,223.20366 L 360.20012,223.20366 C 360.20012,220.67466 362.25212,218.61066 364.79612,218.61066 L 598.91312,218.61066 C 601.44212,218.61066 603.50612,220.66266 603.50612,223.20366 L 603.50612,223.20366"
     style="fill:none;stroke:#000000;stroke-width:1.5" />
</svg>
