<?xml version="1.0" encoding="UTF-8" standalone="no"?>
<svg
   xmlns:dc="http://purl.org/dc/elements/1.1/"
   xmlns:cc="http://web.resource.org/cc/"
   xmlns:rdf="http://www.w3.org/1999/02/22-rdf-syntax-ns#"
   xmlns:svg="http://www.w3.org/2000/svg"
   xmlns="http://www.w3.org/2000/svg"
   xmlns:sodipodi="http://inkscape.sourceforge.net/DTD/sodipodi-0.dtd"
   xmlns:inkscape="http://www.inkscape.org/namespaces/inkscape"
   width="693pt"
   height="468pt"
   id="svg2"
   sodipodi:version="0.32"
   inkscape:version="0.43"
   sodipodi:docname="netherlands_friese.svg"
   sodipodi:docbase="/home/demailly/ajour/flags"
   version="1.0">
  <metadata
     id="metadata41">
    <rdf:RDF>
      <cc:Work
         rdf:about="">
        <dc:format>image/svg+xml</dc:format>
        <dc:type
           rdf:resource="http://purl.org/dc/dcmitype/StillImage" />
      </cc:Work>
    </rdf:RDF>
  </metadata>
  <sodipodi:namedview
     inkscape:cy="259.07662"
     inkscape:cx="463.39467"
     inkscape:zoom="1.2279853"
     inkscape:window-height="1063"
     inkscape:window-width="1292"
     inkscape:pageshadow="2"
     inkscape:pageopacity="0.0"
     borderopacity="1.0"
     bordercolor="#666666"
     pagecolor="#ffffff"
     id="base"
     inkscape:window-x="127"
     inkscape:window-y="71"
     inkscape:current-layer="svg2" />
  <defs
     id="defs4">
    <marker
       id="ArrowEnd"
       viewBox="0 0 10 10"
       refX="0"
       refY="5"
       markerUnits="strokeWidth"
       markerWidth="4"
       markerHeight="3"
       orient="auto">
      <path
         d="M 0,0 L 10,5 L 0,10 L 0,0 z "
         id="path7" />
    </marker>
    <marker
       id="ArrowStart"
       viewBox="0 0 10 10"
       refX="10"
       refY="5"
       markerUnits="strokeWidth"
       markerWidth="4"
       markerHeight="3"
       orient="auto">
      <path
         d="M 10,0 L 0,5 L 10,10 L 10,0 z "
         id="path10" />
    </marker>
  </defs>
  <g
     id="g12"
     transform="matrix(3,0,0,3,-13.66473,-13.64793)">
    <path
       style="fill:#ffffff;stroke:none"
       d="M 5.24084,197.975 L 292.034,197.975 L 292.034,5.24084 L 5.24084,5.24084 L 5.24084,197.975 z "
       id="path14" />
    <path
       style="fill:#007eff;stroke:none"
       d="M 73.4908,197.975 C 34.0688,197.975 5.24384,197.975 5.24384,197.975 C 5.24384,197.975 5.24384,177.061 5.24384,149.034 L 5.24384,148.78 L 73.5768,197.979"
       id="path16" />
    <path
       style="fill:#007eff;stroke:none"
       d="M 243.514,197.588 L 5.25984,29.8378 L 5.24084,30.4438 C 5.24084,45.6698 5.24084,66.4318 5.24084,88.1628 L 5.73283,88.7488 C 32.3188,107.487 160.143,197.584 160.143,197.584 L 243.51,197.584"
       id="path18" />
    <path
       style="fill:#007eff;stroke:none"
       d="M 223.784,5.23682 C 263.205,5.23682 292.03,5.23682 292.03,5.23682 C 292.03,5.23682 292.03,26.1508 292.03,54.1778 L 292.03,54.4318 L 223.698,5.23285"
       id="path20" />
    <path
       style="fill:#007eff;stroke:none"
       d="M 53.7598,5.62384 L 292.014,173.374 L 292.034,172.768 C 292.034,157.542 292.034,136.78 292.034,115.049 L 291.541,114.463 C 264.955,95.7208 137.131,5.6308 137.131,5.6308 L 53.7638,5.6308"
       id="path22" />
    <path
       style="fill:none;stroke:#000000;stroke-width:1"
       d="M 5.24084,197.975 L 292.034,197.975 L 292.034,5.24084 L 5.24084,5.24084 L 5.24084,197.975 z "
       id="path24" />
    <path
       style="fill:#ff0000;stroke:none"
       d="M 236.022,152.213 C 236.327,150.19 236.389,145.502 231.534,141.624 C 225.135,136.518 217.678,140.288 214.741,144.76 C 214.741,144.76 205.369,158.643 221.725,171.389 L 221.772,171.424 C 238.67,183.44 249.284,170.487 249.284,170.487 C 252.729,166.393 254.205,158.166 247.479,153.499 C 242.412,149.983 236.022,152.213 236.022,152.213"
       id="path26" />
    <path
       style="fill:#ff0000;stroke:none"
       d="M 153.85,93.8378 C 154.155,91.8148 154.217,87.1268 149.362,83.2488 C 142.963,78.1428 135.506,81.9128 132.569,86.3848 C 132.569,86.3848 123.198,100.268 139.553,113.014 L 139.6,113.049 C 156.498,125.065 167.112,112.112 167.112,112.112 C 170.557,108.022 172.034,99.7918 165.307,95.1238 C 160.241,91.6078 153.85,93.8378 153.85,93.8378"
       id="path28" />
    <path
       style="fill:#ff0000;stroke:none"
       d="M 67.7478,34.3848 C 68.0528,32.3618 68.1158,27.6698 63.2598,23.7948 C 56.8618,18.6898 49.4048,22.4588 46.4668,26.9318 C 46.4668,26.9318 37.0958,40.8148 53.4508,53.5608 L 53.4978,53.5958 C 70.3968,65.6118 81.0098,52.6588 81.0098,52.6588 C 84.4548,48.5648 85.9318,40.3378 79.2048,35.6698 C 74.1388,32.1548 67.7478,34.3848 67.7478,34.3848"
       id="path30" />
    <path
       style="fill:#ff0000;stroke:none"
       d="M 90.2478,167.639 C 90.5488,165.616 90.6158,160.924 85.7598,157.049 C 79.3618,151.944 71.9048,155.717 68.9668,160.19 C 68.9668,160.19 59.5958,174.073 75.9478,186.819 L 75.9978,186.854 C 92.8968,198.87 103.51,185.916 103.51,185.916 C 106.955,181.823 108.432,173.596 101.705,168.928 C 96.6388,165.413 90.2478,167.643 90.2478,167.643"
       id="path32" />
    <path
       style="fill:#ff0000;stroke:none"
       d="M 34.9478,127.374 C 35.2518,125.35 35.3148,120.659 30.4588,116.784 C 24.0608,111.678 16.6038,115.448 13.6658,119.92 C 13.6658,119.92 4.29485,133.803 20.6508,146.549 L 20.6978,146.584 C 37.5958,158.6 48.2088,145.647 48.2088,145.647 C 51.6548,141.557 53.1308,133.327 46.4048,128.659 C 41.3378,125.143 34.9478,127.374 34.9478,127.374"
       id="path34" />
    <path
       style="fill:#ff0000;stroke:none"
       d="M 269.385,59.6698 C 269.69,57.6469 269.752,52.9588 264.897,49.0808 C 258.498,43.9748 251.041,47.7448 248.104,52.2168 C 248.104,52.2168 238.733,66.0998 255.084,78.8458 L 255.131,78.8808 C 272.03,90.8969 282.643,77.9438 282.643,77.9438 C 286.088,73.8498 287.565,65.6238 280.838,60.9558 C 275.772,57.4398 269.381,59.6698 269.381,59.6698"
       id="path36" />
    <path
       style="fill:#ff0000;stroke:none"
       d="M 218.084,23.4048 C 218.385,21.3808 218.451,16.6898 213.596,12.8148 C 207.198,7.7088 199.741,11.4828 196.803,15.9558 C 196.803,15.9558 187.432,29.8378 203.784,42.5838 L 203.834,42.6198 C 220.733,54.6348 231.346,41.6818 231.346,41.6818 C 234.791,37.5878 236.268,29.3618 229.541,24.6938 C 224.475,21.1778 218.084,23.4088 218.084,23.4088"
       id="path38" />
  </g>
</svg>
