<?xml version="1.0" encoding="UTF-8" standalone="no"?>
<svg
   xmlns:dc="http://purl.org/dc/elements/1.1/"
   xmlns:cc="http://web.resource.org/cc/"
   xmlns:rdf="http://www.w3.org/1999/02/22-rdf-syntax-ns#"
   xmlns:svg="http://www.w3.org/2000/svg"
   xmlns="http://www.w3.org/2000/svg"
   xmlns:sodipodi="http://inkscape.sourceforge.net/DTD/sodipodi-0.dtd"
   xmlns:inkscape="http://www.inkscape.org/namespaces/inkscape"
   width="790"
   height="496"
   id="svg2"
   sodipodi:version="0.32"
   inkscape:version="0.43"
   sodipodi:docname="nl_sint_maarten.svg"
   sodipodi:docbase="/home/demailly">
  <metadata
     id="metadata353">
    <rdf:RDF>
      <cc:Work
         rdf:about="">
        <dc:format>image/svg+xml</dc:format>
        <dc:type
           rdf:resource="http://purl.org/dc/dcmitype/StillImage" />
      </cc:Work>
    </rdf:RDF>
  </metadata>
  <sodipodi:namedview
     inkscape:cy="373.70954"
     inkscape:cx="323.43508"
     inkscape:zoom="0.86831672"
     inkscape:window-height="1003"
     inkscape:window-width="1142"
     inkscape:pageshadow="2"
     inkscape:pageopacity="0.0"
     borderopacity="1.0"
     bordercolor="#666666"
     pagecolor="#ffffff"
     id="base"
     inkscape:window-x="142"
     inkscape:window-y="45"
     inkscape:current-layer="svg2"
     showguides="true"
     inkscape:guide-bbox="true" />
  <defs
     id="defs4">
    <marker
       id="ArrowEnd"
       viewBox="0 0 10 10"
       refX="0"
       refY="5"
       markerUnits="strokeWidth"
       markerWidth="4"
       markerHeight="3"
       orient="auto">
      <path
         d="M 0 0 L 10 5 L 0 10 z"
         id="path7" />
    </marker>
    <marker
       id="ArrowStart"
       viewBox="0 0 10 10"
       refX="10"
       refY="5"
       markerUnits="strokeWidth"
       markerWidth="4"
       markerHeight="3"
       orient="auto">
      <path
         d="M 10 0 L 0 5 L 10 10 z"
         id="path10" />
    </marker>
  </defs>
  <g
     id="g2367">
    <path
       style="fill:#000000;stroke:none"
       d="M -1354.581,4160.341 L -1354.581,4160.341 L -1354.581,4160.341 L -1354.581,4160.341"
       id="path14" />
    <path
       sodipodi:nodetypes="ccccc"
       style="fill:#ffffff;fill-opacity:1;stroke:none"
       d="M 788.613,493.06359 L 786.507,1.226004 L 0.45300024,0.595752 L 0.24969321,492.99742 L 788.613,493.06359"
       id="path180" />
    <path
       style="fill:#ffff00;stroke:none"
       d="M 155.163,186.99219 L 155.253,183.58359 C 155.253,183.58359 153.423,180.66819 155.547,177.53559 C 155.547,177.53559 151.035,175.14819 152.085,171.40959 C 152.085,171.40959 148.005,170.36619 148.305,165.87759 C 148.305,165.87759 143.901,165.57219 143.445,161.82219 C 143.445,161.82219 139.041,162.54759 137.103,158.89359 C 137.103,158.89359 132.807,159.73359 131.595,156.72159 C 131.595,156.72159 127.419,158.16819 124.941,154.62759 C 124.941,154.62759 120.531,156.40959 118.683,153.06759 C 116.859,156.39819 112.449,154.62759 112.449,154.62759 C 110.001,158.15559 105.795,156.69159 105.795,156.69159 C 104.625,159.71559 100.341,158.85759 100.341,158.85759 C 98.409,162.51219 94.011,161.78559 94.011,161.78559 C 93.579,165.52419 89.181,165.82959 89.181,165.82959 C 89.529,170.32959 85.455,171.35019 85.455,171.35019 C 86.529,175.08819 82.023,177.46959 82.023,177.46959 C 84.201,180.62019 82.389,183.51219 82.389,183.51219 L 82.287,186.65559 L 155.175,186.99219"
       id="path182" />
    <path
       style="fill:none;stroke:#000000;stroke-width:0.0910962"
       d="M 155.163,186.99219 L 155.253,183.58359 C 155.253,183.58359 153.423,180.66819 155.547,177.53559 C 155.547,177.53559 151.035,175.14819 152.085,171.40959 C 152.085,171.40959 148.005,170.36619 148.305,165.87759 C 148.305,165.87759 143.901,165.57219 143.445,161.82219 C 143.445,161.82219 139.041,162.54759 137.103,158.89359 C 137.103,158.89359 132.807,159.73359 131.595,156.72159 C 131.595,156.72159 127.419,158.16819 124.941,154.62759 C 124.941,154.62759 120.531,156.40959 118.683,153.06759 C 116.859,156.39819 112.449,154.62759 112.449,154.62759 C 110.001,158.15559 105.795,156.69159 105.795,156.69159 C 104.625,159.71559 100.341,158.85759 100.341,158.85759 C 98.409,162.51219 94.011,161.78559 94.011,161.78559 C 93.579,165.52419 89.181,165.82959 89.181,165.82959 C 89.529,170.32959 85.455,171.35019 85.455,171.35019 C 86.529,175.08819 82.023,177.46959 82.023,177.46959 C 84.201,180.62019 82.389,183.51219 82.389,183.51219 L 82.287,186.65559 L 155.175,186.99219 L 155.163,186.99219 z "
       id="path184" />
    <path
       style="fill:#ff0000;stroke:none"
       d="M 153.459,182.73759 C 142.011,181.59159 128.829,178.87359 118.653,184.60419 C 111.831,180.58359 102.333,180.82959 94.245,181.61619 C 89.853,182.40219 84.687,182.40219 80.097,183.15219 L 79.377,183.25359 C 71.049,183.80619 63.495,181.34559 56.259,178.11159 C 58.557,191.15559 61.107,204.52419 62.361,218.18019 C 65.091,238.40559 52.791,255.38619 57.837,275.36619 C 60.849,284.95359 71.391,290.52759 81.039,291.63219 C 90.381,292.18359 100.047,293.71419 108.693,295.59159 C 110.337,295.93359 112.287,296.69619 113.421,297.18759 C 115.803,298.18359 117.549,299.64819 119.079,301.21419 C 124.299,295.77759 131.949,294.26559 139.497,293.46759 C 153.099,291.87759 169.869,292.74219 178.197,280.41819 L 178.197,279.72159 C 182.721,272.90559 182.121,262.50819 180.159,254.78559 C 180.027,252.09159 179.307,249.71559 178.917,247.14819 C 170.607,225.19959 177.723,200.51559 181.299,178.39359 C 176.931,180.78159 172.059,181.90959 167.199,183.10419 C 163.323,183.62019 159.003,183.38619 155.079,183.17559 L 153.453,182.73759"
       id="path186" />
    <path
       style="fill:#80cfe1;stroke:none"
       d="M 170.559,245.72619 C 170.505,247.17159 171.285,248.30619 171.567,249.64359 C 173.157,259.23759 174.693,271.94619 164.817,277.89819 C 153.891,284.84559 139.563,281.87019 126.921,285.54759 C 124.395,286.24959 120.915,288.57219 119.139,290.21559 C 117.999,289.46559 116.853,288.31359 115.383,287.63619 C 104.979,282.10419 91.455,283.95759 79.713,280.96959 C 73.815,279.10419 67.665,274.50819 66.171,268.47159 C 62.331,252.63219 71.529,239.13219 70.443,223.41819 C 69.741,211.41819 67.725,199.89819 64.953,188.64819 C 74.133,192.92559 84.759,193.63959 95.079,191.58819 C 102.723,190.51959 111.621,190.49619 118.785,193.73019 C 122.733,192.03159 127.353,191.26959 131.607,190.80159 C 139.695,191.58819 148.389,193.05159 156.717,192.99219 C 162.279,192.70359 167.331,191.09559 172.167,188.95359 C 169.299,207.54759 163.791,227.02419 170.553,245.72619"
       id="path188" />
    <path
       style="fill:#ffffff;stroke:none"
       d="M 154.047,249.43359 L 153.957,231.94959 L 156.111,231.94959 L 129.387,214.68759 L 129.339,205.71759 L 131.919,205.71759 L 118.557,196.14819 L 105.261,205.71219 L 107.835,205.71219 L 107.883,214.67559 L 81.303,231.91419 L 83.427,231.92559 L 83.517,249.39819 L 154.041,249.44619"
       id="path190" />
    <path
       style="fill:none;stroke:#000000;stroke-width:0.391;stroke-miterlimit:4;stroke-dasharray:none"
       d="M 154.047,249.43359 L 153.957,231.94959 L 156.111,231.94959 L 129.387,214.68759 L 129.339,205.71759 L 131.919,205.71759 L 118.557,196.14819 L 105.261,205.71219 L 107.835,205.71219 L 107.883,214.67559 L 81.303,231.91419 L 83.427,231.92559 L 83.517,249.39819 L 154.041,249.44619 L 154.047,249.43359 z "
       id="path192" />
    <path
       style="fill:#ff0000;stroke:none"
       d="M 786.97518,245.61142 L 785.93718,0.6618952 L 0.45900024,0.595752 L 368.463,244.71759"
       id="path194"
       sodipodi:nodetypes="cccc" />
    <path
       sodipodi:nodetypes="ccccc"
       style="fill:#0950a0;stroke:none"
       d="M 788.613,493.06359 L 787.545,245.03559 L 368.457,244.71759 L 0.24369321,492.43359 L 788.607,493.07559"
       id="path196" />
    <path
       style="fill:#ffffff;stroke:none"
       d="M 162.261,272.40219 L 162.267,277.87359 L 76.173,277.77759 L 76.137,272.32959 L 162.267,272.40219"
       id="path198" />
    <path
       style="fill:none;stroke:#000000;stroke-width:0.391;stroke-miterlimit:4;stroke-dasharray:none"
       d="M 162.261,272.40219 L 162.267,277.87359 L 76.173,277.77759 L 76.137,272.32959 L 162.267,272.40219 L 162.261,272.40219 z "
       id="path200" />
    <path
       sodipodi:nodetypes="cccccccccccccc"
       style="fill:#ffffff;stroke:none"
       d="M 81.891,272.07219 L 81.819,253.55619 L 85.304783,253.54955 L 85.113,272.28159 L 85.322913,253.70015 L 80.301,253.55619 L 80.301,249.58359 L 157.245,249.66819 L 157.281,253.60419 L 152.535,253.60419 L 152.625,272.35419 L 152.457,253.60419 L 155.991,253.60419 L 156.069,272.14359"
       id="path202" />
    <path
       sodipodi:nodetypes="cccccccccccccc"
       style="fill:none;stroke:#000000;stroke-width:0.391;stroke-miterlimit:4;stroke-dasharray:none"
       d="M 81.891,272.07219 L 81.819,253.55619 L 85.304783,253.54955 L 85.113,272.28159 L 85.322913,253.70015 L 80.301,253.55619 L 80.301,249.58359 L 157.245,249.66819 L 157.281,253.60419 L 152.535,253.60419 L 152.625,272.35419 L 152.457,253.60419 L 155.991,253.60419 L 156.069,272.14359"
       id="path204" />
    <path
       style="fill:none;stroke:#000000;stroke-width:0.391;stroke-miterlimit:4;stroke-dasharray:none"
       d="M 98.433,267.51219 L 98.379,254.60019 L 88.047,254.60019 L 88.107,267.49959 L 98.433,267.51219"
       id="path206" />
    <path
       style="fill:none;stroke:#000000;stroke-width:0.391;stroke-miterlimit:4;stroke-dasharray:none"
       d="M 90.861,257.29359 L 90.891,264.79359 L 95.619,264.79359 L 95.595,257.29359 L 90.861,257.29359"
       id="path208" />
    <path
       style="fill:none;stroke:#000000;stroke-width:0.391;stroke-miterlimit:4;stroke-dasharray:none"
       d="M 148.941,267.54759 L 148.881,254.64819 L 138.585,254.63619 L 138.633,267.54759 L 148.941,267.54759"
       id="path210" />
    <path
       style="fill:none;stroke:#000000;stroke-width:0.391;stroke-miterlimit:4;stroke-dasharray:none"
       d="M 141.369,257.34159 L 141.423,264.81759 L 146.145,264.81759 L 146.103,257.34159 L 141.369,257.34159"
       id="path212" />
    <path
       style="fill:none;stroke:#000000;stroke-width:0.391;stroke-miterlimit:4;stroke-dasharray:none"
       d="M 148.863,246.52419 L 148.803,233.61159 L 138.495,233.61159 L 138.531,246.52419 L 148.869,246.52419 L 148.863,246.52419 z "
       id="path214" />
    <path
       style="fill:none;stroke:#000000;stroke-width:0.391;stroke-miterlimit:4;stroke-dasharray:none"
       d="M 141.291,236.32959 L 141.321,243.81759 L 146.043,243.81759 L 146.037,236.32959 L 141.291,236.32959"
       id="path216" />
    <path
       style="fill:none;stroke:#000000;stroke-width:0.391;stroke-miterlimit:4;stroke-dasharray:none"
       d="M 98.349,246.47619 L 98.277,233.58819 L 87.963,233.57559 L 88.011,246.46959 L 98.349,246.46959 L 98.349,246.47619 z "
       id="path218" />
    <path
       style="fill:none;stroke:#000000;stroke-width:0.391;stroke-miterlimit:4;stroke-dasharray:none"
       d="M 90.777,236.28159 L 90.801,243.75819 L 95.535,243.76959 L 95.499,236.28159 L 90.777,236.28159"
       id="path220" />
    <path
       style="fill:none;stroke:#000000;stroke-width:0.391;stroke-miterlimit:4;stroke-dasharray:none"
       d="M 117.045,246.49959 L 116.997,233.61159 L 106.677,233.60019 L 106.719,246.49959 L 117.045,246.49959"
       id="path222" />
    <path
       style="fill:none;stroke:#000000;stroke-width:0.391;stroke-miterlimit:4;stroke-dasharray:none"
       d="M 109.479,236.29359 L 109.503,243.76959 L 114.231,243.79359 L 114.201,236.29359 L 109.479,236.29359"
       id="path224" />
    <path
       style="fill:none;stroke:#000000;stroke-width:0.391;stroke-miterlimit:4;stroke-dasharray:none"
       d="M 131.457,246.52419 L 131.385,233.61159 L 121.071,233.60019 L 121.119,246.49959 L 131.457,246.52419"
       id="path226" />
    <path
       style="fill:none;stroke:#000000;stroke-width:0.391;stroke-miterlimit:4;stroke-dasharray:none"
       d="M 123.879,236.30619 L 123.915,243.80619 L 128.643,243.80619 L 128.619,236.30619 L 123.879,236.30619"
       id="path228" />
    <path
       style="fill:#ffffff;stroke:none"
       d="M 134.013,242.56359 L 134.127,272.32959 L 104.229,272.28159 L 104.121,242.54019 L 134.007,242.56359"
       id="path230" />
    <path
       style="fill:none;stroke:#000000;stroke-width:0.391;stroke-miterlimit:4;stroke-dasharray:none"
       d="M 134.013,242.56359 L 134.127,272.32959 L 104.229,272.28159 L 104.121,242.54019 L 134.007,242.56359 L 134.013,242.56359 z "
       id="path232" />
    <path
       style="fill:none;stroke:#000000;stroke-width:0.391;stroke-miterlimit:4;stroke-dasharray:none"
       d="M 103.941,251.05959 L 134.043,251.08359"
       id="path234" />
    <path
       style="fill:none;stroke:#000000;stroke-width:0.391;stroke-miterlimit:4;stroke-dasharray:none"
       d="M 107.697,272.31759 L 107.595,251.28159"
       id="path236" />
    <path
       style="fill:none;stroke:#000000;stroke-width:0.391;stroke-miterlimit:4;stroke-dasharray:none"
       d="M 130.491,272.32959 L 130.389,251.30619"
       id="path238" />
    <path
       style="fill:none;stroke:#000000;stroke-width:0.391;stroke-miterlimit:4;stroke-dasharray:none"
       d="M 144.927,229.88619 L 128.091,217.59159 L 109.173,217.56759 L 92.469,229.83819 L 144.927,229.88619"
       id="path240" />
    <path
       style="fill:none;stroke:#000000;stroke-width:0.391;stroke-opacity:1;stroke-miterlimit:4;stroke-dasharray:none"
       d="M 110.631,207.38619 L 110.661,214.88619 L 126.573,214.89819 L 126.543,207.39819 L 110.631,207.38619"
       id="path242" />
    <path
       style="fill:none;stroke:#000000;stroke-width:0.391;stroke-miterlimit:4;stroke-dasharray:none"
       d="M 114.945,209.24619 L 114.969,212.98359 L 122.277,212.98359 L 122.253,209.24619 L 114.945,209.24619"
       id="path244" />
    <path
       style="fill:none;stroke:#000000;stroke-width:0.391;stroke-miterlimit:4;stroke-dasharray:none"
       d="M 118.557,198.85419 L 127.407,205.11159 L 109.773,205.08819 L 118.557,198.85419"
       id="path246" />
    <path
       style="fill:#ffffff;stroke:none"
       d="M 154.341,194.61159 C 156.855,194.55159 157.503,204.96759 157.509,210.12759 C 159.669,210.73359 164.457,213.74619 166.575,216.46959 L 142.287,216.43359 C 144.375,213.74619 149.127,210.72159 151.269,210.11619 C 151.269,204.94959 151.797,194.54019 154.341,194.60019"
       id="path248" />
    <path
       style="fill:none;stroke:#000000;stroke-width:0.391;stroke-miterlimit:4;stroke-dasharray:none"
       d="M 154.341,194.61159 C 156.855,194.55159 157.503,204.96759 157.509,210.12759 C 159.669,210.73359 164.457,213.74619 166.575,216.46959 L 142.287,216.43359 C 144.375,213.74619 149.127,210.72159 151.269,210.11619 C 151.269,204.94959 151.797,194.54019 154.341,194.60019"
       id="path250" />
    <path
       style="fill:none;stroke:#000000;stroke-width:0.391;stroke-miterlimit:4;stroke-dasharray:none"
       d="M 105.519,243.39819 L 107.697,243.39819 L 107.061,244.56759 C 107.061,244.56759 108.111,245.91819 107.079,247.46559 L 107.649,248.54019 L 105.549,248.54019 L 106.119,247.51959 C 106.119,247.51959 105.045,245.72619 106.167,244.56759 L 105.519,243.39819"
       id="path252" />
    <path
       style="fill:none;stroke:#000000;stroke-width:0.391;stroke-miterlimit:4;stroke-dasharray:none"
       d="M 109.959,243.39819 L 112.137,243.39819 L 111.507,244.56759 C 111.507,244.56759 112.557,245.88219 111.513,247.46559 L 112.077,248.54019 L 109.983,248.54019 L 110.547,247.51959 C 110.547,247.51959 109.497,245.72619 110.601,244.56759 L 109.959,243.39819"
       id="path254" />
    <path
       style="fill:none;stroke:#000000;stroke-width:0.391;stroke-miterlimit:4;stroke-dasharray:none"
       d="M 114.801,243.39819 L 116.973,243.39819 L 116.325,244.56759 C 116.325,244.56759 117.387,245.91819 116.343,247.46559 L 116.913,248.56359 L 114.831,248.54019 L 115.389,247.51959 C 115.389,247.51959 114.327,245.73759 115.431,244.56759 L 114.795,243.39819 L 114.801,243.39819 z "
       id="path256" />
    <path
       style="fill:none;stroke:#000000;stroke-width:0.391;stroke-miterlimit:4;stroke-dasharray:none"
       d="M 120.267,243.40959 L 122.457,243.40959 L 121.815,244.59159 C 121.815,244.59159 122.865,245.91819 121.821,247.47159 L 122.409,248.56359 L 120.297,248.56359 L 120.861,247.54359 C 120.861,247.54359 119.811,245.73759 120.933,244.59159 L 120.273,243.40959 L 120.267,243.40959 z "
       id="path258" />
    <path
       style="fill:none;stroke:#000000;stroke-width:0.391;stroke-miterlimit:4;stroke-dasharray:none"
       d="M 125.127,243.40959 L 127.299,243.40959 L 126.657,244.59159 C 126.657,244.59159 127.713,245.91819 126.669,247.46559 L 127.245,248.56359 L 125.151,248.56359 L 125.697,247.54359 C 125.697,247.54359 124.641,245.74959 125.781,244.59159 L 125.127,243.40959"
       id="path260" />
    <path
       style="fill:none;stroke:#000000;stroke-width:0.391;stroke-miterlimit:4;stroke-dasharray:none"
       d="M 129.957,243.42159 L 132.129,243.40959 L 131.487,244.59159 C 131.487,244.59159 132.561,245.91819 131.517,247.47159 L 132.063,248.56359 L 129.963,248.56359 L 130.527,247.54359 C 130.527,247.54359 129.477,245.74959 130.599,244.59159 L 129.957,243.42159"
       id="path262" />
    <path
       style="fill:#ffff00;stroke:none"
       d="M 119.211,310.48359 C 130.407,310.51959 144.177,308.23359 150.627,304.89819 L 164.793,303.64359 L 165.075,320.93019 C 153.075,327.54759 125.367,328.96959 119.271,328.92159 C 113.169,328.96959 85.119,327.52419 73.065,320.88219 L 73.221,303.58359 L 87.417,304.86159 C 93.867,308.18019 108.057,310.48359 119.241,310.48359 L 119.211,310.48359"
       id="path264" />
    <path
       style="fill:none;stroke:#000000;stroke-width:0.0910962"
       d="M 119.211,310.48359 C 130.407,310.51959 144.177,308.23359 150.627,304.89819 L 164.793,303.64359 L 165.075,320.93019 C 153.075,327.54759 125.367,328.96959 119.271,328.92159 C 113.169,328.96959 85.119,327.52419 73.065,320.88219 L 73.221,303.58359 L 87.417,304.86159 C 93.867,308.18019 108.057,310.48359 119.241,310.48359 L 119.211,310.48359"
       id="path266" />
    <path
       style="fill:#ffff00;stroke:none"
       d="M 36.597,236.74959 L 49.077,240.72159 L 45.303,260.93019 L 33.489,262.76559 C 33.489,262.76559 31.497,252.13959 36.597,236.73759"
       id="path268" />
    <path
       style="fill:none;stroke:#000000;stroke-width:0.0910962"
       d="M 36.597,236.74959 L 49.077,240.72159 L 45.303,260.93019 L 33.489,262.76559 C 33.489,262.76559 31.497,252.13959 36.597,236.73759 L 36.597,236.74959 z "
       id="path270" />
    <path
       style="fill:#7e7e7e;stroke:none"
       d="M 45.297,260.70759 L 33.489,262.76559 L 40.959,252.13959 L 45.297,260.70759"
       id="path272" />
    <path
       style="fill:none;stroke:#000000;stroke-width:0.0910962"
       d="M 45.297,260.70759 L 33.489,262.76559 L 40.959,252.13959 L 45.297,260.70759"
       id="path274" />
    <path
       style="fill:#ffff00;stroke:none"
       d="M 29.133,251.30619 L 41.163,252.17559 C 41.433,262.37019 42.669,301.27419 89.121,303.38619 L 87.675,317.54019 C 31.131,318.12759 26.835,269.82219 29.133,251.30619"
       id="path276" />
    <path
       style="fill:none;stroke:#000000;stroke-width:0.0910962"
       d="M 29.133,251.30619 L 41.163,252.17559 C 41.433,262.37019 42.669,301.27419 89.121,303.38619 L 87.675,317.54019 C 31.131,318.12759 26.835,269.82219 29.133,251.30619 z "
       id="path278" />
    <path
       style="fill:none;stroke:#000000;stroke-width:0.0910962"
       d="M 73.287,320.43759 L 87.465,317.34159"
       id="path280" />
    <path
       style="fill:#ffff00;stroke:none"
       d="M 200.841,236.89359 L 188.409,240.82959 L 192.351,261.00819 L 204.189,262.90959 C 204.189,262.90959 206.091,252.29019 200.841,236.88219"
       id="path282" />
    <path
       style="fill:none;stroke:#000000;stroke-width:0.0910962"
       d="M 200.841,236.89359 L 188.409,240.82959 L 192.351,261.00819 L 204.189,262.90959 C 204.189,262.90959 206.091,252.29019 200.841,236.88219 L 200.841,236.89359 z "
       id="path284" />
    <path
       style="fill:#7e7e7e;stroke:none"
       d="M 192.351,260.79759 L 204.189,262.92159 L 196.617,252.29019 L 192.351,260.79759"
       id="path286" />
    <path
       style="fill:none;stroke:#000000;stroke-width:0.0910962"
       d="M 192.351,260.79759 L 204.189,262.92159 L 196.617,252.29019 L 192.351,260.79759"
       id="path288" />
    <path
       style="fill:#ffff00;stroke:none"
       d="M 208.443,251.46759 L 196.395,252.29019 C 196.221,262.47159 195.333,301.39359 148.881,303.45759 L 150.459,317.60019 C 206.991,318.25359 210.879,269.97159 208.443,251.46219"
       id="path290" />
    <path
       style="fill:none;stroke:#000000;stroke-width:0.0910962"
       d="M 208.443,251.46759 L 196.395,252.29019 C 196.221,262.47159 195.333,301.39359 148.881,303.45759 L 150.459,317.60019 C 206.991,318.25359 210.879,269.97159 208.443,251.46219 L 208.443,251.46759 z "
       id="path292" />
    <path
       style="fill:none;stroke:#000000;stroke-width:0.0910962"
       d="M 164.883,320.51559 L 150.669,317.40219"
       id="path294" />
    <path
       style="fill:#009fc5;stroke:none"
       d="M 111.693,319.00359 C 111.375,319.20759 110.943,319.26219 110.445,319.23759 L 108.201,319.12359 L 108.393,316.32219 L 110.619,316.44159 C 111.057,316.47159 111.405,316.55619 111.621,316.68759 C 112.071,316.92159 112.269,317.35419 112.227,317.95359 C 112.197,318.46959 112.017,318.80619 111.687,319.00359 M 107.919,323.41419 L 108.141,319.99959 L 110.757,320.18019 C 111.603,320.24619 112.233,320.02419 112.659,319.59159 C 113.103,319.17159 113.331,318.62019 113.361,317.99619 C 113.415,317.26959 113.229,316.67559 112.797,316.23759 C 112.383,315.81759 111.795,315.59559 111.057,315.52419 L 107.319,315.29019 L 106.803,323.32959 L 107.913,323.40219"
       id="path296" />
    <path
       style="fill:#009fc5;stroke:none"
       d="M 116.055,316.68759 L 118.791,316.71759 C 119.187,316.75359 119.499,316.80159 119.727,316.90959 C 120.147,317.10759 120.345,317.50359 120.345,318.07959 C 120.345,318.62019 120.189,318.98019 119.883,319.19619 C 119.589,319.39359 119.163,319.48359 118.653,319.48359 L 116.025,319.45359 L 116.049,316.68759 M 116.007,323.80959 L 116.031,320.37759 L 118.599,320.41419 C 119.055,320.41419 119.391,320.44959 119.625,320.56359 C 120.003,320.73759 120.189,321.10419 120.207,321.60759 L 120.273,322.95759 C 120.291,323.28159 120.297,323.48019 120.315,323.61159 C 120.351,323.70759 120.369,323.80959 120.417,323.88219 L 121.797,323.88219 L 121.773,323.70759 C 121.617,323.62359 121.491,323.46219 121.437,323.21559 C 121.389,323.05959 121.365,322.82559 121.353,322.53159 L 121.329,321.45759 C 121.311,320.97159 121.227,320.63619 121.041,320.44959 C 120.879,320.23359 120.657,320.04759 120.315,319.93359 C 120.699,319.73019 120.987,319.49619 121.197,319.20759 C 121.395,318.88959 121.497,318.48759 121.497,317.99619 C 121.497,317.07219 121.119,316.44159 120.351,316.10019 C 119.937,315.91419 119.409,315.81759 118.785,315.80619 L 114.927,315.76959 L 114.897,323.83359 L 116.007,323.83359"
       id="path298" />
    <path
       style="fill:#009fc5;stroke:none"
       d="M 124.569,322.12359 C 124.077,321.52419 123.813,320.77419 123.753,319.88619 C 123.699,318.76959 123.915,317.91819 124.425,317.34159 C 124.941,316.71759 125.607,316.41819 126.477,316.37019 C 127.353,316.32219 128.073,316.60419 128.607,317.15559 C 129.153,317.69619 129.465,318.44619 129.519,319.38219 C 129.549,320.28159 129.393,321.07959 128.979,321.78159 C 128.571,322.49619 127.893,322.89819 126.891,322.92159 C 125.847,322.97619 125.067,322.73019 124.569,322.12359 M 123.249,317.04759 C 122.733,317.84559 122.523,318.76959 122.577,319.88619 C 122.655,321.09159 123.027,322.08819 123.729,322.83819 C 124.509,323.58819 125.541,323.96559 126.813,323.89359 C 128.175,323.83359 129.201,323.31759 129.897,322.37019 C 130.461,321.51219 130.731,320.51559 130.671,319.28559 C 130.593,318.18759 130.275,317.29359 129.681,316.62759 C 128.931,315.73359 127.833,315.33819 126.345,315.39819 C 124.941,315.48759 123.909,316.00359 123.243,317.04759"
       id="path300" />
    <path
       style="fill:#009fc5;stroke:none"
       d="M 161.139,305.44959 C 161.913,305.31759 162.585,305.35419 163.197,305.56359 C 164.097,305.84559 164.703,306.51219 165.081,307.53159 L 163.971,307.68759 C 163.731,307.13619 163.389,306.75819 162.927,306.54759 C 162.477,306.35019 161.913,306.30159 161.265,306.39819 C 160.509,306.51219 159.903,306.88959 159.477,307.49619 C 159.057,308.14359 158.931,309.00819 159.117,310.11159 C 159.273,311.02419 159.609,311.79759 160.161,312.31359 C 160.671,312.84159 161.421,313.02759 162.399,312.88959 C 163.131,312.76959 163.719,312.47619 164.133,311.97159 C 164.565,311.49219 164.691,310.76559 164.547,309.82959 L 161.961,310.22619 L 161.829,309.33819 L 165.429,308.78559 L 166.131,313.05159 L 165.417,313.15959 L 164.973,312.17559 C 164.673,312.62019 164.373,312.96219 164.109,313.15959 C 163.665,313.50819 163.065,313.73019 162.315,313.83819 C 161.343,313.98759 160.455,313.81359 159.651,313.29759 C 158.769,312.64359 158.199,311.67159 157.983,310.32219 C 157.749,308.99619 157.959,307.86159 158.571,306.96759 C 159.153,306.10419 159.999,305.60019 161.139,305.43759"
       id="path302" />
    <path
       style="fill:#009fc5;stroke:none"
       d="M 169.281,304.82559 L 171.861,303.88959 C 172.215,303.75819 172.521,303.71559 172.785,303.74619 C 173.259,303.78159 173.607,304.06359 173.805,304.62759 C 173.991,305.10759 173.991,305.52759 173.781,305.82219 C 173.559,306.12759 173.211,306.35019 172.707,306.53559 L 170.283,307.40559 L 169.281,304.82559 M 171.861,311.49219 L 170.601,308.25819 L 173.001,307.39359 C 173.451,307.24959 173.763,307.17159 173.997,307.19619 C 174.423,307.24959 174.747,307.50819 174.963,307.99959 L 175.509,309.23019 C 175.629,309.53559 175.725,309.72159 175.803,309.80619 C 175.839,309.91419 175.917,309.98019 175.977,310.05159 L 177.279,309.57219 L 177.207,309.39819 C 177.015,309.39819 176.829,309.29019 176.691,309.07959 C 176.589,308.93019 176.493,308.71419 176.355,308.46219 L 175.929,307.45359 C 175.737,307.01559 175.539,306.74619 175.311,306.58359 C 175.083,306.45759 174.795,306.37359 174.453,306.35019 C 174.717,306.04359 174.909,305.73759 174.981,305.37759 C 175.059,305.01219 175.023,304.60419 174.849,304.14819 C 174.519,303.29019 173.913,302.82219 173.061,302.76219 C 172.611,302.72619 172.095,302.82219 171.501,303.03159 L 167.877,304.32219 L 170.805,311.90559 L 171.867,311.51559"
       id="path304" />
    <path
       style="fill:#009fc5;stroke:none"
       d="M 181.299,307.49619 L 176.697,300.78159 L 181.749,297.55959 L 182.307,298.37019 L 178.167,301.01559 L 179.583,303.06759 L 183.405,300.60759 L 183.927,301.39359 L 180.105,303.85419 L 181.665,306.11619 L 185.877,303.42159 L 186.435,304.21419 L 181.293,307.49619"
       id="path306" />
    <path
       style="fill:#009fc5;stroke:none"
       d="M 185.325,295.62759 L 186.645,294.17559 C 187.257,293.52759 187.905,293.23359 188.613,293.31759 C 189.321,293.37759 190.041,293.74959 190.809,294.42159 C 191.019,294.58359 191.205,294.79359 191.397,295.02759 C 191.733,295.46559 191.931,295.85019 192.057,296.23359 C 192.165,296.71419 192.141,297.15219 191.973,297.57219 C 191.871,297.78159 191.691,298.02759 191.421,298.32219 L 190.095,299.76219 L 185.325,295.61619 M 192.297,298.77759 C 193.233,297.74619 193.437,296.63619 192.891,295.38219 C 192.573,294.70359 192.087,294.04359 191.415,293.46759 C 190.569,292.71759 189.687,292.33359 188.757,292.26219 C 187.725,292.18359 186.849,292.55619 186.087,293.38959 L 183.837,295.80159 L 190.041,301.21419 L 192.291,298.79019"
       id="path308" />
    <path
       style="fill:#009fc5;stroke:none"
       d="M 197.103,292.51959 L 189.963,288.32559 L 190.545,287.40219 L 197.697,291.57219 L 197.109,292.53159"
       id="path310" />
    <path
       style="fill:#009fc5;stroke:none"
       d="M 199.905,287.64819 L 192.195,284.56359 L 194.469,279.13959 L 195.405,279.49959 L 193.551,283.96959 L 195.873,284.88219 L 197.607,280.76559 L 198.495,281.13219 L 196.779,285.24219 L 199.377,286.29759 L 201.279,281.77419 L 202.215,282.12759 L 199.899,287.64819"
       id="path312" />
    <path
       style="fill:#009fc5;stroke:none"
       d="M 203.445,278.18019 L 195.333,276.38619 L 195.603,275.13219 L 203.097,272.60019 L 196.515,271.14819 L 196.755,270.16419 L 204.867,271.90959 L 204.609,273.12759 L 197.103,275.71419 L 203.685,277.13619 L 203.451,278.18019"
       id="path314" />
    <path
       style="fill:#009fc5;stroke:none"
       d="M 202.803,267.87759 L 202.905,266.85759 C 203.373,266.87019 203.769,266.79759 204.069,266.63619 C 204.657,266.31759 204.999,265.71219 205.089,264.81759 C 205.125,264.39819 205.107,264.03159 205.011,263.68359 C 204.837,263.01219 204.459,262.63959 203.853,262.57959 C 203.403,262.53159 203.079,262.63959 202.845,262.88619 C 202.635,263.16819 202.413,263.57559 202.245,264.15219 L 201.873,265.21419 C 201.633,265.90959 201.411,266.38959 201.171,266.65959 C 200.787,267.16419 200.247,267.33819 199.557,267.29019 C 198.819,267.21219 198.219,266.91819 197.793,266.35419 C 197.355,265.83819 197.175,265.10019 197.283,264.18759 C 197.355,263.35419 197.631,262.65219 198.123,262.08819 C 198.579,261.57219 199.287,261.32559 200.193,261.42159 L 200.109,262.44159 C 199.665,262.44159 199.311,262.51959 199.053,262.69959 C 198.585,262.95759 198.327,263.50359 198.249,264.30159 C 198.183,264.96219 198.273,265.40559 198.525,265.74219 C 198.777,266.02419 199.095,266.20359 199.467,266.23359 C 199.863,266.26959 200.175,266.14359 200.391,265.83819 C 200.547,265.62759 200.733,265.17159 200.985,264.43359 L 201.351,263.31759 C 201.531,262.80159 201.747,262.40559 201.999,262.12359 C 202.449,261.65559 203.037,261.45759 203.775,261.51219 C 204.675,261.60759 205.317,261.98019 205.647,262.66419 C 205.971,263.35419 206.097,264.11619 206.019,264.98019 C 205.917,265.95759 205.599,266.72619 205.011,267.24219 C 204.423,267.76959 203.691,267.94959 202.803,267.87759"
       id="path316" />
    <path
       style="fill:#009fc5;stroke:none"
       d="M 34.641,267.38619 L 34.827,268.39359 C 34.377,268.48359 34.017,268.66419 33.753,268.89819 C 33.279,269.34159 33.117,270.00819 33.279,270.91419 C 33.351,271.29759 33.489,271.67559 33.663,271.97619 C 34.023,272.58819 34.491,272.83359 35.085,272.73759 C 35.523,272.65959 35.811,272.49219 35.949,272.18019 C 36.081,271.87359 36.177,271.40559 36.207,270.80619 L 36.261,269.67159 C 36.297,268.96959 36.375,268.41819 36.531,268.11159 C 36.777,267.55959 37.239,267.21759 37.929,267.10419 C 38.667,266.97159 39.315,267.13959 39.873,267.55959 C 40.437,267.94959 40.809,268.62759 40.947,269.52759 C 41.121,270.35019 41.043,271.08819 40.719,271.75359 C 40.407,272.40219 39.807,272.79759 38.889,272.96559 L 38.709,271.94619 C 39.135,271.79019 39.453,271.63959 39.663,271.43019 C 40.023,271.02759 40.131,270.44619 39.993,269.64819 C 39.885,268.99959 39.663,268.57959 39.327,268.37019 C 38.997,268.12359 38.667,268.02759 38.307,268.08819 C 37.905,268.14819 37.641,268.37019 37.515,268.73019 C 37.437,268.96959 37.377,269.46759 37.323,270.23019 L 37.269,271.40559 C 37.239,271.95759 37.155,272.41419 36.969,272.72619 C 36.675,273.30159 36.177,273.65559 35.451,273.76959 C 34.533,273.92559 33.825,273.71559 33.321,273.12759 C 32.805,272.55159 32.487,271.86159 32.325,271.00359 C 32.145,269.98359 32.277,269.19159 32.685,268.55619 C 33.099,267.90219 33.753,267.52419 34.641,267.39819"
       id="path318" />
    <path
       style="fill:#009fc5;stroke:none"
       d="M 34.131,278.02419 L 42.063,275.63619 L 43.911,281.22159 L 42.945,281.52759 L 41.433,276.93759 L 39.021,277.66419 L 40.419,281.90559 L 39.495,282.19959 L 38.109,277.94619 L 35.421,278.74959 L 36.957,283.44159 L 36.009,283.71219 L 34.131,278.02419"
       id="path320" />
    <path
       style="fill:#009fc5;stroke:none"
       d="M 37.647,287.70759 L 44.943,283.83819 L 45.723,285.19959 L 40.707,290.50359 L 48.033,289.24959 L 48.789,290.60019 L 41.511,294.44619 L 40.995,293.55159 L 45.291,291.29019 C 45.447,291.19959 45.687,291.06759 46.035,290.88219 C 46.377,290.72619 46.761,290.51559 47.145,290.31759 L 39.849,291.55959 L 39.315,290.61159 L 44.295,285.32559 L 44.055,285.44619 C 43.899,285.53559 43.629,285.66819 43.263,285.87759 C 42.903,286.10019 42.633,286.23759 42.459,286.30959 L 38.175,288.60759 L 37.647,287.69619"
       id="path322" />
    <path
       style="fill:#009fc5;stroke:none"
       d="M 51.243,298.45359 C 50.877,298.37019 50.517,298.15959 50.163,297.79359 L 48.621,296.20359 L 50.697,294.30159 L 52.251,295.88619 C 52.551,296.18019 52.743,296.46759 52.845,296.71419 C 52.989,297.18759 52.845,297.62019 52.407,298.02759 C 52.011,298.39359 51.615,298.54359 51.243,298.45359 M 45.381,299.19159 L 47.925,296.85759 L 49.731,298.68759 C 50.313,299.28159 50.907,299.55159 51.531,299.54019 C 52.167,299.50359 52.713,299.26959 53.193,298.81359 C 53.733,298.33359 53.991,297.76959 53.991,297.16419 C 53.985,296.57559 53.715,296.02419 53.217,295.50819 L 50.625,292.86159 L 44.589,298.40559 L 45.369,299.19159"
       id="path324" />
    <path
       style="fill:#009fc5;stroke:none"
       d="M 52.659,305.67159 L 57.033,298.81359 L 62.205,301.95759 L 61.665,302.77419 L 57.417,300.23019 L 56.103,302.30619 L 60.009,304.67559 L 59.505,305.46219 L 55.593,303.10419 L 54.105,305.42559 L 58.407,308.01219 L 57.891,308.82219 L 52.659,305.67159"
       id="path326" />
    <path
       style="fill:#009fc5;stroke:none"
       d="M 65.607,304.34559 L 68.235,305.18019 C 68.607,305.29359 68.877,305.43759 69.057,305.60019 C 69.393,305.91819 69.483,306.37359 69.285,306.92559 C 69.123,307.40559 68.877,307.71759 68.493,307.85019 C 68.151,307.90959 67.719,307.90959 67.215,307.75359 L 64.737,306.96219 L 65.607,304.34559 M 63.339,311.08359 L 64.431,307.81359 L 66.879,308.61159 C 67.317,308.72619 67.635,308.88219 67.791,309.04359 C 68.091,309.31359 68.181,309.71559 68.031,310.21419 L 67.665,311.51559 C 67.581,311.83359 67.539,312.04359 67.503,312.13959 C 67.503,312.24219 67.503,312.35019 67.521,312.42159 L 68.811,312.84159 L 68.889,312.65559 C 68.751,312.54759 68.673,312.35019 68.679,312.10419 C 68.709,311.95359 68.751,311.71419 68.835,311.43759 L 69.147,310.39359 C 69.273,309.93759 69.321,309.59559 69.207,309.35019 C 69.111,309.09159 68.949,308.85759 68.679,308.63619 C 69.087,308.56359 69.441,308.43759 69.741,308.21559 C 70.023,307.96959 70.263,307.62759 70.407,307.14819 C 70.701,306.27759 70.539,305.55159 69.891,304.99959 C 69.567,304.71219 69.105,304.46559 68.499,304.23759 L 64.827,303.10419 L 62.259,310.75359 L 63.333,311.08359"
       id="path328" />
    <path
       style="fill:#bc715f;stroke:none"
       d="M 74.481,171.86619 C 75.429,169.57959 84.213,163.34559 113.037,166.07559 C 113.037,166.07559 117.909,169.05159 120.771,168.66819 C 122.403,168.45759 119.811,168.76959 117.681,166.99959 C 115.509,165.23019 115.047,161.60019 120.009,161.69619 C 124.947,161.82219 143.433,162.86619 143.781,164.52759 C 144.105,166.20759 134.007,166.90959 130.251,166.81359 C 126.477,166.71219 126.915,168.62019 130.671,168.47619 C 142.407,168.05619 155.217,163.92159 168.747,173.49219 C 170.361,174.65559 164.667,174.84159 160.263,172.96959 C 160.263,172.96959 148.329,173.58819 143.169,172.74219 C 143.169,172.74219 139.203,175.96959 134.037,175.65219 C 134.709,177.32559 132.129,183.57219 115.887,178.87359 C 113.205,179.69619 103.431,181.33359 104.499,178.43019 C 101.925,178.43019 97.413,179.25819 96.741,177.79359 C 96.093,176.35419 104.685,174.17559 106.191,172.61619 C 106.191,172.61619 88.017,172.79019 84.573,171.53559 C 84.573,171.53559 73.851,173.94159 74.481,171.85419"
       id="path330" />
    <path
       style="fill:#008737;stroke:none"
       d="M 80.307,197.31759 C 80.697,196.79019 80.853,195.84159 81.681,195.86619 C 83.481,196.34559 84.705,199.63959 86.919,197.50359 C 87.705,197.32959 88.005,198.39819 88.653,198.52419 C 89.067,200.35419 90.537,198.15219 91.635,198.27759 C 93.981,197.23359 96.885,196.98759 99.663,197.50359 C 99.747,199.29759 98.343,201.27759 96.579,202.29759 C 96.615,204.10419 98.253,205.26219 98.223,207.07959 C 97.941,207.75819 98.175,208.82559 97.149,209.04759 C 95.847,208.81359 94.563,208.67559 93.483,207.94959 C 93.351,207.81759 93.243,207.55959 92.967,207.64359 C 92.835,208.24959 93.783,208.85019 94.155,209.46759 C 93.501,210.58359 92.415,209.56359 91.503,209.57559 C 91.233,210.21759 91.491,211.02759 90.831,211.44159 C 89.679,211.40559 89.445,210.15219 88.737,209.52759 C 88.011,210.31359 89.247,210.78159 89.421,211.40559 C 88.977,213.76959 89.037,216.07959 86.673,217.62759 L 85.089,218.41419 C 84.657,217.22619 84.927,215.42559 84.639,214.18359 C 83.703,215.70759 82.971,217.04019 81.597,218.32959 C 79.989,217.80159 79.053,215.90559 78.699,214.33359 C 78.027,212.50359 78.411,210.31359 79.857,208.98759 C 79.365,208.02759 77.679,208.24959 77.439,206.88219 C 74.913,205.23759 73.515,209.76219 71.883,207.40959 C 71.355,205.21419 71.985,202.48359 73.575,200.84559 C 73.221,199.94619 72.045,200.18019 71.349,199.66419 C 69.759,198.31359 67.467,196.88619 67.581,194.44959 C 71.931,192.80619 77.133,194.01219 80.295,197.31759"
       id="path332" />
    <path
       style="fill:#ffff00;stroke:none"
       d="M 82.563,197.07219 C 82.461,199.06359 83.907,197.61159 84.981,198.81759 C 84.141,198.48759 83.529,200.26959 82.707,199.24959 L 82.191,199.74219 C 82.491,200.42559 83.073,200.51559 82.467,201.26559 C 81.567,201.60759 81.387,200.48019 80.967,200.03559 C 80.895,199.83819 81.105,199.46559 80.775,199.33359 C 80.265,199.76559 79.731,199.92159 79.029,199.85019 C 78.837,199.46559 78.465,198.96219 78.843,198.66819 C 79.533,197.73759 80.601,199.00359 81.123,198.35019 C 81.207,197.77419 80.703,197.07219 81.357,196.67559 C 81.807,196.75359 82.383,196.50819 82.569,197.07219"
       id="path334" />
    <path
       style="fill:#ffff00;stroke:none"
       d="M 87.945,198.70359 C 87.999,199.08819 87.747,199.62759 88.251,199.89819 C 88.905,199.54359 89.601,199.81359 89.979,200.46219 C 89.973,200.80959 90.081,201.26559 89.625,201.43359 L 88.605,201.24219 C 88.677,201.04359 88.353,200.91819 88.227,200.72619 C 87.777,200.58819 87.513,200.95359 87.177,201.17559 C 87.429,201.55959 88.011,201.76959 87.873,202.26219 C 87.273,202.86159 86.979,201.74619 86.319,202.02759 C 85.869,201.85419 86.481,200.91819 85.773,200.63619 C 84.933,200.63619 85.491,202.01559 84.417,201.47619 C 84.033,201.04359 83.655,200.46219 84.069,199.97619 C 84.519,199.67559 85.281,199.75359 85.665,200.14359 C 86.319,199.41819 86.385,196.61619 87.951,198.70359"
       id="path336" />
    <path
       style="fill:#ffff00;stroke:none"
       d="M 81.243,201.59559 C 81.681,202.22619 81.147,203.08359 81.705,203.78559 C 82.581,202.14819 83.427,204.13959 84.471,203.98359 C 84.789,204.37359 84.579,204.91419 84.639,205.35759 C 83.349,205.69959 81.795,206.10759 80.655,205.07559 L 80.337,205.44159 C 81.015,206.07219 81.657,206.78559 81.117,207.84159 C 80.151,208.05159 78.657,208.07559 78.171,207.07959 C 77.919,206.25819 78.759,205.66419 77.871,205.00359 C 77.229,205.80159 77.259,206.87019 75.921,206.14359 C 75.093,205.68759 74.847,204.74619 75.261,203.95359 C 76.125,202.59159 77.637,203.99619 78.573,203.32959 C 78.705,202.15959 78.273,201.13959 79.347,200.49219 C 80.265,200.32959 80.691,201.01959 81.249,201.59559"
       id="path338" />
    <path
       style="fill:#ffffff;stroke:none"
       d="M 84.903,202.30959 C 84.471,204.30159 82.971,202.20759 82.269,202.12359 C 83.205,200.46219 83.793,202.66419 84.903,202.30959"
       id="path340" />
    <path
       style="fill:#ffffff;stroke:none"
       d="M 89.577,204.47619 C 88.533,204.76959 88.695,203.46759 88.179,202.95759 L 88.581,202.59159 C 88.959,203.04759 89.247,203.87019 89.577,204.47619"
       id="path342" />
    <path
       style="fill:#ffff00;stroke:none"
       d="M 88.161,204.07959 C 88.461,204.76959 87.483,205.32219 88.317,205.82559 C 88.581,205.60419 88.905,205.29759 89.043,205.17159 C 89.757,205.38219 90.585,205.50819 91.083,206.21559 C 91.617,207.68019 90.135,207.64359 89.295,208.05159 L 88.461,208.01559 C 88.659,207.60759 88.101,207.43359 87.963,207.15219 C 87.579,207.05619 87.261,207.17559 87.045,207.49959 C 87.231,208.43019 88.365,209.15559 87.195,209.98359 C 86.205,209.91819 84.669,210.30159 84.759,208.93359 C 84.387,208.15959 85.767,206.96559 84.291,206.91819 C 83.805,207.96219 83.271,208.96959 82.005,207.98019 L 82.161,206.49219 C 83.373,206.52759 84.807,206.73759 85.353,205.38219 C 85.701,204.39819 84.747,203.49219 85.599,202.71219 C 86.835,202.43019 87.531,203.25819 88.161,204.07959"
       id="path344" />
    <path
       style="fill:#000000;stroke:none"
       d="M 87.273,206.31759 C 87.585,207.05619 86.745,207.10419 86.349,207.46959 C 85.815,207.51219 85.443,207.30159 85.119,206.94159 C 84.879,206.04759 85.545,205.95759 86.055,205.60419 C 86.649,205.35759 86.895,206.04759 87.273,206.31759"
       id="path346" />
    <path
       style="fill:#ffffff;stroke:none"
       d="M 86.547,206.79759 C 86.415,206.97159 86.229,206.91819 86.031,206.96559 L 85.845,206.07219 C 86.241,206.10759 86.757,206.23359 86.547,206.79759"
       id="path348" />
    <path
       sodipodi:nodetypes="ccccc"
       style="fill:none;stroke:#000000;stroke-width:0.30696601"
       d="M 788.613,493.06359 L 786.507,0.6501772 L 0.45300024,0.595752 L 0.82551997,491.84576 L 788.613,493.06359"
       id="path350" />
  </g>
</svg>
