<?xml version="1.0" encoding="UTF-8" standalone="no"?>
<svg
   xmlns:dc="http://purl.org/dc/elements/1.1/"
   xmlns:cc="http://web.resource.org/cc/"
   xmlns:rdf="http://www.w3.org/1999/02/22-rdf-syntax-ns#"
   xmlns:svg="http://www.w3.org/2000/svg"
   xmlns="http://www.w3.org/2000/svg"
   xmlns:sodipodi="http://inkscape.sourceforge.net/DTD/sodipodi-0.dtd"
   xmlns:inkscape="http://www.inkscape.org/namespaces/inkscape"
   width="825"
   height="416"
   id="svg2"
   sodipodi:version="0.32"
   inkscape:version="0.42"
   sodipodi:docname="new_caledonia.svg"
   sodipodi:docbase="/home/demailly/work">
  <metadata
     id="metadata25">
    <rdf:RDF>
      <cc:Work
         rdf:about="">
        <dc:format>image/svg+xml</dc:format>
        <dc:type
           rdf:resource="http://purl.org/dc/dcmitype/StillImage" />
      </cc:Work>
    </rdf:RDF>
  </metadata>
  <defs
     id="defs23" />
  <sodipodi:namedview
     inkscape:cy="127.11448"
     inkscape:cx="183.40823"
     inkscape:zoom="1.7366334"
     inkscape:window-height="937"
     inkscape:window-width="1427"
     inkscape:pageshadow="2"
     inkscape:pageopacity="0.0"
     borderopacity="1.0"
     bordercolor="#666666"
     pagecolor="#ffffff"
     id="base"
     inkscape:window-x="172"
     inkscape:window-y="70"
     inkscape:current-layer="svg2" />
  <g
     id="g2140"
     transform="matrix(1.600000,0.000000,0.000000,1.600000,-0.478426,-0.972800)">
    <path
       id="path4"
       d="M 1.0000000,1.0000000 L 1.0000000,258.00000 L 2.0000000,258.00000 L 2.0000000,2.0000000 L 514.00000,2.0000000 C 502.30600,-2.9068900 481.73000,1.0000000 469.00000,1.0000000 L 364.00000,1.0000000 L 1.0000000,1.0000000 z "
       style="fill:#999999;stroke:none" />
    <path
       id="path6"
       d="M 514.00000,1.0000000 L 514.00000,258.00000 L 1.0000000,258.00000 L 1.0000000,259.00000 L 515.00000,259.00000 L 515.00000,77.000000 L 515.00000,25.000000 L 514.00000,1.0000000 z "
       style="fill:#b1b1b1;stroke:none" />
    <path
       id="path8"
       d="M 2.0000000,2.0000000 L 2.0000000,87.000000 L 3.0000000,87.000000 L 3.0000000,3.0000000 L 513.00000,3.0000000 L 513.00000,87.000000 L 514.00000,87.000000 L 514.00000,2.0000000 L 2.0000000,2.0000000 z "
       style="fill:#0c3285;stroke:none" />
    <path
       id="path10"
       d="M 3.0000000,3.0000000 L 3.0000000,87.000000 L 513.00000,87.000000 L 513.00000,3.0000000 L 3.0000000,3.0000000 z "
       style="fill:#012a86;stroke:none" />
    <path
       id="path12"
       d="M 2.0000000,87.000000 L 2.0000000,172.00000 L 3.0000000,172.00000 L 3.0000000,88.000000 L 513.00000,88.000000 L 513.00000,172.00000 L 514.00000,172.00000 L 514.00000,87.000000 L 2.0000000,87.000000 z "
       style="fill:#ca202d;stroke:none" />
    <path
       id="path14"
       d="M 3.0000000,88.000000 L 3.0000000,172.00000 L 513.00000,172.00000 L 513.00000,88.000000 L 3.0000000,88.000000 z "
       style="fill:#dc171c;stroke:none" />
    <path
       id="path16"
       d="M 2.0000000,172.00000 L 2.0000000,173.00000 L 514.00000,173.00000 C 502.30600,168.09300 481.72900,172.00000 469.00000,172.00000 L 365.00000,172.00000 L 2.0000000,172.00000 z "
       style="fill:#b03228;stroke:none" />
    <path
       sodipodi:nodetypes="ccccc"
       id="path18"
       d="M 2.0000000,173.00000 L 2.0000000,257.00000 L 513.00000,257.00000 L 514.15165,173.00000 L 2.0000000,173.00000 z "
       style="fill:#004300;stroke:none" />
    <path
       id="path20"
       d="M 513.00000,173.00000 L 513.00000,257.00000 L 2.0000000,257.00000 L 2.0000000,258.00000 L 514.00000,258.00000 L 514.00000,199.00000 L 513.00000,173.00000 z "
       style="fill:#1f511f;stroke:none" />
    <g
       transform="translate(24.76055,1.151654)"
       id="g2128">
      <path
         sodipodi:type="arc"
         style="opacity:1.0000000;fill:#ffff00;fill-opacity:1.0000000;stroke:#21428e;stroke-width:0.17261785;stroke-linecap:butt;stroke-linejoin:bevel;stroke-miterlimit:4.0000000;stroke-dasharray:none;stroke-opacity:1.0000000"
         id="path1400"
         sodipodi:cx="187.14369"
         sodipodi:cy="131.87854"
         sodipodi:rx="83.494881"
         sodipodi:ry="83.494881"
         d="M 270.63857,131.87854 A 83.494881,83.494881 0 1 1 270.62717,130.49853"
         transform="translate(-40.88370,-2.303308)"
         sodipodi:start="0.0000000"
         sodipodi:end="6.2666565"
         sodipodi:open="true" />
      <g
         id="g1368"
         transform="matrix(0.100000,0.000000,0.000000,-0.100000,-26.23842,258.0304)"
         style="fill:#000000;stroke:none">
        <path
           id="path1370"
           d="M 1721.0000,2095.0000 C 1721.0000,2062.0000 1717.0000,2011.0000 1714.0000,1983.0000 C 1708.0000,1937.0000 1704.0000,1930.0000 1685.0000,1930.0000 C 1649.0000,1930.0000 1627.0000,1897.0000 1626.0000,1837.0000 L 1625.0000,1783.0000 L 1653.0000,1791.0000 C 1669.0000,1795.0000 1688.0000,1804.0000 1696.0000,1811.0000 C 1708.0000,1821.0000 1710.0000,1814.0000 1710.0000,1771.0000 C 1710.0000,1728.0000 1707.0000,1720.0000 1691.0000,1720.0000 C 1662.0000,1720.0000 1622.0000,1676.0000 1615.0000,1636.0000 C 1592.0000,1514.0000 1756.0000,1447.0000 1820.0000,1552.0000 C 1831.0000,1570.0000 1840.0000,1599.0000 1840.0000,1615.0000 C 1840.0000,1660.0000 1806.0000,1709.0000 1770.0000,1717.0000 C 1741.0000,1722.0000 1740.0000,1724.0000 1740.0000,1783.0000 C 1740.0000,1840.0000 1742.0000,1845.0000 1786.0000,1892.0000 C 1828.0000,1937.0000 1875.0000,2019.0000 1864.0000,2029.0000 C 1862.0000,2032.0000 1847.0000,2020.0000 1832.0000,2003.0000 C 1802.0000,1971.0000 1752.0000,1935.0000 1746.0000,1941.0000 C 1744.0000,1943.0000 1738.0000,1992.0000 1733.0000,2050.0000 C 1725.0000,2137.0000 1723.0000,2145.0000 1721.0000,2095.0000 z " />
        <path
           id="path1372"
           d="M 1533.0000,1627.0000 C 1536.0000,1619.0000 1548.0000,1576.0000 1560.0000,1531.0000 C 1579.0000,1460.0000 1586.0000,1447.0000 1613.0000,1434.0000 C 1675.0000,1401.0000 1804.0000,1406.0000 1853.0000,1442.0000 C 1863.0000,1450.0000 1879.0000,1487.0000 1889.0000,1525.0000 C 1899.0000,1564.0000 1910.0000,1605.0000 1914.0000,1618.0000 C 1928.0000,1659.0000 1904.0000,1640.0000 1880.0000,1591.0000 C 1837.0000,1497.0000 1765.0000,1454.0000 1686.0000,1474.0000 C 1645.0000,1484.0000 1594.0000,1536.0000 1571.0000,1590.0000 C 1559.0000,1617.0000 1545.0000,1640.0000 1539.0000,1640.0000 C 1533.0000,1640.0000 1530.0000,1634.0000 1533.0000,1627.0000 z " />
        <path
           id="path1374"
           d="M 1595.0000,1391.0000 L 1545.0000,1385.0000 L 1585.0000,1378.0000 C 1634.0000,1369.0000 1833.0000,1370.0000 1875.0000,1379.0000 C 1946.0000,1395.0000 1712.0000,1405.0000 1595.0000,1391.0000 z " />
        <path
           id="path1376"
           d="M 1710.0000,1344.0000 C 1696.0000,1341.0000 1668.0000,1335.0000 1648.0000,1329.0000 C 1613.0000,1320.0000 1610.0000,1317.0000 1610.0000,1281.0000 C 1610.0000,1221.0000 1635.0000,1206.0000 1715.0000,1214.0000 C 1791.0000,1222.0000 1830.0000,1237.0000 1831.0000,1259.0000 C 1837.0000,1334.0000 1803.0000,1357.0000 1710.0000,1344.0000 z " />
        <path
           id="path1378"
           d="M 1595.0000,1181.0000 C 1562.0000,1177.0000 1549.0000,1172.0000 1558.0000,1166.0000 C 1577.0000,1154.0000 1879.0000,1155.0000 1891.0000,1167.0000 C 1910.0000,1186.0000 1714.0000,1195.0000 1595.0000,1181.0000 z " />
        <path
           id="path1380"
           d="M 1625.0000,1116.0000 C 1608.0000,1109.0000 1589.0000,1091.0000 1582.0000,1076.0000 C 1562.0000,1032.0000 1529.0000,827.00000 1540.0000,816.00000 C 1551.0000,805.00000 1551.0000,804.00000 1581.0000,915.00000 C 1592.0000,958.00000 1609.0000,1005.0000 1618.0000,1018.0000 C 1655.0000,1074.0000 1756.0000,1089.0000 1809.0000,1045.0000 C 1838.0000,1020.0000 1850.0000,992.00000 1885.0000,866.00000 C 1912.0000,769.00000 1922.0000,813.00000 1901.0000,935.00000 C 1876.0000,1078.0000 1868.0000,1098.0000 1825.0000,1115.0000 C 1782.0000,1133.0000 1665.0000,1134.0000 1625.0000,1116.0000 z " />
        <path
           id="path1382"
           d="M 1694.0000,1040.0000 C 1661.0000,1027.0000 1630.0000,981.00000 1630.0000,946.00000 C 1630.0000,895.00000 1657.0000,809.00000 1681.0000,784.00000 C 1708.0000,755.00000 1743.0000,753.00000 1769.0000,779.00000 C 1793.0000,803.00000 1820.0000,890.00000 1820.0000,942.00000 C 1820.0000,1008.0000 1749.0000,1063.0000 1694.0000,1040.0000 z " />
        <path
           id="path1384"
           d="M 1680.0000,740.00000 C 1655.0000,737.00000 1621.0000,727.00000 1604.0000,717.00000 C 1565.0000,697.00000 1397.0000,519.00000 1407.0000,510.00000 C 1418.0000,500.00000 1504.0000,474.00000 1568.0000,461.00000 C 1683.0000,438.00000 1862.0000,449.00000 1985.0000,487.00000 C 2013.0000,495.00000 2039.0000,506.00000 2043.0000,510.00000 C 2052.0000,518.00000 1905.0000,678.00000 1858.0000,711.00000 C 1825.0000,735.00000 1745.0000,748.00000 1680.0000,740.00000 z " />
      </g>
    </g>
  </g>
</svg>
