<?xml version="1.0" encoding="UTF-8" standalone="no"?>
<svg
   xmlns:dc="http://purl.org/dc/elements/1.1/"
   xmlns:cc="http://web.resource.org/cc/"
   xmlns:rdf="http://www.w3.org/1999/02/22-rdf-syntax-ns#"
   xmlns:svg="http://www.w3.org/2000/svg"
   xmlns="http://www.w3.org/2000/svg"
   xmlns:sodipodi="http://inkscape.sourceforge.net/DTD/sodipodi-0.dtd"
   xmlns:inkscape="http://www.inkscape.org/namespaces/inkscape"
   width="720pt"
   height="480pt"
   id="svg2"
   sodipodi:version="0.32"
   inkscape:version="0.43"
   sodipodi:docname="olympic.svg"
   sodipodi:docbase="/home/demailly/eps"
   version="1.0">
  <metadata
     id="metadata39">
    <rdf:RDF>
      <cc:Work
         rdf:about="">
        <dc:format>image/svg+xml</dc:format>
        <dc:type
           rdf:resource="http://purl.org/dc/dcmitype/StillImage" />
      </cc:Work>
    </rdf:RDF>
  </metadata>
  <sodipodi:namedview
     inkscape:cy="309.1118"
     inkscape:cx="475.43434"
     inkscape:zoom="1.2279853"
     inkscape:window-height="1033"
     inkscape:window-width="1345"
     inkscape:pageshadow="2"
     inkscape:pageopacity="0.0"
     borderopacity="1.0"
     bordercolor="#666666"
     pagecolor="#ffffff"
     id="base"
     inkscape:window-x="152"
     inkscape:window-y="142"
     inkscape:current-layer="svg2" />
  <defs
     id="defs4">
    <marker
       id="ArrowEnd"
       viewBox="0 0 10 10"
       refX="0"
       refY="5"
       markerUnits="strokeWidth"
       markerWidth="4"
       markerHeight="3"
       orient="auto">
      <path
         d="M 0,0 L 10,5 L 0,10 L 0,0 z "
         id="path7" />
    </marker>
    <marker
       id="ArrowStart"
       viewBox="0 0 10 10"
       refX="10"
       refY="5"
       markerUnits="strokeWidth"
       markerWidth="4"
       markerHeight="3"
       orient="auto">
      <path
         d="M 10,0 L 0,5 L 10,10 L 10,0 z "
         id="path10" />
    </marker>
  </defs>
  <g
     id="g2286">
    <rect
       ry="0"
       y="0.86655092"
       x="1.3352058"
       height="594.79053"
       width="894.92725"
       id="rect2284"
       style="opacity:1;fill:#ffffff;fill-opacity:1;stroke:#000000;stroke-width:1;stroke-linecap:butt;stroke-linejoin:bevel;stroke-miterlimit:4;stroke-dasharray:none;stroke-opacity:1" />
    <g
       transform="matrix(4,0,0,4,54.31974,-102.6686)"
       id="g2252">
      <path
         id="path16"
         d="M 99.983007,110.50446 C 99.553307,110.52746 99.119707,110.54646 98.678307,110.54646 C 88.885307,110.54646 80.592407,104.12946 77.760307,95.25446 C 76.393107,94.40646 73.502507,93.46146 71.619707,93.23046 C 73.842407,106.18746 85.108007,116.05446 98.678307,116.05446 C 99.108007,116.05446 99.533807,116.04346 99.959507,116.02346 C 99.787707,113.95746 99.748607,112.50746 99.979107,110.51146"
         style="fill:#000000;stroke:none" />
      <path
         id="path18"
         d="M 108.61531,114.18746 C 118.86931,110.19946 126.13931,100.22246 126.13931,88.53946 C 126.13931,73.34746 113.83831,61.027464 98.670507,61.031364 C 84.920507,61.031364 73.537707,71.16046 71.526007,84.37546 C 73.424407,84.52746 75.408807,85.02346 76.936107,85.44946 C 78.440007,74.77346 87.596307,66.558464 98.670507,66.558464 C 110.79531,66.558464 120.62331,76.40646 120.62731,88.55046 C 120.62731,96.81646 116.08031,104.01546 109.35031,107.77346 C 108.59231,110.43746 108.55731,112.39846 108.61531,114.18346"
         style="fill:#000000;stroke:none" />
      <path
         id="path20"
         d="M 38.268107,61.004064 C 23.100207,61.004064 10.807217,73.32046 10.807217,88.51946 C 10.807217,103.71146 23.100207,116.03146 38.268107,116.03146 C 38.701707,116.03146 39.131407,116.01946 39.561107,115.99646 C 39.408807,114.53146 39.334507,112.11746 39.580607,110.48046 C 39.151007,110.50746 38.713507,110.52346 38.268107,110.52346 C 26.143107,110.52346 16.315007,100.67946 16.315007,88.53146 C 16.315007,76.38246 26.143107,66.535464 38.268107,66.535464 C 50.393107,66.535464 60.229107,76.38246 60.229107,88.53146 C 60.229107,96.78946 55.686107,103.98046 48.967407,107.73846 C 48.408807,109.68346 48.139207,111.43746 48.217407,114.16046 C 58.471307,110.17146 65.736907,100.19546 65.736907,88.51946 C 65.736907,73.32446 53.440007,61.004064 38.272107,61.004064"
         style="fill:#0569a5;fill-opacity:1;stroke:none" />
      <path
         id="path22"
         d="M 68.467407,85.76946 C 68.037707,85.76946 67.611907,85.78546 67.186107,85.80446 C 67.358007,87.87146 67.397107,89.31646 67.166607,91.32046 C 67.596307,91.29346 68.029907,91.27746 68.471307,91.27746 C 78.268107,91.27346 86.561107,97.69546 89.385307,106.56646 C 90.756407,107.41446 93.643107,108.35946 95.526007,108.58946 C 93.303307,95.63246 82.037707,85.76146 68.467407,85.76146"
         style="fill:#ffa814;fill-opacity:1;stroke:none" />
      <path
         id="path24"
         d="M 58.533807,87.63646 C 48.279907,91.62546 41.010307,101.60146 41.010307,113.28146 C 41.010307,127.63646 51.986907,139.42146 65.994707,140.67946 L 70.971307,140.67946 C 83.584507,139.54346 93.736907,129.85546 95.619707,117.44946 C 93.721307,117.29646 91.740807,116.80046 90.205607,116.37546 C 88.701707,127.05046 79.549407,135.26546 68.475207,135.26546 C 56.350207,135.26546 46.518107,125.42146 46.518107,113.27346 C 46.518107,105.00746 51.068907,97.80846 57.795507,94.05046 C 58.553307,91.38646 58.592407,89.42546 58.533807,87.63646"
         style="fill:#ffa814;fill-opacity:1;stroke:none" />
      <path
         id="path26"
         d="M 128.85031,85.76946 C 128.42031,85.76946 127.99431,85.78546 127.56531,85.80446 C 127.73731,87.87146 127.77631,89.31646 127.54931,91.32046 C 127.97931,91.29346 128.41231,91.27746 128.85431,91.27746 C 138.64731,91.27346 146.94031,97.69546 149.76831,106.56646 C 151.13931,107.41446 154.02631,108.35946 155.90831,108.58946 C 153.68631,95.63246 142.42431,85.76146 128.85031,85.76146"
         style="fill:#008240;fill-opacity:1;stroke:none" />
      <path
         id="path28"
         d="M 118.91631,87.63646 C 108.65831,91.62546 101.38921,101.60146 101.38921,113.28146 C 101.38921,127.63646 112.36931,139.42146 126.37331,140.67946 L 131.35031,140.67946 C 143.95931,139.54346 154.11531,129.85546 156.00231,117.44946 C 154.10431,117.29646 152.11931,116.80046 150.59231,116.37546 C 149.08831,127.05046 139.93631,135.26546 128.86231,135.26546 C 116.73731,135.26546 106.90131,125.42146 106.90131,113.27346 C 106.90131,105.00746 111.44831,97.80846 118.17831,94.05046 C 118.93631,91.38646 118.97131,89.42546 118.91631,87.63646"
         style="fill:#008240;fill-opacity:1;stroke:none" />
      <path
         id="path30"
         d="M 164.64331,61.586064 C 149.79131,58.511464 135.26031,68.07446 132.18631,82.95346 C 132.10031,83.37946 132.02631,83.80446 131.95931,84.22646 C 133.42031,84.37146 135.79531,84.78146 137.34631,85.35946 C 137.40531,84.92946 137.47931,84.50046 137.56931,84.06246 C 140.02231,72.16846 151.63931,64.519664 163.51431,66.98046 C 175.38931,69.43746 183.02631,81.07446 180.57331,92.97246 C 178.11931,104.86746 166.49831,112.51946 154.61931,110.05846 C 146.54931,108.38646 140.44031,102.47246 138.12731,95.11746 C 136.34231,94.17546 134.67831,93.55446 132.00231,93.08246 C 133.82331,103.94546 142.10031,113.09746 153.51831,115.46446 C 168.36931,118.53946 182.90531,108.97646 185.97931,94.09346 C 189.04931,79.21446 179.49831,64.660264 164.64331,61.582164"
         style="fill:#fa142f;fill-opacity:1;stroke:none" />
    </g>
  </g>
</svg>
