<?xml version="1.0" encoding="UTF-8" standalone="no"?>
<!-- Created with Inkscape (http://www.inkscape.org/) -->
<svg
   xmlns:svg="http://www.w3.org/2000/svg"
   xmlns="http://www.w3.org/2000/svg"
   version="1.0"
   x="0.00000000"
   y="0.00000000"
   width="531.49603"
   height="354.33072"
   id="svg1452">
  <defs
     id="defs1455" />
  <g
     transform="matrix(1.640390,0.000000,0.000000,1.640297,-377.4576,-337.1586)"
     id="g8113">
    <rect
       width="324.00000"
       height="216.00000"
       x="230.10835"
       y="205.56346"
       style="opacity:1.0000000;fill:#ffffff;fill-opacity:1.0000000;fill-rule:nonzero;stroke:none;stroke-width:0.50000000;stroke-linecap:round;stroke-linejoin:bevel;stroke-miterlimit:4.0000000;stroke-dasharray:none;stroke-dashoffset:0.00000000;stroke-opacity:1.0000000"
       id="rect4471" />
    <rect
       width="216.00000"
       height="216.00000"
       x="230.10236"
       y="205.54723"
       style="opacity:1.0000000;fill:#ffff00;fill-opacity:1.0000000;fill-rule:nonzero;stroke:none;stroke-width:0.50000000;stroke-linecap:round;stroke-linejoin:bevel;stroke-miterlimit:4.0000000;stroke-dasharray:none;stroke-dashoffset:0.00000000;stroke-opacity:1.0000000"
       id="rect3743" />
    <rect
       width="108.00000"
       height="216.00000"
       x="230.10835"
       y="205.56346"
       style="opacity:1.0000000;fill:#0000ff;fill-opacity:1.0000000;fill-rule:nonzero;stroke:none;stroke-width:0.50000000;stroke-linecap:round;stroke-linejoin:bevel;stroke-miterlimit:4.0000000;stroke-dasharray:none;stroke-dashoffset:0.00000000;stroke-opacity:1.0000000"
       id="rect4473" />
    <g
       style="fill:#ffff00;fill-opacity:1.0000000"
       id="g5204">
      <path
         d="M 261.04540,257.94398 C 260.71328,259.46120 260.51284,261.01692 260.51284,262.63050 C 260.51284,275.00700 270.81212,285.06899 283.48390,285.06900 C 296.15567,285.06900 306.41945,275.00700 306.41945,262.63050 C 306.41945,261.01692 306.21901,259.46120 305.88688,257.94398 C 305.84274,258.19796 305.86889,258.47409 305.81589,258.72506 C 305.51164,260.16566 305.08004,261.55499 304.50223,262.87903 C 303.92443,264.20305 303.22820,265.46472 302.40750,266.64245 C 301.58680,267.82017 300.63560,268.90714 299.60269,269.90881 C 298.56978,270.91048 297.44427,271.81125 296.22981,272.60711 C 295.01536,273.40298 293.72521,274.10601 292.35988,274.66634 C 290.99455,275.22667 289.54943,275.64945 288.06391,275.94449 C 286.57838,276.23952 285.05895,276.40603 283.48390,276.40603 C 281.90884,276.40603 280.35391,276.23952 278.86838,275.94449 C 277.38285,275.64945 275.93774,275.22667 274.57240,274.66634 C 273.20707,274.10601 271.91693,273.40298 270.70247,272.60711 C 269.48801,271.81125 268.36252,270.91048 267.32960,269.90881 C 266.29668,268.90714 265.38098,267.82017 264.56029,266.64245 C 263.73960,265.46472 263.00786,264.20305 262.43006,262.87903 C 261.85225,261.55499 261.42065,260.16566 261.11641,258.72506 C 261.06336,258.47384 261.08959,258.19821 261.04540,257.94398 z "
         style="opacity:1.0000000;fill:#ffff00;fill-opacity:1.0000000;fill-rule:nonzero;stroke:#000000;stroke-width:0.00000000;stroke-linecap:square;stroke-linejoin:miter;stroke-miterlimit:0.00000000;stroke-dasharray:none;stroke-dashoffset:0.00000000;stroke-opacity:0.00000000"
         id="path19931" />
      <path
         d="M 301.28583,254.98331 C 301.28834,264.49669 293.33635,272.21011 283.52618,272.21011 C 273.71601,272.21011 265.76401,264.49669 265.76654,254.98331 C 265.76401,245.46991 273.71601,237.75649 283.52618,237.75649 C 293.33635,237.75649 301.28834,245.46991 301.28583,254.98331 L 301.28583,254.98331 z "
         style="opacity:1.0000000;fill:#ffff00;fill-opacity:1.0000000;fill-rule:nonzero;stroke:#000000;stroke-width:0.00000000;stroke-linecap:square;stroke-linejoin:miter;stroke-miterlimit:0.00000000;stroke-dasharray:none;stroke-dashoffset:0.00000000;stroke-opacity:0.00000000"
         id="path11177" />
      <path
         d="M 283.03135,214.46944 C 283.08370,214.87655 283.16756,215.03745 283.26032,215.29540 C 283.51241,215.99644 283.95436,216.46242 284.08587,216.66169 C 284.28892,216.96937 284.45450,217.32977 284.54906,217.61903 C 284.65513,217.94347 284.72472,218.20902 284.65873,218.62655 C 284.62805,218.82068 284.54119,219.30121 284.47876,219.55094 C 284.41773,219.79505 284.39763,220.09362 284.37592,220.32066 C 284.34780,220.61473 284.33373,220.81037 284.33373,221.06225 C 284.33373,221.36035 284.42837,221.53746 284.56313,221.79220 C 284.73986,222.12627 284.86005,222.30091 285.04038,222.54785 C 285.12424,222.66269 285.56970,223.45984 285.66749,223.81330 C 285.78476,224.23717 285.75668,224.52731 285.71450,225.06909 C 285.69097,225.37129 285.51790,225.96714 285.43809,226.28636 C 285.37213,226.55025 285.25919,226.76335 285.19947,227.00225 C 285.13364,227.26555 285.02150,227.41565 285.02150,227.71572 C 285.02150,228.02567 285.16290,228.27783 285.35855,228.51356 C 285.61258,228.81963 285.75313,229.01005 285.99489,229.18967 C 286.26783,229.06564 286.42180,228.85814 286.64330,228.58386 C 286.82188,228.36274 286.94633,228.03474 286.93094,227.77197 C 286.91545,227.50764 286.88788,227.27313 286.83010,227.04202 C 286.76910,226.79802 286.66377,226.52796 286.66377,226.26065 C 286.66377,226.00420 286.66136,225.80951 286.74573,225.50500 C 286.83359,225.18789 286.88953,225.04431 287.06872,224.73528 C 287.20346,224.50291 287.42272,224.03580 287.51104,223.64456 C 287.59493,223.27286 287.57950,222.65847 287.47167,222.25181 C 287.37702,221.89481 286.84415,221.59328 286.83010,220.87746 C 286.82567,220.65182 287.07064,220.26125 287.22340,220.08644 C 287.33692,219.95653 287.98346,219.24683 287.98346,219.32637 C 287.98346,219.56219 288.05490,219.91484 288.18232,220.04226 C 288.38321,220.24314 288.64238,220.51976 288.81867,220.75814 C 288.94706,220.93178 289.10191,221.23392 289.17660,221.43425 C 289.26280,221.66543 289.31481,221.82438 289.35699,222.31646 C 289.37963,222.58064 289.28668,223.39068 289.21638,223.74100 C 289.17186,223.96281 289.16767,224.27636 289.29592,224.53642 C 289.43497,224.81837 289.63159,225.11382 289.83865,225.31579 C 290.04816,225.52014 290.14347,225.62260 290.32998,225.80910 C 290.48120,225.96033 290.65893,226.23477 290.80723,226.48522 C 291.08846,226.96016 291.44156,227.64518 291.51629,228.16161 C 291.59299,228.69163 291.64284,228.99945 291.64284,229.53355 C 291.64284,229.78544 291.62062,230.26478 291.58660,230.45794 C 291.48505,231.03453 291.39307,231.19946 291.29414,231.43251 C 291.15253,231.76609 291.01623,232.04598 290.68792,232.45093 C 290.52163,232.65601 289.69599,233.30285 289.33569,233.52475 C 289.04047,233.70658 288.41946,234.12703 287.98346,234.28041 C 287.38351,234.49146 286.62392,234.61036 286.35284,234.67812 C 286.06216,234.75079 285.51859,234.80677 285.24124,234.94970 C 284.97626,235.08625 284.31388,235.77079 284.15418,235.88374 C 283.79672,236.13657 283.16802,236.21960 282.76376,236.01840 C 282.54494,235.90950 282.18791,235.34554 281.97275,235.17909 C 281.62388,234.90921 280.99049,234.84616 279.98516,234.71618 C 279.58572,234.66453 279.24897,234.61145 278.87624,234.51704 C 278.71920,234.47726 277.98503,234.25161 277.73410,234.12615 C 277.48822,234.00321 276.86100,233.69260 276.44976,233.36566 C 276.03863,233.03881 275.75654,232.55166 275.63346,232.34767 C 275.51247,232.14716 275.10279,231.21977 275.01800,230.82030 C 274.93466,230.42772 274.78378,229.47517 274.78378,229.19209 C 274.78378,228.64471 274.77213,228.17736 274.85650,227.61770 C 274.89739,227.34646 274.95325,226.92166 275.07907,226.67001 C 275.16506,226.49803 275.40364,225.96347 275.53544,225.78781 C 275.68459,225.58902 275.73138,225.48902 275.91426,225.26396 C 276.05430,225.09162 276.47920,224.70398 276.63739,224.40870 C 276.75054,224.19749 276.78724,223.53515 276.78724,223.30151 C 276.78724,223.01907 276.76835,222.50549 276.76835,222.23892 C 276.76835,222.02812 277.09127,221.51671 277.28056,221.32742 C 277.44563,221.16234 277.71819,220.88255 277.91007,220.69066 C 278.13961,220.46113 278.44429,220.16377 278.63319,219.91812 C 278.85280,219.63255 279.13302,219.30587 279.15422,219.40592 C 279.17690,219.51297 279.28676,220.01636 279.31331,220.36043 C 279.39767,221.45422 279.23104,221.81076 279.07468,222.07060 C 278.90817,222.34730 278.74206,222.46941 278.71674,222.78648 C 278.68867,223.13790 278.67865,223.27971 278.71674,223.50237 C 278.76665,223.79419 278.97447,224.12389 279.14016,224.34480 C 279.31924,224.58359 279.56730,224.79180 279.69937,225.17318 C 279.72854,225.25740 279.91470,225.79985 279.92876,226.34702 C 279.93562,226.61404 279.85137,226.99765 279.79056,227.24087 C 279.75178,227.39601 279.68853,227.83229 279.75079,227.99653 C 279.90511,228.40359 280.09449,228.57734 280.22805,228.71242 C 280.46178,228.94880 280.81983,229.31750 280.90416,229.18967 C 281.01618,229.01987 281.10656,228.75072 281.44731,227.91981 C 281.57508,227.60825 281.52964,227.06479 281.44973,226.74515 C 281.38768,226.49698 280.99680,225.46587 280.90416,225.09322 C 280.83952,224.83317 280.73235,224.59018 280.58599,224.21825 C 280.37123,223.67254 280.61798,223.03909 280.74307,222.78889 C 280.86581,222.54343 281.16026,222.21263 281.33041,222.04248 C 281.52524,221.84764 281.87430,221.39086 281.99970,221.10602 C 282.18771,220.67897 282.16609,220.42728 282.16520,220.13827 C 282.16419,219.81540 282.04954,219.57680 281.97799,219.32637 C 281.88850,219.01317 281.77820,218.76584 281.69959,218.45140 C 281.63494,218.19282 281.57917,217.95914 281.50996,217.66763 C 281.38342,217.13452 281.61187,216.46995 281.73936,216.14467 C 281.84027,215.88719 282.10706,215.35704 282.32187,215.11261 C 282.50585,214.90325 282.76396,214.63795 283.03135,214.46944 z "
         style="opacity:1.0000000;fill:#ffff00;fill-opacity:1.0000000;fill-rule:evenodd;stroke:#000000;stroke-width:0.00000000;stroke-linecap:butt;stroke-linejoin:miter;stroke-miterlimit:4.0000000;stroke-dasharray:none;stroke-opacity:1.0000000"
         id="path12639" />
    </g>
  </g>
</svg>
