<?xml version="1.0" encoding="ISO-8859-1" standalone="yes"?>
<svg width="290.654" height="146.637">
  <defs> 
    <marker id="ArrowEnd" viewBox="0 0 10 10" refX="0" refY="5" 
     markerUnits="strokeWidth" 
     markerWidth="4" 
     markerHeight="3" 
     orient="auto"> 
        <path d="M 0 0 L 10 5 L 0 10 z" /> 
    </marker>
    <marker id="ArrowStart" viewBox="0 0 10 10" refX="10" refY="5" 
     markerUnits="strokeWidth" 
     markerWidth="4" 
     markerHeight="3" 
     orient="auto"> 
        <path d="M 10 0 L 0 5 L 10 10 z" /> 
    </marker> </defs>
<g>
<path style="stroke:#000000; stroke-width:0.25; fill:#ffffff" d="M 289.344 145.327L 289.344 1.31021L 1.31021 1.31021L 1.31021 145.327L 289.344 145.327z"/>
<g>
<path style="stroke:none; fill:#000000" d="M 119.551 24.9471C 119.295 25.7951 118.737 26.4787 118.162 27.0245C 117.285 27.8572 115.608 30.6234 116.513 31.6533C 117.419 32.6832 120.254 31.3821 121.103 30.7247C 123.321 33.3002 125.699 32.1901 126.283 30.2169C 130.314 30.8928 132.854 27.3754 127.25 23.1123C 126.689 22.6857 126.053 23.8205 126.653 24.2569C 129.012 25.9708 129.775 27.7088 128.777 28.7367C 127.538 30.0142 125.395 28.3273 124.116 24.909C 123.802 24.071 124.221 23.7718 123.267 23.602C 122.313 23.4322 121.84 23.6062 122.573 24.4105C 123.291 25.1977 124.934 27.8992 124.979 29.2544C 125.035 30.9417 123.208 31.8593 122.042 29.8512C 120.876 27.843 120.362 26.3161 120.192 25.2751C 120.023 24.2341 119.708 24.1231 119.5 25.1474C 119.3 26.1326 119.805 28.074 120.535 29.659C 119.137 30.6316 117.391 31.4539 117.686 30.0396C 118.058 28.2538 118.727 27.3076 119.709 27.3235C 119.409 26.2537 119.42 25.4249 119.551 24.9471z"/>
<path style="stroke:none; fill:#000000" d="M 120.276 18.6134C 119.949 19.0734 119.638 20.0503 120.353 20.6687C 121.068 21.2872 122.084 20.4431 122.231 20.0112C 123.263 20.2719 123.929 19.6326 124.028 19.0787C 124.127 18.5247 123.851 17.562 123.279 17.2791C 122.707 16.9961 122.563 17.5968 122.921 17.9751C 123.28 18.3533 123.629 19.0693 123.279 19.3201C 122.93 19.571 122.296 19.2582 122.104 18.7087C 121.911 18.1591 121.474 18.4442 121.678 18.976C 121.918 19.6016 121.574 20.1899 121.003 20.0144C 120.433 19.8388 120.438 19.1481 120.648 18.8687C 120.859 18.5893 120.441 18.3808 120.276 18.6134z"/>
<path style="stroke:none; fill:#000000" d="M 130.111 19.5087C 130.54 19.4102 131.02 18.697 129.781 17.9483C 128.542 17.1997 127.789 17.2472 128.597 18.8256C 129.704 20.9881 131.552 25.5028 132.243 28.5617C 132.42 29.3452 132.909 28.9185 132.82 28.1233C 132.359 24.0481 130.558 20.6376 130.111 19.5087z"/>
<path style="stroke:none; fill:#000000" d="M 135.341 16.2378C 134.19 15.4194 134.136 15.7035 134.212 16.6538C 134.288 17.6042 134.681 17.5261 135.43 18.0166C 136.39 18.6467 139.176 20.8145 140.65 22.2963C 142.396 24.0502 143.025 25.7497 141.362 26.7361C 139.697 27.7234 139.702 24.7226 140.094 24.0542C 141.291 22.0105 143.987 17.6114 144.495 16.683C 145.002 15.7545 144.44 15.1793 143.6 16.3895C 141.317 19.6774 138.583 23.5859 138.488 25.4289C 138.393 27.272 140.751 29.3228 142.446 27.3643C 144.437 25.063 143.298 23.6839 141.282 21.4274C 140.064 20.0646 136.877 17.3294 135.341 16.2378z"/>
<path style="stroke:none; fill:#000000" d="M 148.409 17.7596C 148.872 17.9368 149.666 17.7099 148.566 15.9463C 147.554 14.3253 146.894 14.1943 147.065 16.1531C 147.324 19.1264 147.303 25.8485 147.194 26.771C 147.085 27.6934 147.398 28.057 147.869 26.7608C 148.341 25.4646 148.52 21.0727 148.409 17.7596z"/>
<path style="stroke:none; fill:#000000" d="M 156.604 19.7845C 156.241 20.432 155.417 22.5341 155.346 23.8857C 153.849 24.3379 152.289 24.7298 152.09 23.7199C 151.89 22.71 154.483 21.1056 155.841 21.6376C 156.047 21.0283 156.305 20.3415 156.499 20.001C 155.929 20.8383 152.747 20.5179 151.518 22.4394C 150.511 24.0138 150.467 26.0463 155.303 25.1141C 155.489 27.2598 156.564 29.3855 158.498 29.3936C 160.094 29.4002 161.645 26.4303 161.942 23.6941C 162.238 20.958 162.54 18.5901 162.744 17.8504C 162.947 17.1107 162.411 17.1688 161.911 17.556C 161.304 18.0256 161.155 18.2439 161.109 19.379C 160.998 22.1737 160.738 24.8928 159.903 26.8863C 159.337 28.2384 157.277 28.6404 156.768 26.5959C 156.31 24.7612 156.519 22.1191 157.258 20.4653C 157.649 19.5931 156.865 19.3184 156.604 19.7845z"/>
<path style="stroke:none; fill:#000000" d="M 166.17 21.1443C 167.186 21.3438 167.313 20.9227 166.566 18.9591C 166.05 17.6016 165.473 17.6766 165.365 18.6396C 165.04 21.5296 163.487 26.4332 161.898 28.9433C 161.543 29.5043 161.925 29.8176 162.545 29.1177C 164.145 27.3134 165.762 22.593 166.17 21.1443z"/>
<path style="stroke:none; fill:#000000" d="M 168.518 22.1524C 168.916 23.4722 169.178 27.2682 168.772 28.8397C 168.538 29.7434 169.178 30.0581 169.48 28.9824C 170.266 26.1775 170.062 22.8351 169.674 21.4904C 169.285 20.1458 168.324 21.5108 168.518 22.1524z"/>
<path style="stroke:none; fill:#000000" d="M 171.445 31.0706C 173.014 29.237 175.348 25.2035 176.058 23.512C 176.473 22.5236 176.59 22.1535 175.702 22.3203C 174.815 22.4872 174.756 22.6722 174.37 23.5375C 173.984 24.4027 172.108 28.2062 171.203 29.2941C 170.299 30.382 168.934 31.4768 165.471 31.836C 162.008 32.1951 163.889 32.7373 165.607 32.6933C 168.522 32.6187 170.54 32.1279 171.445 31.0706z"/>
<path style="stroke:none; fill:#000000" d="M 95.9313 83.4051C 94.6164 83.1627 93.1049 83.2329 91.3289 83.5052C 90.6631 82.1033 90.6098 80.6002 91.2226 80.5296C 91.8354 80.4589 93.4698 81.9843 93.5199 83.2727C 94.0796 83.2412 95.1004 83.2641 95.5775 83.349C 94.8364 83.0533 93.8272 80.2447 92.7095 79.4022C 91.5919 78.5596 89.9591 78.1546 89.4015 79.8511C 88.8439 81.5476 89.7285 83.2224 90.0126 83.7399C 87.3884 84.7616 86.6814 88.7623 89.7852 91.0482C 88.5278 93.1543 90.0167 95.4283 91.519 96.1171C 93.528 97.0383 96.4344 94.8188 97.7034 93.0467C 98.2144 92.333 97.9694 91.8707 97.4435 92.0991C 96.7117 92.4171 96.0442 91.945 95.8823 92.3682C 95.646 92.9856 94.8769 94.9002 93.2203 94.9558C 91.5637 95.0115 90.6974 93.5522 91.0911 92.1642C 91.5282 90.6229 96.1781 88.9786 98.3402 88.4638C 98.8907 88.3327 99.0423 88.2077 99.2153 87.4684C 99.3883 86.7292 99.6034 86.3449 98.2864 86.93C 94.3534 88.6774 92.1304 89.8465 90.8667 89.4973C 89.603 89.148 88.5324 87.3533 89.4949 86.0497C 90.4574 84.746 94.316 84.1661 95.6978 84.2066C 96.68 84.2355 96.4699 83.5044 95.9313 83.4051z"/>
<path style="stroke:none; fill:#000000" d="M 101.877 84.8501C 101.261 84.436 100.12 84.3855 99.825 85.1573C 99.5297 85.929 100.017 86.7044 100.511 86.9118C 100.383 87.5583 100.565 88.461 101.397 88.6479C 102.229 88.8349 102.791 88.5041 103.121 87.9773C 103.451 87.4506 102.877 87.1298 102.423 87.4815C 101.816 87.951 100.834 87.9812 101.067 87.1029C 101.421 87.1743 102.129 86.8528 102.022 86.3365C 101.939 85.9388 101.313 86.1477 101.07 86.3048C 100.827 86.462 100.129 86.0818 100.475 85.4851C 100.699 85.0981 101.306 85.2556 101.548 85.4075C 101.858 85.6024 102.435 85.2254 101.877 84.8501z"/>
<path style="stroke:none; fill:#000000" d="M 102.278 97.1827C 102.316 97.7038 103.052 97.6314 103.769 96.3621C 104.487 95.0929 105.174 94.8418 103.834 94.5196C 102.632 94.2308 102.454 94.6018 101.852 95.4395C 101.486 95.5372 100.866 95.904 100.304 96.5372C 99.0058 97.9993 94.6496 100.183 93.8564 100.502C 93.0632 100.821 92.7999 101.684 94.3892 101.23C 95.9784 100.777 100.057 98.5359 102.278 97.1827z"/>
<path style="stroke:none; fill:#000000" d="M 124.682 113.388C 124.393 113.476 123.339 113.869 123.002 113.936C 122.666 114.002 122.796 114.132 122.584 114.678C 121.048 118.63 120.229 123.369 116.301 123.429C 112.373 123.488 111.071 118.913 114.247 117.474C 114.948 117.157 115.652 117.023 115.369 116.567C 115.086 116.111 113.93 116.175 113.008 116.757C 109.117 119.209 110.827 122.907 112.749 123.973C 115.225 125.348 119.229 125.348 121.914 121.134C 123.533 118.593 124.564 115.692 124.844 113.908C 124.91 113.482 124.896 113.324 124.682 113.388z"/>
<path style="stroke:none; fill:#000000" d="M 121.12 125.443C 124.454 128.429 129.78 129.227 132.17 125.522C 133.13 124.034 132.657 120.612 130.803 122.381C 129.169 123.94 131.685 124.018 133.161 124.034C 134.05 124.044 135.972 123.224 136.973 122.442C 137.974 121.659 138.363 122.098 138.175 122.761C 137.738 124.302 140.787 126.115 142.09 123.899C 142.509 123.187 143.131 122.874 143.104 123.945C 143.066 125.48 144.826 126.191 145.799 125.623C 146.773 125.056 146.817 123.889 146.626 123.462C 146.436 123.036 146.589 123.124 147.229 122.717C 148.019 122.214 148.147 122.136 148.338 123.007C 148.997 126.005 145.946 129.243 142.244 125.923C 140.33 127.241 137.492 126.332 136.724 124.256C 134.658 125.607 131.997 126.261 129.713 125.436C 127.43 124.611 128.076 122.668 129.317 121.544C 130.559 120.421 133.601 118.625 134.287 123.434C 134.974 128.242 126.815 132.602 120.708 126.677C 120.459 126.435 119.906 124.356 121.12 125.443z"/>
<path style="stroke:none; fill:#000000" d="M 153.747 123.478C 156.156 125.667 154.231 131.144 146.191 131.265C 144.594 131.289 144.118 132.346 146.208 132.37C 155.479 132.475 158.002 126.962 155.753 122.159C 155.182 120.939 154.319 120.707 153.722 121.821C 153.125 122.935 153.281 123.054 153.747 123.478z"/>
<path style="stroke:none; fill:#000000" d="M 174.019 112.215C 173.076 112.53 172.993 112.555 173.914 113.413C 176.249 115.588 180.483 118.537 182.999 115.456C 184.446 113.684 184.239 112.153 183.86 111.453C 186.137 111.817 188.793 110.856 189.545 103.786C 189.652 103.753 189.774 103.706 189.95 103.634C 190.505 104.868 191.047 105.697 191.597 105.474C 192.146 105.25 192.038 103.71 191.628 102.979C 191.948 102.836 192.702 102.464 193.068 102.275C 193.812 104.811 193.493 107.072 192.335 107.642C 191.177 108.212 189.62 106.731 189.268 105.724C 189.352 105.216 189.521 104.246 189.545 103.786C 191.055 103.18 195.768 101.862 198.103 97.2725C 199.235 95.0455 199.439 91.4738 198.864 88.7284C 200.868 87.2863 201.967 85.6568 200.895 82.9582C 199.869 80.3784 197.737 79.296 197.902 77.8776C 198.059 76.5237 199.787 76.521 199.767 77.3584C 199.748 78.126 199.514 78.9275 198.822 79.828C 199.055 80.0394 199.694 80.705 199.805 80.9489C 200.209 79.2086 202.173 76.1689 200.225 75.2029C 197.791 73.9957 195.588 76.6416 196.604 79.309C 197.627 81.9946 199.015 82.4954 199.744 83.9884C 200.469 85.4737 199.365 87.3396 198.337 86.3423C 198.174 85.7002 197.851 84.6615 197.658 84.0812C 197.465 83.501 197.242 83.9954 196.983 84.0914C 196.724 84.1874 196.49 83.9746 196.501 84.6972C 196.544 87.5203 195.179 88.5998 194.156 89.9964C 193.233 91.2571 191.906 94.0553 193.966 95.7082C 194.867 96.4312 194.505 95.2007 194.413 94.8113C 193.594 91.3554 197.195 89.9813 197.396 89.1188C 199.058 95.5086 194.606 99.8306 191.015 101.492C 189.917 102 188.394 102.057 188.215 101.074C 188.148 100.707 187.628 100.807 187.45 101.208C 187.272 101.61 187.504 102.962 187.885 103.565C 187.651 106.392 187.224 108.408 186.312 109.175C 184.675 110.55 179.959 108.029 177.763 106.051C 177.327 105.658 177.081 105.662 177.098 106.766C 177.115 107.871 177.116 107.963 178.013 108.379C 178.909 108.796 181.595 109.86 182.298 111.691C 183.001 113.522 181.251 115.513 179.712 115.229C 178.337 114.976 176.11 113.783 175.097 112.475C 174.909 112.232 174.691 111.99 174.019 112.215z"/>
</g>
<path style="stroke:#000000; stroke-width:0.25; fill:#00ef07" d="M 145.327 116.546C 169.201 116.546 188.555 97.1922 188.555 73.3186C 188.555 49.4451 169.201 30.091 145.327 30.091C 121.453 30.091 102.099 49.4451 102.099 73.3186C 102.099 97.1922 121.453 116.546 145.327 116.546z"/>
</g>
</svg>