<?xml version="1.0" encoding="ISO-8859-1" standalone="yes"?>
<svg width="475.484" height="648.38">
  <defs> 
    <marker id="ArrowEnd" viewBox="0 0 10 10" refX="0" refY="5" 
     markerUnits="strokeWidth" 
     markerWidth="4" 
     markerHeight="3" 
     orient="auto"> 
        <path d="M 0 0 L 10 5 L 0 10 z" /> 
    </marker>
    <marker id="ArrowStart" viewBox="0 0 10 10" refX="10" refY="5" 
     markerUnits="strokeWidth" 
     markerWidth="4" 
     markerHeight="3" 
     orient="auto"> 
        <path d="M 10 0 L 0 5 L 10 10 z" /> 
    </marker> </defs>
<g>
<path style="stroke:#000000; stroke-width:1; fill:none" d="M 5.24084 643.139L 5.24084 47.8633"/>
<g>
<path style="stroke:#000000; stroke-width:1.6013999999999999; fill:#00ffff" d="M 102.097 314.565L 102.096 403.851C 102.096 413.924 110.371 422.126 120.716 422.126L 141.626 422.126C 144.065 422.126 146.503 423.061 148.424 424.285C 150.345 422.918 152.488 422.126 155.148 422.126L 176.207 422.126C 186.477 422.127 194.827 413.925 194.827 403.852L 194.828 314.566L 102.097 314.565z"/>
<g>
<path style="stroke:#000000; stroke-width:0.24460000000000001; fill:#000000" d="M 155.192 409.42L 155.192 367.115L 152.608 367.115L 152.608 405.716L 155.192 409.42z"/>
<path style="stroke:#000000; stroke-width:0.24460000000000001; fill:#000000" d="M 142.027 409.656L 142.027 366.838L 144.611 366.838L 144.611 405.448L 142.027 409.656z"/>
</g>
<g>
<path style="stroke:#000000; stroke-width:0.24460000000000001; fill:#000000" d="M 155.192 327.516L 155.192 359.505L 152.608 359.505L 152.608 332.481L 155.192 327.516z"/>
<path style="stroke:#000000; stroke-width:0.24460000000000001; fill:#000000" d="M 142.027 327.516L 142.027 359.505L 144.611 359.505L 144.611 332.481L 142.027 327.516z"/>
</g>
<g>
<path style="stroke:none; fill:#000000" d="M 142.568 252.397C 142.568 249.025 145.287 246.292 148.642 246.293C 151.998 246.293 154.718 249.028 154.719 252.4C 154.72 255.772 152 258.505 148.645 258.504C 145.289 258.503 142.569 255.769 142.568 252.397z"/>
<path style="stroke:none; fill:#000000" d="M 475.484 0"/>
</g>
<path style="stroke:#000000; stroke-width:0.80110000000000003; fill:#ffff00" d="M 107.713 287.225C 106.531 284.563 105.866 281.614 105.866 278.52C 105.866 266.505 115.841 256.792 128.181 256.792C 131.727 256.792 135.274 257.655 138.23 259.095C 140.963 257.799 142.811 257.152 146.579 256.864L 146.579 254.058L 144.215 254.058L 144.215 250.173L 146.579 250.173L 146.579 247.799L 150.717 247.799L 150.717 250.173L 153.081 250.173L 153.081 254.058L 150.717 254.058L 150.717 256.864C 154.485 257.152 156.332 257.8 159.066 259.095C 162.022 257.656 165.495 256.793 169.115 256.792C 181.381 256.793 191.429 266.506 191.429 278.521C 191.429 281.615 190.765 284.492 189.582 287.154C 185.814 288.018 186.331 292.335 184.484 294.924C 183.301 296.939 181.454 299.601 178.203 299.601C 178.203 300.968 177.39 301.4 176.43 301.4L 120.791 301.399C 119.83 301.399 119.092 300.967 119.092 299.6C 115.84 299.6 113.993 296.938 112.811 294.923C 110.964 292.334 111.481 288.089 107.713 287.225z"/>
<path style="stroke:#ffffff; stroke-width:0.1198; fill:#ffffff" d="M 145.544 262.404L 145.544 274.563L 131.653 274.491C 131.505 273.772 132.244 273.268 132.392 272.549C 132.614 271.469 133.131 270.822 133.87 269.671L 139.855 264.131C 140.594 263.555 141.185 263.339 142.072 263.339C 142.367 261.757 144.215 262.692 145.544 262.404z"/>
<path style="stroke:#ffffff; stroke-width:0.1198; fill:#ffffff" d="M 151.751 262.332L 151.751 274.743L 165.642 274.671C 165.79 273.952 165.051 273.196 164.903 272.477C 164.682 271.398 164.164 270.75 163.426 269.599L 157.441 264.059C 156.702 263.483 156.111 263.268 155.224 263.268C 154.928 261.685 153.081 262.62 151.751 262.332z"/>
<path style="stroke:#ffffff; stroke-width:0.1198; fill:#ffffff" d="M 165.125 262.476C 166.233 263.124 166.233 264.131 166.972 264.85C 167.563 265.786 168.228 265.786 168.672 266.721C 168.967 267.225 169.263 267.513 169.411 268.016C 171.11 270.535 170.593 271.757 171.997 274.564L 179.385 274.708L 180.715 275.211C 181.085 275.355 181.381 275.499 181.75 275.643C 182.045 275.859 182.415 275.931 182.563 276.29C 182.932 276.506 183.376 276.722 183.524 277.082C 183.671 277.441 183.967 277.729 184.041 278.089C 184.115 278.449 184.484 278.593 184.632 278.952L 185.444 279.888C 185.887 279.168 185.814 278.665 185.814 277.945C 185.814 276.938 186.553 276.362 185.887 275.355C 185.223 271.83 183.376 269.095 182.045 267.081C 180.937 266.218 180.346 265.498 178.869 265.21C 178.869 264.203 176.8 263.628 176.209 263.484C 174.361 262.908 172.81 261.685 170.593 261.685L 165.495 262.117C 165.495 262.261 165.273 262.476 165.125 262.476z"/>
<path style="stroke:#ffffff; stroke-width:0.1198; fill:#ffffff" d="M 132.318 262.476C 131.21 263.124 131.21 264.131 130.471 264.85C 129.88 265.785 129.215 265.785 128.772 266.721C 128.476 267.224 128.181 267.512 128.033 268.016C 126.333 270.534 126.85 271.757 125.446 274.563L 118.057 274.707L 116.727 275.21C 116.358 275.354 116.063 275.498 115.693 275.642C 115.397 275.858 115.028 275.93 114.88 276.29C 114.511 276.505 114.067 276.721 113.92 277.081C 113.772 277.441 113.476 277.728 113.402 278.088C 113.328 278.448 112.959 278.592 112.811 278.951L 111.998 279.887C 111.555 279.167 111.629 278.664 111.629 277.944C 111.629 276.937 110.89 276.361 111.555 275.354C 112.22 271.829 114.067 269.095 115.397 267.08C 116.506 266.217 117.097 265.497 118.575 265.21C 118.575 264.203 120.644 263.627 121.235 263.483C 123.082 262.908 124.634 261.685 126.85 261.685L 131.949 262.116C 131.949 262.26 132.171 262.476 132.318 262.476z"/>
<path style="stroke:#000000; stroke-width:0.80110000000000003; fill:#ff0000" d="M 125.446 274.563L 119.461 274.563C 115.545 274.563 112.146 277.656 112.146 281.47C 112.146 281.973 112.22 282.477 112.294 282.908L 111.334 283.628C 111.85 283.196 112.885 282.693 113.698 282.693C 116.875 282.333 117.836 284.419 117.836 286.218C 117.836 286.866 117.54 287.585 117.171 288.089C 117.318 288.017 117.54 288.017 117.688 288.017C 119.535 288.017 121.087 289.528 121.086 291.326C 121.087 293.197 119.535 294.708 117.688 294.708C 116.875 294.708 116.136 294.42 115.545 293.988C 115.767 295.643 117.17 296.866 118.87 296.866C 120.348 296.866 121.678 295.787 122.121 294.348C 121.53 294.061 121.16 293.557 121.16 292.909C 121.161 291.902 122.047 290.967 123.008 290.967C 124.042 290.967 125.003 291.902 125.003 292.909C 125.003 293.557 124.633 294.061 124.042 294.348C 124.412 295.787 125.742 296.866 127.293 296.866C 129.067 296.866 130.545 295.428 130.618 293.701C 130.027 294.205 129.288 294.708 128.402 294.708C 126.554 294.708 125.003 293.197 125.003 291.326C 125.003 289.528 126.554 288.017 128.402 288.017C 128.476 288.017 128.55 288.017 128.623 288.017C 128.254 287.513 128.106 286.938 128.106 286.218C 128.106 284.42 129.584 282.909 131.505 282.909C 133.352 282.909 134.904 284.42 134.904 286.218C 134.904 286.866 134.535 287.585 134.239 288.089C 134.387 288.017 134.535 288.017 134.756 288.017C 136.604 288.017 138.155 289.528 138.155 291.327C 138.155 293.197 136.604 294.708 134.756 294.708C 133.943 294.708 133.5 294.348 132.909 293.916C 133.131 295.5 134.239 296.866 135.864 296.866C 137.416 296.866 138.746 295.787 139.19 294.349C 138.599 294.061 138.155 293.557 138.155 292.91C 138.155 291.902 139.042 290.967 140.076 290.967C 141.111 290.967 141.997 291.902 141.997 292.91C 141.997 293.557 141.628 294.061 141.037 294.348C 141.48 295.787 142.81 296.866 144.288 296.866C 146.061 296.866 147.613 295.428 147.687 293.701C 147.096 294.205 146.283 294.708 145.47 294.708C 143.623 294.708 142.071 293.197 142.072 291.327C 142.072 289.528 143.623 288.017 145.47 288.017C 145.544 288.017 145.618 288.017 145.692 288.017C 145.322 287.513 145.101 286.938 145.101 286.219C 145.101 284.42 146.652 282.909 148.5 282.909C 150.421 282.909 151.972 284.42 151.972 286.219C 151.973 286.866 151.603 287.586 151.234 288.089C 151.455 288.017 151.603 288.017 151.751 288.017C 153.672 288.017 155.15 289.528 155.15 291.327C 155.15 293.198 153.672 294.708 151.751 294.708C 151.012 294.708 150.347 294.277 149.83 293.845C 150.051 295.428 151.233 296.866 152.933 296.866C 154.485 296.867 155.815 295.787 156.184 294.349C 155.593 294.061 155.223 293.557 155.223 292.91C 155.223 291.902 156.11 290.967 157.145 290.967C 158.179 290.967 159.066 291.902 159.066 292.91C 159.066 293.557 158.77 294.061 158.179 294.349C 158.549 295.787 159.879 296.867 161.43 296.867C 163.203 296.867 164.755 295.428 164.829 293.701C 164.238 294.205 163.425 294.709 162.612 294.709C 160.691 294.708 159.14 293.198 159.14 291.327C 159.14 289.528 160.691 288.017 162.613 288.017C 162.686 288.017 162.686 288.017 162.76 288.017C 162.391 287.514 162.243 286.938 162.243 286.219C 162.243 284.42 163.795 282.909 165.642 282.909C 167.489 282.909 169.041 284.42 169.041 286.219C 169.041 286.866 168.745 287.586 168.376 288.09C 168.524 288.017 168.745 288.017 168.893 288.017C 170.74 288.017 172.292 289.529 172.292 291.327C 172.292 293.198 171.036 294.709 169.115 294.709C 168.376 294.708 167.267 294.205 166.676 293.773C 166.972 295.356 168.376 296.867 170.075 296.867C 171.553 296.867 172.883 295.788 173.326 294.349C 172.735 294.061 172.366 293.558 172.366 292.91C 172.366 291.903 173.252 290.967 174.213 290.967C 175.248 290.967 176.208 291.903 176.208 292.91C 176.208 293.558 175.839 294.061 175.248 294.349C 175.617 295.788 176.947 296.867 178.499 296.867C 180.272 296.867 181.75 295.428 181.824 293.701C 181.233 294.205 180.494 294.709 179.607 294.709C 177.76 294.709 176.208 293.198 176.208 291.327C 176.208 289.529 177.76 288.018 179.607 288.018C 179.681 288.018 179.755 288.018 179.829 288.018C 179.459 287.514 179.312 286.938 179.312 286.219C 179.312 284.42 180.789 282.909 182.71 282.909C 183.967 282.909 185.518 283.054 186.036 284.061L 184.927 282.909C 185.075 282.478 185.149 281.974 185.149 281.471C 185.149 277.657 181.898 274.563 177.982 274.563L 171.627 274.563L 172.416 279.978L 166.353 280.186L 165.569 274.563L 152.466 274.563L 151.685 279.978L 145.915 279.978L 144.937 274.563L 132.421 274.563L 130.954 280.082L 125.282 280.082L 125.446 274.563z"/>
<path style="stroke:#000000; stroke-width:0.24460000000000001; fill:#000000" d="M 117.318 357.168L 144.262 357.168L 144.583 359.533L 122.342 359.533L 117.318 357.168z"/>
<path style="stroke:#000000; stroke-width:0.24460000000000001; fill:#000000" d="M 179.264 357.168L 152.319 357.168L 151.999 359.533L 174.24 359.533L 179.264 357.168z"/>
<path style="stroke:#000000; stroke-width:0.24460000000000001; fill:#000000" d="M 179.784 369.866L 152.839 369.866L 152.519 366.469L 173.575 366.469L 179.784 369.866z"/>
<path style="stroke:#000000; stroke-width:0.24460000000000001; fill:#000000" d="M 117.837 369.866L 144.782 369.866L 145.102 366.469L 123.809 366.469L 117.837 369.866z"/>
<path style="stroke:none; fill:none" d="M 146.579 258.951L 146.579 254.058L 144.215 254.058L 144.215 250.173L 146.579 250.173L 146.579 247.799L 150.717 247.799L 150.717 250.173L 153.081 250.173L 153.081 254.058L 150.717 254.058L 150.717 258.951L 146.579 258.951z"/>
<path style="stroke:#000000; stroke-width:0.80110000000000003; fill:#000000" d="M 148.574 279.815L 146.726 279.815L 146.727 260.893C 137.49 261.9 130.028 269.454 130.027 278.808C 130.027 279.383 130.027 279.239 130.101 279.815L 126.037 279.815C 126.037 279.455 126.037 279.671 126.037 279.311C 126.333 272.045 129.437 266.001 134.83 261.9C 132.762 261.181 130.545 260.749 128.254 260.749C 118.058 260.749 109.782 268.879 109.782 278.807C 109.782 281.038 110.077 283.34 111.112 285.643C 111.259 284.635 111.85 283.7 112.737 283.197C 112.294 281.47 112.146 280.174 112.146 278.808C 112.146 270.174 119.387 263.051 128.254 263.052C 128.846 263.052 129.437 263.123 129.954 263.195C 126.111 267.512 123.895 273.196 123.895 279.311C 123.895 279.743 123.895 280.247 123.895 280.678L 132.466 280.678L 132.466 278.808C 132.466 271.541 137.49 265.426 144.362 263.555L 144.362 280.679L 148.574 280.679L 152.933 280.679L 152.933 263.555C 159.731 265.426 164.829 271.542 164.829 278.808L 164.829 280.679L 173.327 280.679C 173.401 280.247 173.327 279.744 173.327 279.312C 173.327 273.196 171.11 267.513 167.342 263.196C 167.859 263.124 168.45 263.052 169.041 263.052C 177.908 263.052 185.149 270.175 185.149 278.808C 185.149 280.175 185.001 281.471 184.558 283.197C 185.444 283.701 186.036 284.636 186.11 285.643C 187.218 283.341 187.513 281.039 187.513 278.808C 187.513 268.88 179.238 260.75 169.041 260.75C 166.677 260.749 164.46 261.181 162.465 261.901C 167.859 266.002 170.962 272.045 171.258 279.312C 171.258 279.672 171.258 279.456 171.184 279.815L 167.194 279.816C 167.268 279.24 167.194 279.384 167.194 278.808C 167.194 269.455 159.805 261.901 150.495 260.893L 150.495 279.815L 148.574 279.815z"/>
<path style="stroke:#000000; stroke-width:0.80110000000000003; fill:#ffff00" d="M 121.013 301.471L 122.417 306.507C 121.604 306.795 121.013 307.515 121.013 308.378C 121.013 309.457 122.047 310.392 123.155 310.392L 174.139 310.393C 175.247 310.393 176.208 309.457 176.208 308.379C 176.208 307.515 175.543 306.796 174.804 306.508L 176.208 301.472L 121.013 301.471z"/>
<path style="stroke:#000000; stroke-width:0.80110000000000003; fill:#000000" d="M 121.013 301.471L 121.53 303.558L 175.543 303.558L 176.06 301.472L 121.013 301.471z"/>
<path style="stroke:#000000; stroke-width:0.039699999999999999; fill:#000000" d="M 115.693 294.276L 116.875 296.219L 118.944 296.866L 120.865 296.219L 122.047 294.348L 120.791 292.765L 119.387 294.277L 117.466 294.636L 115.693 294.276z"/>
<path style="stroke:#000000; stroke-width:0.039699999999999999; fill:#000000" d="M 130.471 294.348L 129.288 296.363L 127.219 296.938L 125.224 296.363L 124.042 294.492L 125.298 292.909L 126.776 294.42L 128.697 294.78L 130.471 294.348z"/>
<path style="stroke:#000000; stroke-width:0.039699999999999999; fill:#000000" d="M 132.761 294.348L 133.943 296.363L 136.012 296.938L 138.007 296.363L 139.19 294.421L 137.933 292.909L 136.456 294.348L 134.534 294.78L 132.761 294.348z"/>
<path style="stroke:#000000; stroke-width:0.039699999999999999; fill:#000000" d="M 147.465 294.421L 146.283 296.435L 144.214 297.011L 142.219 296.435L 141.037 294.492L 142.293 292.982L 143.771 294.42L 145.692 294.78L 147.465 294.421z"/>
<path style="stroke:#000000; stroke-width:0.039699999999999999; fill:#000000" d="M 149.83 294.277L 151.012 296.291L 153.007 296.866L 155.002 296.291L 156.184 294.349L 154.928 292.838L 153.45 294.349L 151.603 294.708L 149.83 294.277z"/>
<path style="stroke:#000000; stroke-width:0.039699999999999999; fill:#000000" d="M 164.534 294.349L 163.351 296.291L 161.282 296.939L 159.288 296.291L 158.105 294.421L 159.361 292.838L 160.839 294.349L 162.76 294.709L 164.534 294.349z"/>
<path style="stroke:#000000; stroke-width:0.039699999999999999; fill:#000000" d="M 166.898 294.349L 168.08 296.363L 170.149 296.939L 172.144 296.363L 173.326 294.421L 172.07 292.91L 170.593 294.349L 168.671 294.781L 166.898 294.349z"/>
<path style="stroke:#000000; stroke-width:0.039699999999999999; fill:#000000" d="M 181.676 294.349L 180.494 296.363L 178.425 296.939L 176.43 296.363L 175.247 294.493L 176.504 292.91L 177.982 294.421L 179.903 294.78L 181.676 294.349z"/>
<path style="stroke:#000000; stroke-width:1.6013999999999999; fill:#ffff00" d="M 152.193 406.514C 153.375 406.658 154.557 407.665 154.705 408.816C 155.739 409.248 156.478 410.183 156.478 411.334C 156.478 412.773 155.222 413.996 153.744 413.996C 152.931 413.996 152.267 413.636 151.749 413.061C 150.862 413.708 149.828 414.068 148.646 414.068C 147.538 414.068 146.429 413.708 145.617 413.061C 145.099 413.636 144.286 413.996 143.474 413.996C 141.996 413.996 140.74 412.773 140.74 411.334C 140.74 410.183 141.479 409.247 142.513 408.816C 142.661 407.665 143.844 406.658 145.026 406.514L 145.026 367.159L 134.238 367.159L 138.376 379.246L 135.198 379.246L 134.608 377.519L 131.43 380.253L 128.179 377.591L 127.662 379.246L 124.632 379.246L 128.253 367.303L 122.342 367.302C 122.194 368.382 121.086 369.317 119.904 369.317C 119.756 369.317 119.534 369.317 119.386 369.245C 119.239 370.324 118.426 371.116 117.317 371.116C 116.209 371.116 115.248 370.108 115.248 369.029C 115.248 368.094 115.987 367.302 116.948 367.087C 116.8 366.799 116.726 366.511 116.726 366.223C 116.726 366.151 116.726 366.08 116.726 366.007C 116.135 365.863 115.618 365.504 115.323 365C 114.953 365.288 114.51 365.576 114.066 365.576C 112.958 365.576 111.997 364.568 111.997 363.489C 111.997 362.41 112.958 361.403 114.066 361.403C 114.51 361.403 114.953 361.69 115.248 361.906C 115.544 361.475 116.061 361.043 116.726 360.971C 116.726 360.899 116.726 360.827 116.726 360.755C 116.726 360.467 116.8 360.18 116.874 359.892C 115.914 359.676 115.248 358.884 115.248 357.949C 115.248 356.798 116.209 355.863 117.318 355.863C 118.352 355.863 119.239 356.654 119.387 357.661C 119.534 357.661 119.682 357.661 119.83 357.662C 121.086 357.661 122.12 358.453 122.342 359.532L 144.361 359.533L 144.361 331.977C 143.253 331.833 142.588 330.682 142.588 329.531C 142.588 329.315 142.662 329.171 142.662 329.027C 141.627 328.883 140.815 328.02 140.815 327.012C 140.815 325.933 141.775 324.998 142.884 324.998C 143.918 324.998 144.731 325.717 144.952 326.653C 145.174 326.508 145.47 326.437 145.839 326.437C 145.913 326.437 145.913 326.437 145.987 326.437C 146.135 325.789 146.578 325.358 147.021 324.998C 146.726 324.71 146.504 324.278 146.504 323.847C 146.504 322.768 147.539 321.904 148.647 321.904C 149.756 321.904 150.716 322.768 150.716 323.919C 150.716 324.35 150.494 324.71 150.199 325.07C 150.716 325.358 151.085 325.861 151.233 326.437C 151.307 326.437 151.381 326.437 151.455 326.437C 151.75 326.437 152.046 326.581 152.341 326.653C 152.489 325.717 153.376 324.998 154.336 324.998C 155.445 324.998 156.479 325.933 156.479 327.085C 156.479 328.092 155.592 328.883 154.558 329.027C 154.632 329.243 154.632 329.387 154.632 329.531C 154.632 330.682 153.671 331.761 152.563 331.905L 152.563 359.533L 174.877 359.533C 175.025 358.453 176.207 357.662 177.389 357.662C 177.611 357.662 177.759 357.662 177.907 357.662C 178.054 356.655 178.941 355.863 179.976 355.863C 181.084 355.864 182.045 356.799 182.044 357.95C 182.044 358.885 181.306 359.677 180.345 359.893C 180.493 360.18 180.567 360.468 180.567 360.756C 180.567 360.828 180.566 360.9 180.567 360.972C 181.232 361.044 181.675 361.475 182.044 361.907C 182.34 361.691 182.783 361.404 183.227 361.404C 184.335 361.404 185.222 362.411 185.222 363.49C 185.222 364.569 184.261 365.576 183.153 365.576C 182.71 365.576 182.34 365.289 181.97 365.001C 181.675 365.504 181.158 365.864 180.566 366.008C 180.567 366.08 180.566 366.152 180.567 366.224C 180.567 366.512 180.419 366.799 180.345 367.087C 181.306 367.303 182.044 368.095 182.044 369.03C 182.044 370.109 181.084 371.116 179.902 371.116C 178.867 371.116 178.054 370.325 177.907 369.246C 177.685 369.318 177.537 369.317 177.389 369.318C 176.207 369.317 175.099 368.382 174.951 367.303L 172.365 367.303L 172.365 376.08C 172.365 378.095 170.591 379.965 168.523 379.965C 167.488 379.966 166.601 379.606 165.936 378.958C 165.271 379.606 164.311 379.966 163.276 379.965C 161.208 379.966 159.508 378.311 159.508 376.224L 159.508 367.159L 152.193 367.159L 152.193 406.514z"/>
<path style="stroke:none; fill:#000000" d="M 170 376.224C 170 377.016 169.261 377.663 168.523 377.663C 167.71 377.663 167.045 377.016 167.045 376.224L 167.045 366.871L 170 366.871L 170 376.224z"/>
<path style="stroke:none; fill:#000000" d="M 164.754 376.224C 164.754 377.016 164.089 377.663 163.276 377.663C 162.537 377.663 161.872 377.016 161.872 376.224L 161.873 366.871L 164.754 366.871L 164.754 376.224z"/>
<path style="stroke:none; fill:#000000" d="M 128.696 375.36L 131.504 377.663L 134.09 375.217L 131.209 367.518L 128.696 375.36z"/>
<g>
<path style="stroke:none; fill:none" d="M 144.93 366.713L 151.357 366.715L 151.358 372.397L 144.931 372.396L 144.93 366.713z"/>
<path style="stroke:none; fill:none" d="M 475.382 25.6264"/>
</g>
<path style="stroke:none; fill:#ffff00" d="M 148.703 371.127L 140.481 363.044L 148.415 354.598L 156.348 363.044L 148.703 371.127z"/>
</g>
<path style="stroke:none; fill:#ffffff" d="M 107.181 387.038L 105.96 387.038L 105.96 387.681L 109.06 387.681L 109.06 387.038L 107.675 387.038L 107.675 385.848L 109.06 385.848L 109.06 385.205L 105.96 385.205L 105.96 385.848L 107.181 385.848L 107.181 387.038z"/>
<path style="stroke:none; fill:#ffffff" d="M 109.142 383.259C 109.142 382.297 108.394 381.627 107.506 381.627C 106.639 381.627 105.878 382.297 105.878 383.259C 105.878 384.221 106.639 384.89 107.506 384.89C 108.394 384.89 109.142 384.221 109.142 383.259z"/>
<path style="stroke:none; fill:#00ffff" d="M 106.474 383.259C 106.474 382.695 106.98 382.292 107.481 382.292C 107.95 382.292 108.546 382.712 108.546 383.259C 108.546 383.806 107.95 384.226 107.481 384.226C 106.98 384.226 106.474 383.823 106.474 383.259z"/>
<path style="stroke:none; fill:#ffffff" d="M 106.059 379.108C 105.944 379.331 105.878 379.585 105.878 379.843C 105.878 380.81 106.655 381.47 107.535 381.47C 108.39 381.47 109.142 380.783 109.142 379.856C 109.142 379.589 109.064 379.349 108.957 379.108L 108.238 379.108C 108.431 379.288 108.567 379.563 108.567 379.839C 108.567 380.438 108.045 380.805 107.523 380.805C 106.988 380.805 106.454 380.451 106.454 379.834C 106.454 379.559 106.577 379.288 106.783 379.108L 106.059 379.108z"/>
<path style="stroke:none; fill:#ffffff" d="M 106.223 374.303C 106.014 374.505 105.878 374.911 105.878 375.204C 105.878 375.76 106.293 376.167 106.807 376.167C 107.288 376.167 107.49 375.856 107.654 375.432C 107.749 375.174 107.839 374.859 108.16 374.859C 108.398 374.859 108.608 375.021 108.608 375.283C 108.608 375.559 108.394 375.791 108.156 375.878L 108.538 376.293C 108.896 376.066 109.142 375.734 109.142 375.279C 109.142 374.605 108.703 374.194 108.082 374.194C 107.042 374.194 107.259 375.502 106.737 375.502C 106.536 375.502 106.388 375.305 106.388 375.099C 106.388 374.885 106.487 374.728 106.643 374.605L 106.223 374.303z"/>
<path style="stroke:none; fill:#ffffff" d="M 105.96 373.215L 105.96 373.858L 109.06 373.858L 109.06 373.215L 105.96 373.215z"/>
<path style="stroke:none; fill:#ffffff" d="M 107.412 371.256L 107.905 371.256L 107.905 370.556C 108.279 370.569 108.608 370.906 108.608 371.308C 108.608 371.93 108.036 372.24 107.523 372.24C 107.009 372.24 106.413 371.934 106.413 371.313C 106.413 370.972 106.626 370.692 106.906 370.56L 106.618 369.992C 106.145 370.246 105.878 370.735 105.878 371.295C 105.878 372.279 106.639 372.905 107.523 372.905C 108.378 372.905 109.142 372.297 109.142 371.335C 109.142 370.311 108.365 369.834 107.49 369.834L 107.412 369.834L 107.412 371.256z"/>
<path style="stroke:none; fill:#ffffff" d="M 109.06 369.516L 109.06 368.873L 106.955 368.873L 106.955 368.865L 109.122 367.128L 109.122 366.665L 105.96 366.665L 105.96 367.308L 108.045 367.308L 108.045 367.316L 105.878 369.053L 105.878 369.516L 109.06 369.516z"/>
<path style="stroke:none; fill:#ffffff" d="M 109.142 364.723C 109.142 363.761 108.394 363.092 107.506 363.092C 106.639 363.092 105.878 363.761 105.878 364.723C 105.878 365.686 106.639 366.355 107.506 366.355C 108.394 366.355 109.142 365.686 109.142 364.723z"/>
<path style="stroke:none; fill:#00ffff" d="M 106.474 364.723C 106.474 364.159 106.98 363.757 107.481 363.757C 107.95 363.757 108.546 364.177 108.546 364.723C 108.546 365.27 107.95 365.69 107.481 365.69C 106.98 365.69 106.474 365.288 106.474 364.723z"/>
<path style="stroke:none; fill:#ffffff" d="M 106.487 359.179L 106.487 358.514L 105.96 358.514L 105.96 360.487L 106.487 360.487L 106.487 359.822L 109.06 359.822L 109.06 359.179L 106.487 359.179z"/>
<path style="stroke:none; fill:#ffffff" d="M 105.96 357.884L 105.96 358.575L 109.142 357.316L 109.142 356.94L 105.96 355.658L 105.96 356.349L 108.049 357.084L 108.049 357.093L 105.96 357.884z"/>
<path style="stroke:none; fill:#ffffff" d="M 106.487 353.778L 105.96 353.778L 105.96 355.484L 109.06 355.484L 109.06 353.778L 108.534 353.778L 108.534 354.841L 107.695 354.841L 107.695 353.817L 107.169 353.817L 107.169 354.841L 106.487 354.841L 106.487 353.778z"/>
<path style="stroke:none; fill:#ffffff" d="M 106.487 352.279L 106.487 351.614L 105.96 351.614L 105.96 353.586L 106.487 353.586L 106.487 352.922L 109.06 352.922L 109.06 352.279L 106.487 352.279z"/>
<path style="stroke:none; fill:#ffffff" d="M 105.96 350.984L 105.96 351.675L 109.142 350.415L 109.142 350.039L 105.96 348.758L 105.96 349.449L 108.049 350.184L 108.049 350.192L 105.96 350.984z"/>
<path style="stroke:none; fill:#ffffff" d="M 107.753 347.285C 107.683 346.843 107.288 346.611 106.894 346.611C 106.232 346.611 105.96 347.062 105.96 347.713L 105.96 348.584L 109.06 348.584L 109.06 347.941L 107.81 347.941L 107.81 347.932L 109.06 347.132L 109.06 346.353L 107.753 347.285z"/>
<path style="stroke:none; fill:#00ffff" d="M 106.454 347.941L 106.454 347.853C 106.454 347.512 106.528 347.254 106.91 347.254C 107.288 347.254 107.387 347.503 107.387 347.858L 107.387 347.941L 106.454 347.941z"/>
<path style="stroke:none; fill:#ffffff" d="M 107.901 342.974L 107.901 342.655C 107.901 341.981 107.58 341.6 106.922 341.6C 106.219 341.6 105.96 342.051 105.96 342.742L 105.96 343.617L 109.06 343.617L 109.06 342.974L 107.901 342.974z"/>
<path style="stroke:none; fill:#00ffff" d="M 106.462 342.974L 106.462 342.86C 106.462 342.501 106.519 342.257 106.918 342.257C 107.321 342.257 107.399 342.462 107.399 342.843L 107.399 342.974L 106.462 342.974z"/>
<path style="stroke:none; fill:#ffffff" d="M 105.96 340.666L 105.96 341.309L 109.06 341.309L 109.06 340.666L 105.96 340.666z"/>
<path style="stroke:none; fill:#ffffff" d="M 105.96 339.804L 105.96 340.495L 109.142 339.236L 109.142 338.859L 105.96 337.578L 105.96 338.269L 108.049 339.004L 108.049 339.012L 105.96 339.804z"/>
<path style="stroke:none; fill:#ffffff" d="M 106.223 335.549C 106.014 335.75 105.878 336.157 105.878 336.45C 105.878 337.006 106.293 337.413 106.807 337.413C 107.288 337.413 107.49 337.102 107.654 336.678C 107.749 336.42 107.839 336.105 108.16 336.105C 108.398 336.105 108.608 336.267 108.608 336.529C 108.608 336.805 108.394 337.036 108.156 337.124L 108.538 337.539C 108.896 337.312 109.142 336.979 109.142 336.525C 109.142 335.851 108.703 335.44 108.082 335.44C 107.042 335.44 107.259 336.748 106.737 336.748C 106.536 336.748 106.388 336.551 106.388 336.345C 106.388 336.131 106.487 335.974 106.643 335.851L 106.223 335.549z"/>
<path style="stroke:none; fill:#ffffff" d="M 190.375 329.397L 191.595 329.397L 191.595 328.753L 188.497 328.753L 188.497 329.397L 189.882 329.397L 189.882 330.587L 188.497 330.587L 188.497 331.23L 191.595 331.23L 191.595 330.587L 190.375 330.587L 190.375 329.397z"/>
<path style="stroke:none; fill:#ffffff" d="M 188.415 333.177C 188.415 334.14 189.163 334.81 190.05 334.81C 190.917 334.81 191.678 334.14 191.678 333.177C 191.678 332.215 190.917 331.545 190.05 331.545C 189.163 331.545 188.415 332.215 188.415 333.177z"/>
<path style="stroke:none; fill:#00ffff" d="M 191.082 333.177C 191.082 333.742 190.576 334.144 190.075 334.144C 189.607 334.144 189.011 333.724 189.011 333.177C 189.011 332.63 189.607 332.21 190.075 332.21C 190.576 332.21 191.082 332.613 191.082 333.177z"/>
<path style="stroke:none; fill:#ffffff" d="M 191.497 337.33C 191.612 337.107 191.678 336.853 191.678 336.595C 191.678 335.628 190.901 334.967 190.022 334.967C 189.167 334.967 188.415 335.654 188.415 336.582C 188.415 336.849 188.493 337.089 188.6 337.33L 189.319 337.33C 189.126 337.151 188.99 336.875 188.99 336.599C 188.99 336 189.512 335.632 190.034 335.632C 190.568 335.632 191.102 335.986 191.102 336.604C 191.102 336.879 190.979 337.151 190.774 337.33L 191.497 337.33z"/>
<path style="stroke:none; fill:#ffffff" d="M 191.332 342.137C 191.542 341.936 191.678 341.529 191.678 341.236C 191.678 340.68 191.263 340.273 190.749 340.273C 190.268 340.273 190.067 340.583 189.902 341.008C 189.808 341.266 189.718 341.581 189.397 341.581C 189.159 341.581 188.949 341.419 188.949 341.157C 188.949 340.881 189.163 340.649 189.401 340.562L 189.019 340.146C 188.661 340.373 188.415 340.706 188.415 341.161C 188.415 341.835 188.855 342.246 189.475 342.246C 190.515 342.246 190.297 340.938 190.819 340.938C 191.02 340.938 191.168 341.135 191.168 341.341C 191.168 341.555 191.069 341.713 190.913 341.835L 191.332 342.137z"/>
<path style="stroke:none; fill:#ffffff" d="M 191.595 343.226L 191.595 342.582L 188.497 342.582L 188.497 343.226L 191.595 343.226z"/>
<path style="stroke:none; fill:#ffffff" d="M 190.145 345.186L 189.652 345.186L 189.652 345.886C 189.278 345.873 188.949 345.536 188.949 345.133C 188.949 344.512 189.52 344.201 190.034 344.201C 190.548 344.201 191.143 344.508 191.143 345.129C 191.143 345.47 190.93 345.75 190.65 345.882L 190.938 346.451C 191.411 346.197 191.678 345.707 191.678 345.146C 191.678 344.162 190.917 343.536 190.034 343.536C 189.179 343.536 188.415 344.144 188.415 345.107C 188.415 346.131 189.192 346.608 190.067 346.608L 190.145 346.608L 190.145 345.186z"/>
<path style="stroke:none; fill:#ffffff" d="M 188.497 346.926L 188.497 347.569L 190.601 347.569L 190.601 347.578L 188.436 349.315L 188.436 349.779L 191.595 349.779L 191.595 349.136L 189.512 349.136L 189.512 349.127L 191.678 347.39L 191.678 346.926L 188.497 346.926z"/>
<path style="stroke:none; fill:#ffffff" d="M 188.415 351.721C 188.415 352.684 189.163 353.354 190.05 353.354C 190.917 353.354 191.678 352.684 191.678 351.721C 191.678 350.759 190.917 350.089 190.05 350.089C 189.163 350.089 188.415 350.759 188.415 351.721z"/>
<path style="stroke:none; fill:#00ffff" d="M 191.082 351.721C 191.082 352.286 190.576 352.688 190.075 352.688C 189.607 352.688 189.011 352.268 189.011 351.721C 189.011 351.174 189.607 350.754 190.075 350.754C 190.576 350.754 191.082 351.157 191.082 351.721z"/>
<path style="stroke:none; fill:#ffffff" d="M 191.595 356.59L 191.595 355.899L 188.415 357.159L 188.415 357.535L 191.595 358.818L 191.595 358.126L 189.508 357.391L 189.508 357.382L 191.595 356.59z"/>
<path style="stroke:none; fill:#ffffff" d="M 191.595 359.635L 191.595 358.992L 188.497 358.992L 188.497 359.635L 191.595 359.635z"/>
<path style="stroke:none; fill:#ffffff" d="M 188.497 360.103L 188.497 360.746L 190.601 360.746L 190.601 360.755L 188.436 362.492L 188.436 362.956L 191.595 362.956L 191.595 362.313L 189.512 362.313L 189.512 362.304L 191.678 360.567L 191.678 360.103L 188.497 360.103z"/>
<path style="stroke:none; fill:#ffffff" d="M 191.497 365.629C 191.612 365.406 191.678 365.152 191.678 364.894C 191.678 363.927 190.901 363.266 190.022 363.266C 189.167 363.266 188.415 363.953 188.415 364.881C 188.415 365.148 188.493 365.388 188.6 365.629L 189.319 365.629C 189.126 365.45 188.99 365.174 188.99 364.898C 188.99 364.299 189.512 363.931 190.034 363.931C 190.568 363.931 191.102 364.286 191.102 364.903C 191.102 365.178 190.979 365.45 190.774 365.629L 191.497 365.629z"/>
<path style="stroke:none; fill:#ffffff" d="M 191.595 366.696L 191.595 366.053L 188.497 366.053L 188.497 366.696L 191.595 366.696z"/>
<path style="stroke:none; fill:#ffffff" d="M 191.069 368.236L 191.069 368.901L 191.595 368.901L 191.595 366.928L 191.069 366.928L 191.069 367.593L 188.497 367.593L 188.497 368.236L 191.069 368.236z"/>
<path style="stroke:none; fill:#ffffff" d="M 191.595 369.531L 191.595 368.84L 188.415 370.1L 188.415 370.476L 191.595 371.759L 191.595 371.067L 189.508 370.332L 189.508 370.323L 191.595 369.531z"/>
<path style="stroke:none; fill:#ffffff" d="M 189.804 373.232C 189.874 373.674 190.268 373.906 190.663 373.906C 191.324 373.906 191.595 373.456 191.595 372.804L 191.595 371.933L 188.497 371.933L 188.497 372.576L 189.746 372.576L 189.746 372.585L 188.497 373.386L 188.497 374.165L 189.804 373.232z"/>
<path style="stroke:none; fill:#00ffff" d="M 191.102 372.576L 191.102 372.664C 191.102 373.005 191.028 373.263 190.646 373.263C 190.268 373.263 190.17 373.014 190.17 372.659L 190.17 372.576L 191.102 372.576z"/>
<path style="stroke:none; fill:#ffffff" d="M 191.595 377.545L 191.595 376.902L 188.497 376.902L 188.497 377.545L 191.595 377.545z"/>
<path style="stroke:none; fill:#ffffff" d="M 188.497 378.013L 188.497 378.656L 190.601 378.656L 190.601 378.665L 188.436 380.402L 188.436 380.866L 191.595 380.866L 191.595 380.223L 189.512 380.223L 189.512 380.214L 191.678 378.477L 191.678 378.013L 188.497 378.013z"/>
<path style="stroke:none; fill:#ffffff" d="M 191.595 381.977L 191.595 381.334L 188.497 381.334L 188.497 381.977L 191.595 381.977z"/>
<path style="stroke:none; fill:#ffffff" d="M 188.497 385.171L 188.497 385.819L 191.678 385.324L 191.678 384.86L 189.635 384.082L 191.678 383.268L 191.678 382.812L 188.497 382.257L 188.497 382.904L 190.42 383.198L 190.42 383.206L 188.456 383.928L 188.456 384.152L 190.42 384.9L 190.42 384.909L 188.497 385.171z"/>
<path style="stroke:none; fill:#ffffff" d="M 191.595 386.747L 191.595 386.104L 188.497 386.104L 188.497 386.747L 191.595 386.747z"/>
<path style="stroke:none; fill:#ffffff" d="M 191.497 389.42C 191.612 389.197 191.678 388.943 191.678 388.685C 191.678 387.718 190.901 387.057 190.022 387.057C 189.167 387.057 188.415 387.744 188.415 388.672C 188.415 388.939 188.493 389.18 188.6 389.42L 189.319 389.42C 189.126 389.241 188.99 388.965 188.99 388.69C 188.99 388.09 189.512 387.723 190.034 387.723C 190.568 387.723 191.102 388.077 191.102 388.694C 191.102 388.97 190.979 389.241 190.774 389.42L 191.497 389.42z"/>
<path style="stroke:none; fill:#ffffff" d="M 191.595 390.238L 191.595 389.547L 188.415 390.807L 188.415 391.183L 191.595 392.465L 191.595 391.774L 189.508 391.039L 189.508 391.03L 191.595 390.238z"/>
<path style="stroke:none; fill:#ffffff" d="M 191.332 394.495C 191.542 394.294 191.678 393.887 191.678 393.593C 191.678 393.038 191.263 392.631 190.749 392.631C 190.268 392.631 190.067 392.941 189.902 393.366C 189.808 393.624 189.718 393.939 189.397 393.939C 189.159 393.939 188.949 393.777 188.949 393.515C 188.949 393.239 189.163 393.007 189.401 392.919L 189.019 392.504C 188.661 392.731 188.415 393.064 188.415 393.519C 188.415 394.193 188.855 394.604 189.475 394.604C 190.515 394.604 190.297 393.296 190.819 393.296C 191.02 393.296 191.168 393.493 191.168 393.698C 191.168 393.913 191.069 394.07 190.913 394.193L 191.332 394.495z"/>
</g>
</svg>