<?xml version="1.0" encoding="UTF-8" standalone="no"?>
<svg
   xmlns:dc="http://purl.org/dc/elements/1.1/"
   xmlns:cc="http://web.resource.org/cc/"
   xmlns:rdf="http://www.w3.org/1999/02/22-rdf-syntax-ns#"
   xmlns:svg="http://www.w3.org/2000/svg"
   xmlns="http://www.w3.org/2000/svg"
   xmlns:sodipodi="http://inkscape.sourceforge.net/DTD/sodipodi-0.dtd"
   xmlns:inkscape="http://www.inkscape.org/namespaces/inkscape"
   width="652"
   height="436"
   id="svg2"
   sodipodi:version="0.32"
   inkscape:version="0.42"
   sodipodi:docname="uk_guernsey.svg"
   sodipodi:docbase="/home/demailly/nnew/gis_data/flags/newsvg">
  <metadata
     id="metadata21">
    <rdf:RDF>
      <cc:Work
         rdf:about="">
        <dc:format>image/svg+xml</dc:format>
        <dc:type
           rdf:resource="http://purl.org/dc/dcmitype/StillImage" />
      </cc:Work>
    </rdf:RDF>
  </metadata>
  <sodipodi:namedview
     inkscape:cy="177.93987"
     inkscape:cx="23.696421"
     inkscape:zoom="7.3412370"
     inkscape:window-height="1072"
     inkscape:window-width="1699"
     inkscape:pageshadow="2"
     inkscape:pageopacity="0.0"
     borderopacity="1.0"
     bordercolor="#666666"
     pagecolor="#ffffff"
     id="base"
     inkscape:window-x="164"
     inkscape:window-y="102"
     inkscape:current-layer="svg2" />
  <defs
     id="defs4">
    <marker
       id="ArrowEnd"
       viewBox="0 0 10 10"
       refX="0"
       refY="5"
       markerUnits="strokeWidth"
       markerWidth="4"
       markerHeight="3"
       orient="auto">
      <path
         d="M 0 0 L 10 5 L 0 10 z"
         id="path7" />
    </marker>
    <marker
       id="ArrowStart"
       viewBox="0 0 10 10"
       refX="10"
       refY="5"
       markerUnits="strokeWidth"
       markerWidth="4"
       markerHeight="3"
       orient="auto">
      <path
         d="M 10 0 L 0 5 L 10 10 z"
         id="path10" />
    </marker>
  </defs>
  <g
     id="g2060"
     transform="matrix(3.000000,0.000000,0.000000,3.000000,-3.473735,-3.509396)">
    <path
       style="fill:#ffffff;stroke:#000000;stroke-width:0.25000000"
       d="M 217.31800,145.29500 L 217.31800,1.3102100 L 1.3102100,1.3102100 L 1.3102100,145.29500 L 217.31800,145.29500 z "
       id="path14" />
    <path
       style="fill:#ff0016;stroke:none;stroke-width:0.25000000"
       d="M 217.31800,91.200800 L 127.36100,91.200800 L 127.36100,145.29500 L 91.266500,145.29500 L 91.266500,91.200800 L 1.3102100,91.200800 L 1.3102100,55.137900 L 91.266500,55.137900 L 91.266500,1.3102100 L 127.36100,1.3102100 L 127.36100,55.137900 L 217.31800,55.137900 L 217.31800,91.200800 z "
       id="path16" />
    <path
       style="fill:#ffff00;stroke:none;stroke-width:0.25000000"
       d="M 115.28800,79.153100 L 157.45200,79.153100 L 163.38800,85.097200 L 163.38800,61.241500 L 157.45200,67.185600 L 115.28800,67.185600 L 115.28800,24.948800 L 121.22200,19.003300 L 97.406500,19.003300 L 103.34000,24.948800 L 103.34000,67.185600 L 61.175800,67.185600 L 55.240400,61.241500 L 55.240400,85.097200 L 61.175800,79.153100 L 103.34000,79.153100 L 103.34000,121.39000 L 97.406500,127.33500 L 121.22200,127.33500 L 115.28800,121.39000 L 115.28800,79.153100 z "
       id="path18" />
  </g>
</svg>
