<?xml version="1.0" encoding="UTF-8" standalone="no"?>
<svg
   xmlns:dc="http://purl.org/dc/elements/1.1/"
   xmlns:cc="http://web.resource.org/cc/"
   xmlns:rdf="http://www.w3.org/1999/02/22-rdf-syntax-ns#"
   xmlns:svg="http://www.w3.org/2000/svg"
   xmlns="http://www.w3.org/2000/svg"
   xmlns:sodipodi="http://inkscape.sourceforge.net/DTD/sodipodi-0.dtd"
   xmlns:inkscape="http://www.inkscape.org/namespaces/inkscape"
   width="715"
   height="436"
   id="svg2"
   sodipodi:version="0.32"
   inkscape:version="0.42"
   sodipodi:docname="uk_jersey.svg"
   sodipodi:docbase="/home/demailly/nnew/gis_data/flags/newsvg">
  <metadata
     id="metadata243">
    <rdf:RDF>
      <cc:Work
         rdf:about="">
        <dc:format>image/svg+xml</dc:format>
        <dc:type
           rdf:resource="http://purl.org/dc/dcmitype/StillImage" />
      </cc:Work>
    </rdf:RDF>
  </metadata>
  <sodipodi:namedview
     inkscape:cy="195.10314"
     inkscape:cx="94.245791"
     inkscape:zoom="3.5719799"
     inkscape:window-height="995"
     inkscape:window-width="1488"
     inkscape:pageshadow="2"
     inkscape:pageopacity="0.0"
     borderopacity="1.0"
     bordercolor="#666666"
     pagecolor="#ffffff"
     id="base"
     inkscape:window-x="218"
     inkscape:window-y="176"
     inkscape:current-layer="svg2" />
  <defs
     id="defs4">
    <marker
       id="ArrowEnd"
       viewBox="0 0 10 10"
       refX="0"
       refY="5"
       markerUnits="strokeWidth"
       markerWidth="4"
       markerHeight="3"
       orient="auto">
      <path
         d="M 0 0 L 10 5 L 0 10 z"
         id="path7" />
    </marker>
    <marker
       id="ArrowStart"
       viewBox="0 0 10 10"
       refX="10"
       refY="5"
       markerUnits="strokeWidth"
       markerWidth="4"
       markerHeight="3"
       orient="auto">
      <path
         d="M 10 0 L 0 5 L 10 10 z"
         id="path10" />
    </marker>
  </defs>
  <g
     id="g12"
     transform="matrix(3.000000,0.000000,0.000000,3.000000,-3.079747,-3.555284)">
    <path
       style="fill:#ffffff;stroke:#000000;stroke-width:0.25000000"
       d="M 238.33300,145.30300 L 238.33300,1.3102100 L 1.3102100,1.3102100 L 1.3102100,145.30300 L 238.33300,145.30300 z "
       id="path14" />
    <path
       style="fill:#ff0016;stroke:#000000;stroke-width:0.25000000;stroke-linejoin:bevel"
       d="M 135.35400,73.302900 L 238.33300,135.87100 L 238.33300,145.30300 L 222.83300,145.30300 L 119.83300,82.737900 L 16.839100,145.30300 L 1.3102100,145.30300 L 1.3102100,135.86800 L 104.30700,73.302900 L 1.3102100,10.741500 L 1.3102100,1.3102100 L 16.832200,1.3102100 L 119.83300,63.874400 L 222.81700,1.3102100 L 238.33300,1.3102100 L 238.33300,10.737900 L 135.35400,73.302900 z "
       id="path16" />
    <g
       id="g18">
      <path
         style="fill:#ff0016;stroke:#000000;stroke-width:0.12500000"
         d="M 132.66200,22.232700 C 135.81800,35.010900 134.08700,50.792700 119.83300,59.549000 C 105.57800,50.792700 103.84700,35.010900 107.00400,22.232700 C 110.36400,19.178100 125.63600,17.294500 132.66200,22.232700 z "
         id="path20" />
      <path
         style="fill:#ffff00;stroke:#000000;stroke-width:0.12500000"
         d="M 119.81200,19.667200 C 125.03800,19.667200 129.90500,21.050400 132.77400,22.843600 C 133.33700,18.437700 135.33500,14.031900 137.69200,10.701900 C 135.23300,10.650600 134.13100,11.957000 134.10600,13.314600 C 133.49100,11.572800 131.08300,11.675200 130.34000,12.623000 C 133.03000,14.441700 130.95500,17.669200 128.52200,17.003300 C 127.37900,16.690600 126.77500,15.893600 126.56100,14.736500 C 126.82400,14.718900 127.08500,14.622600 127.30500,14.444000 C 127.87200,13.984000 127.95900,13.151300 127.49900,12.584200 C 127.03900,12.017100 126.20700,11.930200 125.63900,12.390200 C 125.07200,12.850200 124.98500,13.682900 125.44600,14.250000 C 125.59600,14.436300 125.78900,14.568500 125.99700,14.648800 C 125.22800,15.904000 123.84900,16.280800 122.86100,16.004200 C 121.58000,15.645600 121.04200,14.492900 121.04200,13.468300 C 121.04200,10.804300 123.60300,10.394500 124.37200,10.855600 C 124.32100,9.0625300 121.50300,7.6280200 120.63200,9.1137100 C 121.60500,7.3719200 121.55400,4.9128100 119.81200,3.2734400 C 118.07100,4.9128100 118.01900,7.3719200 118.99300,9.1137100 C 118.12200,7.6280200 115.30400,9.0625300 115.25300,10.855600 C 116.02100,10.394500 118.58300,10.804300 118.58300,13.468300 C 118.58300,14.492900 118.04500,15.645600 116.76400,16.004200 C 115.77600,16.280800 114.39700,15.904000 113.62700,14.648800 C 113.83600,14.568500 114.02800,14.436300 114.17900,14.250000 C 114.63900,13.682900 114.55200,12.850200 113.98500,12.390200 C 113.41800,11.930200 112.58500,12.017100 112.12500,12.584200 C 111.66500,13.151300 111.75200,13.984000 112.31900,14.444000 C 112.54000,14.622600 112.80100,14.718900 113.06400,14.736500 C 112.85000,15.893600 112.24500,16.690600 111.10300,17.003300 C 108.67000,17.669200 106.59500,14.441700 109.28400,12.623000 C 108.54200,11.675200 106.13400,11.572800 105.51900,13.314600 C 105.49300,11.957000 104.39200,10.650600 101.93300,10.701900 C 104.28900,14.031900 106.28700,18.437700 106.85100,22.843600 C 109.72000,21.050400 114.58700,19.667200 119.81200,19.667200 z "
         id="path22" />
      <path
         style="fill:#ffff00;stroke:#000000;stroke-width:0.12500000"
         d="M 109.35600,27.495100 C 108.95000,27.254600 108.68800,27.421000 108.52300,27.466200 C 109.04900,27.601400 109.07000,28.276700 110.27300,28.592300 C 110.00200,28.517200 109.85200,28.667500 109.59600,28.532200 C 110.09200,28.923000 110.64800,29.375500 111.82100,29.388900 C 112.47500,29.396400 112.02300,29.734600 111.59500,29.539200 C 112.03900,29.997600 112.91800,29.621900 113.47400,30.456100 C 113.57900,29.809800 112.43700,28.787700 112.96300,28.051300 C 111.34100,27.982200 111.20800,27.083200 110.27300,26.367900 C 109.51200,25.786300 109.44400,25.195100 109.10800,24.088200 C 108.95500,23.587000 108.36800,23.274500 108.04300,23.393200 C 107.75900,23.497000 107.65500,23.743300 107.89900,23.927600 C 108.14300,24.112000 108.45500,24.137000 108.52200,24.604200 C 108.20500,24.224500 107.73000,24.087000 107.50200,24.324500 C 107.36300,24.469100 107.41900,24.806500 107.71800,24.837100 C 108.20500,24.887100 107.85500,25.362100 108.40900,25.826800 C 107.91800,25.274600 107.49300,25.224600 107.23000,25.524600 C 107.07300,25.704300 107.23000,26.024600 107.56800,25.990300 C 108.05700,25.940500 108.62400,27.181000 109.35600,27.495100 z "
         id="path24" />
      <path
         style="fill:#ffff00;stroke:#000000;stroke-width:0.12500000"
         d="M 122.43200,32.139400 C 122.17600,32.184500 122.25200,32.605400 121.90600,32.635500 C 122.73300,32.635500 123.15300,32.440000 123.54400,32.124400 C 123.36400,32.229600 123.28900,32.500200 123.27400,32.650400 C 123.71000,32.274700 124.74700,32.244700 125.28800,32.349900 C 125.82900,32.455100 125.91900,32.199600 126.11400,31.853900 C 126.31000,31.508200 126.03900,31.312800 125.76900,31.042300 C 125.49800,30.771700 125.43800,30.396000 125.49800,29.764700 C 124.05500,27.840900 121.47000,28.772700 121.44000,29.614400 C 122.37200,30.696500 122.49200,30.576300 123.27400,30.726600 C 124.05500,30.876900 124.53400,30.876500 124.01000,31.312800 C 123.83000,31.463100 123.07800,31.392500 122.49200,31.418000 C 121.18100,31.475000 120.58100,30.512400 120.19400,31.012400 C 119.87500,31.423600 120.20400,31.605200 120.85400,31.583300 C 120.40400,31.586500 119.80700,31.562200 119.90900,31.981300 C 120.08100,32.687500 120.75600,31.850000 121.01900,32.140600 C 120.79400,32.087500 120.44400,32.225000 120.43100,32.437500 C 120.41900,32.650100 120.93100,32.925000 121.49400,32.478100 C 121.80200,32.233100 122.19500,32.141400 122.43200,32.139400 z "
         id="path26" />
      <path
         style="fill:#ffff00;stroke:#000000;stroke-width:0.12500000"
         d="M 130.65300,32.199600 C 130.33800,32.274700 130.33800,32.680600 130.17300,32.680600 C 130.99200,32.658000 131.39000,32.432600 131.63800,32.019200 C 131.45800,32.184500 131.61500,32.500200 131.55500,32.575300 C 132.15600,32.364900 132.44200,31.853900 132.23200,31.508200 C 132.36700,31.703500 132.75800,31.808800 132.87800,31.823800 C 132.45700,31.493100 132.75800,30.741600 132.08100,30.350900 C 132.30700,30.335800 132.74300,30.591300 132.86300,30.892000 C 132.75800,30.215600 132.65200,29.779700 132.09600,29.404000 C 132.15600,29.471600 132.47200,29.531700 132.60700,29.404000 C 132.24700,29.178500 132.14100,28.802800 132.17200,28.562300 C 132.21400,28.225800 131.99100,28.156400 131.57000,28.261700 C 131.19100,28.356400 130.32300,28.412000 129.81200,28.412000 C 128.76000,28.412000 127.84300,28.412000 126.97100,27.810800 C 128.27900,28.351800 129.94700,27.209600 129.94700,26.262700 C 129.94700,25.210500 128.65400,24.353800 126.03900,24.925000 C 123.42400,25.496100 120.23800,25.255600 120.23800,24.383900 C 120.23800,23.512100 122.52200,23.391900 123.69500,23.572300 C 124.86700,23.752600 125.70800,23.872900 127.90300,23.091300 C 127.36200,23.301700 125.61800,23.361800 124.23600,22.971100 C 122.85300,22.580300 119.45600,22.580300 119.42600,24.414000 C 119.39600,26.247600 123.04300,26.080600 126.19000,25.616400 C 128.02300,25.345800 128.98500,25.526200 128.98500,26.127400 C 128.98500,26.698500 127.30200,26.939000 126.00900,26.788700 C 124.71700,26.638500 123.39400,26.668500 121.86100,27.119400 C 120.58100,27.495800 119.69700,27.119400 118.28400,27.359900 C 117.59900,27.476300 115.93900,27.359900 115.12000,26.007100 C 114.61600,26.367900 113.09800,27.123100 112.84300,27.859600 C 112.48200,28.535900 112.72300,29.208600 113.20300,29.869900 C 113.80900,30.702200 112.90300,30.576300 112.25700,30.606400 C 111.37100,30.647600 110.18500,30.512300 109.56600,29.809800 C 109.01800,29.187300 108.28800,28.688400 107.70500,29.149800 C 107.40500,29.387300 107.69300,29.699900 107.93000,29.612400 C 108.16500,29.525900 108.44300,29.699900 108.69400,29.809800 C 108.29300,29.637400 107.85200,29.771200 107.68000,29.924900 C 107.44300,30.137400 107.73100,30.543300 108.01800,30.399900 C 108.24300,30.287400 108.70500,30.212400 109.00500,30.487400 C 108.68000,30.424900 108.34200,30.438100 108.18000,30.612400 C 108.01800,30.786700 108.14300,31.040500 108.49300,31.024900 C 109.05500,30.999900 109.19900,31.393700 109.76200,31.312800 C 109.41600,31.357900 109.22000,31.538200 109.13000,31.673500 C 109.65600,31.433000 110.23700,32.081300 110.91900,31.929000 C 110.65300,32.038500 110.22400,32.300000 110.22800,32.500200 C 110.63300,32.034200 113.35400,32.860900 113.41400,31.838900 C 113.48900,32.049300 113.47400,32.364900 113.26400,32.635500 C 113.61200,32.425000 114.73700,32.349900 115.08200,31.538200 C 115.11200,31.778700 115.06700,32.094400 114.85700,32.169500 C 115.21800,32.287500 115.69300,32.018700 116.17900,31.297800 C 116.37200,31.011800 116.41800,30.821700 116.38500,30.606700 C 116.86700,30.624900 117.21600,30.503900 117.59200,30.185500 C 117.98300,29.854900 118.40400,30.456100 119.06500,30.035200 C 119.72700,29.614400 120.29800,29.975100 120.65800,29.764700 C 121.01900,29.554300 121.51500,29.839800 121.90600,29.599400 C 122.29700,29.358900 122.90300,29.717100 123.55000,29.206100 C 124.56800,29.579000 125.75600,30.270000 128.67000,29.734600 C 130.34000,29.427700 130.86400,29.990100 130.86400,30.756700 C 130.86400,31.282700 130.55600,31.328500 130.32300,31.342900 C 129.39400,31.400000 128.99500,30.995100 128.62800,31.124900 C 128.38200,31.212500 128.23200,31.612500 128.58800,31.750000 C 128.29400,31.900000 128.33200,32.181300 128.48200,32.284400 C 128.63200,32.387500 129.01900,32.293800 129.28200,32.171900 C 128.94400,32.325000 128.59400,32.600000 128.79400,32.887500 C 128.91500,33.062000 129.22100,33.209900 129.50700,32.837600 C 129.79400,32.462500 130.31900,32.150000 130.65300,32.199600 z "
         id="path28" />
      <g
         id="g30">
        <path
           style="fill:#ffff00;stroke:#000000;stroke-width:0.12500000"
           d="M 112.14400,24.263600 C 111.30200,23.918000 111.01800,23.908500 111.21200,24.594300 C 111.29500,24.887400 111.49700,25.300700 111.70000,25.488600 C 111.70800,25.203100 111.81300,24.414000 112.14400,24.263600 z "
           id="path32" />
        <path
           style="fill:#ffff00;stroke:#000000;stroke-width:0.12500000"
           d="M 114.77400,24.263600 C 115.61600,23.918000 115.90000,23.908500 115.70600,24.594300 C 115.62300,24.887400 115.42000,25.300700 115.21700,25.488600 C 115.21000,25.203100 115.10500,24.414000 114.77400,24.263600 z "
           id="path34" />
        <path
           style="fill:#ffff00;stroke:#000000;stroke-width:0.12500000"
           d="M 113.46300,23.801600 C 115.05600,23.801600 115.25500,24.549300 115.24700,25.481100 C 115.24000,26.488100 114.69900,26.142400 114.39100,27.435000 C 114.27100,27.940400 113.86800,27.968600 113.46300,27.968600 C 113.05700,27.968600 112.65500,27.940400 112.53400,27.435000 C 112.22700,26.142400 111.68500,26.488100 111.67800,25.481100 C 111.67000,24.549300 111.86900,23.801600 113.46300,23.801600 z "
           id="path36" />
      </g>
      <path
         style="fill:#ffff00;stroke:#000000;stroke-width:0.12500000"
         d="M 110.07300,38.487500 C 109.70700,38.271100 109.47200,38.420800 109.32300,38.461400 C 109.79600,38.583200 109.81500,39.190900 110.89800,39.475000 C 110.65400,39.407400 110.51900,39.542600 110.28900,39.420900 C 110.73500,39.772600 111.23600,40.179800 112.29100,40.192000 C 112.87900,40.198700 112.47400,40.503100 112.08800,40.327200 C 112.48700,40.739800 113.27800,40.401600 113.77900,41.152400 C 113.87400,40.570700 112.84600,39.650800 113.31900,38.988100 C 111.85900,38.925900 111.74000,38.116800 110.89800,37.473000 C 110.21300,36.949500 110.15200,36.417500 109.84900,35.421300 C 109.71200,34.970200 109.18300,34.689000 108.89100,34.795800 C 108.63500,34.889200 108.54200,35.110800 108.76100,35.276800 C 108.98100,35.442700 109.26200,35.465200 109.32200,35.885700 C 109.03700,35.544000 108.60900,35.420300 108.40400,35.634000 C 108.27900,35.764100 108.33000,36.067700 108.59800,36.095300 C 109.03700,36.140300 108.72200,36.567800 109.22000,36.986000 C 108.77800,36.489000 108.39600,36.444100 108.16000,36.714100 C 108.01800,36.875800 108.16000,37.164100 108.46300,37.133100 C 108.90300,37.088300 109.41400,38.204800 110.07300,38.487500 z "
         id="path38" />
      <path
         style="fill:#ffff00;stroke:#000000;stroke-width:0.12500000"
         d="M 121.84100,42.667400 C 121.61100,42.707900 121.67900,43.086700 121.36800,43.113800 C 122.11200,43.113800 122.49000,42.937900 122.84200,42.653900 C 122.68000,42.748500 122.61200,42.992100 122.59900,43.127300 C 122.99100,42.789100 123.92400,42.762100 124.41100,42.856800 C 124.89800,42.951500 124.97900,42.721500 125.15500,42.410400 C 125.33100,42.099200 125.08800,41.923400 124.84400,41.679900 C 124.60100,41.436400 124.54600,41.098300 124.60100,40.530100 C 123.30200,38.798700 120.97500,39.637400 120.94800,40.394800 C 121.78700,41.368800 121.89500,41.260600 122.59900,41.395900 C 123.30200,41.531100 123.73300,41.530700 123.26100,41.923400 C 123.09900,42.058700 122.42300,41.995100 121.89500,42.018100 C 120.71500,42.069400 120.17500,41.203100 119.82600,41.653100 C 119.54000,42.023200 119.83600,42.186600 120.42100,42.166900 C 120.01600,42.169700 119.47900,42.147900 119.57000,42.525000 C 119.72500,43.160700 120.33300,42.406900 120.56900,42.668500 C 120.36600,42.620600 120.05100,42.744400 120.04000,42.935600 C 120.02900,43.126900 120.49000,43.374400 120.99700,42.972200 C 121.27400,42.751700 121.62800,42.669100 121.84100,42.667400 z "
         id="path40" />
      <path
         style="fill:#ffff00;stroke:#000000;stroke-width:0.12500000"
         d="M 129.24000,42.721500 C 128.95600,42.789100 128.95600,43.154400 128.80700,43.154400 C 129.54500,43.134100 129.90300,42.931200 130.12600,42.559200 C 129.96400,42.707900 130.10600,42.992100 130.05200,43.059700 C 130.59300,42.870300 130.85000,42.410400 130.66100,42.099200 C 130.78200,42.275100 131.13400,42.369800 131.24200,42.383300 C 130.86400,42.085700 131.13400,41.409400 130.52500,41.057700 C 130.72800,41.044100 131.12100,41.274100 131.22900,41.544600 C 131.13400,40.935900 131.03900,40.543700 130.53900,40.205500 C 130.59300,40.266400 130.87700,40.320400 130.99900,40.205500 C 130.67400,40.002500 130.57900,39.664400 130.60700,39.447900 C 130.64400,39.145100 130.44400,39.082700 130.06600,39.177400 C 129.72400,39.262700 128.94300,39.312700 128.48300,39.312700 C 127.53600,39.312700 126.71100,39.312700 125.92600,38.771600 C 127.10300,39.258600 128.60500,38.230500 128.60500,37.378300 C 128.60500,36.431400 127.44100,35.660400 125.08800,36.174400 C 122.73400,36.688400 119.86600,36.472000 119.86600,35.687400 C 119.86600,34.902900 121.92200,34.794600 122.97700,34.957000 C 124.03200,35.119300 124.79000,35.227500 126.76500,34.524100 C 126.27800,34.713500 124.70900,34.767600 123.46400,34.415900 C 122.22000,34.064200 119.16300,34.064200 119.13600,35.714500 C 119.10900,37.364800 122.39100,37.214500 125.22300,36.796700 C 126.87300,36.553200 127.73900,36.715500 127.73900,37.256600 C 127.73900,37.770600 126.22400,37.987000 125.06000,37.851700 C 123.89700,37.716500 122.70700,37.743600 121.32700,38.149300 C 120.17500,38.488200 119.37900,38.149300 118.10800,38.365800 C 117.49200,38.470600 115.99700,38.365800 115.26000,37.148300 C 114.80700,37.473000 113.44100,38.152700 113.21100,38.815500 C 112.88600,39.424300 113.10300,40.029600 113.53500,40.624800 C 114.08000,41.373900 113.26500,41.260600 112.68300,41.287600 C 111.88600,41.324700 110.81900,41.202900 110.26200,40.570700 C 109.76800,40.010500 109.11200,39.561500 108.58700,39.976700 C 108.31700,40.190500 108.57600,40.471800 108.79000,40.393000 C 109.00100,40.315200 109.25100,40.471800 109.47700,40.570700 C 109.11600,40.415500 108.71900,40.535900 108.56500,40.674300 C 108.35100,40.865500 108.61000,41.230900 108.86800,41.101800 C 109.07100,41.000500 109.48700,40.933000 109.75700,41.180600 C 109.46500,41.124300 109.16100,41.136200 109.01500,41.293100 C 108.86800,41.449900 108.98100,41.678300 109.29600,41.664300 C 109.80200,41.641800 109.93200,41.996200 110.43800,41.923400 C 110.12700,41.964000 109.95100,42.126300 109.87000,42.248100 C 110.34300,42.031600 110.86500,42.615000 111.47900,42.478000 C 111.24000,42.576600 110.85400,42.811900 110.85700,42.992100 C 111.22200,42.572700 113.67100,43.316700 113.72500,42.396800 C 113.79200,42.586200 113.77900,42.870300 113.59000,43.113800 C 113.90300,42.924400 114.91500,42.856800 115.22600,42.126300 C 115.25300,42.342800 115.21300,42.626800 115.02300,42.694500 C 115.34900,42.800700 115.77600,42.558700 116.21400,41.909900 C 116.38700,41.652500 116.42800,41.481400 116.39900,41.288000 C 116.83200,41.304300 117.14700,41.195400 117.48500,40.908900 C 117.83700,40.611300 118.21600,41.152400 118.81100,40.773600 C 119.40600,40.394800 119.92000,40.719500 120.24500,40.530100 C 120.57000,40.340700 121.01600,40.597700 121.36800,40.381300 C 121.71900,40.164900 122.26500,40.487300 122.84700,40.027300 C 123.76400,40.363000 124.83200,40.984900 127.45500,40.503100 C 128.95800,40.226800 129.43000,40.733000 129.43000,41.422900 C 129.43000,41.896300 129.15200,41.937600 128.94300,41.950500 C 128.10700,42.001900 127.74700,41.637500 127.41800,41.754300 C 127.19600,41.833100 127.06100,42.193100 127.38100,42.316900 C 127.11700,42.451900 127.15100,42.705000 127.28600,42.797800 C 127.42100,42.890700 127.76900,42.806300 128.00600,42.696600 C 127.70200,42.834400 127.38700,43.081900 127.56700,43.340700 C 127.67600,43.497700 127.95100,43.630800 128.20800,43.295700 C 128.46700,42.958200 128.93900,42.676900 129.24000,42.721500 z "
         id="path42" />
      <g
         id="g44">
        <path
           style="fill:#ffff00;stroke:#000000;stroke-width:0.12500000"
           d="M 112.58200,35.579200 C 111.82400,35.268100 111.56800,35.259500 111.74300,35.876800 C 111.81800,36.140600 112.00000,36.512600 112.18300,36.681700 C 112.19000,36.424700 112.28400,35.714500 112.58200,35.579200 z "
           id="path46" />
        <path
           style="fill:#ffff00;stroke:#000000;stroke-width:0.12500000"
           d="M 114.94900,35.579200 C 115.70700,35.268100 115.96300,35.259500 115.78800,35.876800 C 115.71300,36.140600 115.53100,36.512600 115.34800,36.681700 C 115.34100,36.424700 115.24700,35.714500 114.94900,35.579200 z "
           id="path48" />
        <path
           style="fill:#ffff00;stroke:#000000;stroke-width:0.12500000"
           d="M 113.76900,35.163400 C 115.20300,35.163400 115.38200,35.836300 115.37500,36.674900 C 115.36800,37.581200 114.88100,37.270100 114.60400,38.433400 C 114.49600,38.888300 114.13400,38.913600 113.76900,38.913600 C 113.40300,38.913600 113.04200,38.888300 112.93300,38.433400 C 112.65600,37.270100 112.16900,37.581200 112.16200,36.674900 C 112.15600,35.836300 112.33500,35.163400 113.76900,35.163400 z "
           id="path50" />
      </g>
      <path
         style="fill:#ffff00;stroke:#000000;stroke-width:0.12500000"
         d="M 112.60800,48.135400 C 112.33800,47.959600 112.16400,48.081200 112.05300,48.114200 C 112.40400,48.213000 112.41800,48.706500 113.21900,48.937200 C 113.03800,48.882300 112.93800,48.992100 112.76800,48.893200 C 113.09800,49.178900 113.46900,49.509500 114.24900,49.519300 C 114.68500,49.524800 114.38400,49.772000 114.09900,49.629200 C 114.39400,49.964200 114.98000,49.689600 115.35000,50.299200 C 115.42000,49.826900 114.66000,49.080000 115.01000,48.541800 C 113.93000,48.491300 113.84100,47.834300 113.21900,47.311600 C 112.71200,46.886600 112.66700,46.454600 112.44300,45.645700 C 112.34100,45.279400 111.95000,45.051000 111.73400,45.137800 C 111.54500,45.213600 111.47600,45.393600 111.63800,45.528300 C 111.80000,45.663100 112.00900,45.681300 112.05300,46.022700 C 111.84200,45.745300 111.52600,45.644800 111.37400,45.818400 C 111.28100,45.924000 111.31900,46.170500 111.51700,46.192900 C 111.84200,46.229500 111.60900,46.576600 111.97800,46.916200 C 111.65100,46.512600 111.36800,46.476100 111.19300,46.695300 C 111.08800,46.826700 111.19300,47.060800 111.41800,47.035600 C 111.74300,46.999300 112.12100,47.905800 112.60800,48.135400 z "
         id="path52" />
      <path
         style="fill:#ffff00;stroke:#000000;stroke-width:0.12500000"
         d="M 121.31500,51.529400 C 121.14500,51.562300 121.19500,51.869900 120.96500,51.891800 C 121.51500,51.891800 121.79500,51.749000 122.05500,51.518400 C 121.93500,51.595300 121.88500,51.793000 121.87500,51.902800 C 122.16500,51.628200 122.85600,51.606300 123.21600,51.683200 C 123.57700,51.760000 123.63700,51.573300 123.76700,51.320700 C 123.89700,51.068000 123.71700,50.925300 123.53600,50.727600 C 123.35600,50.529800 123.31600,50.255300 123.35600,49.793900 C 122.39600,48.388000 120.67400,49.069000 120.65400,49.684100 C 121.27500,50.474900 121.35500,50.387100 121.87500,50.496900 C 122.39600,50.606700 122.71400,50.606400 122.36600,50.925300 C 122.24600,51.035100 121.74500,50.983500 121.35500,51.002100 C 120.48200,51.043800 120.08200,50.340400 119.82400,50.705800 C 119.61200,51.006300 119.83100,51.139000 120.26400,51.123000 C 119.96400,51.125300 119.56700,51.107500 119.63500,51.413800 C 119.74900,51.929900 120.19900,51.317800 120.37400,51.530200 C 120.22400,51.491400 119.99100,51.591900 119.98200,51.747200 C 119.97400,51.902500 120.31500,52.103500 120.69000,51.776900 C 120.89500,51.597800 121.15700,51.530800 121.31500,51.529400 z "
         id="path54" />
      <path
         style="fill:#ffff00;stroke:#000000;stroke-width:0.12500000"
         d="M 126.78900,51.573300 C 126.57900,51.628200 126.57900,51.924800 126.46900,51.924800 C 127.01400,51.908300 127.27900,51.743600 127.44400,51.441500 C 127.32400,51.562300 127.42900,51.793000 127.38900,51.847900 C 127.79000,51.694100 127.98000,51.320700 127.84000,51.068000 C 127.93000,51.210800 128.19000,51.287700 128.27000,51.298700 C 127.99000,51.057100 128.19000,50.507900 127.74000,50.222300 C 127.89000,50.211300 128.18000,50.398000 128.26000,50.617700 C 128.19000,50.123500 128.12000,49.804900 127.75000,49.530300 C 127.79000,49.579800 128.00000,49.623700 128.09000,49.530300 C 127.85000,49.365600 127.78000,49.091000 127.80000,48.915200 C 127.82800,48.669300 127.68000,48.618600 127.39900,48.695600 C 127.14700,48.764800 126.56900,48.805400 126.22900,48.805400 C 125.52800,48.805400 124.91800,48.805400 124.33700,48.366100 C 125.20800,48.761400 126.31900,47.926700 126.31900,47.234700 C 126.31900,46.465800 125.45800,45.839800 123.71700,46.257200 C 121.97500,46.674500 119.85400,46.498800 119.85400,45.861800 C 119.85400,45.224700 121.37500,45.136800 122.15500,45.268600 C 122.93600,45.400400 123.49600,45.488300 124.95800,44.917100 C 124.59700,45.070900 123.43600,45.114800 122.51600,44.829300 C 121.59500,44.543700 119.33300,44.543700 119.31300,45.883700 C 119.29300,47.223700 121.72200,47.101700 123.81700,46.762400 C 125.03800,46.564700 125.67800,46.696500 125.67800,47.135900 C 125.67800,47.553200 124.55700,47.729000 123.69700,47.619100 C 122.83600,47.509300 121.95500,47.531300 120.93400,47.860800 C 120.08200,48.135900 119.49300,47.860800 118.55300,48.036600 C 118.09700,48.121600 116.99100,48.036600 116.44600,47.048000 C 116.11100,47.311600 115.10000,47.863500 114.93000,48.401700 C 114.69000,48.896000 114.85000,49.387600 115.17000,49.870800 C 115.57300,50.479100 114.97000,50.387100 114.54000,50.409000 C 113.95000,50.439100 113.16000,50.340300 112.74800,49.826900 C 112.38300,49.372000 111.89700,49.007400 111.50900,49.344600 C 111.30900,49.518200 111.50100,49.746500 111.65900,49.682600 C 111.81500,49.619400 112.00000,49.746500 112.16800,49.826900 C 111.90000,49.700900 111.60700,49.798700 111.49200,49.911000 C 111.33400,50.066300 111.52600,50.362900 111.71700,50.258100 C 111.86700,50.175900 112.17500,50.121100 112.37500,50.322100 C 112.15800,50.276400 111.93300,50.286000 111.82500,50.413400 C 111.71700,50.540800 111.80100,50.726300 112.03400,50.714900 C 112.40800,50.696600 112.50400,50.984400 112.87800,50.925300 C 112.64800,50.958200 112.51800,51.090000 112.45800,51.188900 C 112.80800,51.013100 113.19500,51.486800 113.64900,51.375600 C 113.47200,51.455600 113.18600,51.646700 113.18900,51.793000 C 113.45900,51.452500 115.27000,52.056600 115.31000,51.309700 C 115.36000,51.463500 115.35000,51.694100 115.21000,51.891800 C 115.44200,51.738100 116.19100,51.683200 116.42100,51.090000 C 116.44100,51.265800 116.41100,51.496400 116.27100,51.551400 C 116.51200,51.637600 116.82800,51.441200 117.15200,50.914300 C 117.28000,50.705300 117.31000,50.566400 117.28900,50.409300 C 117.60900,50.422500 117.84200,50.334200 118.09200,50.101500 C 118.35300,49.859900 118.63300,50.299200 119.07300,49.991700 C 119.51300,49.684100 119.89400,49.947700 120.13400,49.793900 C 120.37400,49.640200 120.70400,49.848800 120.96500,49.673100 C 121.22500,49.497400 121.62900,49.759200 122.05900,49.385700 C 122.73700,49.658300 123.52800,50.163200 125.46800,49.772000 C 126.58000,49.547700 126.92900,49.958700 126.92900,50.518900 C 126.92900,50.903300 126.72400,50.936800 126.56900,50.947300 C 125.95000,50.989000 125.68400,50.693100 125.44100,50.788000 C 125.27600,50.851900 125.17600,51.144300 125.41400,51.244700 C 125.21800,51.354400 125.24300,51.559900 125.34300,51.635300 C 125.44300,51.710700 125.70100,51.642100 125.87600,51.553100 C 125.65100,51.665000 125.41800,51.866000 125.55100,52.076100 C 125.63200,52.203500 125.83500,52.311700 126.02500,52.039500 C 126.21700,51.765500 126.56600,51.537100 126.78900,51.573300 z "
         id="path56" />
      <g
         id="g58">
        <path
           style="fill:#ffff00;stroke:#000000;stroke-width:0.12500000"
           d="M 114.46400,45.773900 C 113.90400,45.521300 113.71500,45.514300 113.84400,46.015500 C 113.89900,46.229700 114.03400,46.531800 114.16900,46.669100 C 114.17400,46.460400 114.24400,45.883700 114.46400,45.773900 z "
           id="path60" />
        <path
           style="fill:#ffff00;stroke:#000000;stroke-width:0.12500000"
           d="M 116.21600,45.773900 C 116.77600,45.521300 116.96600,45.514300 116.83700,46.015500 C 116.78100,46.229700 116.64600,46.531800 116.51100,46.669100 C 116.50600,46.460400 116.43600,45.883700 116.21600,45.773900 z "
           id="path62" />
        <path
           style="fill:#ffff00;stroke:#000000;stroke-width:0.12500000"
           d="M 115.34200,45.436200 C 116.40300,45.436200 116.53600,45.982600 116.53100,46.663600 C 116.52600,47.399500 116.16600,47.146800 115.96100,48.091500 C 115.88100,48.460800 115.61300,48.481300 115.34200,48.481300 C 115.07200,48.481300 114.80500,48.460800 114.72500,48.091500 C 114.52000,47.146800 114.15900,47.399500 114.15400,46.663600 C 114.14900,45.982600 114.28200,45.436200 115.34200,45.436200 z "
           id="path64" />
      </g>
      <g
         id="g66">
        <path
           style="fill:none;stroke:#000000;stroke-width:0.12500000"
           d="M 123.55000,29.206100 C 123.08100,29.034500 122.65100,28.929600 122.10100,29.043200"
           id="path68" />
        <path
           style="fill:none;stroke:#000000;stroke-width:0.12500000"
           d="M 116.48000,28.983100 C 116.09400,29.812500 116.32800,30.221900 116.38500,30.606700"
           id="path70" />
      </g>
      <g
         id="g72">
        <path
           style="fill:none;stroke:#000000;stroke-width:0.12500000"
           d="M 112.37000,25.051600 C 112.63500,25.184100 112.78400,24.809600 113.17300,25.207200 C 113.06600,25.091200 112.93300,25.515500 112.63500,25.233900"
           id="path74" />
        <path
           style="fill:none;stroke:#000000;stroke-width:0.12500000"
           d="M 114.53300,25.051600 C 114.26800,25.184100 114.11900,24.809600 113.73000,25.207200 C 113.83700,25.091200 113.97000,25.515500 114.26800,25.233900"
           id="path76" />
        <path
           style="fill:none;stroke:#000000;stroke-width:0.12500000"
           d="M 113.73000,25.207200 C 113.63900,25.282300 113.63000,25.147300 113.69900,25.502000 C 113.82700,26.153300 113.97800,26.458000 113.45100,26.458000 C 112.91300,26.458000 113.07600,26.153300 113.20300,25.502000 C 113.27300,25.147300 113.26400,25.282300 113.17300,25.207200"
           id="path78" />
      </g>
      <path
         style="fill:#ff0016;stroke:#000000;stroke-width:0.062500000"
         d="M 113.45900,27.705600 C 113.88700,27.705600 114.13500,27.698100 114.06800,27.096900 C 114.04000,26.855600 114.36100,26.759500 114.24800,26.367900 C 114.36800,26.848800 113.45900,26.802900 113.45900,26.584900 C 113.45900,26.802900 112.55000,26.848800 112.67000,26.367900 C 112.55700,26.759500 112.87700,26.855600 112.85000,27.096900 C 112.78300,27.698100 113.03100,27.705600 113.45900,27.705600 z "
         id="path80" />
      <g
         id="g82">
        <path
           style="fill:none;stroke:#000000;stroke-width:0.062500000"
           d="M 113.07400,26.489400 L 112.04600,26.202600"
           id="path84" />
        <path
           style="fill:none;stroke:#000000;stroke-width:0.062500000"
           d="M 113.07400,26.542800 L 111.92600,26.533200"
           id="path86" />
        <path
           style="fill:none;stroke:#000000;stroke-width:0.062500000"
           d="M 113.08500,26.601600 L 112.10600,26.863900"
           id="path88" />
        <path
           style="fill:none;stroke:#000000;stroke-width:0.062500000"
           d="M 113.84400,26.489400 L 114.87200,26.202600"
           id="path90" />
        <path
           style="fill:none;stroke:#000000;stroke-width:0.062500000"
           d="M 113.84400,26.542800 L 114.99200,26.533200"
           id="path92" />
        <path
           style="fill:none;stroke:#000000;stroke-width:0.062500000"
           d="M 113.83300,26.601600 L 114.81200,26.863900"
           id="path94" />
      </g>
      <g
         id="g96">
        <path
           style="fill:none;stroke:#000000;stroke-width:0.12500000"
           d="M 122.84700,40.027300 C 122.42600,39.873000 122.03800,39.778600 121.54300,39.880800"
           id="path98" />
        <path
           style="fill:none;stroke:#000000;stroke-width:0.12500000"
           d="M 116.48400,39.826700 C 116.13700,40.573100 116.34700,40.941600 116.39900,41.288000"
           id="path100" />
      </g>
      <g
         id="g102">
        <path
           style="fill:none;stroke:#000000;stroke-width:0.12500000"
           d="M 112.78500,36.288400 C 113.02400,36.407600 113.15800,36.070600 113.50800,36.428400 C 113.41100,36.324000 113.29200,36.705800 113.02400,36.452400"
           id="path104" />
        <path
           style="fill:none;stroke:#000000;stroke-width:0.12500000"
           d="M 114.73200,36.288400 C 114.49300,36.407600 114.35900,36.070600 114.00900,36.428400 C 114.10600,36.324000 114.22500,36.705800 114.49300,36.452400"
           id="path106" />
        <path
           style="fill:none;stroke:#000000;stroke-width:0.12500000"
           d="M 114.00900,36.428400 C 113.92800,36.496000 113.91900,36.374500 113.98200,36.693700 C 114.09700,37.279900 114.23200,37.554100 113.75900,37.554100 C 113.27400,37.554100 113.42000,37.279900 113.53500,36.693700 C 113.59800,36.374500 113.59000,36.496000 113.50800,36.428400"
           id="path108" />
      </g>
      <path
         style="fill:#ff0016;stroke:#000000;stroke-width:0.062500000"
         d="M 113.76500,38.676900 C 114.15100,38.676900 114.37400,38.670200 114.31300,38.129100 C 114.28900,37.911900 114.57700,37.825500 114.47600,37.473000 C 114.58400,37.905900 113.76500,37.864500 113.76500,37.668400 C 113.76500,37.864500 112.94700,37.905900 113.05500,37.473000 C 112.95400,37.825500 113.24200,37.911900 113.21700,38.129100 C 113.15700,38.670200 113.38000,38.676900 113.76500,38.676900 z "
         id="path110" />
      <g
         id="g112">
        <path
           style="fill:none;stroke:#000000;stroke-width:0.062500000"
           d="M 113.41900,37.582400 L 112.49400,37.324200"
           id="path114" />
        <path
           style="fill:none;stroke:#000000;stroke-width:0.062500000"
           d="M 113.41900,37.630500 L 112.38600,37.621800"
           id="path116" />
        <path
           style="fill:none;stroke:#000000;stroke-width:0.062500000"
           d="M 113.42900,37.683300 L 112.54800,37.919400"
           id="path118" />
        <path
           style="fill:none;stroke:#000000;stroke-width:0.062500000"
           d="M 114.11200,37.582400 L 115.03700,37.324200"
           id="path120" />
        <path
           style="fill:none;stroke:#000000;stroke-width:0.062500000"
           d="M 114.11200,37.630500 L 115.14500,37.621800"
           id="path122" />
        <path
           style="fill:none;stroke:#000000;stroke-width:0.062500000"
           d="M 114.10200,37.683300 L 114.98300,37.919400"
           id="path124" />
      </g>
      <g
         id="g126">
        <path
           style="fill:none;stroke:#000000;stroke-width:0.12500000"
           d="M 122.05900,49.385700 C 121.74700,49.260300 121.46000,49.183700 121.09500,49.266700"
           id="path128" />
        <path
           style="fill:none;stroke:#000000;stroke-width:0.12500000"
           d="M 117.35200,49.222800 C 117.09500,49.828900 117.25000,50.128000 117.28900,50.409300"
           id="path130" />
      </g>
      <g
         id="g132">
        <path
           style="fill:none;stroke:#000000;stroke-width:0.12500000"
           d="M 114.61500,46.349700 C 114.79200,46.446600 114.89100,46.172800 115.15000,46.463400 C 115.07800,46.378700 114.99000,46.688700 114.79200,46.482900"
           id="path134" />
        <path
           style="fill:none;stroke:#000000;stroke-width:0.12500000"
           d="M 116.05500,46.349700 C 115.87900,46.446600 115.78000,46.172800 115.52000,46.463400 C 115.59200,46.378700 115.68000,46.688700 115.87900,46.482900"
           id="path136" />
        <path
           style="fill:none;stroke:#000000;stroke-width:0.12500000"
           d="M 115.52000,46.463400 C 115.46000,46.518300 115.45400,46.419700 115.50000,46.678800 C 115.58500,47.154800 115.68500,47.377500 115.33500,47.377500 C 114.97600,47.377500 115.08500,47.154800 115.17000,46.678800 C 115.21600,46.419700 115.21000,46.518300 115.15000,46.463400"
           id="path138" />
      </g>
      <path
         style="fill:#ff0016;stroke:#000000;stroke-width:0.062500000"
         d="M 115.34000,48.289100 C 115.62500,48.289100 115.79000,48.283700 115.74600,47.844300 C 115.72700,47.668000 115.94100,47.597800 115.86600,47.311600 C 115.94600,47.663100 115.34000,47.629500 115.34000,47.470200 C 115.34000,47.629500 114.73500,47.663100 114.81500,47.311600 C 114.74000,47.597800 114.95300,47.668000 114.93500,47.844300 C 114.89000,48.283700 115.05500,48.289100 115.34000,48.289100 z "
         id="path140" />
      <g
         id="g142">
        <path
           style="fill:none;stroke:#000000;stroke-width:0.062500000"
           d="M 115.08400,47.400400 L 114.39900,47.190800"
           id="path144" />
        <path
           style="fill:none;stroke:#000000;stroke-width:0.062500000"
           d="M 115.08400,47.439400 L 114.31900,47.432400"
           id="path146" />
        <path
           style="fill:none;stroke:#000000;stroke-width:0.062500000"
           d="M 115.09100,47.482400 L 114.44000,47.674100"
           id="path148" />
        <path
           style="fill:none;stroke:#000000;stroke-width:0.062500000"
           d="M 115.59600,47.400400 L 116.28100,47.190800"
           id="path150" />
        <path
           style="fill:none;stroke:#000000;stroke-width:0.062500000"
           d="M 115.59600,47.439400 L 116.36100,47.432400"
           id="path152" />
        <path
           style="fill:none;stroke:#000000;stroke-width:0.062500000"
           d="M 115.58900,47.482400 L 116.24100,47.674100"
           id="path154" />
      </g>
      <g
         id="g156">
        <g
           id="g158">
          <path
             style="fill:#0070ff;stroke:#000000;stroke-width:0.013000000"
             d="M 108.13400,23.413600 C 107.83500,23.041300 107.08600,23.355700 107.07100,23.817600 C 107.32400,23.518200 107.73700,23.949500 107.96200,23.858800 C 108.11800,23.796000 108.25500,23.565100 108.13400,23.413600 z "
             id="path160" />
          <path
             style="fill:#0070ff;stroke:#000000;stroke-width:0.013000000"
             d="M 107.74600,24.294900 C 107.44700,23.922600 106.69900,24.237000 106.68400,24.698900 C 106.93600,24.399500 107.34900,24.830800 107.57500,24.740100 C 107.73100,24.677400 107.86800,24.446400 107.74600,24.294900 z "
             id="path162" />
          <path
             style="fill:#0070ff;stroke:#000000;stroke-width:0.013000000"
             d="M 107.55100,25.478800 C 107.21200,25.142500 106.50400,25.539100 106.54100,25.999700 C 106.75900,25.673800 107.21700,26.056000 107.43100,25.940400 C 107.57900,25.860500 107.68900,25.615700 107.55100,25.478800 z "
             id="path164" />
          <path
             style="fill:#0070ff;stroke:#000000;stroke-width:0.013000000"
             d="M 107.90800,29.147900 C 107.53200,28.852900 106.87500,29.328200 106.96400,29.781600 C 107.14300,29.432900 107.64200,29.759700 107.84100,29.620400 C 107.97900,29.523900 108.06100,29.268100 107.90800,29.147900 z "
             id="path166" />
          <path
             style="fill:#0070ff;stroke:#000000;stroke-width:0.013000000"
             d="M 107.88900,29.950900 C 107.44100,29.785700 106.96100,30.440300 107.18600,30.844200 C 107.24800,30.457400 107.82400,30.614800 107.97100,30.420800 C 108.07300,30.286600 108.07100,30.018200 107.88900,29.950900 z "
             id="path168" />
          <path
             style="fill:#0070ff;stroke:#000000;stroke-width:0.013000000"
             d="M 108.46400,30.551000 C 108.01600,30.385700 107.53600,31.040300 107.76000,31.444300 C 107.82300,31.057400 108.39900,31.214800 108.54600,31.020800 C 108.64800,30.886600 108.64600,30.618200 108.46400,30.551000 z "
             id="path170" />
          <path
             style="fill:#0070ff;stroke:#000000;stroke-width:0.013000000"
             d="M 120.20200,31.713500 C 119.75400,31.548300 119.27400,32.202900 119.49900,32.606800 C 119.56200,32.220000 120.13700,32.377400 120.28400,32.183400 C 120.38600,32.049200 120.38400,31.780800 120.20200,31.713500 z "
             id="path172" />
          <path
             style="fill:#0070ff;stroke:#000000;stroke-width:0.013000000"
             d="M 120.80700,32.258100 C 120.34300,32.144900 119.94100,32.849900 120.21000,33.225600 C 120.22800,32.834100 120.81800,32.925000 120.94200,32.715500 C 121.02800,32.570600 120.99600,32.304100 120.80700,32.258100 z "
             id="path174" />
          <path
             style="fill:#0070ff;stroke:#000000;stroke-width:0.013000000"
             d="M 120.38100,30.942500 C 119.96700,30.703500 119.38300,31.267000 119.53600,31.703200 C 119.66400,31.332700 120.20400,31.585700 120.38200,31.419600 C 120.50500,31.304600 120.54900,31.039800 120.38100,30.942500 z "
             id="path176" />
          <path
             style="fill:#0070ff;stroke:#000000;stroke-width:0.013000000"
             d="M 128.73200,31.883000 C 128.26800,31.769900 127.86600,32.474800 128.13500,32.850600 C 128.15400,32.459100 128.74400,32.550000 128.86700,32.340500 C 128.95300,32.195600 128.92100,31.929100 128.73200,31.883000 z "
             id="path178" />
          <path
             style="fill:#0070ff;stroke:#000000;stroke-width:0.013000000"
             d="M 128.74600,31.145800 C 128.32500,30.921200 127.76100,31.504500 127.92800,31.935200 C 128.04300,31.560500 128.59200,31.794800 128.76400,31.622600 C 128.88300,31.503400 128.91800,31.237300 128.74600,31.145800 z "
             id="path180" />
          <path
             style="fill:#0070ff;stroke:#000000;stroke-width:0.013000000"
             d="M 129.07200,32.541900 C 128.60400,32.449100 128.23300,33.171000 128.51800,33.534600 C 128.52000,33.142700 129.11300,33.207600 129.22700,32.993000 C 129.30700,32.844400 129.26300,32.579600 129.07200,32.541900 z "
             id="path182" />
          <path
             style="fill:#0070ff;stroke:#000000;stroke-width:0.013000000"
             d="M 113.49300,27.345200 C 113.78700,27.345200 113.90600,27.431000 113.90600,27.962100 C 113.90600,29.087300 113.89300,29.571100 113.53100,29.571100 C 113.16800,29.571100 113.19300,29.111400 113.19300,28.285300 C 113.19300,27.854300 113.19300,27.638800 113.10600,27.674700 C 113.10600,27.393500 113.23100,27.345200 113.49300,27.345200 z "
             id="path184" />
        </g>
        <g
           id="g186">
          <path
             style="fill:#0070ff;stroke:#000000;stroke-width:0.013000000"
             d="M 108.97300,34.814100 C 108.70400,34.479200 108.03000,34.762100 108.01600,35.177800 C 108.24400,34.908400 108.61500,35.296500 108.81800,35.214900 C 108.95900,35.158400 109.08200,34.950500 108.97300,34.814100 z "
             id="path188" />
          <path
             style="fill:#0070ff;stroke:#000000;stroke-width:0.013000000"
             d="M 108.62400,35.607300 C 108.35500,35.272300 107.68100,35.555300 107.66800,35.970900 C 107.89500,35.701500 108.26600,36.089700 108.47000,36.008000 C 108.61000,35.951500 108.73300,35.743700 108.62400,35.607300 z "
             id="path190" />
          <path
             style="fill:#0070ff;stroke:#000000;stroke-width:0.013000000"
             d="M 108.44900,36.672800 C 108.14300,36.370200 107.50600,36.727100 107.53900,37.141700 C 107.73500,36.848400 108.14800,37.192300 108.34000,37.088300 C 108.47400,37.016400 108.57300,36.796000 108.44900,36.672800 z "
             id="path192" />
          <path
             style="fill:#0070ff;stroke:#000000;stroke-width:0.013000000"
             d="M 108.76900,39.975100 C 108.43100,39.709500 107.84000,40.137300 107.92000,40.545300 C 108.08100,40.231500 108.53000,40.525700 108.71000,40.400200 C 108.83400,40.313400 108.90700,40.083200 108.76900,39.975100 z "
             id="path194" />
          <path
             style="fill:#0070ff;stroke:#000000;stroke-width:0.013000000"
             d="M 108.75200,40.697700 C 108.34900,40.549000 107.91700,41.138200 108.11900,41.501700 C 108.17600,41.153500 108.69400,41.295200 108.82600,41.120600 C 108.91800,40.999800 108.91600,40.758300 108.75200,40.697700 z "
             id="path196" />
          <path
             style="fill:#0070ff;stroke:#000000;stroke-width:0.013000000"
             d="M 109.27000,41.237800 C 108.86600,41.089000 108.43500,41.678200 108.63700,42.041700 C 108.69300,41.693600 109.21100,41.835200 109.34400,41.660600 C 109.43500,41.539900 109.43400,41.298300 109.27000,41.237800 z "
             id="path198" />
          <path
             style="fill:#0070ff;stroke:#000000;stroke-width:0.013000000"
             d="M 119.83400,42.284100 C 119.43100,42.135300 118.99900,42.724500 119.20100,43.088000 C 119.25800,42.739900 119.77600,42.881500 119.90800,42.707000 C 120.00000,42.586100 119.99800,42.344600 119.83400,42.284100 z "
             id="path200" />
          <path
             style="fill:#0070ff;stroke:#000000;stroke-width:0.013000000"
             d="M 120.37800,42.774100 C 119.96100,42.672300 119.59900,43.306800 119.84100,43.645000 C 119.85800,43.292600 120.38900,43.374400 120.50000,43.185800 C 120.57700,43.055400 120.54800,42.815600 120.37800,42.774100 z "
             id="path202" />
          <path
             style="fill:#0070ff;stroke:#000000;stroke-width:0.013000000"
             d="M 119.99500,41.590100 C 119.62300,41.375100 119.09700,41.882200 119.23500,42.274800 C 119.35000,41.941300 119.83600,42.169000 119.99600,42.019500 C 120.10700,41.916000 120.14600,41.677700 119.99500,41.590100 z "
             id="path204" />
          <path
             style="fill:#0070ff;stroke:#000000;stroke-width:0.013000000"
             d="M 127.51100,42.436600 C 127.09400,42.334800 126.73200,42.969200 126.97400,43.307400 C 126.99100,42.955100 127.52100,43.036800 127.63300,42.848300 C 127.71000,42.717900 127.68100,42.478100 127.51100,42.436600 z "
             id="path206" />
          <path
             style="fill:#0070ff;stroke:#000000;stroke-width:0.013000000"
             d="M 127.52400,41.773200 C 127.14500,41.571000 126.63700,42.095900 126.78800,42.483600 C 126.89100,42.146300 127.38500,42.357200 127.54000,42.202200 C 127.64700,42.095000 127.67800,41.855500 127.52400,41.773200 z "
             id="path208" />
          <path
             style="fill:#0070ff;stroke:#000000;stroke-width:0.013000000"
             d="M 127.81700,43.029600 C 127.39600,42.946100 127.06200,43.595700 127.31900,43.923000 C 127.32000,43.570300 127.85400,43.628700 127.95700,43.435500 C 128.02800,43.301900 127.98900,43.063600 127.81700,43.029600 z "
             id="path210" />
          <path
             style="fill:#0070ff;stroke:#000000;stroke-width:0.013000000"
             d="M 113.79600,38.352600 C 114.06100,38.352600 114.16700,38.429800 114.16700,38.907800 C 114.16700,39.920500 114.15600,40.355900 113.83000,40.355900 C 113.50400,40.355900 113.52600,39.942200 113.52600,39.198700 C 113.52600,38.810800 113.52600,38.616800 113.44700,38.649200 C 113.44700,38.396000 113.56000,38.352600 113.79600,38.352600 z "
             id="path212" />
        </g>
        <g
           id="g214">
          <path
             style="fill:#0070ff;stroke:#000000;stroke-width:0.013000000"
             d="M 111.79400,45.152600 C 111.59500,44.880600 111.09700,45.110400 111.08700,45.447900 C 111.25500,45.229100 111.53000,45.544300 111.68000,45.478000 C 111.78400,45.432200 111.87500,45.263400 111.79400,45.152600 z "
             id="path216" />
          <path
             style="fill:#0070ff;stroke:#000000;stroke-width:0.013000000"
             d="M 111.53600,45.796700 C 111.33700,45.524700 110.83900,45.754400 110.82900,46.091900 C 110.99700,45.873200 111.27200,46.188400 111.42200,46.122100 C 111.52600,46.076200 111.61700,45.907400 111.53600,45.796700 z "
             id="path218" />
          <path
             style="fill:#0070ff;stroke:#000000;stroke-width:0.013000000"
             d="M 111.40700,46.661900 C 111.18100,46.416100 110.71000,46.705900 110.73400,47.042600 C 110.87900,46.804400 111.18400,47.083600 111.32700,46.999200 C 111.42500,46.940800 111.49800,46.761900 111.40700,46.661900 z "
             id="path220" />
          <path
             style="fill:#0070ff;stroke:#000000;stroke-width:0.013000000"
             d="M 111.64400,49.343200 C 111.39400,49.127600 110.95600,49.475000 111.01600,49.806300 C 111.13500,49.551400 111.46700,49.790300 111.60000,49.688500 C 111.69200,49.618000 111.74600,49.431000 111.64400,49.343200 z "
             id="path222" />
          <path
             style="fill:#0070ff;stroke:#000000;stroke-width:0.013000000"
             d="M 111.63100,49.930000 C 111.33300,49.809300 111.01400,50.287700 111.16300,50.582900 C 111.20500,50.300100 111.58800,50.415200 111.68600,50.273400 C 111.75400,50.175300 111.75300,49.979200 111.63100,49.930000 z "
             id="path224" />
          <path
             style="fill:#0070ff;stroke:#000000;stroke-width:0.013000000"
             d="M 112.01400,50.368500 C 111.71600,50.247800 111.39700,50.726200 111.54600,51.021400 C 111.58800,50.738600 111.97100,50.853700 112.06900,50.711900 C 112.13700,50.613800 112.13500,50.417700 112.01400,50.368500 z "
             id="path226" />
          <path
             style="fill:#0070ff;stroke:#000000;stroke-width:0.013000000"
             d="M 119.83000,51.218100 C 119.53200,51.097400 119.21200,51.575700 119.36200,51.870900 C 119.40400,51.588200 119.78700,51.703300 119.88500,51.561500 C 119.95200,51.463400 119.95100,51.267300 119.83000,51.218100 z "
             id="path228" />
          <path
             style="fill:#0070ff;stroke:#000000;stroke-width:0.013000000"
             d="M 120.23300,51.616100 C 119.92400,51.533400 119.65600,52.048500 119.83500,52.323100 C 119.84700,52.037000 120.24000,52.103400 120.32300,51.950300 C 120.38000,51.844400 120.35800,51.649700 120.23300,51.616100 z "
             id="path230" />
          <path
             style="fill:#0070ff;stroke:#000000;stroke-width:0.013000000"
             d="M 119.94900,50.654700 C 119.67400,50.480000 119.28500,50.891800 119.38700,51.210600 C 119.47100,50.939800 119.83100,51.124700 119.95000,51.003300 C 120.03200,50.919200 120.06100,50.725800 119.94900,50.654700 z "
             id="path232" />
          <path
             style="fill:#0070ff;stroke:#000000;stroke-width:0.013000000"
             d="M 125.51000,51.342000 C 125.20100,51.259300 124.93300,51.774500 125.11200,52.049100 C 125.12500,51.763000 125.51700,51.829300 125.60000,51.676300 C 125.65700,51.570400 125.63500,51.375700 125.51000,51.342000 z "
             id="path234" />
          <path
             style="fill:#0070ff;stroke:#000000;stroke-width:0.013000000"
             d="M 125.51900,50.803300 C 125.23900,50.639100 124.86300,51.065400 124.97400,51.380100 C 125.05100,51.106300 125.41600,51.277500 125.53100,51.151600 C 125.61000,51.064600 125.63300,50.870100 125.51900,50.803300 z "
             id="path236" />
          <path
             style="fill:#0070ff;stroke:#000000;stroke-width:0.013000000"
             d="M 125.73600,51.823500 C 125.42400,51.755600 125.17700,52.283200 125.36700,52.548900 C 125.36800,52.262500 125.76300,52.310000 125.83900,52.153100 C 125.89200,52.044600 125.86300,51.851100 125.73600,51.823500 z "
             id="path238" />
          <path
             style="fill:#0070ff;stroke:#000000;stroke-width:0.013000000"
             d="M 115.36300,48.025800 C 115.55900,48.025800 115.63800,48.088500 115.63800,48.476600 C 115.63800,49.298900 115.62900,49.652500 115.38800,49.652500 C 115.14700,49.652500 115.16300,49.316600 115.16300,48.712900 C 115.16300,48.397900 115.16300,48.240400 115.10500,48.266600 C 115.10500,48.061100 115.18800,48.025800 115.36300,48.025800 z "
             id="path240" />
        </g>
      </g>
    </g>
  </g>
</svg>
