<?xml version="1.0" encoding="UTF-8" standalone="no"?>
<svg
   xmlns:dc="http://purl.org/dc/elements/1.1/"
   xmlns:cc="http://web.resource.org/cc/"
   xmlns:rdf="http://www.w3.org/1999/02/22-rdf-syntax-ns#"
   xmlns:svg="http://www.w3.org/2000/svg"
   xmlns="http://www.w3.org/2000/svg"
   xmlns:sodipodi="http://inkscape.sourceforge.net/DTD/sodipodi-0.dtd"
   xmlns:inkscape="http://www.inkscape.org/namespaces/inkscape"
   version="1.0"
   width="864.669452"
   height="432.13737"
   id="Flag of Northern Ireland"
   sodipodi:version="0.32"
   inkscape:version="0.43"
   sodipodi:docname="Flag_of_Northern_Ireland.svg"
   sodipodi:docbase="/home/demailly">
  <metadata
     id="metadata49">
    <rdf:RDF>
      <cc:Work
         rdf:about="">
        <dc:format>image/svg+xml</dc:format>
        <dc:type
           rdf:resource="http://purl.org/dc/dcmitype/StillImage" />
      </cc:Work>
    </rdf:RDF>
  </metadata>
  <defs
     id="defs47" />
  <sodipodi:namedview
     inkscape:cy="172.23968"
     inkscape:cx="305.25953"
     inkscape:zoom="0.43415836"
     inkscape:window-height="560"
     inkscape:window-width="988"
     inkscape:pageshadow="2"
     inkscape:pageopacity="0.0"
     borderopacity="1.0"
     bordercolor="#666666"
     pagecolor="#ffffff"
     id="base"
     inkscape:window-x="152"
     inkscape:window-y="237"
     inkscape:current-layer="Flag of Northern Ireland" />
  <g
     id="g2221">
    <rect
       style="stroke:#000000;stroke-opacity:1;stroke-width:1.5;stroke-miterlimit:4;stroke-dasharray:none"
       id="rect3"
       fill="white"
       height="432.13737"
       width="864.669452" />
    <rect
       id="rect5"
       height="86.4087"
       width="864.669452"
       y="172.86417"
       x="0"
       fill="#ff0016" />
    <rect
       id="rect7"
       height="432.13737"
       width="86.352"
       y="0"
       x="388.87437"
       fill="#ff0016" />
    <g
       id="g12"
       transform="translate(-3.93063,-3.93063) scale(3)">
      <path
         id="path20"
         style="fill:#ffffff;stroke:#000000;stroke-width:0.12500000"
         d="M 145.32700,111.06500 L 156.27700,92.296800 L 177.91100,92.296800 L 167.16900,73.333100 L 177.91100,54.370200 L 156.27700,54.370200 L 145.32700,35.602300 L 134.37600,54.370200 L 112.74200,54.370200 L 123.48400,73.333100 L 112.74200,92.296800 L 134.37600,92.296800 L 145.32700,111.06500 z " />
      <path
         id="path22"
         style="fill:#ff0016;stroke:#000000;stroke-width:0.12500000"
         d="M 151.09600,82.332900 C 151.92700,81.494200 153.26300,80.565500 154.00500,78.547000 C 154.70000,76.657900 156.20700,74.445200 157.71900,72.977300 C 159.23000,71.509200 161.25900,69.868600 159.79100,68.530100 C 158.09500,66.983900 155.12800,70.473000 154.30800,71.293400 C 153.67200,71.928800 152.77500,72.024400 151.84400,72.496500 C 152.36200,67.919800 151.37200,64.471500 151.24200,57.735900 C 151.18700,54.885500 150.46500,52.981100 149.17000,53.008100 C 148.08500,53.030700 147.61000,53.823700 147.44100,54.900300 C 147.44100,53.346000 147.39900,50.827700 145.58600,50.827700 C 143.38300,50.827700 143.26300,54.818400 143.50400,57.089300 C 143.41800,55.707600 143.42700,52.900200 141.52700,52.900200 C 139.54100,52.900200 139.36900,56.095200 139.62800,58.944900 C 139.65500,59.246400 139.68500,59.965900 139.70900,60.859100 C 139.70900,59.304800 139.41200,56.872400 137.90000,56.872400 C 136.51900,56.872400 136.34600,58.944900 136.43300,60.758300 C 136.51900,62.571700 136.64700,66.896100 136.43300,68.098300 C 136.00100,70.516200 136.21600,76.719800 136.34600,78.547000 C 136.51900,80.964900 138.59100,81.828500 138.50500,83.469100 C 138.41900,85.109900 138.50500,88.002700 138.50500,89.298000 C 138.50500,90.593300 139.60200,90.663100 141.87300,90.161500 C 145.58600,89.341100 147.61500,90.981900 150.68100,89.772900 C 150.29200,86.189300 151.18200,83.628200 151.09600,82.332900 z " />
      <g
         id="g24">
        <path
           id="path26"
           style="fill:none;stroke:#000000;stroke-width:0.12500000"
           d="M 149.17000,75.999600 C 149.93800,73.825000 150.90800,72.970800 151.84400,72.496500" />
        <path
           id="path28"
           style="fill:none;stroke:#000000;stroke-width:0.12500000"
           d="M 150.37900,83.512300 C 150.44600,83.067100 150.71800,82.714100 151.09600,82.332900" />
        <path
           id="path30"
           style="fill:none;stroke:#000000;stroke-width:0.12500000"
           d="M 139.70900,60.859200 C 139.76200,62.783000 139.80000,65.486600 139.80000,66.371200" />
        <path
           id="path32"
           style="fill:none;stroke:#000000;stroke-width:0.12500000"
           d="M 147.44100,54.900300 C 147.28200,55.910200 147.39400,57.170600 147.52900,58.254000 C 147.61500,58.944900 147.73500,60.201600 147.61500,61.751400 C 147.57200,62.312600 148.00400,64.341900 147.65800,65.378200" />
        <path
           id="path34"
           style="fill:none;stroke:#000000;stroke-width:0.12500000"
           d="M 143.50400,57.089300 C 143.76300,59.334400 143.51400,63.521600 143.60000,65.680400" />
      </g>
      <path
         id="path36"
         style="fill:#ff0016;stroke:#000000;stroke-width:0.12500000"
         d="M 145.32700,25.497800 C 147.52500,22.730300 153.38500,23.055900 155.17600,24.765200 C 156.96700,26.474600 162.25700,24.195500 164.37400,28.428100 L 161.03600,36.486300 L 129.61700,36.486300 L 126.28000,28.428100 C 128.39600,24.195500 133.68700,26.474600 135.47800,24.765200 C 137.26900,23.055900 143.12900,22.730300 145.32700,25.497800 z " />
      <g
         id="g38">
        <path
           id="path40"
           style="fill:#ffff00;stroke:#000000;stroke-width:0.12500000"
           d="M 145.32700,22.423700 C 146.35800,22.423700 147.19500,22.900300 147.19500,20.665400 C 147.19500,18.430400 146.35800,18.907100 145.32700,18.907100 C 144.29600,18.907100 143.45900,18.430400 143.45900,20.665400 C 143.45900,22.900300 144.29600,22.423700 145.32700,22.423700 z " />
        <path
           id="path42"
           style="fill:#ffff00;stroke:#000000;stroke-width:0.12500000"
           d="M 146.49800,12.628100 C 147.38200,12.718600 148.31800,13.105200 148.94900,13.532600 L 148.94900,9.3814100 C 148.31800,9.8086900 147.38200,10.195300 146.49800,10.285800 C 146.58900,9.4017000 146.97500,8.4657000 147.40300,7.8348100 L 143.25100,7.8348100 C 143.67900,8.4657000 144.06500,9.4017000 144.15600,10.285800 C 143.27200,10.195300 142.33600,9.8086900 141.70500,9.3814100 L 141.70500,13.532600 C 142.33600,13.105200 143.27200,12.718600 144.15600,12.628100 C 144.06500,13.512200 143.67900,15.832000 143.25100,16.462800 L 147.40300,16.462800 C 146.97500,15.832000 146.58900,13.512200 146.49800,12.628100 z " />
        <path
           id="path44"
           style="fill:#ffff00;stroke:#000000;stroke-width:0.12500000"
           d="M 145.32700,24.602500 C 146.22200,24.602500 147.41900,25.904800 146.55600,27.695500 C 149.55400,26.453600 148.95400,31.379300 146.55600,29.811800 C 146.35600,31.317600 148.18000,32.633000 149.98000,32.958200 C 152.61200,33.433900 153.96200,31.248600 153.75500,30.741900 C 151.21900,31.303500 151.77900,26.964900 154.48800,28.453900 C 154.12400,27.416000 154.66200,26.398200 155.99000,26.311800 C 157.21100,26.840800 157.37400,27.980400 156.68200,28.835100 C 159.73400,28.346700 158.79800,32.620000 156.60000,31.236300 C 156.23400,31.643200 156.39700,33.311800 158.35000,34.044400 C 159.96500,34.650000 161.56600,33.637400 161.64700,32.416500 C 160.62900,32.253700 160.07700,31.287400 160.62900,30.340900 C 161.19900,29.364100 162.42000,29.771100 162.70500,30.300200 C 162.74600,28.794400 162.25700,27.980400 162.78600,26.759500 C 163.39700,27.207100 164.61800,28.265300 165.18800,28.713000 C 165.79900,29.193300 165.37100,29.832200 164.15000,31.297300 C 164.86200,32.172300 163.76300,33.515300 162.99000,33.189700 C 162.58300,34.410700 162.33900,35.957200 161.60600,35.997900 C 161.68800,37.137500 161.46400,39.579400 160.65000,40.963100 C 162.40000,41.817800 160.91400,44.748000 159.69300,44.219000 C 157.48700,43.262700 150.86200,42.753800 145.32700,42.753800 C 139.79200,42.753800 133.16700,43.262700 130.96100,44.219000 C 129.74000,44.748000 128.25400,41.817800 130.00400,40.963100 C 129.19000,39.579400 128.96600,37.137500 129.04800,35.997900 C 128.31500,35.957200 128.07100,34.410700 127.66400,33.189700 C 126.89100,33.515300 125.79200,32.172300 126.50400,31.297300 C 125.28300,29.832200 124.85500,29.193300 125.46600,28.713000 C 126.03600,28.265300 127.25700,27.207100 127.86700,26.759500 C 128.39600,27.980400 127.90800,28.794400 127.94900,30.300200 C 128.23400,29.771100 129.45500,29.364100 130.02400,30.340900 C 130.57700,31.287400 130.02400,32.253700 129.00700,32.416500 C 129.08800,33.637400 130.68900,34.650000 132.30400,34.044400 C 134.25700,33.311800 134.42000,31.643200 134.05400,31.236300 C 131.85600,32.620000 130.92000,28.346700 133.97200,28.835100 C 133.28000,27.980400 133.44300,26.840800 134.66400,26.311800 C 135.99200,26.398200 136.52900,27.416000 136.16600,28.453900 C 138.87500,26.964900 139.43500,31.303500 136.89900,30.741900 C 136.69200,31.248600 138.04200,33.433900 140.67400,32.958200 C 142.47300,32.633000 144.29700,31.317600 144.09800,29.811800 C 141.70000,31.379300 141.10000,26.453600 144.09800,27.695500 C 143.23500,25.904800 144.43200,24.602500 145.32700,24.602500 z " />
        <path
           id="path46"
           style="fill:#ffff00;stroke:#000000;stroke-width:0.12500000"
           d="M 145.32700,21.762500 C 142.69000,21.762500 142.69000,25.358000 145.32700,25.358000 C 147.96400,25.358000 148.00100,21.762500 145.32700,21.762500 z " />
        <path
           id="path48"
           style="fill:#ffff00;stroke:#000000;stroke-width:0.12500000"
           d="M 145.32700,18.009400 C 153.38500,18.009400 162.64400,23.015200 166.38800,26.433900 C 167.42600,27.431000 165.96100,29.567600 164.99100,28.692600 C 161.33400,25.274000 153.19700,20.695400 145.32700,20.695400 C 137.45700,20.695400 129.32000,25.274000 125.66300,28.692600 C 124.69300,29.567600 123.22800,27.431000 124.26600,26.433900 C 128.01000,23.015200 137.26900,18.009400 145.32700,18.009400 z " />
      </g>
      <g
         id="g50">
        <path
           id="path52"
           style="fill:#ff0016;stroke:#000000;stroke-width:0.12500000"
           d="M 135.84500,35.789700 C 133.14500,36.262500 133.64700,39.131900 136.34800,38.659100 C 139.04800,38.186200 138.58500,35.310100 135.84500,35.789700 z " />
        <path
           id="path54"
           style="fill:#ff0016;stroke:#000000;stroke-width:0.12500000"
           d="M 145.32700,38.030400 C 146.98000,38.030400 148.32000,38.404900 148.32000,36.649100 C 148.32000,34.893200 146.98000,35.267800 145.32700,35.267800 C 143.67400,35.267800 142.33400,34.893200 142.33400,36.649100 C 142.33400,38.404900 143.67400,38.030400 145.32700,38.030400 z " />
        <path
           id="path56"
           style="fill:#ff0016;stroke:#000000;stroke-width:0.12500000"
           d="M 131.20500,37.951400 C 129.77100,39.491200 128.99200,40.617900 128.59600,38.596300 C 128.20000,36.574700 129.42500,37.392600 131.20500,37.951400 z " />
        <path
           id="path58"
           style="fill:#ff0016;stroke:#000000;stroke-width:0.12500000"
           d="M 154.80900,35.789700 C 157.50900,36.262500 157.00700,39.131900 154.30600,38.659100 C 151.60600,38.186200 152.06900,35.310100 154.80900,35.789700 z " />
        <path
           id="path60"
           style="fill:#ff0016;stroke:#000000;stroke-width:0.12500000"
           d="M 159.44900,37.951400 C 160.88300,39.491200 161.66200,40.617900 162.05800,38.596300 C 162.45400,36.574700 161.22800,37.392600 159.44900,37.951400 z " />
      </g>
      <g
         id="g62">
        <path
           id="path64"
           style="fill:none;stroke:#000000;stroke-width:0.12500000"
           d="M 161.60600,35.997900 C 159.08300,34.939800 150.53600,33.881600 145.32700,33.881600 C 140.11800,33.881600 131.57100,34.939800 129.04800,35.997900" />
        <path
           id="path66"
           style="fill:none;stroke:#000000;stroke-width:0.12500000"
           d="M 160.65000,40.963100 C 158.48900,39.907700 150.86200,39.253800 145.32700,39.253800 C 139.79200,39.253800 132.16500,39.907700 130.00400,40.963100" />
      </g>
      <g
         id="g68">
        <path
           id="path70"
           style="fill:#ffffff;stroke:#000000;stroke-width:0.12500000"
           d="M 124.32600,23.500000 C 121.54600,23.479800 121.51600,27.621800 124.29600,27.642000 C 127.07500,27.662200 127.14500,23.520500 124.32600,23.500000 z " />
        <path
           id="path72"
           style="fill:#ffffff;stroke:#000000;stroke-width:0.12500000"
           d="M 128.00800,20.840600 C 125.22900,20.820400 125.19900,24.962500 127.97800,24.982600 C 130.75800,25.002800 130.82700,20.861100 128.00800,20.840600 z " />
        <path
           id="path74"
           style="fill:#ffffff;stroke:#000000;stroke-width:0.12500000"
           d="M 132.01100,18.834700 C 129.23200,18.814500 129.20200,22.956600 131.98100,22.976800 C 134.76100,22.997000 134.83000,18.855200 132.01100,18.834700 z " />
        <path
           id="path76"
           style="fill:#ffffff;stroke:#000000;stroke-width:0.12500000"
           d="M 136.17500,17.155600 C 133.39500,17.135400 133.36500,21.277500 136.14500,21.297600 C 138.92400,21.317800 138.99400,17.176100 136.17500,17.155600 z " />
        <path
           id="path78"
           style="fill:#ffffff;stroke:#000000;stroke-width:0.12500000"
           d="M 140.41700,15.884100 C 137.63700,15.863900 137.60700,20.005900 140.38700,20.026100 C 143.16600,20.046300 143.23600,15.904500 140.41700,15.884100 z " />
        <path
           id="path80"
           style="fill:#ffffff;stroke:#000000;stroke-width:0.12500000"
           d="M 145.32700,14.795900 C 141.91400,14.795900 141.91400,19.881500 145.32700,19.881500 C 148.74000,19.881500 148.78800,14.795900 145.32700,14.795900 z " />
        <path
           id="path82"
           style="fill:#ffffff;stroke:#000000;stroke-width:0.12500000"
           d="M 166.32800,23.500000 C 169.10700,23.479800 169.13700,27.621800 166.35800,27.642000 C 163.57900,27.662200 163.50900,23.520500 166.32800,23.500000 z " />
        <path
           id="path84"
           style="fill:#ffffff;stroke:#000000;stroke-width:0.12500000"
           d="M 162.64600,20.840600 C 165.42500,20.820400 165.45500,24.962500 162.67600,24.982600 C 159.89600,25.002800 159.82700,20.861100 162.64600,20.840600 z " />
        <path
           id="path86"
           style="fill:#ffffff;stroke:#000000;stroke-width:0.12500000"
           d="M 158.64300,18.834700 C 161.42200,18.814500 161.45200,22.956600 158.67300,22.976800 C 155.89300,22.997000 155.82300,18.855200 158.64300,18.834700 z " />
        <path
           id="path88"
           style="fill:#ffffff;stroke:#000000;stroke-width:0.12500000"
           d="M 154.47900,17.155600 C 157.25800,17.135400 157.28900,21.277500 154.50900,21.297600 C 151.73000,21.317800 151.66000,17.176100 154.47900,17.155600 z " />
        <path
           id="path90"
           style="fill:#ffffff;stroke:#000000;stroke-width:0.12500000"
           d="M 150.23700,15.884100 C 153.01700,15.863900 153.04700,20.005900 150.26700,20.026100 C 147.48800,20.046300 147.41800,15.904500 150.23700,15.884100 z " />
      </g>
    </g>
  </g>
</svg>
