<?xml version="1.0" encoding="UTF-8" standalone="no"?>
<svg
   xmlns:dc="http://purl.org/dc/elements/1.1/"
   xmlns:cc="http://web.resource.org/cc/"
   xmlns:rdf="http://www.w3.org/1999/02/22-rdf-syntax-ns#"
   xmlns:svg="http://www.w3.org/2000/svg"
   xmlns="http://www.w3.org/2000/svg"
   xmlns:sodipodi="http://inkscape.sourceforge.net/DTD/sodipodi-0.dtd"
   xmlns:inkscape="http://www.inkscape.org/namespaces/inkscape"
   width="656"
   height="400"
   id="svg2"
   sodipodi:version="0.32"
   inkscape:version="0.42"
   sodipodi:docname="usa_new_england.svg"
   sodipodi:docbase="/home/demailly/nnew/gis_data/flags/svg_new">
  <metadata
     id="metadata25">
    <rdf:RDF>
      <cc:Work
         rdf:about="">
        <dc:format>image/svg+xml</dc:format>
        <dc:type
           rdf:resource="http://purl.org/dc/dcmitype/StillImage" />
      </cc:Work>
    </rdf:RDF>
  </metadata>
  <sodipodi:namedview
     inkscape:cy="131.29899"
     inkscape:cx="89.080447"
     inkscape:zoom="3.4732669"
     inkscape:window-height="835"
     inkscape:window-width="1212"
     inkscape:pageshadow="2"
     inkscape:pageopacity="0.0"
     borderopacity="1.0"
     bordercolor="#666666"
     pagecolor="#ffffff"
     id="base"
     inkscape:window-x="234"
     inkscape:window-y="161"
     inkscape:current-layer="svg2" />
  <defs
     id="defs4">
    <marker
       id="ArrowEnd"
       viewBox="0 0 10 10"
       refX="0"
       refY="5"
       markerUnits="strokeWidth"
       markerWidth="4"
       markerHeight="3"
       orient="auto">
      <path
         d="M 0 0 L 10 5 L 0 10 z"
         id="path7" />
    </marker>
    <marker
       id="ArrowStart"
       viewBox="0 0 10 10"
       refX="10"
       refY="5"
       markerUnits="strokeWidth"
       markerWidth="4"
       markerHeight="3"
       orient="auto">
      <path
         d="M 10 0 L 0 5 L 10 10 z"
         id="path10" />
    </marker>
  </defs>
  <g
     id="g12"
     transform="matrix(3.000000,0.000000,0.000000,3.000000,-5.187194,-5.629554)">
    <path
       style="fill:#ff0000;stroke:none"
       d="M 2.0753800,2.0753800 L 218.47100,2.0753800 L 218.47100,133.69100 L 2.0753800,133.69100 L 2.0753800,2.0753800 L 2.0753800,2.0753800 z "
       id="path14" />
    <path
       style="fill:#ffffff;stroke:none"
       d="M 2.0753800,2.1113900 L 81.707400,2.1113900 L 81.707400,61.043400 L 2.0753800,61.043400 L 2.0753800,2.1113900 L 2.0753800,2.1113900 z "
       id="path16" />
    <path
       style="fill:#ff0000;stroke:none"
       d="M 46.715400,35.195400 L 81.707400,35.231400 L 81.671400,27.887400 L 46.823400,27.923400 L 46.859400,2.1113900 L 37.175400,2.1113900 L 37.211400,27.959400 L 2.1473700,27.959400 L 2.1473700,35.195400 L 37.211400,35.195400 L 37.211400,61.079400 L 46.715400,61.079400 L 46.715400,35.195400 L 46.715400,35.195400 z "
       id="path18" />
    <path
       style="fill:#00ff00;stroke:#00ff00;stroke-width:0.25200000"
       d="M 20.939400,24.143400 C 20.075400,21.911400 19.895400,19.571400 20.363400,17.015400 C 22.055400,16.979400 24.791400,17.843400 26.411400,18.671400 C 25.115400,17.375400 23.279400,16.403400 21.443400,15.827400 C 20.795400,15.647400 20.723400,13.991400 21.371400,14.531400 C 22.523400,15.431400 24.251400,16.151400 25.727400,16.259400 C 24.107400,15.251400 22.271400,14.063400 20.831400,13.091400 C 20.507400,12.695400 20.363400,11.435400 20.795400,11.651400 C 22.199400,12.587400 23.531400,13.199400 25.079400,13.199400 C 23.315400,12.335400 22.019400,11.219400 20.831400,9.8513800 C 20.471400,9.5273700 20.003400,7.9793700 20.687400,8.5553900 C 21.659400,9.4913600 23.099400,10.103400 24.395400,9.9233700 C 21.551400,9.0593900 21.011400,7.5473600 19.715400,5.9273700 C 18.419400,7.5473600 17.843400,9.0593900 15.035400,9.9233700 C 16.331400,10.103400 17.771400,9.4913600 18.707400,8.5553900 C 19.427400,7.9793700 18.959400,9.5273700 18.599400,9.8513800 C 17.411400,11.219400 16.079400,12.335400 14.351400,13.199400 C 15.899400,13.199400 17.195400,12.587400 18.635400,11.651400 C 19.067400,11.435400 18.923400,12.695400 18.599400,13.091400 C 16.475400,13.415400 14.675400,14.675400 13.667400,16.259400 C 15.251400,14.963400 16.439400,14.747400 18.023400,14.531400 C 18.671400,13.991400 18.635400,15.647400 17.951400,15.827400 C 16.115400,16.403400 14.315400,17.375400 12.983400,18.671400 C 14.639400,17.843400 17.195400,16.979400 18.887400,17.015400 C 19.355400,19.571400 19.427400,21.911400 18.563400,24.143400 C 19.283400,23.567400 20.255400,23.747400 20.939400,24.143400 L 20.939400,24.143400 z "
       id="path20" />
    <path
       style="fill:none;stroke:#000000;stroke-width:0.39600000"
       d="M 2.0753800,2.0753800 L 218.47100,2.0753800 L 218.47100,133.69100 L 2.0753800,133.69100 L 2.0753800,2.0753800 L 2.0753800,2.0753800 z "
       id="path22" />
  </g>
</svg>
