<?xml version="1.0" encoding="UTF-8" standalone="no"?>
<svg
   xmlns:dc="http://purl.org/dc/elements/1.1/"
   xmlns:cc="http://web.resource.org/cc/"
   xmlns:rdf="http://www.w3.org/1999/02/22-rdf-syntax-ns#"
   xmlns:svg="http://www.w3.org/2000/svg"
   xmlns="http://www.w3.org/2000/svg"
   xmlns:sodipodi="http://inkscape.sourceforge.net/DTD/sodipodi-0.dtd"
   xmlns:inkscape="http://www.inkscape.org/namespaces/inkscape"
   width="1601.64"
   height="1042.39"
   id="svg2"
   sodipodi:version="0.32"
   inkscape:version="0.43"
   sodipodi:docname="usa_rebel_flag.svg"
   sodipodi:docbase="/home/demailly/ajour/flags">
  <metadata
     id="metadata97">
    <rdf:RDF>
      <cc:Work
         rdf:about="">
        <dc:format>image/svg+xml</dc:format>
        <dc:type
           rdf:resource="http://purl.org/dc/dcmitype/StillImage" />
      </cc:Work>
    </rdf:RDF>
  </metadata>
  <sodipodi:namedview
     inkscape:cy="644.08363"
     inkscape:cx="1024.5486"
     inkscape:zoom="0.43415836"
     inkscape:window-height="560"
     inkscape:window-width="988"
     inkscape:pageshadow="2"
     inkscape:pageopacity="0.0"
     borderopacity="1.0"
     bordercolor="#666666"
     pagecolor="#ffffff"
     id="base"
     inkscape:window-x="216"
     inkscape:window-y="315"
     inkscape:current-layer="svg2" />
  <defs
     id="defs4">
    <marker
       id="ArrowEnd"
       viewBox="0 0 10 10"
       refX="0"
       refY="5"
       markerUnits="strokeWidth"
       markerWidth="4"
       markerHeight="3"
       orient="auto">
      <path
         d="M 0 0 L 10 5 L 0 10 z"
         id="path7" />
    </marker>
    <marker
       id="ArrowStart"
       viewBox="0 0 10 10"
       refX="10"
       refY="5"
       markerUnits="strokeWidth"
       markerWidth="4"
       markerHeight="3"
       orient="auto">
      <path
         d="M 10 0 L 0 5 L 10 10 z"
         id="path10" />
    </marker>
  </defs>
  <g
     id="g12">
    <path
       style="stroke:none; fill:#ff0000"
       d="M 1581.22 918.035C 1581.22 725.745 1581.22 316.64 1581.22 124.347C 1476.48 191.734 1002.64 496.57 964.375 521.191C 1002.64 545.808 1476.48 850.644 1581.22 918.031"
       id="path14" />
    <path
       style="stroke:none; fill:#ff0000"
       d="M 185.965 1021.97C 485.883 1021.97 1115.75 1021.97 1415.67 1021.97C 1287.86 939.745 816.879 636.745 800.816 626.41C 784.754 636.742 313.773 939.742 185.965 1021.97"
       id="path16" />
    <path
       style="stroke:none; fill:#ff0000"
       d="M 1415.68 20.41C 1115.76 20.41 485.891 20.41 185.973 20.41C 313.781 102.636 784.766 405.64 800.828 415.972C 816.891 405.64 1287.88 102.636 1415.68 20.41"
       id="path18" />
    <path
       style="stroke:none; fill:#ff0000"
       d="M 20.418 124.343C 20.418 316.632 20.418 725.742 20.418 918.031C 125.164 850.644 599 545.808 637.266 521.187C 599 496.57 125.164 191.734 20.418 124.343"
       id="path20" />
    <path
       style="stroke:none; fill:#ffffff"
       d="M 1424.13 1027.41C 1439.01 1036.98 1447.42 1042.39 1447.42 1042.39L 1601.64 1042.39L 1601.64 931.171C 1601.64 931.171 1596.32 927.749 1586.66 921.535L 1586.66 1027.41L 1424.13 1027.41"
       id="path22" />
    <path
       style="stroke:none; fill:#ffffff"
       d="M 14.9805 921.535C 5.32422 927.745 0 931.171 0 931.171L 0 1042.39L 154.227 1042.39C 154.227 1042.39 162.629 1036.98 177.512 1027.41L 14.9805 1027.41L 14.9805 921.538"
       id="path24" />
    <path
       style="stroke:none; fill:#ffffff"
       d="M 177.512 14.97C 162.633 5.40002 154.23 0 154.23 0L 0.00390625 0L 0.00390625 111.21C 0.00390625 111.21 5.32422 114.632 14.9844 120.847L 14.9844 14.97L 177.512 14.97"
       id="path26" />
    <path
       style="stroke:none; fill:#ffffff"
       d="M 1586.66 14.97L 1586.66 120.847C 1596.31 114.632 1601.64 111.21 1601.64 111.21L 1601.64 0L 1447.42 0C 1447.42 0 1439.01 5.40002 1424.13 14.97L 1586.66 14.97"
       id="path28" />
    <path
       style="stroke:none; fill:#ffffff"
       d="M 1581.22 939.078C 1581.22 932.398 1581.22 925.374 1581.22 918.035C 1476.48 850.648 1002.64 545.812 964.375 521.195C 1002.64 496.578 1476.48 191.742 1581.22 124.351C 1581.22 117.015 1581.22 109.992 1581.22 103.308L 931.664 521.195L 1581.22 939.081"
       id="path30" />
    <path
       style="stroke:none; fill:#ffffff"
       d="M 153.258 1021.97C 163.66 1021.97 174.574 1021.97 185.965 1021.97C 313.773 939.745 784.754 636.745 800.816 626.41C 816.879 636.742 1287.86 939.742 1415.67 1021.97C 1427.06 1021.97 1437.97 1021.97 1448.38 1021.97L 800.812 605.367L 153.25 1021.97"
       id="path32" />
    <path
       style="stroke:none; fill:#ffffff"
       d="M 1448.39 20.41C 1437.99 20.41 1427.07 20.41 1415.68 20.41C 1287.87 102.636 816.887 405.64 800.824 415.972C 784.762 405.64 313.777 102.636 185.969 20.41C 174.578 20.41 163.664 20.41 153.262 20.41L 800.828 437.019L 1448.39 20.41"
       id="path34" />
    <path
       style="stroke:none; fill:#ffffff"
       d="M 20.418 103.3C 20.418 109.98 20.418 117.003 20.418 124.343C 125.164 191.73 599 496.57 637.266 521.187C 599 545.804 125.164 850.64 20.418 918.031C 20.418 925.367 20.418 932.39 20.418 939.074L 669.977 521.187L 20.418 103.3"
       id="path36" />
    <path
       style="stroke:none;fill:#002896;fill-opacity:1"
       d="M 103.184 27.8L 105.645 35.38L 113.719 60.238L 147.824 60.238L 120.23 80.285L 130.77 112.726L 103.176 92.679L 75.582 112.726L 86.1211 80.285L 58.5273 60.238L 92.6328 60.238L 100.707 35.38L 103.172 27.8L 103.184 27.8zM 1326.82 843.027L 1354.41 863.074L 1382 843.027L 1371.46 875.464L 1399.06 895.511L 1364.95 895.511L 1354.41 927.949L 1343.88 895.511L 1309.77 895.511L 1337.36 875.464L 1326.82 843.027M 1208.14 767.691L 1235.73 787.738L 1263.32 767.691L 1252.79 800.128L 1280.38 820.175L 1246.28 820.175L 1235.74 852.617L 1225.19 820.175L 1191.08 820.175L 1218.68 800.128L 1208.14 767.691M 1091.79 691.425L 1119.39 711.472L 1146.98 691.425L 1136.44 723.867L 1164.04 743.913L 1129.93 743.913L 1119.39 776.351L 1108.85 743.913L 1074.74 743.913L 1102.33 723.867L 1091.79 691.425M 973.512 617.078L 1001.11 637.128L 1028.7 617.078L 1018.16 649.515L 1045.76 669.562L 1011.65 669.562L 1001.11 701.999L 990.566 669.562L 956.457 669.562L 984.051 649.515L 973.512 617.078M 934.234 593.531L 900.125 593.531L 889.586 625.972L 879.047 593.531L 844.938 593.531L 872.531 573.48L 861.992 541.042L 889.586 561.089L 917.18 541.042L 906.641 573.48L 934.234 593.531M 937.18 487.382L 909.586 467.335L 881.992 487.382L 892.531 454.945L 864.938 434.898L 899.047 434.898L 909.586 402.456L 920.125 434.898L 954.234 434.898L 926.641 454.945L 937.18 487.382M 1048.7 411.343L 1021.11 391.296L 993.512 411.343L 1004.05 378.906L 976.457 358.859L 1010.57 358.859L 1021.11 326.417L 1031.64 358.859L 1065.75 358.859L 1038.16 378.906L 1048.7 411.343M 1166.98 336.995L 1139.39 316.949L 1111.79 336.995L 1122.33 304.558L 1094.74 284.511L 1128.85 284.511L 1139.39 252.074L 1149.93 284.511L 1184.04 284.511L 1156.44 304.558L 1166.98 336.995M 1283.33 260.73L 1255.74 240.683L 1228.14 260.73L 1238.68 228.292L 1211.08 208.245L 1245.19 208.245L 1255.74 175.808L 1266.28 208.245L 1300.38 208.245L 1272.79 228.292L 1283.32 260.73L 1283.33 260.73zM 1402.01 185.394L 1374.42 165.343L 1346.82 185.394L 1357.36 152.952L 1329.77 132.906L 1363.88 132.906L 1374.42 100.468L 1384.96 132.906L 1419.07 132.906L 1391.47 152.952L 1402.01 185.394M 768.43 558.171L 778.969 525.734L 751.375 505.687L 785.48 505.687L 796.02 473.249L 806.559 505.687L 840.668 505.687L 813.074 525.734L 823.613 558.171L 796.02 538.124L 768.426 558.171L 768.43 558.171zM 211.566 843.027L 239.16 863.074L 266.754 843.027L 256.215 875.464L 283.809 895.511L 249.699 895.511L 239.16 927.949L 228.621 895.511L 194.512 895.511L 222.105 875.464L 211.566 843.027M 330.25 767.691L 357.844 787.738L 385.438 767.691L 374.895 800.128L 402.492 820.175L 368.383 820.175L 357.844 852.617L 347.305 820.175L 313.199 820.175L 340.793 800.128L 330.254 767.691L 330.25 767.691zM 446.598 691.425L 474.191 711.472L 501.785 691.425L 491.246 723.867L 518.84 743.913L 484.734 743.913L 474.195 776.351L 463.656 743.913L 429.547 743.913L 457.141 723.867L 446.602 691.425L 446.598 691.425zM 564.879 617.078L 592.473 637.128L 620.066 617.078L 609.527 649.515L 637.121 669.562L 603.012 669.562L 592.473 701.999L 581.934 669.562L 547.828 669.562L 575.422 649.515L 564.887 617.078L 564.879 617.078zM 210.926 132.902L 221.465 100.464L 232.004 132.902L 266.113 132.902L 238.52 152.949L 249.059 185.39L 221.465 165.339L 193.871 185.39L 204.41 152.949L 176.816 132.902L 210.926 132.902M 367.746 260.73L 340.152 240.683L 312.559 260.73L 323.098 228.292L 295.504 208.245L 329.609 208.245L 340.148 175.808L 350.688 208.245L 384.797 208.245L 357.203 228.292L 367.742 260.73L 367.746 260.73zM 484.09 336.995L 456.496 316.949L 428.902 336.995L 439.441 304.558L 411.848 284.511L 445.957 284.511L 456.496 252.074L 467.035 284.511L 501.141 284.511L 473.547 304.558L 484.086 336.995L 484.09 336.995zM 602.371 411.343L 574.777 391.296L 547.184 411.343L 557.723 378.906L 530.129 358.859L 564.238 358.859L 574.777 326.417L 585.316 358.859L 619.426 358.859L 591.832 378.906L 602.371 411.343M 641.645 434.89L 675.754 434.89L 686.293 402.449L 696.832 434.89L 730.941 434.89L 703.348 454.937L 713.887 487.374L 686.293 467.328L 658.699 487.374L 669.238 454.937L 641.645 434.89M 676.398 541.038L 703.992 561.085L 731.586 541.038L 721.047 573.476L 748.641 593.527L 714.531 593.527L 703.992 625.968L 693.453 593.527L 659.348 593.527L 686.941 573.476L 676.402 541.038L 676.398 541.038zM 120.883 1000.62L 110.344 968.179L 76.2383 968.179L 103.832 948.128L 93.293 915.691L 120.887 935.738L 148.48 915.691L 137.941 948.128L 165.535 968.179L 131.426 968.179L 120.887 1000.62L 120.883 1000.62zM 1483.24 968.175L 1472.7 1000.62L 1462.16 968.175L 1428.05 968.175L 1455.64 948.124L 1445.1 915.687L 1472.7 935.734L 1500.29 915.687L 1489.75 948.124L 1517.35 968.175L 1483.24 968.175M 1492.7 27.8L 1495.16 35.38L 1503.23 60.238L 1537.34 60.238L 1509.75 80.285L 1520.29 112.726L 1492.7 92.679L 1465.1 112.726L 1475.64 80.285L 1448.05 60.238L 1482.16 60.238L 1490.22 35.38L 1492.69 27.8L 1492.7 27.8zM 1581.22 20.41L 1448.39 20.41L 800.824 437.019L 153.258 20.41L 20.4258 20.41L 20.4258 103.304L 669.984 521.191L 20.4258 939.078L 20.4258 1021.97L 153.262 1021.97L 800.824 605.363L 1448.39 1021.97L 1581.22 1021.97L 1581.22 939.078L 931.664 521.191L 1581.22 103.304L 1581.22 20.41"
       id="path38" />
    <path
       style="stroke:none; fill:#ffffff"
       d="M 58.5352 60.245L 86.1289 80.292L 75.5898 112.734L 103.184 92.687L 130.777 112.734L 120.238 80.292L 147.832 60.245L 113.727 60.245L 105.652 35.39C 104.031 35.39 102.391 35.39 100.727 35.39L 92.6523 60.245L 58.5469 60.245"
       id="path40" />
    <path
       style="stroke:none; fill:#ffffff"
       d="M 103.184 27.8L 100.719 35.38C 102.379 35.38 104.023 35.38 105.645 35.38L 103.184 27.8"
       id="path42" />
    <path
       style="stroke:none; fill:#ffffff"
       d="M 232.008 132.902L 221.469 100.464L 210.93 132.902L 176.82 132.902L 204.414 152.949L 193.875 185.39L 221.469 165.339L 249.062 185.39L 238.523 152.949L 266.117 132.902L 232.008 132.902"
       id="path44" />
    <path
       style="stroke:none; fill:#ffffff"
       d="M 350.688 208.242L 340.148 175.804L 329.609 208.242L 295.504 208.242L 323.098 228.288L 312.559 260.726L 340.152 240.679L 367.746 260.726L 357.207 228.288L 384.801 208.242L 350.691 208.242"
       id="path46" />
    <path
       style="stroke:none; fill:#ffffff"
       d="M 467.035 284.507L 456.496 252.07L 445.957 284.507L 411.848 284.507L 439.441 304.554L 428.902 336.992L 456.496 316.945L 484.09 336.992L 473.551 304.554L 501.145 284.507L 467.039 284.507"
       id="path48" />
    <path
       style="stroke:none; fill:#ffffff"
       d="M 585.316 358.855L 574.777 326.413L 564.238 358.855L 530.129 358.855L 557.723 378.902L 547.184 411.339L 574.777 391.292L 602.371 411.339L 591.832 378.902L 619.426 358.855L 585.316 358.855"
       id="path50" />
    <path
       style="stroke:none; fill:#ffffff"
       d="M 703.352 454.941L 730.945 434.894L 696.836 434.894L 686.297 402.452L 675.758 434.894L 641.648 434.894L 669.242 454.941L 658.703 487.378L 686.297 467.331L 713.891 487.378L 703.352 454.941"
       id="path52" />
    <path
       style="stroke:none; fill:#ffffff"
       d="M 1448.05 60.245L 1475.64 80.292L 1465.1 112.734L 1492.7 92.687L 1520.29 112.734L 1509.75 80.292L 1537.34 60.245L 1503.23 60.245L 1495.16 35.39C 1493.49 35.39 1491.85 35.39 1490.23 35.39L 1482.16 60.245L 1448.05 60.245"
       id="path54" />
    <path
       style="stroke:none; fill:#ffffff"
       d="M 1492.7 27.8L 1490.23 35.38C 1491.85 35.38 1493.49 35.38 1495.16 35.38L 1492.7 27.8"
       id="path56" />
    <path
       style="stroke:none; fill:#ffffff"
       d="M 1384.96 132.902L 1374.42 100.464L 1363.88 132.902L 1329.77 132.902L 1357.36 152.949L 1346.82 185.39L 1374.42 165.339L 1402.01 185.39L 1391.47 152.949L 1419.07 132.902L 1384.96 132.902"
       id="path58" />
    <path
       style="stroke:none; fill:#ffffff"
       d="M 1266.28 208.242L 1255.74 175.804L 1245.19 208.242L 1211.08 208.242L 1238.68 228.288L 1228.14 260.726L 1255.74 240.679L 1283.33 260.726L 1272.79 228.288L 1300.38 208.242L 1266.28 208.242"
       id="path60" />
    <path
       style="stroke:none; fill:#ffffff"
       d="M 1149.93 284.507L 1139.39 252.07L 1128.85 284.507L 1094.74 284.507L 1122.33 304.554L 1111.79 336.992L 1139.39 316.945L 1166.98 336.992L 1156.44 304.554L 1184.04 284.507L 1149.93 284.507"
       id="path62" />
    <path
       style="stroke:none; fill:#ffffff"
       d="M 1031.65 358.855L 1021.11 326.413L 1010.57 358.855L 976.461 358.855L 1004.05 378.902L 993.516 411.339L 1021.11 391.292L 1048.7 411.339L 1038.16 378.902L 1065.76 358.855L 1031.65 358.855"
       id="path64" />
    <path
       style="stroke:none; fill:#ffffff"
       d="M 920.125 434.89L 909.586 402.449L 899.047 434.89L 864.938 434.89L 892.531 454.937L 881.992 487.374L 909.586 467.328L 937.18 487.374L 926.641 454.937L 954.234 434.89L 920.125 434.89"
       id="path66" />
    <path
       style="stroke:none; fill:#ffffff"
       d="M 1462.16 968.175L 1472.7 1000.62L 1483.23 968.175L 1517.34 968.175L 1489.75 948.124L 1500.29 915.687L 1472.7 935.734L 1445.1 915.687L 1455.64 948.124L 1428.05 968.175L 1462.16 968.175"
       id="path68" />
    <path
       style="stroke:none; fill:#ffffff"
       d="M 1343.88 895.515L 1354.42 927.952L 1364.96 895.515L 1399.07 895.515L 1371.47 875.468L 1382.01 843.031L 1354.42 863.078L 1326.82 843.031L 1337.36 875.468L 1309.77 895.515L 1343.88 895.515"
       id="path70" />
    <path
       style="stroke:none; fill:#ffffff"
       d="M 1225.19 820.179L 1235.73 852.62L 1246.27 820.179L 1280.37 820.179L 1252.78 800.132L 1263.32 767.695L 1235.73 787.742L 1208.13 767.695L 1218.67 800.132L 1191.07 820.179L 1225.18 820.179"
       id="path72" />
    <path
       style="stroke:none; fill:#ffffff"
       d="M 1108.85 743.913L 1119.39 776.351L 1129.93 743.913L 1164.04 743.913L 1136.44 723.867L 1146.98 691.425L 1119.39 711.472L 1091.79 691.425L 1102.33 723.867L 1074.74 743.913L 1108.85 743.913"
       id="path74" />
    <path
       style="stroke:none; fill:#ffffff"
       d="M 990.566 669.566L 1001.11 702.003L 1011.65 669.566L 1045.76 669.566L 1018.16 649.519L 1028.7 617.081L 1001.11 637.132L 973.512 617.081L 984.051 649.519L 956.457 669.566L 990.566 669.566"
       id="path76" />
    <path
       style="stroke:none; fill:#ffffff"
       d="M 861.988 541.038L 872.527 573.476L 844.934 593.527L 879.043 593.527L 889.582 625.968L 900.121 593.527L 934.23 593.527L 906.637 573.476L 917.176 541.038L 889.582 561.085L 861.988 541.038"
       id="path78" />
    <path
       style="stroke:none; fill:#ffffff"
       d="M 148.477 915.683L 120.883 935.73L 93.2891 915.683L 103.828 948.12L 76.2344 968.171L 110.34 968.171L 120.879 1000.61L 131.418 968.171L 165.527 968.171L 137.934 948.12L 148.473 915.683"
       id="path80" />
    <path
       style="stroke:none; fill:#ffffff"
       d="M 266.758 843.027L 239.164 863.074L 211.57 843.027L 222.109 875.464L 194.516 895.511L 228.625 895.511L 239.164 927.949L 249.703 895.511L 283.812 895.511L 256.219 875.464L 266.758 843.027"
       id="path82" />
    <path
       style="stroke:none; fill:#ffffff"
       d="M 385.441 767.691L 357.848 787.738L 330.254 767.691L 340.793 800.128L 313.199 820.175L 347.305 820.175L 357.844 852.617L 368.383 820.175L 402.492 820.175L 374.895 800.128L 385.438 767.691"
       id="path84" />
    <path
       style="stroke:none; fill:#ffffff"
       d="M 501.789 691.425L 474.195 711.472L 446.602 691.425L 457.141 723.867L 429.547 743.913L 463.656 743.913L 474.195 776.351L 484.734 743.913L 518.84 743.913L 491.246 723.867L 501.785 691.425"
       id="path86" />
    <path
       style="stroke:none; fill:#ffffff"
       d="M 620.066 617.078L 592.473 637.128L 564.879 617.078L 575.414 649.515L 547.82 669.562L 581.926 669.562L 592.465 701.999L 603.004 669.562L 637.113 669.562L 609.52 649.515L 620.059 617.078"
       id="path88" />
    <path
       style="stroke:none; fill:#ffffff"
       d="M 731.59 541.038L 703.996 561.085L 676.402 541.038L 686.941 573.476L 659.348 593.527L 693.453 593.527L 703.992 625.968L 714.531 593.527L 748.641 593.527L 721.047 573.476L 731.586 541.038"
       id="path90" />
    <path
       style="stroke:none; fill:#ffffff"
       d="M 806.562 505.683L 796.023 473.245L 785.484 505.683L 751.379 505.683L 778.973 525.73L 768.434 558.167L 796.027 538.12L 823.621 558.167L 813.082 525.73L 840.676 505.683L 806.566 505.683"
       id="path92" />
    <path
       style="stroke:none; fill:#000000"
       d="M 1581.22 1021.97L 20.4219 1021.97L 20.4219 20.41L 1581.22 20.41L 1581.22 1021.97M 14.9805 14.97L 14.9805 1027.41L 1586.66 1027.41L 1586.66 14.97L 14.9805 14.97"
       id="path94" />
  </g>
</svg>
