<?xml version="1.0" encoding="UTF-8" standalone="no"?>
<!-- Created with Inkscape (http://www.inkscape.org/) -->
<svg
   xmlns:svg="http://www.w3.org/2000/svg"
   xmlns="http://www.w3.org/2000/svg"
   version="1.0"
   x="0.00000000"
   y="0.00000000"
   width="354.60089"
   height="177.43500"
   viewBox="-2283 0 3940 1972"
   id="svg1421"
   xml:space="preserve">
 <defs
   id="defs1423">
  <style
   type="text/css"
   id="style1425" />
 </defs>
 <g
   id="Layer 1">
  <path
   d="M -2281.0000,2.0000000 L 1656.0000,2.0000000 L 1656.0000,1970.0000 L -2281.0000,1970.0000 L -2281.0000,2.0000000 z "
   style="fill:#da251d"
   id="14378520" />
 </g>
 <g
   id="sirp-vasar">
  <path
   d="M 1656.0000,1583.0000 C 1429.0000,1748.0000 1211.0000,1748.0000 999.00000,1583.0000 C 773.00000,1748.0000 554.00000,1748.0000 343.00000,1583.0000 C 117.00000,1748.0000 -102.00000,1748.0000 -313.00000,1583.0000 C -539.00000,1748.0000 -758.00000,1748.0000 -969.00000,1583.0000 C -1195.0000,1748.0000 -1414.0000,1748.0000 -1625.0000,1583.0000 C -1852.0000,1748.0000 -2070.0000,1748.0000 -2281.0000,1583.0000 L -2281.0000,1154.0000 C -2070.0000,1319.0000 -1852.0000,1319.0000 -1625.0000,1154.0000 C -1414.0000,1319.0000 -1195.0000,1319.0000 -969.00000,1154.0000 C -758.00000,1319.0000 -539.00000,1319.0000 -313.00000,1154.0000 C -102.00000,1319.0000 117.00000,1319.0000 343.00000,1154.0000 C 554.00000,1319.0000 773.00000,1319.0000 999.00000,1154.0000 C 1211.0000,1319.0000 1429.0000,1319.0000 1656.0000,1154.0000 L 1656.0000,1583.0000 z "
   style="fill:#6666cc;stroke:#aaa9a9;stroke-width:3.0000000;stroke-linecap:round;stroke-linejoin:bevel"
   id="14378696" />
  <path
   d="M 1656.0000,1074.0000 C 1429.0000,1239.0000 1211.0000,1239.0000 999.00000,1074.0000 C 773.00000,1239.0000 554.00000,1239.0000 343.00000,1074.0000 C 117.00000,1239.0000 -102.00000,1239.0000 -313.00000,1074.0000 C -539.00000,1239.0000 -758.00000,1239.0000 -969.00000,1074.0000 C -1195.0000,1239.0000 -1414.0000,1239.0000 -1625.0000,1074.0000 C -1852.0000,1239.0000 -2070.0000,1239.0000 -2281.0000,1074.0000 L -2281.0000,1114.0000 C -2070.0000,1279.0000 -1852.0000,1279.0000 -1625.0000,1114.0000 C -1414.0000,1279.0000 -1195.0000,1279.0000 -969.00000,1114.0000 C -758.00000,1279.0000 -539.00000,1279.0000 -313.00000,1114.0000 C -102.00000,1279.0000 117.00000,1279.0000 343.00000,1114.0000 C 554.00000,1279.0000 773.00000,1279.0000 999.00000,1114.0000 C 1211.0000,1279.0000 1429.0000,1279.0000 1656.0000,1114.0000 L 1656.0000,1074.0000 z "
   style="fill:#6666cc;stroke:#aaa9a9;stroke-width:3.0000000;stroke-linecap:round;stroke-linejoin:bevel"
   id="14378784" />
  <path
   d="M 1656.0000,1074.0000 C 1429.0000,1239.0000 1211.0000,1239.0000 999.00000,1074.0000 C 773.00000,1239.0000 554.00000,1239.0000 343.00000,1074.0000 C 117.00000,1239.0000 -102.00000,1239.0000 -313.00000,1074.0000 C -539.00000,1239.0000 -758.00000,1239.0000 -969.00000,1074.0000 C -1195.0000,1239.0000 -1414.0000,1239.0000 -1625.0000,1074.0000 C -1852.0000,1239.0000 -2070.0000,1239.0000 -2281.0000,1074.0000 L -2281.0000,995.00000 C -2070.0000,1160.0000 -1852.0000,1160.0000 -1625.0000,995.00000 C -1414.0000,1160.0000 -1195.0000,1160.0000 -969.00000,995.00000 C -758.00000,1160.0000 -539.00000,1160.0000 -313.00000,995.00000 C -102.00000,1160.0000 117.00000,1160.0000 343.00000,995.00000 C 554.00000,1160.0000 773.00000,1160.0000 999.00000,995.00000 C 1211.0000,1160.0000 1429.0000,1160.0000 1656.0000,995.00000 L 1656.0000,1074.0000 z "
   style="fill:#ffffff;stroke:#aaa9a9;stroke-width:3.0000000;stroke-linecap:round;stroke-linejoin:bevel"
   id="14378872" />
  <path
   d="M 1656.0000,1154.0000 C 1429.0000,1319.0000 1211.0000,1319.0000 999.00000,1154.0000 C 773.00000,1319.0000 554.00000,1319.0000 343.00000,1154.0000 C 117.00000,1319.0000 -102.00000,1319.0000 -313.00000,1154.0000 C -539.00000,1319.0000 -758.00000,1319.0000 -969.00000,1154.0000 C -1195.0000,1319.0000 -1414.0000,1319.0000 -1625.0000,1154.0000 C -1852.0000,1319.0000 -2070.0000,1319.0000 -2281.0000,1154.0000 L -2281.0000,1114.0000 C -2070.0000,1279.0000 -1852.0000,1279.0000 -1625.0000,1114.0000 C -1414.0000,1279.0000 -1195.0000,1279.0000 -969.00000,1114.0000 C -758.00000,1279.0000 -539.00000,1279.0000 -313.00000,1114.0000 C -102.00000,1279.0000 117.00000,1279.0000 343.00000,1114.0000 C 554.00000,1279.0000 773.00000,1279.0000 999.00000,1114.0000 C 1211.0000,1279.0000 1429.0000,1279.0000 1656.0000,1114.0000 L 1656.0000,1154.0000 z "
   style="fill:#ffffff;stroke:#aaa9a9;stroke-width:3.0000000;stroke-linecap:round;stroke-linejoin:bevel"
   id="14378960" />
 </g>
 <g
   id="Layer 2">
  <path
   d="M -2281.0000,2.0000000 L 1656.0000,2.0000000 L 1656.0000,1970.0000 L -2281.0000,1970.0000 L -2281.0000,2.0000000 z "
   style="fill:none;stroke:#848282;stroke-width:3.0000000"
   id="14379136" />
 </g>
 <g
   id="Layer 3">
  <g
   id="g1437">
   <path
   d="M -1798.0000,512.00000 L -1751.0000,558.00000 L -1713.0000,519.00000 L -1467.0000,765.00000 L -1432.0000,732.00000 L -1685.0000,492.00000 L -1632.0000,445.00000 L -1709.0000,424.00000 L -1798.0000,512.00000 z "
   style="fill:#fff500;stroke:#fff500;stroke-width:3.0000000;stroke-linecap:round;stroke-linejoin:bevel"
   id="14379312" />
   <path
   d="M -1606.0000,397.00000 C -1514.0000,458.00000 -1468.0000,521.00000 -1464.0000,584.00000 C -1466.0000,725.00000 -1620.0000,790.00000 -1721.0000,675.00000 L -1721.0000,696.00000 L -1740.0000,695.00000 C -1753.0000,721.00000 -1767.0000,745.00000 -1778.0000,760.00000 C -1809.0000,769.00000 -1824.0000,760.00000 -1816.0000,723.00000 C -1800.0000,706.00000 -1777.0000,695.00000 -1757.0000,680.00000 L -1756.0000,663.00000 L -1731.0000,662.00000 L -1729.0000,655.00000 L -1714.0000,655.00000 C -1615.0000,753.00000 -1502.0000,647.00000 -1509.0000,569.00000 C -1516.0000,491.00000 -1543.0000,465.00000 -1606.0000,397.00000 z "
   style="fill:#fff500;stroke:#fff500;stroke-width:3.0000000;stroke-linecap:round;stroke-linejoin:bevel"
   id="14379400" />
   <path
   d="M -1665.0000,294.00000 L -1715.0000,259.00000 L -1655.0000,258.00000 L -1637.0000,199.00000 L -1616.0000,259.00000 L -1553.0000,259.00000 L -1603.0000,295.00000 L -1583.0000,351.00000 L -1632.0000,316.00000 L -1683.0000,353.00000 L -1665.0000,294.00000 z "
   style="fill:none;stroke:#fff500;stroke-width:14.000000;stroke-linecap:square"
   id="14379488" />
  </g>
 </g>
</svg>