<?xml version="1.0" encoding="iso-8859-1"?>
<!DOCTYPE svg PUBLIC "-//W3C//DTD SVG 1.1//EN" 
  "http://www.w3.org/Graphics/SVG/1.1/DTD/svg11.dtd">
<svg xmlns="http://www.w3.org/2000/svg" version="1.1" width="6000" height="3000">
 <g fill="red">
  <rect width="5994" height="2994" id="red_background" />
  <g fill="#3399ff">
   <rect x="1500" y="500" width="4500" height="500" id="blue_stripe" />
   <circle cx="750" cy="750" r="590" id="blue_circle" />
   <path id="blue_rays" d="
	M 107,0 L 261,0 L 750,750 z
	M 389,0 L 502,0 L 750,750 z
	M 607,0 L 708,0 L 750,750 z
	M 806,0 L 905,0 L 750,750 z
	M 1011,0 L 1129,0 L 750,750 z
	M 1261,0 L 1419,0 L 750,750 z
	M 71,1500 L 233,1500 L 750,750 z
	M 364,1500 L 481,1500 L 750,750 z
	M 586,1500 L 686,1500 L 750,750 z
	M 786,1500 L 885,1500 L 750,750 z
	M 990,1500 L 1104,1500 L 750,750 z
	M 1233,1500 L 1386,1500 L 750,750 z
	M 0,77 L 0,238 L 750,750 z
	M 0,369 L 0,484 L 750,750 z
	M 0,589 L 0,691 L 750,750 z
	M 0,789 L 0,888 L 750,750 z
	M 0,991 L 0,1106 L 750,750 z
	M 0,1235 L 0,1387 L 750,750 z
	M 1500,112 L 1500,265 L 750,750 z
	M 1500,392 L 1500,507 L 750,750 z
	M 1500,611 L 1500,710 L 750,750 z
	M 1500,808 L 1500,893 L 750,750 z
	M 1500,1013 L 1500,1129 L 750,750 z
	M 1500,1262 L 1500,1421 L 750,750 z" />
  </g>
  <path id="red_hammer" d="M 480,756 l 73,73 59,-61 381,382 55,-52 -393,-372 82,-73 -119,-33 -138,136z" />
  <path id="red_cicle" d="M 778,578 c 143,95 214,192 221,291 -4,218 -242,319 -400,140 l 1,34 -30,-1 c -20,39 -42,77 -60,100 -48,14 -71,-1 -58,-58 24,-26 61,-44 92,-66 l 1,-27 38,-2 3,-11 24,1 c 155,152 330,-13 319,-134 -12,-120 -54,-162 -151,-267 z" />
  <path id="red_star" d="M 686,418 l -77,-54 94,-1 27,-93 33,94 97,0 -77,56 31,88 -77,-55 -78,58 27,-93 z"/>
 </g>
</svg>
